<svg xmlns="http://www.w3.org/2000/svg" viewBox="0 0 200 150" width="200" height="150">
  <defs>
    <linearGradient id="bg1010" gradientTransform="rotate(135)">
      <stop offset="0%" style="stop-color:#D4E9FF"/>
      <stop offset="100%" style="stop-color:#A8D0F0"/>
    </linearGradient>
  </defs>
  <rect width="200" height="150" fill="url(#bg1010)" rx="16"/>
  <rect x="70.85136769880773" y="88.5117776388579" width="55.12872138150851" height="26.488222361142107" rx="4" fill="#FFB3B3"/>
  <rect x="75.90833779989589" y="65.67376575145408" width="50.292476560905925" height="22.83801188740381" rx="4" fill="#B7E4C7"/>
  <rect x="83.84658638398469" y="41.523490865922895" width="37.06002807362529" height="24.15027488553119" rx="4" fill="#C9B8E8"/>
  <rect x="83.83400777356655" y="16.463359305099175" width="26.543874697475985" height="25.06013156082372" rx="4" fill="#FFE566"/>
  <polygon points="45,31 49.11449676604731,39.33688103937537 58.31479122813215,40.673762078750734 51.657395614066075,47.16311896062463 53.22899353209462,56.326237921249266 45,52 36.77100646790538,56.326237921249266 38.342604385933925,47.16311896062463 31.68520877186785,40.673762078750734 40.88550323395269,39.33688103937537" fill="#FFE566"/>
  <polygon points="160,38 163.52671151375483,45.14589803375031 171.41267819554184,46.291796067500634 165.70633909777092,51.85410196624969 167.05342302750967,59.70820393249937 160,56 152.94657697249033,59.70820393249937 154.29366090222908,51.85410196624969 148.58732180445816,46.29179606750063 156.47328848624517,45.14589803375031" fill="#FFF3B0"/>
  <polygon points="100,12 102.93892626146237,17.954915028125264 109.51056516295154,18.909830056250527 104.75528258147577,23.545084971874736 105.87785252292473,30.090169943749473 100,27 94.12214747707527,30.090169943749473 95.24471741852423,23.545084971874736 90.48943483704846,18.909830056250524 97.06107373853763,17.954915028125264" fill="#FFB3B3"/>
</svg>