<svg xmlns="http://www.w3.org/2000/svg" viewBox="0 0 200 150" width="200" height="150">
  <defs>
    <linearGradient id="bg1013" gradientTransform="rotate(45)">
      <stop offset="0%" style="stop-color:#E8F0E8"/>
      <stop offset="100%" style="stop-color:#C5DBC5"/>
    </linearGradient>
  </defs>
  <rect width="200" height="150" fill="url(#bg1013)" rx="16"/>
  <rect x="0" y="0" width="200" height="150" rx="0" fill="#1a1a3e"/>
  <polygon points="156.69327942078326,14.63351956779934 157.42101221414217,16.108067263826356 159.04827220954854,16.34452198198326 157.8707758151659,17.49229729431771 158.1487450075011,19.11298204296597 156.69327942078326,18.34779850140967 155.2378138340654,19.11298204296597 155.5157830264006,17.49229729431771 154.33828663201797,16.34452198198326 155.96554662742435,16.108067263826356" fill="#FFF3B0"/>
  <polygon points="173.86479865306683,42.07107109422759 174.487692167308,43.33319120847332 175.88052440789508,43.535581579906015 174.87266153048094,44.518005079827475 175.11058568154922,45.90520932261433 173.86479865306683,45.25026032266669 172.61901162458443,45.90520932261433 172.85693577565272,44.518005079827475 171.84907289823857,43.535581579906015 173.24190513882564,43.33319120847332" fill="#FFF3B0"/>
  <polygon points="113.7510797316827,27.331549214628353 114.34792357484626,28.540886930141593 115.68250698011222,28.734813250360776 114.71679335589745,29.676151382644296 114.94476741800983,31.00534215536619 113.7510797316827,30.37778340051051 112.55739204535556,31.00534215536619 112.78536610746794,29.676151382644296 111.81965248325317,28.734813250360776 113.15423588851912,28.540886930141593" fill="#FFF3B0"/>
  <polygon points="128.73948057289454,45.165119006615896 129.64780097681327,47.00557716801156 131.67886714532563,47.30070835773498 130.20917385911008,48.733305246073066 130.556121380732,50.756164513858 128.73948057289454,49.80109992163261 126.92283976505708,50.756164513858 127.26978728667899,48.733305246073066 125.80009400046346,47.30070835773498 127.8311601689758,47.00557716801156" fill="#FFF3B0"/>
  <polygon points="43.21605367227676,34.79358240140027 44.34218874811654,37.07538129331275 46.860303329541175,37.44128476007183 45.03817850090897,39.21741749752467 45.468323823956325,41.725357168495684 43.21605367227676,40.541268676860454 40.96378352059719,41.725357168495684 41.393928843644545,39.21741749752467 39.57180401501234,37.44128476007183 42.08991859643697,37.07538129331275" fill="#FFF3B0"/>
  <polygon points="168.66155108472412,6.910310814447257 169.57563248144086,8.762442022233923 171.61958062146743,9.059445071987277 170.14056585309578,10.501128159777185 170.4897138781576,12.5368173470738 168.66155108472412,11.575695288547195 166.83338829129065,12.5368173470738 167.18253631635247,10.501128159777185 165.7035215479808,9.059445071987277 167.74746968800739,8.762442022233923" fill="#FFF3B0"/>
  <polygon points="184.0381643316141,8.000891095986162 185.47110978860326,10.904355721213825 188.67527323848051,11.369947923817067 186.35671878504732,13.62997994994398 186.90405524559242,16.821196381277375 184.0381643316141,15.314508363859431 181.17227341763578,16.821196381277375 181.71960987818088,13.62997994994398 179.40105542474768,11.369947923817065 182.60521887462494,10.904355721213825" fill="#FFF3B0"/>
  <polygon points="175.69065505629965,44.86212841627457 176.85657637636945,47.22454304420765 179.46365570446184,47.6033738453562 177.57715538038076,49.44225718208733 178.02249769643927,52.038802121115566 175.69065505629965,50.81287989662815 173.35881241616002,52.038802121115566 173.80415473221854,49.44225718208733 171.91765440813745,47.6033738453562 174.52473373622985,47.22454304420765" fill="#FFF3B0"/>
  <polygon points="178.91069567766863,46.066679763169304 179.77496899511823,47.81788877918843 181.70754288407477,48.09870820295636 180.3091192808717,49.46183432002936 180.63924231256783,51.38659928463822 178.91069567766863,50.47784853992289 177.18214904276942,51.38659928463822 177.51227207446556,49.46183432002936 176.1138484712625,48.09870820295635 178.04642236021903,47.81788877918843" fill="#FFF3B0"/>
  <polygon points="160.26220176564493,31.81150162574795 160.92321351556316,33.150857721534024 162.40128072230638,33.36563345852384 161.33174124397567,34.40817678574881 161.58422526548136,35.88027158695339 160.26220176564493,35.18524270213675 158.9401782658085,35.88027158695339 159.1926622873142,34.40817678574881 158.12312280898348,33.36563345852384 159.6011900157267,33.150857721534024" fill="#FFF3B0"/>
  <path d="M155 25 A22 22 0 1 1 175 50 A18 18 0 1 0 155 25" fill="#FFE566"/>
  <rect x="35" y="75" width="130" height="50" rx="8" fill="#C9B8E8"/>
  <rect x="45" y="65" width="90" height="20" rx="8" fill="white"/>
  <rect x="40" y="90" width="120" height="30" rx="6" fill="#C5DBC5"/>
  <text x="170" y="75" fill="#E2D9F3" font-size="16" font-weight="bold">z</text>
  <text x="178" y="65" fill="#E2D9F3" font-size="13" font-weight="bold">z</text>
</svg>