<svg xmlns="http://www.w3.org/2000/svg" viewBox="0 0 200 150" width="200" height="150">
  <defs>
    <linearGradient id="bg1060" gradientTransform="rotate(135)">
      <stop offset="0%" style="stop-color:#D0F0F0"/>
      <stop offset="100%" style="stop-color:#A0E0E0"/>
    </linearGradient>
  </defs>
  <rect width="200" height="150" fill="url(#bg1060)" rx="16"/>
  <circle cx="195.1239476835326" cy="132.56591105109692" r="2.1900953351027965" fill="#D0F0F0" opacity="0.3"/><circle cx="2.5391511416273715" cy="39.12920112206848" r="4.452750437643772" fill="#D0F0F0" opacity="0.3"/><circle cx="151.47637053032668" cy="127.92488868972214" r="3.1230592113979583" fill="#D0F0F0" opacity="0.3"/><circle cx="19.338690510267043" cy="147.36347824569975" r="3.1223234996600695" fill="#D0F0F0" opacity="0.3"/><circle cx="56.1931313284731" cy="146.46782829741483" r="2.4079823498523183" fill="#D0F0F0" opacity="0.3"/><circle cx="119.50288749339961" cy="110.96938139130543" r="3.3633076552123384" fill="#D0F0F0" opacity="0.3"/>
  <ellipse cx="100" cy="95" rx="32" ry="28" fill="#A0E0E0" opacity="1"/>
  <circle cx="100" cy="58" r="28" fill="#A0E0E0" opacity="1"/>
  <ellipse cx="82" cy="25" rx="10" ry="24" fill="#A0E0E0" opacity="1"/>
  <ellipse cx="118" cy="25" rx="10" ry="24" fill="#A0E0E0" opacity="1"/>
  <ellipse cx="82" cy="27" rx="5" ry="15" fill="#FFD6D6" opacity="1"/>
  <ellipse cx="118" cy="27" rx="5" ry="15" fill="#FFD6D6" opacity="1"/>
  <circle cx="88" cy="52" r="5" fill="#333" opacity="1"/>
  <circle cx="112" cy="52" r="5" fill="#333" opacity="1"/>
  <circle cx="86" cy="50" r="2" fill="white" opacity="1"/>
  <circle cx="110" cy="50" r="2" fill="white" opacity="1"/>
  <ellipse cx="100" cy="68" rx="6" ry="4" fill="#FFB3B3" opacity="1"/>
  <path d="M50,46.8 C45.2,42.6 47.6,40.2 50,43.2 C52.4,40.2 54.8,42.6 50,46.8Z" fill="#FFB3B3"/>
  <path d="M155,51.5 C151,48 153,46 155,48.5 C157,46 159,48 155,51.5Z" fill="#FFD6D6"/>
</svg>