<svg xmlns="http://www.w3.org/2000/svg" viewBox="0 0 200 150" width="200" height="150">
  <defs>
    <linearGradient id="bg1141" gradientTransform="rotate(135)">
      <stop offset="0%" style="stop-color:#D8F3DC"/>
      <stop offset="100%" style="stop-color:#B7E4C7"/>
    </linearGradient>
  </defs>
  <rect width="200" height="150" fill="url(#bg1141)" rx="16"/>
  <rect x="0" y="0" width="200" height="150" rx="0" fill="#1a1a3e"/>
  <polygon points="84.41397569585206,11.630811910955345 85.65923106459013,14.153974879141625 88.44370671843501,14.558582875284396 86.42884120714353,16.522591344921356 86.9044864333282,19.295815806843855 84.41397569585206,17.98647682708588 81.92346495837592,19.295815806843855 82.39911018456058,16.522591344921356 80.38424467326911,14.558582875284394 83.16872032711399,14.153974879141625" fill="#FFF3B0"/>
  <polygon points="130.61679869098043,30.06938787465964 131.25285732301555,31.358183431166754 132.67512766192164,31.564851408673928 131.64596317645103,32.56803884465233 131.8889159550507,33.98456223564508 130.61679869098043,33.315770611659474 129.34468142691017,33.98456223564508 129.58763420550983,32.56803884465233 128.55846972003923,31.564851408673924 129.98074005894532,31.358183431166754" fill="#FFF3B0"/>
  <polygon points="79.68691678148389,49.502341341472174 80.30024622631555,50.74508253444191 81.67169255756139,50.944365351347315 80.67930466952264,51.91170446472761 80.91357567114723,53.277609211918715 79.68691678148389,52.63271646966518 78.46025789182055,53.277609211918715 78.69452889344514,51.91170446472761 77.70214100540639,50.944365351347315 79.07358733665222,50.74508253444191" fill="#FFF3B0"/>
  <polygon points="94.84248359947742,17.154416530164553 96.15631833365104,19.816536470224047 99.09414211046362,20.24342725295198 96.96831285497052,22.31559864076552 97.47015306782467,25.241551594034924 94.84248359947742,23.860104002159233 92.21481413113017,25.241551594034924 92.71665434398432,22.31559864076552 90.59082508849121,20.24342725295198 93.5286488653038,19.816536470224047" fill="#FFF3B0"/>
  <polygon points="41.1557570331388,12.05867561872401 41.87534848232284,13.516727149667933 43.48440387872595,13.750536584748609 42.32008045593238,14.88547142330145 42.594939931506886,16.488025132015643 41.1557570331388,15.73140190631375 39.71657413477071,16.488025132015643 39.99143361034522,14.88547142330145 38.82711018755165,13.750536584748609 40.436165583954754,13.516727149667933" fill="#FFF3B0"/>
  <polygon points="147.28745490404435,34.27882515539659 148.38859525368784,36.50997920037911 150.85081992825857,36.867761388295065 149.06913741615145,38.60447261014703 149.48973560333133,41.05674820783091 147.28745490404435,39.898940726596265 145.08517420475738,41.05674820783091 145.50577239193726,38.60447261014703 143.72408987983013,36.867761388295065 146.18631455440087,36.50997920037911" fill="#FFF3B0"/>
  <polygon points="28.738367512578407,13.645673023196196 29.575281223991066,15.341445422349722 31.446677174011416,15.613375171235077 30.09252234329491,16.933349899981266 30.412194935403726,18.797184126498166 28.738367512578407,17.917200974000707 27.064540089753088,18.797184126498166 27.384212681861904,16.933349899981266 26.030057851145397,15.613375171235077 27.901453801165747,15.341445422349722" fill="#FFF3B0"/>
  <polygon points="87.75954241321415,46.62263861889642 88.81254523176912,48.756255372435206 91.1671311145569,49.09839672837248 89.46333676388552,50.759185756962935 89.86554805032408,53.10425749742794 87.75954241321415,51.997064811700966 85.65353677610422,53.10425749742794 86.05574806254278,50.759185756962935 84.3519537118714,49.09839672837248 86.70653959465918,48.756255372435206" fill="#FFF3B0"/>
  <polygon points="43.784134002671635,47.33313160579132 44.74932923875615,49.288830764291006 46.907571398200076,49.60244170720504 45.345852700435856,51.12474120184144 45.714524474840665,53.2742625823059 43.784134002671635,52.2593962525483 41.85374353050261,53.2742625823059 42.222415304907415,51.124741201841445 40.660696607143194,49.60244170720504 42.818938766587124,49.28883076429101" fill="#FFF3B0"/>
  <polygon points="130.8235897209488,33.4501642858404 131.56340169885195,34.9491870830338 133.2176715720119,35.189566566163556 132.02063064648036,36.35639308786977 132.30321367675506,38.00397857583548 130.8235897209488,37.22609422803134 129.34396576514254,38.00397857583548 129.62654879541725,36.35639308786977 128.4295078698857,35.18956656616355 130.08377774304566,34.9491870830338" fill="#FFF3B0"/>
  <path d="M155 25 A22 22 0 1 1 175 50 A18 18 0 1 0 155 25" fill="#FFE566"/>
  <rect x="35" y="75" width="130" height="50" rx="8" fill="#C9B8E8"/>
  <rect x="45" y="65" width="90" height="20" rx="8" fill="white"/>
  <rect x="40" y="90" width="120" height="30" rx="6" fill="#B7E4C7"/>
  <text x="170" y="75" fill="#E2D9F3" font-size="16" font-weight="bold">z</text>
  <text x="178" y="65" fill="#E2D9F3" font-size="13" font-weight="bold">z</text>
</svg>