<svg xmlns="http://www.w3.org/2000/svg" viewBox="0 0 200 150" width="200" height="150">
  <defs>
    <linearGradient id="bg1142" gradientTransform="rotate(90)">
      <stop offset="0%" style="stop-color:#D0F0F0"/>
      <stop offset="100%" style="stop-color:#A0E0E0"/>
    </linearGradient>
  </defs>
  <rect width="200" height="150" fill="url(#bg1142)" rx="16"/>
  <circle cx="145.05391122420406" cy="38.0666526791174" r="3.996760436670229" fill="#D0F0F0" opacity="0.3"/><circle cx="52.43758815777255" cy="50.79821349036138" r="2.3607157007445494" fill="#D0F0F0" opacity="0.3"/><circle cx="143.4637314385327" cy="108.4877452233286" r="4.22859919376242" fill="#D0F0F0" opacity="0.3"/><circle cx="131.6666897488176" cy="5.411584163448424" r="4.130585207363765" fill="#D0F0F0" opacity="0.3"/><circle cx="81.56345651132142" cy="73.0259606852087" r="4.322500029395087" fill="#D0F0F0" opacity="0.3"/><circle cx="104.61271525982738" cy="24.23720756369221" r="4.603737796372684" fill="#D0F0F0" opacity="0.3"/>
  <ellipse cx="100" cy="95" rx="32" ry="28" fill="#A0E0E0" opacity="1"/>
  <circle cx="100" cy="58" r="28" fill="#A0E0E0" opacity="1"/>
  <ellipse cx="82" cy="25" rx="10" ry="24" fill="#A0E0E0" opacity="1"/>
  <ellipse cx="118" cy="25" rx="10" ry="24" fill="#A0E0E0" opacity="1"/>
  <ellipse cx="82" cy="27" rx="5" ry="15" fill="#FFD6D6" opacity="1"/>
  <ellipse cx="118" cy="27" rx="5" ry="15" fill="#FFD6D6" opacity="1"/>
  <circle cx="88" cy="52" r="5" fill="#333" opacity="1"/>
  <circle cx="112" cy="52" r="5" fill="#333" opacity="1"/>
  <circle cx="86" cy="50" r="2" fill="white" opacity="1"/>
  <circle cx="110" cy="50" r="2" fill="white" opacity="1"/>
  <ellipse cx="100" cy="68" rx="6" ry="4" fill="#FFB3B3" opacity="1"/>
  <path d="M50,46.8 C45.2,42.6 47.6,40.2 50,43.2 C52.4,40.2 54.8,42.6 50,46.8Z" fill="#FFB3B3"/>
  <path d="M155,51.5 C151,48 153,46 155,48.5 C157,46 159,48 155,51.5Z" fill="#FFD6D6"/>
</svg>