<svg xmlns="http://www.w3.org/2000/svg" viewBox="0 0 200 150" width="200" height="150">
  <defs>
    <linearGradient id="bg1191" gradientTransform="rotate(0)">
      <stop offset="0%" style="stop-color:#D4E9FF"/>
      <stop offset="100%" style="stop-color:#A8D0F0"/>
    </linearGradient>
  </defs>
  <rect width="200" height="150" fill="url(#bg1191)" rx="16"/>
  <rect x="0" y="100" width="200" height="50" rx="0" fill="#C5DBC5"/>
  <circle cx="165" cy="35" r="22" fill="#FFE566" opacity="1"/>
  <line x1="191" y1="35" x2="200" y2="35" stroke="#FFF3B0" stroke-width="3" stroke-linecap="round"/>
  <line x1="183.38477631085024" y1="53.384776310850235" x2="189.74873734152916" y2="59.748737341529164" stroke="#FFF3B0" stroke-width="3" stroke-linecap="round"/>
  <line x1="165" y1="61" x2="165" y2="70" stroke="#FFF3B0" stroke-width="3" stroke-linecap="round"/>
  <line x1="146.61522368914976" y1="53.38477631085024" x2="140.25126265847084" y2="59.748737341529164" stroke="#FFF3B0" stroke-width="3" stroke-linecap="round"/>
  <line x1="139" y1="35" x2="130" y2="35.00000000000001" stroke="#FFF3B0" stroke-width="3" stroke-linecap="round"/>
  <line x1="146.61522368914976" y1="16.615223689149765" x2="140.25126265847084" y2="10.25126265847084" stroke="#FFF3B0" stroke-width="3" stroke-linecap="round"/>
  <line x1="165" y1="9" x2="165" y2="0" stroke="#FFF3B0" stroke-width="3" stroke-linecap="round"/>
  <line x1="183.38477631085024" y1="16.61522368914976" x2="189.74873734152916" y2="10.251262658470832" stroke="#FFF3B0" stroke-width="3" stroke-linecap="round"/>
  <rect x="90" y="55" width="14" height="50" rx="2" fill="#8B6914"/>
  <path d="M78.56595441839454,39.01126790674243 Q88.56595441839454,51.01126790674243 78.56595441839454,63.01126790674243 Q68.56595441839454,51.01126790674243 78.56595441839454,39.01126790674243Z" fill="#B7E4C7"/>
  <path d="M91.9799511320889,38.9503280906938 Q101.9799511320889,50.9503280906938 91.9799511320889,62.9503280906938 Q81.9799511320889,50.9503280906938 91.9799511320889,38.9503280906938Z" fill="#95D5B2"/>
  <path d="M104.2967457305931,35.287415746995975 Q114.2967457305931,47.287415746995975 104.2967457305931,59.287415746995975 Q94.2967457305931,47.287415746995975 104.2967457305931,35.287415746995975Z" fill="#B7E4C7"/>
  <path d="M113.61118285759039,30.392785469346563 Q123.61118285759039,42.39278546934656 113.61118285759039,54.39278546934656 Q103.61118285759039,42.39278546934656 113.61118285759039,30.392785469346563Z" fill="#95D5B2"/>
  <path d="M123.2062241222884,31.330325599872594 Q133.2062241222884,43.330325599872594 123.2062241222884,55.330325599872594 Q113.2062241222884,43.330325599872594 123.2062241222884,31.330325599872594Z" fill="#B7E4C7"/>
  <circle cx="45" cy="95" r="8" fill="#FFB3B3" opacity="1"/>
  <circle cx="155" cy="98" r="6" fill="#C9B8E8" opacity="1"/>
</svg>