<svg xmlns="http://www.w3.org/2000/svg" viewBox="0 0 200 150" width="200" height="150">
  <defs>
    <linearGradient id="bg1262" gradientTransform="rotate(135)">
      <stop offset="0%" style="stop-color:#D4E9FF"/>
      <stop offset="100%" style="stop-color:#A8D0F0"/>
    </linearGradient>
  </defs>
  <rect width="200" height="150" fill="url(#bg1262)" rx="16"/>
  <circle cx="6.709142111549227" cy="68.16101020883707" r="2.113945011376927" fill="#D4E9FF" opacity="0.3"/><circle cx="29.796846737917804" cy="33.28815930253768" r="4.59574535967613" fill="#D4E9FF" opacity="0.3"/><circle cx="140.7436211618915" cy="47.25152390155927" r="4.90612818956788" fill="#D4E9FF" opacity="0.3"/><circle cx="137.66526002182218" cy="48.55926025848021" r="4.279876722560857" fill="#D4E9FF" opacity="0.3"/><circle cx="11.815017595836252" cy="63.548954962743665" r="3.6255448194970086" fill="#D4E9FF" opacity="0.3"/><circle cx="14.761929284213693" cy="108.81789520178842" r="4.77028193277647" fill="#D4E9FF" opacity="0.3"/>
  <ellipse cx="100" cy="95" rx="32" ry="28" fill="#A8D0F0" opacity="1"/>
  <circle cx="100" cy="58" r="28" fill="#A8D0F0" opacity="1"/>
  <ellipse cx="82" cy="25" rx="10" ry="24" fill="#A8D0F0" opacity="1"/>
  <ellipse cx="118" cy="25" rx="10" ry="24" fill="#A8D0F0" opacity="1"/>
  <ellipse cx="82" cy="27" rx="5" ry="15" fill="#FFD6D6" opacity="1"/>
  <ellipse cx="118" cy="27" rx="5" ry="15" fill="#FFD6D6" opacity="1"/>
  <circle cx="88" cy="52" r="5" fill="#333" opacity="1"/>
  <circle cx="112" cy="52" r="5" fill="#333" opacity="1"/>
  <circle cx="86" cy="50" r="2" fill="white" opacity="1"/>
  <circle cx="110" cy="50" r="2" fill="white" opacity="1"/>
  <ellipse cx="100" cy="68" rx="6" ry="4" fill="#FFB3B3" opacity="1"/>
  <path d="M50,46.8 C45.2,42.6 47.6,40.2 50,43.2 C52.4,40.2 54.8,42.6 50,46.8Z" fill="#FFB3B3"/>
  <path d="M155,51.5 C151,48 153,46 155,48.5 C157,46 159,48 155,51.5Z" fill="#FFD6D6"/>
</svg>