<svg xmlns="http://www.w3.org/2000/svg" viewBox="0 0 200 150" width="200" height="150">
  <defs>
    <linearGradient id="bg1321" gradientTransform="rotate(45)">
      <stop offset="0%" style="stop-color:#D8F3DC"/>
      <stop offset="100%" style="stop-color:#B7E4C7"/>
    </linearGradient>
  </defs>
  <rect width="200" height="150" fill="url(#bg1321)" rx="16"/>
  <rect x="0" y="0" width="200" height="150" rx="0" fill="#1a1a3e"/>
  <polygon points="146.15104240703658,39.88889805541112 147.34649525260232,42.31115008970757 150.01960907918286,42.69957626514955 148.0853257431097,44.585036527105316 148.54194809816804,47.24734913994504 146.15104240703658,45.99037563197453 143.76013671590513,47.24734913994504 144.21675907096346,44.585036527105316 142.2824757348903,42.69957626514955 144.95558956147084,42.31115008970757" fill="#FFF3B0"/>
  <polygon points="66.81296900972939,48.57678705698953 68.1388731536803,51.26336229237433 71.10368495120319,51.69417466406082 68.9583269804663,53.78538184454886 69.4647772976312,56.73821376840986 66.81296900972939,55.3440756480845 64.16116072182757,56.73821376840986 64.66761103899248,53.78538184454886 62.52225306825557,51.69417466406082 65.48706486577848,51.26336229237433" fill="#FFF3B0"/>
  <polygon points="63.25557456950264,28.11569049837817 64.32593589663435,30.284479431955944 66.71933658458772,30.632260909227025 64.98745557704518,32.32042766187381 65.39629722376604,34.704157369062756 63.25557456950264,33.578712867298236 61.11485191523924,34.704157369062756 61.5236935619601,32.32042766187381 59.79181255441757,30.632260909227025 62.18521324237094,30.284479431955944" fill="#FFF3B0"/>
  <polygon points="61.553367539163446,29.15954294162134 62.35740009562835,30.78869084382574 64.15527154800681,31.049936857833682 62.85431954358513,32.318051648104536 63.161432652093254,34.108658466391276 61.553367539163446,33.26324860621071 59.94530242623364,34.108658466391276 60.252415534741765,32.318051648104536 58.951463530320076,31.049936857833682 60.74933498269854,30.78869084382574" fill="#FFF3B0"/>
  <polygon points="172.05428132102952,45.70537567672636 172.79600224212842,47.20826641530822 174.45454064203935,47.44926615168127 173.25441098153445,48.619103445875346 173.53772316322733,50.27094021281552 172.05428132102952,49.4910486833528 170.57083947883172,50.27094021281552 170.8541516605246,48.619103445875346 169.6540220000197,47.44926615168127 171.31256039993062,47.20826641530822" fill="#FFF3B0"/>
  <polygon points="24.42648517402631,11.488468863561138 25.630713351966225,13.928501663342265 28.323449418260587,14.319779117113608 26.37496729614345,16.219079774814254 26.83494152990614,18.90093534005759 24.42648517402631,17.63473490159049 22.018028818146483,18.90093534005759 22.478003051909173,16.219079774814254 20.529520929792035,14.319779117113608 23.222256996086397,13.928501663342265" fill="#FFF3B0"/>
  <polygon points="129.34515583129723,37.71458084812775 130.16604217608722,39.37787825544016 132.00159984483895,39.644600397231066 130.6733778380681,40.939296870140616 130.9869285208772,42.76743762663197 129.34515583129723,41.90430664469227 127.70338314171727,42.76743762663197 128.01693382452638,40.939296870140616 126.6887118177555,39.644600397231066 128.52426948650725,39.37787825544016" fill="#FFF3B0"/>
  <polygon points="108.5746604106771,36.78522432113118 109.19231898471187,38.03673728795872 110.57344554313923,38.237426724209755 109.57405297690816,39.21159371132142 109.80997755874665,40.58713957093515 108.5746604106771,39.93769491286071 107.33934326260754,40.58713957093515 107.57526784444603,39.21159371132142 106.57587527821497,38.237426724209755 107.95700183664232,38.03673728795872" fill="#FFF3B0"/>
  <polygon points="146.92207873466486,24.097800373480823 148.31115101417492,26.912368231434062 151.41721105682,27.363705174538023 149.16964489574244,29.55454071750007 149.70022329368499,32.64805014667004 146.92207873466486,31.18749311802867 144.14393417564474,32.64805014667004 144.6745125735873,29.55454071750007 142.42694641250972,27.36370517453802 145.5330064551548,26.912368231434066" fill="#FFF3B0"/>
  <polygon points="110.37379734047136,6.516039105760228 111.66303395345275,9.128317808401835 114.54585465916075,9.547216177064092 112.45982599981606,11.580591572046341 112.95227056643415,14.451763704353107 110.37379734047136,13.096180107698274 107.79532411450856,14.451763704353107 108.28776868112665,11.580591572046343 106.20174002178196,9.54721617706409 109.08456072748996,9.128317808401835" fill="#FFF3B0"/>
  <path d="M155 25 A22 22 0 1 1 175 50 A18 18 0 1 0 155 25" fill="#FFE566"/>
  <rect x="35" y="75" width="130" height="50" rx="8" fill="#C9B8E8"/>
  <rect x="45" y="65" width="90" height="20" rx="8" fill="white"/>
  <rect x="40" y="90" width="120" height="30" rx="6" fill="#B7E4C7"/>
  <text x="170" y="75" fill="#E2D9F3" font-size="16" font-weight="bold">z</text>
  <text x="178" y="65" fill="#E2D9F3" font-size="13" font-weight="bold">z</text>
</svg>