<svg xmlns="http://www.w3.org/2000/svg" viewBox="0 0 200 150" width="200" height="150">
  <defs>
    <linearGradient id="bg2021" gradientTransform="rotate(90)">
      <stop offset="0%" style="stop-color:#E8F0E8"/>
      <stop offset="100%" style="stop-color:#C5DBC5"/>
    </linearGradient>
  </defs>
  <rect width="200" height="150" fill="url(#bg2021)" rx="16"/>
  <rect x="0" y="105" width="200" height="45" rx="0" fill="#FFE4CC"/>
  <rect x="50" y="50" width="100" height="60" rx="6" fill="#C5DBC5"/>
  <rect x="50" y="50" width="100" height="15" rx="6" fill="#A3C4A3"/>
  <rect x="70" y="30" width="8" height="35" rx="2" fill="#FFB3B3"/>
  <rect x="90" y="25" width="25" height="35" rx="2" fill="#FFF3B0"/>
  <circle cx="130" cy="45" r="15" fill="#B7E4C7" opacity="1"/>
  <path d="M160 75 L175 55 M160 75 L175 95" stroke="#888" stroke-width="4" stroke-linecap="round"/>
  <polygon points="35,28 38.52671151375484,35.14589803375031 46.412678195541844,36.291796067500634 40.70633909777092,41.85410196624969 42.05342302750968,49.70820393249937 35,46 27.946576972490323,49.70820393249937 29.293660902229078,41.85410196624969 23.587321804458156,36.29179606750063 31.47328848624516,35.14589803375031" fill="#FFF3B0"/>
  <polygon points="175,20 177.93892626146237,25.954915028125264 184.51056516295154,26.909830056250527 179.75528258147577,31.545084971874736 180.87785252292474,38.09016994374947 175,35 169.12214747707526,38.09016994374947 170.24471741852423,31.545084971874736 165.48943483704846,26.909830056250524 172.06107373853763,25.954915028125264" fill="#FFE566"/>
</svg>