<svg xmlns="http://www.w3.org/2000/svg" viewBox="0 0 200 150" width="200" height="150">
  <defs>
    <linearGradient id="bg20647" gradientTransform="rotate(45)">
      <stop offset="0%" style="stop-color:#FFE4EC"/>
      <stop offset="100%" style="stop-color:#FFC8DD"/>
    </linearGradient>
  </defs>
  <rect width="200" height="150" fill="url(#bg20647)" rx="16"/>
  <rect x="0" y="0" width="200" height="150" rx="0" fill="#1a1a3e"/>
  <polygon points="92.262675559316,24.069399326713665 93.45608337288654,26.487507673595843 96.12462436890969,26.875269377863162 94.19364996411284,28.757504228983493 94.6494911864571,31.41526248863846 92.262675559316,30.16043925455824 89.87585993217489,31.41526248863846 90.33170115451915,28.757504228983493 88.4007267497223,26.875269377863162 91.06926774574545,26.487507673595843" fill="#FFF3B0"/>
  <polygon points="159.71374546738843,17.800308530557686 160.74967810036432,19.89933731026034 163.0660938878087,20.235932226684614 161.38991967759858,21.869798272329344 161.78561073334018,24.17685415082263 159.71374546738843,23.08761012039281 157.6418802014367,24.17685415082263 158.03757125717829,21.869798272329344 156.36139704696816,20.235932226684614 158.67781283441255,19.89933731026034" fill="#FFF3B0"/>
  <polygon points="102.01166234190168,33.09939423678588 102.79729851313537,34.6912669911538 104.55403439759658,34.94653565726064 103.28284836974913,36.185635791331755 103.58293468436906,37.935273257616544 102.01166234190168,37.10920650156913 100.4403899994343,37.935273257616544 100.74047631405423,36.185635791331755 99.46929028620679,34.94653565726063 101.22602617066799,34.6912669911538" fill="#FFF3B0"/>
  <polygon points="73.03328644296016,17.402173382628916 74.3254050529204,20.02029164897286 77.21467009978403,20.440126435218026 75.1239782713721,22.478047296630702 75.61752366288064,25.355637730533708 73.03328644296016,23.997023822925257 70.4490492230397,25.355637730533708 70.94259461454823,22.478047296630702 68.85190278613629,20.440126435218026 71.74116783299992,20.02029164897286" fill="#FFF3B0"/>
  <polygon points="104.42969194613397,33.73685671679925 105.22082267083468,35.3398626525071 106.98984475035412,35.59691660725738 105.70976834824405,36.84468271444293 106.01195339553539,38.606556731129025 104.42969194613397,37.77471265967199 102.84743049673256,38.606556731129025 103.14961554402389,36.84468271444293 101.86953914191382,35.59691660725738 103.63856122143326,35.3398626525071" fill="#FFF3B0"/>
  <polygon points="74.22628756100494,42.86943912793049 74.9196516795519,44.27434828255612 76.47006098178214,44.499635941333196 75.34817427139353,45.59320520877479 75.61301579809887,47.13734979377054 74.22628756100494,46.40830361547614 72.839559323911,47.13734979377054 73.10440085061634,45.59320520877479 71.98251414022774,44.499635941333196 73.53292344245797,44.27434828255612" fill="#FFF3B0"/>
  <polygon points="91.88586621028662,25.179066567745394 92.68874813043283,26.805883026117403 94.48404668178529,27.0667551757222 93.18495644603595,28.333055190058626 93.49163005057903,30.121099503604647 91.88586621028662,29.27689949404703 90.28010236999421,30.121099503604647 90.58677597453729,28.333055190058626 89.28768573878796,27.0667551757222 91.08298429014042,26.805883026117403" fill="#FFF3B0"/>
  <polygon points="52.588191120230476,8.925340452527962 53.68414605300548,11.145987695335096 56.1347757829666,11.502085039177304 54.36148345159854,13.230617856098062 54.780100985780486,15.67134536070324 52.588191120230476,14.518990149422734 50.396281254680474,15.67134536070324 50.814898788862415,13.230617856098062 49.04160645749435,11.502085039177304 51.492236187455475,11.145987695335096" fill="#FFF3B0"/>
  <polygon points="104.94874514228286,6.838061061573171 106.10410244693163,9.179070656309952 108.68755991842723,9.554469000776901 106.81815253035505,11.376690842780798 107.25945975158041,13.949709373718594 104.94874514228286,12.734894812382663 102.63803053298531,13.949709373718594 103.07933775421067,11.376690842780798 101.2099303661385,9.5544690007769 103.79338783763409,9.179070656309952" fill="#FFF3B0"/>
  <polygon points="28.2509604448569,49.893065157062665 29.06764596333002,51.54785076055989 30.89381029887557,51.81320797113999 29.572385371866236,53.10127892877538 29.884331481803137,54.92006430757097 28.2509604448569,54.06135033581404 26.617589407910664,54.92006430757097 26.929535517847565,53.10127892877538 25.60811059083823,51.81320797113999 27.434274926383782,51.54785076055989" fill="#FFF3B0"/>
  <path d="M155 25 A22 22 0 1 1 175 50 A18 18 0 1 0 155 25" fill="#FFE566"/>
  <rect x="35" y="75" width="130" height="50" rx="8" fill="#C9B8E8"/>
  <rect x="45" y="65" width="90" height="20" rx="8" fill="white"/>
  <rect x="40" y="90" width="120" height="30" rx="6" fill="#FFC8DD"/>
  <text x="170" y="75" fill="#E2D9F3" font-size="16" font-weight="bold">z</text>
  <text x="178" y="65" fill="#E2D9F3" font-size="13" font-weight="bold">z</text>
</svg>