<svg xmlns="http://www.w3.org/2000/svg" viewBox="0 0 200 150" width="200" height="150">
  <defs>
    <linearGradient id="bg211" gradientTransform="rotate(0)">
      <stop offset="0%" style="stop-color:#E0F4FF"/>
      <stop offset="100%" style="stop-color:#BAE6FD"/>
    </linearGradient>
  </defs>
  <rect width="200" height="150" fill="url(#bg211)" rx="16"/>
  <circle cx="54.593125382416474" cy="148.68813491307264" r="4.968374623335876" fill="#E0F4FF" opacity="0.3"/><circle cx="22.618573443833156" cy="106.13755269790772" r="3.154114350960299" fill="#E0F4FF" opacity="0.3"/><circle cx="32.59145377232926" cy="136.1202241513638" r="4.848107883466582" fill="#E0F4FF" opacity="0.3"/><circle cx="81.62731982938567" cy="149.01618913841048" r="3.553561094589895" fill="#E0F4FF" opacity="0.3"/><circle cx="96.92962764165713" cy="143.55344087798585" r="3.6461761083821784" fill="#E0F4FF" opacity="0.3"/><circle cx="120.5933132692735" cy="88.88104045739738" r="4.121765868496368" fill="#E0F4FF" opacity="0.3"/>
  <ellipse cx="100" cy="95" rx="32" ry="28" fill="#BAE6FD" opacity="1"/>
  <circle cx="100" cy="58" r="28" fill="#BAE6FD" opacity="1"/>
  <ellipse cx="82" cy="25" rx="10" ry="24" fill="#BAE6FD" opacity="1"/>
  <ellipse cx="118" cy="25" rx="10" ry="24" fill="#BAE6FD" opacity="1"/>
  <ellipse cx="82" cy="27" rx="5" ry="15" fill="#FFD6D6" opacity="1"/>
  <ellipse cx="118" cy="27" rx="5" ry="15" fill="#FFD6D6" opacity="1"/>
  <circle cx="88" cy="52" r="5" fill="#333" opacity="1"/>
  <circle cx="112" cy="52" r="5" fill="#333" opacity="1"/>
  <circle cx="86" cy="50" r="2" fill="white" opacity="1"/>
  <circle cx="110" cy="50" r="2" fill="white" opacity="1"/>
  <ellipse cx="100" cy="68" rx="6" ry="4" fill="#FFB3B3" opacity="1"/>
  <path d="M50,46.8 C45.2,42.6 47.6,40.2 50,43.2 C52.4,40.2 54.8,42.6 50,46.8Z" fill="#FFB3B3"/>
  <path d="M155,51.5 C151,48 153,46 155,48.5 C157,46 159,48 155,51.5Z" fill="#FFD6D6"/>
</svg>