<svg xmlns="http://www.w3.org/2000/svg" viewBox="0 0 200 150" width="200" height="150">
  <defs>
    <linearGradient id="bg21712" gradientTransform="rotate(90)">
      <stop offset="0%" style="stop-color:#FFE4EC"/>
      <stop offset="100%" style="stop-color:#FFC8DD"/>
    </linearGradient>
  </defs>
  <rect width="200" height="150" fill="url(#bg21712)" rx="16"/>
  <circle cx="64.22804461890337" cy="1.4513587496367109" r="4.7283280083938735" fill="#FFE4EC" opacity="0.3"/><circle cx="93.16717253241222" cy="81.7531026665165" r="4.301877423336919" fill="#FFE4EC" opacity="0.3"/><circle cx="129.09082059381944" cy="90.09349631350005" r="3.379260835945388" fill="#FFE4EC" opacity="0.3"/><circle cx="168.2861015357048" cy="48.8756166172152" r="3.0008800830382825" fill="#FFE4EC" opacity="0.3"/><circle cx="46.64146712711954" cy="12.83325939275528" r="2.2780744612637136" fill="#FFE4EC" opacity="0.3"/><circle cx="8.622035694497754" cy="95.80624234586139" r="4.9547550999122905" fill="#FFE4EC" opacity="0.3"/>
  <circle cx="100" cy="75" r="48" fill="#FFE5D9" opacity="1"/>
  <circle cx="80" cy="68" r="8" fill="#333" opacity="1"/>
  <circle cx="120" cy="68" r="8" fill="#333" opacity="1"/>
  <circle cx="78" cy="65" r="3" fill="white" opacity="1"/>
  <circle cx="118" cy="65" r="3" fill="white" opacity="1"/>
  <path d="M72 92 Q100 115 128 92" stroke="#333" stroke-width="4" fill="none" stroke-linecap="round"/>
  <ellipse cx="60" cy="82" rx="12" ry="7" fill="#FFB3B3" opacity="0.4"/>
  <ellipse cx="140" cy="82" rx="12" ry="7" fill="#FFB3B3" opacity="0.4"/>
  <path d="M45,42.25 C39,37 42,34 45,37.75 C48,34 51,37 45,42.25Z" fill="#FFB3B3"/>
  <path d="M160,46.8 C155.2,42.6 157.6,40.2 160,43.2 C162.4,40.2 164.8,42.6 160,46.8Z" fill="#FFD6D6"/>
</svg>