<svg xmlns="http://www.w3.org/2000/svg" viewBox="0 0 200 150" width="200" height="150">
  <defs>
    <linearGradient id="bg21790" gradientTransform="rotate(180)">
      <stop offset="0%" style="stop-color:#D8F3DC"/>
      <stop offset="100%" style="stop-color:#B7E4C7"/>
    </linearGradient>
  </defs>
  <rect width="200" height="150" fill="url(#bg21790)" rx="16"/>
  <circle cx="148.91008599242923" cy="16.839312295314812" r="2.4751972014437342" fill="#D8F3DC" opacity="0.3"/><circle cx="131.98639291731524" cy="66.94220593126374" r="3.4856050118864914" fill="#D8F3DC" opacity="0.3"/><circle cx="64.10065141135419" cy="133.5023086554429" r="2.9945820803659444" fill="#D8F3DC" opacity="0.3"/><circle cx="33.28472052653524" cy="138.52838675366002" r="4.686727352751404" fill="#D8F3DC" opacity="0.3"/><circle cx="45.66002406536427" cy="0.6461755660893687" r="2.460424958328076" fill="#D8F3DC" opacity="0.3"/><circle cx="152.27759626013722" cy="84.14488961307143" r="2.338901171136399" fill="#D8F3DC" opacity="0.3"/>
  <circle cx="100" cy="75" r="48" fill="#FFE5D9" opacity="1"/>
  <circle cx="80" cy="68" r="8" fill="#333" opacity="1"/>
  <circle cx="120" cy="68" r="8" fill="#333" opacity="1"/>
  <circle cx="78" cy="65" r="3" fill="white" opacity="1"/>
  <circle cx="118" cy="65" r="3" fill="white" opacity="1"/>
  <path d="M72 92 Q100 115 128 92" stroke="#333" stroke-width="4" fill="none" stroke-linecap="round"/>
  <ellipse cx="60" cy="82" rx="12" ry="7" fill="#FFB3B3" opacity="0.4"/>
  <ellipse cx="140" cy="82" rx="12" ry="7" fill="#FFB3B3" opacity="0.4"/>
  <path d="M45,42.25 C39,37 42,34 45,37.75 C48,34 51,37 45,42.25Z" fill="#FFB3B3"/>
  <path d="M160,46.8 C155.2,42.6 157.6,40.2 160,43.2 C162.4,40.2 164.8,42.6 160,46.8Z" fill="#FFD6D6"/>
</svg>