<svg xmlns="http://www.w3.org/2000/svg" viewBox="0 0 200 150" width="200" height="150">
  <defs>
    <linearGradient id="bg223" gradientTransform="rotate(135)">
      <stop offset="0%" style="stop-color:#E0F4FF"/>
      <stop offset="100%" style="stop-color:#BAE6FD"/>
    </linearGradient>
  </defs>
  <rect width="200" height="150" fill="url(#bg223)" rx="16"/>
  <circle cx="117.9286234162646" cy="129.136592324312" r="2.361107327795935" fill="#E0F4FF" opacity="0.3"/><circle cx="184.09693560533924" cy="118.40331218445499" r="4.000844706372661" fill="#E0F4FF" opacity="0.3"/><circle cx="149.5685520256302" cy="50.31103858000279" r="2.33556724245409" fill="#E0F4FF" opacity="0.3"/><circle cx="110.50564800765414" cy="10.082582611084945" r="2.7969403355409668" fill="#E0F4FF" opacity="0.3"/><circle cx="170.87334139287123" cy="148.83144869097578" r="2.6417717250114947" fill="#E0F4FF" opacity="0.3"/><circle cx="85.53507284486841" cy="33.44543769503616" r="3.893555815282525" fill="#E0F4FF" opacity="0.3"/>
  <circle cx="100" cy="75" r="48" fill="#FFE5D9" opacity="1"/>
  <circle cx="80" cy="68" r="8" fill="#333" opacity="1"/>
  <circle cx="120" cy="68" r="8" fill="#333" opacity="1"/>
  <circle cx="78" cy="65" r="3" fill="white" opacity="1"/>
  <circle cx="118" cy="65" r="3" fill="white" opacity="1"/>
  <path d="M72 92 Q100 115 128 92" stroke="#333" stroke-width="4" fill="none" stroke-linecap="round"/>
  <ellipse cx="60" cy="82" rx="12" ry="7" fill="#FFB3B3" opacity="0.4"/>
  <ellipse cx="140" cy="82" rx="12" ry="7" fill="#FFB3B3" opacity="0.4"/>
  <path d="M45,42.25 C39,37 42,34 45,37.75 C48,34 51,37 45,42.25Z" fill="#FFB3B3"/>
  <path d="M160,46.8 C155.2,42.6 157.6,40.2 160,43.2 C162.4,40.2 164.8,42.6 160,46.8Z" fill="#FFD6D6"/>
</svg>