<svg xmlns="http://www.w3.org/2000/svg" viewBox="0 0 200 150" width="200" height="150">
  <defs>
    <linearGradient id="bg22578" gradientTransform="rotate(45)">
      <stop offset="0%" style="stop-color:#E8F0E8"/>
      <stop offset="100%" style="stop-color:#C5DBC5"/>
    </linearGradient>
  </defs>
  <rect width="200" height="150" fill="url(#bg22578)" rx="16"/>
  <rect x="0" y="100" width="200" height="50" rx="0" fill="#C5DBC5"/>
  <circle cx="165" cy="35" r="22" fill="#FFE566" opacity="1"/>
  <line x1="191" y1="35" x2="200" y2="35" stroke="#FFF3B0" stroke-width="3" stroke-linecap="round"/>
  <line x1="183.38477631085024" y1="53.384776310850235" x2="189.74873734152916" y2="59.748737341529164" stroke="#FFF3B0" stroke-width="3" stroke-linecap="round"/>
  <line x1="165" y1="61" x2="165" y2="70" stroke="#FFF3B0" stroke-width="3" stroke-linecap="round"/>
  <line x1="146.61522368914976" y1="53.38477631085024" x2="140.25126265847084" y2="59.748737341529164" stroke="#FFF3B0" stroke-width="3" stroke-linecap="round"/>
  <line x1="139" y1="35" x2="130" y2="35.00000000000001" stroke="#FFF3B0" stroke-width="3" stroke-linecap="round"/>
  <line x1="146.61522368914976" y1="16.615223689149765" x2="140.25126265847084" y2="10.25126265847084" stroke="#FFF3B0" stroke-width="3" stroke-linecap="round"/>
  <line x1="165" y1="9" x2="165" y2="0" stroke="#FFF3B0" stroke-width="3" stroke-linecap="round"/>
  <line x1="183.38477631085024" y1="16.61522368914976" x2="189.74873734152916" y2="10.251262658470832" stroke="#FFF3B0" stroke-width="3" stroke-linecap="round"/>
  <rect x="90" y="55" width="14" height="50" rx="2" fill="#8B6914"/>
  <path d="M76.9822158402676,39.596353288659884 Q86.9822158402676,51.596353288659884 76.9822158402676,63.596353288659884 Q66.9822158402676,51.596353288659884 76.9822158402676,39.596353288659884Z" fill="#B7E4C7"/>
  <path d="M89.13561534239852,28.79870772720824 Q99.13561534239852,40.79870772720824 89.13561534239852,52.79870772720824 Q79.13561534239852,40.79870772720824 89.13561534239852,28.79870772720824Z" fill="#95D5B2"/>
  <path d="M101.4779927226482,35.3576498291186 Q111.4779927226482,47.3576498291186 101.4779927226482,59.3576498291186 Q91.4779927226482,47.3576498291186 101.4779927226482,35.3576498291186Z" fill="#B7E4C7"/>
  <path d="M111.95852927349915,33.109906576399226 Q121.95852927349915,45.109906576399226 111.95852927349915,57.109906576399226 Q101.95852927349915,45.109906576399226 111.95852927349915,33.109906576399226Z" fill="#95D5B2"/>
  <path d="M126.3206661005097,35.00140449996525 Q136.3206661005097,47.00140449996525 126.3206661005097,59.00140449996525 Q116.3206661005097,47.00140449996525 126.3206661005097,35.00140449996525Z" fill="#B7E4C7"/>
  <circle cx="45" cy="95" r="8" fill="#FFB3B3" opacity="1"/>
  <circle cx="155" cy="98" r="6" fill="#C9B8E8" opacity="1"/>
</svg>