<svg xmlns="http://www.w3.org/2000/svg" viewBox="0 0 200 150" width="200" height="150">
  <defs>
    <linearGradient id="bg23225" gradientTransform="rotate(45)">
      <stop offset="0%" style="stop-color:#FFD6D6"/>
      <stop offset="100%" style="stop-color:#FFB3B3"/>
    </linearGradient>
  </defs>
  <rect width="200" height="150" fill="url(#bg23225)" rx="16"/>
  <circle cx="195.60105459095212" cy="148.4252900951084" r="3.3091072936176715" fill="#FFD6D6" opacity="0.3"/><circle cx="46.49087170109851" cy="125.33258048555922" r="3.700974419280101" fill="#FFD6D6" opacity="0.3"/><circle cx="134.69639337808985" cy="10.09032659303557" r="4.431917711533174" fill="#FFD6D6" opacity="0.3"/><circle cx="111.69963235697651" cy="118.5221468799682" r="4.880851438138961" fill="#FFD6D6" opacity="0.3"/><circle cx="198.9565337265958" cy="19.33605344024727" r="4.197984990712939" fill="#FFD6D6" opacity="0.3"/><circle cx="189.5504548894678" cy="78.79964368059973" r="3.0383581326641433" fill="#FFD6D6" opacity="0.3"/>
  <ellipse cx="100" cy="95" rx="32" ry="28" fill="#FFB3B3" opacity="1"/>
  <circle cx="100" cy="58" r="28" fill="#FFB3B3" opacity="1"/>
  <ellipse cx="82" cy="25" rx="10" ry="24" fill="#FFB3B3" opacity="1"/>
  <ellipse cx="118" cy="25" rx="10" ry="24" fill="#FFB3B3" opacity="1"/>
  <ellipse cx="82" cy="27" rx="5" ry="15" fill="#FFD6D6" opacity="1"/>
  <ellipse cx="118" cy="27" rx="5" ry="15" fill="#FFD6D6" opacity="1"/>
  <circle cx="88" cy="52" r="5" fill="#333" opacity="1"/>
  <circle cx="112" cy="52" r="5" fill="#333" opacity="1"/>
  <circle cx="86" cy="50" r="2" fill="white" opacity="1"/>
  <circle cx="110" cy="50" r="2" fill="white" opacity="1"/>
  <ellipse cx="100" cy="68" rx="6" ry="4" fill="#FFB3B3" opacity="1"/>
  <path d="M50,46.8 C45.2,42.6 47.6,40.2 50,43.2 C52.4,40.2 54.8,42.6 50,46.8Z" fill="#FFB3B3"/>
  <path d="M155,51.5 C151,48 153,46 155,48.5 C157,46 159,48 155,51.5Z" fill="#FFD6D6"/>
</svg>