<svg xmlns="http://www.w3.org/2000/svg" viewBox="0 0 200 150" width="200" height="150">
  <defs>
    <linearGradient id="bg24754" gradientTransform="rotate(180)">
      <stop offset="0%" style="stop-color:#F0F7FF"/>
      <stop offset="100%" style="stop-color:#DCE8F5"/>
    </linearGradient>
  </defs>
  <rect width="200" height="150" fill="url(#bg24754)" rx="16"/>
  <circle cx="95.8474858700356" cy="99.46377831919335" r="2.3080380755345686" fill="#F0F7FF" opacity="0.3"/><circle cx="2.7946660895395325" cy="120.30679410661378" r="4.471627870856537" fill="#F0F7FF" opacity="0.3"/><circle cx="115.15646528969228" cy="69.1794156036849" r="4.542948460855769" fill="#F0F7FF" opacity="0.3"/><circle cx="41.17282471815997" cy="90.1057866418796" r="3.4485662904644414" fill="#F0F7FF" opacity="0.3"/><circle cx="48.72088139200059" cy="68.26831933422" r="2.2678586387992254" fill="#F0F7FF" opacity="0.3"/><circle cx="105.32005596469389" cy="17.1966600222504" r="4.736906380131586" fill="#F0F7FF" opacity="0.3"/>
  <circle cx="100" cy="75" r="48" fill="#FFE5D9" opacity="1"/>
  <circle cx="80" cy="68" r="8" fill="#333" opacity="1"/>
  <circle cx="120" cy="68" r="8" fill="#333" opacity="1"/>
  <circle cx="78" cy="65" r="3" fill="white" opacity="1"/>
  <circle cx="118" cy="65" r="3" fill="white" opacity="1"/>
  <path d="M72 92 Q100 115 128 92" stroke="#333" stroke-width="4" fill="none" stroke-linecap="round"/>
  <ellipse cx="60" cy="82" rx="12" ry="7" fill="#FFB3B3" opacity="0.4"/>
  <ellipse cx="140" cy="82" rx="12" ry="7" fill="#FFB3B3" opacity="0.4"/>
  <path d="M45,42.25 C39,37 42,34 45,37.75 C48,34 51,37 45,42.25Z" fill="#FFB3B3"/>
  <path d="M160,46.8 C155.2,42.6 157.6,40.2 160,43.2 C162.4,40.2 164.8,42.6 160,46.8Z" fill="#FFD6D6"/>
</svg>