<svg xmlns="http://www.w3.org/2000/svg" viewBox="0 0 200 150" width="200" height="150">
  <defs>
    <linearGradient id="bg25784" gradientTransform="rotate(180)">
      <stop offset="0%" style="stop-color:#FFE4EC"/>
      <stop offset="100%" style="stop-color:#FFC8DD"/>
    </linearGradient>
  </defs>
  <rect width="200" height="150" fill="url(#bg25784)" rx="16"/>
  <rect x="0" y="100" width="200" height="50" rx="0" fill="#C5DBC5"/>
  <circle cx="165" cy="35" r="22" fill="#FFE566" opacity="1"/>
  <line x1="191" y1="35" x2="200" y2="35" stroke="#FFF3B0" stroke-width="3" stroke-linecap="round"/>
  <line x1="183.38477631085024" y1="53.384776310850235" x2="189.74873734152916" y2="59.748737341529164" stroke="#FFF3B0" stroke-width="3" stroke-linecap="round"/>
  <line x1="165" y1="61" x2="165" y2="70" stroke="#FFF3B0" stroke-width="3" stroke-linecap="round"/>
  <line x1="146.61522368914976" y1="53.38477631085024" x2="140.25126265847084" y2="59.748737341529164" stroke="#FFF3B0" stroke-width="3" stroke-linecap="round"/>
  <line x1="139" y1="35" x2="130" y2="35.00000000000001" stroke="#FFF3B0" stroke-width="3" stroke-linecap="round"/>
  <line x1="146.61522368914976" y1="16.615223689149765" x2="140.25126265847084" y2="10.25126265847084" stroke="#FFF3B0" stroke-width="3" stroke-linecap="round"/>
  <line x1="165" y1="9" x2="165" y2="0" stroke="#FFF3B0" stroke-width="3" stroke-linecap="round"/>
  <line x1="183.38477631085024" y1="16.61522368914976" x2="189.74873734152916" y2="10.251262658470832" stroke="#FFF3B0" stroke-width="3" stroke-linecap="round"/>
  <rect x="90" y="55" width="14" height="50" rx="2" fill="#8B6914"/>
  <path d="M81.91817213741524,35.712484468447656 Q91.91817213741524,47.712484468447656 81.91817213741524,59.712484468447656 Q71.91817213741524,47.712484468447656 81.91817213741524,35.712484468447656Z" fill="#B7E4C7"/>
  <path d="M91.96234523450039,25.389155467317323 Q101.96234523450039,37.38915546731732 91.96234523450039,49.38915546731732 Q81.96234523450039,37.38915546731732 91.96234523450039,25.389155467317323Z" fill="#95D5B2"/>
  <path d="M104.98028191440426,24.51871106321778 Q114.98028191440426,36.51871106321778 104.98028191440426,48.51871106321778 Q94.98028191440426,36.51871106321778 104.98028191440426,24.51871106321778Z" fill="#B7E4C7"/>
  <path d="M116.80998040048871,38.43056351869495 Q126.80998040048871,50.43056351869495 116.80998040048871,62.43056351869495 Q106.80998040048871,50.43056351869495 116.80998040048871,38.43056351869495Z" fill="#95D5B2"/>
  <path d="M130.9369003919128,26.856987320118606 Q140.9369003919128,38.856987320118606 130.9369003919128,50.856987320118606 Q120.93690039191279,38.856987320118606 130.9369003919128,26.856987320118606Z" fill="#B7E4C7"/>
  <circle cx="45" cy="95" r="8" fill="#FFB3B3" opacity="1"/>
  <circle cx="155" cy="98" r="6" fill="#C9B8E8" opacity="1"/>
</svg>