<svg xmlns="http://www.w3.org/2000/svg" viewBox="0 0 200 150" width="200" height="150">
  <defs>
    <linearGradient id="bg263" gradientTransform="rotate(0)">
      <stop offset="0%" style="stop-color:#D8F3DC"/>
      <stop offset="100%" style="stop-color:#B7E4C7"/>
    </linearGradient>
  </defs>
  <rect width="200" height="150" fill="url(#bg263)" rx="16"/>
  <circle cx="165.51836328326317" cy="101.55421707622736" r="2.815623919398604" fill="#D8F3DC" opacity="0.3"/><circle cx="104.53628868381202" cy="31.009546782297548" r="4.186612546619472" fill="#D8F3DC" opacity="0.3"/><circle cx="188.62799474245548" cy="77.59102543323024" r="3.3053437698335983" fill="#D8F3DC" opacity="0.3"/><circle cx="139.74902046174975" cy="137.19441968969477" r="2.6390883443473285" fill="#D8F3DC" opacity="0.3"/><circle cx="195.68380443324713" cy="90.70922701830568" r="2.731934381712108" fill="#D8F3DC" opacity="0.3"/><circle cx="58.12426204938674" cy="128.50123712537425" r="4.388022508292124" fill="#D8F3DC" opacity="0.3"/>
  <ellipse cx="100" cy="95" rx="32" ry="28" fill="#B7E4C7" opacity="1"/>
  <circle cx="100" cy="58" r="28" fill="#B7E4C7" opacity="1"/>
  <ellipse cx="82" cy="25" rx="10" ry="24" fill="#B7E4C7" opacity="1"/>
  <ellipse cx="118" cy="25" rx="10" ry="24" fill="#B7E4C7" opacity="1"/>
  <ellipse cx="82" cy="27" rx="5" ry="15" fill="#FFD6D6" opacity="1"/>
  <ellipse cx="118" cy="27" rx="5" ry="15" fill="#FFD6D6" opacity="1"/>
  <circle cx="88" cy="52" r="5" fill="#333" opacity="1"/>
  <circle cx="112" cy="52" r="5" fill="#333" opacity="1"/>
  <circle cx="86" cy="50" r="2" fill="white" opacity="1"/>
  <circle cx="110" cy="50" r="2" fill="white" opacity="1"/>
  <ellipse cx="100" cy="68" rx="6" ry="4" fill="#FFB3B3" opacity="1"/>
  <path d="M50,46.8 C45.2,42.6 47.6,40.2 50,43.2 C52.4,40.2 54.8,42.6 50,46.8Z" fill="#FFB3B3"/>
  <path d="M155,51.5 C151,48 153,46 155,48.5 C157,46 159,48 155,51.5Z" fill="#FFD6D6"/>
</svg>