<svg xmlns="http://www.w3.org/2000/svg" viewBox="0 0 200 150" width="200" height="150">
  <defs>
    <linearGradient id="bg270" gradientTransform="rotate(180)">
      <stop offset="0%" style="stop-color:#FFE4EC"/>
      <stop offset="100%" style="stop-color:#FFC8DD"/>
    </linearGradient>
  </defs>
  <rect width="200" height="150" fill="url(#bg270)" rx="16"/>
  <circle cx="128.4869892278948" cy="75.85380377850015" r="3.675832350305427" fill="#FFE4EC" opacity="0.3"/><circle cx="87.08648820320377" cy="37.67996586651634" r="3.621928520835354" fill="#FFE4EC" opacity="0.3"/><circle cx="89.6423146390589" cy="116.92287524056155" r="2.0857125653219555" fill="#FFE4EC" opacity="0.3"/><circle cx="86.58589302031032" cy="80.29329233005606" r="4.724696651572231" fill="#FFE4EC" opacity="0.3"/><circle cx="164.39997906818462" cy="67.43273088354726" r="2.3691515483224066" fill="#FFE4EC" opacity="0.3"/><circle cx="51.2459147550544" cy="76.33220104225984" r="3.4630547059514356" fill="#FFE4EC" opacity="0.3"/>
  <circle cx="100" cy="75" r="48" fill="#FFE5D9" opacity="1"/>
  <circle cx="80" cy="68" r="8" fill="#333" opacity="1"/>
  <circle cx="120" cy="68" r="8" fill="#333" opacity="1"/>
  <circle cx="78" cy="65" r="3" fill="white" opacity="1"/>
  <circle cx="118" cy="65" r="3" fill="white" opacity="1"/>
  <path d="M72 92 Q100 115 128 92" stroke="#333" stroke-width="4" fill="none" stroke-linecap="round"/>
  <ellipse cx="60" cy="82" rx="12" ry="7" fill="#FFB3B3" opacity="0.4"/>
  <ellipse cx="140" cy="82" rx="12" ry="7" fill="#FFB3B3" opacity="0.4"/>
  <path d="M45,42.25 C39,37 42,34 45,37.75 C48,34 51,37 45,42.25Z" fill="#FFB3B3"/>
  <path d="M160,46.8 C155.2,42.6 157.6,40.2 160,43.2 C162.4,40.2 164.8,42.6 160,46.8Z" fill="#FFD6D6"/>
</svg>