<svg xmlns="http://www.w3.org/2000/svg" viewBox="0 0 200 150" width="200" height="150">
  <defs>
    <linearGradient id="bg271" gradientTransform="rotate(90)">
      <stop offset="0%" style="stop-color:#E8F0E8"/>
      <stop offset="100%" style="stop-color:#C5DBC5"/>
    </linearGradient>
  </defs>
  <rect width="200" height="150" fill="url(#bg271)" rx="16"/>
  <circle cx="108.38199681875267" cy="30.960716106892505" r="4.931317810064229" fill="#E8F0E8" opacity="0.3"/><circle cx="168.5669939210129" cy="77.98825815098098" r="4.290627609627336" fill="#E8F0E8" opacity="0.3"/><circle cx="77.33302861634002" cy="110.87836489532492" r="3.4130175613572646" fill="#E8F0E8" opacity="0.3"/><circle cx="45.067047440534225" cy="72.40566034622589" r="2.9405578178721044" fill="#E8F0E8" opacity="0.3"/><circle cx="116.68669089776813" cy="65.89101087274685" r="4.50996865827392" fill="#E8F0E8" opacity="0.3"/><circle cx="52.108387008001955" cy="88.79634228634359" r="2.027199107902561" fill="#E8F0E8" opacity="0.3"/>
  <circle cx="100" cy="75" r="48" fill="#FFE5D9" opacity="1"/>
  <circle cx="80" cy="68" r="8" fill="#333" opacity="1"/>
  <circle cx="120" cy="68" r="8" fill="#333" opacity="1"/>
  <circle cx="78" cy="65" r="3" fill="white" opacity="1"/>
  <circle cx="118" cy="65" r="3" fill="white" opacity="1"/>
  <path d="M72 92 Q100 115 128 92" stroke="#333" stroke-width="4" fill="none" stroke-linecap="round"/>
  <ellipse cx="60" cy="82" rx="12" ry="7" fill="#FFB3B3" opacity="0.4"/>
  <ellipse cx="140" cy="82" rx="12" ry="7" fill="#FFB3B3" opacity="0.4"/>
  <path d="M45,42.25 C39,37 42,34 45,37.75 C48,34 51,37 45,42.25Z" fill="#FFB3B3"/>
  <path d="M160,46.8 C155.2,42.6 157.6,40.2 160,43.2 C162.4,40.2 164.8,42.6 160,46.8Z" fill="#FFD6D6"/>
</svg>