<svg xmlns="http://www.w3.org/2000/svg" viewBox="0 0 200 150" width="200" height="150">
  <defs>
    <linearGradient id="bg272" gradientTransform="rotate(45)">
      <stop offset="0%" style="stop-color:#FFF5EB"/>
      <stop offset="100%" style="stop-color:#FFE4CC"/>
    </linearGradient>
  </defs>
  <rect width="200" height="150" fill="url(#bg272)" rx="16"/>
  <circle cx="181.2127048982802" cy="114.23895638959038" r="3.767695118487609" fill="#FFF5EB" opacity="0.3"/><circle cx="110.88057615561411" cy="6.349855123153247" r="2.896508235238798" fill="#FFF5EB" opacity="0.3"/><circle cx="148.58184612426157" cy="131.37193099973956" r="3.3078458981281074" fill="#FFF5EB" opacity="0.3"/><circle cx="46.028275268872676" cy="80.90824862351838" r="3.220788233197709" fill="#FFF5EB" opacity="0.3"/><circle cx="70.15134141802264" cy="22.376613483538677" r="3.6616821600655385" fill="#FFF5EB" opacity="0.3"/><circle cx="49.407081575009215" cy="21.096562421962517" r="4.401706884249506" fill="#FFF5EB" opacity="0.3"/>
  <ellipse cx="100" cy="95" rx="32" ry="28" fill="#FFE4CC" opacity="1"/>
  <circle cx="100" cy="58" r="28" fill="#FFE4CC" opacity="1"/>
  <ellipse cx="82" cy="25" rx="10" ry="24" fill="#FFE4CC" opacity="1"/>
  <ellipse cx="118" cy="25" rx="10" ry="24" fill="#FFE4CC" opacity="1"/>
  <ellipse cx="82" cy="27" rx="5" ry="15" fill="#FFD6D6" opacity="1"/>
  <ellipse cx="118" cy="27" rx="5" ry="15" fill="#FFD6D6" opacity="1"/>
  <circle cx="88" cy="52" r="5" fill="#333" opacity="1"/>
  <circle cx="112" cy="52" r="5" fill="#333" opacity="1"/>
  <circle cx="86" cy="50" r="2" fill="white" opacity="1"/>
  <circle cx="110" cy="50" r="2" fill="white" opacity="1"/>
  <ellipse cx="100" cy="68" rx="6" ry="4" fill="#FFB3B3" opacity="1"/>
  <path d="M50,46.8 C45.2,42.6 47.6,40.2 50,43.2 C52.4,40.2 54.8,42.6 50,46.8Z" fill="#FFB3B3"/>
  <path d="M155,51.5 C151,48 153,46 155,48.5 C157,46 159,48 155,51.5Z" fill="#FFD6D6"/>
</svg>