<svg xmlns="http://www.w3.org/2000/svg" viewBox="0 0 200 150" width="200" height="150">
  <defs>
    <linearGradient id="bg273" gradientTransform="rotate(135)">
      <stop offset="0%" style="stop-color:#E0F4FF"/>
      <stop offset="100%" style="stop-color:#BAE6FD"/>
    </linearGradient>
  </defs>
  <rect width="200" height="150" fill="url(#bg273)" rx="16"/>
  <circle cx="125.83356310719296" cy="33.504700145317656" r="4.8817283846683495" fill="#E0F4FF" opacity="0.3"/><circle cx="4.496822961300495" cy="93.44075750941556" r="2.0189164053763307" fill="#E0F4FF" opacity="0.3"/><circle cx="144.53062586835586" cy="128.36432206513564" r="2.7927751270663066" fill="#E0F4FF" opacity="0.3"/><circle cx="115.82108226211858" cy="14.677917197241186" r="3.6495871549661842" fill="#E0F4FF" opacity="0.3"/><circle cx="69.4137020580456" cy="27.001776987663106" r="2.909731665184154" fill="#E0F4FF" opacity="0.3"/><circle cx="10.74924346030457" cy="100.57356750467292" r="3.2278330477320196" fill="#E0F4FF" opacity="0.3"/>
  <circle cx="100" cy="75" r="48" fill="#FFE5D9" opacity="1"/>
  <circle cx="80" cy="68" r="8" fill="#333" opacity="1"/>
  <circle cx="120" cy="68" r="8" fill="#333" opacity="1"/>
  <circle cx="78" cy="65" r="3" fill="white" opacity="1"/>
  <circle cx="118" cy="65" r="3" fill="white" opacity="1"/>
  <path d="M72 92 Q100 115 128 92" stroke="#333" stroke-width="4" fill="none" stroke-linecap="round"/>
  <ellipse cx="60" cy="82" rx="12" ry="7" fill="#FFB3B3" opacity="0.4"/>
  <ellipse cx="140" cy="82" rx="12" ry="7" fill="#FFB3B3" opacity="0.4"/>
  <path d="M45,42.25 C39,37 42,34 45,37.75 C48,34 51,37 45,42.25Z" fill="#FFB3B3"/>
  <path d="M160,46.8 C155.2,42.6 157.6,40.2 160,43.2 C162.4,40.2 164.8,42.6 160,46.8Z" fill="#FFD6D6"/>
</svg>