<svg xmlns="http://www.w3.org/2000/svg" viewBox="0 0 200 150" width="200" height="150">
  <defs>
    <linearGradient id="bg274" gradientTransform="rotate(0)">
      <stop offset="0%" style="stop-color:#E2D9F3"/>
      <stop offset="100%" style="stop-color:#C9B8E8"/>
    </linearGradient>
  </defs>
  <rect width="200" height="150" fill="url(#bg274)" rx="16"/>
  <rect x="66.7197517807108" y="89.79250526104624" width="61.259186666608" height="25.207494738953756" rx="4" fill="#FFB3B3"/>
  <rect x="77.44941877808924" y="65.23842928349131" width="48.607575754707796" height="24.55407597755493" rx="4" fill="#B7E4C7"/>
  <rect x="77.88769557404805" y="41.4740868422532" width="38.322267496310815" height="23.764342441238114" rx="4" fill="#C9B8E8"/>
  <rect x="83.46027661520566" y="16.729377583084897" width="31.717649932717904" height="24.744709259168303" rx="4" fill="#FFE566"/>
  <polygon points="45,31 49.11449676604731,39.33688103937537 58.31479122813215,40.673762078750734 51.657395614066075,47.16311896062463 53.22899353209462,56.326237921249266 45,52 36.77100646790538,56.326237921249266 38.342604385933925,47.16311896062463 31.68520877186785,40.673762078750734 40.88550323395269,39.33688103937537" fill="#FFE566"/>
  <polygon points="160,38 163.52671151375483,45.14589803375031 171.41267819554184,46.291796067500634 165.70633909777092,51.85410196624969 167.05342302750967,59.70820393249937 160,56 152.94657697249033,59.70820393249937 154.29366090222908,51.85410196624969 148.58732180445816,46.29179606750063 156.47328848624517,45.14589803375031" fill="#FFF3B0"/>
  <polygon points="100,12 102.93892626146237,17.954915028125264 109.51056516295154,18.909830056250527 104.75528258147577,23.545084971874736 105.87785252292473,30.090169943749473 100,27 94.12214747707527,30.090169943749473 95.24471741852423,23.545084971874736 90.48943483704846,18.909830056250524 97.06107373853763,17.954915028125264" fill="#FFB3B3"/>
</svg>