<svg xmlns="http://www.w3.org/2000/svg" viewBox="0 0 200 150" width="200" height="150">
  <defs>
    <linearGradient id="bg276" gradientTransform="rotate(180)">
      <stop offset="0%" style="stop-color:#FFE5D9"/>
      <stop offset="100%" style="stop-color:#FFCDB2"/>
    </linearGradient>
  </defs>
  <rect width="200" height="150" fill="url(#bg276)" rx="16"/>
  <circle cx="77.7195671966183" cy="84.41837568507253" r="4.73211484939111" fill="#FFE5D9" opacity="0.3"/><circle cx="147.7056987108881" cy="74.24900940541193" r="4.107014027863443" fill="#FFE5D9" opacity="0.3"/><circle cx="21.681579299547593" cy="97.58730763951462" r="3.122529320990907" fill="#FFE5D9" opacity="0.3"/><circle cx="72.72536343008937" cy="67.04957367178395" r="3.4938158125660266" fill="#FFE5D9" opacity="0.3"/><circle cx="52.83562521162821" cy="17.475264779204736" r="2.4679814243518194" fill="#FFE5D9" opacity="0.3"/><circle cx="76.56136452678766" cy="118.16461598205024" r="3.711351904280491" fill="#FFE5D9" opacity="0.3"/>
  <circle cx="100" cy="75" r="48" fill="#FFE5D9" opacity="1"/>
  <circle cx="80" cy="68" r="8" fill="#333" opacity="1"/>
  <circle cx="120" cy="68" r="8" fill="#333" opacity="1"/>
  <circle cx="78" cy="65" r="3" fill="white" opacity="1"/>
  <circle cx="118" cy="65" r="3" fill="white" opacity="1"/>
  <path d="M72 92 Q100 115 128 92" stroke="#333" stroke-width="4" fill="none" stroke-linecap="round"/>
  <ellipse cx="60" cy="82" rx="12" ry="7" fill="#FFB3B3" opacity="0.4"/>
  <ellipse cx="140" cy="82" rx="12" ry="7" fill="#FFB3B3" opacity="0.4"/>
  <path d="M45,42.25 C39,37 42,34 45,37.75 C48,34 51,37 45,42.25Z" fill="#FFB3B3"/>
  <path d="M160,46.8 C155.2,42.6 157.6,40.2 160,43.2 C162.4,40.2 164.8,42.6 160,46.8Z" fill="#FFD6D6"/>
</svg>