<svg xmlns="http://www.w3.org/2000/svg" viewBox="0 0 200 150" width="200" height="150">
  <defs>
    <linearGradient id="bg279" gradientTransform="rotate(90)">
      <stop offset="0%" style="stop-color:#E8F0E8"/>
      <stop offset="100%" style="stop-color:#C5DBC5"/>
    </linearGradient>
  </defs>
  <rect width="200" height="150" fill="url(#bg279)" rx="16"/>
  <circle cx="193.4689067202271" cy="86.37864561042079" r="2.3100734006194443" fill="#E8F0E8" opacity="0.3"/><circle cx="58.43196219883566" cy="78.5121645356412" r="3.8646391432193923" fill="#E8F0E8" opacity="0.3"/><circle cx="160.18438443406922" cy="31.801611071841762" r="4.209854220720445" fill="#E8F0E8" opacity="0.3"/><circle cx="12.551240288303234" cy="103.24650451611888" r="2.523096981664821" fill="#E8F0E8" opacity="0.3"/><circle cx="181.35148831770493" cy="64.44791108058325" r="3.9445822454581503" fill="#E8F0E8" opacity="0.3"/><circle cx="87.8064253640332" cy="44.836571504220046" r="4.419991240379659" fill="#E8F0E8" opacity="0.3"/>
  <circle cx="100" cy="75" r="48" fill="#FFE5D9" opacity="1"/>
  <circle cx="80" cy="68" r="8" fill="#333" opacity="1"/>
  <circle cx="120" cy="68" r="8" fill="#333" opacity="1"/>
  <circle cx="78" cy="65" r="3" fill="white" opacity="1"/>
  <circle cx="118" cy="65" r="3" fill="white" opacity="1"/>
  <path d="M72 92 Q100 115 128 92" stroke="#333" stroke-width="4" fill="none" stroke-linecap="round"/>
  <ellipse cx="60" cy="82" rx="12" ry="7" fill="#FFB3B3" opacity="0.4"/>
  <ellipse cx="140" cy="82" rx="12" ry="7" fill="#FFB3B3" opacity="0.4"/>
  <path d="M45,42.25 C39,37 42,34 45,37.75 C48,34 51,37 45,42.25Z" fill="#FFB3B3"/>
  <path d="M160,46.8 C155.2,42.6 157.6,40.2 160,43.2 C162.4,40.2 164.8,42.6 160,46.8Z" fill="#FFD6D6"/>
</svg>