<svg xmlns="http://www.w3.org/2000/svg" viewBox="0 0 200 150" width="200" height="150">
  <defs>
    <linearGradient id="bg281" gradientTransform="rotate(90)">
      <stop offset="0%" style="stop-color:#E8F0E8"/>
      <stop offset="100%" style="stop-color:#C5DBC5"/>
    </linearGradient>
  </defs>
  <rect width="200" height="150" fill="url(#bg281)" rx="16"/>
  <circle cx="82.63326127871551" cy="87.58889197133612" r="2.9668202382181335" fill="#E8F0E8" opacity="0.3"/><circle cx="7.48019950826091" cy="123.28068967708532" r="3.882049692342207" fill="#E8F0E8" opacity="0.3"/><circle cx="100.74709291984618" cy="63.1674010109009" r="2.367341548195327" fill="#E8F0E8" opacity="0.3"/><circle cx="51.73291367973434" cy="44.0112902468627" r="2.9662853107463434" fill="#E8F0E8" opacity="0.3"/><circle cx="180.4243692798991" cy="118.28800593863207" r="3.500807262807257" fill="#E8F0E8" opacity="0.3"/><circle cx="17.769012967801245" cy="24.846357940987218" r="2.4876787588909792" fill="#E8F0E8" opacity="0.3"/>
  <circle cx="100" cy="75" r="48" fill="#FFE5D9" opacity="1"/>
  <circle cx="80" cy="68" r="8" fill="#333" opacity="1"/>
  <circle cx="120" cy="68" r="8" fill="#333" opacity="1"/>
  <circle cx="78" cy="65" r="3" fill="white" opacity="1"/>
  <circle cx="118" cy="65" r="3" fill="white" opacity="1"/>
  <path d="M72 92 Q100 115 128 92" stroke="#333" stroke-width="4" fill="none" stroke-linecap="round"/>
  <ellipse cx="60" cy="82" rx="12" ry="7" fill="#FFB3B3" opacity="0.4"/>
  <ellipse cx="140" cy="82" rx="12" ry="7" fill="#FFB3B3" opacity="0.4"/>
  <path d="M45,42.25 C39,37 42,34 45,37.75 C48,34 51,37 45,42.25Z" fill="#FFB3B3"/>
  <path d="M160,46.8 C155.2,42.6 157.6,40.2 160,43.2 C162.4,40.2 164.8,42.6 160,46.8Z" fill="#FFD6D6"/>
</svg>