<svg xmlns="http://www.w3.org/2000/svg" viewBox="0 0 200 150" width="200" height="150">
  <defs>
    <linearGradient id="bg292" gradientTransform="rotate(180)">
      <stop offset="0%" style="stop-color:#FFD6D6"/>
      <stop offset="100%" style="stop-color:#FFB3B3"/>
    </linearGradient>
  </defs>
  <rect width="200" height="150" fill="url(#bg292)" rx="16"/>
  <circle cx="146.4165508379665" cy="27.204377596763152" r="4.0029983184135745" fill="#FFD6D6" opacity="0.3"/><circle cx="167.26590197722544" cy="70.58160788897112" r="2.8569452032261324" fill="#FFD6D6" opacity="0.3"/><circle cx="174.97719936327485" cy="92.76025780137616" r="3.124083096075992" fill="#FFD6D6" opacity="0.3"/><circle cx="62.143431364347634" cy="146.12218917300197" r="4.059173302515774" fill="#FFD6D6" opacity="0.3"/><circle cx="93.0665000105364" cy="83.76487693294479" r="3.1213422208043085" fill="#FFD6D6" opacity="0.3"/><circle cx="63.71222388079332" cy="50.222963870339754" r="4.071798899281475" fill="#FFD6D6" opacity="0.3"/>
  <ellipse cx="100" cy="95" rx="32" ry="28" fill="#FFB3B3" opacity="1"/>
  <circle cx="100" cy="58" r="28" fill="#FFB3B3" opacity="1"/>
  <ellipse cx="82" cy="25" rx="10" ry="24" fill="#FFB3B3" opacity="1"/>
  <ellipse cx="118" cy="25" rx="10" ry="24" fill="#FFB3B3" opacity="1"/>
  <ellipse cx="82" cy="27" rx="5" ry="15" fill="#FFD6D6" opacity="1"/>
  <ellipse cx="118" cy="27" rx="5" ry="15" fill="#FFD6D6" opacity="1"/>
  <circle cx="88" cy="52" r="5" fill="#333" opacity="1"/>
  <circle cx="112" cy="52" r="5" fill="#333" opacity="1"/>
  <circle cx="86" cy="50" r="2" fill="white" opacity="1"/>
  <circle cx="110" cy="50" r="2" fill="white" opacity="1"/>
  <ellipse cx="100" cy="68" rx="6" ry="4" fill="#FFB3B3" opacity="1"/>
  <path d="M50,46.8 C45.2,42.6 47.6,40.2 50,43.2 C52.4,40.2 54.8,42.6 50,46.8Z" fill="#FFB3B3"/>
  <path d="M155,51.5 C151,48 153,46 155,48.5 C157,46 159,48 155,51.5Z" fill="#FFD6D6"/>
</svg>