<svg xmlns="http://www.w3.org/2000/svg" viewBox="0 0 200 150" width="200" height="150">
  <defs>
    <linearGradient id="bg29214" gradientTransform="rotate(45)">
      <stop offset="0%" style="stop-color:#E8F0E8"/>
      <stop offset="100%" style="stop-color:#C5DBC5"/>
    </linearGradient>
  </defs>
  <rect width="200" height="150" fill="url(#bg29214)" rx="16"/>
  <circle cx="50.74371825921844" cy="116.16159446339225" r="3.188665297899206" fill="#E8F0E8" opacity="0.3"/><circle cx="113.21398254585802" cy="121.08911903333137" r="3.824149501561351" fill="#E8F0E8" opacity="0.3"/><circle cx="11.634327193337413" cy="81.1792586192496" r="4.3756560205160895" fill="#E8F0E8" opacity="0.3"/><circle cx="87.54151911407462" cy="38.169123761736046" r="4.7867200682976545" fill="#E8F0E8" opacity="0.3"/><circle cx="72.13942530530915" cy="106.8077497934155" r="2.4560313444681015" fill="#E8F0E8" opacity="0.3"/><circle cx="83.46201895765262" cy="86.68032406612838" r="3.9796676991645654" fill="#E8F0E8" opacity="0.3"/>
  <circle cx="100" cy="75" r="48" fill="#FFE5D9" opacity="1"/>
  <circle cx="80" cy="68" r="8" fill="#333" opacity="1"/>
  <circle cx="120" cy="68" r="8" fill="#333" opacity="1"/>
  <circle cx="78" cy="65" r="3" fill="white" opacity="1"/>
  <circle cx="118" cy="65" r="3" fill="white" opacity="1"/>
  <path d="M72 92 Q100 115 128 92" stroke="#333" stroke-width="4" fill="none" stroke-linecap="round"/>
  <ellipse cx="60" cy="82" rx="12" ry="7" fill="#FFB3B3" opacity="0.4"/>
  <ellipse cx="140" cy="82" rx="12" ry="7" fill="#FFB3B3" opacity="0.4"/>
  <path d="M45,42.25 C39,37 42,34 45,37.75 C48,34 51,37 45,42.25Z" fill="#FFB3B3"/>
  <path d="M160,46.8 C155.2,42.6 157.6,40.2 160,43.2 C162.4,40.2 164.8,42.6 160,46.8Z" fill="#FFD6D6"/>
</svg>