<svg xmlns="http://www.w3.org/2000/svg" viewBox="0 0 200 150" width="200" height="150">
  <defs>
    <linearGradient id="bg3003" gradientTransform="rotate(180)">
      <stop offset="0%" style="stop-color:#FFF3B0"/>
      <stop offset="100%" style="stop-color:#FFE566"/>
    </linearGradient>
  </defs>
  <rect width="200" height="150" fill="url(#bg3003)" rx="16"/>
  <rect x="0" y="100" width="200" height="50" rx="0" fill="#C5DBC5"/>
  <circle cx="165" cy="35" r="22" fill="#FFE566" opacity="1"/>
  <line x1="191" y1="35" x2="200" y2="35" stroke="#FFF3B0" stroke-width="3" stroke-linecap="round"/>
  <line x1="183.38477631085024" y1="53.384776310850235" x2="189.74873734152916" y2="59.748737341529164" stroke="#FFF3B0" stroke-width="3" stroke-linecap="round"/>
  <line x1="165" y1="61" x2="165" y2="70" stroke="#FFF3B0" stroke-width="3" stroke-linecap="round"/>
  <line x1="146.61522368914976" y1="53.38477631085024" x2="140.25126265847084" y2="59.748737341529164" stroke="#FFF3B0" stroke-width="3" stroke-linecap="round"/>
  <line x1="139" y1="35" x2="130" y2="35.00000000000001" stroke="#FFF3B0" stroke-width="3" stroke-linecap="round"/>
  <line x1="146.61522368914976" y1="16.615223689149765" x2="140.25126265847084" y2="10.25126265847084" stroke="#FFF3B0" stroke-width="3" stroke-linecap="round"/>
  <line x1="165" y1="9" x2="165" y2="0" stroke="#FFF3B0" stroke-width="3" stroke-linecap="round"/>
  <line x1="183.38477631085024" y1="16.61522368914976" x2="189.74873734152916" y2="10.251262658470832" stroke="#FFF3B0" stroke-width="3" stroke-linecap="round"/>
  <rect x="90" y="55" width="14" height="50" rx="2" fill="#8B6914"/>
  <path d="M81.04635137088553,32.53531047402066 Q91.04635137088553,44.53531047402066 81.04635137088553,56.53531047402066 Q71.04635137088553,44.53531047402066 81.04635137088553,32.53531047402066Z" fill="#B7E4C7"/>
  <path d="M91.87945578336075,33.81449408995468 Q101.87945578336075,45.81449408995468 91.87945578336075,57.81449408995468 Q81.87945578336075,45.81449408995468 91.87945578336075,33.81449408995468Z" fill="#95D5B2"/>
  <path d="M100.40596844954416,35.72505281798658 Q110.40596844954416,47.72505281798658 100.40596844954416,59.72505281798658 Q90.40596844954416,47.72505281798658 100.40596844954416,35.72505281798658Z" fill="#B7E4C7"/>
  <path d="M118.24585148348706,33.66926877723745 Q128.24585148348706,45.66926877723745 118.24585148348706,57.66926877723745 Q108.24585148348706,45.66926877723745 118.24585148348706,33.66926877723745Z" fill="#95D5B2"/>
  <path d="M124.17860304153874,40.00043187240226 Q134.17860304153874,52.00043187240226 124.17860304153874,64.00043187240226 Q114.17860304153874,52.00043187240226 124.17860304153874,40.00043187240226Z" fill="#B7E4C7"/>
  <circle cx="45" cy="95" r="8" fill="#FFB3B3" opacity="1"/>
  <circle cx="155" cy="98" r="6" fill="#C9B8E8" opacity="1"/>
</svg>