<svg xmlns="http://www.w3.org/2000/svg" viewBox="0 0 200 150" width="200" height="150">
  <defs>
    <linearGradient id="bg3004" gradientTransform="rotate(135)">
      <stop offset="0%" style="stop-color:#FFD6D6"/>
      <stop offset="100%" style="stop-color:#FFB3B3"/>
    </linearGradient>
  </defs>
  <rect width="200" height="150" fill="url(#bg3004)" rx="16"/>
  <rect x="0" y="100" width="200" height="50" rx="0" fill="#C5DBC5"/>
  <circle cx="165" cy="35" r="22" fill="#FFE566" opacity="1"/>
  <line x1="191" y1="35" x2="200" y2="35" stroke="#FFF3B0" stroke-width="3" stroke-linecap="round"/>
  <line x1="183.38477631085024" y1="53.384776310850235" x2="189.74873734152916" y2="59.748737341529164" stroke="#FFF3B0" stroke-width="3" stroke-linecap="round"/>
  <line x1="165" y1="61" x2="165" y2="70" stroke="#FFF3B0" stroke-width="3" stroke-linecap="round"/>
  <line x1="146.61522368914976" y1="53.38477631085024" x2="140.25126265847084" y2="59.748737341529164" stroke="#FFF3B0" stroke-width="3" stroke-linecap="round"/>
  <line x1="139" y1="35" x2="130" y2="35.00000000000001" stroke="#FFF3B0" stroke-width="3" stroke-linecap="round"/>
  <line x1="146.61522368914976" y1="16.615223689149765" x2="140.25126265847084" y2="10.25126265847084" stroke="#FFF3B0" stroke-width="3" stroke-linecap="round"/>
  <line x1="165" y1="9" x2="165" y2="0" stroke="#FFF3B0" stroke-width="3" stroke-linecap="round"/>
  <line x1="183.38477631085024" y1="16.61522368914976" x2="189.74873734152916" y2="10.251262658470832" stroke="#FFF3B0" stroke-width="3" stroke-linecap="round"/>
  <rect x="90" y="55" width="14" height="50" rx="2" fill="#8B6914"/>
  <path d="M78.04548160589184,27.469999734427006 Q88.04548160589184,39.469999734427006 78.04548160589184,51.469999734427006 Q68.04548160589184,39.469999734427006 78.04548160589184,27.469999734427006Z" fill="#B7E4C7"/>
  <path d="M89.26391660356603,30.998990059877542 Q99.26391660356603,42.99899005987754 89.26391660356603,54.99899005987754 Q79.26391660356603,42.99899005987754 89.26391660356603,30.998990059877542Z" fill="#95D5B2"/>
  <path d="M104.97210517662461,38.6064577869256 Q114.97210517662461,50.6064577869256 104.97210517662461,62.6064577869256 Q94.97210517662461,50.6064577869256 104.97210517662461,38.6064577869256Z" fill="#B7E4C7"/>
  <path d="M116.92992488847085,28.343033564276993 Q126.92992488847085,40.34303356427699 116.92992488847085,52.34303356427699 Q106.92992488847085,40.34303356427699 116.92992488847085,28.343033564276993Z" fill="#95D5B2"/>
  <path d="M127.79979840329906,39.30176479375223 Q137.79979840329906,51.30176479375223 127.79979840329906,63.30176479375223 Q117.79979840329906,51.30176479375223 127.79979840329906,39.30176479375223Z" fill="#B7E4C7"/>
  <circle cx="45" cy="95" r="8" fill="#FFB3B3" opacity="1"/>
  <circle cx="155" cy="98" r="6" fill="#C9B8E8" opacity="1"/>
</svg>