<svg xmlns="http://www.w3.org/2000/svg" viewBox="0 0 200 150" width="200" height="150">
  <defs>
    <linearGradient id="bg3005" gradientTransform="rotate(0)">
      <stop offset="0%" style="stop-color:#E0F4FF"/>
      <stop offset="100%" style="stop-color:#BAE6FD"/>
    </linearGradient>
  </defs>
  <rect width="200" height="150" fill="url(#bg3005)" rx="16"/>
  <rect x="0" y="100" width="200" height="50" rx="0" fill="#C5DBC5"/>
  <circle cx="165" cy="35" r="22" fill="#FFE566" opacity="1"/>
  <line x1="191" y1="35" x2="200" y2="35" stroke="#FFF3B0" stroke-width="3" stroke-linecap="round"/>
  <line x1="183.38477631085024" y1="53.384776310850235" x2="189.74873734152916" y2="59.748737341529164" stroke="#FFF3B0" stroke-width="3" stroke-linecap="round"/>
  <line x1="165" y1="61" x2="165" y2="70" stroke="#FFF3B0" stroke-width="3" stroke-linecap="round"/>
  <line x1="146.61522368914976" y1="53.38477631085024" x2="140.25126265847084" y2="59.748737341529164" stroke="#FFF3B0" stroke-width="3" stroke-linecap="round"/>
  <line x1="139" y1="35" x2="130" y2="35.00000000000001" stroke="#FFF3B0" stroke-width="3" stroke-linecap="round"/>
  <line x1="146.61522368914976" y1="16.615223689149765" x2="140.25126265847084" y2="10.25126265847084" stroke="#FFF3B0" stroke-width="3" stroke-linecap="round"/>
  <line x1="165" y1="9" x2="165" y2="0" stroke="#FFF3B0" stroke-width="3" stroke-linecap="round"/>
  <line x1="183.38477631085024" y1="16.61522368914976" x2="189.74873734152916" y2="10.251262658470832" stroke="#FFF3B0" stroke-width="3" stroke-linecap="round"/>
  <rect x="90" y="55" width="14" height="50" rx="2" fill="#8B6914"/>
  <path d="M79.63429738572086,25.655228062976676 Q89.63429738572086,37.655228062976676 79.63429738572086,49.655228062976676 Q69.63429738572086,37.655228062976676 79.63429738572086,25.655228062976676Z" fill="#B7E4C7"/>
  <path d="M90.97827379935188,31.83569244057071 Q100.97827379935188,43.83569244057071 90.97827379935188,55.83569244057071 Q80.97827379935188,43.83569244057071 90.97827379935188,31.83569244057071Z" fill="#95D5B2"/>
  <path d="M99.3520304465601,26.210166590979497 Q109.3520304465601,38.2101665909795 99.3520304465601,50.2101665909795 Q89.3520304465601,38.2101665909795 99.3520304465601,26.210166590979497Z" fill="#B7E4C7"/>
  <path d="M118.96162751424345,30.07828900167442 Q128.96162751424345,42.07828900167442 118.96162751424345,54.07828900167442 Q108.96162751424345,42.07828900167442 118.96162751424345,30.07828900167442Z" fill="#95D5B2"/>
  <path d="M127.04721708716897,35.73642029217626 Q137.04721708716897,47.73642029217626 127.04721708716897,59.73642029217626 Q117.04721708716897,47.73642029217626 127.04721708716897,35.73642029217626Z" fill="#B7E4C7"/>
  <circle cx="45" cy="95" r="8" fill="#FFB3B3" opacity="1"/>
  <circle cx="155" cy="98" r="6" fill="#C9B8E8" opacity="1"/>
</svg>