<svg xmlns="http://www.w3.org/2000/svg" viewBox="0 0 200 150" width="200" height="150">
  <defs>
    <linearGradient id="bg3013" gradientTransform="rotate(0)">
      <stop offset="0%" style="stop-color:#FFF3B0"/>
      <stop offset="100%" style="stop-color:#FFE566"/>
    </linearGradient>
  </defs>
  <rect width="200" height="150" fill="url(#bg3013)" rx="16"/>
  <rect x="0" y="100" width="200" height="50" rx="0" fill="#C5DBC5"/>
  <circle cx="165" cy="35" r="22" fill="#FFE566" opacity="1"/>
  <line x1="191" y1="35" x2="200" y2="35" stroke="#FFF3B0" stroke-width="3" stroke-linecap="round"/>
  <line x1="183.38477631085024" y1="53.384776310850235" x2="189.74873734152916" y2="59.748737341529164" stroke="#FFF3B0" stroke-width="3" stroke-linecap="round"/>
  <line x1="165" y1="61" x2="165" y2="70" stroke="#FFF3B0" stroke-width="3" stroke-linecap="round"/>
  <line x1="146.61522368914976" y1="53.38477631085024" x2="140.25126265847084" y2="59.748737341529164" stroke="#FFF3B0" stroke-width="3" stroke-linecap="round"/>
  <line x1="139" y1="35" x2="130" y2="35.00000000000001" stroke="#FFF3B0" stroke-width="3" stroke-linecap="round"/>
  <line x1="146.61522368914976" y1="16.615223689149765" x2="140.25126265847084" y2="10.25126265847084" stroke="#FFF3B0" stroke-width="3" stroke-linecap="round"/>
  <line x1="165" y1="9" x2="165" y2="0" stroke="#FFF3B0" stroke-width="3" stroke-linecap="round"/>
  <line x1="183.38477631085024" y1="16.61522368914976" x2="189.74873734152916" y2="10.251262658470832" stroke="#FFF3B0" stroke-width="3" stroke-linecap="round"/>
  <rect x="90" y="55" width="14" height="50" rx="2" fill="#8B6914"/>
  <path d="M80.39091885962989,39.02332613460021 Q90.39091885962989,51.02332613460021 80.39091885962989,63.02332613460021 Q70.39091885962989,51.02332613460021 80.39091885962989,39.02332613460021Z" fill="#B7E4C7"/>
  <path d="M89.73658148379036,31.830533570617263 Q99.73658148379036,43.83053357061726 89.73658148379036,55.83053357061726 Q79.73658148379036,43.83053357061726 89.73658148379036,31.830533570617263Z" fill="#95D5B2"/>
  <path d="M104.16292606605566,24.845997655618703 Q114.16292606605566,36.8459976556187 104.16292606605566,48.8459976556187 Q94.16292606605566,36.8459976556187 104.16292606605566,24.845997655618703Z" fill="#B7E4C7"/>
  <path d="M111.79988920233882,35.990933516121004 Q121.79988920233882,47.990933516121004 111.79988920233882,59.990933516121004 Q101.79988920233882,47.990933516121004 111.79988920233882,35.990933516121004Z" fill="#95D5B2"/>
  <path d="M130.8183043730678,37.65985495229688 Q140.8183043730678,49.65985495229688 130.8183043730678,61.65985495229688 Q120.8183043730678,49.65985495229688 130.8183043730678,37.65985495229688Z" fill="#B7E4C7"/>
  <circle cx="45" cy="95" r="8" fill="#FFB3B3" opacity="1"/>
  <circle cx="155" cy="98" r="6" fill="#C9B8E8" opacity="1"/>
</svg>