<svg xmlns="http://www.w3.org/2000/svg" viewBox="0 0 200 150" width="200" height="150">
  <defs>
    <linearGradient id="bg3014" gradientTransform="rotate(90)">
      <stop offset="0%" style="stop-color:#D4E9FF"/>
      <stop offset="100%" style="stop-color:#A8D0F0"/>
    </linearGradient>
  </defs>
  <rect width="200" height="150" fill="url(#bg3014)" rx="16"/>
  <rect x="0" y="100" width="200" height="50" rx="0" fill="#C5DBC5"/>
  <circle cx="165" cy="35" r="22" fill="#FFE566" opacity="1"/>
  <line x1="191" y1="35" x2="200" y2="35" stroke="#FFF3B0" stroke-width="3" stroke-linecap="round"/>
  <line x1="183.38477631085024" y1="53.384776310850235" x2="189.74873734152916" y2="59.748737341529164" stroke="#FFF3B0" stroke-width="3" stroke-linecap="round"/>
  <line x1="165" y1="61" x2="165" y2="70" stroke="#FFF3B0" stroke-width="3" stroke-linecap="round"/>
  <line x1="146.61522368914976" y1="53.38477631085024" x2="140.25126265847084" y2="59.748737341529164" stroke="#FFF3B0" stroke-width="3" stroke-linecap="round"/>
  <line x1="139" y1="35" x2="130" y2="35.00000000000001" stroke="#FFF3B0" stroke-width="3" stroke-linecap="round"/>
  <line x1="146.61522368914976" y1="16.615223689149765" x2="140.25126265847084" y2="10.25126265847084" stroke="#FFF3B0" stroke-width="3" stroke-linecap="round"/>
  <line x1="165" y1="9" x2="165" y2="0" stroke="#FFF3B0" stroke-width="3" stroke-linecap="round"/>
  <line x1="183.38477631085024" y1="16.61522368914976" x2="189.74873734152916" y2="10.251262658470832" stroke="#FFF3B0" stroke-width="3" stroke-linecap="round"/>
  <rect x="90" y="55" width="14" height="50" rx="2" fill="#8B6914"/>
  <path d="M77.57936781590979,26.668647797348967 Q87.57936781590979,38.66864779734897 77.57936781590979,50.66864779734897 Q67.57936781590979,38.66864779734897 77.57936781590979,26.668647797348967Z" fill="#B7E4C7"/>
  <path d="M90.39609122400361,25.34508061910674 Q100.39609122400361,37.34508061910674 90.39609122400361,49.34508061910674 Q80.39609122400361,37.34508061910674 90.39609122400361,25.34508061910674Z" fill="#95D5B2"/>
  <path d="M104.95941192057217,23.817887712928496 Q114.95941192057217,35.817887712928496 104.95941192057217,47.817887712928496 Q94.95941192057217,35.817887712928496 104.95941192057217,23.817887712928496Z" fill="#B7E4C7"/>
  <path d="M111.3528863815518,29.388304324864293 Q121.3528863815518,41.38830432486429 111.3528863815518,53.38830432486429 Q101.3528863815518,41.38830432486429 111.3528863815518,29.388304324864293Z" fill="#95D5B2"/>
  <path d="M127.67853926928728,31.814654257166694 Q137.67853926928728,43.814654257166694 127.67853926928728,55.814654257166694 Q117.67853926928728,43.814654257166694 127.67853926928728,31.814654257166694Z" fill="#B7E4C7"/>
  <circle cx="45" cy="95" r="8" fill="#FFB3B3" opacity="1"/>
  <circle cx="155" cy="98" r="6" fill="#C9B8E8" opacity="1"/>
</svg>