<svg xmlns="http://www.w3.org/2000/svg" viewBox="0 0 200 150" width="200" height="150">
  <defs>
    <linearGradient id="bg3015" gradientTransform="rotate(45)">
      <stop offset="0%" style="stop-color:#FFF3B0"/>
      <stop offset="100%" style="stop-color:#FFE566"/>
    </linearGradient>
  </defs>
  <rect width="200" height="150" fill="url(#bg3015)" rx="16"/>
  <circle cx="155.66236008471606" cy="52.44891532215661" r="4.276311477515492" fill="#FFF3B0" opacity="0.3"/><circle cx="87.98865020708035" cy="3.754880456108367" r="4.173293746121999" fill="#FFF3B0" opacity="0.3"/><circle cx="30.30216120132536" cy="124.09057149197906" r="2.810955301281865" fill="#FFF3B0" opacity="0.3"/><circle cx="39.84510648720061" cy="90.14974145770509" r="3.67893876591188" fill="#FFF3B0" opacity="0.3"/><circle cx="157.86144647354377" cy="133.7904374028767" r="3.7382142894330173" fill="#FFF3B0" opacity="0.3"/><circle cx="14.075665398780757" cy="68.24569217515091" r="3.4956895506848014" fill="#FFF3B0" opacity="0.3"/>
  <ellipse cx="100" cy="95" rx="32" ry="28" fill="#FFE566" opacity="1"/>
  <circle cx="100" cy="58" r="28" fill="#FFE566" opacity="1"/>
  <ellipse cx="82" cy="25" rx="10" ry="24" fill="#FFE566" opacity="1"/>
  <ellipse cx="118" cy="25" rx="10" ry="24" fill="#FFE566" opacity="1"/>
  <ellipse cx="82" cy="27" rx="5" ry="15" fill="#FFD6D6" opacity="1"/>
  <ellipse cx="118" cy="27" rx="5" ry="15" fill="#FFD6D6" opacity="1"/>
  <circle cx="88" cy="52" r="5" fill="#333" opacity="1"/>
  <circle cx="112" cy="52" r="5" fill="#333" opacity="1"/>
  <circle cx="86" cy="50" r="2" fill="white" opacity="1"/>
  <circle cx="110" cy="50" r="2" fill="white" opacity="1"/>
  <ellipse cx="100" cy="68" rx="6" ry="4" fill="#FFB3B3" opacity="1"/>
  <path d="M50,46.8 C45.2,42.6 47.6,40.2 50,43.2 C52.4,40.2 54.8,42.6 50,46.8Z" fill="#FFB3B3"/>
  <path d="M155,51.5 C151,48 153,46 155,48.5 C157,46 159,48 155,51.5Z" fill="#FFD6D6"/>
</svg>