<svg xmlns="http://www.w3.org/2000/svg" viewBox="0 0 200 150" width="200" height="150">
  <defs>
    <linearGradient id="bg3021" gradientTransform="rotate(90)">
      <stop offset="0%" style="stop-color:#FFF5EB"/>
      <stop offset="100%" style="stop-color:#FFE4CC"/>
    </linearGradient>
  </defs>
  <rect width="200" height="150" fill="url(#bg3021)" rx="16"/>
  <rect x="0" y="100" width="200" height="50" rx="0" fill="#C5DBC5"/>
  <circle cx="165" cy="35" r="22" fill="#FFE566" opacity="1"/>
  <line x1="191" y1="35" x2="200" y2="35" stroke="#FFF3B0" stroke-width="3" stroke-linecap="round"/>
  <line x1="183.38477631085024" y1="53.384776310850235" x2="189.74873734152916" y2="59.748737341529164" stroke="#FFF3B0" stroke-width="3" stroke-linecap="round"/>
  <line x1="165" y1="61" x2="165" y2="70" stroke="#FFF3B0" stroke-width="3" stroke-linecap="round"/>
  <line x1="146.61522368914976" y1="53.38477631085024" x2="140.25126265847084" y2="59.748737341529164" stroke="#FFF3B0" stroke-width="3" stroke-linecap="round"/>
  <line x1="139" y1="35" x2="130" y2="35.00000000000001" stroke="#FFF3B0" stroke-width="3" stroke-linecap="round"/>
  <line x1="146.61522368914976" y1="16.615223689149765" x2="140.25126265847084" y2="10.25126265847084" stroke="#FFF3B0" stroke-width="3" stroke-linecap="round"/>
  <line x1="165" y1="9" x2="165" y2="0" stroke="#FFF3B0" stroke-width="3" stroke-linecap="round"/>
  <line x1="183.38477631085024" y1="16.61522368914976" x2="189.74873734152916" y2="10.251262658470832" stroke="#FFF3B0" stroke-width="3" stroke-linecap="round"/>
  <rect x="90" y="55" width="14" height="50" rx="2" fill="#8B6914"/>
  <path d="M82.21337001897882,26.952979095483897 Q92.21337001897882,38.9529790954839 82.21337001897882,50.9529790954839 Q72.21337001897882,38.9529790954839 82.21337001897882,26.952979095483897Z" fill="#B7E4C7"/>
  <path d="M87.58877515308995,27.42351276622503 Q97.58877515308995,39.42351276622503 87.58877515308995,51.42351276622503 Q77.58877515308995,39.42351276622503 87.58877515308995,27.42351276622503Z" fill="#95D5B2"/>
  <path d="M105.45778187394899,35.91420483194088 Q115.45778187394899,47.91420483194088 105.45778187394899,59.91420483194088 Q95.45778187394899,47.91420483194088 105.45778187394899,35.91420483194088Z" fill="#B7E4C7"/>
  <path d="M114.5893679508008,28.676260049622215 Q124.5893679508008,40.676260049622215 114.5893679508008,52.676260049622215 Q104.5893679508008,40.676260049622215 114.5893679508008,28.676260049622215Z" fill="#95D5B2"/>
  <path d="M123.82218491875392,28.172556355391862 Q133.82218491875392,40.17255635539186 123.82218491875392,52.17255635539186 Q113.82218491875392,40.17255635539186 123.82218491875392,28.172556355391862Z" fill="#B7E4C7"/>
  <circle cx="45" cy="95" r="8" fill="#FFB3B3" opacity="1"/>
  <circle cx="155" cy="98" r="6" fill="#C9B8E8" opacity="1"/>
</svg>