<svg xmlns="http://www.w3.org/2000/svg" viewBox="0 0 200 150" width="200" height="150">
  <defs>
    <linearGradient id="bg3022" gradientTransform="rotate(90)">
      <stop offset="0%" style="stop-color:#FFE5D9"/>
      <stop offset="100%" style="stop-color:#FFCDB2"/>
    </linearGradient>
  </defs>
  <rect width="200" height="150" fill="url(#bg3022)" rx="16"/>
  <rect x="0" y="100" width="200" height="50" rx="0" fill="#C5DBC5"/>
  <circle cx="165" cy="35" r="22" fill="#FFE566" opacity="1"/>
  <line x1="191" y1="35" x2="200" y2="35" stroke="#FFF3B0" stroke-width="3" stroke-linecap="round"/>
  <line x1="183.38477631085024" y1="53.384776310850235" x2="189.74873734152916" y2="59.748737341529164" stroke="#FFF3B0" stroke-width="3" stroke-linecap="round"/>
  <line x1="165" y1="61" x2="165" y2="70" stroke="#FFF3B0" stroke-width="3" stroke-linecap="round"/>
  <line x1="146.61522368914976" y1="53.38477631085024" x2="140.25126265847084" y2="59.748737341529164" stroke="#FFF3B0" stroke-width="3" stroke-linecap="round"/>
  <line x1="139" y1="35" x2="130" y2="35.00000000000001" stroke="#FFF3B0" stroke-width="3" stroke-linecap="round"/>
  <line x1="146.61522368914976" y1="16.615223689149765" x2="140.25126265847084" y2="10.25126265847084" stroke="#FFF3B0" stroke-width="3" stroke-linecap="round"/>
  <line x1="165" y1="9" x2="165" y2="0" stroke="#FFF3B0" stroke-width="3" stroke-linecap="round"/>
  <line x1="183.38477631085024" y1="16.61522368914976" x2="189.74873734152916" y2="10.251262658470832" stroke="#FFF3B0" stroke-width="3" stroke-linecap="round"/>
  <rect x="90" y="55" width="14" height="50" rx="2" fill="#8B6914"/>
  <path d="M76.29570822587993,33.492797713195614 Q86.29570822587993,45.492797713195614 76.29570822587993,57.492797713195614 Q66.29570822587993,45.492797713195614 76.29570822587993,33.492797713195614Z" fill="#B7E4C7"/>
  <path d="M92.14364037736232,39.581551661656704 Q102.14364037736232,51.581551661656704 92.14364037736232,63.581551661656704 Q82.14364037736232,51.581551661656704 92.14364037736232,39.581551661656704Z" fill="#95D5B2"/>
  <path d="M99.39320313354983,37.417560581860016 Q109.39320313354983,49.417560581860016 99.39320313354983,61.417560581860016 Q89.39320313354983,49.417560581860016 99.39320313354983,37.417560581860016Z" fill="#B7E4C7"/>
  <path d="M111.40208939797594,38.012856044331784 Q121.40208939797594,50.012856044331784 111.40208939797594,62.012856044331784 Q101.40208939797594,50.012856044331784 111.40208939797594,38.012856044331784Z" fill="#95D5B2"/>
  <path d="M129.18831732243416,35.97795943750316 Q139.18831732243416,47.97795943750316 129.18831732243416,59.97795943750316 Q119.18831732243416,47.97795943750316 129.18831732243416,35.97795943750316Z" fill="#B7E4C7"/>
  <circle cx="45" cy="95" r="8" fill="#FFB3B3" opacity="1"/>
  <circle cx="155" cy="98" r="6" fill="#C9B8E8" opacity="1"/>
</svg>