<svg xmlns="http://www.w3.org/2000/svg" viewBox="0 0 200 150" width="200" height="150">
  <defs>
    <linearGradient id="bg3023" gradientTransform="rotate(180)">
      <stop offset="0%" style="stop-color:#D8F3DC"/>
      <stop offset="100%" style="stop-color:#B7E4C7"/>
    </linearGradient>
  </defs>
  <rect width="200" height="150" fill="url(#bg3023)" rx="16"/>
  <rect x="0" y="100" width="200" height="50" rx="0" fill="#C5DBC5"/>
  <circle cx="165" cy="35" r="22" fill="#FFE566" opacity="1"/>
  <line x1="191" y1="35" x2="200" y2="35" stroke="#FFF3B0" stroke-width="3" stroke-linecap="round"/>
  <line x1="183.38477631085024" y1="53.384776310850235" x2="189.74873734152916" y2="59.748737341529164" stroke="#FFF3B0" stroke-width="3" stroke-linecap="round"/>
  <line x1="165" y1="61" x2="165" y2="70" stroke="#FFF3B0" stroke-width="3" stroke-linecap="round"/>
  <line x1="146.61522368914976" y1="53.38477631085024" x2="140.25126265847084" y2="59.748737341529164" stroke="#FFF3B0" stroke-width="3" stroke-linecap="round"/>
  <line x1="139" y1="35" x2="130" y2="35.00000000000001" stroke="#FFF3B0" stroke-width="3" stroke-linecap="round"/>
  <line x1="146.61522368914976" y1="16.615223689149765" x2="140.25126265847084" y2="10.25126265847084" stroke="#FFF3B0" stroke-width="3" stroke-linecap="round"/>
  <line x1="165" y1="9" x2="165" y2="0" stroke="#FFF3B0" stroke-width="3" stroke-linecap="round"/>
  <line x1="183.38477631085024" y1="16.61522368914976" x2="189.74873734152916" y2="10.251262658470832" stroke="#FFF3B0" stroke-width="3" stroke-linecap="round"/>
  <rect x="90" y="55" width="14" height="50" rx="2" fill="#8B6914"/>
  <path d="M81.3537994986109,33.63086551503147 Q91.3537994986109,45.63086551503147 81.3537994986109,57.63086551503147 Q71.3537994986109,45.63086551503147 81.3537994986109,33.63086551503147Z" fill="#B7E4C7"/>
  <path d="M88.98828229206265,27.172962385255232 Q98.98828229206265,39.17296238525523 88.98828229206265,51.17296238525523 Q78.98828229206265,39.17296238525523 88.98828229206265,27.172962385255232Z" fill="#95D5B2"/>
  <path d="M99.79440132055606,31.632345741280005 Q109.79440132055606,43.632345741280005 99.79440132055606,55.632345741280005 Q89.79440132055606,43.632345741280005 99.79440132055606,31.632345741280005Z" fill="#B7E4C7"/>
  <path d="M117.6465097924447,27.08403595261916 Q127.6465097924447,39.08403595261916 117.6465097924447,51.08403595261916 Q107.6465097924447,39.08403595261916 117.6465097924447,27.08403595261916Z" fill="#95D5B2"/>
  <path d="M123.83516040674294,26.432301182765514 Q133.83516040674294,38.432301182765514 123.83516040674294,50.432301182765514 Q113.83516040674294,38.432301182765514 123.83516040674294,26.432301182765514Z" fill="#B7E4C7"/>
  <circle cx="45" cy="95" r="8" fill="#FFB3B3" opacity="1"/>
  <circle cx="155" cy="98" r="6" fill="#C9B8E8" opacity="1"/>
</svg>