<svg xmlns="http://www.w3.org/2000/svg" viewBox="0 0 200 150" width="200" height="150">
  <defs>
    <linearGradient id="bg3026" gradientTransform="rotate(135)">
      <stop offset="0%" style="stop-color:#D0F0F0"/>
      <stop offset="100%" style="stop-color:#A0E0E0"/>
    </linearGradient>
  </defs>
  <rect width="200" height="150" fill="url(#bg3026)" rx="16"/>
  <rect x="0" y="100" width="200" height="50" rx="0" fill="#C5DBC5"/>
  <circle cx="165" cy="35" r="22" fill="#FFE566" opacity="1"/>
  <line x1="191" y1="35" x2="200" y2="35" stroke="#FFF3B0" stroke-width="3" stroke-linecap="round"/>
  <line x1="183.38477631085024" y1="53.384776310850235" x2="189.74873734152916" y2="59.748737341529164" stroke="#FFF3B0" stroke-width="3" stroke-linecap="round"/>
  <line x1="165" y1="61" x2="165" y2="70" stroke="#FFF3B0" stroke-width="3" stroke-linecap="round"/>
  <line x1="146.61522368914976" y1="53.38477631085024" x2="140.25126265847084" y2="59.748737341529164" stroke="#FFF3B0" stroke-width="3" stroke-linecap="round"/>
  <line x1="139" y1="35" x2="130" y2="35.00000000000001" stroke="#FFF3B0" stroke-width="3" stroke-linecap="round"/>
  <line x1="146.61522368914976" y1="16.615223689149765" x2="140.25126265847084" y2="10.25126265847084" stroke="#FFF3B0" stroke-width="3" stroke-linecap="round"/>
  <line x1="165" y1="9" x2="165" y2="0" stroke="#FFF3B0" stroke-width="3" stroke-linecap="round"/>
  <line x1="183.38477631085024" y1="16.61522368914976" x2="189.74873734152916" y2="10.251262658470832" stroke="#FFF3B0" stroke-width="3" stroke-linecap="round"/>
  <rect x="90" y="55" width="14" height="50" rx="2" fill="#8B6914"/>
  <path d="M79.41155945922583,23.92200515911827 Q89.41155945922583,35.92200515911827 79.41155945922583,47.92200515911827 Q69.41155945922583,35.92200515911827 79.41155945922583,23.92200515911827Z" fill="#B7E4C7"/>
  <path d="M91.67709259818366,29.07992412886233 Q101.67709259818366,41.07992412886233 91.67709259818366,53.07992412886233 Q81.67709259818366,41.07992412886233 91.67709259818366,29.07992412886233Z" fill="#95D5B2"/>
  <path d="M101.21941525067086,36.34117323045575 Q111.21941525067086,48.34117323045575 101.21941525067086,60.34117323045575 Q91.21941525067086,48.34117323045575 101.21941525067086,36.34117323045575Z" fill="#B7E4C7"/>
  <path d="M115.89042676171812,34.9469181859904 Q125.89042676171812,46.9469181859904 115.89042676171812,58.9469181859904 Q105.89042676171812,46.9469181859904 115.89042676171812,34.9469181859904Z" fill="#95D5B2"/>
  <path d="M124.71458403824727,42.652616036006236 Q134.71458403824727,54.652616036006236 124.71458403824727,66.65261603600624 Q114.71458403824727,54.652616036006236 124.71458403824727,42.652616036006236Z" fill="#B7E4C7"/>
  <circle cx="45" cy="95" r="8" fill="#FFB3B3" opacity="1"/>
  <circle cx="155" cy="98" r="6" fill="#C9B8E8" opacity="1"/>
</svg>