<svg xmlns="http://www.w3.org/2000/svg" viewBox="0 0 200 150" width="200" height="150">
  <defs>
    <linearGradient id="bg3032" gradientTransform="rotate(135)">
      <stop offset="0%" style="stop-color:#E0F4FF"/>
      <stop offset="100%" style="stop-color:#BAE6FD"/>
    </linearGradient>
  </defs>
  <rect width="200" height="150" fill="url(#bg3032)" rx="16"/>
  <rect x="0" y="100" width="200" height="50" rx="0" fill="#C5DBC5"/>
  <circle cx="165" cy="35" r="22" fill="#FFE566" opacity="1"/>
  <line x1="191" y1="35" x2="200" y2="35" stroke="#FFF3B0" stroke-width="3" stroke-linecap="round"/>
  <line x1="183.38477631085024" y1="53.384776310850235" x2="189.74873734152916" y2="59.748737341529164" stroke="#FFF3B0" stroke-width="3" stroke-linecap="round"/>
  <line x1="165" y1="61" x2="165" y2="70" stroke="#FFF3B0" stroke-width="3" stroke-linecap="round"/>
  <line x1="146.61522368914976" y1="53.38477631085024" x2="140.25126265847084" y2="59.748737341529164" stroke="#FFF3B0" stroke-width="3" stroke-linecap="round"/>
  <line x1="139" y1="35" x2="130" y2="35.00000000000001" stroke="#FFF3B0" stroke-width="3" stroke-linecap="round"/>
  <line x1="146.61522368914976" y1="16.615223689149765" x2="140.25126265847084" y2="10.25126265847084" stroke="#FFF3B0" stroke-width="3" stroke-linecap="round"/>
  <line x1="165" y1="9" x2="165" y2="0" stroke="#FFF3B0" stroke-width="3" stroke-linecap="round"/>
  <line x1="183.38477631085024" y1="16.61522368914976" x2="189.74873734152916" y2="10.251262658470832" stroke="#FFF3B0" stroke-width="3" stroke-linecap="round"/>
  <rect x="90" y="55" width="14" height="50" rx="2" fill="#8B6914"/>
  <path d="M82.7115177558153,30.573615162891656 Q92.7115177558153,42.573615162891656 82.7115177558153,54.573615162891656 Q72.7115177558153,42.573615162891656 82.7115177558153,30.573615162891656Z" fill="#B7E4C7"/>
  <path d="M93.30700311837768,39.86836985951231 Q103.30700311837768,51.86836985951231 93.30700311837768,63.86836985951231 Q83.30700311837768,51.86836985951231 93.30700311837768,39.86836985951231Z" fill="#95D5B2"/>
  <path d="M106.09007446945543,42.16353573829838 Q116.09007446945543,54.16353573829838 106.09007446945543,66.16353573829838 Q96.09007446945543,54.16353573829838 106.09007446945543,42.16353573829838Z" fill="#B7E4C7"/>
  <path d="M111.94986069382867,33.3846374629029 Q121.94986069382867,45.3846374629029 111.94986069382867,57.3846374629029 Q101.94986069382867,45.3846374629029 111.94986069382867,33.3846374629029Z" fill="#95D5B2"/>
  <path d="M129.38493202288373,34.704973389587394 Q139.38493202288373,46.704973389587394 129.38493202288373,58.704973389587394 Q119.38493202288373,46.704973389587394 129.38493202288373,34.704973389587394Z" fill="#B7E4C7"/>
  <circle cx="45" cy="95" r="8" fill="#FFB3B3" opacity="1"/>
  <circle cx="155" cy="98" r="6" fill="#C9B8E8" opacity="1"/>
</svg>