<svg xmlns="http://www.w3.org/2000/svg" viewBox="0 0 200 150" width="200" height="150">
  <defs>
    <linearGradient id="bg3043" gradientTransform="rotate(180)">
      <stop offset="0%" style="stop-color:#FFE4EC"/>
      <stop offset="100%" style="stop-color:#FFC8DD"/>
    </linearGradient>
  </defs>
  <rect width="200" height="150" fill="url(#bg3043)" rx="16"/>
  <rect x="0" y="100" width="200" height="50" rx="0" fill="#C5DBC5"/>
  <circle cx="165" cy="35" r="22" fill="#FFE566" opacity="1"/>
  <line x1="191" y1="35" x2="200" y2="35" stroke="#FFF3B0" stroke-width="3" stroke-linecap="round"/>
  <line x1="183.38477631085024" y1="53.384776310850235" x2="189.74873734152916" y2="59.748737341529164" stroke="#FFF3B0" stroke-width="3" stroke-linecap="round"/>
  <line x1="165" y1="61" x2="165" y2="70" stroke="#FFF3B0" stroke-width="3" stroke-linecap="round"/>
  <line x1="146.61522368914976" y1="53.38477631085024" x2="140.25126265847084" y2="59.748737341529164" stroke="#FFF3B0" stroke-width="3" stroke-linecap="round"/>
  <line x1="139" y1="35" x2="130" y2="35.00000000000001" stroke="#FFF3B0" stroke-width="3" stroke-linecap="round"/>
  <line x1="146.61522368914976" y1="16.615223689149765" x2="140.25126265847084" y2="10.25126265847084" stroke="#FFF3B0" stroke-width="3" stroke-linecap="round"/>
  <line x1="165" y1="9" x2="165" y2="0" stroke="#FFF3B0" stroke-width="3" stroke-linecap="round"/>
  <line x1="183.38477631085024" y1="16.61522368914976" x2="189.74873734152916" y2="10.251262658470832" stroke="#FFF3B0" stroke-width="3" stroke-linecap="round"/>
  <rect x="90" y="55" width="14" height="50" rx="2" fill="#8B6914"/>
  <path d="M78.2511890350288,33.70394594895333 Q88.2511890350288,45.70394594895333 78.2511890350288,57.70394594895333 Q68.2511890350288,45.70394594895333 78.2511890350288,33.70394594895333Z" fill="#B7E4C7"/>
  <path d="M93.46840989631892,41.3719829259644 Q103.46840989631892,53.3719829259644 93.46840989631892,65.3719829259644 Q83.46840989631892,53.3719829259644 93.46840989631892,41.3719829259644Z" fill="#95D5B2"/>
  <path d="M105.55861568239925,42.380175078622415 Q115.55861568239925,54.380175078622415 105.55861568239925,66.38017507862241 Q95.55861568239925,54.380175078622415 105.55861568239925,42.380175078622415Z" fill="#B7E4C7"/>
  <path d="M112.56181956885848,26.603191383681406 Q122.56181956885848,38.603191383681406 112.56181956885848,50.603191383681406 Q102.56181956885848,38.603191383681406 112.56181956885848,26.603191383681406Z" fill="#95D5B2"/>
  <path d="M130.97971496774738,40.44543776363571 Q140.97971496774738,52.44543776363571 130.97971496774738,64.44543776363571 Q120.97971496774738,52.44543776363571 130.97971496774738,40.44543776363571Z" fill="#B7E4C7"/>
  <circle cx="45" cy="95" r="8" fill="#FFB3B3" opacity="1"/>
  <circle cx="155" cy="98" r="6" fill="#C9B8E8" opacity="1"/>
</svg>