<svg xmlns="http://www.w3.org/2000/svg" viewBox="0 0 200 150" width="200" height="150">
  <defs>
    <linearGradient id="bg3044" gradientTransform="rotate(135)">
      <stop offset="0%" style="stop-color:#FFE5D9"/>
      <stop offset="100%" style="stop-color:#FFCDB2"/>
    </linearGradient>
  </defs>
  <rect width="200" height="150" fill="url(#bg3044)" rx="16"/>
  <circle cx="124.71407881639607" cy="123.78041044282782" r="3.790963645678403" fill="#FFE5D9" opacity="0.3"/><circle cx="191.26448731514074" cy="63.83767692559559" r="4.492723622065114" fill="#FFE5D9" opacity="0.3"/><circle cx="31.10897892365756" cy="84.34562641780303" r="2.4810665504815006" fill="#FFE5D9" opacity="0.3"/><circle cx="162.31491567159537" cy="86.63303249954879" r="3.5908505989518744" fill="#FFE5D9" opacity="0.3"/><circle cx="60.54509928799234" cy="123.97872069450386" r="2.0129393510669615" fill="#FFE5D9" opacity="0.3"/><circle cx="28.370758918708816" cy="80.60474343747046" r="4.941290494771238" fill="#FFE5D9" opacity="0.3"/>
  <ellipse cx="100" cy="95" rx="32" ry="28" fill="#FFCDB2" opacity="1"/>
  <circle cx="100" cy="58" r="28" fill="#FFCDB2" opacity="1"/>
  <ellipse cx="82" cy="25" rx="10" ry="24" fill="#FFCDB2" opacity="1"/>
  <ellipse cx="118" cy="25" rx="10" ry="24" fill="#FFCDB2" opacity="1"/>
  <ellipse cx="82" cy="27" rx="5" ry="15" fill="#FFD6D6" opacity="1"/>
  <ellipse cx="118" cy="27" rx="5" ry="15" fill="#FFD6D6" opacity="1"/>
  <circle cx="88" cy="52" r="5" fill="#333" opacity="1"/>
  <circle cx="112" cy="52" r="5" fill="#333" opacity="1"/>
  <circle cx="86" cy="50" r="2" fill="white" opacity="1"/>
  <circle cx="110" cy="50" r="2" fill="white" opacity="1"/>
  <ellipse cx="100" cy="68" rx="6" ry="4" fill="#FFB3B3" opacity="1"/>
  <path d="M50,46.8 C45.2,42.6 47.6,40.2 50,43.2 C52.4,40.2 54.8,42.6 50,46.8Z" fill="#FFB3B3"/>
  <path d="M155,51.5 C151,48 153,46 155,48.5 C157,46 159,48 155,51.5Z" fill="#FFD6D6"/>
</svg>