<svg xmlns="http://www.w3.org/2000/svg" viewBox="0 0 200 150" width="200" height="150">
  <defs>
    <linearGradient id="bg3054" gradientTransform="rotate(0)">
      <stop offset="0%" style="stop-color:#E8F0E8"/>
      <stop offset="100%" style="stop-color:#C5DBC5"/>
    </linearGradient>
  </defs>
  <rect width="200" height="150" fill="url(#bg3054)" rx="16"/>
  <rect x="0" y="100" width="200" height="50" rx="0" fill="#C5DBC5"/>
  <circle cx="165" cy="35" r="22" fill="#FFE566" opacity="1"/>
  <line x1="191" y1="35" x2="200" y2="35" stroke="#FFF3B0" stroke-width="3" stroke-linecap="round"/>
  <line x1="183.38477631085024" y1="53.384776310850235" x2="189.74873734152916" y2="59.748737341529164" stroke="#FFF3B0" stroke-width="3" stroke-linecap="round"/>
  <line x1="165" y1="61" x2="165" y2="70" stroke="#FFF3B0" stroke-width="3" stroke-linecap="round"/>
  <line x1="146.61522368914976" y1="53.38477631085024" x2="140.25126265847084" y2="59.748737341529164" stroke="#FFF3B0" stroke-width="3" stroke-linecap="round"/>
  <line x1="139" y1="35" x2="130" y2="35.00000000000001" stroke="#FFF3B0" stroke-width="3" stroke-linecap="round"/>
  <line x1="146.61522368914976" y1="16.615223689149765" x2="140.25126265847084" y2="10.25126265847084" stroke="#FFF3B0" stroke-width="3" stroke-linecap="round"/>
  <line x1="165" y1="9" x2="165" y2="0" stroke="#FFF3B0" stroke-width="3" stroke-linecap="round"/>
  <line x1="183.38477631085024" y1="16.61522368914976" x2="189.74873734152916" y2="10.251262658470832" stroke="#FFF3B0" stroke-width="3" stroke-linecap="round"/>
  <rect x="90" y="55" width="14" height="50" rx="2" fill="#8B6914"/>
  <path d="M75.11659769768448,31.49711861257674 Q85.11659769768448,43.49711861257674 75.11659769768448,55.49711861257674 Q65.11659769768448,43.49711861257674 75.11659769768448,31.49711861257674Z" fill="#B7E4C7"/>
  <path d="M90.30391434339981,33.64252875115926 Q100.30391434339981,45.64252875115926 90.30391434339981,57.64252875115926 Q80.30391434339981,45.64252875115926 90.30391434339981,33.64252875115926Z" fill="#95D5B2"/>
  <path d="M100.32792527345009,33.55926149287188 Q110.32792527345009,45.55926149287188 100.32792527345009,57.55926149287188 Q90.32792527345009,45.55926149287188 100.32792527345009,33.55926149287188Z" fill="#B7E4C7"/>
  <path d="M117.11946567748237,34.23464471242187 Q127.11946567748237,46.23464471242187 117.11946567748237,58.23464471242187 Q107.11946567748237,46.23464471242187 117.11946567748237,34.23464471242187Z" fill="#95D5B2"/>
  <path d="M125.71431243504776,39.22655994564411 Q135.71431243504776,51.22655994564411 125.71431243504776,63.22655994564411 Q115.71431243504776,51.22655994564411 125.71431243504776,39.22655994564411Z" fill="#B7E4C7"/>
  <circle cx="45" cy="95" r="8" fill="#FFB3B3" opacity="1"/>
  <circle cx="155" cy="98" r="6" fill="#C9B8E8" opacity="1"/>
</svg>