<svg xmlns="http://www.w3.org/2000/svg" viewBox="0 0 200 150" width="200" height="150">
  <defs>
    <linearGradient id="bg3056" gradientTransform="rotate(0)">
      <stop offset="0%" style="stop-color:#FFE5D9"/>
      <stop offset="100%" style="stop-color:#FFCDB2"/>
    </linearGradient>
  </defs>
  <rect width="200" height="150" fill="url(#bg3056)" rx="16"/>
  <rect x="0" y="100" width="200" height="50" rx="0" fill="#C5DBC5"/>
  <circle cx="165" cy="35" r="22" fill="#FFE566" opacity="1"/>
  <line x1="191" y1="35" x2="200" y2="35" stroke="#FFF3B0" stroke-width="3" stroke-linecap="round"/>
  <line x1="183.38477631085024" y1="53.384776310850235" x2="189.74873734152916" y2="59.748737341529164" stroke="#FFF3B0" stroke-width="3" stroke-linecap="round"/>
  <line x1="165" y1="61" x2="165" y2="70" stroke="#FFF3B0" stroke-width="3" stroke-linecap="round"/>
  <line x1="146.61522368914976" y1="53.38477631085024" x2="140.25126265847084" y2="59.748737341529164" stroke="#FFF3B0" stroke-width="3" stroke-linecap="round"/>
  <line x1="139" y1="35" x2="130" y2="35.00000000000001" stroke="#FFF3B0" stroke-width="3" stroke-linecap="round"/>
  <line x1="146.61522368914976" y1="16.615223689149765" x2="140.25126265847084" y2="10.25126265847084" stroke="#FFF3B0" stroke-width="3" stroke-linecap="round"/>
  <line x1="165" y1="9" x2="165" y2="0" stroke="#FFF3B0" stroke-width="3" stroke-linecap="round"/>
  <line x1="183.38477631085024" y1="16.61522368914976" x2="189.74873734152916" y2="10.251262658470832" stroke="#FFF3B0" stroke-width="3" stroke-linecap="round"/>
  <rect x="90" y="55" width="14" height="50" rx="2" fill="#8B6914"/>
  <path d="M81.11997803206759,23.577873643178464 Q91.11997803206759,35.577873643178464 81.11997803206759,47.577873643178464 Q71.11997803206759,35.577873643178464 81.11997803206759,23.577873643178464Z" fill="#B7E4C7"/>
  <path d="M93.89772891734174,39.53571467457368 Q103.89772891734174,51.53571467457368 93.89772891734174,63.53571467457368 Q83.89772891734174,51.53571467457368 93.89772891734174,39.53571467457368Z" fill="#95D5B2"/>
  <path d="M106.52169656919068,23.426007899004617 Q116.52169656919068,35.42600789900462 106.52169656919068,47.42600789900462 Q96.52169656919068,35.42600789900462 106.52169656919068,23.426007899004617Z" fill="#B7E4C7"/>
  <path d="M115.46001229088506,28.781749657289765 Q125.46001229088506,40.781749657289765 115.46001229088506,52.781749657289765 Q105.46001229088506,40.781749657289765 115.46001229088506,28.781749657289765Z" fill="#95D5B2"/>
  <path d="M130.7518250423018,39.52220901152759 Q140.7518250423018,51.52220901152759 130.7518250423018,63.52220901152759 Q120.75182504230179,51.52220901152759 130.7518250423018,39.52220901152759Z" fill="#B7E4C7"/>
  <circle cx="45" cy="95" r="8" fill="#FFB3B3" opacity="1"/>
  <circle cx="155" cy="98" r="6" fill="#C9B8E8" opacity="1"/>
</svg>