<svg xmlns="http://www.w3.org/2000/svg" viewBox="0 0 200 150" width="200" height="150">
  <defs>
    <linearGradient id="bg30729" gradientTransform="rotate(180)">
      <stop offset="0%" style="stop-color:#D8F3DC"/>
      <stop offset="100%" style="stop-color:#B7E4C7"/>
    </linearGradient>
  </defs>
  <rect width="200" height="150" fill="url(#bg30729)" rx="16"/>
  <rect x="0" y="0" width="200" height="150" rx="0" fill="#1a1a3e"/>
  <polygon points="151.55899590557965,34.71540100859124 152.91717327891703,37.46736894919623 155.95415021120155,37.90866752877142 153.7565730583906,40.05077583159054 154.27535065225442,43.075481293560046 151.55899590557965,41.64740909168063 148.84264115890488,43.075481293560046 149.3614187527687,40.05077583159054 147.16384159995775,37.90866752877142 150.20081853224227,37.46736894919623" fill="#FFF3B0"/>
  <polygon points="145.40250937991004,31.811467661641245 146.2161175709358,33.46001791867777 148.0354007931201,33.72437524495847 146.71895508651505,35.007592662250126 147.0297257619616,36.81952473210317 145.40250937991004,35.964046453908736 143.7752929978585,36.81952473210317 144.08606367330503,35.007592662250126 142.7696179667,33.72437524495847 144.58890118888428,33.46001791867778" fill="#FFF3B0"/>
  <polygon points="106.8774088849841,15.317629428519012 107.61362691955392,16.809370101132963 109.25986049111334,17.048581841286577 108.06863468804872,18.20974001951624 108.34984495412375,19.84932167805313 106.8774088849841,19.07521622590002 105.40497281584446,19.84932167805313 105.6861830819195,18.20974001951624 104.49495727885487,17.048581841286577 106.14119085041429,16.809370101132963" fill="#FFF3B0"/>
  <polygon points="53.56972118130216,16.932036362305553 54.998176401391525,19.826402773826732 58.192299376325785,20.290536010020478 55.881010278813974,22.54348606443038 56.4266316214809,25.72470259122778 53.56972118130216,24.222735888287843 50.71281074112341,25.72470259122778 51.25843208379034,22.54348606443038 48.94714298627853,20.290536010020478 52.14126596121279,19.826402773826732" fill="#FFF3B0"/>
  <polygon points="162.7671129425039,36.26202936565187 163.79769763721183,38.350222038855705 166.10215507114958,38.68507930480248 164.43463400682674,40.310510617847726 164.82828233191972,42.605656462786534 162.7671129425039,41.522035587423034 160.70594355308808,42.605656462786534 161.09959187818106,40.310510617847726 159.43207081385822,38.68507930480248 161.73652824779597,38.350222038855705" fill="#FFF3B0"/>
  <polygon points="64.6787170751486,18.74116999170701 65.46201056647753,20.32829595812251 67.21350805942215,20.582803441386318 65.94611256728538,21.81820871632243 66.24530405780645,23.56262895778616 64.6787170751486,22.739025441162084 63.11213009249074,23.56262895778616 63.41132158301182,21.81820871632243 62.14392609087504,20.582803441386318 63.89542358381967,20.32829595812251" fill="#FFF3B0"/>
  <polygon points="160.36429977201806,10.191970269243939 161.16750238240735,11.819436517021318 162.96351801894303,12.08041286520248 161.66390889548055,13.347218670053321 161.9707049927966,15.135977171266486 160.36429977201806,14.291439968032591 158.7578945512395,15.135977171266486 159.06469064855557,13.347218670053321 157.76508152509308,12.08041286520248 159.56109716162877,11.819436517021318" fill="#FFF3B0"/>
  <polygon points="133.04150003244104,50.392768520609934 133.835395605823,52.00137665164285 135.61060007494132,52.25932896018677 134.32605005369118,53.51145576828848 134.629291179205,55.27948719347804 133.04150003244104,54.4447359880769 131.45370888567706,55.27948719347804 131.7569500111909,53.51145576828848 130.47239998994075,52.25932896018677 132.24760445905906,52.00137665164285" fill="#FFF3B0"/>
  <polygon points="124.3809449053606,34.1692719677485 125.78676292494133,37.01777040113385 128.93026758071798,37.474548365014776 126.65560624303929,39.69179517762867 127.19258094452206,42.822597918004405 124.3809449053606,41.344433376261804 121.56930886619912,42.822597918004405 122.1062835676819,39.69179517762867 119.8316222300032,37.47454836501477 122.97512688577986,37.01777040113385" fill="#FFF3B0"/>
  <polygon points="32.986835968331434,10.128966438567659 33.78566652533128,11.747573938586063 35.571905953286944,12.007129720508015 34.27937096080919,13.267039951886838 34.58449708233112,15.046061747109565 32.986835968331434,14.206121592857016 31.38917485433175,15.046061747109565 31.69430097585368,13.267039951886838 30.401765983375924,12.007129720508015 32.18800541133159,11.747573938586063" fill="#FFF3B0"/>
  <path d="M155 25 A22 22 0 1 1 175 50 A18 18 0 1 0 155 25" fill="#FFE566"/>
  <rect x="35" y="75" width="130" height="50" rx="8" fill="#C9B8E8"/>
  <rect x="45" y="65" width="90" height="20" rx="8" fill="white"/>
  <rect x="40" y="90" width="120" height="30" rx="6" fill="#B7E4C7"/>
  <text x="170" y="75" fill="#E2D9F3" font-size="16" font-weight="bold">z</text>
  <text x="178" y="65" fill="#E2D9F3" font-size="13" font-weight="bold">z</text>
</svg>