<svg xmlns="http://www.w3.org/2000/svg" viewBox="0 0 200 150" width="200" height="150">
  <defs>
    <linearGradient id="bg3072" gradientTransform="rotate(0)">
      <stop offset="0%" style="stop-color:#D8F3DC"/>
      <stop offset="100%" style="stop-color:#B7E4C7"/>
    </linearGradient>
  </defs>
  <rect width="200" height="150" fill="url(#bg3072)" rx="16"/>
  <rect x="0" y="100" width="200" height="50" rx="0" fill="#C5DBC5"/>
  <circle cx="165" cy="35" r="22" fill="#FFE566" opacity="1"/>
  <line x1="191" y1="35" x2="200" y2="35" stroke="#FFF3B0" stroke-width="3" stroke-linecap="round"/>
  <line x1="183.38477631085024" y1="53.384776310850235" x2="189.74873734152916" y2="59.748737341529164" stroke="#FFF3B0" stroke-width="3" stroke-linecap="round"/>
  <line x1="165" y1="61" x2="165" y2="70" stroke="#FFF3B0" stroke-width="3" stroke-linecap="round"/>
  <line x1="146.61522368914976" y1="53.38477631085024" x2="140.25126265847084" y2="59.748737341529164" stroke="#FFF3B0" stroke-width="3" stroke-linecap="round"/>
  <line x1="139" y1="35" x2="130" y2="35.00000000000001" stroke="#FFF3B0" stroke-width="3" stroke-linecap="round"/>
  <line x1="146.61522368914976" y1="16.615223689149765" x2="140.25126265847084" y2="10.25126265847084" stroke="#FFF3B0" stroke-width="3" stroke-linecap="round"/>
  <line x1="165" y1="9" x2="165" y2="0" stroke="#FFF3B0" stroke-width="3" stroke-linecap="round"/>
  <line x1="183.38477631085024" y1="16.61522368914976" x2="189.74873734152916" y2="10.251262658470832" stroke="#FFF3B0" stroke-width="3" stroke-linecap="round"/>
  <rect x="90" y="55" width="14" height="50" rx="2" fill="#8B6914"/>
  <path d="M77.12597488863685,24.941982448515773 Q87.12597488863685,36.94198244851577 77.12597488863685,48.94198244851577 Q67.12597488863685,36.94198244851577 77.12597488863685,24.941982448515773Z" fill="#B7E4C7"/>
  <path d="M88.22270908993596,23.041163858859363 Q98.22270908993596,35.04116385885936 88.22270908993596,47.04116385885936 Q78.22270908993596,35.04116385885936 88.22270908993596,23.041163858859363Z" fill="#95D5B2"/>
  <path d="M105.18398529397382,38.847799182974995 Q115.18398529397382,50.847799182974995 105.18398529397382,62.847799182974995 Q95.18398529397382,50.847799182974995 105.18398529397382,38.847799182974995Z" fill="#B7E4C7"/>
  <path d="M116.36871386940038,30.743958915452822 Q126.36871386940038,42.74395891545282 116.36871386940038,54.74395891545282 Q106.36871386940038,42.74395891545282 116.36871386940038,30.743958915452822Z" fill="#95D5B2"/>
  <path d="M124.72369265470479,27.7458948059284 Q134.7236926547048,39.7458948059284 124.72369265470479,51.7458948059284 Q114.72369265470479,39.7458948059284 124.72369265470479,27.7458948059284Z" fill="#B7E4C7"/>
  <circle cx="45" cy="95" r="8" fill="#FFB3B3" opacity="1"/>
  <circle cx="155" cy="98" r="6" fill="#C9B8E8" opacity="1"/>
</svg>