<svg xmlns="http://www.w3.org/2000/svg" viewBox="0 0 200 150" width="200" height="150">
  <defs>
    <linearGradient id="bg3073" gradientTransform="rotate(135)">
      <stop offset="0%" style="stop-color:#FFF3B0"/>
      <stop offset="100%" style="stop-color:#FFE566"/>
    </linearGradient>
  </defs>
  <rect width="200" height="150" fill="url(#bg3073)" rx="16"/>
  <rect x="0" y="100" width="200" height="50" rx="0" fill="#C5DBC5"/>
  <circle cx="165" cy="35" r="22" fill="#FFE566" opacity="1"/>
  <line x1="191" y1="35" x2="200" y2="35" stroke="#FFF3B0" stroke-width="3" stroke-linecap="round"/>
  <line x1="183.38477631085024" y1="53.384776310850235" x2="189.74873734152916" y2="59.748737341529164" stroke="#FFF3B0" stroke-width="3" stroke-linecap="round"/>
  <line x1="165" y1="61" x2="165" y2="70" stroke="#FFF3B0" stroke-width="3" stroke-linecap="round"/>
  <line x1="146.61522368914976" y1="53.38477631085024" x2="140.25126265847084" y2="59.748737341529164" stroke="#FFF3B0" stroke-width="3" stroke-linecap="round"/>
  <line x1="139" y1="35" x2="130" y2="35.00000000000001" stroke="#FFF3B0" stroke-width="3" stroke-linecap="round"/>
  <line x1="146.61522368914976" y1="16.615223689149765" x2="140.25126265847084" y2="10.25126265847084" stroke="#FFF3B0" stroke-width="3" stroke-linecap="round"/>
  <line x1="165" y1="9" x2="165" y2="0" stroke="#FFF3B0" stroke-width="3" stroke-linecap="round"/>
  <line x1="183.38477631085024" y1="16.61522368914976" x2="189.74873734152916" y2="10.251262658470832" stroke="#FFF3B0" stroke-width="3" stroke-linecap="round"/>
  <rect x="90" y="55" width="14" height="50" rx="2" fill="#8B6914"/>
  <path d="M79.59879804694356,41.07663575982588 Q89.59879804694356,53.07663575982588 79.59879804694356,65.07663575982588 Q69.59879804694356,53.07663575982588 79.59879804694356,41.07663575982588Z" fill="#B7E4C7"/>
  <path d="M92.14710030139395,41.36278369632055 Q102.14710030139395,53.36278369632055 92.14710030139395,65.36278369632055 Q82.14710030139395,53.36278369632055 92.14710030139395,41.36278369632055Z" fill="#95D5B2"/>
  <path d="M103.15408983978705,29.62075220479892 Q113.15408983978705,41.62075220479892 103.15408983978705,53.62075220479892 Q93.15408983978705,41.62075220479892 103.15408983978705,29.62075220479892Z" fill="#B7E4C7"/>
  <path d="M114.68899142277951,34.63370127695089 Q124.68899142277951,46.63370127695089 114.68899142277951,58.63370127695089 Q104.68899142277951,46.63370127695089 114.68899142277951,34.63370127695089Z" fill="#95D5B2"/>
  <path d="M128.9957704205226,38.90841124803774 Q138.9957704205226,50.90841124803774 128.9957704205226,62.90841124803774 Q118.9957704205226,50.90841124803774 128.9957704205226,38.90841124803774Z" fill="#B7E4C7"/>
  <circle cx="45" cy="95" r="8" fill="#FFB3B3" opacity="1"/>
  <circle cx="155" cy="98" r="6" fill="#C9B8E8" opacity="1"/>
</svg>