<svg xmlns="http://www.w3.org/2000/svg" viewBox="0 0 200 150" width="200" height="150">
  <defs>
    <linearGradient id="bg3074" gradientTransform="rotate(90)">
      <stop offset="0%" style="stop-color:#FFF3B0"/>
      <stop offset="100%" style="stop-color:#FFE566"/>
    </linearGradient>
  </defs>
  <rect width="200" height="150" fill="url(#bg3074)" rx="16"/>
  <rect x="0" y="100" width="200" height="50" rx="0" fill="#C5DBC5"/>
  <circle cx="165" cy="35" r="22" fill="#FFE566" opacity="1"/>
  <line x1="191" y1="35" x2="200" y2="35" stroke="#FFF3B0" stroke-width="3" stroke-linecap="round"/>
  <line x1="183.38477631085024" y1="53.384776310850235" x2="189.74873734152916" y2="59.748737341529164" stroke="#FFF3B0" stroke-width="3" stroke-linecap="round"/>
  <line x1="165" y1="61" x2="165" y2="70" stroke="#FFF3B0" stroke-width="3" stroke-linecap="round"/>
  <line x1="146.61522368914976" y1="53.38477631085024" x2="140.25126265847084" y2="59.748737341529164" stroke="#FFF3B0" stroke-width="3" stroke-linecap="round"/>
  <line x1="139" y1="35" x2="130" y2="35.00000000000001" stroke="#FFF3B0" stroke-width="3" stroke-linecap="round"/>
  <line x1="146.61522368914976" y1="16.615223689149765" x2="140.25126265847084" y2="10.25126265847084" stroke="#FFF3B0" stroke-width="3" stroke-linecap="round"/>
  <line x1="165" y1="9" x2="165" y2="0" stroke="#FFF3B0" stroke-width="3" stroke-linecap="round"/>
  <line x1="183.38477631085024" y1="16.61522368914976" x2="189.74873734152916" y2="10.251262658470832" stroke="#FFF3B0" stroke-width="3" stroke-linecap="round"/>
  <rect x="90" y="55" width="14" height="50" rx="2" fill="#8B6914"/>
  <path d="M76.97990276210476,26.205122724193643 Q86.97990276210476,38.20512272419364 76.97990276210476,50.20512272419364 Q66.97990276210476,38.20512272419364 76.97990276210476,26.205122724193643Z" fill="#B7E4C7"/>
  <path d="M92.6752032985678,23.267918972567713 Q102.6752032985678,35.26791897256771 92.6752032985678,47.26791897256771 Q82.6752032985678,35.26791897256771 92.6752032985678,23.267918972567713Z" fill="#95D5B2"/>
  <path d="M105.25678830847028,29.46996486883836 Q115.25678830847028,41.46996486883836 105.25678830847028,53.46996486883836 Q95.25678830847028,41.46996486883836 105.25678830847028,29.46996486883836Z" fill="#B7E4C7"/>
  <path d="M115.88925784197636,42.9842705397532 Q125.88925784197636,54.9842705397532 115.88925784197636,66.9842705397532 Q105.88925784197636,54.9842705397532 115.88925784197636,42.9842705397532Z" fill="#95D5B2"/>
  <path d="M123.4731186060526,33.146158242168895 Q133.4731186060526,45.146158242168895 123.4731186060526,57.146158242168895 Q113.4731186060526,45.146158242168895 123.4731186060526,33.146158242168895Z" fill="#B7E4C7"/>
  <circle cx="45" cy="95" r="8" fill="#FFB3B3" opacity="1"/>
  <circle cx="155" cy="98" r="6" fill="#C9B8E8" opacity="1"/>
</svg>