<svg xmlns="http://www.w3.org/2000/svg" viewBox="0 0 200 150" width="200" height="150">
  <defs>
    <linearGradient id="bg3083" gradientTransform="rotate(45)">
      <stop offset="0%" style="stop-color:#FFF3B0"/>
      <stop offset="100%" style="stop-color:#FFE566"/>
    </linearGradient>
  </defs>
  <rect width="200" height="150" fill="url(#bg3083)" rx="16"/>
  <rect x="0" y="100" width="200" height="50" rx="0" fill="#C5DBC5"/>
  <circle cx="165" cy="35" r="22" fill="#FFE566" opacity="1"/>
  <line x1="191" y1="35" x2="200" y2="35" stroke="#FFF3B0" stroke-width="3" stroke-linecap="round"/>
  <line x1="183.38477631085024" y1="53.384776310850235" x2="189.74873734152916" y2="59.748737341529164" stroke="#FFF3B0" stroke-width="3" stroke-linecap="round"/>
  <line x1="165" y1="61" x2="165" y2="70" stroke="#FFF3B0" stroke-width="3" stroke-linecap="round"/>
  <line x1="146.61522368914976" y1="53.38477631085024" x2="140.25126265847084" y2="59.748737341529164" stroke="#FFF3B0" stroke-width="3" stroke-linecap="round"/>
  <line x1="139" y1="35" x2="130" y2="35.00000000000001" stroke="#FFF3B0" stroke-width="3" stroke-linecap="round"/>
  <line x1="146.61522368914976" y1="16.615223689149765" x2="140.25126265847084" y2="10.25126265847084" stroke="#FFF3B0" stroke-width="3" stroke-linecap="round"/>
  <line x1="165" y1="9" x2="165" y2="0" stroke="#FFF3B0" stroke-width="3" stroke-linecap="round"/>
  <line x1="183.38477631085024" y1="16.61522368914976" x2="189.74873734152916" y2="10.251262658470832" stroke="#FFF3B0" stroke-width="3" stroke-linecap="round"/>
  <rect x="90" y="55" width="14" height="50" rx="2" fill="#8B6914"/>
  <path d="M75.53218686331547,42.913516079534475 Q85.53218686331547,54.913516079534475 75.53218686331547,66.91351607953447 Q65.53218686331547,54.913516079534475 75.53218686331547,42.913516079534475Z" fill="#B7E4C7"/>
  <path d="M93.17483307042858,32.020859792244664 Q103.17483307042858,44.020859792244664 93.17483307042858,56.020859792244664 Q83.17483307042858,44.020859792244664 93.17483307042858,32.020859792244664Z" fill="#95D5B2"/>
  <path d="M101.88957234695408,37.49232635903172 Q111.88957234695408,49.49232635903172 101.88957234695408,61.49232635903172 Q91.88957234695408,49.49232635903172 101.88957234695408,37.49232635903172Z" fill="#B7E4C7"/>
  <path d="M112.63721074927889,27.229708429174934 Q122.63721074927889,39.229708429174934 112.63721074927889,51.229708429174934 Q102.63721074927889,39.229708429174934 112.63721074927889,27.229708429174934Z" fill="#95D5B2"/>
  <path d="M127.94458536403181,24.82916213572753 Q137.9445853640318,36.82916213572753 127.94458536403181,48.82916213572753 Q117.94458536403181,36.82916213572753 127.94458536403181,24.82916213572753Z" fill="#B7E4C7"/>
  <circle cx="45" cy="95" r="8" fill="#FFB3B3" opacity="1"/>
  <circle cx="155" cy="98" r="6" fill="#C9B8E8" opacity="1"/>
</svg>