<svg xmlns="http://www.w3.org/2000/svg" viewBox="0 0 200 150" width="200" height="150">
  <defs>
    <linearGradient id="bg3094" gradientTransform="rotate(0)">
      <stop offset="0%" style="stop-color:#E2D9F3"/>
      <stop offset="100%" style="stop-color:#C9B8E8"/>
    </linearGradient>
  </defs>
  <rect width="200" height="150" fill="url(#bg3094)" rx="16"/>
  <rect x="0" y="100" width="200" height="50" rx="0" fill="#C5DBC5"/>
  <circle cx="165" cy="35" r="22" fill="#FFE566" opacity="1"/>
  <line x1="191" y1="35" x2="200" y2="35" stroke="#FFF3B0" stroke-width="3" stroke-linecap="round"/>
  <line x1="183.38477631085024" y1="53.384776310850235" x2="189.74873734152916" y2="59.748737341529164" stroke="#FFF3B0" stroke-width="3" stroke-linecap="round"/>
  <line x1="165" y1="61" x2="165" y2="70" stroke="#FFF3B0" stroke-width="3" stroke-linecap="round"/>
  <line x1="146.61522368914976" y1="53.38477631085024" x2="140.25126265847084" y2="59.748737341529164" stroke="#FFF3B0" stroke-width="3" stroke-linecap="round"/>
  <line x1="139" y1="35" x2="130" y2="35.00000000000001" stroke="#FFF3B0" stroke-width="3" stroke-linecap="round"/>
  <line x1="146.61522368914976" y1="16.615223689149765" x2="140.25126265847084" y2="10.25126265847084" stroke="#FFF3B0" stroke-width="3" stroke-linecap="round"/>
  <line x1="165" y1="9" x2="165" y2="0" stroke="#FFF3B0" stroke-width="3" stroke-linecap="round"/>
  <line x1="183.38477631085024" y1="16.61522368914976" x2="189.74873734152916" y2="10.251262658470832" stroke="#FFF3B0" stroke-width="3" stroke-linecap="round"/>
  <rect x="90" y="55" width="14" height="50" rx="2" fill="#8B6914"/>
  <path d="M77.27506928460934,23.64657636321499 Q87.27506928460934,35.64657636321499 77.27506928460934,47.64657636321499 Q67.27506928460934,35.64657636321499 77.27506928460934,23.64657636321499Z" fill="#B7E4C7"/>
  <path d="M91.4984758609935,35.98202502708136 Q101.4984758609935,47.98202502708136 91.4984758609935,59.98202502708136 Q81.4984758609935,47.98202502708136 91.4984758609935,35.98202502708136Z" fill="#95D5B2"/>
  <path d="M101.84429931838531,42.73106028341135 Q111.84429931838531,54.73106028341135 101.84429931838531,66.73106028341135 Q91.84429931838531,54.73106028341135 101.84429931838531,42.73106028341135Z" fill="#B7E4C7"/>
  <path d="M115.49674043756022,25.749815108754774 Q125.49674043756022,37.749815108754774 115.49674043756022,49.749815108754774 Q105.49674043756022,37.749815108754774 115.49674043756022,25.749815108754774Z" fill="#95D5B2"/>
  <path d="M124.44045772610116,27.52844119801739 Q134.44045772610116,39.52844119801739 124.44045772610116,51.52844119801739 Q114.44045772610116,39.52844119801739 124.44045772610116,27.52844119801739Z" fill="#B7E4C7"/>
  <circle cx="45" cy="95" r="8" fill="#FFB3B3" opacity="1"/>
  <circle cx="155" cy="98" r="6" fill="#C9B8E8" opacity="1"/>
</svg>