<svg xmlns="http://www.w3.org/2000/svg" viewBox="0 0 200 150" width="200" height="150">
  <defs>
    <linearGradient id="bg3095" gradientTransform="rotate(0)">
      <stop offset="0%" style="stop-color:#F0F7FF"/>
      <stop offset="100%" style="stop-color:#DCE8F5"/>
    </linearGradient>
  </defs>
  <rect width="200" height="150" fill="url(#bg3095)" rx="16"/>
  <rect x="0" y="100" width="200" height="50" rx="0" fill="#C5DBC5"/>
  <circle cx="165" cy="35" r="22" fill="#FFE566" opacity="1"/>
  <line x1="191" y1="35" x2="200" y2="35" stroke="#FFF3B0" stroke-width="3" stroke-linecap="round"/>
  <line x1="183.38477631085024" y1="53.384776310850235" x2="189.74873734152916" y2="59.748737341529164" stroke="#FFF3B0" stroke-width="3" stroke-linecap="round"/>
  <line x1="165" y1="61" x2="165" y2="70" stroke="#FFF3B0" stroke-width="3" stroke-linecap="round"/>
  <line x1="146.61522368914976" y1="53.38477631085024" x2="140.25126265847084" y2="59.748737341529164" stroke="#FFF3B0" stroke-width="3" stroke-linecap="round"/>
  <line x1="139" y1="35" x2="130" y2="35.00000000000001" stroke="#FFF3B0" stroke-width="3" stroke-linecap="round"/>
  <line x1="146.61522368914976" y1="16.615223689149765" x2="140.25126265847084" y2="10.25126265847084" stroke="#FFF3B0" stroke-width="3" stroke-linecap="round"/>
  <line x1="165" y1="9" x2="165" y2="0" stroke="#FFF3B0" stroke-width="3" stroke-linecap="round"/>
  <line x1="183.38477631085024" y1="16.61522368914976" x2="189.74873734152916" y2="10.251262658470832" stroke="#FFF3B0" stroke-width="3" stroke-linecap="round"/>
  <rect x="90" y="55" width="14" height="50" rx="2" fill="#8B6914"/>
  <path d="M80.08392152524539,33.86608866276947 Q90.08392152524539,45.86608866276947 80.08392152524539,57.86608866276947 Q70.08392152524539,45.86608866276947 80.08392152524539,33.86608866276947Z" fill="#B7E4C7"/>
  <path d="M93.84594446073606,41.74327269370042 Q103.84594446073606,53.74327269370042 93.84594446073606,65.74327269370042 Q83.84594446073606,53.74327269370042 93.84594446073606,41.74327269370042Z" fill="#95D5B2"/>
  <path d="M105.82137746723129,39.120997981124674 Q115.82137746723129,51.120997981124674 105.82137746723129,63.120997981124674 Q95.82137746723129,51.120997981124674 105.82137746723129,39.120997981124674Z" fill="#B7E4C7"/>
  <path d="M116.2754345556823,26.966184585369774 Q126.2754345556823,38.966184585369774 116.2754345556823,50.966184585369774 Q106.2754345556823,38.966184585369774 116.2754345556823,26.966184585369774Z" fill="#95D5B2"/>
  <path d="M130.9492814996952,29.036909753124746 Q140.9492814996952,41.036909753124746 130.9492814996952,53.036909753124746 Q120.94928149969519,41.036909753124746 130.9492814996952,29.036909753124746Z" fill="#B7E4C7"/>
  <circle cx="45" cy="95" r="8" fill="#FFB3B3" opacity="1"/>
  <circle cx="155" cy="98" r="6" fill="#C9B8E8" opacity="1"/>
</svg>