<svg xmlns="http://www.w3.org/2000/svg" viewBox="0 0 200 150" width="200" height="150">
  <defs>
    <linearGradient id="bg3110" gradientTransform="rotate(45)">
      <stop offset="0%" style="stop-color:#D0F0F0"/>
      <stop offset="100%" style="stop-color:#A0E0E0"/>
    </linearGradient>
  </defs>
  <rect width="200" height="150" fill="url(#bg3110)" rx="16"/>
  <rect x="0" y="100" width="200" height="50" rx="0" fill="#C5DBC5"/>
  <circle cx="165" cy="35" r="22" fill="#FFE566" opacity="1"/>
  <line x1="191" y1="35" x2="200" y2="35" stroke="#FFF3B0" stroke-width="3" stroke-linecap="round"/>
  <line x1="183.38477631085024" y1="53.384776310850235" x2="189.74873734152916" y2="59.748737341529164" stroke="#FFF3B0" stroke-width="3" stroke-linecap="round"/>
  <line x1="165" y1="61" x2="165" y2="70" stroke="#FFF3B0" stroke-width="3" stroke-linecap="round"/>
  <line x1="146.61522368914976" y1="53.38477631085024" x2="140.25126265847084" y2="59.748737341529164" stroke="#FFF3B0" stroke-width="3" stroke-linecap="round"/>
  <line x1="139" y1="35" x2="130" y2="35.00000000000001" stroke="#FFF3B0" stroke-width="3" stroke-linecap="round"/>
  <line x1="146.61522368914976" y1="16.615223689149765" x2="140.25126265847084" y2="10.25126265847084" stroke="#FFF3B0" stroke-width="3" stroke-linecap="round"/>
  <line x1="165" y1="9" x2="165" y2="0" stroke="#FFF3B0" stroke-width="3" stroke-linecap="round"/>
  <line x1="183.38477631085024" y1="16.61522368914976" x2="189.74873734152916" y2="10.251262658470832" stroke="#FFF3B0" stroke-width="3" stroke-linecap="round"/>
  <rect x="90" y="55" width="14" height="50" rx="2" fill="#8B6914"/>
  <path d="M78.02064000865357,31.40682996549731 Q88.02064000865357,43.40682996549731 78.02064000865357,55.40682996549731 Q68.02064000865357,43.40682996549731 78.02064000865357,31.40682996549731Z" fill="#B7E4C7"/>
  <path d="M94.29397362582677,31.821123030256786 Q104.29397362582677,43.821123030256786 94.29397362582677,55.821123030256786 Q84.29397362582677,43.821123030256786 94.29397362582677,31.821123030256786Z" fill="#95D5B2"/>
  <path d="M103.14092835230986,24.90674141917043 Q113.14092835230986,36.90674141917043 103.14092835230986,48.90674141917043 Q93.14092835230986,36.90674141917043 103.14092835230986,24.90674141917043Z" fill="#B7E4C7"/>
  <path d="M115.66503464257039,42.966420237224156 Q125.66503464257039,54.966420237224156 115.66503464257039,66.96642023722416 Q105.66503464257039,54.966420237224156 115.66503464257039,42.966420237224156Z" fill="#95D5B2"/>
  <path d="M126.13632524180866,33.46986221193947 Q136.13632524180866,45.46986221193947 126.13632524180866,57.46986221193947 Q116.13632524180866,45.46986221193947 126.13632524180866,33.46986221193947Z" fill="#B7E4C7"/>
  <circle cx="45" cy="95" r="8" fill="#FFB3B3" opacity="1"/>
  <circle cx="155" cy="98" r="6" fill="#C9B8E8" opacity="1"/>
</svg>