<svg xmlns="http://www.w3.org/2000/svg" viewBox="0 0 200 150" width="200" height="150">
  <defs>
    <linearGradient id="bg3112" gradientTransform="rotate(45)">
      <stop offset="0%" style="stop-color:#FFE4EC"/>
      <stop offset="100%" style="stop-color:#FFC8DD"/>
    </linearGradient>
  </defs>
  <rect width="200" height="150" fill="url(#bg3112)" rx="16"/>
  <rect x="0" y="100" width="200" height="50" rx="0" fill="#C5DBC5"/>
  <circle cx="165" cy="35" r="22" fill="#FFE566" opacity="1"/>
  <line x1="191" y1="35" x2="200" y2="35" stroke="#FFF3B0" stroke-width="3" stroke-linecap="round"/>
  <line x1="183.38477631085024" y1="53.384776310850235" x2="189.74873734152916" y2="59.748737341529164" stroke="#FFF3B0" stroke-width="3" stroke-linecap="round"/>
  <line x1="165" y1="61" x2="165" y2="70" stroke="#FFF3B0" stroke-width="3" stroke-linecap="round"/>
  <line x1="146.61522368914976" y1="53.38477631085024" x2="140.25126265847084" y2="59.748737341529164" stroke="#FFF3B0" stroke-width="3" stroke-linecap="round"/>
  <line x1="139" y1="35" x2="130" y2="35.00000000000001" stroke="#FFF3B0" stroke-width="3" stroke-linecap="round"/>
  <line x1="146.61522368914976" y1="16.615223689149765" x2="140.25126265847084" y2="10.25126265847084" stroke="#FFF3B0" stroke-width="3" stroke-linecap="round"/>
  <line x1="165" y1="9" x2="165" y2="0" stroke="#FFF3B0" stroke-width="3" stroke-linecap="round"/>
  <line x1="183.38477631085024" y1="16.61522368914976" x2="189.74873734152916" y2="10.251262658470832" stroke="#FFF3B0" stroke-width="3" stroke-linecap="round"/>
  <rect x="90" y="55" width="14" height="50" rx="2" fill="#8B6914"/>
  <path d="M82.07651593904302,42.812571313714216 Q92.07651593904302,54.812571313714216 82.07651593904302,66.81257131371422 Q72.07651593904302,54.812571313714216 82.07651593904302,42.812571313714216Z" fill="#B7E4C7"/>
  <path d="M88.73292869553552,42.34836467857167 Q98.73292869553552,54.34836467857167 88.73292869553552,66.34836467857167 Q78.73292869553552,54.34836467857167 88.73292869553552,42.34836467857167Z" fill="#95D5B2"/>
  <path d="M103.31281338937697,25.775328865959636 Q113.31281338937697,37.77532886595964 103.31281338937697,49.77532886595964 Q93.31281338937697,37.77532886595964 103.31281338937697,25.775328865959636Z" fill="#B7E4C7"/>
  <path d="M114.06805259939438,41.28986880796947 Q124.06805259939438,53.28986880796947 114.06805259939438,65.28986880796947 Q104.06805259939438,53.28986880796947 114.06805259939438,41.28986880796947Z" fill="#95D5B2"/>
  <path d="M126.90994807750394,35.13722326881907 Q136.90994807750394,47.13722326881907 126.90994807750394,59.13722326881907 Q116.90994807750394,47.13722326881907 126.90994807750394,35.13722326881907Z" fill="#B7E4C7"/>
  <circle cx="45" cy="95" r="8" fill="#FFB3B3" opacity="1"/>
  <circle cx="155" cy="98" r="6" fill="#C9B8E8" opacity="1"/>
</svg>