<svg xmlns="http://www.w3.org/2000/svg" viewBox="0 0 200 150" width="200" height="150">
  <defs>
    <linearGradient id="bg3124" gradientTransform="rotate(90)">
      <stop offset="0%" style="stop-color:#FFD6D6"/>
      <stop offset="100%" style="stop-color:#FFB3B3"/>
    </linearGradient>
  </defs>
  <rect width="200" height="150" fill="url(#bg3124)" rx="16"/>
  <rect x="0" y="100" width="200" height="50" rx="0" fill="#C5DBC5"/>
  <circle cx="165" cy="35" r="22" fill="#FFE566" opacity="1"/>
  <line x1="191" y1="35" x2="200" y2="35" stroke="#FFF3B0" stroke-width="3" stroke-linecap="round"/>
  <line x1="183.38477631085024" y1="53.384776310850235" x2="189.74873734152916" y2="59.748737341529164" stroke="#FFF3B0" stroke-width="3" stroke-linecap="round"/>
  <line x1="165" y1="61" x2="165" y2="70" stroke="#FFF3B0" stroke-width="3" stroke-linecap="round"/>
  <line x1="146.61522368914976" y1="53.38477631085024" x2="140.25126265847084" y2="59.748737341529164" stroke="#FFF3B0" stroke-width="3" stroke-linecap="round"/>
  <line x1="139" y1="35" x2="130" y2="35.00000000000001" stroke="#FFF3B0" stroke-width="3" stroke-linecap="round"/>
  <line x1="146.61522368914976" y1="16.615223689149765" x2="140.25126265847084" y2="10.25126265847084" stroke="#FFF3B0" stroke-width="3" stroke-linecap="round"/>
  <line x1="165" y1="9" x2="165" y2="0" stroke="#FFF3B0" stroke-width="3" stroke-linecap="round"/>
  <line x1="183.38477631085024" y1="16.61522368914976" x2="189.74873734152916" y2="10.251262658470832" stroke="#FFF3B0" stroke-width="3" stroke-linecap="round"/>
  <rect x="90" y="55" width="14" height="50" rx="2" fill="#8B6914"/>
  <path d="M82.03528846695554,41.53055029980169 Q92.03528846695554,53.53055029980169 82.03528846695554,65.53055029980169 Q72.03528846695554,53.53055029980169 82.03528846695554,41.53055029980169Z" fill="#B7E4C7"/>
  <path d="M92.6318926762251,31.87365279104415 Q102.6318926762251,43.87365279104415 92.6318926762251,55.87365279104415 Q82.6318926762251,43.87365279104415 92.6318926762251,31.87365279104415Z" fill="#95D5B2"/>
  <path d="M100.93802976385632,42.70523961324943 Q110.93802976385632,54.70523961324943 100.93802976385632,66.70523961324943 Q90.93802976385632,54.70523961324943 100.93802976385632,42.70523961324943Z" fill="#B7E4C7"/>
  <path d="M112.47857076025684,25.131630193071032 Q122.47857076025684,37.13163019307103 112.47857076025684,49.13163019307103 Q102.47857076025684,37.13163019307103 112.47857076025684,25.131630193071032Z" fill="#95D5B2"/>
  <path d="M124.8836652936443,25.019681730416778 Q134.8836652936443,37.01968173041678 124.8836652936443,49.01968173041678 Q114.8836652936443,37.01968173041678 124.8836652936443,25.019681730416778Z" fill="#B7E4C7"/>
  <circle cx="45" cy="95" r="8" fill="#FFB3B3" opacity="1"/>
  <circle cx="155" cy="98" r="6" fill="#C9B8E8" opacity="1"/>
</svg>