<svg xmlns="http://www.w3.org/2000/svg" viewBox="0 0 200 150" width="200" height="150">
  <defs>
    <linearGradient id="bg3131" gradientTransform="rotate(90)">
      <stop offset="0%" style="stop-color:#F0F7FF"/>
      <stop offset="100%" style="stop-color:#DCE8F5"/>
    </linearGradient>
  </defs>
  <rect width="200" height="150" fill="url(#bg3131)" rx="16"/>
  <rect x="0" y="100" width="200" height="50" rx="0" fill="#C5DBC5"/>
  <circle cx="165" cy="35" r="22" fill="#FFE566" opacity="1"/>
  <line x1="191" y1="35" x2="200" y2="35" stroke="#FFF3B0" stroke-width="3" stroke-linecap="round"/>
  <line x1="183.38477631085024" y1="53.384776310850235" x2="189.74873734152916" y2="59.748737341529164" stroke="#FFF3B0" stroke-width="3" stroke-linecap="round"/>
  <line x1="165" y1="61" x2="165" y2="70" stroke="#FFF3B0" stroke-width="3" stroke-linecap="round"/>
  <line x1="146.61522368914976" y1="53.38477631085024" x2="140.25126265847084" y2="59.748737341529164" stroke="#FFF3B0" stroke-width="3" stroke-linecap="round"/>
  <line x1="139" y1="35" x2="130" y2="35.00000000000001" stroke="#FFF3B0" stroke-width="3" stroke-linecap="round"/>
  <line x1="146.61522368914976" y1="16.615223689149765" x2="140.25126265847084" y2="10.25126265847084" stroke="#FFF3B0" stroke-width="3" stroke-linecap="round"/>
  <line x1="165" y1="9" x2="165" y2="0" stroke="#FFF3B0" stroke-width="3" stroke-linecap="round"/>
  <line x1="183.38477631085024" y1="16.61522368914976" x2="189.74873734152916" y2="10.251262658470832" stroke="#FFF3B0" stroke-width="3" stroke-linecap="round"/>
  <rect x="90" y="55" width="14" height="50" rx="2" fill="#8B6914"/>
  <path d="M80.21418604912354,36.3057863938302 Q90.21418604912354,48.3057863938302 80.21418604912354,60.3057863938302 Q70.21418604912354,48.3057863938302 80.21418604912354,36.3057863938302Z" fill="#B7E4C7"/>
  <path d="M93.06526429789665,28.99208828155497 Q103.06526429789665,40.99208828155497 93.06526429789665,52.99208828155497 Q83.06526429789665,40.99208828155497 93.06526429789665,28.99208828155497Z" fill="#95D5B2"/>
  <path d="M101.591285312119,36.88349030767131 Q111.591285312119,48.88349030767131 101.591285312119,60.88349030767131 Q91.591285312119,48.88349030767131 101.591285312119,36.88349030767131Z" fill="#B7E4C7"/>
  <path d="M116.93550609104568,38.52546438557329 Q126.93550609104568,50.52546438557329 116.93550609104568,62.52546438557329 Q106.93550609104568,50.52546438557329 116.93550609104568,38.52546438557329Z" fill="#95D5B2"/>
  <path d="M126.93218097826593,40.140497573900575 Q136.93218097826593,52.140497573900575 126.93218097826593,64.14049757390057 Q116.93218097826593,52.140497573900575 126.93218097826593,40.140497573900575Z" fill="#B7E4C7"/>
  <circle cx="45" cy="95" r="8" fill="#FFB3B3" opacity="1"/>
  <circle cx="155" cy="98" r="6" fill="#C9B8E8" opacity="1"/>
</svg>