<svg xmlns="http://www.w3.org/2000/svg" viewBox="0 0 200 150" width="200" height="150">
  <defs>
    <linearGradient id="bg3133" gradientTransform="rotate(90)">
      <stop offset="0%" style="stop-color:#E2D9F3"/>
      <stop offset="100%" style="stop-color:#C9B8E8"/>
    </linearGradient>
  </defs>
  <rect width="200" height="150" fill="url(#bg3133)" rx="16"/>
  <rect x="0" y="100" width="200" height="50" rx="0" fill="#C5DBC5"/>
  <circle cx="165" cy="35" r="22" fill="#FFE566" opacity="1"/>
  <line x1="191" y1="35" x2="200" y2="35" stroke="#FFF3B0" stroke-width="3" stroke-linecap="round"/>
  <line x1="183.38477631085024" y1="53.384776310850235" x2="189.74873734152916" y2="59.748737341529164" stroke="#FFF3B0" stroke-width="3" stroke-linecap="round"/>
  <line x1="165" y1="61" x2="165" y2="70" stroke="#FFF3B0" stroke-width="3" stroke-linecap="round"/>
  <line x1="146.61522368914976" y1="53.38477631085024" x2="140.25126265847084" y2="59.748737341529164" stroke="#FFF3B0" stroke-width="3" stroke-linecap="round"/>
  <line x1="139" y1="35" x2="130" y2="35.00000000000001" stroke="#FFF3B0" stroke-width="3" stroke-linecap="round"/>
  <line x1="146.61522368914976" y1="16.615223689149765" x2="140.25126265847084" y2="10.25126265847084" stroke="#FFF3B0" stroke-width="3" stroke-linecap="round"/>
  <line x1="165" y1="9" x2="165" y2="0" stroke="#FFF3B0" stroke-width="3" stroke-linecap="round"/>
  <line x1="183.38477631085024" y1="16.61522368914976" x2="189.74873734152916" y2="10.251262658470832" stroke="#FFF3B0" stroke-width="3" stroke-linecap="round"/>
  <rect x="90" y="55" width="14" height="50" rx="2" fill="#8B6914"/>
  <path d="M75.36853628185054,25.801307733352587 Q85.36853628185054,37.80130773335259 75.36853628185054,49.80130773335259 Q65.36853628185054,37.80130773335259 75.36853628185054,25.801307733352587Z" fill="#B7E4C7"/>
  <path d="M94.63665376211429,37.789636049681576 Q104.63665376211429,49.789636049681576 94.63665376211429,61.789636049681576 Q84.63665376211429,49.789636049681576 94.63665376211429,37.789636049681576Z" fill="#95D5B2"/>
  <path d="M104.45093389398244,34.63382175838706 Q114.45093389398244,46.63382175838706 104.45093389398244,58.63382175838706 Q94.45093389398244,46.63382175838706 104.45093389398244,34.63382175838706Z" fill="#B7E4C7"/>
  <path d="M112.71560982045412,39.6413192504433 Q122.71560982045412,51.6413192504433 112.71560982045412,63.6413192504433 Q102.71560982045412,51.6413192504433 112.71560982045412,39.6413192504433Z" fill="#95D5B2"/>
  <path d="M123.5624307162434,28.160669690660598 Q133.5624307162434,40.1606696906606 123.5624307162434,52.1606696906606 Q113.5624307162434,40.1606696906606 123.5624307162434,28.160669690660598Z" fill="#B7E4C7"/>
  <circle cx="45" cy="95" r="8" fill="#FFB3B3" opacity="1"/>
  <circle cx="155" cy="98" r="6" fill="#C9B8E8" opacity="1"/>
</svg>