<svg xmlns="http://www.w3.org/2000/svg" viewBox="0 0 200 150" width="200" height="150">
  <defs>
    <linearGradient id="bg3134" gradientTransform="rotate(45)">
      <stop offset="0%" style="stop-color:#D4E9FF"/>
      <stop offset="100%" style="stop-color:#A8D0F0"/>
    </linearGradient>
  </defs>
  <rect width="200" height="150" fill="url(#bg3134)" rx="16"/>
  <rect x="0" y="100" width="200" height="50" rx="0" fill="#C5DBC5"/>
  <circle cx="165" cy="35" r="22" fill="#FFE566" opacity="1"/>
  <line x1="191" y1="35" x2="200" y2="35" stroke="#FFF3B0" stroke-width="3" stroke-linecap="round"/>
  <line x1="183.38477631085024" y1="53.384776310850235" x2="189.74873734152916" y2="59.748737341529164" stroke="#FFF3B0" stroke-width="3" stroke-linecap="round"/>
  <line x1="165" y1="61" x2="165" y2="70" stroke="#FFF3B0" stroke-width="3" stroke-linecap="round"/>
  <line x1="146.61522368914976" y1="53.38477631085024" x2="140.25126265847084" y2="59.748737341529164" stroke="#FFF3B0" stroke-width="3" stroke-linecap="round"/>
  <line x1="139" y1="35" x2="130" y2="35.00000000000001" stroke="#FFF3B0" stroke-width="3" stroke-linecap="round"/>
  <line x1="146.61522368914976" y1="16.615223689149765" x2="140.25126265847084" y2="10.25126265847084" stroke="#FFF3B0" stroke-width="3" stroke-linecap="round"/>
  <line x1="165" y1="9" x2="165" y2="0" stroke="#FFF3B0" stroke-width="3" stroke-linecap="round"/>
  <line x1="183.38477631085024" y1="16.61522368914976" x2="189.74873734152916" y2="10.251262658470832" stroke="#FFF3B0" stroke-width="3" stroke-linecap="round"/>
  <rect x="90" y="55" width="14" height="50" rx="2" fill="#8B6914"/>
  <path d="M80.32980685433722,39.18234862864483 Q90.32980685433722,51.18234862864483 80.32980685433722,63.18234862864483 Q70.32980685433722,51.18234862864483 80.32980685433722,39.18234862864483Z" fill="#B7E4C7"/>
  <path d="M90.74504241167233,39.66915049621821 Q100.74504241167233,51.66915049621821 90.74504241167233,63.66915049621821 Q80.74504241167233,51.66915049621821 90.74504241167233,39.66915049621821Z" fill="#95D5B2"/>
  <path d="M99.50900803120749,32.419620810185734 Q109.50900803120749,44.419620810185734 99.50900803120749,56.419620810185734 Q89.50900803120749,44.419620810185734 99.50900803120749,32.419620810185734Z" fill="#B7E4C7"/>
  <path d="M113.777602687318,31.281968227420293 Q123.777602687318,43.28196822742029 113.777602687318,55.28196822742029 Q103.777602687318,43.28196822742029 113.777602687318,31.281968227420293Z" fill="#95D5B2"/>
  <path d="M126.07162473388598,42.200045432262414 Q136.07162473388598,54.200045432262414 126.07162473388598,66.20004543226241 Q116.07162473388598,54.200045432262414 126.07162473388598,42.200045432262414Z" fill="#B7E4C7"/>
  <circle cx="45" cy="95" r="8" fill="#FFB3B3" opacity="1"/>
  <circle cx="155" cy="98" r="6" fill="#C9B8E8" opacity="1"/>
</svg>