<svg xmlns="http://www.w3.org/2000/svg" viewBox="0 0 200 150" width="200" height="150">
  <defs>
    <linearGradient id="bg3136" gradientTransform="rotate(90)">
      <stop offset="0%" style="stop-color:#D0F0F0"/>
      <stop offset="100%" style="stop-color:#A0E0E0"/>
    </linearGradient>
  </defs>
  <rect width="200" height="150" fill="url(#bg3136)" rx="16"/>
  <rect x="0" y="100" width="200" height="50" rx="0" fill="#C5DBC5"/>
  <circle cx="165" cy="35" r="22" fill="#FFE566" opacity="1"/>
  <line x1="191" y1="35" x2="200" y2="35" stroke="#FFF3B0" stroke-width="3" stroke-linecap="round"/>
  <line x1="183.38477631085024" y1="53.384776310850235" x2="189.74873734152916" y2="59.748737341529164" stroke="#FFF3B0" stroke-width="3" stroke-linecap="round"/>
  <line x1="165" y1="61" x2="165" y2="70" stroke="#FFF3B0" stroke-width="3" stroke-linecap="round"/>
  <line x1="146.61522368914976" y1="53.38477631085024" x2="140.25126265847084" y2="59.748737341529164" stroke="#FFF3B0" stroke-width="3" stroke-linecap="round"/>
  <line x1="139" y1="35" x2="130" y2="35.00000000000001" stroke="#FFF3B0" stroke-width="3" stroke-linecap="round"/>
  <line x1="146.61522368914976" y1="16.615223689149765" x2="140.25126265847084" y2="10.25126265847084" stroke="#FFF3B0" stroke-width="3" stroke-linecap="round"/>
  <line x1="165" y1="9" x2="165" y2="0" stroke="#FFF3B0" stroke-width="3" stroke-linecap="round"/>
  <line x1="183.38477631085024" y1="16.61522368914976" x2="189.74873734152916" y2="10.251262658470832" stroke="#FFF3B0" stroke-width="3" stroke-linecap="round"/>
  <rect x="90" y="55" width="14" height="50" rx="2" fill="#8B6914"/>
  <path d="M80.1220120542348,25.019686130443006 Q90.1220120542348,37.019686130443006 80.1220120542348,49.019686130443006 Q70.1220120542348,37.019686130443006 80.1220120542348,25.019686130443006Z" fill="#B7E4C7"/>
  <path d="M91.58519251237158,38.00026214907848 Q101.58519251237158,50.00026214907848 91.58519251237158,62.00026214907848 Q81.58519251237158,50.00026214907848 91.58519251237158,38.00026214907848Z" fill="#95D5B2"/>
  <path d="M101.10216857346859,34.77518826094456 Q111.10216857346859,46.77518826094456 101.10216857346859,58.77518826094456 Q91.10216857346859,46.77518826094456 101.10216857346859,34.77518826094456Z" fill="#B7E4C7"/>
  <path d="M111.74476550446343,26.284904339107015 Q121.74476550446343,38.284904339107015 111.74476550446343,50.284904339107015 Q101.74476550446343,38.284904339107015 111.74476550446343,26.284904339107015Z" fill="#95D5B2"/>
  <path d="M124.02940977123944,42.65321228628454 Q134.02940977123944,54.65321228628454 124.02940977123944,66.65321228628454 Q114.02940977123944,54.65321228628454 124.02940977123944,42.65321228628454Z" fill="#B7E4C7"/>
  <circle cx="45" cy="95" r="8" fill="#FFB3B3" opacity="1"/>
  <circle cx="155" cy="98" r="6" fill="#C9B8E8" opacity="1"/>
</svg>