<svg xmlns="http://www.w3.org/2000/svg" viewBox="0 0 200 150" width="200" height="150">
  <defs>
    <linearGradient id="bg3141" gradientTransform="rotate(45)">
      <stop offset="0%" style="stop-color:#FFF5EB"/>
      <stop offset="100%" style="stop-color:#FFE4CC"/>
    </linearGradient>
  </defs>
  <rect width="200" height="150" fill="url(#bg3141)" rx="16"/>
  <rect x="0" y="100" width="200" height="50" rx="0" fill="#C5DBC5"/>
  <circle cx="165" cy="35" r="22" fill="#FFE566" opacity="1"/>
  <line x1="191" y1="35" x2="200" y2="35" stroke="#FFF3B0" stroke-width="3" stroke-linecap="round"/>
  <line x1="183.38477631085024" y1="53.384776310850235" x2="189.74873734152916" y2="59.748737341529164" stroke="#FFF3B0" stroke-width="3" stroke-linecap="round"/>
  <line x1="165" y1="61" x2="165" y2="70" stroke="#FFF3B0" stroke-width="3" stroke-linecap="round"/>
  <line x1="146.61522368914976" y1="53.38477631085024" x2="140.25126265847084" y2="59.748737341529164" stroke="#FFF3B0" stroke-width="3" stroke-linecap="round"/>
  <line x1="139" y1="35" x2="130" y2="35.00000000000001" stroke="#FFF3B0" stroke-width="3" stroke-linecap="round"/>
  <line x1="146.61522368914976" y1="16.615223689149765" x2="140.25126265847084" y2="10.25126265847084" stroke="#FFF3B0" stroke-width="3" stroke-linecap="round"/>
  <line x1="165" y1="9" x2="165" y2="0" stroke="#FFF3B0" stroke-width="3" stroke-linecap="round"/>
  <line x1="183.38477631085024" y1="16.61522368914976" x2="189.74873734152916" y2="10.251262658470832" stroke="#FFF3B0" stroke-width="3" stroke-linecap="round"/>
  <rect x="90" y="55" width="14" height="50" rx="2" fill="#8B6914"/>
  <path d="M77.40989406644076,35.50375233938939 Q87.40989406644076,47.50375233938939 77.40989406644076,59.50375233938939 Q67.40989406644076,47.50375233938939 77.40989406644076,35.50375233938939Z" fill="#B7E4C7"/>
  <path d="M93.61470536849811,38.78494874162061 Q103.61470536849811,50.78494874162061 93.61470536849811,62.78494874162061 Q83.61470536849811,50.78494874162061 93.61470536849811,38.78494874162061Z" fill="#95D5B2"/>
  <path d="M100.7693768892932,42.731208884059015 Q110.7693768892932,54.731208884059015 100.7693768892932,66.73120888405901 Q90.7693768892932,54.731208884059015 100.7693768892932,42.731208884059015Z" fill="#B7E4C7"/>
  <path d="M117.07402636431652,34.91582506373379 Q127.07402636431652,46.91582506373379 117.07402636431652,58.91582506373379 Q107.07402636431652,46.91582506373379 117.07402636431652,34.91582506373379Z" fill="#95D5B2"/>
  <path d="M126.4640559001491,35.953331920653 Q136.4640559001491,47.953331920653 126.4640559001491,59.953331920653 Q116.4640559001491,47.953331920653 126.4640559001491,35.953331920653Z" fill="#B7E4C7"/>
  <circle cx="45" cy="95" r="8" fill="#FFB3B3" opacity="1"/>
  <circle cx="155" cy="98" r="6" fill="#C9B8E8" opacity="1"/>
</svg>