<svg xmlns="http://www.w3.org/2000/svg" viewBox="0 0 200 150" width="200" height="150">
  <defs>
    <linearGradient id="bg3142" gradientTransform="rotate(0)">
      <stop offset="0%" style="stop-color:#D8F3DC"/>
      <stop offset="100%" style="stop-color:#B7E4C7"/>
    </linearGradient>
  </defs>
  <rect width="200" height="150" fill="url(#bg3142)" rx="16"/>
  <rect x="0" y="100" width="200" height="50" rx="0" fill="#C5DBC5"/>
  <circle cx="165" cy="35" r="22" fill="#FFE566" opacity="1"/>
  <line x1="191" y1="35" x2="200" y2="35" stroke="#FFF3B0" stroke-width="3" stroke-linecap="round"/>
  <line x1="183.38477631085024" y1="53.384776310850235" x2="189.74873734152916" y2="59.748737341529164" stroke="#FFF3B0" stroke-width="3" stroke-linecap="round"/>
  <line x1="165" y1="61" x2="165" y2="70" stroke="#FFF3B0" stroke-width="3" stroke-linecap="round"/>
  <line x1="146.61522368914976" y1="53.38477631085024" x2="140.25126265847084" y2="59.748737341529164" stroke="#FFF3B0" stroke-width="3" stroke-linecap="round"/>
  <line x1="139" y1="35" x2="130" y2="35.00000000000001" stroke="#FFF3B0" stroke-width="3" stroke-linecap="round"/>
  <line x1="146.61522368914976" y1="16.615223689149765" x2="140.25126265847084" y2="10.25126265847084" stroke="#FFF3B0" stroke-width="3" stroke-linecap="round"/>
  <line x1="165" y1="9" x2="165" y2="0" stroke="#FFF3B0" stroke-width="3" stroke-linecap="round"/>
  <line x1="183.38477631085024" y1="16.61522368914976" x2="189.74873734152916" y2="10.251262658470832" stroke="#FFF3B0" stroke-width="3" stroke-linecap="round"/>
  <rect x="90" y="55" width="14" height="50" rx="2" fill="#8B6914"/>
  <path d="M79.21486671399907,41.38549872536532 Q89.21486671399907,53.38549872536532 79.21486671399907,65.38549872536532 Q69.21486671399907,53.38549872536532 79.21486671399907,41.38549872536532Z" fill="#B7E4C7"/>
  <path d="M91.51676823204616,33.70935585437837 Q101.51676823204616,45.70935585437837 91.51676823204616,57.70935585437837 Q81.51676823204616,45.70935585437837 91.51676823204616,33.70935585437837Z" fill="#95D5B2"/>
  <path d="M103.70956350839697,25.53665990603622 Q113.70956350839697,37.53665990603622 103.70956350839697,49.53665990603622 Q93.70956350839697,37.53665990603622 103.70956350839697,25.53665990603622Z" fill="#B7E4C7"/>
  <path d="M118.82865183058311,32.200507690802624 Q128.8286518305831,44.200507690802624 118.82865183058311,56.200507690802624 Q108.82865183058311,44.200507690802624 118.82865183058311,32.200507690802624Z" fill="#95D5B2"/>
  <path d="M123.48721145209493,35.0052909957667 Q133.48721145209493,47.0052909957667 123.48721145209493,59.0052909957667 Q113.48721145209493,47.0052909957667 123.48721145209493,35.0052909957667Z" fill="#B7E4C7"/>
  <circle cx="45" cy="95" r="8" fill="#FFB3B3" opacity="1"/>
  <circle cx="155" cy="98" r="6" fill="#C9B8E8" opacity="1"/>
</svg>