<svg xmlns="http://www.w3.org/2000/svg" viewBox="0 0 200 150" width="200" height="150">
  <defs>
    <linearGradient id="bg3145" gradientTransform="rotate(135)">
      <stop offset="0%" style="stop-color:#D4E9FF"/>
      <stop offset="100%" style="stop-color:#A8D0F0"/>
    </linearGradient>
  </defs>
  <rect width="200" height="150" fill="url(#bg3145)" rx="16"/>
  <rect x="0" y="100" width="200" height="50" rx="0" fill="#C5DBC5"/>
  <circle cx="165" cy="35" r="22" fill="#FFE566" opacity="1"/>
  <line x1="191" y1="35" x2="200" y2="35" stroke="#FFF3B0" stroke-width="3" stroke-linecap="round"/>
  <line x1="183.38477631085024" y1="53.384776310850235" x2="189.74873734152916" y2="59.748737341529164" stroke="#FFF3B0" stroke-width="3" stroke-linecap="round"/>
  <line x1="165" y1="61" x2="165" y2="70" stroke="#FFF3B0" stroke-width="3" stroke-linecap="round"/>
  <line x1="146.61522368914976" y1="53.38477631085024" x2="140.25126265847084" y2="59.748737341529164" stroke="#FFF3B0" stroke-width="3" stroke-linecap="round"/>
  <line x1="139" y1="35" x2="130" y2="35.00000000000001" stroke="#FFF3B0" stroke-width="3" stroke-linecap="round"/>
  <line x1="146.61522368914976" y1="16.615223689149765" x2="140.25126265847084" y2="10.25126265847084" stroke="#FFF3B0" stroke-width="3" stroke-linecap="round"/>
  <line x1="165" y1="9" x2="165" y2="0" stroke="#FFF3B0" stroke-width="3" stroke-linecap="round"/>
  <line x1="183.38477631085024" y1="16.61522368914976" x2="189.74873734152916" y2="10.251262658470832" stroke="#FFF3B0" stroke-width="3" stroke-linecap="round"/>
  <rect x="90" y="55" width="14" height="50" rx="2" fill="#8B6914"/>
  <path d="M77.96313392122829,41.36553295415797 Q87.96313392122829,53.36553295415797 77.96313392122829,65.36553295415797 Q67.96313392122829,53.36553295415797 77.96313392122829,41.36553295415797Z" fill="#B7E4C7"/>
  <path d="M89.58333189213045,34.02281136253623 Q99.58333189213045,46.02281136253623 89.58333189213045,58.02281136253623 Q79.58333189213045,46.02281136253623 89.58333189213045,34.02281136253623Z" fill="#95D5B2"/>
  <path d="M102.87022016997798,28.974098094120563 Q112.87022016997798,40.97409809412056 102.87022016997798,52.97409809412056 Q92.87022016997798,40.97409809412056 102.87022016997798,28.974098094120563Z" fill="#B7E4C7"/>
  <path d="M118.51559673750307,28.92966862310277 Q128.51559673750307,40.92966862310277 118.51559673750307,52.92966862310277 Q108.51559673750307,40.92966862310277 118.51559673750307,28.92966862310277Z" fill="#95D5B2"/>
  <path d="M126.83631715129377,27.288323222417603 Q136.83631715129377,39.2883232224176 126.83631715129377,51.2883232224176 Q116.83631715129377,39.2883232224176 126.83631715129377,27.288323222417603Z" fill="#B7E4C7"/>
  <circle cx="45" cy="95" r="8" fill="#FFB3B3" opacity="1"/>
  <circle cx="155" cy="98" r="6" fill="#C9B8E8" opacity="1"/>
</svg>