<svg xmlns="http://www.w3.org/2000/svg" viewBox="0 0 200 150" width="200" height="150">
  <defs>
    <linearGradient id="bg3146" gradientTransform="rotate(45)">
      <stop offset="0%" style="stop-color:#FFD6D6"/>
      <stop offset="100%" style="stop-color:#FFB3B3"/>
    </linearGradient>
  </defs>
  <rect width="200" height="150" fill="url(#bg3146)" rx="16"/>
  <rect x="0" y="100" width="200" height="50" rx="0" fill="#C5DBC5"/>
  <circle cx="165" cy="35" r="22" fill="#FFE566" opacity="1"/>
  <line x1="191" y1="35" x2="200" y2="35" stroke="#FFF3B0" stroke-width="3" stroke-linecap="round"/>
  <line x1="183.38477631085024" y1="53.384776310850235" x2="189.74873734152916" y2="59.748737341529164" stroke="#FFF3B0" stroke-width="3" stroke-linecap="round"/>
  <line x1="165" y1="61" x2="165" y2="70" stroke="#FFF3B0" stroke-width="3" stroke-linecap="round"/>
  <line x1="146.61522368914976" y1="53.38477631085024" x2="140.25126265847084" y2="59.748737341529164" stroke="#FFF3B0" stroke-width="3" stroke-linecap="round"/>
  <line x1="139" y1="35" x2="130" y2="35.00000000000001" stroke="#FFF3B0" stroke-width="3" stroke-linecap="round"/>
  <line x1="146.61522368914976" y1="16.615223689149765" x2="140.25126265847084" y2="10.25126265847084" stroke="#FFF3B0" stroke-width="3" stroke-linecap="round"/>
  <line x1="165" y1="9" x2="165" y2="0" stroke="#FFF3B0" stroke-width="3" stroke-linecap="round"/>
  <line x1="183.38477631085024" y1="16.61522368914976" x2="189.74873734152916" y2="10.251262658470832" stroke="#FFF3B0" stroke-width="3" stroke-linecap="round"/>
  <rect x="90" y="55" width="14" height="50" rx="2" fill="#8B6914"/>
  <path d="M75.32799737768073,33.682020859512704 Q85.32799737768073,45.682020859512704 75.32799737768073,57.682020859512704 Q65.32799737768073,45.682020859512704 75.32799737768073,33.682020859512704Z" fill="#B7E4C7"/>
  <path d="M87.74350852466887,36.98711530910077 Q97.74350852466887,48.98711530910077 87.74350852466887,60.98711530910077 Q77.74350852466887,48.98711530910077 87.74350852466887,36.98711530910077Z" fill="#95D5B2"/>
  <path d="M104.30204402677919,31.863583930578898 Q114.30204402677919,43.8635839305789 104.30204402677919,55.8635839305789 Q94.30204402677919,43.8635839305789 104.30204402677919,31.863583930578898Z" fill="#B7E4C7"/>
  <path d="M118.7575862203812,32.42792861189446 Q128.7575862203812,44.42792861189446 118.7575862203812,56.42792861189446 Q108.7575862203812,44.42792861189446 118.7575862203812,32.42792861189446Z" fill="#95D5B2"/>
  <path d="M128.0777909078024,31.91642113949274 Q138.0777909078024,43.91642113949274 128.0777909078024,55.91642113949274 Q118.07779090780241,43.91642113949274 128.0777909078024,31.91642113949274Z" fill="#B7E4C7"/>
  <circle cx="45" cy="95" r="8" fill="#FFB3B3" opacity="1"/>
  <circle cx="155" cy="98" r="6" fill="#C9B8E8" opacity="1"/>
</svg>