<svg xmlns="http://www.w3.org/2000/svg" viewBox="0 0 200 150" width="200" height="150">
  <defs>
    <linearGradient id="bg3153" gradientTransform="rotate(45)">
      <stop offset="0%" style="stop-color:#D8F3DC"/>
      <stop offset="100%" style="stop-color:#B7E4C7"/>
    </linearGradient>
  </defs>
  <rect width="200" height="150" fill="url(#bg3153)" rx="16"/>
  <rect x="0" y="100" width="200" height="50" rx="0" fill="#C5DBC5"/>
  <circle cx="165" cy="35" r="22" fill="#FFE566" opacity="1"/>
  <line x1="191" y1="35" x2="200" y2="35" stroke="#FFF3B0" stroke-width="3" stroke-linecap="round"/>
  <line x1="183.38477631085024" y1="53.384776310850235" x2="189.74873734152916" y2="59.748737341529164" stroke="#FFF3B0" stroke-width="3" stroke-linecap="round"/>
  <line x1="165" y1="61" x2="165" y2="70" stroke="#FFF3B0" stroke-width="3" stroke-linecap="round"/>
  <line x1="146.61522368914976" y1="53.38477631085024" x2="140.25126265847084" y2="59.748737341529164" stroke="#FFF3B0" stroke-width="3" stroke-linecap="round"/>
  <line x1="139" y1="35" x2="130" y2="35.00000000000001" stroke="#FFF3B0" stroke-width="3" stroke-linecap="round"/>
  <line x1="146.61522368914976" y1="16.615223689149765" x2="140.25126265847084" y2="10.25126265847084" stroke="#FFF3B0" stroke-width="3" stroke-linecap="round"/>
  <line x1="165" y1="9" x2="165" y2="0" stroke="#FFF3B0" stroke-width="3" stroke-linecap="round"/>
  <line x1="183.38477631085024" y1="16.61522368914976" x2="189.74873734152916" y2="10.251262658470832" stroke="#FFF3B0" stroke-width="3" stroke-linecap="round"/>
  <rect x="90" y="55" width="14" height="50" rx="2" fill="#8B6914"/>
  <path d="M82.23967871266723,42.845510415434546 Q92.23967871266723,54.845510415434546 82.23967871266723,66.84551041543455 Q72.23967871266723,54.845510415434546 82.23967871266723,42.845510415434546Z" fill="#B7E4C7"/>
  <path d="M92.55432859116263,28.952258042998437 Q102.55432859116263,40.95225804299844 92.55432859116263,52.95225804299844 Q82.55432859116263,40.95225804299844 92.55432859116263,28.952258042998437Z" fill="#95D5B2"/>
  <path d="M100.60967065906152,36.00172633807961 Q110.60967065906152,48.00172633807961 100.60967065906152,60.00172633807961 Q90.60967065906152,48.00172633807961 100.60967065906152,36.00172633807961Z" fill="#B7E4C7"/>
  <path d="M111.5042577720451,28.191921479472512 Q121.5042577720451,40.19192147947251 111.5042577720451,52.19192147947251 Q101.5042577720451,40.19192147947251 111.5042577720451,28.191921479472512Z" fill="#95D5B2"/>
  <path d="M126.14399434623192,36.86874414944032 Q136.14399434623192,48.86874414944032 126.14399434623192,60.86874414944032 Q116.14399434623192,48.86874414944032 126.14399434623192,36.86874414944032Z" fill="#B7E4C7"/>
  <circle cx="45" cy="95" r="8" fill="#FFB3B3" opacity="1"/>
  <circle cx="155" cy="98" r="6" fill="#C9B8E8" opacity="1"/>
</svg>