<svg xmlns="http://www.w3.org/2000/svg" viewBox="0 0 200 150" width="200" height="150">
  <defs>
    <linearGradient id="bg3154" gradientTransform="rotate(135)">
      <stop offset="0%" style="stop-color:#FFE5D9"/>
      <stop offset="100%" style="stop-color:#FFCDB2"/>
    </linearGradient>
  </defs>
  <rect width="200" height="150" fill="url(#bg3154)" rx="16"/>
  <rect x="0" y="100" width="200" height="50" rx="0" fill="#C5DBC5"/>
  <circle cx="165" cy="35" r="22" fill="#FFE566" opacity="1"/>
  <line x1="191" y1="35" x2="200" y2="35" stroke="#FFF3B0" stroke-width="3" stroke-linecap="round"/>
  <line x1="183.38477631085024" y1="53.384776310850235" x2="189.74873734152916" y2="59.748737341529164" stroke="#FFF3B0" stroke-width="3" stroke-linecap="round"/>
  <line x1="165" y1="61" x2="165" y2="70" stroke="#FFF3B0" stroke-width="3" stroke-linecap="round"/>
  <line x1="146.61522368914976" y1="53.38477631085024" x2="140.25126265847084" y2="59.748737341529164" stroke="#FFF3B0" stroke-width="3" stroke-linecap="round"/>
  <line x1="139" y1="35" x2="130" y2="35.00000000000001" stroke="#FFF3B0" stroke-width="3" stroke-linecap="round"/>
  <line x1="146.61522368914976" y1="16.615223689149765" x2="140.25126265847084" y2="10.25126265847084" stroke="#FFF3B0" stroke-width="3" stroke-linecap="round"/>
  <line x1="165" y1="9" x2="165" y2="0" stroke="#FFF3B0" stroke-width="3" stroke-linecap="round"/>
  <line x1="183.38477631085024" y1="16.61522368914976" x2="189.74873734152916" y2="10.251262658470832" stroke="#FFF3B0" stroke-width="3" stroke-linecap="round"/>
  <rect x="90" y="55" width="14" height="50" rx="2" fill="#8B6914"/>
  <path d="M82.14143350950326,40.456772329187515 Q92.14143350950326,52.456772329187515 82.14143350950326,64.45677232918752 Q72.14143350950326,52.456772329187515 82.14143350950326,40.456772329187515Z" fill="#B7E4C7"/>
  <path d="M94.11829147380195,25.980910163423687 Q104.11829147380195,37.98091016342369 94.11829147380195,49.98091016342369 Q84.11829147380195,37.98091016342369 94.11829147380195,25.980910163423687Z" fill="#95D5B2"/>
  <path d="M102.49870863493197,30.760210953456408 Q112.49870863493197,42.76021095345641 102.49870863493197,54.76021095345641 Q92.49870863493197,42.76021095345641 102.49870863493197,30.760210953456408Z" fill="#B7E4C7"/>
  <path d="M115.52143149312906,33.799395310968976 Q125.52143149312906,45.799395310968976 115.52143149312906,57.799395310968976 Q105.52143149312906,45.799395310968976 115.52143149312906,33.799395310968976Z" fill="#95D5B2"/>
  <path d="M126.5676596817575,33.6402769745182 Q136.5676596817575,45.6402769745182 126.5676596817575,57.6402769745182 Q116.5676596817575,45.6402769745182 126.5676596817575,33.6402769745182Z" fill="#B7E4C7"/>
  <circle cx="45" cy="95" r="8" fill="#FFB3B3" opacity="1"/>
  <circle cx="155" cy="98" r="6" fill="#C9B8E8" opacity="1"/>
</svg>