<svg xmlns="http://www.w3.org/2000/svg" viewBox="0 0 200 150" width="200" height="150">
  <defs>
    <linearGradient id="bg354" gradientTransform="rotate(90)">
      <stop offset="0%" style="stop-color:#FFE4EC"/>
      <stop offset="100%" style="stop-color:#FFC8DD"/>
    </linearGradient>
  </defs>
  <rect width="200" height="150" fill="url(#bg354)" rx="16"/>
  <circle cx="126.84954786218441" cy="8.286824119477387" r="2.083595978205267" fill="#FFE4EC" opacity="0.3"/><circle cx="27.027720179557946" cy="79.92452300045443" r="3.6894740786538023" fill="#FFE4EC" opacity="0.3"/><circle cx="26.668842626168043" cy="114.10313183773724" r="4.21644769086015" fill="#FFE4EC" opacity="0.3"/><circle cx="181.7660975687886" cy="103.29571144648071" r="2.6610517403432823" fill="#FFE4EC" opacity="0.3"/><circle cx="65.29459485677762" cy="102.96690374595983" r="4.9212548692175915" fill="#FFE4EC" opacity="0.3"/><circle cx="128.5222647489718" cy="2.1685775777768868" r="4.934450425847899" fill="#FFE4EC" opacity="0.3"/>
  <circle cx="100" cy="75" r="48" fill="#FFE5D9" opacity="1"/>
  <circle cx="80" cy="68" r="8" fill="#333" opacity="1"/>
  <circle cx="120" cy="68" r="8" fill="#333" opacity="1"/>
  <circle cx="78" cy="65" r="3" fill="white" opacity="1"/>
  <circle cx="118" cy="65" r="3" fill="white" opacity="1"/>
  <path d="M72 92 Q100 115 128 92" stroke="#333" stroke-width="4" fill="none" stroke-linecap="round"/>
  <ellipse cx="60" cy="82" rx="12" ry="7" fill="#FFB3B3" opacity="0.4"/>
  <ellipse cx="140" cy="82" rx="12" ry="7" fill="#FFB3B3" opacity="0.4"/>
  <path d="M45,42.25 C39,37 42,34 45,37.75 C48,34 51,37 45,42.25Z" fill="#FFB3B3"/>
  <path d="M160,46.8 C155.2,42.6 157.6,40.2 160,43.2 C162.4,40.2 164.8,42.6 160,46.8Z" fill="#FFD6D6"/>
</svg>