<svg xmlns="http://www.w3.org/2000/svg" viewBox="0 0 200 150" width="200" height="150">
  <defs>
    <linearGradient id="bg357" gradientTransform="rotate(180)">
      <stop offset="0%" style="stop-color:#E0F4FF"/>
      <stop offset="100%" style="stop-color:#BAE6FD"/>
    </linearGradient>
  </defs>
  <rect width="200" height="150" fill="url(#bg357)" rx="16"/>
  <circle cx="115.56804539459336" cy="133.65145154707534" r="2.621596844267515" fill="#E0F4FF" opacity="0.3"/><circle cx="136.9618153063925" cy="139.73220462826248" r="2.7102396887394207" fill="#E0F4FF" opacity="0.3"/><circle cx="29.640896868932032" cy="91.15897842812046" r="3.183250121513993" fill="#E0F4FF" opacity="0.3"/><circle cx="128.77177803675295" cy="30.728625090705464" r="3.72364584049501" fill="#E0F4FF" opacity="0.3"/><circle cx="35.9742789187294" cy="60.51648985376232" r="4.5795038432788715" fill="#E0F4FF" opacity="0.3"/><circle cx="146.77696435355756" cy="114.06793722699149" r="2.924965827982305" fill="#E0F4FF" opacity="0.3"/>
  <circle cx="100" cy="75" r="48" fill="#FFE5D9" opacity="1"/>
  <circle cx="80" cy="68" r="8" fill="#333" opacity="1"/>
  <circle cx="120" cy="68" r="8" fill="#333" opacity="1"/>
  <circle cx="78" cy="65" r="3" fill="white" opacity="1"/>
  <circle cx="118" cy="65" r="3" fill="white" opacity="1"/>
  <path d="M72 92 Q100 115 128 92" stroke="#333" stroke-width="4" fill="none" stroke-linecap="round"/>
  <ellipse cx="60" cy="82" rx="12" ry="7" fill="#FFB3B3" opacity="0.4"/>
  <ellipse cx="140" cy="82" rx="12" ry="7" fill="#FFB3B3" opacity="0.4"/>
  <path d="M45,42.25 C39,37 42,34 45,37.75 C48,34 51,37 45,42.25Z" fill="#FFB3B3"/>
  <path d="M160,46.8 C155.2,42.6 157.6,40.2 160,43.2 C162.4,40.2 164.8,42.6 160,46.8Z" fill="#FFD6D6"/>
</svg>