<svg xmlns="http://www.w3.org/2000/svg" viewBox="0 0 200 150" width="200" height="150">
  <defs>
    <linearGradient id="bg4033" gradientTransform="rotate(0)">
      <stop offset="0%" style="stop-color:#FFD6D6"/>
      <stop offset="100%" style="stop-color:#FFB3B3"/>
    </linearGradient>
  </defs>
  <rect width="200" height="150" fill="url(#bg4033)" rx="16"/>
  <rect x="0" y="100" width="200" height="50" rx="0" fill="#C5DBC5"/>
  <circle cx="165" cy="35" r="22" fill="#FFE566" opacity="1"/>
  <line x1="191" y1="35" x2="200" y2="35" stroke="#FFF3B0" stroke-width="3" stroke-linecap="round"/>
  <line x1="183.38477631085024" y1="53.384776310850235" x2="189.74873734152916" y2="59.748737341529164" stroke="#FFF3B0" stroke-width="3" stroke-linecap="round"/>
  <line x1="165" y1="61" x2="165" y2="70" stroke="#FFF3B0" stroke-width="3" stroke-linecap="round"/>
  <line x1="146.61522368914976" y1="53.38477631085024" x2="140.25126265847084" y2="59.748737341529164" stroke="#FFF3B0" stroke-width="3" stroke-linecap="round"/>
  <line x1="139" y1="35" x2="130" y2="35.00000000000001" stroke="#FFF3B0" stroke-width="3" stroke-linecap="round"/>
  <line x1="146.61522368914976" y1="16.615223689149765" x2="140.25126265847084" y2="10.25126265847084" stroke="#FFF3B0" stroke-width="3" stroke-linecap="round"/>
  <line x1="165" y1="9" x2="165" y2="0" stroke="#FFF3B0" stroke-width="3" stroke-linecap="round"/>
  <line x1="183.38477631085024" y1="16.61522368914976" x2="189.74873734152916" y2="10.251262658470832" stroke="#FFF3B0" stroke-width="3" stroke-linecap="round"/>
  <rect x="90" y="55" width="14" height="50" rx="2" fill="#8B6914"/>
  <path d="M78.73647264059798,35.944648809734645 Q88.73647264059798,47.944648809734645 78.73647264059798,59.944648809734645 Q68.73647264059798,47.944648809734645 78.73647264059798,35.944648809734645Z" fill="#B7E4C7"/>
  <path d="M91.940337538108,39.949762009498954 Q101.940337538108,51.949762009498954 91.940337538108,63.949762009498954 Q81.940337538108,51.949762009498954 91.940337538108,39.949762009498954Z" fill="#95D5B2"/>
  <path d="M99.35378238005796,26.493464223538467 Q109.35378238005796,38.49346422353847 99.35378238005796,50.49346422353847 Q89.35378238005796,38.49346422353847 99.35378238005796,26.493464223538467Z" fill="#B7E4C7"/>
  <path d="M114.64585167485347,33.65971793355857 Q124.64585167485347,45.65971793355857 114.64585167485347,57.65971793355857 Q104.64585167485347,45.65971793355857 114.64585167485347,33.65971793355857Z" fill="#95D5B2"/>
  <path d="M129.9231837684929,25.454057619361265 Q139.9231837684929,37.454057619361265 129.9231837684929,49.454057619361265 Q119.92318376849289,37.454057619361265 129.9231837684929,25.454057619361265Z" fill="#B7E4C7"/>
  <circle cx="45" cy="95" r="8" fill="#FFB3B3" opacity="1"/>
  <circle cx="155" cy="98" r="6" fill="#C9B8E8" opacity="1"/>
</svg>