<svg xmlns="http://www.w3.org/2000/svg" viewBox="0 0 200 150" width="200" height="150">
  <defs>
    <linearGradient id="bg4063" gradientTransform="rotate(135)">
      <stop offset="0%" style="stop-color:#FFF5EB"/>
      <stop offset="100%" style="stop-color:#FFE4CC"/>
    </linearGradient>
  </defs>
  <rect width="200" height="150" fill="url(#bg4063)" rx="16"/>
  <rect x="0" y="0" width="200" height="150" rx="0" fill="#1a1a3e"/>
  <polygon points="163.74924663599813,26.47342148273583 164.53711613308334,28.06981944954283 166.29884588596445,28.325813767206927 165.0240462609813,29.56843628792898 165.32498563016856,31.32304744397923 163.74924663599813,30.49463243016453 162.1735076418277,31.32304744397923 162.47444701101497,29.56843628792898 161.1996473860318,28.325813767206927 162.96137713891292,28.06981944954283" fill="#FFF3B0"/>
  <polygon points="87.89947098303855,46.175786441535365 89.23893873709885,48.889844552804156 92.23407968884662,49.3250640085672 90.06677533594258,51.437663624536704 90.57840649115913,54.420702152032284 87.89947098303855,53.01230240805262 85.22053547491798,54.420702152032284 85.73216663013453,51.437663624536704 83.56486227723049,49.325064008567196 86.56000322897826,48.889844552804156" fill="#FFF3B0"/>
  <polygon points="101.22512197487822,33.919176825971135 102.0489085979555,35.588350838962725 103.89095148611132,35.85601533829373 102.55803673049478,37.15528611079159 102.8726952210328,38.989885881951466 101.22512197487822,38.12370536695289 99.57754872872364,38.989885881951466 99.89220721926166,37.15528611079159 98.55929246364512,35.85601533829373 100.40133535180094,35.588350838962725" fill="#FFF3B0"/>
  <polygon points="182.35973536216989,42.04971562493756 183.77429797752558,44.915932544655135 186.93735614389075,45.375551799938926 184.64854575303033,47.6065905307382 185.18886059288124,50.756867772105075 182.35973536216989,49.26950861823889 179.53061013145853,50.756867772105075 180.07092497130944,47.60659053073821 177.78211458044902,45.375551799938926 180.9451727468142,44.915932544655135" fill="#FFF3B0"/>
  <polygon points="124.04601656957766,40.27691693111967 124.67381831557759,41.548982209163796 126.07762569602652,41.75296736176858 125.06182113280208,42.74313209211323 125.30162006157754,44.14126712766745 124.04601656957766,43.481157307437684 122.79041307757778,44.14126712766745 123.03021200635324,42.74313209211323 122.0144074431288,41.75296736176858 123.41821482357773,41.548982209163796" fill="#FFF3B0"/>
  <polygon points="70.5169006050346,39.60547708229387 71.14597303662622,40.88011705056588 72.55262175643614,41.084515073947124 71.53476118073537,42.076683921139555 71.77504546821783,43.47764881509446 70.5169006050346,42.816202916966176 69.25875574185139,43.47764881509446 69.49904002933384,42.076683921139555 68.48117945363308,41.084515073947124 69.887828173443,40.88011705056588" fill="#FFF3B0"/>
  <polygon points="90.95866979241691,22.530640106600003 92.20766097522919,25.061372660884608 95.0004901632953,25.46719449660155 92.9795799778561,27.437095067302216 93.45665215804146,30.218639309436767 90.95866979241691,28.90537226230299 88.46068742679236,30.218639309436767 88.93775960697772,27.437095067302216 86.91684942153853,25.46719449660155 89.70967860960464,25.061372660884608" fill="#FFF3B0"/>
  <polygon points="169.71391514810563,7.960422885740627 170.90770296969913,10.379301212977987 173.57709368949358,10.767186389336688 171.6455044187996,12.650020586578568 172.10149079129263,15.308625136537854 169.71391514810563,14.0534023383766 167.32633950491862,15.308625136537854 167.78232587741167,12.650020586578568 165.85073660671767,10.767186389336688 168.52012732651212,10.379301212977987" fill="#FFF3B0"/>
  <polygon points="177.02425704734196,29.59046657597719 177.84676875168705,31.25705732146136 179.68596083489192,31.524307574585183 178.35510894111695,32.82156755375425 178.66928045603217,34.65332803917096 177.02425704734196,33.788488053058245 175.37923363865175,34.65332803917096 175.69340515356697,32.82156755375425 174.362553259792,31.524307574585183 176.20174534299687,31.25705732146136" fill="#FFF3B0"/>
  <polygon points="64.58722529820079,48.883485115837175 65.58060463697312,50.89629150388893 67.80186836591186,51.219060016886885 66.19454683205633,52.78581129047373 66.57398397574546,54.99809959005648 64.58722529820079,53.953598740998586 62.60046662065612,54.99809959005648 62.97990376434526,52.78581129047373 61.372582230489726,51.219060016886885 63.59384595942846,50.89629150388893" fill="#FFF3B0"/>
  <path d="M155 25 A22 22 0 1 1 175 50 A18 18 0 1 0 155 25" fill="#FFE566"/>
  <rect x="35" y="75" width="130" height="50" rx="8" fill="#C9B8E8"/>
  <rect x="45" y="65" width="90" height="20" rx="8" fill="white"/>
  <rect x="40" y="90" width="120" height="30" rx="6" fill="#FFE4CC"/>
  <text x="170" y="75" fill="#E2D9F3" font-size="16" font-weight="bold">z</text>
  <text x="178" y="65" fill="#E2D9F3" font-size="13" font-weight="bold">z</text>
</svg>