<svg xmlns="http://www.w3.org/2000/svg" viewBox="0 0 200 150" width="200" height="150">
  <defs>
    <linearGradient id="bg4181" gradientTransform="rotate(0)">
      <stop offset="0%" style="stop-color:#E0F4FF"/>
      <stop offset="100%" style="stop-color:#BAE6FD"/>
    </linearGradient>
  </defs>
  <rect width="200" height="150" fill="url(#bg4181)" rx="16"/>
  <circle cx="119.78394939767895" cy="39.01031537859126" r="9.35523391942752" fill="#FFB3B3" opacity="0.4"/>
  <circle cx="131.4916131587961" cy="35.41788631669647" r="12.016434316265077" fill="#A8D0F0" opacity="0.4"/>
  <circle cx="132.18773900385713" cy="50.50425555403308" r="11.736554270576107" fill="#FFE566" opacity="0.4"/>
  <circle cx="25.325518288154854" cy="51.22185590660138" r="5.131703284405376" fill="#FFB3B3" opacity="0.4"/>
  <circle cx="105.81121537572471" cy="24.25675645952225" r="14.000957098905928" fill="#A8D0F0" opacity="0.4"/>
  <circle cx="62.17244762199698" cy="50.02215867758423" r="5.202979257028346" fill="#FFE566" opacity="0.4"/>
  <rect x="48.510400998420664" y="77.58037372837862" width="35" height="37.41962627162138" rx="4" fill="#FFB3B3"/>
  <ellipse cx="66.01040099842066" cy="69.58037372837862" rx="10" ry="8" fill="#FFB3B3" opacity="1"/>
  <rect x="98.17005031818553" y="77.52266572287772" width="35" height="37.47733427712228" rx="4" fill="#A8D0F0"/>
  <ellipse cx="115.67005031818553" cy="69.52266572287772" rx="10" ry="8" fill="#A8D0F0" opacity="1"/>
  <rect x="158.70983849286858" y="70.13681996851665" width="35" height="44.86318003148335" rx="4" fill="#FFE566"/>
  <ellipse cx="176.20983849286858" cy="62.13681996851665" rx="10" ry="8" fill="#FFE566" opacity="1"/>
  <rect x="165" y="50" width="8" height="40" rx="2" fill="#8B4513"/>
  <rect x="163" y="85" width="12" height="20" rx="3" fill="#BAE6FD"/>
</svg>