<svg xmlns="http://www.w3.org/2000/svg" viewBox="0 0 200 150" width="200" height="150">
  <defs>
    <linearGradient id="bg4232" gradientTransform="rotate(180)">
      <stop offset="0%" style="stop-color:#FFF5EB"/>
      <stop offset="100%" style="stop-color:#FFE4CC"/>
    </linearGradient>
  </defs>
  <rect width="200" height="150" fill="url(#bg4232)" rx="16"/>
  <circle cx="7.967553431080887" cy="131.9536165579393" r="4.280341826715812" fill="#FFF5EB" opacity="0.3"/><circle cx="163.57353401981527" cy="78.36581460928755" r="2.3743835374280025" fill="#FFF5EB" opacity="0.3"/><circle cx="5.233584216693998" cy="87.30680397229662" r="2.845711214601579" fill="#FFF5EB" opacity="0.3"/><circle cx="26.137833822576795" cy="148.37160768138347" r="4.967452585996853" fill="#FFF5EB" opacity="0.3"/><circle cx="137.9436312676262" cy="144.84609142466525" r="2.0917857185631874" fill="#FFF5EB" opacity="0.3"/><circle cx="90.41616574345426" cy="88.60164532994759" r="4.315749496076023" fill="#FFF5EB" opacity="0.3"/>
  <circle cx="100" cy="75" r="48" fill="#FFE5D9" opacity="1"/>
  <circle cx="80" cy="68" r="8" fill="#333" opacity="1"/>
  <circle cx="120" cy="68" r="8" fill="#333" opacity="1"/>
  <circle cx="78" cy="65" r="3" fill="white" opacity="1"/>
  <circle cx="118" cy="65" r="3" fill="white" opacity="1"/>
  <path d="M72 92 Q100 115 128 92" stroke="#333" stroke-width="4" fill="none" stroke-linecap="round"/>
  <ellipse cx="60" cy="82" rx="12" ry="7" fill="#FFB3B3" opacity="0.4"/>
  <ellipse cx="140" cy="82" rx="12" ry="7" fill="#FFB3B3" opacity="0.4"/>
  <path d="M45,42.25 C39,37 42,34 45,37.75 C48,34 51,37 45,42.25Z" fill="#FFB3B3"/>
  <path d="M160,46.8 C155.2,42.6 157.6,40.2 160,43.2 C162.4,40.2 164.8,42.6 160,46.8Z" fill="#FFD6D6"/>
</svg>