<svg xmlns="http://www.w3.org/2000/svg" viewBox="0 0 200 150" width="200" height="150">
  <defs>
    <linearGradient id="bg4325" gradientTransform="rotate(90)">
      <stop offset="0%" style="stop-color:#D0F0F0"/>
      <stop offset="100%" style="stop-color:#A0E0E0"/>
    </linearGradient>
  </defs>
  <rect width="200" height="150" fill="url(#bg4325)" rx="16"/>
  <circle cx="170.64281259899872" cy="87.34884615523697" r="2.4119883078883504" fill="#D0F0F0" opacity="0.3"/><circle cx="46.0133721557213" cy="7.912710817117841" r="3.350355787546505" fill="#D0F0F0" opacity="0.3"/><circle cx="55.243488066480495" cy="3.578163480915464" r="2.7652659090756515" fill="#D0F0F0" opacity="0.3"/><circle cx="71.05755462034722" cy="2.738672294162825" r="3.2674336726145157" fill="#D0F0F0" opacity="0.3"/><circle cx="187.06741676396632" cy="71.70937979699374" r="2.372471466735078" fill="#D0F0F0" opacity="0.3"/><circle cx="137.6690000515282" cy="147.39031652391077" r="2.651337673885564" fill="#D0F0F0" opacity="0.3"/>
  <ellipse cx="100" cy="95" rx="32" ry="28" fill="#A0E0E0" opacity="1"/>
  <circle cx="100" cy="58" r="28" fill="#A0E0E0" opacity="1"/>
  <ellipse cx="82" cy="25" rx="10" ry="24" fill="#A0E0E0" opacity="1"/>
  <ellipse cx="118" cy="25" rx="10" ry="24" fill="#A0E0E0" opacity="1"/>
  <ellipse cx="82" cy="27" rx="5" ry="15" fill="#FFD6D6" opacity="1"/>
  <ellipse cx="118" cy="27" rx="5" ry="15" fill="#FFD6D6" opacity="1"/>
  <circle cx="88" cy="52" r="5" fill="#333" opacity="1"/>
  <circle cx="112" cy="52" r="5" fill="#333" opacity="1"/>
  <circle cx="86" cy="50" r="2" fill="white" opacity="1"/>
  <circle cx="110" cy="50" r="2" fill="white" opacity="1"/>
  <ellipse cx="100" cy="68" rx="6" ry="4" fill="#FFB3B3" opacity="1"/>
  <path d="M50,46.8 C45.2,42.6 47.6,40.2 50,43.2 C52.4,40.2 54.8,42.6 50,46.8Z" fill="#FFB3B3"/>
  <path d="M155,51.5 C151,48 153,46 155,48.5 C157,46 159,48 155,51.5Z" fill="#FFD6D6"/>
</svg>