<svg xmlns="http://www.w3.org/2000/svg" viewBox="0 0 200 150" width="200" height="150">
  <defs>
    <linearGradient id="bg43280" gradientTransform="rotate(0)">
      <stop offset="0%" style="stop-color:#FFE5D9"/>
      <stop offset="100%" style="stop-color:#FFCDB2"/>
    </linearGradient>
  </defs>
  <rect width="200" height="150" fill="url(#bg43280)" rx="16"/>
  <circle cx="164.0522008424159" cy="26.93066682416827" r="10.166532340261938" fill="#FFB3B3" opacity="0.4"/>
  <circle cx="50.53386386076454" cy="48.133623596240795" r="11.73353370672885" fill="#A8D0F0" opacity="0.4"/>
  <circle cx="90.50576270034071" cy="33.10849219630654" r="13.782479997323662" fill="#FFE566" opacity="0.4"/>
  <circle cx="172.41505107085686" cy="54.68750223587449" r="9.85866823573815" fill="#FFB3B3" opacity="0.4"/>
  <circle cx="37.28686873218976" cy="35.226975443711126" r="6.792994668630854" fill="#A8D0F0" opacity="0.4"/>
  <circle cx="117.81801080855075" cy="24.46712852847213" r="7.282302137136867" fill="#FFE566" opacity="0.4"/>
  <rect x="42.128615625670136" y="77.23163025817848" width="35" height="37.768369741821516" rx="4" fill="#FFB3B3"/>
  <ellipse cx="59.628615625670136" cy="69.23163025817848" rx="10" ry="8" fill="#FFB3B3" opacity="1"/>
  <rect x="103.67387224617232" y="79.89468716116971" width="35" height="35.10531283883029" rx="4" fill="#A8D0F0"/>
  <ellipse cx="121.17387224617232" cy="71.89468716116971" rx="10" ry="8" fill="#A8D0F0" opacity="1"/>
  <rect x="157.16011641996374" y="73.47205722165018" width="35" height="41.527942778349825" rx="4" fill="#FFE566"/>
  <ellipse cx="174.66011641996374" cy="65.47205722165018" rx="10" ry="8" fill="#FFE566" opacity="1"/>
  <rect x="165" y="50" width="8" height="40" rx="2" fill="#8B4513"/>
  <rect x="163" y="85" width="12" height="20" rx="3" fill="#FFCDB2"/>
</svg>