<svg xmlns="http://www.w3.org/2000/svg" viewBox="0 0 200 150" width="200" height="150">
  <defs>
    <linearGradient id="bg4340" gradientTransform="rotate(45)">
      <stop offset="0%" style="stop-color:#F0F7FF"/>
      <stop offset="100%" style="stop-color:#DCE8F5"/>
    </linearGradient>
  </defs>
  <rect width="200" height="150" fill="url(#bg4340)" rx="16"/>
  <circle cx="29.609984031048953" cy="22.088636177886656" r="3.2946021448969987" fill="#F0F7FF" opacity="0.3"/><circle cx="181.31594575916097" cy="19.876624483322303" r="2.382969812309966" fill="#F0F7FF" opacity="0.3"/><circle cx="92.92945144734404" cy="140.32407339295787" r="2.6985998613836273" fill="#F0F7FF" opacity="0.3"/><circle cx="140.05178814404644" cy="110.86473379909876" r="4.837468429937871" fill="#F0F7FF" opacity="0.3"/><circle cx="139.04065966153212" cy="37.80754309736949" r="3.5873698880241136" fill="#F0F7FF" opacity="0.3"/><circle cx="13.566766978760825" cy="62.4946920088405" r="3.5542807862748305" fill="#F0F7FF" opacity="0.3"/>
  <circle cx="100" cy="75" r="48" fill="#FFE5D9" opacity="1"/>
  <circle cx="80" cy="68" r="8" fill="#333" opacity="1"/>
  <circle cx="120" cy="68" r="8" fill="#333" opacity="1"/>
  <circle cx="78" cy="65" r="3" fill="white" opacity="1"/>
  <circle cx="118" cy="65" r="3" fill="white" opacity="1"/>
  <path d="M72 92 Q100 115 128 92" stroke="#333" stroke-width="4" fill="none" stroke-linecap="round"/>
  <ellipse cx="60" cy="82" rx="12" ry="7" fill="#FFB3B3" opacity="0.4"/>
  <ellipse cx="140" cy="82" rx="12" ry="7" fill="#FFB3B3" opacity="0.4"/>
  <path d="M45,42.25 C39,37 42,34 45,37.75 C48,34 51,37 45,42.25Z" fill="#FFB3B3"/>
  <path d="M160,46.8 C155.2,42.6 157.6,40.2 160,43.2 C162.4,40.2 164.8,42.6 160,46.8Z" fill="#FFD6D6"/>
</svg>