<svg xmlns="http://www.w3.org/2000/svg" viewBox="0 0 200 150" width="200" height="150">
  <defs>
    <linearGradient id="bg44668" gradientTransform="rotate(0)">
      <stop offset="0%" style="stop-color:#FFD6D6"/>
      <stop offset="100%" style="stop-color:#FFB3B3"/>
    </linearGradient>
  </defs>
  <rect width="200" height="150" fill="url(#bg44668)" rx="16"/>
  <circle cx="153.48010348934622" cy="47.28734727495976" r="2.2093396359814506" fill="#FFD6D6" opacity="0.3"/><circle cx="151.8450398118148" cy="136.55546202066944" r="4.149527445027616" fill="#FFD6D6" opacity="0.3"/><circle cx="182.8429248827888" cy="16.769311825100885" r="4.05519318300594" fill="#FFD6D6" opacity="0.3"/><circle cx="128.2867436356355" cy="80.19517559157947" r="4.526557329376374" fill="#FFD6D6" opacity="0.3"/><circle cx="186.86481246431867" cy="147.40297946917167" r="3.3125623994274065" fill="#FFD6D6" opacity="0.3"/><circle cx="161.14759820156905" cy="53.812691535404156" r="2.202117958171584" fill="#FFD6D6" opacity="0.3"/>
  <ellipse cx="100" cy="95" rx="32" ry="28" fill="#FFB3B3" opacity="1"/>
  <circle cx="100" cy="58" r="28" fill="#FFB3B3" opacity="1"/>
  <ellipse cx="82" cy="25" rx="10" ry="24" fill="#FFB3B3" opacity="1"/>
  <ellipse cx="118" cy="25" rx="10" ry="24" fill="#FFB3B3" opacity="1"/>
  <ellipse cx="82" cy="27" rx="5" ry="15" fill="#FFD6D6" opacity="1"/>
  <ellipse cx="118" cy="27" rx="5" ry="15" fill="#FFD6D6" opacity="1"/>
  <circle cx="88" cy="52" r="5" fill="#333" opacity="1"/>
  <circle cx="112" cy="52" r="5" fill="#333" opacity="1"/>
  <circle cx="86" cy="50" r="2" fill="white" opacity="1"/>
  <circle cx="110" cy="50" r="2" fill="white" opacity="1"/>
  <ellipse cx="100" cy="68" rx="6" ry="4" fill="#FFB3B3" opacity="1"/>
  <path d="M50,46.8 C45.2,42.6 47.6,40.2 50,43.2 C52.4,40.2 54.8,42.6 50,46.8Z" fill="#FFB3B3"/>
  <path d="M155,51.5 C151,48 153,46 155,48.5 C157,46 159,48 155,51.5Z" fill="#FFD6D6"/>
</svg>