<svg xmlns="http://www.w3.org/2000/svg" viewBox="0 0 200 150" width="200" height="150">
  <defs>
    <linearGradient id="bg45035" gradientTransform="rotate(180)">
      <stop offset="0%" style="stop-color:#FFE5D9"/>
      <stop offset="100%" style="stop-color:#FFCDB2"/>
    </linearGradient>
  </defs>
  <rect width="200" height="150" fill="url(#bg45035)" rx="16"/>
  <circle cx="138.17076285404255" cy="138.60283308258659" r="4.4695398340682" fill="#FFE5D9" opacity="0.3"/><circle cx="94.34616029066092" cy="66.19989775351769" r="2.2373199490357365" fill="#FFE5D9" opacity="0.3"/><circle cx="125.8211136355385" cy="88.87430296340426" r="4.448529266841433" fill="#FFE5D9" opacity="0.3"/><circle cx="173.04867359052878" cy="63.53530440587747" r="2.0885226156260615" fill="#FFE5D9" opacity="0.3"/><circle cx="187.36063041669695" cy="89.8175077663609" r="2.5813205547256075" fill="#FFE5D9" opacity="0.3"/><circle cx="129.8457710268849" cy="35.30511135634242" r="2.3323550691802666" fill="#FFE5D9" opacity="0.3"/>
  <circle cx="100" cy="75" r="48" fill="#FFE5D9" opacity="1"/>
  <circle cx="80" cy="68" r="8" fill="#333" opacity="1"/>
  <circle cx="120" cy="68" r="8" fill="#333" opacity="1"/>
  <circle cx="78" cy="65" r="3" fill="white" opacity="1"/>
  <circle cx="118" cy="65" r="3" fill="white" opacity="1"/>
  <path d="M72 92 Q100 115 128 92" stroke="#333" stroke-width="4" fill="none" stroke-linecap="round"/>
  <ellipse cx="60" cy="82" rx="12" ry="7" fill="#FFB3B3" opacity="0.4"/>
  <ellipse cx="140" cy="82" rx="12" ry="7" fill="#FFB3B3" opacity="0.4"/>
  <path d="M45,42.25 C39,37 42,34 45,37.75 C48,34 51,37 45,42.25Z" fill="#FFB3B3"/>
  <path d="M160,46.8 C155.2,42.6 157.6,40.2 160,43.2 C162.4,40.2 164.8,42.6 160,46.8Z" fill="#FFD6D6"/>
</svg>