<svg xmlns="http://www.w3.org/2000/svg" viewBox="0 0 200 150" width="200" height="150">
  <defs>
    <linearGradient id="bg454" gradientTransform="rotate(0)">
      <stop offset="0%" style="stop-color:#FFF5EB"/>
      <stop offset="100%" style="stop-color:#FFE4CC"/>
    </linearGradient>
  </defs>
  <rect width="200" height="150" fill="url(#bg454)" rx="16"/>
  <circle cx="38.45838225333864" cy="104.17158476075201" r="4.41851948407384" fill="#FFF5EB" opacity="0.3"/><circle cx="93.2621250529337" cy="127.86620678916734" r="4.361360586158753" fill="#FFF5EB" opacity="0.3"/><circle cx="62.57434645121975" cy="131.90477717253088" r="4.554971790758827" fill="#FFF5EB" opacity="0.3"/><circle cx="157.83082757916418" cy="35.767312076859525" r="4.299483773251268" fill="#FFF5EB" opacity="0.3"/><circle cx="92.17053215361375" cy="137.07407943138605" r="4.3533771511047235" fill="#FFF5EB" opacity="0.3"/><circle cx="22.33123492987943" cy="82.02911646349094" r="4.44591012595356" fill="#FFF5EB" opacity="0.3"/>
  <circle cx="100" cy="75" r="48" fill="#FFE5D9" opacity="1"/>
  <circle cx="80" cy="68" r="8" fill="#333" opacity="1"/>
  <circle cx="120" cy="68" r="8" fill="#333" opacity="1"/>
  <circle cx="78" cy="65" r="3" fill="white" opacity="1"/>
  <circle cx="118" cy="65" r="3" fill="white" opacity="1"/>
  <path d="M72 92 Q100 115 128 92" stroke="#333" stroke-width="4" fill="none" stroke-linecap="round"/>
  <ellipse cx="60" cy="82" rx="12" ry="7" fill="#FFB3B3" opacity="0.4"/>
  <ellipse cx="140" cy="82" rx="12" ry="7" fill="#FFB3B3" opacity="0.4"/>
  <path d="M45,42.25 C39,37 42,34 45,37.75 C48,34 51,37 45,42.25Z" fill="#FFB3B3"/>
  <path d="M160,46.8 C155.2,42.6 157.6,40.2 160,43.2 C162.4,40.2 164.8,42.6 160,46.8Z" fill="#FFD6D6"/>
</svg>