<svg xmlns="http://www.w3.org/2000/svg" viewBox="0 0 200 150" width="200" height="150">
  <defs>
    <linearGradient id="bg461" gradientTransform="rotate(180)">
      <stop offset="0%" style="stop-color:#D0F0F0"/>
      <stop offset="100%" style="stop-color:#A0E0E0"/>
    </linearGradient>
  </defs>
  <rect width="200" height="150" fill="url(#bg461)" rx="16"/>
  <polygon points="30,22 32.35114100916989,26.76393202250021 37.60845213036123,27.52786404500042 33.804226065180615,31.23606797749979 34.70228201833979,36.47213595499958 30,34 25.297717981660217,36.47213595499958 26.195773934819385,31.23606797749979 22.39154786963877,27.527864045000417 27.648858990830107,26.76393202250021" fill="#FFF3B0"/>
  <polygon points="170,29 171.76335575687742,32.57294901687516 175.70633909777092,33.14589803375031 172.85316954888546,35.92705098312484 173.52671151375483,39.85410196624969 170,38 166.47328848624517,39.85410196624969 167.14683045111454,35.92705098312484 164.29366090222908,33.14589803375031 168.23664424312258,32.57294901687516" fill="#D0F0F0"/>
  <rect x="30" y="50" width="65" height="75" rx="3" fill="white"/>
  <rect x="105" y="50" width="65" height="75" rx="3" fill="#FFFBF5"/>
  <line x1="100" y1="50" x2="100" y2="125" stroke="#70D0D0" stroke-width="3"/>
  <line x1="40" y1="68" x2="78.86565111176424" y2="68" stroke="#DDD" stroke-width="2"/>
  <line x1="115" y1="68" x2="153.86565111176424" y2="68" stroke="#DDD" stroke-width="2"/>
  <line x1="40" y1="81" x2="72.14977425427037" y2="81" stroke="#DDD" stroke-width="2"/>
  <line x1="115" y1="81" x2="147.14977425427037" y2="81" stroke="#DDD" stroke-width="2"/>
  <line x1="40" y1="94" x2="65.17569279548866" y2="94" stroke="#DDD" stroke-width="2"/>
  <line x1="115" y1="94" x2="140.17569279548866" y2="94" stroke="#DDD" stroke-width="2"/>
  <line x1="40" y1="107" x2="74.29738850878493" y2="107" stroke="#DDD" stroke-width="2"/>
  <line x1="115" y1="107" x2="149.29738850878493" y2="107" stroke="#DDD" stroke-width="2"/>
  <line x1="40" y1="120" x2="84.76185721124239" y2="120" stroke="#DDD" stroke-width="2"/>
  <line x1="115" y1="120" x2="159.7618572112424" y2="120" stroke="#DDD" stroke-width="2"/>
  <polygon points="155,50 165,50 165,80 160,75 155,80" fill="#FFB3B3"/>
  <polygon points="77.5,30.5 79.8511410091699,35.263932022500214 85.10845213036123,36.02786404500042 81.30422606518061,39.736067977499786 82.20228201833979,44.97213595499958 77.5,42.5 72.79771798166021,44.97213595499958 73.69577393481939,39.73606797749979 69.89154786963877,36.02786404500042 75.1488589908301,35.263932022500214" fill="#FFE566"/><polygon points="104.43124648467804,-25.476649057378545 107.37017274614041,-19.52173402925328 113.94181164762958,-18.566819001128017 109.18652906615381,-13.931564085503808 110.30909900760277,-7.38647911362907 104.43124648467804,-10.476649057378545 98.55339396175332,-7.38647911362907 99.67596390320227,-13.931564085503807 94.9206813217265,-18.56681900112802 101.49232022321567,-19.52173402925328" fill="#FFE566"/><polygon points="34.34840764015877,26.406636619626873 37.87511915391361,33.55253465337719 45.76108583570061,34.69843268712751 40.05474673792969,40.26073858587656 41.40183066766845,48.11484055212624 34.34840764015877,44.40663661962687 27.294984612649092,48.11484055212624 28.642068542387847,40.26073858587656 22.935729444616925,34.6984326871275 30.82169612640393,33.55253465337719" fill="#FFE566"/><polygon points="119.70999895486325,-29.290083787220297 123.82449572091056,-20.95320274784493 133.0247901829954,-19.61632170846956 126.36739456892933,-13.126964826595666 127.93899248695787,-3.9638458659710327 119.70999895486325,-8.290083787220297 111.48100542276863,-3.9638458659710327 113.05260334079718,-13.126964826595664 106.3952077267311,-19.616321708469563 115.59550218881594,-20.953202747844927" fill="#FFE566"/>
</svg>