<svg xmlns="http://www.w3.org/2000/svg" viewBox="0 0 200 150" width="200" height="150">
  <defs>
    <linearGradient id="bg47894" gradientTransform="rotate(180)">
      <stop offset="0%" style="stop-color:#D4E9FF"/>
      <stop offset="100%" style="stop-color:#A8D0F0"/>
    </linearGradient>
  </defs>
  <rect width="200" height="150" fill="url(#bg47894)" rx="16"/>
  <rect x="0" y="100" width="200" height="50" rx="0" fill="#C5DBC5"/>
  <circle cx="165" cy="35" r="22" fill="#FFE566" opacity="1"/>
  <line x1="191" y1="35" x2="200" y2="35" stroke="#FFF3B0" stroke-width="3" stroke-linecap="round"/>
  <line x1="183.38477631085024" y1="53.384776310850235" x2="189.74873734152916" y2="59.748737341529164" stroke="#FFF3B0" stroke-width="3" stroke-linecap="round"/>
  <line x1="165" y1="61" x2="165" y2="70" stroke="#FFF3B0" stroke-width="3" stroke-linecap="round"/>
  <line x1="146.61522368914976" y1="53.38477631085024" x2="140.25126265847084" y2="59.748737341529164" stroke="#FFF3B0" stroke-width="3" stroke-linecap="round"/>
  <line x1="139" y1="35" x2="130" y2="35.00000000000001" stroke="#FFF3B0" stroke-width="3" stroke-linecap="round"/>
  <line x1="146.61522368914976" y1="16.615223689149765" x2="140.25126265847084" y2="10.25126265847084" stroke="#FFF3B0" stroke-width="3" stroke-linecap="round"/>
  <line x1="165" y1="9" x2="165" y2="0" stroke="#FFF3B0" stroke-width="3" stroke-linecap="round"/>
  <line x1="183.38477631085024" y1="16.61522368914976" x2="189.74873734152916" y2="10.251262658470832" stroke="#FFF3B0" stroke-width="3" stroke-linecap="round"/>
  <rect x="90" y="55" width="14" height="50" rx="2" fill="#8B6914"/>
  <path d="M80.57024539359554,34.92656123808774 Q90.57024539359554,46.92656123808774 80.57024539359554,58.92656123808774 Q70.57024539359554,46.92656123808774 80.57024539359554,34.92656123808774Z" fill="#B7E4C7"/>
  <path d="M91.65959283392476,32.71730518260301 Q101.65959283392476,44.71730518260301 91.65959283392476,56.71730518260301 Q81.65959283392476,44.71730518260301 91.65959283392476,32.71730518260301Z" fill="#95D5B2"/>
  <path d="M101.6672085829905,28.78488844715139 Q111.6672085829905,40.78488844715139 101.6672085829905,52.78488844715139 Q91.6672085829905,40.78488844715139 101.6672085829905,28.78488844715139Z" fill="#B7E4C7"/>
  <path d="M116.62674017191966,25.351570512037142 Q126.62674017191966,37.35157051203714 116.62674017191966,49.35157051203714 Q106.62674017191966,37.35157051203714 116.62674017191966,25.351570512037142Z" fill="#95D5B2"/>
  <path d="M123.75119225673552,33.856695035681696 Q133.75119225673552,45.856695035681696 123.75119225673552,57.856695035681696 Q113.75119225673552,45.856695035681696 123.75119225673552,33.856695035681696Z" fill="#B7E4C7"/>
  <circle cx="45" cy="95" r="8" fill="#FFB3B3" opacity="1"/>
  <circle cx="155" cy="98" r="6" fill="#C9B8E8" opacity="1"/>
</svg>