<svg xmlns="http://www.w3.org/2000/svg" viewBox="0 0 200 150" width="200" height="150">
  <defs>
    <linearGradient id="bg49004" gradientTransform="rotate(0)">
      <stop offset="0%" style="stop-color:#F0F7FF"/>
      <stop offset="100%" style="stop-color:#DCE8F5"/>
    </linearGradient>
  </defs>
  <rect width="200" height="150" fill="url(#bg49004)" rx="16"/>
  <rect x="0" y="100" width="200" height="50" rx="0" fill="#C5DBC5"/>
  <circle cx="165" cy="35" r="22" fill="#FFE566" opacity="1"/>
  <line x1="191" y1="35" x2="200" y2="35" stroke="#FFF3B0" stroke-width="3" stroke-linecap="round"/>
  <line x1="183.38477631085024" y1="53.384776310850235" x2="189.74873734152916" y2="59.748737341529164" stroke="#FFF3B0" stroke-width="3" stroke-linecap="round"/>
  <line x1="165" y1="61" x2="165" y2="70" stroke="#FFF3B0" stroke-width="3" stroke-linecap="round"/>
  <line x1="146.61522368914976" y1="53.38477631085024" x2="140.25126265847084" y2="59.748737341529164" stroke="#FFF3B0" stroke-width="3" stroke-linecap="round"/>
  <line x1="139" y1="35" x2="130" y2="35.00000000000001" stroke="#FFF3B0" stroke-width="3" stroke-linecap="round"/>
  <line x1="146.61522368914976" y1="16.615223689149765" x2="140.25126265847084" y2="10.25126265847084" stroke="#FFF3B0" stroke-width="3" stroke-linecap="round"/>
  <line x1="165" y1="9" x2="165" y2="0" stroke="#FFF3B0" stroke-width="3" stroke-linecap="round"/>
  <line x1="183.38477631085024" y1="16.61522368914976" x2="189.74873734152916" y2="10.251262658470832" stroke="#FFF3B0" stroke-width="3" stroke-linecap="round"/>
  <rect x="90" y="55" width="14" height="50" rx="2" fill="#8B6914"/>
  <path d="M81.60435236000922,30.86849634054306 Q91.60435236000922,42.86849634054306 81.60435236000922,54.86849634054306 Q71.60435236000922,42.86849634054306 81.60435236000922,30.86849634054306Z" fill="#B7E4C7"/>
  <path d="M94.46072445553727,37.154171364607464 Q104.46072445553727,49.154171364607464 94.46072445553727,61.154171364607464 Q84.46072445553727,49.154171364607464 94.46072445553727,37.154171364607464Z" fill="#95D5B2"/>
  <path d="M99.56247133098805,36.299488793691125 Q109.56247133098805,48.299488793691125 99.56247133098805,60.299488793691125 Q89.56247133098805,48.299488793691125 99.56247133098805,36.299488793691125Z" fill="#B7E4C7"/>
  <path d="M112.8007450175428,26.5424004822562 Q122.8007450175428,38.5424004822562 112.8007450175428,50.5424004822562 Q102.8007450175428,38.5424004822562 112.8007450175428,26.5424004822562Z" fill="#95D5B2"/>
  <path d="M126.9376240745114,42.46892513467901 Q136.9376240745114,54.46892513467901 126.9376240745114,66.46892513467901 Q116.9376240745114,54.46892513467901 126.9376240745114,42.46892513467901Z" fill="#B7E4C7"/>
  <circle cx="45" cy="95" r="8" fill="#FFB3B3" opacity="1"/>
  <circle cx="155" cy="98" r="6" fill="#C9B8E8" opacity="1"/>
</svg>