<svg xmlns="http://www.w3.org/2000/svg" viewBox="0 0 200 150" width="200" height="150">
  <defs>
    <linearGradient id="bg50001" gradientTransform="rotate(180)">
      <stop offset="0%" style="stop-color:#F0F7FF"/>
      <stop offset="100%" style="stop-color:#DCE8F5"/>
    </linearGradient>
  </defs>
  <rect width="200" height="150" fill="url(#bg50001)" rx="16"/>
  <rect x="0" y="100" width="200" height="50" rx="0" fill="#C5DBC5"/>
  <circle cx="165" cy="35" r="22" fill="#FFE566" opacity="1"/>
  <line x1="191" y1="35" x2="200" y2="35" stroke="#FFF3B0" stroke-width="3" stroke-linecap="round"/>
  <line x1="183.38477631085024" y1="53.384776310850235" x2="189.74873734152916" y2="59.748737341529164" stroke="#FFF3B0" stroke-width="3" stroke-linecap="round"/>
  <line x1="165" y1="61" x2="165" y2="70" stroke="#FFF3B0" stroke-width="3" stroke-linecap="round"/>
  <line x1="146.61522368914976" y1="53.38477631085024" x2="140.25126265847084" y2="59.748737341529164" stroke="#FFF3B0" stroke-width="3" stroke-linecap="round"/>
  <line x1="139" y1="35" x2="130" y2="35.00000000000001" stroke="#FFF3B0" stroke-width="3" stroke-linecap="round"/>
  <line x1="146.61522368914976" y1="16.615223689149765" x2="140.25126265847084" y2="10.25126265847084" stroke="#FFF3B0" stroke-width="3" stroke-linecap="round"/>
  <line x1="165" y1="9" x2="165" y2="0" stroke="#FFF3B0" stroke-width="3" stroke-linecap="round"/>
  <line x1="183.38477631085024" y1="16.61522368914976" x2="189.74873734152916" y2="10.251262658470832" stroke="#FFF3B0" stroke-width="3" stroke-linecap="round"/>
  <rect x="90" y="55" width="14" height="50" rx="2" fill="#8B6914"/>
  <path d="M81.54266826534877,39.91940585433258 Q91.54266826534877,51.91940585433258 81.54266826534877,63.91940585433258 Q71.54266826534877,51.91940585433258 81.54266826534877,39.91940585433258Z" fill="#B7E4C7"/>
  <path d="M89.75807282372261,31.354358040523948 Q99.75807282372261,43.35435804052395 89.75807282372261,55.35435804052395 Q79.75807282372261,43.35435804052395 89.75807282372261,31.354358040523948Z" fill="#95D5B2"/>
  <path d="M105.04869177994442,35.71595012767648 Q115.04869177994442,47.71595012767648 105.04869177994442,59.71595012767648 Q95.04869177994442,47.71595012767648 105.04869177994442,35.71595012767648Z" fill="#B7E4C7"/>
  <path d="M116.98718269546953,37.51976562559139 Q126.98718269546953,49.51976562559139 116.98718269546953,61.51976562559139 Q106.98718269546953,49.51976562559139 116.98718269546953,37.51976562559139Z" fill="#95D5B2"/>
  <path d="M129.90065094546298,31.36032726761914 Q139.90065094546298,43.36032726761914 129.90065094546298,55.36032726761914 Q119.90065094546298,43.36032726761914 129.90065094546298,31.36032726761914Z" fill="#B7E4C7"/>
  <circle cx="45" cy="95" r="8" fill="#FFB3B3" opacity="1"/>
  <circle cx="155" cy="98" r="6" fill="#C9B8E8" opacity="1"/>
</svg>