<svg xmlns="http://www.w3.org/2000/svg" viewBox="0 0 200 150" width="200" height="150">
  <defs>
    <linearGradient id="bg5021" gradientTransform="rotate(90)">
      <stop offset="0%" style="stop-color:#E8F0E8"/>
      <stop offset="100%" style="stop-color:#C5DBC5"/>
    </linearGradient>
  </defs>
  <rect width="200" height="150" fill="url(#bg5021)" rx="16"/>
  <circle cx="72.21014262931931" cy="50.33913021235321" r="3.804842855044626" fill="#E8F0E8" opacity="0.3"/><circle cx="9.23539660584538" cy="114.50597341963658" r="4.879864544019256" fill="#E8F0E8" opacity="0.3"/><circle cx="71.44512048053002" cy="59.503316832433484" r="2.7595797192093414" fill="#E8F0E8" opacity="0.3"/><circle cx="187.92785171172" cy="124.93214575861202" r="4.296415195364716" fill="#E8F0E8" opacity="0.3"/><circle cx="49.1955190540466" cy="130.79554977084626" r="3.30738258072779" fill="#E8F0E8" opacity="0.3"/><circle cx="61.17530486093301" cy="126.05739997682122" r="4.544803097171098" fill="#E8F0E8" opacity="0.3"/>
  <circle cx="100" cy="75" r="48" fill="#FFE5D9" opacity="1"/>
  <circle cx="80" cy="68" r="8" fill="#333" opacity="1"/>
  <circle cx="120" cy="68" r="8" fill="#333" opacity="1"/>
  <circle cx="78" cy="65" r="3" fill="white" opacity="1"/>
  <circle cx="118" cy="65" r="3" fill="white" opacity="1"/>
  <path d="M72 92 Q100 115 128 92" stroke="#333" stroke-width="4" fill="none" stroke-linecap="round"/>
  <ellipse cx="60" cy="82" rx="12" ry="7" fill="#FFB3B3" opacity="0.4"/>
  <ellipse cx="140" cy="82" rx="12" ry="7" fill="#FFB3B3" opacity="0.4"/>
  <path d="M45,42.25 C39,37 42,34 45,37.75 C48,34 51,37 45,42.25Z" fill="#FFB3B3"/>
  <path d="M160,46.8 C155.2,42.6 157.6,40.2 160,43.2 C162.4,40.2 164.8,42.6 160,46.8Z" fill="#FFD6D6"/>
</svg>