<svg xmlns="http://www.w3.org/2000/svg" viewBox="0 0 200 150" width="200" height="150">
  <defs>
    <linearGradient id="bg5029" gradientTransform="rotate(45)">
      <stop offset="0%" style="stop-color:#D8F3DC"/>
      <stop offset="100%" style="stop-color:#B7E4C7"/>
    </linearGradient>
  </defs>
  <rect width="200" height="150" fill="url(#bg5029)" rx="16"/>
  <ellipse cx="100" cy="105" rx="55" ry="18" fill="#95D5B2" opacity="1"/>
  <path d="M45 80 Q45 115 100 120 Q155 115 155 80" fill="#B7E4C7" stroke="#95D5B2" stroke-width="2"/>
  <ellipse cx="100" cy="80" rx="50" ry="12" fill="#D4E9FF" opacity="1"/>
  <circle cx="72.71055813505882" cy="68" r="12" fill="#FFE566" opacity="1"/>
  <rect x="120" y="78" width="18" height="18" rx="3" fill="#FFB3B3"/>
  <circle cx="55" cy="55" r="5" fill="#A8D0F0" opacity="1"/>
  <circle cx="140" cy="50" r="4" fill="#A8D0F0" opacity="1"/>
  <polygon points="32.5,42.5 34.85114100916989,47.263932022500214 40.10845213036123,48.02786404500042 36.304226065180615,51.736067977499786 37.20228201833979,56.97213595499958 32.5,54.5 27.797717981660217,56.97213595499958 28.695773934819385,51.73606797749979 24.89154786963877,48.02786404500042 30.148858990830107,47.263932022500214" fill="#FFF3B0"/><polygon points="53.446525043638474,-1.4818381557388705 56.38545130510084,4.473076872386392 62.95709020659001,5.427991900511655 58.20180762511424,10.063246816135866 59.32437756656321,16.608331788010602 53.446525043638474,13.51816184426113 47.56867252071375,16.608331788010602 48.691242462162705,10.063246816135868 43.93595988068694,5.427991900511652 50.50759878217611,4.473076872386393" fill="#FFF3B0"/><polygon points="-1.062349613209846,38.42738403748757 2.464361900544992,45.573282071237884 10.350328582331995,46.719180104988205 4.643989484561074,52.28148600373726 5.991073414299831,60.13558796998694 -1.0623496132098462,56.42738403748757 -8.115772640719523,60.13558796998694 -6.768688710980768,52.28148600373726 -12.475027808751689,46.7191801049882 -4.589061126964686,45.573282071237884" fill="#FFF3B0"/><polygon points="65.32999918711586,-5.336731834504672 69.44449595316317,3.000149204870696 78.64479041524801,4.337030244246065 71.98739480118194,10.82638712611996 73.55899271921048,19.98950608674459 65.32999918711586,15.663268165495328 57.10100565502124,19.98950608674459 58.672603573049784,10.826387126119961 52.01520795898371,4.33703024424606 61.21550242106855,3.000149204870697" fill="#FFF3B0"/>
</svg>