<svg xmlns="http://www.w3.org/2000/svg" viewBox="0 0 200 150" width="200" height="150">
  <defs>
    <linearGradient id="bg5072" gradientTransform="rotate(45)">
      <stop offset="0%" style="stop-color:#F0F7FF"/>
      <stop offset="100%" style="stop-color:#DCE8F5"/>
    </linearGradient>
  </defs>
  <rect width="200" height="150" fill="url(#bg5072)" rx="16"/>
  <rect x="0" y="100" width="200" height="50" rx="0" fill="#C5DBC5"/>
  <circle cx="165" cy="35" r="22" fill="#FFE566" opacity="1"/>
  <line x1="191" y1="35" x2="200" y2="35" stroke="#FFF3B0" stroke-width="3" stroke-linecap="round"/>
  <line x1="183.38477631085024" y1="53.384776310850235" x2="189.74873734152916" y2="59.748737341529164" stroke="#FFF3B0" stroke-width="3" stroke-linecap="round"/>
  <line x1="165" y1="61" x2="165" y2="70" stroke="#FFF3B0" stroke-width="3" stroke-linecap="round"/>
  <line x1="146.61522368914976" y1="53.38477631085024" x2="140.25126265847084" y2="59.748737341529164" stroke="#FFF3B0" stroke-width="3" stroke-linecap="round"/>
  <line x1="139" y1="35" x2="130" y2="35.00000000000001" stroke="#FFF3B0" stroke-width="3" stroke-linecap="round"/>
  <line x1="146.61522368914976" y1="16.615223689149765" x2="140.25126265847084" y2="10.25126265847084" stroke="#FFF3B0" stroke-width="3" stroke-linecap="round"/>
  <line x1="165" y1="9" x2="165" y2="0" stroke="#FFF3B0" stroke-width="3" stroke-linecap="round"/>
  <line x1="183.38477631085024" y1="16.61522368914976" x2="189.74873734152916" y2="10.251262658470832" stroke="#FFF3B0" stroke-width="3" stroke-linecap="round"/>
  <rect x="90" y="55" width="14" height="50" rx="2" fill="#8B6914"/>
  <path d="M78.99663332135242,27.223773858211644 Q88.99663332135242,39.22377385821164 78.99663332135242,51.22377385821164 Q68.99663332135242,39.22377385821164 78.99663332135242,27.223773858211644Z" fill="#B7E4C7"/>
  <path d="M90.74810724244162,36.73468624140514 Q100.74810724244162,48.73468624140514 90.74810724244162,60.73468624140514 Q80.74810724244162,48.73468624140514 90.74810724244162,36.73468624140514Z" fill="#95D5B2"/>
  <path d="M105.77328269147256,28.6156407238268 Q115.77328269147256,40.6156407238268 105.77328269147256,52.6156407238268 Q95.77328269147256,40.6156407238268 105.77328269147256,28.6156407238268Z" fill="#B7E4C7"/>
  <path d="M115.85854138146078,30.34263322508923 Q125.85854138146078,42.34263322508923 115.85854138146078,54.34263322508923 Q105.85854138146078,42.34263322508923 115.85854138146078,30.34263322508923Z" fill="#95D5B2"/>
  <path d="M128.37958321785845,42.56233019622232 Q138.37958321785845,54.56233019622232 128.37958321785845,66.56233019622232 Q118.37958321785845,54.56233019622232 128.37958321785845,42.56233019622232Z" fill="#B7E4C7"/>
  <circle cx="45" cy="95" r="8" fill="#FFB3B3" opacity="1"/>
  <circle cx="155" cy="98" r="6" fill="#C9B8E8" opacity="1"/>
</svg>