<svg xmlns="http://www.w3.org/2000/svg" viewBox="0 0 200 150" width="200" height="150">
  <defs>
    <linearGradient id="bg5121" gradientTransform="rotate(0)">
      <stop offset="0%" style="stop-color:#FFE5D9"/>
      <stop offset="100%" style="stop-color:#FFCDB2"/>
    </linearGradient>
  </defs>
  <rect width="200" height="150" fill="url(#bg5121)" rx="16"/>
  <rect x="0" y="100" width="200" height="50" rx="0" fill="#C5DBC5"/>
  <circle cx="165" cy="35" r="22" fill="#FFE566" opacity="1"/>
  <line x1="191" y1="35" x2="200" y2="35" stroke="#FFF3B0" stroke-width="3" stroke-linecap="round"/>
  <line x1="183.38477631085024" y1="53.384776310850235" x2="189.74873734152916" y2="59.748737341529164" stroke="#FFF3B0" stroke-width="3" stroke-linecap="round"/>
  <line x1="165" y1="61" x2="165" y2="70" stroke="#FFF3B0" stroke-width="3" stroke-linecap="round"/>
  <line x1="146.61522368914976" y1="53.38477631085024" x2="140.25126265847084" y2="59.748737341529164" stroke="#FFF3B0" stroke-width="3" stroke-linecap="round"/>
  <line x1="139" y1="35" x2="130" y2="35.00000000000001" stroke="#FFF3B0" stroke-width="3" stroke-linecap="round"/>
  <line x1="146.61522368914976" y1="16.615223689149765" x2="140.25126265847084" y2="10.25126265847084" stroke="#FFF3B0" stroke-width="3" stroke-linecap="round"/>
  <line x1="165" y1="9" x2="165" y2="0" stroke="#FFF3B0" stroke-width="3" stroke-linecap="round"/>
  <line x1="183.38477631085024" y1="16.61522368914976" x2="189.74873734152916" y2="10.251262658470832" stroke="#FFF3B0" stroke-width="3" stroke-linecap="round"/>
  <rect x="90" y="55" width="14" height="50" rx="2" fill="#8B6914"/>
  <path d="M81.17201635331003,33.62720200592594 Q91.17201635331003,45.62720200592594 81.17201635331003,57.62720200592594 Q71.17201635331003,45.62720200592594 81.17201635331003,33.62720200592594Z" fill="#B7E4C7"/>
  <path d="M91.80529065083101,27.008856167129125 Q101.80529065083101,39.008856167129125 91.80529065083101,51.008856167129125 Q81.80529065083101,39.008856167129125 91.80529065083101,27.008856167129125Z" fill="#95D5B2"/>
  <path d="M104.28250126009516,27.838155366232968 Q114.28250126009516,39.83815536623297 104.28250126009516,51.83815536623297 Q94.28250126009516,39.83815536623297 104.28250126009516,27.838155366232968Z" fill="#B7E4C7"/>
  <path d="M117.48965068908728,27.054210038684687 Q127.48965068908728,39.05421003868469 117.48965068908728,51.05421003868469 Q107.48965068908728,39.05421003868469 117.48965068908728,27.054210038684687Z" fill="#95D5B2"/>
  <path d="M128.25371557513427,41.344377617704595 Q138.25371557513427,53.344377617704595 128.25371557513427,65.3443776177046 Q118.25371557513427,53.344377617704595 128.25371557513427,41.344377617704595Z" fill="#B7E4C7"/>
  <circle cx="45" cy="95" r="8" fill="#FFB3B3" opacity="1"/>
  <circle cx="155" cy="98" r="6" fill="#C9B8E8" opacity="1"/>
</svg>