<svg xmlns="http://www.w3.org/2000/svg" viewBox="0 0 200 150" width="200" height="150">
  <defs>
    <linearGradient id="bg5122" gradientTransform="rotate(45)">
      <stop offset="0%" style="stop-color:#D8F3DC"/>
      <stop offset="100%" style="stop-color:#B7E4C7"/>
    </linearGradient>
  </defs>
  <rect width="200" height="150" fill="url(#bg5122)" rx="16"/>
  <rect x="0" y="100" width="200" height="50" rx="0" fill="#C5DBC5"/>
  <circle cx="165" cy="35" r="22" fill="#FFE566" opacity="1"/>
  <line x1="191" y1="35" x2="200" y2="35" stroke="#FFF3B0" stroke-width="3" stroke-linecap="round"/>
  <line x1="183.38477631085024" y1="53.384776310850235" x2="189.74873734152916" y2="59.748737341529164" stroke="#FFF3B0" stroke-width="3" stroke-linecap="round"/>
  <line x1="165" y1="61" x2="165" y2="70" stroke="#FFF3B0" stroke-width="3" stroke-linecap="round"/>
  <line x1="146.61522368914976" y1="53.38477631085024" x2="140.25126265847084" y2="59.748737341529164" stroke="#FFF3B0" stroke-width="3" stroke-linecap="round"/>
  <line x1="139" y1="35" x2="130" y2="35.00000000000001" stroke="#FFF3B0" stroke-width="3" stroke-linecap="round"/>
  <line x1="146.61522368914976" y1="16.615223689149765" x2="140.25126265847084" y2="10.25126265847084" stroke="#FFF3B0" stroke-width="3" stroke-linecap="round"/>
  <line x1="165" y1="9" x2="165" y2="0" stroke="#FFF3B0" stroke-width="3" stroke-linecap="round"/>
  <line x1="183.38477631085024" y1="16.61522368914976" x2="189.74873734152916" y2="10.251262658470832" stroke="#FFF3B0" stroke-width="3" stroke-linecap="round"/>
  <rect x="90" y="55" width="14" height="50" rx="2" fill="#8B6914"/>
  <path d="M75.2298320215632,33.56900215946371 Q85.2298320215632,45.56900215946371 75.2298320215632,57.56900215946371 Q65.2298320215632,45.56900215946371 75.2298320215632,33.56900215946371Z" fill="#B7E4C7"/>
  <path d="M90.80783665162744,35.44269388223984 Q100.80783665162744,47.44269388223984 90.80783665162744,59.44269388223984 Q80.80783665162744,47.44269388223984 90.80783665162744,35.44269388223984Z" fill="#95D5B2"/>
  <path d="M102.76244661188684,26.40185594955983 Q112.76244661188684,38.40185594955983 102.76244661188684,50.40185594955983 Q92.76244661188684,38.40185594955983 102.76244661188684,26.40185594955983Z" fill="#B7E4C7"/>
  <path d="M111.08830416147248,31.03998209387224 Q121.08830416147248,43.03998209387224 111.08830416147248,55.03998209387224 Q101.08830416147248,43.03998209387224 111.08830416147248,31.03998209387224Z" fill="#95D5B2"/>
  <path d="M129.91444346820936,42.86892281387554 Q139.91444346820936,54.86892281387554 129.91444346820936,66.86892281387554 Q119.91444346820936,54.86892281387554 129.91444346820936,42.86892281387554Z" fill="#B7E4C7"/>
  <circle cx="45" cy="95" r="8" fill="#FFB3B3" opacity="1"/>
  <circle cx="155" cy="98" r="6" fill="#C9B8E8" opacity="1"/>
</svg>