<svg xmlns="http://www.w3.org/2000/svg" viewBox="0 0 200 150" width="200" height="150">
  <defs>
    <linearGradient id="bg5223" gradientTransform="rotate(135)">
      <stop offset="0%" style="stop-color:#E8F0E8"/>
      <stop offset="100%" style="stop-color:#C5DBC5"/>
    </linearGradient>
  </defs>
  <rect width="200" height="150" fill="url(#bg5223)" rx="16"/>
  <rect x="72.61689012128409" y="88.80907007439237" width="58.997541569209716" height="26.190929925607634" rx="4" fill="#FFB3B3"/>
  <rect x="77.33142086916632" y="62.82610237424342" width="51.33232500641316" height="25.982967700148947" rx="4" fill="#B7E4C7"/>
  <rect x="82.36476597323417" y="38.64706487440708" width="40.071896039822605" height="24.17903749983634" rx="4" fill="#C9B8E8"/>
  <rect x="87.6736962334715" y="15.88997331315295" width="29.74905056641944" height="22.75709156125413" rx="4" fill="#FFE566"/>
  <polygon points="45,31 49.11449676604731,39.33688103937537 58.31479122813215,40.673762078750734 51.657395614066075,47.16311896062463 53.22899353209462,56.326237921249266 45,52 36.77100646790538,56.326237921249266 38.342604385933925,47.16311896062463 31.68520877186785,40.673762078750734 40.88550323395269,39.33688103937537" fill="#FFE566"/>
  <polygon points="160,38 163.52671151375483,45.14589803375031 171.41267819554184,46.291796067500634 165.70633909777092,51.85410196624969 167.05342302750967,59.70820393249937 160,56 152.94657697249033,59.70820393249937 154.29366090222908,51.85410196624969 148.58732180445816,46.29179606750063 156.47328848624517,45.14589803375031" fill="#FFF3B0"/>
  <polygon points="100,12 102.93892626146237,17.954915028125264 109.51056516295154,18.909830056250527 104.75528258147577,23.545084971874736 105.87785252292473,30.090169943749473 100,27 94.12214747707527,30.090169943749473 95.24471741852423,23.545084971874736 90.48943483704846,18.909830056250524 97.06107373853763,17.954915028125264" fill="#FFB3B3"/>
</svg>