<svg xmlns="http://www.w3.org/2000/svg" viewBox="0 0 200 150" width="200" height="150">
  <defs>
    <linearGradient id="bg5228" gradientTransform="rotate(180)">
      <stop offset="0%" style="stop-color:#E0F4FF"/>
      <stop offset="100%" style="stop-color:#BAE6FD"/>
    </linearGradient>
  </defs>
  <rect width="200" height="150" fill="url(#bg5228)" rx="16"/>
  <circle cx="154.28048759968078" cy="33.95161172411463" r="4.27832646933075" fill="#E0F4FF" opacity="0.3"/><circle cx="17.786299465478805" cy="149.86495445832588" r="4.305752296497303" fill="#E0F4FF" opacity="0.3"/><circle cx="176.35552967476542" cy="28.87554994194943" r="4.407064655705653" fill="#E0F4FF" opacity="0.3"/><circle cx="3.444963691799785" cy="40.84574338526181" r="4.395327238098162" fill="#E0F4FF" opacity="0.3"/><circle cx="93.53173416784557" cy="9.777942195432843" r="2.8500893564573744" fill="#E0F4FF" opacity="0.3"/><circle cx="164.44640781082853" cy="83.60952508512582" r="3.7300815548569517" fill="#E0F4FF" opacity="0.3"/>
  <circle cx="100" cy="75" r="45" fill="#E0F4FF" opacity="1"/>
  <circle cx="100" cy="75" r="40" fill="white" opacity="1"/>
  <line x1="100" y1="42" x2="100" y2="52" stroke="#7DD3FC" stroke-width="2"/>
  <line x1="116.5" y1="46.421161675113524" x2="114" y2="50.751288694035715" stroke="#7DD3FC" stroke-width="2"/>
  <line x1="128.57883832488648" y1="58.5" x2="124.24871130596428" y2="61" stroke="#7DD3FC" stroke-width="2"/>
  <line x1="133" y1="75" x2="123" y2="75" stroke="#7DD3FC" stroke-width="2"/>
  <line x1="128.57883832488648" y1="91.5" x2="124.24871130596429" y2="89" stroke="#7DD3FC" stroke-width="2"/>
  <line x1="116.5" y1="103.57883832488648" x2="114" y2="99.24871130596429" stroke="#7DD3FC" stroke-width="2"/>
  <line x1="100" y1="108" x2="100" y2="98" stroke="#7DD3FC" stroke-width="2"/>
  <line x1="83.5" y1="103.57883832488648" x2="86" y2="99.24871130596428" stroke="#7DD3FC" stroke-width="2"/>
  <line x1="71.42116167511352" y1="91.50000000000001" x2="75.75128869403572" y2="89.00000000000001" stroke="#7DD3FC" stroke-width="2"/>
  <line x1="67" y1="75" x2="77" y2="75" stroke="#7DD3FC" stroke-width="2"/>
  <line x1="71.42116167511352" y1="58.5" x2="75.75128869403572" y2="61" stroke="#7DD3FC" stroke-width="2"/>
  <line x1="83.49999999999999" y1="46.42116167511353" x2="85.99999999999999" y2="50.75128869403572" stroke="#7DD3FC" stroke-width="2"/>
  <line x1="100" y1="75" x2="100" y2="55" stroke="#7DD3FC" stroke-width="4" stroke-linecap="round"/>
  <line x1="100" y1="75" x2="118" y2="85" stroke="#FFB3B3" stroke-width="3" stroke-linecap="round"/>
  <circle cx="100" cy="75" r="5" fill="#7DD3FC" opacity="1"/>
  <polygon points="45,33 48.52671151375484,40.14589803375031 56.412678195541844,41.291796067500634 50.70633909777092,46.85410196624969 52.05342302750968,54.70820393249937 45,51 37.94657697249032,54.70820393249937 39.29366090222908,46.85410196624969 33.587321804458156,41.29179606750063 41.47328848624516,40.14589803375031" fill="#FFF3B0"/>
</svg>