<svg xmlns="http://www.w3.org/2000/svg" viewBox="0 0 200 150" width="200" height="150">
  <defs>
    <linearGradient id="bg5468" gradientTransform="rotate(90)">
      <stop offset="0%" style="stop-color:#FFE4EC"/>
      <stop offset="100%" style="stop-color:#FFC8DD"/>
    </linearGradient>
  </defs>
  <rect width="200" height="150" fill="url(#bg5468)" rx="16"/>
  <circle cx="122.26909969213011" cy="144.72100482398673" r="2.3379216727171297" fill="#FFE4EC" opacity="0.3"/><circle cx="93.47374605067671" cy="126.80312745796982" r="2.3508967880194405" fill="#FFE4EC" opacity="0.3"/><circle cx="106.71086557445051" cy="117.97356880342704" r="4.548561070914957" fill="#FFE4EC" opacity="0.3"/><circle cx="180.63169796441798" cy="23.15985461523269" r="3.2934088922938827" fill="#FFE4EC" opacity="0.3"/><circle cx="31.124914622705546" cy="137.80522135948559" r="2.901715277159383" fill="#FFE4EC" opacity="0.3"/><circle cx="110.38588141309447" cy="133.5656581688454" r="3.3287350087784944" fill="#FFE4EC" opacity="0.3"/>
  <ellipse cx="100" cy="95" rx="32" ry="28" fill="#FFC8DD" opacity="1"/>
  <circle cx="100" cy="58" r="28" fill="#FFC8DD" opacity="1"/>
  <ellipse cx="82" cy="25" rx="10" ry="24" fill="#FFC8DD" opacity="1"/>
  <ellipse cx="118" cy="25" rx="10" ry="24" fill="#FFC8DD" opacity="1"/>
  <ellipse cx="82" cy="27" rx="5" ry="15" fill="#FFD6D6" opacity="1"/>
  <ellipse cx="118" cy="27" rx="5" ry="15" fill="#FFD6D6" opacity="1"/>
  <circle cx="88" cy="52" r="5" fill="#333" opacity="1"/>
  <circle cx="112" cy="52" r="5" fill="#333" opacity="1"/>
  <circle cx="86" cy="50" r="2" fill="white" opacity="1"/>
  <circle cx="110" cy="50" r="2" fill="white" opacity="1"/>
  <ellipse cx="100" cy="68" rx="6" ry="4" fill="#FFB3B3" opacity="1"/>
  <path d="M50,46.8 C45.2,42.6 47.6,40.2 50,43.2 C52.4,40.2 54.8,42.6 50,46.8Z" fill="#FFB3B3"/>
  <path d="M155,51.5 C151,48 153,46 155,48.5 C157,46 159,48 155,51.5Z" fill="#FFD6D6"/>
</svg>