<svg xmlns="http://www.w3.org/2000/svg" viewBox="0 0 200 150" width="200" height="150">
  <defs>
    <linearGradient id="bg551" gradientTransform="rotate(135)">
      <stop offset="0%" style="stop-color:#D8F3DC"/>
      <stop offset="100%" style="stop-color:#B7E4C7"/>
    </linearGradient>
  </defs>
  <rect width="200" height="150" fill="url(#bg551)" rx="16"/>
  <circle cx="0.17736934642016422" cy="51.88364766700033" r="4.505759236781159" fill="#D8F3DC" opacity="0.3"/><circle cx="48.74362512928201" cy="23.524944649034296" r="3.994908603381191" fill="#D8F3DC" opacity="0.3"/><circle cx="117.5711727781163" cy="69.07860857579067" r="2.6892447099999117" fill="#D8F3DC" opacity="0.3"/><circle cx="145.74755022640602" cy="126.96973247066126" r="3.920460271408956" fill="#D8F3DC" opacity="0.3"/><circle cx="6.2963304117147345" cy="127.74536266742871" r="3.803167453963397" fill="#D8F3DC" opacity="0.3"/><circle cx="117.35862015175371" cy="147.8706300847989" r="3.7689155402631513" fill="#D8F3DC" opacity="0.3"/>
  <circle cx="100" cy="75" r="48" fill="#FFE5D9" opacity="1"/>
  <circle cx="80" cy="68" r="8" fill="#333" opacity="1"/>
  <circle cx="120" cy="68" r="8" fill="#333" opacity="1"/>
  <circle cx="78" cy="65" r="3" fill="white" opacity="1"/>
  <circle cx="118" cy="65" r="3" fill="white" opacity="1"/>
  <path d="M72 92 Q100 115 128 92" stroke="#333" stroke-width="4" fill="none" stroke-linecap="round"/>
  <ellipse cx="60" cy="82" rx="12" ry="7" fill="#FFB3B3" opacity="0.4"/>
  <ellipse cx="140" cy="82" rx="12" ry="7" fill="#FFB3B3" opacity="0.4"/>
  <path d="M45,42.25 C39,37 42,34 45,37.75 C48,34 51,37 45,42.25Z" fill="#FFB3B3"/>
  <path d="M160,46.8 C155.2,42.6 157.6,40.2 160,43.2 C162.4,40.2 164.8,42.6 160,46.8Z" fill="#FFD6D6"/>
</svg>