<svg xmlns="http://www.w3.org/2000/svg" viewBox="0 0 200 150" width="200" height="150">
  <defs>
    <linearGradient id="bg5679" gradientTransform="rotate(180)">
      <stop offset="0%" style="stop-color:#E8F0E8"/>
      <stop offset="100%" style="stop-color:#C5DBC5"/>
    </linearGradient>
  </defs>
  <rect width="200" height="150" fill="url(#bg5679)" rx="16"/>
  <rect x="0" y="0" width="200" height="150" rx="0" fill="#1a1a3e"/>
  <polygon points="38.68113343580262,45.143541046764085 39.355945426286844,46.51085948410864 40.8648709090415,46.730119191071104 39.77300217242206,47.79442816575689 40.03075741677107,49.297256554367586 38.68113343580262,48.5877172379104 37.331509454834176,49.297256554367586 37.58926469918318,47.79442816575689 36.49739596256374,46.7301191910711 38.0063214453184,46.51085948410864" fill="#FFF3B0"/>
  <polygon points="26.602670255756493,5.7051724089287745 28.019266392380302,8.575509692780132 31.18687165053472,9.03578967917665 28.894770953145606,11.270035666169361 29.435862529004112,14.424841625955107 26.602670255756493,12.935344301293298 23.769477982508874,14.424841625955107 24.31056955836738,11.270035666169361 22.018468860978267,9.035789679176649 25.186074119132684,8.575509692780134" fill="#FFF3B0"/>
  <polygon points="112.53590813351366,33.05566205203195 113.64510805140367,35.30314656596863 116.1253544684429,35.66354746635101 114.33063130097828,37.4129701855353 114.75430796929366,39.883194705484364 112.53590813351366,38.716912892694836 110.31750829773365,39.883194705484364 110.74118496604903,37.4129701855353 108.94646179858442,35.66354746635101 111.42670821562365,35.30314656596863" fill="#FFF3B0"/>
  <polygon points="112.05753721207657,8.896666838882084 112.74159317391963,10.282715608010106 114.27118880501472,10.504978863338463 113.16436300854565,11.583867368052895 113.4256491357627,13.107282383424037 112.05753721207657,12.388023380281084 110.68942528839044,13.107282383424037 110.95071141560749,11.583867368052895 109.84388561913842,10.504978863338462 111.37348125023351,10.282715608010108" fill="#FFF3B0"/>
  <polygon points="87.86095249971368,48.71882520533654 89.20898262367557,51.4502325729892 92.2232696165718,51.8882341113797 90.04211105814274,54.01433824010143 90.55701274763744,57.01644544560416 87.86095249971368,55.59904269312301 85.16489225178991,57.01644544560416 85.67979394128461,54.01433824010143 83.49863538285555,51.8882341113797 86.51292237575178,51.4502325729892" fill="#FFF3B0"/>
  <polygon points="54.65450859535849,12.22513505374559 55.97856923648315,14.907974944413391 58.93925883636986,15.338188325721564 56.796883715864176,17.42648794583649 57.30262987760782,20.37521432856776 54.65450859535849,18.983014581824477 52.006387313109165,20.37521432856776 52.51213347485281,17.42648794583649 50.36975835434713,15.338188325721562 53.33044795423383,14.907974944413391" fill="#FFF3B0"/>
  <polygon points="32.07575295629795,14.129641208719931 33.235351277581366,16.479244041750345 35.828291950565735,16.85602037605394 33.95202245343184,18.68493112123338 34.394949598864784,21.26739453502001 32.07575295629795,20.048120704900384 29.75655631373111,21.26739453502001 30.199483459164053,18.68493112123338 28.323213962030163,16.85602037605394 30.91615463501453,16.479244041750345" fill="#FFF3B0"/>
  <polygon points="134.80430645426168,20.662595211736175 135.69872367154426,22.47488244005193 137.6987013696343,22.765496210596865 136.251503911948,24.17616508561828 136.59314088882684,26.168061501729568 134.80430645426168,25.227615585048625 133.01547201969652,26.168061501729568 133.35710899657536,24.17616508561828 131.90991153888905,22.765496210596865 133.9098892369791,22.47488244005193" fill="#FFF3B0"/>
  <polygon points="122.0930637276524,16.087315160101753 123.41545613393455,18.76677483777666 126.37241544731094,19.196446176726557 124.23273958748167,21.282114667964382 124.7378485402167,24.227125837102005 122.0930637276524,22.836680176276786 119.44827891508811,24.227125837102005 119.95338786782314,21.282114667964386 117.81371200799387,19.196446176726557 120.77067132137026,18.766774837776662" fill="#FFF3B0"/>
  <polygon points="174.7993133325872,15.208311352110286 175.54362217221316,16.716445786367803 177.20794733387078,16.958286388442534 176.00363033322898,18.132205330492507 176.2879310118391,19.78980547669195 174.7993133325872,19.007192848658633 173.31069565333527,19.78980547669195 173.5949963319454,18.132205330492507 172.3906793313036,16.958286388442534 174.05500449296122,16.716445786367803" fill="#FFF3B0"/>
  <path d="M155 25 A22 22 0 1 1 175 50 A18 18 0 1 0 155 25" fill="#FFE566"/>
  <rect x="35" y="75" width="130" height="50" rx="8" fill="#C9B8E8"/>
  <rect x="45" y="65" width="90" height="20" rx="8" fill="white"/>
  <rect x="40" y="90" width="120" height="30" rx="6" fill="#C5DBC5"/>
  <text x="170" y="75" fill="#E2D9F3" font-size="16" font-weight="bold">z</text>
  <text x="178" y="65" fill="#E2D9F3" font-size="13" font-weight="bold">z</text>
</svg>