<svg xmlns="http://www.w3.org/2000/svg" viewBox="0 0 200 150" width="200" height="150">
  <defs>
    <linearGradient id="bg5700" gradientTransform="rotate(45)">
      <stop offset="0%" style="stop-color:#E2D9F3"/>
      <stop offset="100%" style="stop-color:#C9B8E8"/>
    </linearGradient>
  </defs>
  <rect width="200" height="150" fill="url(#bg5700)" rx="16"/>
  <circle cx="102.34435010221205" cy="41.74539384893251" r="6.48778201028108" fill="#FFB3B3" opacity="0.4"/>
  <circle cx="97.4375076967408" cy="20.624678702242818" r="6.035987180548545" fill="#A8D0F0" opacity="0.4"/>
  <circle cx="36.16204838246631" cy="24.948254954442746" r="7.91274518616774" fill="#FFE566" opacity="0.4"/>
  <circle cx="139.2711194806907" cy="45.7736181120157" r="7.4312705841612114" fill="#FFB3B3" opacity="0.4"/>
  <circle cx="160.9723669658706" cy="45.2580872163071" r="10.66915990159032" fill="#A8D0F0" opacity="0.4"/>
  <circle cx="63.827711840276606" cy="43.61969737314212" r="6.639574380533304" fill="#FFE566" opacity="0.4"/>
  <rect x="45.213231055072356" y="71.00495151088762" width="35" height="43.99504848911238" rx="4" fill="#FFB3B3"/>
  <ellipse cx="62.713231055072356" cy="63.00495151088762" rx="10" ry="8" fill="#FFB3B3" opacity="1"/>
  <rect x="104.86519635307559" y="74.19299364654034" width="35" height="40.807006353459656" rx="4" fill="#A8D0F0"/>
  <ellipse cx="122.36519635307559" cy="66.19299364654034" rx="10" ry="8" fill="#A8D0F0" opacity="1"/>
  <rect x="150.74185347802995" y="70.51930181801436" width="35" height="44.480698181985645" rx="4" fill="#FFE566"/>
  <ellipse cx="168.24185347802995" cy="62.519301818014355" rx="10" ry="8" fill="#FFE566" opacity="1"/>
  <rect x="165" y="50" width="8" height="40" rx="2" fill="#8B4513"/>
  <rect x="163" y="85" width="12" height="20" rx="3" fill="#C9B8E8"/>
</svg>