<svg xmlns="http://www.w3.org/2000/svg" viewBox="0 0 200 150" width="200" height="150">
  <defs>
    <linearGradient id="bg5819" gradientTransform="rotate(135)">
      <stop offset="0%" style="stop-color:#FFE5D9"/>
      <stop offset="100%" style="stop-color:#FFCDB2"/>
    </linearGradient>
  </defs>
  <rect width="200" height="150" fill="url(#bg5819)" rx="16"/>
  <circle cx="34.000087825916125" cy="52.688978062633396" r="2.7270731598055136" fill="#FFE5D9" opacity="0.3"/><circle cx="148.72504137319993" cy="38.29777845067781" r="4.708850677498049" fill="#FFE5D9" opacity="0.3"/><circle cx="150.49991863888863" cy="41.76179362225412" r="3.361291176510349" fill="#FFE5D9" opacity="0.3"/><circle cx="191.3060704317104" cy="23.894195175398636" r="4.2939252304040565" fill="#FFE5D9" opacity="0.3"/><circle cx="166.52384851677198" cy="17.676917972130468" r="4.271426457835332" fill="#FFE5D9" opacity="0.3"/><circle cx="57.86889854789479" cy="36.31151961735668" r="2.6037059327227325" fill="#FFE5D9" opacity="0.3"/>
  <circle cx="100" cy="75" r="45" fill="#FFE5D9" opacity="1"/>
  <circle cx="100" cy="75" r="40" fill="white" opacity="1"/>
  <line x1="100" y1="42" x2="100" y2="52" stroke="#FFB4A2" stroke-width="2"/>
  <line x1="116.5" y1="46.421161675113524" x2="114" y2="50.751288694035715" stroke="#FFB4A2" stroke-width="2"/>
  <line x1="128.57883832488648" y1="58.5" x2="124.24871130596428" y2="61" stroke="#FFB4A2" stroke-width="2"/>
  <line x1="133" y1="75" x2="123" y2="75" stroke="#FFB4A2" stroke-width="2"/>
  <line x1="128.57883832488648" y1="91.5" x2="124.24871130596429" y2="89" stroke="#FFB4A2" stroke-width="2"/>
  <line x1="116.5" y1="103.57883832488648" x2="114" y2="99.24871130596429" stroke="#FFB4A2" stroke-width="2"/>
  <line x1="100" y1="108" x2="100" y2="98" stroke="#FFB4A2" stroke-width="2"/>
  <line x1="83.5" y1="103.57883832488648" x2="86" y2="99.24871130596428" stroke="#FFB4A2" stroke-width="2"/>
  <line x1="71.42116167511352" y1="91.50000000000001" x2="75.75128869403572" y2="89.00000000000001" stroke="#FFB4A2" stroke-width="2"/>
  <line x1="67" y1="75" x2="77" y2="75" stroke="#FFB4A2" stroke-width="2"/>
  <line x1="71.42116167511352" y1="58.5" x2="75.75128869403572" y2="61" stroke="#FFB4A2" stroke-width="2"/>
  <line x1="83.49999999999999" y1="46.42116167511353" x2="85.99999999999999" y2="50.75128869403572" stroke="#FFB4A2" stroke-width="2"/>
  <line x1="100" y1="75" x2="100" y2="55" stroke="#FFB4A2" stroke-width="4" stroke-linecap="round"/>
  <line x1="100" y1="75" x2="118" y2="85" stroke="#FFB3B3" stroke-width="3" stroke-linecap="round"/>
  <circle cx="100" cy="75" r="5" fill="#FFB4A2" opacity="1"/>
  <polygon points="45,33 48.52671151375484,40.14589803375031 56.412678195541844,41.291796067500634 50.70633909777092,46.85410196624969 52.05342302750968,54.70820393249937 45,51 37.94657697249032,54.70820393249937 39.29366090222908,46.85410196624969 33.587321804458156,41.29179606750063 41.47328848624516,40.14589803375031" fill="#FFF3B0"/>
</svg>