<svg xmlns="http://www.w3.org/2000/svg" viewBox="0 0 200 150" width="200" height="150">
  <defs>
    <linearGradient id="bg5864" gradientTransform="rotate(135)">
      <stop offset="0%" style="stop-color:#FFE5D9"/>
      <stop offset="100%" style="stop-color:#FFCDB2"/>
    </linearGradient>
  </defs>
  <rect width="200" height="150" fill="url(#bg5864)" rx="16"/>
  <circle cx="167.78032551592332" cy="144.20116843762116" r="4.548174667962485" fill="#FFCDB2" opacity="0.3"/><circle cx="34.6479897008976" cy="8.49974341754205" r="2.4866290791460415" fill="#FFCDB2" opacity="0.3"/><circle cx="75.4516482596955" cy="55.08775853560337" r="3.6485993223905098" fill="#FFCDB2" opacity="0.3"/><circle cx="115.45226071684738" cy="144.7940786372783" r="2.5814559271766484" fill="#FFCDB2" opacity="0.3"/><circle cx="55.061305091021495" cy="119.06027915947561" r="2.519799757110377" fill="#FFCDB2" opacity="0.3"/><circle cx="17.510876394840125" cy="134.0016181307874" r="3.7119519449608447" fill="#FFCDB2" opacity="0.3"/>
  <ellipse cx="55.32812955818372" cy="95" rx="12" ry="8" fill="#FFB4A2" opacity="1"/>
  <rect x="74.48487113666488" y="60" width="4" height="35" rx="1" fill="#FFB4A2"/>
  <ellipse cx="103.90400324008624" cy="70" rx="12" ry="8" fill="#FFCDB2" opacity="1"/>
  <rect x="112.7611982039798" y="35" width="4" height="35" rx="1" fill="#FFCDB2"/>
  <ellipse cx="149.43957868541474" cy="90" rx="12" ry="8" fill="#FFB4A2" opacity="1"/>
  <rect x="155.03797545205998" y="55" width="4" height="35" rx="1" fill="#FFB4A2"/>
  <text x="40" y="40" fill="#FFB4A2" font-size="14" opacity="0.7">♪</text>
  <text x="155" y="50" fill="#FFB3B3" font-size="12" opacity="0.5">♫</text>
  <polygon points="147.5,34.5 149.85114100916988,39.263932022500214 155.10845213036123,40.02786404500042 151.30422606518061,43.736067977499786 152.2022820183398,48.97213595499958 147.5,46.5 142.7977179816602,48.97213595499958 143.69577393481939,43.73606797749979 139.89154786963877,40.02786404500042 145.14885899083012,39.263932022500214" fill="#FFF3B0"/><polygon points="162.4618036025989,2.5129727459008073 165.40072986406128,8.467887774026071 171.97236876555044,9.422802802151333 167.21708618407467,14.058057717775544 168.33965612552365,20.603142689650284 162.4618036025989,17.512972745900807 156.58395107967416,20.603142689650284 157.70652102112314,14.058057717775545 152.95123843964737,9.422802802151331 159.52287734113654,8.467887774026071" fill="#FFF3B0"/><polygon points="123.52689313342154,30.44813145534826 127.05360464717637,37.594029489098574 134.93957132896338,38.739927522848895 129.23323223119246,44.30223342159795 130.5803161609312,52.15633538784763 123.52689313342154,48.44813145534826 116.47347010591186,52.15633538784763 117.82055403565062,44.30223342159795 112.1142149378797,38.73992752284889 120.0001816196667,37.594029489098574" fill="#FFF3B0"/><polygon points="170.94999941936848,-1.3833798817890504 175.0644961854158,6.9535011575863175 184.26479064750063,8.290382196961687 177.60739503343456,14.779739078835581 179.1789929514631,23.942858039460212 170.94999941936848,19.61662011821095 162.72100588727386,23.942858039460212 164.2926038053024,14.779739078835583 157.63520819123633,8.290382196961682 166.83550265332116,6.953501157586318" fill="#FFF3B0"/>
</svg>