<svg xmlns="http://www.w3.org/2000/svg" viewBox="0 0 200 150" width="200" height="150">
  <defs>
    <linearGradient id="bg5913" gradientTransform="rotate(180)">
      <stop offset="0%" style="stop-color:#F0F7FF"/>
      <stop offset="100%" style="stop-color:#DCE8F5"/>
    </linearGradient>
  </defs>
  <rect width="200" height="150" fill="url(#bg5913)" rx="16"/>
  <circle cx="83.05095775813243" cy="40.65063451596416" r="2.49725514534839" fill="#DCE8F5" opacity="0.3"/><circle cx="173.75381277961424" cy="28.546585659933044" r="4.304146729798958" fill="#DCE8F5" opacity="0.3"/><circle cx="11.117152714723488" cy="28.811700033566012" r="2.397818525465482" fill="#DCE8F5" opacity="0.3"/><circle cx="62.352508870435486" cy="57.94168166322322" r="3.76133880418638" fill="#DCE8F5" opacity="0.3"/><circle cx="93.22940221809404" cy="60.074893216096825" r="2.565706370243788" fill="#DCE8F5" opacity="0.3"/><circle cx="131.7209286880825" cy="107.96455872355182" r="4.0871109370964405" fill="#DCE8F5" opacity="0.3"/>
  <ellipse cx="56.046466886509734" cy="95" rx="12" ry="8" fill="#C7D9EB" opacity="1"/>
  <rect x="67.66542062447115" y="60" width="4" height="35" rx="1" fill="#C7D9EB"/>
  <ellipse cx="101.95770279293356" cy="70" rx="12" ry="8" fill="#DCE8F5" opacity="1"/>
  <rect x="117.70474879165704" y="35" width="4" height="35" rx="1" fill="#DCE8F5"/>
  <ellipse cx="154.58512210952904" cy="90" rx="12" ry="8" fill="#C7D9EB" opacity="1"/>
  <rect x="158.38963193819836" y="55" width="4" height="35" rx="1" fill="#C7D9EB"/>
  <text x="40" y="40" fill="#C7D9EB" font-size="14" opacity="0.7">♪</text>
  <text x="155" y="50" fill="#FFB3B3" font-size="12" opacity="0.5">♫</text>
  <polygon points="147.5,34.5 149.85114100916988,39.263932022500214 155.10845213036123,40.02786404500042 151.30422606518061,43.736067977499786 152.2022820183398,48.97213595499958 147.5,46.5 142.7977179816602,48.97213595499958 143.69577393481939,43.73606797749979 139.89154786963877,40.02786404500042 145.14885899083012,39.263932022500214" fill="#FFF3B0"/><polygon points="162.4618036025989,2.5129727459008073 165.40072986406128,8.467887774026071 171.97236876555044,9.422802802151333 167.21708618407467,14.058057717775544 168.33965612552365,20.603142689650284 162.4618036025989,17.512972745900807 156.58395107967416,20.603142689650284 157.70652102112314,14.058057717775545 152.95123843964737,9.422802802151331 159.52287734113654,8.467887774026071" fill="#FFF3B0"/><polygon points="123.52689313342154,30.44813145534826 127.05360464717637,37.594029489098574 134.93957132896338,38.739927522848895 129.23323223119246,44.30223342159795 130.5803161609312,52.15633538784763 123.52689313342154,48.44813145534826 116.47347010591186,52.15633538784763 117.82055403565062,44.30223342159795 112.1142149378797,38.73992752284889 120.0001816196667,37.594029489098574" fill="#FFF3B0"/><polygon points="170.94999941936848,-1.3833798817890504 175.0644961854158,6.9535011575863175 184.26479064750063,8.290382196961687 177.60739503343456,14.779739078835581 179.1789929514631,23.942858039460212 170.94999941936848,19.61662011821095 162.72100588727386,23.942858039460212 164.2926038053024,14.779739078835583 157.63520819123633,8.290382196961682 166.83550265332116,6.953501157586318" fill="#FFF3B0"/>
</svg>