<svg xmlns="http://www.w3.org/2000/svg" viewBox="0 0 200 150" width="200" height="150">
  <defs>
    <linearGradient id="bg6002" gradientTransform="rotate(0)">
      <stop offset="0%" style="stop-color:#E2D9F3"/>
      <stop offset="100%" style="stop-color:#C9B8E8"/>
    </linearGradient>
  </defs>
  <rect width="200" height="150" fill="url(#bg6002)" rx="16"/>
  <circle cx="41.74008357913408" cy="34.425115079466195" r="4.0270747678187035" fill="#E2D9F3" opacity="0.3"/><circle cx="160.34694650365964" cy="128.16941413090603" r="3.9066789101443646" fill="#E2D9F3" opacity="0.3"/><circle cx="181.53840863851656" cy="64.43853722855692" r="4.822812848622561" fill="#E2D9F3" opacity="0.3"/><circle cx="120.98034815179943" cy="102.89568883108586" r="4.155134308041852" fill="#E2D9F3" opacity="0.3"/><circle cx="161.52328440730344" cy="144.09024113256237" r="2.8105849084677175" fill="#E2D9F3" opacity="0.3"/><circle cx="93.16416426609067" cy="17.553334078377247" r="3.895749704967784" fill="#E2D9F3" opacity="0.3"/>
  <circle cx="100" cy="75" r="48" fill="#FFE5D9" opacity="1"/>
  <circle cx="80" cy="68" r="8" fill="#333" opacity="1"/>
  <circle cx="120" cy="68" r="8" fill="#333" opacity="1"/>
  <circle cx="78" cy="65" r="3" fill="white" opacity="1"/>
  <circle cx="118" cy="65" r="3" fill="white" opacity="1"/>
  <path d="M72 92 Q100 115 128 92" stroke="#333" stroke-width="4" fill="none" stroke-linecap="round"/>
  <ellipse cx="60" cy="82" rx="12" ry="7" fill="#FFB3B3" opacity="0.4"/>
  <ellipse cx="140" cy="82" rx="12" ry="7" fill="#FFB3B3" opacity="0.4"/>
  <path d="M45,42.25 C39,37 42,34 45,37.75 C48,34 51,37 45,42.25Z" fill="#FFB3B3"/>
  <path d="M160,46.8 C155.2,42.6 157.6,40.2 160,43.2 C162.4,40.2 164.8,42.6 160,46.8Z" fill="#FFD6D6"/>
</svg>