<svg xmlns="http://www.w3.org/2000/svg" viewBox="0 0 200 150" width="200" height="150">
  <defs>
    <linearGradient id="bg6014" gradientTransform="rotate(90)">
      <stop offset="0%" style="stop-color:#FFF3B0"/>
      <stop offset="100%" style="stop-color:#FFE566"/>
    </linearGradient>
  </defs>
  <rect width="200" height="150" fill="url(#bg6014)" rx="16"/>
  <circle cx="122.66970461660094" cy="19.80930941342649" r="3.567237595221627" fill="#FFF3B0" opacity="0.3"/><circle cx="158.2801219959947" cy="73.43124834123955" r="3.219392447146447" fill="#FFF3B0" opacity="0.3"/><circle cx="98.98875986036728" cy="17.581279048704346" r="4.421713782971892" fill="#FFF3B0" opacity="0.3"/><circle cx="112.21543348369778" cy="13.323714140460652" r="3.3782251036082016" fill="#FFF3B0" opacity="0.3"/><circle cx="132.8192984305133" cy="35.14435455451803" r="4.2749595605801005" fill="#FFF3B0" opacity="0.3"/><circle cx="2.3369286320303218" cy="121.63023330067517" r="4.961793067951476" fill="#FFF3B0" opacity="0.3"/>
  <circle cx="100" cy="75" r="48" fill="#FFE5D9" opacity="1"/>
  <circle cx="80" cy="68" r="8" fill="#333" opacity="1"/>
  <circle cx="120" cy="68" r="8" fill="#333" opacity="1"/>
  <circle cx="78" cy="65" r="3" fill="white" opacity="1"/>
  <circle cx="118" cy="65" r="3" fill="white" opacity="1"/>
  <path d="M72 92 Q100 115 128 92" stroke="#333" stroke-width="4" fill="none" stroke-linecap="round"/>
  <ellipse cx="60" cy="82" rx="12" ry="7" fill="#FFB3B3" opacity="0.4"/>
  <ellipse cx="140" cy="82" rx="12" ry="7" fill="#FFB3B3" opacity="0.4"/>
  <path d="M45,42.25 C39,37 42,34 45,37.75 C48,34 51,37 45,42.25Z" fill="#FFB3B3"/>
  <path d="M160,46.8 C155.2,42.6 157.6,40.2 160,43.2 C162.4,40.2 164.8,42.6 160,46.8Z" fill="#FFD6D6"/>
</svg>