<svg xmlns="http://www.w3.org/2000/svg" viewBox="0 0 200 150" width="200" height="150">
  <defs>
    <linearGradient id="bg6017" gradientTransform="rotate(0)">
      <stop offset="0%" style="stop-color:#FFE4EC"/>
      <stop offset="100%" style="stop-color:#FFC8DD"/>
    </linearGradient>
  </defs>
  <rect width="200" height="150" fill="url(#bg6017)" rx="16"/>
  <circle cx="141.29166501370491" cy="126.91820189297687" r="2.166553699040378" fill="#FFE4EC" opacity="0.3"/><circle cx="169.9415542634597" cy="130.50856051463597" r="4.517485504507931" fill="#FFE4EC" opacity="0.3"/><circle cx="48.15727965333281" cy="143.87180500934846" r="3.7356924297891965" fill="#FFE4EC" opacity="0.3"/><circle cx="105.2845135660391" cy="55.50967901508557" r="3.392656902444287" fill="#FFE4EC" opacity="0.3"/><circle cx="136.00274744821945" cy="46.48076112589479" r="2.343147652914922" fill="#FFE4EC" opacity="0.3"/><circle cx="194.02879111967195" cy="123.86032930623969" r="2.3507702879469434" fill="#FFE4EC" opacity="0.3"/>
  <circle cx="100" cy="75" r="48" fill="#FFE5D9" opacity="1"/>
  <circle cx="80" cy="68" r="8" fill="#333" opacity="1"/>
  <circle cx="120" cy="68" r="8" fill="#333" opacity="1"/>
  <circle cx="78" cy="65" r="3" fill="white" opacity="1"/>
  <circle cx="118" cy="65" r="3" fill="white" opacity="1"/>
  <path d="M72 92 Q100 115 128 92" stroke="#333" stroke-width="4" fill="none" stroke-linecap="round"/>
  <ellipse cx="60" cy="82" rx="12" ry="7" fill="#FFB3B3" opacity="0.4"/>
  <ellipse cx="140" cy="82" rx="12" ry="7" fill="#FFB3B3" opacity="0.4"/>
  <path d="M45,42.25 C39,37 42,34 45,37.75 C48,34 51,37 45,42.25Z" fill="#FFB3B3"/>
  <path d="M160,46.8 C155.2,42.6 157.6,40.2 160,43.2 C162.4,40.2 164.8,42.6 160,46.8Z" fill="#FFD6D6"/>
</svg>