<svg xmlns="http://www.w3.org/2000/svg" viewBox="0 0 200 150" width="200" height="150">
  <defs>
    <linearGradient id="bg6021" gradientTransform="rotate(45)">
      <stop offset="0%" style="stop-color:#FFF5EB"/>
      <stop offset="100%" style="stop-color:#FFE4CC"/>
    </linearGradient>
  </defs>
  <rect width="200" height="150" fill="url(#bg6021)" rx="16"/>
  <circle cx="62.2354652890408" cy="18.9848786647417" r="4.906947228196714" fill="#FFF5EB" opacity="0.3"/><circle cx="127.33805308653245" cy="44.744788091247756" r="3.5953920757965534" fill="#FFF5EB" opacity="0.3"/><circle cx="101.10999930329854" cy="47.63271893612" r="3.4896976295831337" fill="#FFF5EB" opacity="0.3"/><circle cx="153.67352950743225" cy="135.86257337465213" r="3.8436597974584856" fill="#FFF5EB" opacity="0.3"/><circle cx="135.2901921607554" cy="85.70893884734687" r="3.0539319952183632" fill="#FFF5EB" opacity="0.3"/><circle cx="157.84635716736375" cy="124.47505027530497" r="3.629156155500368" fill="#FFF5EB" opacity="0.3"/>
  <circle cx="100" cy="75" r="48" fill="#FFE5D9" opacity="1"/>
  <circle cx="80" cy="68" r="8" fill="#333" opacity="1"/>
  <circle cx="120" cy="68" r="8" fill="#333" opacity="1"/>
  <circle cx="78" cy="65" r="3" fill="white" opacity="1"/>
  <circle cx="118" cy="65" r="3" fill="white" opacity="1"/>
  <path d="M72 92 Q100 115 128 92" stroke="#333" stroke-width="4" fill="none" stroke-linecap="round"/>
  <ellipse cx="60" cy="82" rx="12" ry="7" fill="#FFB3B3" opacity="0.4"/>
  <ellipse cx="140" cy="82" rx="12" ry="7" fill="#FFB3B3" opacity="0.4"/>
  <path d="M45,42.25 C39,37 42,34 45,37.75 C48,34 51,37 45,42.25Z" fill="#FFB3B3"/>
  <path d="M160,46.8 C155.2,42.6 157.6,40.2 160,43.2 C162.4,40.2 164.8,42.6 160,46.8Z" fill="#FFD6D6"/>
</svg>