<svg xmlns="http://www.w3.org/2000/svg" viewBox="0 0 200 150" width="200" height="150">
  <defs>
    <linearGradient id="bg6032" gradientTransform="rotate(0)">
      <stop offset="0%" style="stop-color:#E0F4FF"/>
      <stop offset="100%" style="stop-color:#BAE6FD"/>
    </linearGradient>
  </defs>
  <rect width="200" height="150" fill="url(#bg6032)" rx="16"/>
  <circle cx="33.5397179922893" cy="38.78190874465872" r="4.750848738940817" fill="#E0F4FF" opacity="0.3"/><circle cx="46.25406621435104" cy="64.24426287021561" r="4.424867952910972" fill="#E0F4FF" opacity="0.3"/><circle cx="145.04149234326178" cy="147.62907527920106" r="3.8368390795058076" fill="#E0F4FF" opacity="0.3"/><circle cx="160.77876835406641" cy="146.44643483397886" r="2.786975742953018" fill="#E0F4FF" opacity="0.3"/><circle cx="115.2729468749385" cy="84.08537998620886" r="3.9265124828798434" fill="#E0F4FF" opacity="0.3"/><circle cx="119.94502696220479" cy="32.90663260995643" r="3.478843851818965" fill="#E0F4FF" opacity="0.3"/>
  <circle cx="100" cy="75" r="48" fill="#FFE5D9" opacity="1"/>
  <circle cx="80" cy="68" r="8" fill="#333" opacity="1"/>
  <circle cx="120" cy="68" r="8" fill="#333" opacity="1"/>
  <circle cx="78" cy="65" r="3" fill="white" opacity="1"/>
  <circle cx="118" cy="65" r="3" fill="white" opacity="1"/>
  <path d="M72 92 Q100 115 128 92" stroke="#333" stroke-width="4" fill="none" stroke-linecap="round"/>
  <ellipse cx="60" cy="82" rx="12" ry="7" fill="#FFB3B3" opacity="0.4"/>
  <ellipse cx="140" cy="82" rx="12" ry="7" fill="#FFB3B3" opacity="0.4"/>
  <path d="M45,42.25 C39,37 42,34 45,37.75 C48,34 51,37 45,42.25Z" fill="#FFB3B3"/>
  <path d="M160,46.8 C155.2,42.6 157.6,40.2 160,43.2 C162.4,40.2 164.8,42.6 160,46.8Z" fill="#FFD6D6"/>
</svg>