<svg xmlns="http://www.w3.org/2000/svg" viewBox="0 0 200 150" width="200" height="150">
  <defs>
    <linearGradient id="bg604" gradientTransform="rotate(45)">
      <stop offset="0%" style="stop-color:#FFE4EC"/>
      <stop offset="100%" style="stop-color:#FFC8DD"/>
    </linearGradient>
  </defs>
  <rect width="200" height="150" fill="url(#bg604)" rx="16"/>
  <rect x="0" y="100" width="200" height="50" rx="0" fill="#C5DBC5"/>
  <circle cx="165" cy="35" r="22" fill="#FFE566" opacity="1"/>
  <line x1="191" y1="35" x2="200" y2="35" stroke="#FFF3B0" stroke-width="3" stroke-linecap="round"/>
  <line x1="183.38477631085024" y1="53.384776310850235" x2="189.74873734152916" y2="59.748737341529164" stroke="#FFF3B0" stroke-width="3" stroke-linecap="round"/>
  <line x1="165" y1="61" x2="165" y2="70" stroke="#FFF3B0" stroke-width="3" stroke-linecap="round"/>
  <line x1="146.61522368914976" y1="53.38477631085024" x2="140.25126265847084" y2="59.748737341529164" stroke="#FFF3B0" stroke-width="3" stroke-linecap="round"/>
  <line x1="139" y1="35" x2="130" y2="35.00000000000001" stroke="#FFF3B0" stroke-width="3" stroke-linecap="round"/>
  <line x1="146.61522368914976" y1="16.615223689149765" x2="140.25126265847084" y2="10.25126265847084" stroke="#FFF3B0" stroke-width="3" stroke-linecap="round"/>
  <line x1="165" y1="9" x2="165" y2="0" stroke="#FFF3B0" stroke-width="3" stroke-linecap="round"/>
  <line x1="183.38477631085024" y1="16.61522368914976" x2="189.74873734152916" y2="10.251262658470832" stroke="#FFF3B0" stroke-width="3" stroke-linecap="round"/>
  <rect x="90" y="55" width="14" height="50" rx="2" fill="#8B6914"/>
  <path d="M76.62790431528265,39.16554070833445 Q86.62790431528265,51.16554070833445 76.62790431528265,63.16554070833445 Q66.62790431528265,51.16554070833445 76.62790431528265,39.16554070833445Z" fill="#B7E4C7"/>
  <path d="M88.1485663277781,39.54119601347702 Q98.1485663277781,51.54119601347702 88.1485663277781,63.54119601347702 Q78.1485663277781,51.54119601347702 88.1485663277781,39.54119601347702Z" fill="#95D5B2"/>
  <path d="M102.36207818088587,42.948824367966154 Q112.36207818088587,54.948824367966154 102.36207818088587,66.94882436796615 Q92.36207818088587,54.948824367966154 102.36207818088587,42.948824367966154Z" fill="#B7E4C7"/>
  <path d="M111.9964368492474,31.10556369378901 Q121.9964368492474,43.10556369378901 111.9964368492474,55.10556369378901 Q101.9964368492474,43.10556369378901 111.9964368492474,31.10556369378901Z" fill="#95D5B2"/>
  <path d="M129.08981312789547,28.045877437987656 Q139.08981312789547,40.045877437987656 129.08981312789547,52.045877437987656 Q119.08981312789547,40.045877437987656 129.08981312789547,28.045877437987656Z" fill="#B7E4C7"/>
  <circle cx="45" cy="95" r="8" fill="#FFB3B3" opacity="1"/>
  <circle cx="155" cy="98" r="6" fill="#C9B8E8" opacity="1"/>
</svg>