<svg xmlns="http://www.w3.org/2000/svg" viewBox="0 0 200 150" width="200" height="150">
  <defs>
    <linearGradient id="bg6043" gradientTransform="rotate(180)">
      <stop offset="0%" style="stop-color:#E8F0E8"/>
      <stop offset="100%" style="stop-color:#C5DBC5"/>
    </linearGradient>
  </defs>
  <rect width="200" height="150" fill="url(#bg6043)" rx="16"/>
  <circle cx="152.4865486575436" cy="30.15125177776099" r="4.9820710433650675" fill="#E8F0E8" opacity="0.3"/><circle cx="33.86485748405903" cy="82.7272597602132" r="2.0944518758624326" fill="#E8F0E8" opacity="0.3"/><circle cx="56.504938084617606" cy="33.49400821562085" r="3.061168296384494" fill="#E8F0E8" opacity="0.3"/><circle cx="44.70475800262648" cy="75.96597790465012" r="2.2826872272944456" fill="#E8F0E8" opacity="0.3"/><circle cx="47.348235222671065" cy="80.96673254090092" r="3.306491650851058" fill="#E8F0E8" opacity="0.3"/><circle cx="132.60916564104264" cy="125.32512125235371" r="2.8242446879430645" fill="#E8F0E8" opacity="0.3"/>
  <circle cx="100" cy="75" r="48" fill="#FFE5D9" opacity="1"/>
  <circle cx="80" cy="68" r="8" fill="#333" opacity="1"/>
  <circle cx="120" cy="68" r="8" fill="#333" opacity="1"/>
  <circle cx="78" cy="65" r="3" fill="white" opacity="1"/>
  <circle cx="118" cy="65" r="3" fill="white" opacity="1"/>
  <path d="M72 92 Q100 115 128 92" stroke="#333" stroke-width="4" fill="none" stroke-linecap="round"/>
  <ellipse cx="60" cy="82" rx="12" ry="7" fill="#FFB3B3" opacity="0.4"/>
  <ellipse cx="140" cy="82" rx="12" ry="7" fill="#FFB3B3" opacity="0.4"/>
  <path d="M45,42.25 C39,37 42,34 45,37.75 C48,34 51,37 45,42.25Z" fill="#FFB3B3"/>
  <path d="M160,46.8 C155.2,42.6 157.6,40.2 160,43.2 C162.4,40.2 164.8,42.6 160,46.8Z" fill="#FFD6D6"/>
</svg>