<svg xmlns="http://www.w3.org/2000/svg" viewBox="0 0 200 150" width="200" height="150">
  <defs>
    <linearGradient id="bg6049" gradientTransform="rotate(135)">
      <stop offset="0%" style="stop-color:#E2D9F3"/>
      <stop offset="100%" style="stop-color:#C9B8E8"/>
    </linearGradient>
  </defs>
  <rect width="200" height="150" fill="url(#bg6049)" rx="16"/>
  <circle cx="164.10663940678205" cy="101.86190677859486" r="4.563059035876677" fill="#E2D9F3" opacity="0.3"/><circle cx="3.5283687254377583" cy="1.7967874793271221" r="3.532500140758202" fill="#E2D9F3" opacity="0.3"/><circle cx="31.88030084083948" cy="88.79900733145405" r="3.3197691972472967" fill="#E2D9F3" opacity="0.3"/><circle cx="76.03432359653652" cy="103.85982255271529" r="2.4729541695442094" fill="#E2D9F3" opacity="0.3"/><circle cx="85.00022257412638" cy="84.2851039834386" r="2.049166092681844" fill="#E2D9F3" opacity="0.3"/><circle cx="36.06257726203239" cy="31.10895112858998" r="3.5461984860685334" fill="#E2D9F3" opacity="0.3"/>
  <circle cx="100" cy="75" r="48" fill="#FFE5D9" opacity="1"/>
  <circle cx="80" cy="68" r="8" fill="#333" opacity="1"/>
  <circle cx="120" cy="68" r="8" fill="#333" opacity="1"/>
  <circle cx="78" cy="65" r="3" fill="white" opacity="1"/>
  <circle cx="118" cy="65" r="3" fill="white" opacity="1"/>
  <path d="M72 92 Q100 115 128 92" stroke="#333" stroke-width="4" fill="none" stroke-linecap="round"/>
  <ellipse cx="60" cy="82" rx="12" ry="7" fill="#FFB3B3" opacity="0.4"/>
  <ellipse cx="140" cy="82" rx="12" ry="7" fill="#FFB3B3" opacity="0.4"/>
  <path d="M45,42.25 C39,37 42,34 45,37.75 C48,34 51,37 45,42.25Z" fill="#FFB3B3"/>
  <path d="M160,46.8 C155.2,42.6 157.6,40.2 160,43.2 C162.4,40.2 164.8,42.6 160,46.8Z" fill="#FFD6D6"/>
</svg>