<svg xmlns="http://www.w3.org/2000/svg" viewBox="0 0 200 150" width="200" height="150">
  <defs>
    <linearGradient id="bg6058" gradientTransform="rotate(45)">
      <stop offset="0%" style="stop-color:#E2D9F3"/>
      <stop offset="100%" style="stop-color:#C9B8E8"/>
    </linearGradient>
  </defs>
  <rect width="200" height="150" fill="url(#bg6058)" rx="16"/>
  <circle cx="25.281150184491707" cy="105.5249637694942" r="4.2085732890882355" fill="#E2D9F3" opacity="0.3"/><circle cx="188.7065670283846" cy="38.04800740508654" r="3.006968287217205" fill="#E2D9F3" opacity="0.3"/><circle cx="48.58661830803612" cy="93.96675604098164" r="2.4724263788659755" fill="#E2D9F3" opacity="0.3"/><circle cx="191.81963353039464" cy="88.93777050831346" r="2.8837734126227588" fill="#E2D9F3" opacity="0.3"/><circle cx="70.09911304212437" cy="11.85189246889422" r="2.578292049951415" fill="#E2D9F3" opacity="0.3"/><circle cx="88.91500213794643" cy="87.78043906090716" r="2.9208914195951365" fill="#E2D9F3" opacity="0.3"/>
  <circle cx="100" cy="75" r="48" fill="#FFE5D9" opacity="1"/>
  <circle cx="80" cy="68" r="8" fill="#333" opacity="1"/>
  <circle cx="120" cy="68" r="8" fill="#333" opacity="1"/>
  <circle cx="78" cy="65" r="3" fill="white" opacity="1"/>
  <circle cx="118" cy="65" r="3" fill="white" opacity="1"/>
  <path d="M72 92 Q100 115 128 92" stroke="#333" stroke-width="4" fill="none" stroke-linecap="round"/>
  <ellipse cx="60" cy="82" rx="12" ry="7" fill="#FFB3B3" opacity="0.4"/>
  <ellipse cx="140" cy="82" rx="12" ry="7" fill="#FFB3B3" opacity="0.4"/>
  <path d="M45,42.25 C39,37 42,34 45,37.75 C48,34 51,37 45,42.25Z" fill="#FFB3B3"/>
  <path d="M160,46.8 C155.2,42.6 157.6,40.2 160,43.2 C162.4,40.2 164.8,42.6 160,46.8Z" fill="#FFD6D6"/>
</svg>