<svg xmlns="http://www.w3.org/2000/svg" viewBox="0 0 200 150" width="200" height="150">
  <defs>
    <linearGradient id="bg6062" gradientTransform="rotate(0)">
      <stop offset="0%" style="stop-color:#FFD6D6"/>
      <stop offset="100%" style="stop-color:#FFB3B3"/>
    </linearGradient>
  </defs>
  <rect width="200" height="150" fill="url(#bg6062)" rx="16"/>
  <circle cx="87.9285311419153" cy="86.17380045070604" r="4.84723496571587" fill="#FFD6D6" opacity="0.3"/><circle cx="180.41463990689408" cy="117.54181126457297" r="2.0205545187611733" fill="#FFD6D6" opacity="0.3"/><circle cx="98.7225466656362" cy="4.227388515573693" r="4.332962459933697" fill="#FFD6D6" opacity="0.3"/><circle cx="194.09823628598735" cy="18.64986754203528" r="3.3658068917229684" fill="#FFD6D6" opacity="0.3"/><circle cx="37.00448965373653" cy="79.68038284307113" r="3.4544183175592025" fill="#FFD6D6" opacity="0.3"/><circle cx="103.81869324519357" cy="103.84692354236904" r="4.3115628285745515" fill="#FFD6D6" opacity="0.3"/>
  <circle cx="100" cy="75" r="48" fill="#FFE5D9" opacity="1"/>
  <circle cx="80" cy="68" r="8" fill="#333" opacity="1"/>
  <circle cx="120" cy="68" r="8" fill="#333" opacity="1"/>
  <circle cx="78" cy="65" r="3" fill="white" opacity="1"/>
  <circle cx="118" cy="65" r="3" fill="white" opacity="1"/>
  <path d="M72 92 Q100 115 128 92" stroke="#333" stroke-width="4" fill="none" stroke-linecap="round"/>
  <ellipse cx="60" cy="82" rx="12" ry="7" fill="#FFB3B3" opacity="0.4"/>
  <ellipse cx="140" cy="82" rx="12" ry="7" fill="#FFB3B3" opacity="0.4"/>
  <path d="M45,42.25 C39,37 42,34 45,37.75 C48,34 51,37 45,42.25Z" fill="#FFB3B3"/>
  <path d="M160,46.8 C155.2,42.6 157.6,40.2 160,43.2 C162.4,40.2 164.8,42.6 160,46.8Z" fill="#FFD6D6"/>
</svg>