<svg xmlns="http://www.w3.org/2000/svg" viewBox="0 0 200 150" width="200" height="150">
  <defs>
    <linearGradient id="bg6065" gradientTransform="rotate(0)">
      <stop offset="0%" style="stop-color:#E8F0E8"/>
      <stop offset="100%" style="stop-color:#C5DBC5"/>
    </linearGradient>
  </defs>
  <rect width="200" height="150" fill="url(#bg6065)" rx="16"/>
  <circle cx="103.76371654056129" cy="88.63821382033166" r="4.366203400388258" fill="#E8F0E8" opacity="0.3"/><circle cx="185.46121343133564" cy="109.74693168918748" r="3.486035785768763" fill="#E8F0E8" opacity="0.3"/><circle cx="182.95767864583468" cy="81.99912572322319" r="2.521842392250619" fill="#E8F0E8" opacity="0.3"/><circle cx="32.421242723285104" cy="104.38721619609623" r="4.2608668855928045" fill="#E8F0E8" opacity="0.3"/><circle cx="170.28047588537447" cy="145.29738615615315" r="3.4781608971752576" fill="#E8F0E8" opacity="0.3"/><circle cx="142.14440356699924" cy="31.394276397077192" r="3.113585913973111" fill="#E8F0E8" opacity="0.3"/>
  <circle cx="100" cy="75" r="48" fill="#FFE5D9" opacity="1"/>
  <circle cx="80" cy="68" r="8" fill="#333" opacity="1"/>
  <circle cx="120" cy="68" r="8" fill="#333" opacity="1"/>
  <circle cx="78" cy="65" r="3" fill="white" opacity="1"/>
  <circle cx="118" cy="65" r="3" fill="white" opacity="1"/>
  <path d="M72 92 Q100 115 128 92" stroke="#333" stroke-width="4" fill="none" stroke-linecap="round"/>
  <ellipse cx="60" cy="82" rx="12" ry="7" fill="#FFB3B3" opacity="0.4"/>
  <ellipse cx="140" cy="82" rx="12" ry="7" fill="#FFB3B3" opacity="0.4"/>
  <path d="M45,42.25 C39,37 42,34 45,37.75 C48,34 51,37 45,42.25Z" fill="#FFB3B3"/>
  <path d="M160,46.8 C155.2,42.6 157.6,40.2 160,43.2 C162.4,40.2 164.8,42.6 160,46.8Z" fill="#FFD6D6"/>
</svg>