<svg xmlns="http://www.w3.org/2000/svg" viewBox="0 0 200 150" width="200" height="150">
  <defs>
    <linearGradient id="bg6068" gradientTransform="rotate(135)">
      <stop offset="0%" style="stop-color:#FFE5D9"/>
      <stop offset="100%" style="stop-color:#FFCDB2"/>
    </linearGradient>
  </defs>
  <rect width="200" height="150" fill="url(#bg6068)" rx="16"/>
  <circle cx="158.4369849992072" cy="74.41686478332485" r="3.144656060852867" fill="#FFE5D9" opacity="0.3"/><circle cx="118.15461108308227" cy="110.88050385428687" r="4.98428264190261" fill="#FFE5D9" opacity="0.3"/><circle cx="69.65024251949217" cy="79.83976565260491" r="4.4058801930423215" fill="#FFE5D9" opacity="0.3"/><circle cx="109.88630836072844" cy="41.92016835704635" r="2.825305592256882" fill="#FFE5D9" opacity="0.3"/><circle cx="189.95246828126255" cy="56.4911162298813" r="2.6758289769641124" fill="#FFE5D9" opacity="0.3"/><circle cx="152.07806678445195" cy="114.66330078283136" r="4.318626953641342" fill="#FFE5D9" opacity="0.3"/>
  <circle cx="100" cy="75" r="48" fill="#FFE5D9" opacity="1"/>
  <circle cx="80" cy="68" r="8" fill="#333" opacity="1"/>
  <circle cx="120" cy="68" r="8" fill="#333" opacity="1"/>
  <circle cx="78" cy="65" r="3" fill="white" opacity="1"/>
  <circle cx="118" cy="65" r="3" fill="white" opacity="1"/>
  <path d="M72 92 Q100 115 128 92" stroke="#333" stroke-width="4" fill="none" stroke-linecap="round"/>
  <ellipse cx="60" cy="82" rx="12" ry="7" fill="#FFB3B3" opacity="0.4"/>
  <ellipse cx="140" cy="82" rx="12" ry="7" fill="#FFB3B3" opacity="0.4"/>
  <path d="M45,42.25 C39,37 42,34 45,37.75 C48,34 51,37 45,42.25Z" fill="#FFB3B3"/>
  <path d="M160,46.8 C155.2,42.6 157.6,40.2 160,43.2 C162.4,40.2 164.8,42.6 160,46.8Z" fill="#FFD6D6"/>
</svg>