<svg xmlns="http://www.w3.org/2000/svg" viewBox="0 0 200 150" width="200" height="150">
  <defs>
    <linearGradient id="bg6073" gradientTransform="rotate(90)">
      <stop offset="0%" style="stop-color:#FFF3B0"/>
      <stop offset="100%" style="stop-color:#FFE566"/>
    </linearGradient>
  </defs>
  <rect width="200" height="150" fill="url(#bg6073)" rx="16"/>
  <circle cx="172.15048382531677" cy="61.284967143637914" r="2.1236247516853837" fill="#FFF3B0" opacity="0.3"/><circle cx="19.349276885077415" cy="70.0763573051745" r="2.4904756461105535" fill="#FFF3B0" opacity="0.3"/><circle cx="170.03776696883506" cy="42.44498782386472" r="3.975521201087872" fill="#FFF3B0" opacity="0.3"/><circle cx="155.98998159948678" cy="32.82762338003522" r="4.000931800905164" fill="#FFF3B0" opacity="0.3"/><circle cx="74.94763765789685" cy="146.1973476665662" r="3.104845788955572" fill="#FFF3B0" opacity="0.3"/><circle cx="120.47089046245674" cy="22.212283166709312" r="4.515447294822934" fill="#FFF3B0" opacity="0.3"/>
  <circle cx="100" cy="75" r="48" fill="#FFE5D9" opacity="1"/>
  <circle cx="80" cy="68" r="8" fill="#333" opacity="1"/>
  <circle cx="120" cy="68" r="8" fill="#333" opacity="1"/>
  <circle cx="78" cy="65" r="3" fill="white" opacity="1"/>
  <circle cx="118" cy="65" r="3" fill="white" opacity="1"/>
  <path d="M72 92 Q100 115 128 92" stroke="#333" stroke-width="4" fill="none" stroke-linecap="round"/>
  <ellipse cx="60" cy="82" rx="12" ry="7" fill="#FFB3B3" opacity="0.4"/>
  <ellipse cx="140" cy="82" rx="12" ry="7" fill="#FFB3B3" opacity="0.4"/>
  <path d="M45,42.25 C39,37 42,34 45,37.75 C48,34 51,37 45,42.25Z" fill="#FFB3B3"/>
  <path d="M160,46.8 C155.2,42.6 157.6,40.2 160,43.2 C162.4,40.2 164.8,42.6 160,46.8Z" fill="#FFD6D6"/>
</svg>