<svg xmlns="http://www.w3.org/2000/svg" viewBox="0 0 200 150" width="200" height="150">
  <defs>
    <linearGradient id="bg6074" gradientTransform="rotate(0)">
      <stop offset="0%" style="stop-color:#FFD6D6"/>
      <stop offset="100%" style="stop-color:#FFB3B3"/>
    </linearGradient>
  </defs>
  <rect width="200" height="150" fill="url(#bg6074)" rx="16"/>
  <circle cx="195.5478019423026" cy="74.25389822874422" r="3.599754128863424" fill="#FFD6D6" opacity="0.3"/><circle cx="33.54020512815623" cy="43.52715984509814" r="4.565521697139047" fill="#FFD6D6" opacity="0.3"/><circle cx="46.95964901329717" cy="80.9869502579204" r="4.7798329595880205" fill="#FFD6D6" opacity="0.3"/><circle cx="12.244725862365158" cy="12.462087817948486" r="3.733418188863652" fill="#FFD6D6" opacity="0.3"/><circle cx="160.08515404864738" cy="2.4488045950647575" r="2.632771946786306" fill="#FFD6D6" opacity="0.3"/><circle cx="126.82833084763843" cy="76.71721186798095" r="2.8109956976350077" fill="#FFD6D6" opacity="0.3"/>
  <circle cx="100" cy="75" r="48" fill="#FFE5D9" opacity="1"/>
  <circle cx="80" cy="68" r="8" fill="#333" opacity="1"/>
  <circle cx="120" cy="68" r="8" fill="#333" opacity="1"/>
  <circle cx="78" cy="65" r="3" fill="white" opacity="1"/>
  <circle cx="118" cy="65" r="3" fill="white" opacity="1"/>
  <path d="M72 92 Q100 115 128 92" stroke="#333" stroke-width="4" fill="none" stroke-linecap="round"/>
  <ellipse cx="60" cy="82" rx="12" ry="7" fill="#FFB3B3" opacity="0.4"/>
  <ellipse cx="140" cy="82" rx="12" ry="7" fill="#FFB3B3" opacity="0.4"/>
  <path d="M45,42.25 C39,37 42,34 45,37.75 C48,34 51,37 45,42.25Z" fill="#FFB3B3"/>
  <path d="M160,46.8 C155.2,42.6 157.6,40.2 160,43.2 C162.4,40.2 164.8,42.6 160,46.8Z" fill="#FFD6D6"/>
</svg>