<svg xmlns="http://www.w3.org/2000/svg" viewBox="0 0 200 150" width="200" height="150">
  <defs>
    <linearGradient id="bg6075" gradientTransform="rotate(90)">
      <stop offset="0%" style="stop-color:#D4E9FF"/>
      <stop offset="100%" style="stop-color:#A8D0F0"/>
    </linearGradient>
  </defs>
  <rect width="200" height="150" fill="url(#bg6075)" rx="16"/>
  <circle cx="96.8820695339673" cy="25.762015812321692" r="3.905586256245442" fill="#D4E9FF" opacity="0.3"/><circle cx="24.981384734564926" cy="4.6442928700344055" r="4.329761236276681" fill="#D4E9FF" opacity="0.3"/><circle cx="85.30191359641321" cy="67.02257610968445" r="3.111597716909273" fill="#D4E9FF" opacity="0.3"/><circle cx="111.88807631770032" cy="16.56722552897918" r="4.728165087110028" fill="#D4E9FF" opacity="0.3"/><circle cx="35.117124422686175" cy="140.2858513494266" r="2.012036963720675" fill="#D4E9FF" opacity="0.3"/><circle cx="78.67500721422402" cy="120.54511116766662" r="3.730585252970741" fill="#D4E9FF" opacity="0.3"/>
  <circle cx="100" cy="75" r="48" fill="#FFE5D9" opacity="1"/>
  <circle cx="80" cy="68" r="8" fill="#333" opacity="1"/>
  <circle cx="120" cy="68" r="8" fill="#333" opacity="1"/>
  <circle cx="78" cy="65" r="3" fill="white" opacity="1"/>
  <circle cx="118" cy="65" r="3" fill="white" opacity="1"/>
  <path d="M72 92 Q100 115 128 92" stroke="#333" stroke-width="4" fill="none" stroke-linecap="round"/>
  <ellipse cx="60" cy="82" rx="12" ry="7" fill="#FFB3B3" opacity="0.4"/>
  <ellipse cx="140" cy="82" rx="12" ry="7" fill="#FFB3B3" opacity="0.4"/>
  <path d="M45,42.25 C39,37 42,34 45,37.75 C48,34 51,37 45,42.25Z" fill="#FFB3B3"/>
  <path d="M160,46.8 C155.2,42.6 157.6,40.2 160,43.2 C162.4,40.2 164.8,42.6 160,46.8Z" fill="#FFD6D6"/>
</svg>