<svg xmlns="http://www.w3.org/2000/svg" viewBox="0 0 200 150" width="200" height="150">
  <defs>
    <linearGradient id="bg6079" gradientTransform="rotate(90)">
      <stop offset="0%" style="stop-color:#F0F7FF"/>
      <stop offset="100%" style="stop-color:#DCE8F5"/>
    </linearGradient>
  </defs>
  <rect width="200" height="150" fill="url(#bg6079)" rx="16"/>
  <circle cx="10.242522476619342" cy="31.776498608087422" r="2.909724108882074" fill="#F0F7FF" opacity="0.3"/><circle cx="0.26429395111335907" cy="90.24924038849349" r="4.836576100204184" fill="#F0F7FF" opacity="0.3"/><circle cx="84.27487236895104" cy="50.28214955345902" r="4.0890082051437275" fill="#F0F7FF" opacity="0.3"/><circle cx="47.473799290673924" cy="6.552471563600193" r="3.856373485377844" fill="#F0F7FF" opacity="0.3"/><circle cx="75.3963575583839" cy="32.127032694734226" r="4.707025276603417" fill="#F0F7FF" opacity="0.3"/><circle cx="121.33315074497659" cy="75.01011893527902" r="3.4981110000562694" fill="#F0F7FF" opacity="0.3"/>
  <circle cx="100" cy="75" r="48" fill="#FFE5D9" opacity="1"/>
  <circle cx="80" cy="68" r="8" fill="#333" opacity="1"/>
  <circle cx="120" cy="68" r="8" fill="#333" opacity="1"/>
  <circle cx="78" cy="65" r="3" fill="white" opacity="1"/>
  <circle cx="118" cy="65" r="3" fill="white" opacity="1"/>
  <path d="M72 92 Q100 115 128 92" stroke="#333" stroke-width="4" fill="none" stroke-linecap="round"/>
  <ellipse cx="60" cy="82" rx="12" ry="7" fill="#FFB3B3" opacity="0.4"/>
  <ellipse cx="140" cy="82" rx="12" ry="7" fill="#FFB3B3" opacity="0.4"/>
  <path d="M45,42.25 C39,37 42,34 45,37.75 C48,34 51,37 45,42.25Z" fill="#FFB3B3"/>
  <path d="M160,46.8 C155.2,42.6 157.6,40.2 160,43.2 C162.4,40.2 164.8,42.6 160,46.8Z" fill="#FFD6D6"/>
</svg>