<svg xmlns="http://www.w3.org/2000/svg" viewBox="0 0 200 150" width="200" height="150">
  <defs>
    <linearGradient id="bg6080" gradientTransform="rotate(90)">
      <stop offset="0%" style="stop-color:#E0F4FF"/>
      <stop offset="100%" style="stop-color:#BAE6FD"/>
    </linearGradient>
  </defs>
  <rect width="200" height="150" fill="url(#bg6080)" rx="16"/>
  <circle cx="98.97771004216338" cy="24.16758865247175" r="2.6490125119235017" fill="#E0F4FF" opacity="0.3"/><circle cx="13.98008588294033" cy="57.138231457520305" r="4.671620943357993" fill="#E0F4FF" opacity="0.3"/><circle cx="28.531028702127514" cy="0.3741999382782524" r="4.1416928352564355" fill="#E0F4FF" opacity="0.3"/><circle cx="126.46334155542718" cy="87.219548187295" r="3.666943577083657" fill="#E0F4FF" opacity="0.3"/><circle cx="41.74424559405452" cy="132.90632408652527" r="4.824136180638561" fill="#E0F4FF" opacity="0.3"/><circle cx="130.19766319994233" cy="64.04248115395603" r="3.445167206471524" fill="#E0F4FF" opacity="0.3"/>
  <circle cx="100" cy="75" r="48" fill="#FFE5D9" opacity="1"/>
  <circle cx="80" cy="68" r="8" fill="#333" opacity="1"/>
  <circle cx="120" cy="68" r="8" fill="#333" opacity="1"/>
  <circle cx="78" cy="65" r="3" fill="white" opacity="1"/>
  <circle cx="118" cy="65" r="3" fill="white" opacity="1"/>
  <path d="M72 92 Q100 115 128 92" stroke="#333" stroke-width="4" fill="none" stroke-linecap="round"/>
  <ellipse cx="60" cy="82" rx="12" ry="7" fill="#FFB3B3" opacity="0.4"/>
  <ellipse cx="140" cy="82" rx="12" ry="7" fill="#FFB3B3" opacity="0.4"/>
  <path d="M45,42.25 C39,37 42,34 45,37.75 C48,34 51,37 45,42.25Z" fill="#FFB3B3"/>
  <path d="M160,46.8 C155.2,42.6 157.6,40.2 160,43.2 C162.4,40.2 164.8,42.6 160,46.8Z" fill="#FFD6D6"/>
</svg>