<svg xmlns="http://www.w3.org/2000/svg" viewBox="0 0 200 150" width="200" height="150">
  <defs>
    <linearGradient id="bg6084" gradientTransform="rotate(90)">
      <stop offset="0%" style="stop-color:#D4E9FF"/>
      <stop offset="100%" style="stop-color:#A8D0F0"/>
    </linearGradient>
  </defs>
  <rect width="200" height="150" fill="url(#bg6084)" rx="16"/>
  <circle cx="90.30657461571536" cy="99.67750474224886" r="2.5571640070829744" fill="#D4E9FF" opacity="0.3"/><circle cx="146.42434805864468" cy="117.83363298178529" r="4.8631032536550265" fill="#D4E9FF" opacity="0.3"/><circle cx="84.91815692141245" cy="96.6997347713459" r="4.828139944853319" fill="#D4E9FF" opacity="0.3"/><circle cx="112.0951226197576" cy="16.75163262393653" r="3.312493302160874" fill="#D4E9FF" opacity="0.3"/><circle cx="88.57034503619161" cy="1.5885169441794744" r="2.537353609627644" fill="#D4E9FF" opacity="0.3"/><circle cx="34.9251793505573" cy="102.83059923458495" r="4.071525988968801" fill="#D4E9FF" opacity="0.3"/>
  <circle cx="100" cy="75" r="48" fill="#FFE5D9" opacity="1"/>
  <circle cx="80" cy="68" r="8" fill="#333" opacity="1"/>
  <circle cx="120" cy="68" r="8" fill="#333" opacity="1"/>
  <circle cx="78" cy="65" r="3" fill="white" opacity="1"/>
  <circle cx="118" cy="65" r="3" fill="white" opacity="1"/>
  <path d="M72 92 Q100 115 128 92" stroke="#333" stroke-width="4" fill="none" stroke-linecap="round"/>
  <ellipse cx="60" cy="82" rx="12" ry="7" fill="#FFB3B3" opacity="0.4"/>
  <ellipse cx="140" cy="82" rx="12" ry="7" fill="#FFB3B3" opacity="0.4"/>
  <path d="M45,42.25 C39,37 42,34 45,37.75 C48,34 51,37 45,42.25Z" fill="#FFB3B3"/>
  <path d="M160,46.8 C155.2,42.6 157.6,40.2 160,43.2 C162.4,40.2 164.8,42.6 160,46.8Z" fill="#FFD6D6"/>
</svg>