<svg xmlns="http://www.w3.org/2000/svg" viewBox="0 0 200 150" width="200" height="150">
  <defs>
    <linearGradient id="bg6095" gradientTransform="rotate(90)">
      <stop offset="0%" style="stop-color:#FFF3B0"/>
      <stop offset="100%" style="stop-color:#FFE566"/>
    </linearGradient>
  </defs>
  <rect width="200" height="150" fill="url(#bg6095)" rx="16"/>
  <circle cx="107.07948705526178" cy="70.17387918965596" r="3.0960661015869846" fill="#FFF3B0" opacity="0.3"/><circle cx="140.45280887949048" cy="79.02803455794611" r="2.6449764844687706" fill="#FFF3B0" opacity="0.3"/><circle cx="116.31984356235989" cy="18.67476540437565" r="4.243576883690366" fill="#FFF3B0" opacity="0.3"/><circle cx="117.0725477148153" cy="31.48525841852461" r="3.3560223456552194" fill="#FFF3B0" opacity="0.3"/><circle cx="123.73000369541387" cy="115.97832006559656" r="3.9776847355269638" fill="#FFF3B0" opacity="0.3"/><circle cx="18.07713760945262" cy="17.649172201709007" r="3.761339157110342" fill="#FFF3B0" opacity="0.3"/>
  <circle cx="100" cy="75" r="48" fill="#FFE5D9" opacity="1"/>
  <circle cx="80" cy="68" r="8" fill="#333" opacity="1"/>
  <circle cx="120" cy="68" r="8" fill="#333" opacity="1"/>
  <circle cx="78" cy="65" r="3" fill="white" opacity="1"/>
  <circle cx="118" cy="65" r="3" fill="white" opacity="1"/>
  <path d="M72 92 Q100 115 128 92" stroke="#333" stroke-width="4" fill="none" stroke-linecap="round"/>
  <ellipse cx="60" cy="82" rx="12" ry="7" fill="#FFB3B3" opacity="0.4"/>
  <ellipse cx="140" cy="82" rx="12" ry="7" fill="#FFB3B3" opacity="0.4"/>
  <path d="M45,42.25 C39,37 42,34 45,37.75 C48,34 51,37 45,42.25Z" fill="#FFB3B3"/>
  <path d="M160,46.8 C155.2,42.6 157.6,40.2 160,43.2 C162.4,40.2 164.8,42.6 160,46.8Z" fill="#FFD6D6"/>
</svg>