<svg xmlns="http://www.w3.org/2000/svg" viewBox="0 0 200 150" width="200" height="150">
  <defs>
    <linearGradient id="bg6096" gradientTransform="rotate(45)">
      <stop offset="0%" style="stop-color:#E2D9F3"/>
      <stop offset="100%" style="stop-color:#C9B8E8"/>
    </linearGradient>
  </defs>
  <rect width="200" height="150" fill="url(#bg6096)" rx="16"/>
  <circle cx="107.95525139913025" cy="47.61254864724833" r="2.9392630827869652" fill="#E2D9F3" opacity="0.3"/><circle cx="180.20226100707077" cy="128.79471666956306" r="2.510469024420672" fill="#E2D9F3" opacity="0.3"/><circle cx="52.547725617841934" cy="20.44172546043228" r="4.4162165590887525" fill="#E2D9F3" opacity="0.3"/><circle cx="51.95713309731218" cy="79.25676572385782" r="2.250175746901732" fill="#E2D9F3" opacity="0.3"/><circle cx="77.40764128375304" cy="124.79228729976057" r="3.586017633882875" fill="#E2D9F3" opacity="0.3"/><circle cx="175.33912747658178" cy="99.44439654201176" r="4.666508689602779" fill="#E2D9F3" opacity="0.3"/>
  <circle cx="100" cy="75" r="48" fill="#FFE5D9" opacity="1"/>
  <circle cx="80" cy="68" r="8" fill="#333" opacity="1"/>
  <circle cx="120" cy="68" r="8" fill="#333" opacity="1"/>
  <circle cx="78" cy="65" r="3" fill="white" opacity="1"/>
  <circle cx="118" cy="65" r="3" fill="white" opacity="1"/>
  <path d="M72 92 Q100 115 128 92" stroke="#333" stroke-width="4" fill="none" stroke-linecap="round"/>
  <ellipse cx="60" cy="82" rx="12" ry="7" fill="#FFB3B3" opacity="0.4"/>
  <ellipse cx="140" cy="82" rx="12" ry="7" fill="#FFB3B3" opacity="0.4"/>
  <path d="M45,42.25 C39,37 42,34 45,37.75 C48,34 51,37 45,42.25Z" fill="#FFB3B3"/>
  <path d="M160,46.8 C155.2,42.6 157.6,40.2 160,43.2 C162.4,40.2 164.8,42.6 160,46.8Z" fill="#FFD6D6"/>
</svg>