<svg xmlns="http://www.w3.org/2000/svg" viewBox="0 0 200 150" width="200" height="150">
  <defs>
    <linearGradient id="bg60960" gradientTransform="rotate(180)">
      <stop offset="0%" style="stop-color:#D8F3DC"/>
      <stop offset="100%" style="stop-color:#B7E4C7"/>
    </linearGradient>
  </defs>
  <rect width="200" height="150" fill="url(#bg60960)" rx="16"/>
  <rect x="0" y="0" width="200" height="150" rx="0" fill="#1a1a3e"/>
  <polygon points="60.76149882444497,21.989395590213462 61.53050263634215,23.54756750360931 63.250047434700704,23.797431988572892 62.00577312957284,25.010299676330565 62.29950644823933,26.72289633401539 60.76149882444497,25.914317875510278 59.223491200650614,26.72289633401539 59.517224519317104,25.010299676330565 58.27295021418924,23.79743198857289 59.99249501254779,23.54756750360931" fill="#FFF3B0"/>
  <polygon points="165.4601380947679,45.99443971157598 166.62612734459967,48.35699198024049 169.23335856825744,48.735844853106656 167.34674833151266,50.57483532820566 167.7921165944314,53.171531549037 165.4601380947679,51.945537898971 163.1281595951044,53.171531549037 163.57352785802314,50.57483532820566 161.68691762127835,48.735844853106656 164.29414884493613,48.35699198024049" fill="#FFF3B0"/>
  <polygon points="160.99082944847396,18.540007862683524 162.15161802662027,20.892022419537383 164.74722019486072,21.269185491739307 162.86902482166735,23.09997350211144 163.31240660476658,25.68508765688742 160.99082944847396,24.46456231663933 158.66925229218134,25.68508765688742 159.11263407528057,23.09997350211144 157.2344387020872,21.269185491739307 159.83004087032765,20.892022419537383" fill="#FFF3B0"/>
  <polygon points="89.35660965061288,10.95009828872594 90.54821519177447,13.364554832841366 93.21272618417721,13.751730943305038 91.28466791739504,15.631123262391652 91.73982073293607,18.28486780240561 89.35660965061288,17.0319395896812 86.9733985682897,18.28486780240561 87.42855138383072,15.631123262391652 85.50049311704855,13.751730943305036 88.16500410945129,13.364554832841366" fill="#FFF3B0"/>
  <polygon points="106.30469284709761,14.935216739747602 107.18046424276739,16.709723406914268 109.13874861623486,16.99427878276476 107.72172073166624,18.375539592187547 108.05623563843716,20.325911153311317 106.30469284709761,19.405070613696125 104.55315005575807,20.325911153311317 104.88766496252899,18.375539592187547 103.47063707796036,16.99427878276476 105.42892145142784,16.709723406914268" fill="#FFF3B0"/>
  <polygon points="182.28572988989072,11.544855735011879 183.6569885632979,14.32332928461921 186.72321617177255,14.76887823623941 184.50447303083163,16.931618278359505 185.02824723670508,19.98545622372 182.28572988989072,18.54362952897327 179.54321254307635,19.98545622372 180.0669867489498,16.931618278359505 177.8482436080089,14.768878236239408 180.91447121648355,14.32332928461921" fill="#FFF3B0"/>
  <polygon points="165.54987711588183,37.98466558684049 166.79124985767206,40.499961493554885 169.5670436937303,40.90330794772918 167.55846040480608,42.86119276401646 168.0326225994623,45.625770488652314 165.54987711588183,44.3205139444608 163.06713163230137,45.625770488652314 163.54129382695757,42.86119276401646 161.53271053803334,40.90330794772918 164.3085043740916,40.499961493554885" fill="#FFF3B0"/>
  <polygon points="41.53293095490881,39.786271145186674 42.170230132198355,41.077580320927964 43.59527441462247,41.28465137602236 42.564102684765636,42.28979539170949 42.807529309487904,43.709081517585425 41.53293095490881,43.038985507127336 40.25833260032971,43.709081517585425 40.50175922505198,42.28979539170949 39.47058749519514,41.28465137602236 40.89563177761926,41.077580320927964" fill="#FFF3B0"/>
  <polygon points="183.61724690877963,23.492423607664023 184.61205886101018,25.508132787638015 186.83652601102696,25.831366784965628 185.2268864599033,27.400377566952347 185.60687081324073,29.6158563435943 183.61724690877963,28.56984915560315 181.62762300431854,29.6158563435943 182.00760735765596,27.400377566952347 180.3979678065323,25.831366784965628 182.62243495654909,25.508132787638015" fill="#FFF3B0"/>
  <polygon points="67.90318041355931,21.493041657839058 69.26100119637626,24.24428706713154 72.29718076801693,24.68546978342315 70.10018059078813,26.82701567404963 70.61882197919321,29.85092699725933 67.90318041355931,28.423229736841677 65.18753884792541,29.85092699725933 65.7061802363305,26.82701567404963 63.50918005910169,24.685469783423148 66.54535963074237,24.24428706713154" fill="#FFF3B0"/>
  <path d="M155 25 A22 22 0 1 1 175 50 A18 18 0 1 0 155 25" fill="#FFE566"/>
  <rect x="35" y="75" width="130" height="50" rx="8" fill="#C9B8E8"/>
  <rect x="45" y="65" width="90" height="20" rx="8" fill="white"/>
  <rect x="40" y="90" width="120" height="30" rx="6" fill="#B7E4C7"/>
  <text x="170" y="75" fill="#E2D9F3" font-size="16" font-weight="bold">z</text>
  <text x="178" y="65" fill="#E2D9F3" font-size="13" font-weight="bold">z</text>
</svg>