<svg xmlns="http://www.w3.org/2000/svg" viewBox="0 0 200 150" width="200" height="150">
  <defs>
    <linearGradient id="bg6098" gradientTransform="rotate(0)">
      <stop offset="0%" style="stop-color:#FFF3B0"/>
      <stop offset="100%" style="stop-color:#FFE566"/>
    </linearGradient>
  </defs>
  <rect width="200" height="150" fill="url(#bg6098)" rx="16"/>
  <circle cx="74.58611481567914" cy="107.12432573754995" r="4.398126006323764" fill="#FFF3B0" opacity="0.3"/><circle cx="29.555065374370315" cy="84.4981472569998" r="4.306752748094368" fill="#FFF3B0" opacity="0.3"/><circle cx="160.97114968106325" cy="5.817480260247976" r="4.188323018627216" fill="#FFF3B0" opacity="0.3"/><circle cx="71.89210562391963" cy="6.4586391053126135" r="3.3765920987880236" fill="#FFF3B0" opacity="0.3"/><circle cx="152.56185734699557" cy="122.81213497362842" r="4.362332688343486" fill="#FFF3B0" opacity="0.3"/><circle cx="59.80760030379315" cy="7.133560029888031" r="4.234807178598203" fill="#FFF3B0" opacity="0.3"/>
  <circle cx="100" cy="75" r="48" fill="#FFE5D9" opacity="1"/>
  <circle cx="80" cy="68" r="8" fill="#333" opacity="1"/>
  <circle cx="120" cy="68" r="8" fill="#333" opacity="1"/>
  <circle cx="78" cy="65" r="3" fill="white" opacity="1"/>
  <circle cx="118" cy="65" r="3" fill="white" opacity="1"/>
  <path d="M72 92 Q100 115 128 92" stroke="#333" stroke-width="4" fill="none" stroke-linecap="round"/>
  <ellipse cx="60" cy="82" rx="12" ry="7" fill="#FFB3B3" opacity="0.4"/>
  <ellipse cx="140" cy="82" rx="12" ry="7" fill="#FFB3B3" opacity="0.4"/>
  <path d="M45,42.25 C39,37 42,34 45,37.75 C48,34 51,37 45,42.25Z" fill="#FFB3B3"/>
  <path d="M160,46.8 C155.2,42.6 157.6,40.2 160,43.2 C162.4,40.2 164.8,42.6 160,46.8Z" fill="#FFD6D6"/>
</svg>