<svg xmlns="http://www.w3.org/2000/svg" viewBox="0 0 200 150" width="200" height="150">
  <defs>
    <linearGradient id="bg6104" gradientTransform="rotate(0)">
      <stop offset="0%" style="stop-color:#F0F7FF"/>
      <stop offset="100%" style="stop-color:#DCE8F5"/>
    </linearGradient>
  </defs>
  <rect width="200" height="150" fill="url(#bg6104)" rx="16"/>
  <circle cx="112.0923702125765" cy="127.88851912284827" r="3.236391560678385" fill="#F0F7FF" opacity="0.3"/><circle cx="158.34445439086267" cy="75.83124225543543" r="4.586099999762951" fill="#F0F7FF" opacity="0.3"/><circle cx="10.991502997785574" cy="43.62118756775999" r="4.946744278958249" fill="#F0F7FF" opacity="0.3"/><circle cx="28.53950698299741" cy="35.70184148588851" r="3.2602195194549495" fill="#F0F7FF" opacity="0.3"/><circle cx="108.01518005882826" cy="72.98376178741819" r="4.954250549242715" fill="#F0F7FF" opacity="0.3"/><circle cx="193.0447593833378" cy="93.5869703203025" r="3.1772671781509416" fill="#F0F7FF" opacity="0.3"/>
  <circle cx="100" cy="75" r="48" fill="#FFE5D9" opacity="1"/>
  <circle cx="80" cy="68" r="8" fill="#333" opacity="1"/>
  <circle cx="120" cy="68" r="8" fill="#333" opacity="1"/>
  <circle cx="78" cy="65" r="3" fill="white" opacity="1"/>
  <circle cx="118" cy="65" r="3" fill="white" opacity="1"/>
  <path d="M72 92 Q100 115 128 92" stroke="#333" stroke-width="4" fill="none" stroke-linecap="round"/>
  <ellipse cx="60" cy="82" rx="12" ry="7" fill="#FFB3B3" opacity="0.4"/>
  <ellipse cx="140" cy="82" rx="12" ry="7" fill="#FFB3B3" opacity="0.4"/>
  <path d="M45,42.25 C39,37 42,34 45,37.75 C48,34 51,37 45,42.25Z" fill="#FFB3B3"/>
  <path d="M160,46.8 C155.2,42.6 157.6,40.2 160,43.2 C162.4,40.2 164.8,42.6 160,46.8Z" fill="#FFD6D6"/>
</svg>