<svg xmlns="http://www.w3.org/2000/svg" viewBox="0 0 200 150" width="200" height="150">
  <defs>
    <linearGradient id="bg6110" gradientTransform="rotate(0)">
      <stop offset="0%" style="stop-color:#E2D9F3"/>
      <stop offset="100%" style="stop-color:#C9B8E8"/>
    </linearGradient>
  </defs>
  <rect width="200" height="150" fill="url(#bg6110)" rx="16"/>
  <circle cx="48.936490375308495" cy="24.645914314822903" r="4.082710801556459" fill="#E2D9F3" opacity="0.3"/><circle cx="61.350945785670774" cy="37.13527128966234" r="2.488275603061993" fill="#E2D9F3" opacity="0.3"/><circle cx="74.0748546640134" cy="103.83595136154327" r="3.3785043664038312" fill="#E2D9F3" opacity="0.3"/><circle cx="125.23142210866354" cy="83.72215383760704" r="3.988440229004482" fill="#E2D9F3" opacity="0.3"/><circle cx="69.45700794940421" cy="81.45068142125638" r="4.224262589558748" fill="#E2D9F3" opacity="0.3"/><circle cx="6.044601138637518" cy="84.01415136172545" r="3.639573709497199" fill="#E2D9F3" opacity="0.3"/>
  <circle cx="100" cy="75" r="48" fill="#FFE5D9" opacity="1"/>
  <circle cx="80" cy="68" r="8" fill="#333" opacity="1"/>
  <circle cx="120" cy="68" r="8" fill="#333" opacity="1"/>
  <circle cx="78" cy="65" r="3" fill="white" opacity="1"/>
  <circle cx="118" cy="65" r="3" fill="white" opacity="1"/>
  <path d="M72 92 Q100 115 128 92" stroke="#333" stroke-width="4" fill="none" stroke-linecap="round"/>
  <ellipse cx="60" cy="82" rx="12" ry="7" fill="#FFB3B3" opacity="0.4"/>
  <ellipse cx="140" cy="82" rx="12" ry="7" fill="#FFB3B3" opacity="0.4"/>
  <path d="M45,42.25 C39,37 42,34 45,37.75 C48,34 51,37 45,42.25Z" fill="#FFB3B3"/>
  <path d="M160,46.8 C155.2,42.6 157.6,40.2 160,43.2 C162.4,40.2 164.8,42.6 160,46.8Z" fill="#FFD6D6"/>
</svg>