<svg xmlns="http://www.w3.org/2000/svg" viewBox="0 0 200 150" width="200" height="150">
  <defs>
    <linearGradient id="bg6113" gradientTransform="rotate(135)">
      <stop offset="0%" style="stop-color:#FFE4EC"/>
      <stop offset="100%" style="stop-color:#FFC8DD"/>
    </linearGradient>
  </defs>
  <rect width="200" height="150" fill="url(#bg6113)" rx="16"/>
  <circle cx="55.58824502732023" cy="121.3193349904941" r="4.551489715673597" fill="#FFE4EC" opacity="0.3"/><circle cx="118.10195408488653" cy="70.4057869400458" r="3.184271583098962" fill="#FFE4EC" opacity="0.3"/><circle cx="157.41960174382257" cy="35.713643019607844" r="3.8907521584851565" fill="#FFE4EC" opacity="0.3"/><circle cx="28.712083223035734" cy="77.75975670119806" r="3.033719908621606" fill="#FFE4EC" opacity="0.3"/><circle cx="119.56814683799166" cy="70.09420167423741" r="4.061612126492037" fill="#FFE4EC" opacity="0.3"/><circle cx="165.7692400554879" cy="124.37818723064993" r="4.464009639663345" fill="#FFE4EC" opacity="0.3"/>
  <circle cx="100" cy="75" r="48" fill="#FFE5D9" opacity="1"/>
  <circle cx="80" cy="68" r="8" fill="#333" opacity="1"/>
  <circle cx="120" cy="68" r="8" fill="#333" opacity="1"/>
  <circle cx="78" cy="65" r="3" fill="white" opacity="1"/>
  <circle cx="118" cy="65" r="3" fill="white" opacity="1"/>
  <path d="M72 92 Q100 115 128 92" stroke="#333" stroke-width="4" fill="none" stroke-linecap="round"/>
  <ellipse cx="60" cy="82" rx="12" ry="7" fill="#FFB3B3" opacity="0.4"/>
  <ellipse cx="140" cy="82" rx="12" ry="7" fill="#FFB3B3" opacity="0.4"/>
  <path d="M45,42.25 C39,37 42,34 45,37.75 C48,34 51,37 45,42.25Z" fill="#FFB3B3"/>
  <path d="M160,46.8 C155.2,42.6 157.6,40.2 160,43.2 C162.4,40.2 164.8,42.6 160,46.8Z" fill="#FFD6D6"/>
</svg>