<svg xmlns="http://www.w3.org/2000/svg" viewBox="0 0 200 150" width="200" height="150">
  <defs>
    <linearGradient id="bg6114" gradientTransform="rotate(90)">
      <stop offset="0%" style="stop-color:#E0F4FF"/>
      <stop offset="100%" style="stop-color:#BAE6FD"/>
    </linearGradient>
  </defs>
  <rect width="200" height="150" fill="url(#bg6114)" rx="16"/>
  <circle cx="91.89863298656746" cy="117.58365366309818" r="2.1733604892106086" fill="#E0F4FF" opacity="0.3"/><circle cx="179.00819558635703" cy="36.22724765850762" r="2.0032690200505385" fill="#E0F4FF" opacity="0.3"/><circle cx="104.61544313347986" cy="8.952192500191813" r="2.4635878269664317" fill="#E0F4FF" opacity="0.3"/><circle cx="81.60410717937339" cy="67.04017876281796" r="3.400255890546987" fill="#E0F4FF" opacity="0.3"/><circle cx="109.83251918423775" cy="105.23002164773061" r="3.791837804012175" fill="#E0F4FF" opacity="0.3"/><circle cx="137.97651322529418" cy="56.7940980993626" r="4.697577867644213" fill="#E0F4FF" opacity="0.3"/>
  <circle cx="100" cy="75" r="48" fill="#FFE5D9" opacity="1"/>
  <circle cx="80" cy="68" r="8" fill="#333" opacity="1"/>
  <circle cx="120" cy="68" r="8" fill="#333" opacity="1"/>
  <circle cx="78" cy="65" r="3" fill="white" opacity="1"/>
  <circle cx="118" cy="65" r="3" fill="white" opacity="1"/>
  <path d="M72 92 Q100 115 128 92" stroke="#333" stroke-width="4" fill="none" stroke-linecap="round"/>
  <ellipse cx="60" cy="82" rx="12" ry="7" fill="#FFB3B3" opacity="0.4"/>
  <ellipse cx="140" cy="82" rx="12" ry="7" fill="#FFB3B3" opacity="0.4"/>
  <path d="M45,42.25 C39,37 42,34 45,37.75 C48,34 51,37 45,42.25Z" fill="#FFB3B3"/>
  <path d="M160,46.8 C155.2,42.6 157.6,40.2 160,43.2 C162.4,40.2 164.8,42.6 160,46.8Z" fill="#FFD6D6"/>
</svg>