<svg xmlns="http://www.w3.org/2000/svg" viewBox="0 0 200 150" width="200" height="150">
  <defs>
    <linearGradient id="bg6117" gradientTransform="rotate(90)">
      <stop offset="0%" style="stop-color:#D8F3DC"/>
      <stop offset="100%" style="stop-color:#B7E4C7"/>
    </linearGradient>
  </defs>
  <rect width="200" height="150" fill="url(#bg6117)" rx="16"/>
  <circle cx="67.00636065979779" cy="140.17605494929057" r="3.6240498198425257" fill="#D8F3DC" opacity="0.3"/><circle cx="179.7875237716653" cy="78.59471028941698" r="3.7250844489426527" fill="#D8F3DC" opacity="0.3"/><circle cx="180.19402147438086" cy="96.6154217321673" r="3.3961983526041877" fill="#D8F3DC" opacity="0.3"/><circle cx="84.09633707306057" cy="22.156489555254666" r="2.86958455902095" fill="#D8F3DC" opacity="0.3"/><circle cx="75.25293879880337" cy="20.480586084386232" r="2.0233175178582314" fill="#D8F3DC" opacity="0.3"/><circle cx="167.66996033302348" cy="43.375056448076066" r="2.3011901160207344" fill="#D8F3DC" opacity="0.3"/>
  <circle cx="100" cy="75" r="48" fill="#FFE5D9" opacity="1"/>
  <circle cx="80" cy="68" r="8" fill="#333" opacity="1"/>
  <circle cx="120" cy="68" r="8" fill="#333" opacity="1"/>
  <circle cx="78" cy="65" r="3" fill="white" opacity="1"/>
  <circle cx="118" cy="65" r="3" fill="white" opacity="1"/>
  <path d="M72 92 Q100 115 128 92" stroke="#333" stroke-width="4" fill="none" stroke-linecap="round"/>
  <ellipse cx="60" cy="82" rx="12" ry="7" fill="#FFB3B3" opacity="0.4"/>
  <ellipse cx="140" cy="82" rx="12" ry="7" fill="#FFB3B3" opacity="0.4"/>
  <path d="M45,42.25 C39,37 42,34 45,37.75 C48,34 51,37 45,42.25Z" fill="#FFB3B3"/>
  <path d="M160,46.8 C155.2,42.6 157.6,40.2 160,43.2 C162.4,40.2 164.8,42.6 160,46.8Z" fill="#FFD6D6"/>
</svg>