<svg xmlns="http://www.w3.org/2000/svg" viewBox="0 0 200 150" width="200" height="150">
  <defs>
    <linearGradient id="bg6118" gradientTransform="rotate(90)">
      <stop offset="0%" style="stop-color:#FFF5EB"/>
      <stop offset="100%" style="stop-color:#FFE4CC"/>
    </linearGradient>
  </defs>
  <rect width="200" height="150" fill="url(#bg6118)" rx="16"/>
  <circle cx="19.623147141828667" cy="95.36407116556802" r="4.96007090331841" fill="#FFF5EB" opacity="0.3"/><circle cx="142.27945313623422" cy="100.30969342597018" r="3.7655786650843766" fill="#FFF5EB" opacity="0.3"/><circle cx="30.842271967958368" cy="87.31780741882176" r="3.363542544133452" fill="#FFF5EB" opacity="0.3"/><circle cx="128.94689533422934" cy="83.60031597057969" r="2.1320272142056638" fill="#FFF5EB" opacity="0.3"/><circle cx="110.4337010812742" cy="58.20527392088479" r="3.025249726637412" fill="#FFF5EB" opacity="0.3"/><circle cx="94.31594346315251" cy="76.59211488753499" r="3.64613182578978" fill="#FFF5EB" opacity="0.3"/>
  <circle cx="100" cy="75" r="48" fill="#FFE5D9" opacity="1"/>
  <circle cx="80" cy="68" r="8" fill="#333" opacity="1"/>
  <circle cx="120" cy="68" r="8" fill="#333" opacity="1"/>
  <circle cx="78" cy="65" r="3" fill="white" opacity="1"/>
  <circle cx="118" cy="65" r="3" fill="white" opacity="1"/>
  <path d="M72 92 Q100 115 128 92" stroke="#333" stroke-width="4" fill="none" stroke-linecap="round"/>
  <ellipse cx="60" cy="82" rx="12" ry="7" fill="#FFB3B3" opacity="0.4"/>
  <ellipse cx="140" cy="82" rx="12" ry="7" fill="#FFB3B3" opacity="0.4"/>
  <path d="M45,42.25 C39,37 42,34 45,37.75 C48,34 51,37 45,42.25Z" fill="#FFB3B3"/>
  <path d="M160,46.8 C155.2,42.6 157.6,40.2 160,43.2 C162.4,40.2 164.8,42.6 160,46.8Z" fill="#FFD6D6"/>
</svg>