<svg xmlns="http://www.w3.org/2000/svg" viewBox="0 0 200 150" width="200" height="150">
  <defs>
    <linearGradient id="bg6122" gradientTransform="rotate(0)">
      <stop offset="0%" style="stop-color:#FFF3B0"/>
      <stop offset="100%" style="stop-color:#FFE566"/>
    </linearGradient>
  </defs>
  <rect width="200" height="150" fill="url(#bg6122)" rx="16"/>
  <circle cx="177.91608037464357" cy="114.01731113974165" r="4.369210638309596" fill="#FFF3B0" opacity="0.3"/><circle cx="144.62998773269646" cy="81.23669538508693" r="4.520145977161974" fill="#FFF3B0" opacity="0.3"/><circle cx="127.83538429976034" cy="107.16627686961147" r="4.813516943329887" fill="#FFF3B0" opacity="0.3"/><circle cx="53.82442520276527" cy="47.6775660547446" r="3.5964397947327598" fill="#FFF3B0" opacity="0.3"/><circle cx="109.53833812491212" cy="116.2429285906228" r="2.6712878975026797" fill="#FFF3B0" opacity="0.3"/><circle cx="182.1944140875985" cy="40.57224220700846" r="4.72584643817936" fill="#FFF3B0" opacity="0.3"/>
  <circle cx="100" cy="75" r="48" fill="#FFE5D9" opacity="1"/>
  <circle cx="80" cy="68" r="8" fill="#333" opacity="1"/>
  <circle cx="120" cy="68" r="8" fill="#333" opacity="1"/>
  <circle cx="78" cy="65" r="3" fill="white" opacity="1"/>
  <circle cx="118" cy="65" r="3" fill="white" opacity="1"/>
  <path d="M72 92 Q100 115 128 92" stroke="#333" stroke-width="4" fill="none" stroke-linecap="round"/>
  <ellipse cx="60" cy="82" rx="12" ry="7" fill="#FFB3B3" opacity="0.4"/>
  <ellipse cx="140" cy="82" rx="12" ry="7" fill="#FFB3B3" opacity="0.4"/>
  <path d="M45,42.25 C39,37 42,34 45,37.75 C48,34 51,37 45,42.25Z" fill="#FFB3B3"/>
  <path d="M160,46.8 C155.2,42.6 157.6,40.2 160,43.2 C162.4,40.2 164.8,42.6 160,46.8Z" fill="#FFD6D6"/>
</svg>