<svg xmlns="http://www.w3.org/2000/svg" viewBox="0 0 200 150" width="200" height="150">
  <defs>
    <linearGradient id="bg61277" gradientTransform="rotate(0)">
      <stop offset="0%" style="stop-color:#FFE4EC"/>
      <stop offset="100%" style="stop-color:#FFC8DD"/>
    </linearGradient>
  </defs>
  <rect width="200" height="150" fill="url(#bg61277)" rx="16"/>
  <circle cx="81.81576029019197" cy="3.4856612962130384" r="3.5703573930368293" fill="#FFE4EC" opacity="0.3"/><circle cx="50.7686114320677" cy="24.25509250278992" r="4.921006621218112" fill="#FFE4EC" opacity="0.3"/><circle cx="22.7422915151692" cy="120.04393161223561" r="2.9752375343578024" fill="#FFE4EC" opacity="0.3"/><circle cx="105.12414678050845" cy="56.92129107541177" r="3.6385287409875673" fill="#FFE4EC" opacity="0.3"/><circle cx="2.472638040126185" cy="29.482199166841383" r="4.888751689741184" fill="#FFE4EC" opacity="0.3"/><circle cx="49.09000837960775" cy="64.61285089185367" r="4.727794568534591" fill="#FFE4EC" opacity="0.3"/>
  <circle cx="100" cy="75" r="48" fill="#FFE5D9" opacity="1"/>
  <circle cx="80" cy="68" r="8" fill="#333" opacity="1"/>
  <circle cx="120" cy="68" r="8" fill="#333" opacity="1"/>
  <circle cx="78" cy="65" r="3" fill="white" opacity="1"/>
  <circle cx="118" cy="65" r="3" fill="white" opacity="1"/>
  <path d="M72 92 Q100 115 128 92" stroke="#333" stroke-width="4" fill="none" stroke-linecap="round"/>
  <ellipse cx="60" cy="82" rx="12" ry="7" fill="#FFB3B3" opacity="0.4"/>
  <ellipse cx="140" cy="82" rx="12" ry="7" fill="#FFB3B3" opacity="0.4"/>
  <path d="M45,42.25 C39,37 42,34 45,37.75 C48,34 51,37 45,42.25Z" fill="#FFB3B3"/>
  <path d="M160,46.8 C155.2,42.6 157.6,40.2 160,43.2 C162.4,40.2 164.8,42.6 160,46.8Z" fill="#FFD6D6"/>
</svg>