<svg xmlns="http://www.w3.org/2000/svg" viewBox="0 0 200 150" width="200" height="150">
  <defs>
    <linearGradient id="bg61347" gradientTransform="rotate(180)">
      <stop offset="0%" style="stop-color:#E8F0E8"/>
      <stop offset="100%" style="stop-color:#C5DBC5"/>
    </linearGradient>
  </defs>
  <rect width="200" height="150" fill="url(#bg61347)" rx="16"/>
  <rect x="0" y="0" width="200" height="150" rx="0" fill="#1a1a3e"/>
  <polygon points="172.64862335659927,20.73426161838961 173.93835623470866,23.34754586401044 176.82228662297774,23.766605478987337 174.7354549897885,25.800763580022537 175.22808911281808,28.673040911011533 172.64862335659927,27.3169355103214 170.06915760038046,28.673040911011533 170.56179172341004,25.800763580022537 168.4749600902208,23.766605478987337 171.35889047848988,23.34754586401044" fill="#FFF3B0"/>
  <polygon points="141.66837501984446,45.37531699901979 142.49248091214525,47.04513792211661 144.33523770798794,47.31290615830673 143.00180636391622,48.612680480096415 143.31658680444605,50.44799127426634 141.66837501984446,49.58147505973989 140.02016323524288,50.44799127426634 140.3349436757727,48.612680480096415 139.00151233170098,47.31290615830673 140.84426912754367,47.04513792211661" fill="#FFF3B0"/>
  <polygon points="53.00280642321013,22.20521953373941 53.72285681480451,23.664200983576567 55.33293843763489,23.898159538085796 54.16787243042251,25.03381821754999 54.44290720639889,26.637394006032647 53.00280642321013,25.880288219723184 51.56270564002137,26.637394006032647 51.83774041599775,25.03381821754999 50.672674408785376,23.898159538085796 52.282756031615754,23.664200983576567" fill="#FFF3B0"/>
  <polygon points="121.21781036776156,24.216860150778757 121.85580374603052,25.509575931339985 123.28240030903464,25.71687254600574 122.2501053383981,26.723111450851686 122.49379712429948,28.14394358502914 121.21781036776156,27.473117648465177 119.94182361122364,28.14394358502914 120.18551539712502,26.723111450851686 119.15322042648847,25.71687254600574 120.5798169894926,25.509575931339985" fill="#FFF3B0"/>
  <polygon points="161.29449731279237,18.772309903067253 162.67148686251483,21.562395476406405 165.75052910000107,22.009806502618115 163.52251320639672,24.181585244674157 164.0484764122373,27.248186039153616 161.29449731279237,25.800333544449586 158.54051821334744,27.248186039153616 159.06648141918802,24.181585244674157 156.83846552558367,22.009806502618112 159.91750776306992,21.562395476406405" fill="#FFF3B0"/>
  <polygon points="163.07750401489102,13.042937670467609 164.19515360301597,15.307543086321608 166.69429405708797,15.670689450989997 164.8858990359895,17.43343893376325 165.31280319114092,19.922481145873277 163.07750401489102,18.747314824024443 160.84220483864112,19.922481145873277 161.26910899379254,17.43343893376325 159.46071397269407,15.670689450989997 161.95985442676607,15.307543086321608" fill="#FFF3B0"/>
  <polygon points="40.67410060383736,42.77761176651438 41.85860537976761,45.17768058877991 44.507238578420804,45.562549520761586 42.590669591129085,47.430742560242294 43.04311015569786,50.06867346368637 40.67410060383736,48.8232114373659 38.30509105197686,50.06867346368637 38.757531616545634,47.430742560242294 36.840962629253916,45.562549520761586 39.48959582790711,45.17768058877991" fill="#FFF3B0"/>
  <polygon points="40.64243450120102,22.910074141956102 41.43859889802872,24.523279411410012 43.21887661060058,24.781968905378722 41.930655555900806,26.03767408670038 42.23476329485643,27.810758255959467 40.64243450120102,26.973621468411693 39.05010570754562,27.810758255959467 39.35421344650124,26.03767408670038 38.065992391801466,24.781968905378722 39.846270104373325,24.523279411410012" fill="#FFF3B0"/>
  <polygon points="50.863767588107294,14.815291337312829 51.61264167907453,16.332675981136948 53.28717505306562,16.575999923290713 52.07547132058646,17.757119149334937 52.361515770041756,19.424886259686698 50.863767588107294,18.63747344232388 49.36601940617283,19.424886259686698 49.65206385562813,17.757119149334937 48.44036012314897,16.575999923290713 50.11489349714006,16.332675981136948" fill="#FFF3B0"/>
  <polygon points="145.19883747741915,20.11736771080291 146.27303606509366,22.293931783475834 148.67501712846817,22.642960062276856 146.93692730294364,24.337178916681644 147.34723465276818,26.729454328688476 145.19883747741915,25.599975092418617 143.05044030207011,26.729454328688476 143.46074765189465,24.337178916681644 141.72265782637012,22.642960062276856 144.12463888974463,22.293931783475834" fill="#FFF3B0"/>
  <path d="M155 25 A22 22 0 1 1 175 50 A18 18 0 1 0 155 25" fill="#FFE566"/>
  <rect x="35" y="75" width="130" height="50" rx="8" fill="#C9B8E8"/>
  <rect x="45" y="65" width="90" height="20" rx="8" fill="white"/>
  <rect x="40" y="90" width="120" height="30" rx="6" fill="#C5DBC5"/>
  <text x="170" y="75" fill="#E2D9F3" font-size="16" font-weight="bold">z</text>
  <text x="178" y="65" fill="#E2D9F3" font-size="13" font-weight="bold">z</text>
</svg>