<svg xmlns="http://www.w3.org/2000/svg" viewBox="0 0 200 150" width="200" height="150">
  <defs>
    <linearGradient id="bg6142" gradientTransform="rotate(135)">
      <stop offset="0%" style="stop-color:#FFF5EB"/>
      <stop offset="100%" style="stop-color:#FFE4CC"/>
    </linearGradient>
  </defs>
  <rect width="200" height="150" fill="url(#bg6142)" rx="16"/>
  <rect x="0" y="0" width="200" height="150" rx="0" fill="#1a1a3e"/>
  <polygon points="150.04448743526154,28.40652043017053 151.232982648459,30.814674761474787 153.8905387361016,31.200840265121165 151.96751308568156,33.075326995668846 152.42147786165643,35.72214473350929 150.04448743526154,34.47248691314417 147.66749700886666,35.72214473350929 148.12146178484153,33.07532699566885 146.19843613442148,31.200840265121165 148.8559922220641,30.814674761474787" fill="#FFF3B0"/>
  <polygon points="53.48098681925876,50.979005670537845 54.347001508034126,52.73374309025099 56.28346922164918,53.01512831986111 54.882228020453965,54.38100091618525 55.2130161968095,56.30964397172965 53.48098681925876,55.39906224084689 51.74895744170802,56.30964397172965 52.079745618063555,54.38100091618525 50.67850441686834,53.01512831986111 52.614972130483395,52.73374309025099" fill="#FFF3B0"/>
  <polygon points="154.8453351613793,48.73542641021777 156.12599941671164,51.33033561908872 158.9896517479889,51.74644865990765 156.9174934546841,53.766303789528926 157.40666367204398,56.618385000788045 154.8453351613793,55.27181491437386 152.28400665071462,56.618385000788045 152.7731768680745,53.766303789528926 150.7010185747697,51.74644865990765 153.56467090604696,51.33033561908872" fill="#FFF3B0"/>
  <polygon points="39.616503254055715,46.412104821096364 40.53448151625287,48.27213194077309 42.58714331239283,48.5704011588746 41.10182328322427,50.018230356932904 41.45245977845002,52.062597991194224 39.616503254055715,51.09737852582202 37.78054672966141,52.062597991194224 38.13118322488716,50.018230356932904 36.6458631957186,48.5704011588746 38.69852499185856,48.27213194077309" fill="#FFF3B0"/>
  <polygon points="72.88225405456615,45.93451994956786 73.89335747362877,47.98323924685599 76.15425345093523,48.311766662637865 74.5182537527507,49.90647223755161 74.90446089269138,52.15823264402911 72.88225405456615,51.095095594086615 70.86004721644092,52.15823264402911 71.2462543563816,49.90647223755161 69.61025465819706,48.311766662637865 71.87115063550353,47.98323924685599" fill="#FFF3B0"/>
  <polygon points="91.7217830599111,48.960740758454904 92.95477667807394,51.45905870629173 95.71183422410945,51.8596826181623 93.71680864201028,53.80435193649993 94.18777029623678,56.550269078578715 91.7217830599111,55.25382286635363 89.25579582358543,56.550269078578715 89.72675747781193,53.80435193649993 87.73173189571276,51.8596826181623 90.48878944174827,51.45905870629173" fill="#FFF3B0"/>
  <polygon points="92.11747798230135,44.1889727660332 93.33031472893882,46.64644843118319 96.04230014002988,47.040522978480745 94.07988906116562,48.953401013366744 94.54315147557628,51.65442814284784 92.11747798230135,50.37917611959051 89.69180448902642,51.65442814284784 90.15506690343709,48.953401013366744 88.19265582457282,47.04052297848074 90.90464123566389,46.64644843118319" fill="#FFF3B0"/>
  <polygon points="99.66397101043185,30.63327803096945 100.8485294652449,33.03345561853135 103.49728269352897,33.41834199183932 101.58062685198041,35.286619693296274 102.03308792005794,37.924670141369184 99.66397101043185,36.67915167373121 97.29485410080576,37.924670141369184 97.74731516888329,35.286619693296274 95.83065932733473,33.41834199183932 98.47941255561881,33.03345561853135" fill="#FFF3B0"/>
  <polygon points="35.155212941645004,33.98017384520608 35.815128235463945,35.3173082782751 37.29074369183485,35.5317277550822 36.222978316739926,36.57254175905377 36.47504352928289,38.04219471663954 35.155212941645004,37.34831871399183 33.835382354007116,38.04219471663954 34.08744756655008,36.57254175905377 33.01968219145516,35.531727755082194 34.495297647826064,35.3173082782751" fill="#FFF3B0"/>
  <polygon points="121.0938681981861,25.080850453034998 122.24984572182186,27.423116748701897 124.8346900451333,27.798716614533696 122.9642791216597,29.62191666179095 123.40582324545763,32.196316440711804 121.0938681981861,30.9808497425403 118.78191315091458,32.196316440711804 119.2234572747125,29.62191666179095 117.3530463512389,27.798716614533696 119.93789067455035,27.423116748701897" fill="#FFF3B0"/>
  <path d="M155 25 A22 22 0 1 1 175 50 A18 18 0 1 0 155 25" fill="#FFE566"/>
  <rect x="35" y="75" width="130" height="50" rx="8" fill="#C9B8E8"/>
  <rect x="45" y="65" width="90" height="20" rx="8" fill="white"/>
  <rect x="40" y="90" width="120" height="30" rx="6" fill="#FFE4CC"/>
  <text x="170" y="75" fill="#E2D9F3" font-size="16" font-weight="bold">z</text>
  <text x="178" y="65" fill="#E2D9F3" font-size="13" font-weight="bold">z</text>
</svg>