<svg xmlns="http://www.w3.org/2000/svg" viewBox="0 0 200 150" width="200" height="150">
  <defs>
    <linearGradient id="bg6150" gradientTransform="rotate(90)">
      <stop offset="0%" style="stop-color:#E8F0E8"/>
      <stop offset="100%" style="stop-color:#C5DBC5"/>
    </linearGradient>
  </defs>
  <rect width="200" height="150" fill="url(#bg6150)" rx="16"/>
  <rect x="0" y="100" width="200" height="50" rx="0" fill="#C5DBC5"/>
  <circle cx="165" cy="35" r="22" fill="#FFE566" opacity="1"/>
  <line x1="191" y1="35" x2="200" y2="35" stroke="#FFF3B0" stroke-width="3" stroke-linecap="round"/>
  <line x1="183.38477631085024" y1="53.384776310850235" x2="189.74873734152916" y2="59.748737341529164" stroke="#FFF3B0" stroke-width="3" stroke-linecap="round"/>
  <line x1="165" y1="61" x2="165" y2="70" stroke="#FFF3B0" stroke-width="3" stroke-linecap="round"/>
  <line x1="146.61522368914976" y1="53.38477631085024" x2="140.25126265847084" y2="59.748737341529164" stroke="#FFF3B0" stroke-width="3" stroke-linecap="round"/>
  <line x1="139" y1="35" x2="130" y2="35.00000000000001" stroke="#FFF3B0" stroke-width="3" stroke-linecap="round"/>
  <line x1="146.61522368914976" y1="16.615223689149765" x2="140.25126265847084" y2="10.25126265847084" stroke="#FFF3B0" stroke-width="3" stroke-linecap="round"/>
  <line x1="165" y1="9" x2="165" y2="0" stroke="#FFF3B0" stroke-width="3" stroke-linecap="round"/>
  <line x1="183.38477631085024" y1="16.61522368914976" x2="189.74873734152916" y2="10.251262658470832" stroke="#FFF3B0" stroke-width="3" stroke-linecap="round"/>
  <rect x="90" y="55" width="14" height="50" rx="2" fill="#8B6914"/>
  <path d="M79.02241735791904,30.08960616373588 Q89.02241735791904,42.08960616373588 79.02241735791904,54.08960616373588 Q69.02241735791904,42.08960616373588 79.02241735791904,30.08960616373588Z" fill="#B7E4C7"/>
  <path d="M93.72851976411766,36.244342753150704 Q103.72851976411766,48.244342753150704 93.72851976411766,60.244342753150704 Q83.72851976411766,48.244342753150704 93.72851976411766,36.244342753150704Z" fill="#95D5B2"/>
  <path d="M99.76190234015667,26.397307580089546 Q109.76190234015667,38.397307580089546 99.76190234015667,50.397307580089546 Q89.76190234015667,38.397307580089546 99.76190234015667,26.397307580089546Z" fill="#B7E4C7"/>
  <path d="M111.86137598933419,27.033022597686795 Q121.86137598933419,39.033022597686795 111.86137598933419,51.033022597686795 Q101.86137598933419,39.033022597686795 111.86137598933419,27.033022597686795Z" fill="#95D5B2"/>
  <path d="M127.23344984712458,28.121379523588985 Q137.23344984712458,40.121379523588985 127.23344984712458,52.121379523588985 Q117.23344984712458,40.121379523588985 127.23344984712458,28.121379523588985Z" fill="#B7E4C7"/>
  <circle cx="45" cy="95" r="8" fill="#FFB3B3" opacity="1"/>
  <circle cx="155" cy="98" r="6" fill="#C9B8E8" opacity="1"/>
</svg>