<svg xmlns="http://www.w3.org/2000/svg" viewBox="0 0 200 150" width="200" height="150">
  <defs>
    <linearGradient id="bg6155" gradientTransform="rotate(90)">
      <stop offset="0%" style="stop-color:#E2D9F3"/>
      <stop offset="100%" style="stop-color:#C9B8E8"/>
    </linearGradient>
  </defs>
  <rect width="200" height="150" fill="url(#bg6155)" rx="16"/>
  <rect x="0" y="100" width="200" height="50" rx="0" fill="#C5DBC5"/>
  <circle cx="165" cy="35" r="22" fill="#FFE566" opacity="1"/>
  <line x1="191" y1="35" x2="200" y2="35" stroke="#FFF3B0" stroke-width="3" stroke-linecap="round"/>
  <line x1="183.38477631085024" y1="53.384776310850235" x2="189.74873734152916" y2="59.748737341529164" stroke="#FFF3B0" stroke-width="3" stroke-linecap="round"/>
  <line x1="165" y1="61" x2="165" y2="70" stroke="#FFF3B0" stroke-width="3" stroke-linecap="round"/>
  <line x1="146.61522368914976" y1="53.38477631085024" x2="140.25126265847084" y2="59.748737341529164" stroke="#FFF3B0" stroke-width="3" stroke-linecap="round"/>
  <line x1="139" y1="35" x2="130" y2="35.00000000000001" stroke="#FFF3B0" stroke-width="3" stroke-linecap="round"/>
  <line x1="146.61522368914976" y1="16.615223689149765" x2="140.25126265847084" y2="10.25126265847084" stroke="#FFF3B0" stroke-width="3" stroke-linecap="round"/>
  <line x1="165" y1="9" x2="165" y2="0" stroke="#FFF3B0" stroke-width="3" stroke-linecap="round"/>
  <line x1="183.38477631085024" y1="16.61522368914976" x2="189.74873734152916" y2="10.251262658470832" stroke="#FFF3B0" stroke-width="3" stroke-linecap="round"/>
  <rect x="90" y="55" width="14" height="50" rx="2" fill="#8B6914"/>
  <path d="M77.74850281582621,41.70206344525286 Q87.74850281582621,53.70206344525286 77.74850281582621,65.70206344525286 Q67.74850281582621,53.70206344525286 77.74850281582621,41.70206344525286Z" fill="#B7E4C7"/>
  <path d="M93.51846801696956,32.875575068399485 Q103.51846801696956,44.875575068399485 93.51846801696956,56.875575068399485 Q83.51846801696956,44.875575068399485 93.51846801696956,32.875575068399485Z" fill="#95D5B2"/>
  <path d="M104.36777553582215,36.54777063203073 Q114.36777553582215,48.54777063203073 104.36777553582215,60.54777063203073 Q94.36777553582215,48.54777063203073 104.36777553582215,36.54777063203073Z" fill="#B7E4C7"/>
  <path d="M116.81281629216392,28.161326394809294 Q126.81281629216392,40.161326394809294 116.81281629216392,52.161326394809294 Q106.81281629216392,40.161326394809294 116.81281629216392,28.161326394809294Z" fill="#95D5B2"/>
  <path d="M126.04525121369079,30.633759245395595 Q136.0452512136908,42.633759245395595 126.04525121369079,54.633759245395595 Q116.04525121369079,42.633759245395595 126.04525121369079,30.633759245395595Z" fill="#B7E4C7"/>
  <circle cx="45" cy="95" r="8" fill="#FFB3B3" opacity="1"/>
  <circle cx="155" cy="98" r="6" fill="#C9B8E8" opacity="1"/>
</svg>