<svg xmlns="http://www.w3.org/2000/svg" viewBox="0 0 200 150" width="200" height="150">
  <defs>
    <linearGradient id="bg6164" gradientTransform="rotate(135)">
      <stop offset="0%" style="stop-color:#F0F7FF"/>
      <stop offset="100%" style="stop-color:#DCE8F5"/>
    </linearGradient>
  </defs>
  <rect width="200" height="150" fill="url(#bg6164)" rx="16"/>
  <rect x="0" y="100" width="200" height="50" rx="0" fill="#C5DBC5"/>
  <circle cx="165" cy="35" r="22" fill="#FFE566" opacity="1"/>
  <line x1="191" y1="35" x2="200" y2="35" stroke="#FFF3B0" stroke-width="3" stroke-linecap="round"/>
  <line x1="183.38477631085024" y1="53.384776310850235" x2="189.74873734152916" y2="59.748737341529164" stroke="#FFF3B0" stroke-width="3" stroke-linecap="round"/>
  <line x1="165" y1="61" x2="165" y2="70" stroke="#FFF3B0" stroke-width="3" stroke-linecap="round"/>
  <line x1="146.61522368914976" y1="53.38477631085024" x2="140.25126265847084" y2="59.748737341529164" stroke="#FFF3B0" stroke-width="3" stroke-linecap="round"/>
  <line x1="139" y1="35" x2="130" y2="35.00000000000001" stroke="#FFF3B0" stroke-width="3" stroke-linecap="round"/>
  <line x1="146.61522368914976" y1="16.615223689149765" x2="140.25126265847084" y2="10.25126265847084" stroke="#FFF3B0" stroke-width="3" stroke-linecap="round"/>
  <line x1="165" y1="9" x2="165" y2="0" stroke="#FFF3B0" stroke-width="3" stroke-linecap="round"/>
  <line x1="183.38477631085024" y1="16.61522368914976" x2="189.74873734152916" y2="10.251262658470832" stroke="#FFF3B0" stroke-width="3" stroke-linecap="round"/>
  <rect x="90" y="55" width="14" height="50" rx="2" fill="#8B6914"/>
  <path d="M79.86925028356563,27.187878602278943 Q89.86925028356563,39.18787860227894 79.86925028356563,51.18787860227894 Q69.86925028356563,39.18787860227894 79.86925028356563,27.187878602278943Z" fill="#B7E4C7"/>
  <path d="M93.53865056578798,35.60543550419243 Q103.53865056578798,47.60543550419243 93.53865056578798,59.60543550419243 Q83.53865056578798,47.60543550419243 93.53865056578798,35.60543550419243Z" fill="#95D5B2"/>
  <path d="M106.75452457013307,27.587090960339992 Q116.75452457013307,39.58709096033999 106.75452457013307,51.58709096033999 Q96.75452457013307,39.58709096033999 106.75452457013307,27.587090960339992Z" fill="#B7E4C7"/>
  <path d="M112.40247788267152,33.58010538392409 Q122.40247788267152,45.58010538392409 112.40247788267152,57.58010538392409 Q102.40247788267152,45.58010538392409 112.40247788267152,33.58010538392409Z" fill="#95D5B2"/>
  <path d="M126.85182146130319,40.95898900592874 Q136.8518214613032,52.95898900592874 126.85182146130319,64.95898900592874 Q116.85182146130319,52.95898900592874 126.85182146130319,40.95898900592874Z" fill="#B7E4C7"/>
  <circle cx="45" cy="95" r="8" fill="#FFB3B3" opacity="1"/>
  <circle cx="155" cy="98" r="6" fill="#C9B8E8" opacity="1"/>
</svg>