<svg xmlns="http://www.w3.org/2000/svg" viewBox="0 0 200 150" width="200" height="150">
  <defs>
    <linearGradient id="bg6165" gradientTransform="rotate(0)">
      <stop offset="0%" style="stop-color:#D8F3DC"/>
      <stop offset="100%" style="stop-color:#B7E4C7"/>
    </linearGradient>
  </defs>
  <rect width="200" height="150" fill="url(#bg6165)" rx="16"/>
  <rect x="0" y="100" width="200" height="50" rx="0" fill="#C5DBC5"/>
  <circle cx="165" cy="35" r="22" fill="#FFE566" opacity="1"/>
  <line x1="191" y1="35" x2="200" y2="35" stroke="#FFF3B0" stroke-width="3" stroke-linecap="round"/>
  <line x1="183.38477631085024" y1="53.384776310850235" x2="189.74873734152916" y2="59.748737341529164" stroke="#FFF3B0" stroke-width="3" stroke-linecap="round"/>
  <line x1="165" y1="61" x2="165" y2="70" stroke="#FFF3B0" stroke-width="3" stroke-linecap="round"/>
  <line x1="146.61522368914976" y1="53.38477631085024" x2="140.25126265847084" y2="59.748737341529164" stroke="#FFF3B0" stroke-width="3" stroke-linecap="round"/>
  <line x1="139" y1="35" x2="130" y2="35.00000000000001" stroke="#FFF3B0" stroke-width="3" stroke-linecap="round"/>
  <line x1="146.61522368914976" y1="16.615223689149765" x2="140.25126265847084" y2="10.25126265847084" stroke="#FFF3B0" stroke-width="3" stroke-linecap="round"/>
  <line x1="165" y1="9" x2="165" y2="0" stroke="#FFF3B0" stroke-width="3" stroke-linecap="round"/>
  <line x1="183.38477631085024" y1="16.61522368914976" x2="189.74873734152916" y2="10.251262658470832" stroke="#FFF3B0" stroke-width="3" stroke-linecap="round"/>
  <rect x="90" y="55" width="14" height="50" rx="2" fill="#8B6914"/>
  <path d="M75.85564834054821,36.51033019062015 Q85.85564834054821,48.51033019062015 75.85564834054821,60.51033019062015 Q65.85564834054821,48.51033019062015 75.85564834054821,36.51033019062015Z" fill="#B7E4C7"/>
  <path d="M88.58855237231182,34.66366623733438 Q98.58855237231182,46.66366623733438 88.58855237231182,58.66366623733438 Q78.58855237231182,46.66366623733438 88.58855237231182,34.66366623733438Z" fill="#95D5B2"/>
  <path d="M105.38852489482451,24.688922016401193 Q115.38852489482451,36.68892201640119 105.38852489482451,48.68892201640119 Q95.38852489482451,36.68892201640119 105.38852489482451,24.688922016401193Z" fill="#B7E4C7"/>
  <path d="M116.99735118295212,41.950857624895434 Q126.99735118295212,53.950857624895434 116.99735118295212,65.95085762489543 Q106.99735118295212,53.950857624895434 116.99735118295212,41.950857624895434Z" fill="#95D5B2"/>
  <path d="M130.08993197746895,41.442951954421005 Q140.08993197746895,53.442951954421005 130.08993197746895,65.442951954421 Q120.08993197746895,53.442951954421005 130.08993197746895,41.442951954421005Z" fill="#B7E4C7"/>
  <circle cx="45" cy="95" r="8" fill="#FFB3B3" opacity="1"/>
  <circle cx="155" cy="98" r="6" fill="#C9B8E8" opacity="1"/>
</svg>