<svg xmlns="http://www.w3.org/2000/svg" viewBox="0 0 200 150" width="200" height="150">
  <defs>
    <linearGradient id="bg6168" gradientTransform="rotate(45)">
      <stop offset="0%" style="stop-color:#D4E9FF"/>
      <stop offset="100%" style="stop-color:#A8D0F0"/>
    </linearGradient>
  </defs>
  <rect width="200" height="150" fill="url(#bg6168)" rx="16"/>
  <rect x="0" y="100" width="200" height="50" rx="0" fill="#C5DBC5"/>
  <circle cx="165" cy="35" r="22" fill="#FFE566" opacity="1"/>
  <line x1="191" y1="35" x2="200" y2="35" stroke="#FFF3B0" stroke-width="3" stroke-linecap="round"/>
  <line x1="183.38477631085024" y1="53.384776310850235" x2="189.74873734152916" y2="59.748737341529164" stroke="#FFF3B0" stroke-width="3" stroke-linecap="round"/>
  <line x1="165" y1="61" x2="165" y2="70" stroke="#FFF3B0" stroke-width="3" stroke-linecap="round"/>
  <line x1="146.61522368914976" y1="53.38477631085024" x2="140.25126265847084" y2="59.748737341529164" stroke="#FFF3B0" stroke-width="3" stroke-linecap="round"/>
  <line x1="139" y1="35" x2="130" y2="35.00000000000001" stroke="#FFF3B0" stroke-width="3" stroke-linecap="round"/>
  <line x1="146.61522368914976" y1="16.615223689149765" x2="140.25126265847084" y2="10.25126265847084" stroke="#FFF3B0" stroke-width="3" stroke-linecap="round"/>
  <line x1="165" y1="9" x2="165" y2="0" stroke="#FFF3B0" stroke-width="3" stroke-linecap="round"/>
  <line x1="183.38477631085024" y1="16.61522368914976" x2="189.74873734152916" y2="10.251262658470832" stroke="#FFF3B0" stroke-width="3" stroke-linecap="round"/>
  <rect x="90" y="55" width="14" height="50" rx="2" fill="#8B6914"/>
  <path d="M77.60668138323672,28.747663847541844 Q87.60668138323672,40.747663847541844 77.60668138323672,52.747663847541844 Q67.60668138323672,40.747663847541844 77.60668138323672,28.747663847541844Z" fill="#B7E4C7"/>
  <path d="M87.11538219587965,40.43800723575987 Q97.11538219587965,52.43800723575987 87.11538219587965,64.43800723575987 Q77.11538219587965,52.43800723575987 87.11538219587965,40.43800723575987Z" fill="#95D5B2"/>
  <path d="M105.4581862410705,29.203835683299985 Q115.4581862410705,41.203835683299985 105.4581862410705,53.203835683299985 Q95.4581862410705,41.203835683299985 105.4581862410705,29.203835683299985Z" fill="#B7E4C7"/>
  <path d="M118.24390306093119,42.402817537375086 Q128.2439030609312,54.402817537375086 118.24390306093119,66.40281753737509 Q108.24390306093119,54.402817537375086 118.24390306093119,42.402817537375086Z" fill="#95D5B2"/>
  <path d="M125.40157331206137,39.960068365228835 Q135.40157331206137,51.960068365228835 125.40157331206137,63.960068365228835 Q115.40157331206137,51.960068365228835 125.40157331206137,39.960068365228835Z" fill="#B7E4C7"/>
  <circle cx="45" cy="95" r="8" fill="#FFB3B3" opacity="1"/>
  <circle cx="155" cy="98" r="6" fill="#C9B8E8" opacity="1"/>
</svg>