<svg xmlns="http://www.w3.org/2000/svg" viewBox="0 0 200 150" width="200" height="150">
  <defs>
    <linearGradient id="bg6169" gradientTransform="rotate(180)">
      <stop offset="0%" style="stop-color:#D8F3DC"/>
      <stop offset="100%" style="stop-color:#B7E4C7"/>
    </linearGradient>
  </defs>
  <rect width="200" height="150" fill="url(#bg6169)" rx="16"/>
  <rect x="0" y="100" width="200" height="50" rx="0" fill="#C5DBC5"/>
  <circle cx="165" cy="35" r="22" fill="#FFE566" opacity="1"/>
  <line x1="191" y1="35" x2="200" y2="35" stroke="#FFF3B0" stroke-width="3" stroke-linecap="round"/>
  <line x1="183.38477631085024" y1="53.384776310850235" x2="189.74873734152916" y2="59.748737341529164" stroke="#FFF3B0" stroke-width="3" stroke-linecap="round"/>
  <line x1="165" y1="61" x2="165" y2="70" stroke="#FFF3B0" stroke-width="3" stroke-linecap="round"/>
  <line x1="146.61522368914976" y1="53.38477631085024" x2="140.25126265847084" y2="59.748737341529164" stroke="#FFF3B0" stroke-width="3" stroke-linecap="round"/>
  <line x1="139" y1="35" x2="130" y2="35.00000000000001" stroke="#FFF3B0" stroke-width="3" stroke-linecap="round"/>
  <line x1="146.61522368914976" y1="16.615223689149765" x2="140.25126265847084" y2="10.25126265847084" stroke="#FFF3B0" stroke-width="3" stroke-linecap="round"/>
  <line x1="165" y1="9" x2="165" y2="0" stroke="#FFF3B0" stroke-width="3" stroke-linecap="round"/>
  <line x1="183.38477631085024" y1="16.61522368914976" x2="189.74873734152916" y2="10.251262658470832" stroke="#FFF3B0" stroke-width="3" stroke-linecap="round"/>
  <rect x="90" y="55" width="14" height="50" rx="2" fill="#8B6914"/>
  <path d="M76.54860214224755,23.37924726946585 Q86.54860214224755,35.37924726946585 76.54860214224755,47.37924726946585 Q66.54860214224755,35.37924726946585 76.54860214224755,23.37924726946585Z" fill="#B7E4C7"/>
  <path d="M90.44111758776853,38.429362434879295 Q100.44111758776853,50.429362434879295 90.44111758776853,62.429362434879295 Q80.44111758776853,50.429362434879295 90.44111758776853,38.429362434879295Z" fill="#95D5B2"/>
  <path d="M104.68998094854032,27.57120178882178 Q114.68998094854032,39.57120178882178 104.68998094854032,51.57120178882178 Q94.68998094854032,39.57120178882178 104.68998094854032,27.57120178882178Z" fill="#B7E4C7"/>
  <path d="M111.9059572214046,42.326270060191746 Q121.9059572214046,54.326270060191746 111.9059572214046,66.32627006019175 Q101.9059572214046,54.326270060191746 111.9059572214046,42.326270060191746Z" fill="#95D5B2"/>
  <path d="M127.66315312567713,32.994813106059155 Q137.66315312567713,44.994813106059155 127.66315312567713,56.994813106059155 Q117.66315312567713,44.994813106059155 127.66315312567713,32.994813106059155Z" fill="#B7E4C7"/>
  <circle cx="45" cy="95" r="8" fill="#FFB3B3" opacity="1"/>
  <circle cx="155" cy="98" r="6" fill="#C9B8E8" opacity="1"/>
</svg>