<svg xmlns="http://www.w3.org/2000/svg" viewBox="0 0 200 150" width="200" height="150">
  <defs>
    <linearGradient id="bg6174" gradientTransform="rotate(135)">
      <stop offset="0%" style="stop-color:#FFE4EC"/>
      <stop offset="100%" style="stop-color:#FFC8DD"/>
    </linearGradient>
  </defs>
  <rect width="200" height="150" fill="url(#bg6174)" rx="16"/>
  <rect x="0" y="100" width="200" height="50" rx="0" fill="#C5DBC5"/>
  <circle cx="165" cy="35" r="22" fill="#FFE566" opacity="1"/>
  <line x1="191" y1="35" x2="200" y2="35" stroke="#FFF3B0" stroke-width="3" stroke-linecap="round"/>
  <line x1="183.38477631085024" y1="53.384776310850235" x2="189.74873734152916" y2="59.748737341529164" stroke="#FFF3B0" stroke-width="3" stroke-linecap="round"/>
  <line x1="165" y1="61" x2="165" y2="70" stroke="#FFF3B0" stroke-width="3" stroke-linecap="round"/>
  <line x1="146.61522368914976" y1="53.38477631085024" x2="140.25126265847084" y2="59.748737341529164" stroke="#FFF3B0" stroke-width="3" stroke-linecap="round"/>
  <line x1="139" y1="35" x2="130" y2="35.00000000000001" stroke="#FFF3B0" stroke-width="3" stroke-linecap="round"/>
  <line x1="146.61522368914976" y1="16.615223689149765" x2="140.25126265847084" y2="10.25126265847084" stroke="#FFF3B0" stroke-width="3" stroke-linecap="round"/>
  <line x1="165" y1="9" x2="165" y2="0" stroke="#FFF3B0" stroke-width="3" stroke-linecap="round"/>
  <line x1="183.38477631085024" y1="16.61522368914976" x2="189.74873734152916" y2="10.251262658470832" stroke="#FFF3B0" stroke-width="3" stroke-linecap="round"/>
  <rect x="90" y="55" width="14" height="50" rx="2" fill="#8B6914"/>
  <path d="M80.61148260712798,31.592343930156403 Q90.61148260712798,43.5923439301564 80.61148260712798,55.5923439301564 Q70.61148260712798,43.5923439301564 80.61148260712798,31.592343930156403Z" fill="#B7E4C7"/>
  <path d="M89.24759126585377,29.977638762182323 Q99.24759126585377,41.97763876218232 89.24759126585377,53.97763876218232 Q79.24759126585377,41.97763876218232 89.24759126585377,29.977638762182323Z" fill="#95D5B2"/>
  <path d="M103.77105340708658,32.34655191034835 Q113.77105340708658,44.34655191034835 103.77105340708658,56.34655191034835 Q93.77105340708658,44.34655191034835 103.77105340708658,32.34655191034835Z" fill="#B7E4C7"/>
  <path d="M115.6790789208062,41.31346503809982 Q125.6790789208062,53.31346503809982 115.6790789208062,65.31346503809982 Q105.6790789208062,53.31346503809982 115.6790789208062,41.31346503809982Z" fill="#95D5B2"/>
  <path d="M128.1662046159181,36.792102958068426 Q138.1662046159181,48.792102958068426 128.1662046159181,60.792102958068426 Q118.1662046159181,48.792102958068426 128.1662046159181,36.792102958068426Z" fill="#B7E4C7"/>
  <circle cx="45" cy="95" r="8" fill="#FFB3B3" opacity="1"/>
  <circle cx="155" cy="98" r="6" fill="#C9B8E8" opacity="1"/>
</svg>