<svg xmlns="http://www.w3.org/2000/svg" viewBox="0 0 200 150" width="200" height="150">
  <defs>
    <linearGradient id="bg6187" gradientTransform="rotate(45)">
      <stop offset="0%" style="stop-color:#F0F7FF"/>
      <stop offset="100%" style="stop-color:#DCE8F5"/>
    </linearGradient>
  </defs>
  <rect width="200" height="150" fill="url(#bg6187)" rx="16"/>
  <rect x="0" y="100" width="200" height="50" rx="0" fill="#C5DBC5"/>
  <circle cx="165" cy="35" r="22" fill="#FFE566" opacity="1"/>
  <line x1="191" y1="35" x2="200" y2="35" stroke="#FFF3B0" stroke-width="3" stroke-linecap="round"/>
  <line x1="183.38477631085024" y1="53.384776310850235" x2="189.74873734152916" y2="59.748737341529164" stroke="#FFF3B0" stroke-width="3" stroke-linecap="round"/>
  <line x1="165" y1="61" x2="165" y2="70" stroke="#FFF3B0" stroke-width="3" stroke-linecap="round"/>
  <line x1="146.61522368914976" y1="53.38477631085024" x2="140.25126265847084" y2="59.748737341529164" stroke="#FFF3B0" stroke-width="3" stroke-linecap="round"/>
  <line x1="139" y1="35" x2="130" y2="35.00000000000001" stroke="#FFF3B0" stroke-width="3" stroke-linecap="round"/>
  <line x1="146.61522368914976" y1="16.615223689149765" x2="140.25126265847084" y2="10.25126265847084" stroke="#FFF3B0" stroke-width="3" stroke-linecap="round"/>
  <line x1="165" y1="9" x2="165" y2="0" stroke="#FFF3B0" stroke-width="3" stroke-linecap="round"/>
  <line x1="183.38477631085024" y1="16.61522368914976" x2="189.74873734152916" y2="10.251262658470832" stroke="#FFF3B0" stroke-width="3" stroke-linecap="round"/>
  <rect x="90" y="55" width="14" height="50" rx="2" fill="#8B6914"/>
  <path d="M79.98674524112721,25.074457845301367 Q89.98674524112721,37.07445784530137 79.98674524112721,49.07445784530137 Q69.98674524112721,37.07445784530137 79.98674524112721,25.074457845301367Z" fill="#B7E4C7"/>
  <path d="M88.60087253817619,41.486392898412305 Q98.60087253817619,53.486392898412305 88.60087253817619,65.4863928984123 Q78.60087253817619,53.486392898412305 88.60087253817619,41.486392898412305Z" fill="#95D5B2"/>
  <path d="M106.11495995584482,39.07248375174095 Q116.11495995584482,51.07248375174095 106.11495995584482,63.07248375174095 Q96.11495995584482,51.07248375174095 106.11495995584482,39.07248375174095Z" fill="#B7E4C7"/>
  <path d="M117.31874837425858,42.76601751084672 Q127.31874837425858,54.76601751084672 117.31874837425858,66.76601751084672 Q107.31874837425858,54.76601751084672 117.31874837425858,42.76601751084672Z" fill="#95D5B2"/>
  <path d="M123.90784307727881,24.441029605821313 Q133.9078430772788,36.44102960582131 123.90784307727881,48.44102960582131 Q113.90784307727881,36.44102960582131 123.90784307727881,24.441029605821313Z" fill="#B7E4C7"/>
  <circle cx="45" cy="95" r="8" fill="#FFB3B3" opacity="1"/>
  <circle cx="155" cy="98" r="6" fill="#C9B8E8" opacity="1"/>
</svg>