<svg xmlns="http://www.w3.org/2000/svg" viewBox="0 0 200 150" width="200" height="150">
  <defs>
    <linearGradient id="bg6188" gradientTransform="rotate(90)">
      <stop offset="0%" style="stop-color:#FFE4EC"/>
      <stop offset="100%" style="stop-color:#FFC8DD"/>
    </linearGradient>
  </defs>
  <rect width="200" height="150" fill="url(#bg6188)" rx="16"/>
  <rect x="0" y="100" width="200" height="50" rx="0" fill="#C5DBC5"/>
  <circle cx="165" cy="35" r="22" fill="#FFE566" opacity="1"/>
  <line x1="191" y1="35" x2="200" y2="35" stroke="#FFF3B0" stroke-width="3" stroke-linecap="round"/>
  <line x1="183.38477631085024" y1="53.384776310850235" x2="189.74873734152916" y2="59.748737341529164" stroke="#FFF3B0" stroke-width="3" stroke-linecap="round"/>
  <line x1="165" y1="61" x2="165" y2="70" stroke="#FFF3B0" stroke-width="3" stroke-linecap="round"/>
  <line x1="146.61522368914976" y1="53.38477631085024" x2="140.25126265847084" y2="59.748737341529164" stroke="#FFF3B0" stroke-width="3" stroke-linecap="round"/>
  <line x1="139" y1="35" x2="130" y2="35.00000000000001" stroke="#FFF3B0" stroke-width="3" stroke-linecap="round"/>
  <line x1="146.61522368914976" y1="16.615223689149765" x2="140.25126265847084" y2="10.25126265847084" stroke="#FFF3B0" stroke-width="3" stroke-linecap="round"/>
  <line x1="165" y1="9" x2="165" y2="0" stroke="#FFF3B0" stroke-width="3" stroke-linecap="round"/>
  <line x1="183.38477631085024" y1="16.61522368914976" x2="189.74873734152916" y2="10.251262658470832" stroke="#FFF3B0" stroke-width="3" stroke-linecap="round"/>
  <rect x="90" y="55" width="14" height="50" rx="2" fill="#8B6914"/>
  <path d="M75.69687063962192,26.96678751847503 Q85.69687063962192,38.96678751847503 75.69687063962192,50.96678751847503 Q65.69687063962192,38.96678751847503 75.69687063962192,26.96678751847503Z" fill="#B7E4C7"/>
  <path d="M87.72129514580229,23.302631338836363 Q97.72129514580229,35.30263133883636 87.72129514580229,47.30263133883636 Q77.72129514580229,35.30263133883636 87.72129514580229,23.302631338836363Z" fill="#95D5B2"/>
  <path d="M101.36373658906086,31.122689862548214 Q111.36373658906086,43.122689862548214 101.36373658906086,55.122689862548214 Q91.36373658906086,43.122689862548214 101.36373658906086,31.122689862548214Z" fill="#B7E4C7"/>
  <path d="M115.54558159471344,31.026260238584655 Q125.54558159471344,43.026260238584655 115.54558159471344,55.026260238584655 Q105.54558159471344,43.026260238584655 115.54558159471344,31.026260238584655Z" fill="#95D5B2"/>
  <path d="M130.60024322589015,31.269288362989755 Q140.60024322589015,43.269288362989755 130.60024322589015,55.269288362989755 Q120.60024322589015,43.269288362989755 130.60024322589015,31.269288362989755Z" fill="#B7E4C7"/>
  <circle cx="45" cy="95" r="8" fill="#FFB3B3" opacity="1"/>
  <circle cx="155" cy="98" r="6" fill="#C9B8E8" opacity="1"/>
</svg>