<svg xmlns="http://www.w3.org/2000/svg" viewBox="0 0 200 150" width="200" height="150">
  <defs>
    <linearGradient id="bg62235" gradientTransform="rotate(45)">
      <stop offset="0%" style="stop-color:#FFF3B0"/>
      <stop offset="100%" style="stop-color:#FFE566"/>
    </linearGradient>
  </defs>
  <rect width="200" height="150" fill="url(#bg62235)" rx="16"/>
  <rect x="0" y="0" width="200" height="150" rx="0" fill="#1a1a3e"/>
  <polygon points="94.10694419295709,17.31999610324624 95.02572095692283,19.18164116422488 97.08016825729747,19.48016983127848 95.59355622512729,20.929258421005247 95.94449772088855,22.975404344839212 94.10694419295709,22.009345285021368 92.26939066502563,22.975404344839212 92.62033216078689,20.929258421005247 91.1337201286167,19.480169831278477 93.18816742899135,19.18164116422488" fill="#FFF3B0"/>
  <polygon points="146.32204515378277,46.93239210771799 147.18234732271085,48.67555469796601 149.10604145362458,48.955083817362635 147.71404330370368,50.31194666544984 148.04264949163894,52.2278677523303 146.32204515378277,51.32329252027216 144.6014408159266,52.2278677523303 144.93004700386186,50.31194666544984 143.53804885394095,48.955083817362635 145.46174298485468,48.67555469796601" fill="#FFF3B0"/>
  <polygon points="58.81254951485971,31.038333154927386 59.93237750736844,33.30735250017202 62.436389021725105,33.67120667133107 60.62446926829241,35.437391918982335 61.05220549987718,37.93128550895168 58.81254951485971,36.753828677184174 56.57289352984224,37.93128550895168 57.000629761427014,35.437391918982335 55.18871000799432,33.67120667133107 57.69272152235097,33.30735250017202" fill="#FFF3B0"/>
  <polygon points="138.7234106013966,14.495586854691282 139.89695297149447,16.873443416618134 142.52107348550948,17.254750447026773 140.62224204345304,19.105653653078175 141.0704953415923,21.719170919946855 138.7234106013966,20.48523544924592 136.3763258612009,21.719170919946855 136.82457915934017,19.105653653078175 134.92574771728374,17.254750447026773 137.54986823129875,16.873443416618134" fill="#FFF3B0"/>
  <polygon points="136.5535757233465,37.83241292209004 137.49765636275174,39.74532923478409 139.6086848487033,40.052079629359 138.0811302860249,41.54107732281296 138.44173700215697,43.643575805416745 136.5535757233465,42.65091067644744 134.66541444453605,43.643575805416745 135.02602116066814,41.54107732281296 133.49846659798973,40.052079629359 135.60949508394128,39.74532923478409" fill="#FFF3B0"/>
  <polygon points="178.31092573038404,28.293291273990803 179.2935254110077,30.284255688955515 181.49068509155174,30.603521678702304 179.9008054109679,32.15327134728883 180.27612509163134,34.341552995368936 178.31092573038404,33.30838654964458 176.34572636913674,34.341552995368936 176.72104604980018,32.15327134728883 175.13116636921634,30.6035216787023 177.3283260497604,30.284255688955515" fill="#FFF3B0"/>
  <polygon points="146.79424251831733,49.19221393421685 147.93675461768632,51.507196300246655 150.49148933699135,51.87842098451605 148.64286592765433,53.68038345434851 149.0792667170553,56.22479529271974 146.79424251831733,55.0234869794981 144.50921831957936,56.22479529271974 144.94561910898034,53.68038345434851 143.09699569964332,51.87842098451605 145.65173041894835,51.507196300246655" fill="#FFF3B0"/>
  <polygon points="160.93123868547082,43.35532184504882 161.79264802976954,45.10072781762997 163.71881788007502,45.38061668011171 162.3250282827729,46.73922575781566 162.65405737406826,48.65761256048307 160.93123868547082,47.7518731753471 159.20841999687337,48.65761256048307 159.53744908816873,46.73922575781566 158.1436594908666,45.38061668011171 160.0698293411721,45.10072781762997" fill="#FFF3B0"/>
  <polygon points="51.487515639255435,10.360980114557606 52.454130458824885,12.31955566336996 54.61554690344086,12.63362785691869 53.051531271348146,14.158166309167934 53.42074527839433,16.310849148514638 51.487515639255435,15.294490180348475 49.55428600011654,16.310849148514638 49.92350000716272,14.158166309167934 48.35948437507001,12.63362785691869 50.520900819685984,12.31955566336996" fill="#FFF3B0"/>
  <polygon points="164.5713218416381,33.81813339795826 165.38154954076535,35.459834030261774 167.1932737532671,35.723092968141685 165.8822977974526,37.00097869613735 166.1917772398926,38.80538229989284 164.5713218416381,37.95345848122906 162.95086644338363,38.80538229989284 163.26034588582363,37.00097869613735 161.9493699300091,35.72309296814168 163.76109414251087,35.459834030261774" fill="#FFF3B0"/>
  <path d="M155 25 A22 22 0 1 1 175 50 A18 18 0 1 0 155 25" fill="#FFE566"/>
  <rect x="35" y="75" width="130" height="50" rx="8" fill="#C9B8E8"/>
  <rect x="45" y="65" width="90" height="20" rx="8" fill="white"/>
  <rect x="40" y="90" width="120" height="30" rx="6" fill="#FFE566"/>
  <text x="170" y="75" fill="#E2D9F3" font-size="16" font-weight="bold">z</text>
  <text x="178" y="65" fill="#E2D9F3" font-size="13" font-weight="bold">z</text>
</svg>