<svg xmlns="http://www.w3.org/2000/svg" viewBox="0 0 200 150" width="200" height="150">
  <defs>
    <linearGradient id="bg623" gradientTransform="rotate(0)">
      <stop offset="0%" style="stop-color:#D8F3DC"/>
      <stop offset="100%" style="stop-color:#B7E4C7"/>
    </linearGradient>
  </defs>
  <rect width="200" height="150" fill="url(#bg623)" rx="16"/>
  <circle cx="37.9989865115931" cy="80.06919469244167" r="2.6488754628326205" fill="#D8F3DC" opacity="0.3"/><circle cx="40.743064895650605" cy="63.5066028975416" r="3.890862010278397" fill="#D8F3DC" opacity="0.3"/><circle cx="161.76798924152536" cy="55.50711403907371" r="2.9508034124773985" fill="#D8F3DC" opacity="0.3"/><circle cx="97.15189833759723" cy="147.77470112085211" r="2.7209682486409292" fill="#D8F3DC" opacity="0.3"/><circle cx="66.86333163743257" cy="34.52551455889079" r="2.097693549034375" fill="#D8F3DC" opacity="0.3"/><circle cx="150.99879073422926" cy="61.13317082727008" r="4.92413851147893" fill="#D8F3DC" opacity="0.3"/>
  <ellipse cx="100" cy="95" rx="32" ry="28" fill="#B7E4C7" opacity="1"/>
  <circle cx="100" cy="58" r="28" fill="#B7E4C7" opacity="1"/>
  <ellipse cx="82" cy="25" rx="10" ry="24" fill="#B7E4C7" opacity="1"/>
  <ellipse cx="118" cy="25" rx="10" ry="24" fill="#B7E4C7" opacity="1"/>
  <ellipse cx="82" cy="27" rx="5" ry="15" fill="#FFD6D6" opacity="1"/>
  <ellipse cx="118" cy="27" rx="5" ry="15" fill="#FFD6D6" opacity="1"/>
  <circle cx="88" cy="52" r="5" fill="#333" opacity="1"/>
  <circle cx="112" cy="52" r="5" fill="#333" opacity="1"/>
  <circle cx="86" cy="50" r="2" fill="white" opacity="1"/>
  <circle cx="110" cy="50" r="2" fill="white" opacity="1"/>
  <ellipse cx="100" cy="68" rx="6" ry="4" fill="#FFB3B3" opacity="1"/>
  <path d="M50,46.8 C45.2,42.6 47.6,40.2 50,43.2 C52.4,40.2 54.8,42.6 50,46.8Z" fill="#FFB3B3"/>
  <path d="M155,51.5 C151,48 153,46 155,48.5 C157,46 159,48 155,51.5Z" fill="#FFD6D6"/>
</svg>