<svg xmlns="http://www.w3.org/2000/svg" viewBox="0 0 200 150" width="200" height="150">
  <defs>
    <linearGradient id="bg62460" gradientTransform="rotate(90)">
      <stop offset="0%" style="stop-color:#D8F3DC"/>
      <stop offset="100%" style="stop-color:#B7E4C7"/>
    </linearGradient>
  </defs>
  <rect width="200" height="150" fill="url(#bg62460)" rx="16"/>
  <circle cx="31.277478779702506" cy="149.19612583480557" r="4.7818820909174065" fill="#D8F3DC" opacity="0.3"/><circle cx="182.2451280128007" cy="61.516739059243264" r="2.163936754680435" fill="#D8F3DC" opacity="0.3"/><circle cx="23.085429208367714" cy="83.42678939807229" r="4.071972574660322" fill="#D8F3DC" opacity="0.3"/><circle cx="31.798120594612556" cy="107.37639022408985" r="4.912910419044238" fill="#D8F3DC" opacity="0.3"/><circle cx="102.47756178193868" cy="103.25416741570734" r="3.5770110364774155" fill="#D8F3DC" opacity="0.3"/><circle cx="6.880378911955631" cy="117.19037252651106" r="4.170541159597633" fill="#D8F3DC" opacity="0.3"/>
  <circle cx="100" cy="75" r="48" fill="#FFE5D9" opacity="1"/>
  <circle cx="80" cy="68" r="8" fill="#333" opacity="1"/>
  <circle cx="120" cy="68" r="8" fill="#333" opacity="1"/>
  <circle cx="78" cy="65" r="3" fill="white" opacity="1"/>
  <circle cx="118" cy="65" r="3" fill="white" opacity="1"/>
  <path d="M72 92 Q100 115 128 92" stroke="#333" stroke-width="4" fill="none" stroke-linecap="round"/>
  <ellipse cx="60" cy="82" rx="12" ry="7" fill="#FFB3B3" opacity="0.4"/>
  <ellipse cx="140" cy="82" rx="12" ry="7" fill="#FFB3B3" opacity="0.4"/>
  <path d="M45,42.25 C39,37 42,34 45,37.75 C48,34 51,37 45,42.25Z" fill="#FFB3B3"/>
  <path d="M160,46.8 C155.2,42.6 157.6,40.2 160,43.2 C162.4,40.2 164.8,42.6 160,46.8Z" fill="#FFD6D6"/>
</svg>