<svg xmlns="http://www.w3.org/2000/svg" viewBox="0 0 200 150" width="200" height="150">
  <defs>
    <linearGradient id="bg6277" gradientTransform="rotate(45)">
      <stop offset="0%" style="stop-color:#E2D9F3"/>
      <stop offset="100%" style="stop-color:#C9B8E8"/>
    </linearGradient>
  </defs>
  <rect width="200" height="150" fill="url(#bg6277)" rx="16"/>
  <circle cx="145.0279186989792" cy="21.55089860066255" r="14.589135743763109" fill="#FFB3B3" opacity="0.4"/>
  <circle cx="101.40010127186542" cy="26.72381317901909" r="8.721656020024966" fill="#A8D0F0" opacity="0.4"/>
  <circle cx="99.01177600506344" cy="47.80971214504689" r="13.982454157794564" fill="#FFE566" opacity="0.4"/>
  <circle cx="115.02987417392433" cy="47.0218058688647" r="9.070989289739373" fill="#FFB3B3" opacity="0.4"/>
  <circle cx="143.50438030945952" cy="40.168934357711805" r="7.901710778387496" fill="#A8D0F0" opacity="0.4"/>
  <circle cx="95.40189459674366" cy="28.030902697632882" r="8.99399805991493" fill="#FFE566" opacity="0.4"/>
  <rect x="44.66020811727503" y="73.76428250820027" width="35" height="41.23571749179973" rx="4" fill="#FFB3B3"/>
  <ellipse cx="62.16020811727503" cy="65.76428250820027" rx="10" ry="8" fill="#FFB3B3" opacity="1"/>
  <rect x="97.00428584053952" y="73.45105156405225" width="35" height="41.54894843594775" rx="4" fill="#A8D0F0"/>
  <ellipse cx="114.50428584053952" cy="65.45105156405225" rx="10" ry="8" fill="#A8D0F0" opacity="1"/>
  <rect x="155.34892889430637" y="79.43676053466334" width="35" height="35.563239465336665" rx="4" fill="#FFE566"/>
  <ellipse cx="172.84892889430637" cy="71.43676053466334" rx="10" ry="8" fill="#FFE566" opacity="1"/>
  <rect x="165" y="50" width="8" height="40" rx="2" fill="#8B4513"/>
  <rect x="163" y="85" width="12" height="20" rx="3" fill="#C9B8E8"/>
</svg>