<svg xmlns="http://www.w3.org/2000/svg" viewBox="0 0 200 150" width="200" height="150">
  <defs>
    <linearGradient id="bg62814" gradientTransform="rotate(135)">
      <stop offset="0%" style="stop-color:#E0F4FF"/>
      <stop offset="100%" style="stop-color:#BAE6FD"/>
    </linearGradient>
  </defs>
  <rect width="200" height="150" fill="url(#bg62814)" rx="16"/>
  <circle cx="152.16438133647898" cy="83.4376505128148" r="2.8294450086577854" fill="#E0F4FF" opacity="0.3"/><circle cx="85.01500980764831" cy="98.87122293607717" r="4.858971286741507" fill="#E0F4FF" opacity="0.3"/><circle cx="95.384412886051" cy="141.31434913433623" r="3.4831079764917376" fill="#E0F4FF" opacity="0.3"/><circle cx="54.67592235218035" cy="55.59326972152121" r="2.5819246563655724" fill="#E0F4FF" opacity="0.3"/><circle cx="104.33054567674844" cy="10.121727197383734" r="3.703364976729972" fill="#E0F4FF" opacity="0.3"/><circle cx="50.3903225009708" cy="123.83316758284764" r="2.3439915550079604" fill="#E0F4FF" opacity="0.3"/>
  <circle cx="100" cy="75" r="48" fill="#FFE5D9" opacity="1"/>
  <circle cx="80" cy="68" r="8" fill="#333" opacity="1"/>
  <circle cx="120" cy="68" r="8" fill="#333" opacity="1"/>
  <circle cx="78" cy="65" r="3" fill="white" opacity="1"/>
  <circle cx="118" cy="65" r="3" fill="white" opacity="1"/>
  <path d="M72 92 Q100 115 128 92" stroke="#333" stroke-width="4" fill="none" stroke-linecap="round"/>
  <ellipse cx="60" cy="82" rx="12" ry="7" fill="#FFB3B3" opacity="0.4"/>
  <ellipse cx="140" cy="82" rx="12" ry="7" fill="#FFB3B3" opacity="0.4"/>
  <path d="M45,42.25 C39,37 42,34 45,37.75 C48,34 51,37 45,42.25Z" fill="#FFB3B3"/>
  <path d="M160,46.8 C155.2,42.6 157.6,40.2 160,43.2 C162.4,40.2 164.8,42.6 160,46.8Z" fill="#FFD6D6"/>
</svg>