<svg xmlns="http://www.w3.org/2000/svg" viewBox="0 0 200 150" width="200" height="150">
  <defs>
    <linearGradient id="bg6314" gradientTransform="rotate(0)">
      <stop offset="0%" style="stop-color:#FFF3B0"/>
      <stop offset="100%" style="stop-color:#FFE566"/>
    </linearGradient>
  </defs>
  <rect width="200" height="150" fill="url(#bg6314)" rx="16"/>
  <circle cx="70.77079704704374" cy="36.18167702045412" r="4.559749831375939" fill="#FFF3B0" opacity="0.3"/><circle cx="39.30972372654651" cy="93.7640008969538" r="4.837457204337625" fill="#FFF3B0" opacity="0.3"/><circle cx="63.98639769249712" cy="136.29047635890856" r="3.450195875992847" fill="#FFF3B0" opacity="0.3"/><circle cx="167.45144639635328" cy="74.73469088627098" r="4.771664958513156" fill="#FFF3B0" opacity="0.3"/><circle cx="156.62199238759058" cy="86.84010165034124" r="2.3921227399769123" fill="#FFF3B0" opacity="0.3"/><circle cx="151.0026666430349" cy="139.29829834896736" r="2.2753525744856233" fill="#FFF3B0" opacity="0.3"/>
  <ellipse cx="100" cy="95" rx="32" ry="28" fill="#FFE566" opacity="1"/>
  <circle cx="100" cy="58" r="28" fill="#FFE566" opacity="1"/>
  <ellipse cx="82" cy="25" rx="10" ry="24" fill="#FFE566" opacity="1"/>
  <ellipse cx="118" cy="25" rx="10" ry="24" fill="#FFE566" opacity="1"/>
  <ellipse cx="82" cy="27" rx="5" ry="15" fill="#FFD6D6" opacity="1"/>
  <ellipse cx="118" cy="27" rx="5" ry="15" fill="#FFD6D6" opacity="1"/>
  <circle cx="88" cy="52" r="5" fill="#333" opacity="1"/>
  <circle cx="112" cy="52" r="5" fill="#333" opacity="1"/>
  <circle cx="86" cy="50" r="2" fill="white" opacity="1"/>
  <circle cx="110" cy="50" r="2" fill="white" opacity="1"/>
  <ellipse cx="100" cy="68" rx="6" ry="4" fill="#FFB3B3" opacity="1"/>
  <path d="M50,46.8 C45.2,42.6 47.6,40.2 50,43.2 C52.4,40.2 54.8,42.6 50,46.8Z" fill="#FFB3B3"/>
  <path d="M155,51.5 C151,48 153,46 155,48.5 C157,46 159,48 155,51.5Z" fill="#FFD6D6"/>
</svg>