<svg xmlns="http://www.w3.org/2000/svg" viewBox="0 0 200 150" width="200" height="150">
  <defs>
    <linearGradient id="bg63407" gradientTransform="rotate(180)">
      <stop offset="0%" style="stop-color:#FFF3B0"/>
      <stop offset="100%" style="stop-color:#FFE566"/>
    </linearGradient>
  </defs>
  <rect width="200" height="150" fill="url(#bg63407)" rx="16"/>
  <circle cx="7.210416832276678" cy="3.7804076515612905" r="2.996026794522379" fill="#FFF3B0" opacity="0.3"/><circle cx="197.2238281956379" cy="143.61925873963628" r="3.402634749578283" fill="#FFF3B0" opacity="0.3"/><circle cx="149.39697340369094" cy="1.667163774772007" r="4.893733383761173" fill="#FFF3B0" opacity="0.3"/><circle cx="134.4257792536041" cy="86.5719451824134" r="3.906514411668468" fill="#FFF3B0" opacity="0.3"/><circle cx="166.41537140785658" cy="29.26830884998708" r="3.486647092095154" fill="#FFF3B0" opacity="0.3"/><circle cx="189.09416526694258" cy="8.257566238171421" r="4.566508579526271" fill="#FFF3B0" opacity="0.3"/>
  <circle cx="100" cy="75" r="48" fill="#FFE5D9" opacity="1"/>
  <circle cx="80" cy="68" r="8" fill="#333" opacity="1"/>
  <circle cx="120" cy="68" r="8" fill="#333" opacity="1"/>
  <circle cx="78" cy="65" r="3" fill="white" opacity="1"/>
  <circle cx="118" cy="65" r="3" fill="white" opacity="1"/>
  <path d="M72 92 Q100 115 128 92" stroke="#333" stroke-width="4" fill="none" stroke-linecap="round"/>
  <ellipse cx="60" cy="82" rx="12" ry="7" fill="#FFB3B3" opacity="0.4"/>
  <ellipse cx="140" cy="82" rx="12" ry="7" fill="#FFB3B3" opacity="0.4"/>
  <path d="M45,42.25 C39,37 42,34 45,37.75 C48,34 51,37 45,42.25Z" fill="#FFB3B3"/>
  <path d="M160,46.8 C155.2,42.6 157.6,40.2 160,43.2 C162.4,40.2 164.8,42.6 160,46.8Z" fill="#FFD6D6"/>
</svg>