<svg xmlns="http://www.w3.org/2000/svg" viewBox="0 0 200 150" width="200" height="150">
  <defs>
    <linearGradient id="bg63887" gradientTransform="rotate(180)">
      <stop offset="0%" style="stop-color:#E2D9F3"/>
      <stop offset="100%" style="stop-color:#C9B8E8"/>
    </linearGradient>
  </defs>
  <rect width="200" height="150" fill="url(#bg63887)" rx="16"/>
  <circle cx="169.65392969359527" cy="65.73812981186506" r="4.80203717434415" fill="#E2D9F3" opacity="0.3"/><circle cx="169.8769861402127" cy="25.03203556561857" r="4.778283083236602" fill="#E2D9F3" opacity="0.3"/><circle cx="83.26179473842785" cy="69.0030515285116" r="2.9117325126135256" fill="#E2D9F3" opacity="0.3"/><circle cx="69.79013742875395" cy="137.8319434765615" r="4.245203429127287" fill="#E2D9F3" opacity="0.3"/><circle cx="182.13811367659218" cy="110.09961474874217" r="3.955524262313702" fill="#E2D9F3" opacity="0.3"/><circle cx="97.88963612263615" cy="29.358359428420044" r="2.3494256670010714" fill="#E2D9F3" opacity="0.3"/>
  <circle cx="100" cy="75" r="48" fill="#FFE5D9" opacity="1"/>
  <circle cx="80" cy="68" r="8" fill="#333" opacity="1"/>
  <circle cx="120" cy="68" r="8" fill="#333" opacity="1"/>
  <circle cx="78" cy="65" r="3" fill="white" opacity="1"/>
  <circle cx="118" cy="65" r="3" fill="white" opacity="1"/>
  <path d="M72 92 Q100 115 128 92" stroke="#333" stroke-width="4" fill="none" stroke-linecap="round"/>
  <ellipse cx="60" cy="82" rx="12" ry="7" fill="#FFB3B3" opacity="0.4"/>
  <ellipse cx="140" cy="82" rx="12" ry="7" fill="#FFB3B3" opacity="0.4"/>
  <path d="M45,42.25 C39,37 42,34 45,37.75 C48,34 51,37 45,42.25Z" fill="#FFB3B3"/>
  <path d="M160,46.8 C155.2,42.6 157.6,40.2 160,43.2 C162.4,40.2 164.8,42.6 160,46.8Z" fill="#FFD6D6"/>
</svg>