<svg xmlns="http://www.w3.org/2000/svg" viewBox="0 0 200 150" width="200" height="150">
  <defs>
    <linearGradient id="bg63927" gradientTransform="rotate(0)">
      <stop offset="0%" style="stop-color:#D0F0F0"/>
      <stop offset="100%" style="stop-color:#A0E0E0"/>
    </linearGradient>
  </defs>
  <rect width="200" height="150" fill="url(#bg63927)" rx="16"/>
  <circle cx="173.37765761039918" cy="17.884680215797744" r="2.029477835691978" fill="#D0F0F0" opacity="0.3"/><circle cx="194.81853541101373" cy="99.02690863846146" r="2.2752685525065317" fill="#D0F0F0" opacity="0.3"/><circle cx="56.42233849914646" cy="100.1173193197701" r="4.844204091711617" fill="#D0F0F0" opacity="0.3"/><circle cx="25.02607304159028" cy="129.10656482576996" r="3.7636542438904144" fill="#D0F0F0" opacity="0.3"/><circle cx="156.65588306255813" cy="147.9804526838052" r="2.054819197845518" fill="#D0F0F0" opacity="0.3"/><circle cx="106.84164713784412" cy="111.95220785689344" r="4.481798347833319" fill="#D0F0F0" opacity="0.3"/>
  <circle cx="100" cy="75" r="48" fill="#FFE5D9" opacity="1"/>
  <circle cx="80" cy="68" r="8" fill="#333" opacity="1"/>
  <circle cx="120" cy="68" r="8" fill="#333" opacity="1"/>
  <circle cx="78" cy="65" r="3" fill="white" opacity="1"/>
  <circle cx="118" cy="65" r="3" fill="white" opacity="1"/>
  <path d="M72 92 Q100 115 128 92" stroke="#333" stroke-width="4" fill="none" stroke-linecap="round"/>
  <ellipse cx="60" cy="82" rx="12" ry="7" fill="#FFB3B3" opacity="0.4"/>
  <ellipse cx="140" cy="82" rx="12" ry="7" fill="#FFB3B3" opacity="0.4"/>
  <path d="M45,42.25 C39,37 42,34 45,37.75 C48,34 51,37 45,42.25Z" fill="#FFB3B3"/>
  <path d="M160,46.8 C155.2,42.6 157.6,40.2 160,43.2 C162.4,40.2 164.8,42.6 160,46.8Z" fill="#FFD6D6"/>
</svg>