<svg xmlns="http://www.w3.org/2000/svg" viewBox="0 0 200 150" width="200" height="150">
  <defs>
    <linearGradient id="bg63951" gradientTransform="rotate(45)">
      <stop offset="0%" style="stop-color:#FFD6D6"/>
      <stop offset="100%" style="stop-color:#FFB3B3"/>
    </linearGradient>
  </defs>
  <rect width="200" height="150" fill="url(#bg63951)" rx="16"/>
  <rect x="0" y="0" width="200" height="150" rx="0" fill="#1a1a3e"/>
  <polygon points="174.56789462286906,12.595231464828998 175.71399930335616,14.917493195288774 178.27676727825596,15.289885179923752 176.42233095056253,17.09751384475602 176.86010398384323,19.64992647885824 174.56789462286906,18.444840702303395 172.2756852618949,19.64992647885824 172.7134582951756,17.09751384475602 170.85902196748216,15.28988517992375 173.42178994238196,14.917493195288774" fill="#FFF3B0"/>
  <polygon points="81.2246772492017,50.28902841056879 82.37392447324757,52.61765762976418 84.94371938916704,52.99107068869767 83.08419831918437,54.80365575229004 83.52317169729342,57.3630669337494 81.2246772492017,56.154676891354484 78.92618280110999,57.3630669337494 79.36515617921904,54.80365575229004 77.50563510923637,52.99107068869767 80.07543002515584,52.61765762976418" fill="#FFF3B0"/>
  <polygon points="71.78900473238173,31.8557824246127 73.18914631842942,34.692779147391946 76.31995808295646,35.14771272621362 74.05448140766909,37.35600670568493 74.58928790447713,40.47416784279961 71.78900473238173,39.0019718564854 68.98872156028632,40.47416784279961 69.52352805709437,37.35600670568493 67.258051381807,35.14771272621362 70.38886314633403,34.692779147391946" fill="#FFF3B0"/>
  <polygon points="92.24684689277638,50.03036210280152 93.67744060230905,52.92906156721021 96.87634538500771,53.39388964074428 94.56159613889204,55.650212506454025 95.10803431184172,58.8361915192319 92.24684689277638,57.331976275425404 89.38565947371103,58.8361915192319 89.93209764666071,55.650212506454025 87.61734840054504,53.39388964074427 90.8162531832437,52.92906156721021" fill="#FFF3B0"/>
  <polygon points="103.88906332247643,50.71607649422913 104.55305419330145,52.061468948290354 106.03778291690544,52.27721266034024 104.96342311969094,53.324454637207594 105.21704506412645,54.80318403817472 103.88906332247643,54.10502272026315 102.56108158082641,54.80318403817472 102.81470352526192,53.324454637207594 101.74034372804742,52.27721266034024 103.22507245165141,52.061468948290354" fill="#FFF3B0"/>
  <polygon points="69.80142567932035,50.21431716804818 71.16095354105727,52.96902149703117 74.20095025720595,53.4107588768869 72.00118796826314,55.5549971610106 72.52048140279418,58.58271020484575 69.80142567932035,57.15321801542996 67.08236995584652,58.58271020484575 67.60166339037755,55.5549971610106 65.40190110143475,53.4107588768869 68.44189781758342,52.96902149703117" fill="#FFF3B0"/>
  <polygon points="125.01090198990141,14.749731656987933 126.25976538736047,17.28020528986637 129.05230883869027,17.68598560560516 127.03160541429584,19.655684634098254 127.50862878481954,22.43694429406893 125.01090198990141,21.123811608406868 122.5131751949833,22.43694429406893 122.99019856550699,19.655684634098254 120.96949514111256,17.68598560560516 123.76203859244235,17.28020528986637" fill="#FFF3B0"/>
  <polygon points="119.64573428946096,14.601003696402586 120.56506157507012,16.46376423606837 122.62073987926256,16.76247177844712 121.13323708436177,18.212428647241424 121.48438886067927,20.259800600793227 119.64573428946096,19.293162688263692 117.80707971824265,20.259800600793227 118.15823149456016,18.212428647241424 116.67072869965936,16.76247177844712 118.7264070038518,16.46376423606837" fill="#FFF3B0"/>
  <polygon points="147.5806393754715,12.723768158672101 148.75657041490726,15.106464693320993 151.3860321559376,15.488547849445307 149.48333576570457,17.34321844885923 149.93250145434303,19.962055360521777 147.5806393754715,18.72560829424583 145.22877729659996,19.962055360521777 145.67794298523842,17.34321844885923 143.77524659500537,15.488547849445306 146.40470833603572,15.106464693320993" fill="#FFF3B0"/>
  <polygon points="155.22182027024883,10.484508987975914 156.32865729206648,12.727205751530528 158.80362011286414,13.086838900438853 157.0127201915565,14.832534875683313 157.4354943138841,17.297497148744423 155.22182027024883,16.133699831914782 153.00814622661355,17.297497148744423 153.43092034894116,14.832534875683313 151.64002042763352,13.08683890043885 154.11498324843117,12.727205751530528" fill="#FFF3B0"/>
  <path d="M155 25 A22 22 0 1 1 175 50 A18 18 0 1 0 155 25" fill="#FFE566"/>
  <rect x="35" y="75" width="130" height="50" rx="8" fill="#C9B8E8"/>
  <rect x="45" y="65" width="90" height="20" rx="8" fill="white"/>
  <rect x="40" y="90" width="120" height="30" rx="6" fill="#FFB3B3"/>
  <text x="170" y="75" fill="#E2D9F3" font-size="16" font-weight="bold">z</text>
  <text x="178" y="65" fill="#E2D9F3" font-size="13" font-weight="bold">z</text>
</svg>