<svg xmlns="http://www.w3.org/2000/svg" viewBox="0 0 200 150" width="200" height="150">
  <defs>
    <linearGradient id="bg64062" gradientTransform="rotate(90)">
      <stop offset="0%" style="stop-color:#FFF5EB"/>
      <stop offset="100%" style="stop-color:#FFE4CC"/>
    </linearGradient>
  </defs>
  <rect width="200" height="150" fill="url(#bg64062)" rx="16"/>
  <circle cx="84.65385386080015" cy="86.5687546810932" r="4.98637414609766" fill="#FFF5EB" opacity="0.3"/><circle cx="40.31180576985207" cy="79.58313056481074" r="4.757628120677509" fill="#FFF5EB" opacity="0.3"/><circle cx="71.86560923182697" cy="95.72198011092041" r="2.3522145202914544" fill="#FFF5EB" opacity="0.3"/><circle cx="29.186713564740785" cy="135.2946799165693" r="4.132471796607206" fill="#FFF5EB" opacity="0.3"/><circle cx="16.47908543036465" cy="48.05034388145941" r="2.928701587266005" fill="#FFF5EB" opacity="0.3"/><circle cx="191.0312023224833" cy="125.04259492779966" r="2.67732533484741" fill="#FFF5EB" opacity="0.3"/>
  <circle cx="100" cy="75" r="48" fill="#FFE5D9" opacity="1"/>
  <circle cx="80" cy="68" r="8" fill="#333" opacity="1"/>
  <circle cx="120" cy="68" r="8" fill="#333" opacity="1"/>
  <circle cx="78" cy="65" r="3" fill="white" opacity="1"/>
  <circle cx="118" cy="65" r="3" fill="white" opacity="1"/>
  <path d="M72 92 Q100 115 128 92" stroke="#333" stroke-width="4" fill="none" stroke-linecap="round"/>
  <ellipse cx="60" cy="82" rx="12" ry="7" fill="#FFB3B3" opacity="0.4"/>
  <ellipse cx="140" cy="82" rx="12" ry="7" fill="#FFB3B3" opacity="0.4"/>
  <path d="M45,42.25 C39,37 42,34 45,37.75 C48,34 51,37 45,42.25Z" fill="#FFB3B3"/>
  <path d="M160,46.8 C155.2,42.6 157.6,40.2 160,43.2 C162.4,40.2 164.8,42.6 160,46.8Z" fill="#FFD6D6"/>
</svg>