<svg xmlns="http://www.w3.org/2000/svg" viewBox="0 0 200 150" width="200" height="150">
  <defs>
    <linearGradient id="bg64142" gradientTransform="rotate(90)">
      <stop offset="0%" style="stop-color:#D0F0F0"/>
      <stop offset="100%" style="stop-color:#A0E0E0"/>
    </linearGradient>
  </defs>
  <rect width="200" height="150" fill="url(#bg64142)" rx="16"/>
  <rect x="0" y="0" width="200" height="150" rx="0" fill="#1a1a3e"/>
  <polygon points="53.013591397048,21.543887945674214 54.058380052110365,23.66086098607634 56.39459850695038,24.00033339850679 54.704094951999195,25.648167103172955 55.10316870717273,27.97494563270002 53.013591397048,26.876389829589243 50.92401408692328,27.97494563270002 51.32308784209681,25.648167103172955 49.632584287145626,24.000333398506786 51.96880274198564,23.66086098607634" fill="#FFF3B0"/>
  <polygon points="128.00236030866472,11.188133530552477 128.59793984503733,12.394909480699809 129.92969617437433,12.588425002740536 128.96602824151952,13.527769078778263 129.19351938140997,14.854144198897444 128.00236030866472,14.227914814872292 126.81120123591948,14.854144198897444 127.03869237580992,13.527769078778263 126.07502444295511,12.588425002740536 127.4067807722921,12.394909480699809" fill="#FFF3B0"/>
  <polygon points="133.12189539211886,37.57589750000443 134.49651739590192,40.36118590130184 137.57026563972784,40.8078276652061 135.34608051592335,42.97587232958301 135.871139399685,46.03720052176846 133.12189539211886,44.59183741218385 130.3726513845527,46.03720052176846 130.89771026831437,42.97587232958301 128.67352514450988,40.8078276652061 131.7472733883358,40.36118590130184" fill="#FFF3B0"/>
  <polygon points="169.96923746503398,8.667462443448585 171.38736825378484,11.540909272147694 174.55840509841713,12.001687897247152 172.26382128172554,14.238354327348254 172.80549904253567,17.396578007648273 169.96923746503398,15.905467054247538 167.1329758875323,17.396578007648273 167.67465364834243,14.238354327348254 165.38006983165084,12.00168789724715 168.55110667628313,11.540909272147694" fill="#FFF3B0"/>
  <polygon points="34.67795427383862,21.842566627829 35.98088205326214,24.4825866637146 38.894317137825986,24.905933562018305 36.78613570583231,26.960902573480027 37.28380983268566,29.86256538154916 34.67795427383862,28.49258604057468 32.07209871499158,29.86256538154916 32.56977284184494,26.960902573480027 30.46159140985126,24.905933562018305 33.3750264944151,24.4825866637146" fill="#FFF3B0"/>
  <polygon points="96.77509298622681,41.90514269174491 97.53387295426795,43.442598834819506 99.23055654277304,43.689141391543046 98.00282476449992,44.885884100899005 98.29265292230907,46.575711923702045 96.77509298622681,45.77788345079807 95.25753305014454,46.575711923702045 95.5473612079537,44.885884100899005 94.31962942968057,43.689141391543046 96.01631301818567,43.442598834819506" fill="#FFF3B0"/>
  <polygon points="168.14039270891953,15.867954566102526 169.04609450084357,17.70310684006423 171.0713052749291,17.99738719117379 169.60584899192432,19.42585402212334 169.9517962927676,21.442881555292 168.14039270891953,20.49057033465897 166.32898912507147,21.442881555292 166.67493642591475,19.42585402212334 165.20948014290997,17.997387191173786 167.2346909169955,17.70310684006423" fill="#FFF3B0"/>
  <polygon points="84.84277309227764,17.376261226858333 85.65212978280633,19.016197002975705 87.46190636087273,19.279172933006357 86.15233972657519,20.55568491204448 86.46148647333501,22.358148751143908 84.84277309227764,21.507140765118493 83.22405971122026,22.358148751143908 83.53320645798009,20.55568491204448 82.22363982368255,19.279172933006354 84.03341640174895,19.016197002975705" fill="#FFF3B0"/>
  <polygon points="182.4182576160456,41.67678067900579 183.7436246531223,44.36226761699477 186.7072354431633,44.79290547207884 184.56274652960445,46.883265531183994 185.06899169019903,49.83490130045729 182.4182576160456,48.44132792772052 179.76752354189216,49.83490130045729 180.27376870248673,46.883265531183994 178.12927978892787,44.79290547207884 181.09289057896888,44.36226761699477" fill="#FFF3B0"/>
  <polygon points="134.69796936158673,46.69244832296681 135.78328256080385,48.89153305843237 138.2101166511311,49.24417269343956 136.45404300635892,50.95592143910554 136.86859576002098,53.3729494547859 134.69796936158673,52.231783624341915 132.52734296315248,53.3729494547859 132.94189571681454,50.95592143910554 131.18582207204236,49.24417269343956 133.6126561623696,48.89153305843237" fill="#FFF3B0"/>
  <path d="M155 25 A22 22 0 1 1 175 50 A18 18 0 1 0 155 25" fill="#FFE566"/>
  <rect x="35" y="75" width="130" height="50" rx="8" fill="#C9B8E8"/>
  <rect x="45" y="65" width="90" height="20" rx="8" fill="white"/>
  <rect x="40" y="90" width="120" height="30" rx="6" fill="#A0E0E0"/>
  <text x="170" y="75" fill="#E2D9F3" font-size="16" font-weight="bold">z</text>
  <text x="178" y="65" fill="#E2D9F3" font-size="13" font-weight="bold">z</text>
</svg>