<svg xmlns="http://www.w3.org/2000/svg" viewBox="0 0 200 150" width="200" height="150">
  <defs>
    <linearGradient id="bg64258" gradientTransform="rotate(90)">
      <stop offset="0%" style="stop-color:#E2D9F3"/>
      <stop offset="100%" style="stop-color:#C9B8E8"/>
    </linearGradient>
  </defs>
  <rect width="200" height="150" fill="url(#bg64258)" rx="16"/>
  <rect x="0" y="0" width="200" height="150" rx="0" fill="#1a1a3e"/>
  <polygon points="41.772403279283026,46.261772988736084 42.813177205323726,48.370611299628855 45.14041845316007,48.70877924752513 43.45641086622155,50.350280948331054 43.853951131364425,52.66811854492953 41.772403279283026,51.57378407772558 39.690855427201626,52.66811854492953 40.0883956923445,50.350280948331054 38.40438810540598,48.70877924752513 40.731629353242326,48.370611299628855" fill="#FFF3B0"/>
  <polygon points="16.694532006549707,12.272879354323777 18.11407110286353,15.149179725822158 21.288257018939866,15.61041593778718 18.991394512744787,17.84930354119215 19.533610199177357,21.010663568527164 16.694532006549707,19.51807183292385 13.855453813922058,21.010663568527164 14.397669500354628,17.84930354119215 12.10080699415955,15.610415937787177 15.274992910235882,15.149179725822158" fill="#FFF3B0"/>
  <polygon points="143.6486824851545,39.63174493244878 144.8624345474032,42.09107522959833 147.57646666642185,42.48544718096624 145.6125745757882,44.39976884553495 146.0761866096519,47.10283441283949 143.6486824851545,45.82661996979368 141.2211783606571,47.10283441283949 141.6847903945208,44.39976884553495 139.72089830388714,42.48544718096624 142.43493042290578,42.09107522959833" fill="#FFF3B0"/>
  <polygon points="21.317981391793523,48.2012927971025 22.20829507284041,50.00526535283908 24.19909698495932,50.29454580363684 22.75853918837642,51.69874260865182 23.098608753887298,53.68150031526231 21.317981391793523,52.74536911191899 19.53735402969975,53.68150031526231 19.877423595210626,51.69874260865182 18.43686579862773,50.29454580363684 20.427667710746636,50.00526535283908" fill="#FFF3B0"/>
  <polygon points="184.7214402215377,6.827163812432445 185.92192449735137,9.259610637931832 188.60628894399036,9.649671624161591 186.66386458276403,11.543067424376755 187.12240877316506,14.216585197051437 184.7214402215377,12.954321330241328 182.32047166991035,14.216585197051437 182.77901586031138,11.543067424376755 180.83659149908505,9.64967162416159 183.52095594572404,9.259610637931832" fill="#FFF3B0"/>
  <polygon points="60.902919641503104,45.4902219034002 61.544670258631896,46.790550681417024 62.97966826313432,46.99906809699179 61.941293952318716,48.011232893930575 62.18642087576069,49.440432522018895 60.902919641503104,48.76565599072637 59.61941840724552,49.440432522018895 59.86454533068749,48.011232893930575 58.826171019871886,46.99906809699179 60.26116902437431,46.790550681417024" fill="#FFF3B0"/>
  <polygon points="166.08348174806224,17.957797541615946 167.22122880639188,20.263124879934818 169.76530857001737,20.632801308517166 167.9243951590398,22.427248387374906 168.35897586472151,24.961048323397343 166.08348174806224,23.764750270825516 163.80798763140297,24.961048323397343 164.2425683370847,22.427248387374906 162.4016549261071,20.632801308517166 164.9457346897326,20.263124879934818" fill="#FFF3B0"/>
  <polygon points="52.34223202285648,48.705562074111185 53.5484153800728,51.149556499812775 56.2455233601374,51.54146922984069 54.29387769149694,53.44385358326747 54.754598737289115,56.13006339675007 52.34223202285648,54.86180716113222 49.92986530842384,56.13006339675007 50.39058635421602,53.44385358326747 48.43894068557556,51.541469229840686 51.13604866564016,51.149556499812775" fill="#FFF3B0"/>
  <polygon points="184.7465837258119,28.15591201342619 186.08551599567497,30.868885115201874 189.07945956835692,31.303930581602224 186.9130216470844,33.41568563546417 187.42444826553808,36.39753162212683 184.7465837258119,34.98969491955219 182.0687191860857,36.39753162212683 182.58014580453937,33.41568563546417 180.41370788326685,31.303930581602224 183.4076514559488,30.868885115201874" fill="#FFF3B0"/>
  <polygon points="37.184608602947264,35.522563237625945 38.234750795770616,37.650383730339 40.58294012496432,37.99159561263252 38.883774363955794,39.64787288138126 39.28489298859397,41.98657391471704 37.184608602947264,40.88238906888455 35.08432421730056,41.98657391471704 35.485442841938735,39.64787288138126 33.78627708093021,37.99159561263252 36.13446641012391,37.650383730339" fill="#FFF3B0"/>
  <path d="M155 25 A22 22 0 1 1 175 50 A18 18 0 1 0 155 25" fill="#FFE566"/>
  <rect x="35" y="75" width="130" height="50" rx="8" fill="#C9B8E8"/>
  <rect x="45" y="65" width="90" height="20" rx="8" fill="white"/>
  <rect x="40" y="90" width="120" height="30" rx="6" fill="#C9B8E8"/>
  <text x="170" y="75" fill="#E2D9F3" font-size="16" font-weight="bold">z</text>
  <text x="178" y="65" fill="#E2D9F3" font-size="13" font-weight="bold">z</text>
</svg>