<svg xmlns="http://www.w3.org/2000/svg" viewBox="0 0 200 150" width="200" height="150">
  <defs>
    <linearGradient id="bg6445" gradientTransform="rotate(90)">
      <stop offset="0%" style="stop-color:#FFF3B0"/>
      <stop offset="100%" style="stop-color:#FFE566"/>
    </linearGradient>
  </defs>
  <rect width="200" height="150" fill="url(#bg6445)" rx="16"/>
  <circle cx="88.97403755963751" cy="122.88255215335084" r="3.7752509576121156" fill="#FFF3B0" opacity="0.3"/><circle cx="119.47630750328244" cy="70.21870200560443" r="2.495743300207323" fill="#FFF3B0" opacity="0.3"/><circle cx="136.47268713866652" cy="14.606788794480963" r="3.2570423881570605" fill="#FFF3B0" opacity="0.3"/><circle cx="91.16419441816106" cy="114.22405753119165" r="3.901964472986947" fill="#FFF3B0" opacity="0.3"/><circle cx="146.81329923514568" cy="52.52710150989515" r="3.490593968878443" fill="#FFF3B0" opacity="0.3"/><circle cx="197.3897120962647" cy="13.11581541385749" r="2.354649494660407" fill="#FFF3B0" opacity="0.3"/>
  <ellipse cx="100" cy="95" rx="32" ry="28" fill="#FFE566" opacity="1"/>
  <circle cx="100" cy="58" r="28" fill="#FFE566" opacity="1"/>
  <ellipse cx="82" cy="25" rx="10" ry="24" fill="#FFE566" opacity="1"/>
  <ellipse cx="118" cy="25" rx="10" ry="24" fill="#FFE566" opacity="1"/>
  <ellipse cx="82" cy="27" rx="5" ry="15" fill="#FFD6D6" opacity="1"/>
  <ellipse cx="118" cy="27" rx="5" ry="15" fill="#FFD6D6" opacity="1"/>
  <circle cx="88" cy="52" r="5" fill="#333" opacity="1"/>
  <circle cx="112" cy="52" r="5" fill="#333" opacity="1"/>
  <circle cx="86" cy="50" r="2" fill="white" opacity="1"/>
  <circle cx="110" cy="50" r="2" fill="white" opacity="1"/>
  <ellipse cx="100" cy="68" rx="6" ry="4" fill="#FFB3B3" opacity="1"/>
  <path d="M50,46.8 C45.2,42.6 47.6,40.2 50,43.2 C52.4,40.2 54.8,42.6 50,46.8Z" fill="#FFB3B3"/>
  <path d="M155,51.5 C151,48 153,46 155,48.5 C157,46 159,48 155,51.5Z" fill="#FFD6D6"/>
</svg>