<svg xmlns="http://www.w3.org/2000/svg" viewBox="0 0 200 150" width="200" height="150">
  <defs>
    <linearGradient id="bg64461" gradientTransform="rotate(45)">
      <stop offset="0%" style="stop-color:#E0F4FF"/>
      <stop offset="100%" style="stop-color:#BAE6FD"/>
    </linearGradient>
  </defs>
  <rect width="200" height="150" fill="url(#bg64461)" rx="16"/>
  <circle cx="8.334765208201134" cy="9.007985060634383" r="2.487082594925596" fill="#E0F4FF" opacity="0.3"/><circle cx="99.49751709191332" cy="99.80304714448494" r="2.84551109188169" fill="#E0F4FF" opacity="0.3"/><circle cx="65.68275156860182" cy="7.526205317759604" r="2.912589529722027" fill="#E0F4FF" opacity="0.3"/><circle cx="194.2559430779511" cy="57.48019968277731" r="2.916064252369324" fill="#E0F4FF" opacity="0.3"/><circle cx="131.7692976741455" cy="127.30199419222572" r="4.134859813590083" fill="#E0F4FF" opacity="0.3"/><circle cx="168.7694075397303" cy="5.680759965139259" r="3.1039881111664727" fill="#E0F4FF" opacity="0.3"/>
  <circle cx="100" cy="75" r="48" fill="#FFE5D9" opacity="1"/>
  <circle cx="80" cy="68" r="8" fill="#333" opacity="1"/>
  <circle cx="120" cy="68" r="8" fill="#333" opacity="1"/>
  <circle cx="78" cy="65" r="3" fill="white" opacity="1"/>
  <circle cx="118" cy="65" r="3" fill="white" opacity="1"/>
  <path d="M72 92 Q100 115 128 92" stroke="#333" stroke-width="4" fill="none" stroke-linecap="round"/>
  <ellipse cx="60" cy="82" rx="12" ry="7" fill="#FFB3B3" opacity="0.4"/>
  <ellipse cx="140" cy="82" rx="12" ry="7" fill="#FFB3B3" opacity="0.4"/>
  <path d="M45,42.25 C39,37 42,34 45,37.75 C48,34 51,37 45,42.25Z" fill="#FFB3B3"/>
  <path d="M160,46.8 C155.2,42.6 157.6,40.2 160,43.2 C162.4,40.2 164.8,42.6 160,46.8Z" fill="#FFD6D6"/>
</svg>