<svg xmlns="http://www.w3.org/2000/svg" viewBox="0 0 200 150" width="200" height="150">
  <defs>
    <linearGradient id="bg6458" gradientTransform="rotate(90)">
      <stop offset="0%" style="stop-color:#E2D9F3"/>
      <stop offset="100%" style="stop-color:#C9B8E8"/>
    </linearGradient>
  </defs>
  <rect width="200" height="150" fill="url(#bg6458)" rx="16"/>
  <circle cx="81.11681538466655" cy="123.42047749739322" r="4.129833896166019" fill="#E2D9F3" opacity="0.3"/><circle cx="139.8243466981512" cy="24.919784475378037" r="3.9357309158279463" fill="#E2D9F3" opacity="0.3"/><circle cx="169.21869670077285" cy="13.351602267084672" r="4.847943416000845" fill="#E2D9F3" opacity="0.3"/><circle cx="168.49398132453643" cy="51.589880565143176" r="2.492735387662833" fill="#E2D9F3" opacity="0.3"/><circle cx="24.7850374715199" cy="32.09264073416307" r="4.026268191862982" fill="#E2D9F3" opacity="0.3"/><circle cx="110.28246980831682" cy="5.608734305701546" r="3.1522667300898775" fill="#E2D9F3" opacity="0.3"/>
  <circle cx="100" cy="75" r="45" fill="#E2D9F3" opacity="1"/>
  <circle cx="100" cy="75" r="40" fill="white" opacity="1"/>
  <line x1="100" y1="42" x2="100" y2="52" stroke="#B298DC" stroke-width="2"/>
  <line x1="116.5" y1="46.421161675113524" x2="114" y2="50.751288694035715" stroke="#B298DC" stroke-width="2"/>
  <line x1="128.57883832488648" y1="58.5" x2="124.24871130596428" y2="61" stroke="#B298DC" stroke-width="2"/>
  <line x1="133" y1="75" x2="123" y2="75" stroke="#B298DC" stroke-width="2"/>
  <line x1="128.57883832488648" y1="91.5" x2="124.24871130596429" y2="89" stroke="#B298DC" stroke-width="2"/>
  <line x1="116.5" y1="103.57883832488648" x2="114" y2="99.24871130596429" stroke="#B298DC" stroke-width="2"/>
  <line x1="100" y1="108" x2="100" y2="98" stroke="#B298DC" stroke-width="2"/>
  <line x1="83.5" y1="103.57883832488648" x2="86" y2="99.24871130596428" stroke="#B298DC" stroke-width="2"/>
  <line x1="71.42116167511352" y1="91.50000000000001" x2="75.75128869403572" y2="89.00000000000001" stroke="#B298DC" stroke-width="2"/>
  <line x1="67" y1="75" x2="77" y2="75" stroke="#B298DC" stroke-width="2"/>
  <line x1="71.42116167511352" y1="58.5" x2="75.75128869403572" y2="61" stroke="#B298DC" stroke-width="2"/>
  <line x1="83.49999999999999" y1="46.42116167511353" x2="85.99999999999999" y2="50.75128869403572" stroke="#B298DC" stroke-width="2"/>
  <line x1="100" y1="75" x2="100" y2="55" stroke="#B298DC" stroke-width="4" stroke-linecap="round"/>
  <line x1="100" y1="75" x2="118" y2="85" stroke="#FFB3B3" stroke-width="3" stroke-linecap="round"/>
  <circle cx="100" cy="75" r="5" fill="#B298DC" opacity="1"/>
  <polygon points="45,33 48.52671151375484,40.14589803375031 56.412678195541844,41.291796067500634 50.70633909777092,46.85410196624969 52.05342302750968,54.70820393249937 45,51 37.94657697249032,54.70820393249937 39.29366090222908,46.85410196624969 33.587321804458156,41.29179606750063 41.47328848624516,40.14589803375031" fill="#FFF3B0"/>
</svg>