<svg xmlns="http://www.w3.org/2000/svg" viewBox="0 0 200 150" width="200" height="150">
  <defs>
    <linearGradient id="bg64654" gradientTransform="rotate(90)">
      <stop offset="0%" style="stop-color:#E2D9F3"/>
      <stop offset="100%" style="stop-color:#C9B8E8"/>
    </linearGradient>
  </defs>
  <rect width="200" height="150" fill="url(#bg64654)" rx="16"/>
  <circle cx="31.527898513013497" cy="145.14045950918444" r="4.347100640985445" fill="#E2D9F3" opacity="0.3"/><circle cx="156.72774394552107" cy="27.40630213532924" r="3.7424885076552528" fill="#E2D9F3" opacity="0.3"/><circle cx="165.61041811310133" cy="70.98374823544873" r="4.125180292845471" fill="#E2D9F3" opacity="0.3"/><circle cx="14.485061324921844" cy="117.43288664338252" r="4.145183456657833" fill="#E2D9F3" opacity="0.3"/><circle cx="140.00006172464055" cy="33.602506191800785" r="2.4578453466715473" fill="#E2D9F3" opacity="0.3"/><circle cx="105.23256670567207" cy="129.36854158551796" r="3.7301513327561224" fill="#E2D9F3" opacity="0.3"/>
  <circle cx="100" cy="75" r="48" fill="#FFE5D9" opacity="1"/>
  <circle cx="80" cy="68" r="8" fill="#333" opacity="1"/>
  <circle cx="120" cy="68" r="8" fill="#333" opacity="1"/>
  <circle cx="78" cy="65" r="3" fill="white" opacity="1"/>
  <circle cx="118" cy="65" r="3" fill="white" opacity="1"/>
  <path d="M72 92 Q100 115 128 92" stroke="#333" stroke-width="4" fill="none" stroke-linecap="round"/>
  <ellipse cx="60" cy="82" rx="12" ry="7" fill="#FFB3B3" opacity="0.4"/>
  <ellipse cx="140" cy="82" rx="12" ry="7" fill="#FFB3B3" opacity="0.4"/>
  <path d="M45,42.25 C39,37 42,34 45,37.75 C48,34 51,37 45,42.25Z" fill="#FFB3B3"/>
  <path d="M160,46.8 C155.2,42.6 157.6,40.2 160,43.2 C162.4,40.2 164.8,42.6 160,46.8Z" fill="#FFD6D6"/>
</svg>