<svg xmlns="http://www.w3.org/2000/svg" viewBox="0 0 200 150" width="200" height="150">
  <defs>
    <linearGradient id="bg64713" gradientTransform="rotate(45)">
      <stop offset="0%" style="stop-color:#D8F3DC"/>
      <stop offset="100%" style="stop-color:#B7E4C7"/>
    </linearGradient>
  </defs>
  <rect width="200" height="150" fill="url(#bg64713)" rx="16"/>
  <circle cx="91.43358905675996" cy="95.79896438517608" r="4.941602491215235" fill="#D8F3DC" opacity="0.3"/><circle cx="16.190692661257344" cy="138.1514886084119" r="4.588327301952631" fill="#D8F3DC" opacity="0.3"/><circle cx="46.05274567561537" cy="17.180199299946253" r="2.8572935185657116" fill="#D8F3DC" opacity="0.3"/><circle cx="137.46349559442024" cy="115.96459610527745" r="2.810988575773081" fill="#D8F3DC" opacity="0.3"/><circle cx="147.58337359744473" cy="18.67894713941496" r="2.541259964580604" fill="#D8F3DC" opacity="0.3"/><circle cx="21.57242341068013" cy="104.2427695630522" r="2.6595490647832776" fill="#D8F3DC" opacity="0.3"/>
  <circle cx="60" cy="80" r="28" fill="#B7E4C7" opacity="1"/>
  <circle cx="140" cy="80" r="28" fill="#B7E4C7" opacity="1"/>
  <path d="M88 80 L112 80" stroke="#95D5B2" stroke-width="10" stroke-linecap="round"/>
  <path d="M92 74 L108 74" stroke="#95D5B2" stroke-width="5" stroke-linecap="round"/>
  <path d="M92 86 L108 86" stroke="#95D5B2" stroke-width="5" stroke-linecap="round"/>
  <path d="M100,43 C92,36 96,32 100,37 C104,32 108,36 100,43Z" fill="#FFB3B3"/>
  <polygon points="22.5,44.5 24.851141009169893,49.263932022500214 30.10845213036123,50.02786404500042 26.304226065180615,53.736067977499786 27.202282018339787,58.97213595499958 22.5,56.5 17.797717981660217,58.97213595499958 18.695773934819385,53.73606797749979 14.89154786963877,50.02786404500042 20.148858990830107,49.263932022500214" fill="#FFF3B0"/><polygon points="37.46180360259891,12.512972745900807 40.400729864061276,18.46788777402607 46.97236876555045,19.422802802151335 42.21708618407468,24.058057717775544 43.339656125523646,30.603142689650284 37.46180360259891,27.512972745900807 31.583951079674183,30.603142689650284 32.706521021123145,24.058057717775544 27.951238439647376,19.42280280215133 34.52287734113655,18.46788777402607" fill="#FFF3B0"/><polygon points="-1.4731068665784612,40.44813145534826 2.053604647176377,47.594029489098574 9.93957132896338,48.739927522848895 4.233232231192459,54.30223342159795 5.580316160931216,62.15633538784763 -1.4731068665784615,58.44813145534826 -8.526529894088139,62.15633538784763 -7.179445964349383,54.30223342159795 -12.885785062120304,48.73992752284889 -4.999818380333301,47.594029489098574" fill="#FFF3B0"/><polygon points="45.949999419368474,8.61662011821095 50.064496185415784,16.953501157586317 59.264790647500625,18.290382196961687 52.60739503343455,24.779739078835583 54.1789929514631,33.94285803946021 45.949999419368474,29.61662011821095 37.721005887273854,33.94285803946021 39.2926038053024,24.779739078835583 32.63520819123632,18.29038219696168 41.835502653321164,16.953501157586317" fill="#FFF3B0"/>
  <polygon points="100,108 103.52671151375483,115.14589803375031 111.41267819554184,116.29179606750063 105.70633909777092,121.85410196624969 107.05342302750968,129.70820393249937 100,126 92.94657697249032,129.70820393249937 94.29366090222908,121.85410196624969 88.58732180445816,116.29179606750063 96.47328848624517,115.14589803375031" fill="#FFE566"/>
</svg>