<svg xmlns="http://www.w3.org/2000/svg" viewBox="0 0 200 150" width="200" height="150">
  <defs>
    <linearGradient id="bg65003" gradientTransform="rotate(90)">
      <stop offset="0%" style="stop-color:#E2D9F3"/>
      <stop offset="100%" style="stop-color:#C9B8E8"/>
    </linearGradient>
  </defs>
  <rect width="200" height="150" fill="url(#bg65003)" rx="16"/>
  <circle cx="196.44495580469084" cy="25.02864580037567" r="2.3310220444836887" fill="#E2D9F3" opacity="0.3"/><circle cx="36.0696386471318" cy="108.71927626576507" r="2.1350552473937796" fill="#E2D9F3" opacity="0.3"/><circle cx="145.86366246076068" cy="125.32907983695623" r="3.5365827485497903" fill="#E2D9F3" opacity="0.3"/><circle cx="199.9072937627716" cy="61.69792173557198" r="4.3268742852797" fill="#E2D9F3" opacity="0.3"/><circle cx="110.28538218670292" cy="143.05444661649744" r="3.1725268626996694" fill="#E2D9F3" opacity="0.3"/><circle cx="126.82834153783915" cy="34.275422522432564" r="3.861518115947547" fill="#E2D9F3" opacity="0.3"/>
  <circle cx="100" cy="75" r="48" fill="#FFE5D9" opacity="1"/>
  <circle cx="80" cy="68" r="8" fill="#333" opacity="1"/>
  <circle cx="120" cy="68" r="8" fill="#333" opacity="1"/>
  <circle cx="78" cy="65" r="3" fill="white" opacity="1"/>
  <circle cx="118" cy="65" r="3" fill="white" opacity="1"/>
  <path d="M72 92 Q100 115 128 92" stroke="#333" stroke-width="4" fill="none" stroke-linecap="round"/>
  <ellipse cx="60" cy="82" rx="12" ry="7" fill="#FFB3B3" opacity="0.4"/>
  <ellipse cx="140" cy="82" rx="12" ry="7" fill="#FFB3B3" opacity="0.4"/>
  <path d="M45,42.25 C39,37 42,34 45,37.75 C48,34 51,37 45,42.25Z" fill="#FFB3B3"/>
  <path d="M160,46.8 C155.2,42.6 157.6,40.2 160,43.2 C162.4,40.2 164.8,42.6 160,46.8Z" fill="#FFD6D6"/>
</svg>