<svg xmlns="http://www.w3.org/2000/svg" viewBox="0 0 200 150" width="200" height="150">
  <defs>
    <linearGradient id="bg65406" gradientTransform="rotate(45)">
      <stop offset="0%" style="stop-color:#E8F0E8"/>
      <stop offset="100%" style="stop-color:#C5DBC5"/>
    </linearGradient>
  </defs>
  <rect width="200" height="150" fill="url(#bg65406)" rx="16"/>
  <circle cx="79.6216773098422" cy="65.84180242302864" r="4.922990344866776" fill="#E8F0E8" opacity="0.3"/><circle cx="113.31257519868814" cy="39.751443818408916" r="4.861334513787369" fill="#E8F0E8" opacity="0.3"/><circle cx="10.290801666519656" cy="37.74110198828566" r="3.7345201669559174" fill="#E8F0E8" opacity="0.3"/><circle cx="80.54220080448431" cy="83.6388440769042" r="3.3790467651615472" fill="#E8F0E8" opacity="0.3"/><circle cx="124.0779731208022" cy="44.52311249015111" r="4.399342195034933" fill="#E8F0E8" opacity="0.3"/><circle cx="143.90639591765648" cy="133.42541014289964" r="3.6032211803749306" fill="#E8F0E8" opacity="0.3"/>
  <circle cx="100" cy="75" r="45" fill="#E8F0E8" opacity="1"/>
  <circle cx="100" cy="75" r="40" fill="white" opacity="1"/>
  <line x1="100" y1="42" x2="100" y2="52" stroke="#A3C4A3" stroke-width="2"/>
  <line x1="116.5" y1="46.421161675113524" x2="114" y2="50.751288694035715" stroke="#A3C4A3" stroke-width="2"/>
  <line x1="128.57883832488648" y1="58.5" x2="124.24871130596428" y2="61" stroke="#A3C4A3" stroke-width="2"/>
  <line x1="133" y1="75" x2="123" y2="75" stroke="#A3C4A3" stroke-width="2"/>
  <line x1="128.57883832488648" y1="91.5" x2="124.24871130596429" y2="89" stroke="#A3C4A3" stroke-width="2"/>
  <line x1="116.5" y1="103.57883832488648" x2="114" y2="99.24871130596429" stroke="#A3C4A3" stroke-width="2"/>
  <line x1="100" y1="108" x2="100" y2="98" stroke="#A3C4A3" stroke-width="2"/>
  <line x1="83.5" y1="103.57883832488648" x2="86" y2="99.24871130596428" stroke="#A3C4A3" stroke-width="2"/>
  <line x1="71.42116167511352" y1="91.50000000000001" x2="75.75128869403572" y2="89.00000000000001" stroke="#A3C4A3" stroke-width="2"/>
  <line x1="67" y1="75" x2="77" y2="75" stroke="#A3C4A3" stroke-width="2"/>
  <line x1="71.42116167511352" y1="58.5" x2="75.75128869403572" y2="61" stroke="#A3C4A3" stroke-width="2"/>
  <line x1="83.49999999999999" y1="46.42116167511353" x2="85.99999999999999" y2="50.75128869403572" stroke="#A3C4A3" stroke-width="2"/>
  <line x1="100" y1="75" x2="100" y2="55" stroke="#A3C4A3" stroke-width="4" stroke-linecap="round"/>
  <line x1="100" y1="75" x2="118" y2="85" stroke="#FFB3B3" stroke-width="3" stroke-linecap="round"/>
  <circle cx="100" cy="75" r="5" fill="#A3C4A3" opacity="1"/>
  <polygon points="45,33 48.52671151375484,40.14589803375031 56.412678195541844,41.291796067500634 50.70633909777092,46.85410196624969 52.05342302750968,54.70820393249937 45,51 37.94657697249032,54.70820393249937 39.29366090222908,46.85410196624969 33.587321804458156,41.29179606750063 41.47328848624516,40.14589803375031" fill="#FFF3B0"/>
</svg>