<svg xmlns="http://www.w3.org/2000/svg" viewBox="0 0 200 150" width="200" height="150">
  <defs>
    <linearGradient id="bg65814" gradientTransform="rotate(90)">
      <stop offset="0%" style="stop-color:#E8F0E8"/>
      <stop offset="100%" style="stop-color:#C5DBC5"/>
    </linearGradient>
  </defs>
  <rect width="200" height="150" fill="url(#bg65814)" rx="16"/>
  <rect x="0" y="0" width="200" height="150" rx="0" fill="#1a1a3e"/>
  <polygon points="147.50941504846196,46.13679998017585 148.83175162366948,48.816146531737424 151.78858609496774,49.24579973007151 149.64900057171485,51.33138016491048 150.154088198877,54.27626699641762 147.50941504846196,52.88588003985831 144.86474189804693,54.27626699641762 145.36982952520907,51.33138016491048 143.23024400195618,49.24579973007151 146.18707847325445,48.816146531737424" fill="#FFF3B0"/>
  <polygon points="84.99330652929984,30.502418718655463 85.89170921591014,32.32278138986508 87.90059869433918,32.614690117893325 86.44695261181951,34.03164484858066 86.79011190252042,36.03241703532448 84.99330652929984,35.08778054819959 83.19650115607926,36.03241703532448 83.53966044678018,34.03164484858066 82.0860143642605,32.614690117893325 84.09490384268955,32.32278138986508" fill="#FFF3B0"/>
  <polygon points="109.32078364703557,19.64096960040115 110.62072198568723,22.274932367681036 113.52747247747047,22.69730793779724 111.42412806225302,24.747562023194146 111.92066032433888,27.64256724882346 109.32078364703557,26.27573119189219 106.72090696973225,27.64256724882346 107.21743923181812,24.747562023194146 105.11409481660067,22.69730793779724 108.02084530838391,22.274932367681036" fill="#FFF3B0"/>
  <polygon points="144.038603477361,27.609491326656496 145.17158262280702,29.90515781827237 147.70500100911397,30.273285058048913 145.87180224323748,32.06021221647829 146.30456176825305,34.58339385446075 144.038603477361,33.3921090821745 141.77264518646894,34.58339385446075 142.2054047114845,32.06021221647829 140.37220594560802,30.273285058048913 142.90562433191496,29.90515781827237" fill="#FFF3B0"/>
  <polygon points="33.46774205548627,18.637868922751295 34.16064163859684,20.041836825775096 35.71001220801336,20.266973547839292 34.58887713174981,21.359810153086112 34.853541221707424,22.902920202461324 33.46774205548627,22.17436246563011 32.08194288926512,22.902920202461324 32.34660697922273,21.359810153086112 31.225471902959182,20.266973547839292 32.774842472375695,20.041836825775096" fill="#FFF3B0"/>
  <polygon points="157.0259917374642,8.86579671701665 157.64102561791017,10.111991473754603 159.01628318305282,10.311828095362051 158.02113746025853,11.28185543323546 158.25605949835614,12.651556014323768 157.0259917374642,12.004871122408161 155.79592397657228,12.651556014323768 156.0308460146699,11.281855433235462 155.0357002918756,10.311828095362051 156.41095785701825,10.111991473754603" fill="#FFF3B0"/>
  <polygon points="147.75102422519012,14.546081779598353 148.76800232731193,16.60670448490775 151.04203449528498,16.937140700924683 149.39652936023757,18.541111786812582 149.78498042943372,20.805955304734344 147.75102422519012,19.736641247475745 145.71706802094653,20.805955304734344 146.10551909014268,18.541111786812582 144.46001395509526,16.93714070092468 146.7340461230683,16.60670448490775" fill="#FFF3B0"/>
  <polygon points="135.98337950101268,44.645044840516675 137.07277772646307,46.85240674319999 139.50874621313778,47.206373683689996 137.74606285707523,48.92456530550993 138.16217595191347,51.350690808309885 135.98337950101268,50.205229727096594 133.8045830501119,51.350690808309885 134.22069614495013,48.92456530550993 132.45801278888757,47.206373683689996 134.89398127556228,46.85240674319999" fill="#FFF3B0"/>
  <polygon points="44.2482457555343,25.953702346673253 45.27971929790124,28.043696021947753 47.586164255626215,28.3788420920059 45.91720500558026,30.005675289655997 46.31119284026818,32.302800627422386 44.2482457555343,31.21824516232232 42.18529867080042,32.302800627422386 42.57928650548834,30.005675289655997 40.91032725544238,28.378842092005897 43.21677221316736,28.043696021947753" fill="#FFF3B0"/>
  <polygon points="97.09481991153552,37.29638987903763 98.49573701214103,40.13495796594241 101.62828287993688,40.590143524718634 99.3615513957362,42.79966064058278 99.89665411274655,45.91954887399938 97.09481991153552,44.44653746342328 94.2929857103245,45.91954887399938 94.82808842733485,42.79966064058278 92.56135694313417,40.590143524718634 95.69390281093001,40.13495796594241" fill="#FFF3B0"/>
  <path d="M155 25 A22 22 0 1 1 175 50 A18 18 0 1 0 155 25" fill="#FFE566"/>
  <rect x="35" y="75" width="130" height="50" rx="8" fill="#C9B8E8"/>
  <rect x="45" y="65" width="90" height="20" rx="8" fill="white"/>
  <rect x="40" y="90" width="120" height="30" rx="6" fill="#C5DBC5"/>
  <text x="170" y="75" fill="#E2D9F3" font-size="16" font-weight="bold">z</text>
  <text x="178" y="65" fill="#E2D9F3" font-size="13" font-weight="bold">z</text>
</svg>