<svg xmlns="http://www.w3.org/2000/svg" viewBox="0 0 200 150" width="200" height="150">
  <defs>
    <linearGradient id="bg66022" gradientTransform="rotate(90)">
      <stop offset="0%" style="stop-color:#FFE5D9"/>
      <stop offset="100%" style="stop-color:#FFCDB2"/>
    </linearGradient>
  </defs>
  <rect width="200" height="150" fill="url(#bg66022)" rx="16"/>
  <circle cx="152.10317026321718" cy="60.72482256568037" r="2.841128921656491" fill="#FFE5D9" opacity="0.3"/><circle cx="120.71277559771261" cy="95.45422763121678" r="4.883115783306266" fill="#FFE5D9" opacity="0.3"/><circle cx="94.44391706965689" cy="112.7453334324855" r="2.652212915250857" fill="#FFE5D9" opacity="0.3"/><circle cx="161.079293930743" cy="149.77093841398528" r="4.821371010456586" fill="#FFE5D9" opacity="0.3"/><circle cx="15.039860769866209" cy="49.1735468212255" r="4.934400817578535" fill="#FFE5D9" opacity="0.3"/><circle cx="121.95272661092531" cy="149.08591297212297" r="4.329806555292635" fill="#FFE5D9" opacity="0.3"/>
  <circle cx="100" cy="75" r="48" fill="#FFE5D9" opacity="1"/>
  <circle cx="80" cy="68" r="8" fill="#333" opacity="1"/>
  <circle cx="120" cy="68" r="8" fill="#333" opacity="1"/>
  <circle cx="78" cy="65" r="3" fill="white" opacity="1"/>
  <circle cx="118" cy="65" r="3" fill="white" opacity="1"/>
  <path d="M72 92 Q100 115 128 92" stroke="#333" stroke-width="4" fill="none" stroke-linecap="round"/>
  <ellipse cx="60" cy="82" rx="12" ry="7" fill="#FFB3B3" opacity="0.4"/>
  <ellipse cx="140" cy="82" rx="12" ry="7" fill="#FFB3B3" opacity="0.4"/>
  <path d="M45,42.25 C39,37 42,34 45,37.75 C48,34 51,37 45,42.25Z" fill="#FFB3B3"/>
  <path d="M160,46.8 C155.2,42.6 157.6,40.2 160,43.2 C162.4,40.2 164.8,42.6 160,46.8Z" fill="#FFD6D6"/>
</svg>