<svg xmlns="http://www.w3.org/2000/svg" viewBox="0 0 200 150" width="200" height="150">
  <defs>
    <linearGradient id="bg66065" gradientTransform="rotate(180)">
      <stop offset="0%" style="stop-color:#E8F0E8"/>
      <stop offset="100%" style="stop-color:#C5DBC5"/>
    </linearGradient>
  </defs>
  <rect width="200" height="150" fill="url(#bg66065)" rx="16"/>
  <rect x="0" y="0" width="200" height="150" rx="0" fill="#1a1a3e"/>
  <polygon points="35.26969603677571,31.036424789837838 36.14443726840821,32.80884411667635 38.10041812506036,33.093064771940774 36.685057080918035,34.47270081350862 37.0191785000407,36.42077816560531 35.26969603677571,35.501020804560085 33.52021357351072,36.42077816560531 33.85433499263339,34.47270081350862 32.43897394849107,33.093064771940774 34.394954805143215,32.80884411667635" fill="#FFF3B0"/>
  <polygon points="74.18505810100442,51.168451367965275 75.21824362914168,53.26191390529506 77.52851670342564,53.59761623324966 75.85678740221502,55.22714956344866 76.25142915727895,57.52808754955685 74.18505810100442,56.44173199609085 72.11868704472988,57.52808754955685 72.51332879979381,55.22714956344866 70.8415994985832,53.59761623324966 73.15187257286715,53.26191390529506" fill="#FFF3B0"/>
  <polygon points="24.00222781669072,25.745726134972756 24.6858041241071,27.13080301807859 26.214327215298418,27.35291042423633 25.10827751599457,28.431042421185243 25.369380431523478,29.95338923044964 24.00222781669072,29.234634565817032 22.635075201857962,29.95338923044964 22.89617811738687,28.431042421185243 21.79012841808302,27.35291042423633 23.31865150927434,27.13080301807859" fill="#FFF3B0"/>
  <polygon points="135.62357048756894,23.516815677028717 137.00725307256852,26.3204628210946 140.10126139191019,26.770048546295424 137.86241593973958,28.952383498990535 138.3909356575681,32.033889902087296 135.62357048756894,30.57899993362389 132.8562053175698,32.033889902087296 133.3847250353983,28.95238349899054 131.1458795832277,26.770048546295424 134.23988790256936,26.3204628210946" fill="#FFF3B0"/>
  <polygon points="100.42089366715118,46.08456594764266 101.6054563483529,48.48475209880336 104.25421902712935,48.86963984534827 102.33755634714026,50.737924212637274 102.79001902955461,53.37598407301608 100.42089366715118,52.130461161490075 98.05176830474774,53.37598407301608 98.50423098716209,50.737924212637274 96.587568307173,48.86963984534826 99.23633098594945,48.48475209880336" fill="#FFF3B0"/>
  <polygon points="145.9220635152269,18.333474184440107 146.8955102197496,20.305892644152248 149.07220322353547,20.622184651684684 147.4971333693812,22.157498307356935 147.86895692427228,24.325395978094058 145.9220635152269,23.301853540979224 143.97517010618154,24.325395978094058 144.34699366107262,22.157498307356935 142.77192380691835,20.62218465168468 144.9486168107042,20.305892644152248" fill="#FFF3B0"/>
  <polygon points="29.65970722721977,28.333552817013697 31.128863624054397,31.310388820317726 34.41399719695528,31.787746670495867 32.036852212087524,34.10489034965029 32.598020020889024,37.37674972916099 29.65970722721977,35.831987276391374 26.721394433550515,37.37674972916099 27.282562242352014,34.10489034965029 24.90541725748426,31.787746670495864 28.190550830385142,31.310388820317726" fill="#FFF3B0"/>
  <polygon points="156.7199396954402,7.10078107879508 157.9577306548826,9.608819501777987 160.72551538213048,10.011002164319848 158.72272753878534,11.963237817355832 159.19552161432497,14.719838795475539 156.7199396954402,13.418348360118216 154.2443577765554,14.719838795475539 154.71715185209504,11.963237817355832 152.7143640087499,10.011002164319848 155.48214873599778,9.608819501777987" fill="#FFF3B0"/>
  <polygon points="115.63665344826404,46.330636432756364 116.94012729113867,48.971762914044795 119.85478341069918,49.395287239119156 117.74571842948161,51.45111749821718 118.24360113401328,54.353996407463924 115.63665344826404,52.983442901398575 113.02970576251481,54.353996407463924 113.52758846704647,51.45111749821718 111.4185234858289,49.395287239119156 114.33317960538942,48.971762914044795" fill="#FFF3B0"/>
  <polygon points="60.61212398848511,52.30607850027809 61.28141011374866,53.66220031174012 62.777979386235415,53.87966455625365 61.69505168736026,54.93525817313579 61.95069623901222,56.42578027904501 60.61212398848511,55.72205120112358 59.273551737958,56.42578027904501 59.529196289609956,54.93525817313579 58.4462685907348,53.87966455625365 59.942837863221555,53.66220031174012" fill="#FFF3B0"/>
  <path d="M155 25 A22 22 0 1 1 175 50 A18 18 0 1 0 155 25" fill="#FFE566"/>
  <rect x="35" y="75" width="130" height="50" rx="8" fill="#C9B8E8"/>
  <rect x="45" y="65" width="90" height="20" rx="8" fill="white"/>
  <rect x="40" y="90" width="120" height="30" rx="6" fill="#C5DBC5"/>
  <text x="170" y="75" fill="#E2D9F3" font-size="16" font-weight="bold">z</text>
  <text x="178" y="65" fill="#E2D9F3" font-size="13" font-weight="bold">z</text>
</svg>