<svg xmlns="http://www.w3.org/2000/svg" viewBox="0 0 200 150" width="200" height="150">
  <defs>
    <linearGradient id="bg66092" gradientTransform="rotate(180)">
      <stop offset="0%" style="stop-color:#FFE4EC"/>
      <stop offset="100%" style="stop-color:#FFC8DD"/>
    </linearGradient>
  </defs>
  <rect width="200" height="150" fill="url(#bg66092)" rx="16"/>
  <circle cx="98.9193354958843" cy="21.84293568298017" r="3.335659953647337" fill="#FFE4EC" opacity="0.3"/><circle cx="152.96096177917207" cy="12.948575561392772" r="2.4347883698601436" fill="#FFE4EC" opacity="0.3"/><circle cx="150.1059034559148" cy="0.8578533766012697" r="2.614855339827045" fill="#FFE4EC" opacity="0.3"/><circle cx="101.82606560824752" cy="20.42129764413403" r="3.118781640796442" fill="#FFE4EC" opacity="0.3"/><circle cx="95.52251560289733" cy="54.62752838002416" r="4.322519500668022" fill="#FFE4EC" opacity="0.3"/><circle cx="43.86804850455519" cy="63.93080903631869" r="2.6510773321006127" fill="#FFE4EC" opacity="0.3"/>
  <circle cx="100" cy="75" r="48" fill="#FFE5D9" opacity="1"/>
  <circle cx="80" cy="68" r="8" fill="#333" opacity="1"/>
  <circle cx="120" cy="68" r="8" fill="#333" opacity="1"/>
  <circle cx="78" cy="65" r="3" fill="white" opacity="1"/>
  <circle cx="118" cy="65" r="3" fill="white" opacity="1"/>
  <path d="M72 92 Q100 115 128 92" stroke="#333" stroke-width="4" fill="none" stroke-linecap="round"/>
  <ellipse cx="60" cy="82" rx="12" ry="7" fill="#FFB3B3" opacity="0.4"/>
  <ellipse cx="140" cy="82" rx="12" ry="7" fill="#FFB3B3" opacity="0.4"/>
  <path d="M45,42.25 C39,37 42,34 45,37.75 C48,34 51,37 45,42.25Z" fill="#FFB3B3"/>
  <path d="M160,46.8 C155.2,42.6 157.6,40.2 160,43.2 C162.4,40.2 164.8,42.6 160,46.8Z" fill="#FFD6D6"/>
</svg>