<svg xmlns="http://www.w3.org/2000/svg" viewBox="0 0 200 150" width="200" height="150">
  <defs>
    <linearGradient id="bg66706" gradientTransform="rotate(45)">
      <stop offset="0%" style="stop-color:#FFF5EB"/>
      <stop offset="100%" style="stop-color:#FFE4CC"/>
    </linearGradient>
  </defs>
  <rect width="200" height="150" fill="url(#bg66706)" rx="16"/>
  <circle cx="83.58682709458662" cy="26.560322374552925" r="3.398507458596214" fill="#FFF5EB" opacity="0.3"/><circle cx="35.01847803363489" cy="94.77735274722363" r="2.046073889915533" fill="#FFF5EB" opacity="0.3"/><circle cx="187.115867567627" cy="84.6035812201535" r="3.3989291774214507" fill="#FFF5EB" opacity="0.3"/><circle cx="57.56846153817605" cy="89.87550975152772" r="3.4560210295094294" fill="#FFF5EB" opacity="0.3"/><circle cx="190.38281292578176" cy="34.95559442640115" r="4.511492116168711" fill="#FFF5EB" opacity="0.3"/><circle cx="64.83667892898666" cy="109.64878538566154" r="4.540940580196548" fill="#FFF5EB" opacity="0.3"/>
  <circle cx="100" cy="75" r="48" fill="#FFE5D9" opacity="1"/>
  <circle cx="80" cy="68" r="8" fill="#333" opacity="1"/>
  <circle cx="120" cy="68" r="8" fill="#333" opacity="1"/>
  <circle cx="78" cy="65" r="3" fill="white" opacity="1"/>
  <circle cx="118" cy="65" r="3" fill="white" opacity="1"/>
  <path d="M72 92 Q100 115 128 92" stroke="#333" stroke-width="4" fill="none" stroke-linecap="round"/>
  <ellipse cx="60" cy="82" rx="12" ry="7" fill="#FFB3B3" opacity="0.4"/>
  <ellipse cx="140" cy="82" rx="12" ry="7" fill="#FFB3B3" opacity="0.4"/>
  <path d="M45,42.25 C39,37 42,34 45,37.75 C48,34 51,37 45,42.25Z" fill="#FFB3B3"/>
  <path d="M160,46.8 C155.2,42.6 157.6,40.2 160,43.2 C162.4,40.2 164.8,42.6 160,46.8Z" fill="#FFD6D6"/>
</svg>