<svg xmlns="http://www.w3.org/2000/svg" viewBox="0 0 200 150" width="200" height="150">
  <defs>
    <linearGradient id="bg66884" gradientTransform="rotate(135)">
      <stop offset="0%" style="stop-color:#E0F4FF"/>
      <stop offset="100%" style="stop-color:#BAE6FD"/>
    </linearGradient>
  </defs>
  <rect width="200" height="150" fill="url(#bg66884)" rx="16"/>
  <rect x="0" y="0" width="200" height="150" rx="0" fill="#1a1a3e"/>
  <polygon points="29.174058266526117,40.61843659718761 29.79727091992406,41.88120335799453 31.190816777359874,42.0836974240251 30.182437521942994,43.06662426809795 30.420483573322002,44.45453924423192 29.174058266526117,43.799254681516686 27.927632959730232,44.45453924423192 28.16567901110924,43.06662426809795 27.15729975569236,42.0836974240251 28.550845613128175,41.88120335799453" fill="#FFF3B0"/>
  <polygon points="119.77446257187694,46.387028758734004 120.95716154398349,48.783438622804965 123.60175684253286,49.1677208135568 121.6881097072049,51.03306575127999 122.13986051609004,53.66697507050685 119.77446257187694,52.42341177869139 117.40906462766384,53.66697507050685 117.86081543654898,51.03306575127999 115.94716830122101,49.16772081355679 118.59176359977039,48.783438622804965" fill="#FFF3B0"/>
  <polygon points="146.58923725444765,10.53461836323595 147.32431969990546,12.024058080988375 148.96801401701586,12.262900845872664 147.77862563573177,13.422267980522001 148.05940214536324,15.059320644939916 146.58923725444765,14.286409221840358 145.11907236353207,15.059320644939916 145.39984887316353,13.422267980522001 144.21046049187945,12.262900845872663 145.85415480898985,12.024058080988375" fill="#FFF3B0"/>
  <polygon points="93.23779431464573,11.613263529800406 94.01979910947453,13.19777831190144 95.7684149894425,13.45186707228989 94.50310465204412,14.685239823693413 94.80180390430333,16.426790095873837 93.23779431464573,15.604541594938155 91.67378472498812,16.426790095873837 91.97248397724734,14.685239823693413 90.70717363984895,13.45186707228989 92.45578951981692,13.19777831190144" fill="#FFF3B0"/>
  <polygon points="142.42641592004134,17.82304154388487 143.35681499584214,19.708235980809334 145.43725057553573,20.010540965893906 143.93183324778852,21.47796018840002 144.28721407164295,23.54998938107528 142.42641592004134,22.57170989940454 140.56561776843972,23.54998938107528 140.92099859229415,21.47796018840002 139.41558126454694,20.010540965893906 141.49601684424053,19.708235980809334" fill="#FFF3B0"/>
  <polygon points="23.31645128614582,14.379344283182832 24.394745108583873,16.564206207815104 26.805883395273447,16.914565109051498 25.061167340709634,18.615242940436147 25.47303893102193,21.016638574293577 23.31645128614582,19.88285335337048 21.159863641269716,21.016638574293577 21.571735231582007,18.615242940436147 19.827019177018194,16.914565109051495 22.23815746370777,16.564206207815104" fill="#FFF3B0"/>
  <polygon points="159.0215696308951,19.109901580080447 160.3325691519329,21.7662767508574 163.26405319944305,22.19224631699449 161.1428114151691,24.259946025543037 161.64356867297067,27.179584866365758 159.0215696308951,25.801118394000056 156.39957058881953,27.179584866365758 156.9003278466211,24.259946025543037 154.77908606234715,22.192246316994485 157.71057010985731,21.7662767508574" fill="#FFF3B0"/>
  <polygon points="48.92698452949844,29.092972402657324 49.83614253386053,30.93512772792305 51.86908163390222,31.230531070528095 50.398033081700326,32.664449016703976 50.74530053822262,34.689173648089955 48.92698452949844,33.733228350639365 47.10866852077426,34.689173648089955 47.455935977296555,32.664449016703976 45.98488742509466,31.230531070528095 48.01782652513635,30.93512772792305" fill="#FFF3B0"/>
  <polygon points="101.60426568440926,28.038127205779347 102.2777556063551,29.40276683967427 103.78372485398702,29.62159698052884 102.69399526919814,30.683820797525684 102.95124552830093,32.18370489623166 101.60426568440926,31.475555684900428 100.25728584051758,32.18370489623166 100.51453609962037,30.683820797525684 99.42480651483149,29.62159698052884 100.93077576246341,29.40276683967427" fill="#FFF3B0"/>
  <polygon points="71.13647978632798,30.15317105776012 71.87962105828763,31.658939741527853 73.54133545927505,31.90040097787112 72.33890762280151,33.072478439978035 72.62276233024727,34.72747837477148 71.13647978632798,33.94609340003353 69.6501972424087,34.72747837477148 69.93405194985445,33.072478439978035 68.73162411338092,31.900400977871115 70.39333851436834,31.658939741527853" fill="#FFF3B0"/>
  <path d="M155 25 A22 22 0 1 1 175 50 A18 18 0 1 0 155 25" fill="#FFE566"/>
  <rect x="35" y="75" width="130" height="50" rx="8" fill="#C9B8E8"/>
  <rect x="45" y="65" width="90" height="20" rx="8" fill="white"/>
  <rect x="40" y="90" width="120" height="30" rx="6" fill="#BAE6FD"/>
  <text x="170" y="75" fill="#E2D9F3" font-size="16" font-weight="bold">z</text>
  <text x="178" y="65" fill="#E2D9F3" font-size="13" font-weight="bold">z</text>
</svg>