<svg xmlns="http://www.w3.org/2000/svg" viewBox="0 0 200 150" width="200" height="150">
  <defs>
    <linearGradient id="bg67567" gradientTransform="rotate(90)">
      <stop offset="0%" style="stop-color:#FFF5EB"/>
      <stop offset="100%" style="stop-color:#FFE4CC"/>
    </linearGradient>
  </defs>
  <rect width="200" height="150" fill="url(#bg67567)" rx="16"/>
  <circle cx="97.51874979747299" cy="35.64134048874621" r="4.98106980794546" fill="#FFF5EB" opacity="0.3"/><circle cx="51.37566558387334" cy="89.21626080664282" r="2.286223122604497" fill="#FFF5EB" opacity="0.3"/><circle cx="12.372001873518457" cy="8.556081515871483" r="3.3057505777687766" fill="#FFF5EB" opacity="0.3"/><circle cx="89.596561651706" cy="15.49584185013373" r="4.659445561895154" fill="#FFF5EB" opacity="0.3"/><circle cx="98.12760645272647" cy="71.8303314152763" r="3.751869894682386" fill="#FFF5EB" opacity="0.3"/><circle cx="7.165198088114266" cy="117.62945200498507" r="3.219996967597808" fill="#FFF5EB" opacity="0.3"/>
  <circle cx="100" cy="75" r="45" fill="#FFF5EB" opacity="1"/>
  <circle cx="100" cy="75" r="40" fill="white" opacity="1"/>
  <line x1="100" y1="42" x2="100" y2="52" stroke="#FFD3A8" stroke-width="2"/>
  <line x1="116.5" y1="46.421161675113524" x2="114" y2="50.751288694035715" stroke="#FFD3A8" stroke-width="2"/>
  <line x1="128.57883832488648" y1="58.5" x2="124.24871130596428" y2="61" stroke="#FFD3A8" stroke-width="2"/>
  <line x1="133" y1="75" x2="123" y2="75" stroke="#FFD3A8" stroke-width="2"/>
  <line x1="128.57883832488648" y1="91.5" x2="124.24871130596429" y2="89" stroke="#FFD3A8" stroke-width="2"/>
  <line x1="116.5" y1="103.57883832488648" x2="114" y2="99.24871130596429" stroke="#FFD3A8" stroke-width="2"/>
  <line x1="100" y1="108" x2="100" y2="98" stroke="#FFD3A8" stroke-width="2"/>
  <line x1="83.5" y1="103.57883832488648" x2="86" y2="99.24871130596428" stroke="#FFD3A8" stroke-width="2"/>
  <line x1="71.42116167511352" y1="91.50000000000001" x2="75.75128869403572" y2="89.00000000000001" stroke="#FFD3A8" stroke-width="2"/>
  <line x1="67" y1="75" x2="77" y2="75" stroke="#FFD3A8" stroke-width="2"/>
  <line x1="71.42116167511352" y1="58.5" x2="75.75128869403572" y2="61" stroke="#FFD3A8" stroke-width="2"/>
  <line x1="83.49999999999999" y1="46.42116167511353" x2="85.99999999999999" y2="50.75128869403572" stroke="#FFD3A8" stroke-width="2"/>
  <line x1="100" y1="75" x2="100" y2="55" stroke="#FFD3A8" stroke-width="4" stroke-linecap="round"/>
  <line x1="100" y1="75" x2="118" y2="85" stroke="#FFB3B3" stroke-width="3" stroke-linecap="round"/>
  <circle cx="100" cy="75" r="5" fill="#FFD3A8" opacity="1"/>
  <polygon points="45,33 48.52671151375484,40.14589803375031 56.412678195541844,41.291796067500634 50.70633909777092,46.85410196624969 52.05342302750968,54.70820393249937 45,51 37.94657697249032,54.70820393249937 39.29366090222908,46.85410196624969 33.587321804458156,41.29179606750063 41.47328848624516,40.14589803375031" fill="#FFF3B0"/>
</svg>