<svg xmlns="http://www.w3.org/2000/svg" viewBox="0 0 200 150" width="200" height="150">
  <defs>
    <linearGradient id="bg68882" gradientTransform="rotate(180)">
      <stop offset="0%" style="stop-color:#FFD6D6"/>
      <stop offset="100%" style="stop-color:#FFB3B3"/>
    </linearGradient>
  </defs>
  <rect width="200" height="150" fill="url(#bg68882)" rx="16"/>
  <circle cx="160.22908518843906" cy="46.673113705037395" r="2.3205177557301795" fill="#FFD6D6" opacity="0.3"/><circle cx="14.3367781989582" cy="115.51364457827731" r="4.240526648911327" fill="#FFD6D6" opacity="0.3"/><circle cx="2.7849843874719227" cy="78.9006134011288" r="2.746149688753121" fill="#FFD6D6" opacity="0.3"/><circle cx="72.40024673483276" cy="130.7337859009749" r="2.9265494152514293" fill="#FFD6D6" opacity="0.3"/><circle cx="194.7416456459905" cy="11.366775215202551" r="3.01296628428463" fill="#FFD6D6" opacity="0.3"/><circle cx="169.52784760360373" cy="114.07351207744796" r="4.298927440340776" fill="#FFD6D6" opacity="0.3"/>
  <circle cx="100" cy="75" r="48" fill="#FFE5D9" opacity="1"/>
  <circle cx="80" cy="68" r="8" fill="#333" opacity="1"/>
  <circle cx="120" cy="68" r="8" fill="#333" opacity="1"/>
  <circle cx="78" cy="65" r="3" fill="white" opacity="1"/>
  <circle cx="118" cy="65" r="3" fill="white" opacity="1"/>
  <path d="M72 92 Q100 115 128 92" stroke="#333" stroke-width="4" fill="none" stroke-linecap="round"/>
  <ellipse cx="60" cy="82" rx="12" ry="7" fill="#FFB3B3" opacity="0.4"/>
  <ellipse cx="140" cy="82" rx="12" ry="7" fill="#FFB3B3" opacity="0.4"/>
  <path d="M45,42.25 C39,37 42,34 45,37.75 C48,34 51,37 45,42.25Z" fill="#FFB3B3"/>
  <path d="M160,46.8 C155.2,42.6 157.6,40.2 160,43.2 C162.4,40.2 164.8,42.6 160,46.8Z" fill="#FFD6D6"/>
</svg>