<svg xmlns="http://www.w3.org/2000/svg" viewBox="0 0 200 150" width="200" height="150">
  <defs>
    <linearGradient id="bg69065" gradientTransform="rotate(0)">
      <stop offset="0%" style="stop-color:#E8F0E8"/>
      <stop offset="100%" style="stop-color:#C5DBC5"/>
    </linearGradient>
  </defs>
  <rect width="200" height="150" fill="url(#bg69065)" rx="16"/>
  <circle cx="41.23931748972609" cy="27.04233364074753" r="4.830102882719075" fill="#E8F0E8" opacity="0.3"/><circle cx="71.18202943673992" cy="147.4141764102569" r="3.968622470227274" fill="#E8F0E8" opacity="0.3"/><circle cx="57.61223457811866" cy="43.62461357450229" r="3.7760135282405827" fill="#E8F0E8" opacity="0.3"/><circle cx="133.5539547802" cy="122.53075906885726" r="3.757978000001458" fill="#E8F0E8" opacity="0.3"/><circle cx="132.99557863065274" cy="40.91169229041043" r="4.606082758209595" fill="#E8F0E8" opacity="0.3"/><circle cx="195.15625704389095" cy="6.89319693105972" r="2.4769769182184973" fill="#E8F0E8" opacity="0.3"/>
  <circle cx="100" cy="75" r="48" fill="#FFE5D9" opacity="1"/>
  <circle cx="80" cy="68" r="8" fill="#333" opacity="1"/>
  <circle cx="120" cy="68" r="8" fill="#333" opacity="1"/>
  <circle cx="78" cy="65" r="3" fill="white" opacity="1"/>
  <circle cx="118" cy="65" r="3" fill="white" opacity="1"/>
  <path d="M72 92 Q100 115 128 92" stroke="#333" stroke-width="4" fill="none" stroke-linecap="round"/>
  <ellipse cx="60" cy="82" rx="12" ry="7" fill="#FFB3B3" opacity="0.4"/>
  <ellipse cx="140" cy="82" rx="12" ry="7" fill="#FFB3B3" opacity="0.4"/>
  <path d="M45,42.25 C39,37 42,34 45,37.75 C48,34 51,37 45,42.25Z" fill="#FFB3B3"/>
  <path d="M160,46.8 C155.2,42.6 157.6,40.2 160,43.2 C162.4,40.2 164.8,42.6 160,46.8Z" fill="#FFD6D6"/>
</svg>