<svg xmlns="http://www.w3.org/2000/svg" viewBox="0 0 200 150" width="200" height="150">
  <defs>
    <linearGradient id="bg69381" gradientTransform="rotate(0)">
      <stop offset="0%" style="stop-color:#D8F3DC"/>
      <stop offset="100%" style="stop-color:#B7E4C7"/>
    </linearGradient>
  </defs>
  <rect width="200" height="150" fill="url(#bg69381)" rx="16"/>
  <circle cx="126.9652153703646" cy="96.85330485326631" r="2.431768245488456" fill="#D8F3DC" opacity="0.3"/><circle cx="34.08737427453161" cy="72.77508753982147" r="4.2140884191449" fill="#D8F3DC" opacity="0.3"/><circle cx="165.08826239928567" cy="114.57116848350779" r="3.327193536570121" fill="#D8F3DC" opacity="0.3"/><circle cx="69.7047764006129" cy="139.36898480667423" r="2.9271570135877027" fill="#D8F3DC" opacity="0.3"/><circle cx="157.3705206714294" cy="93.41702605670434" r="4.5986846082114425" fill="#D8F3DC" opacity="0.3"/><circle cx="76.59099259763025" cy="86.18348739096291" r="3.03239756284961" fill="#D8F3DC" opacity="0.3"/>
  <circle cx="100" cy="75" r="48" fill="#FFE5D9" opacity="1"/>
  <circle cx="80" cy="68" r="8" fill="#333" opacity="1"/>
  <circle cx="120" cy="68" r="8" fill="#333" opacity="1"/>
  <circle cx="78" cy="65" r="3" fill="white" opacity="1"/>
  <circle cx="118" cy="65" r="3" fill="white" opacity="1"/>
  <path d="M72 92 Q100 115 128 92" stroke="#333" stroke-width="4" fill="none" stroke-linecap="round"/>
  <ellipse cx="60" cy="82" rx="12" ry="7" fill="#FFB3B3" opacity="0.4"/>
  <ellipse cx="140" cy="82" rx="12" ry="7" fill="#FFB3B3" opacity="0.4"/>
  <path d="M45,42.25 C39,37 42,34 45,37.75 C48,34 51,37 45,42.25Z" fill="#FFB3B3"/>
  <path d="M160,46.8 C155.2,42.6 157.6,40.2 160,43.2 C162.4,40.2 164.8,42.6 160,46.8Z" fill="#FFD6D6"/>
</svg>