<svg xmlns="http://www.w3.org/2000/svg" viewBox="0 0 200 150" width="200" height="150">
  <defs>
    <linearGradient id="bg7002" gradientTransform="rotate(180)">
      <stop offset="0%" style="stop-color:#FFF5EB"/>
      <stop offset="100%" style="stop-color:#FFE4CC"/>
    </linearGradient>
  </defs>
  <rect width="200" height="150" fill="url(#bg7002)" rx="16"/>
  <rect x="0" y="0" width="200" height="150" rx="0" fill="#1a1a3e"/>
  <polygon points="127.12430370145739,44.68333864396027 128.3610860684269,47.189333435378565 131.12661551434385,47.59118838636052 129.12545960790064,49.541833294069185 129.59786843539644,52.29618810374175 127.12430370145739,50.99575816526931 124.65073896751835,52.29618810374175 125.12314779501416,49.541833294069185 123.12199188857093,47.59118838636052 125.88752133448787,47.189333435378565" fill="#FFF3B0"/>
  <polygon points="144.0104784197274,11.312068335923414 145.15101194893833,13.623041680929825 147.7013224508717,13.993623488784483 145.85590043529956,15.792465370948142 146.29154547814926,18.332470868821115 144.0104784197274,17.133242947378676 141.72941136130555,18.332470868821115 142.16505640415525,15.792465370948142 140.31963438858313,13.993623488784483 142.86994489051648,13.623041680929825" fill="#FFF3B0"/>
  <polygon points="80.7843954517557,22.527065705170656 81.71830217063724,24.4193674032635 83.80658107870018,24.722812090672363 82.29548826522793,26.195763544471745 82.65220888951879,28.275604373088854 80.7843954517557,27.2936367372226 78.91658201399261,28.275604373088854 79.27330263828347,26.195763544471745 77.76220982481122,24.722812090672363 79.85048873287415,24.4193674032635" fill="#FFF3B0"/>
  <polygon points="159.34298952895006,34.18259183746659 160.1187031832794,35.75435937660491 161.85325164543454,36.006404021533314 160.59812058719228,37.22985442806298 160.8944168376087,38.95739412444945 159.34298952895006,38.14176052009634 157.7915622202914,38.95739412444945 158.08785847070783,37.22985442806298 156.83272741246557,36.006404021533314 158.56727587462072,35.75435937660491" fill="#FFF3B0"/>
  <polygon points="51.073869571555406,41.921897146849915 52.10586309785456,44.01294442465026 54.41347077499919,44.34825944772971 52.743670173277295,45.97591276057271 53.13785662415371,48.27419611957461 51.073869571555406,47.189093911012606 49.0098825189571,48.27419611957461 49.40406896983352,45.97591276057271 47.73426836811162,44.3482594477297 50.04187604525625,44.01294442465026" fill="#FFF3B0"/>
  <polygon points="40.49587662389058,22.42229665522791 41.400338064721986,24.254935703370197 43.42277532944841,24.548813039979514 41.9593259766695,25.97532359745102 42.30479950555339,27.98958882814116 40.49587662389058,27.03858178982682 38.68695374222777,27.98958882814116 39.032427271111665,25.97532359745102 37.56897791833275,24.548813039979514 39.591415183059176,24.254935703370197" fill="#FFF3B0"/>
  <polygon points="96.74384849559829,22.794271047083384 97.78600650842642,24.90591382412383 100.11634266840626,25.24453148907864 98.43009558200227,26.88821616234266 98.82816452125458,29.2091361655163 96.74384849559829,28.113346383340286 94.659532469942,29.2091361655163 95.0576014091943,26.88821616234266 93.37135432279031,25.244531489078636 95.70169048277015,24.90591382412383" fill="#FFF3B0"/>
  <polygon points="39.227540004527555,9.13890817929672 39.98533254603575,10.674363577685307 41.6798081816904,10.920585300079711 40.45367409310898,12.115770646887773 40.743125087543945,13.803399438484643 39.227540004527555,13.006609207279269 37.71195492151117,13.803399438484643 38.00140591594613,12.115770646887773 36.77527182736471,10.920585300079711 38.46974746301936,10.674363577685307" fill="#FFF3B0"/>
  <polygon points="148.66063220742944,34.838922507608004 149.4384481585379,36.41494976528636 151.17769749920012,36.66767748784563 149.91916485331478,37.89444362284642 150.2162641096464,39.62666520296576 148.66063220742944,38.808821112965234 147.10500030521249,39.62666520296576 147.4020995615441,37.89444362284642 146.14356691565877,36.66767748784563 147.88281625632098,36.41494976528636" fill="#FFF3B0"/>
  <polygon points="131.13114746542124,45.13481441804379 132.02465344251567,46.94525527206909 134.02259354560115,47.235572962728895 132.57687050551118,48.644804635797726 132.91815941961008,50.63467169018617 131.13114746542124,49.69518390814028 129.3441355112324,50.63467169018617 129.6854244253313,48.644804635797726 128.23970138524132,47.235572962728895 130.2376414883268,46.94525527206909" fill="#FFF3B0"/>
  <path d="M155 25 A22 22 0 1 1 175 50 A18 18 0 1 0 155 25" fill="#FFE566"/>
  <rect x="35" y="75" width="130" height="50" rx="8" fill="#C9B8E8"/>
  <rect x="45" y="65" width="90" height="20" rx="8" fill="white"/>
  <rect x="40" y="90" width="120" height="30" rx="6" fill="#FFE4CC"/>
  <text x="170" y="75" fill="#E2D9F3" font-size="16" font-weight="bold">z</text>
  <text x="178" y="65" fill="#E2D9F3" font-size="13" font-weight="bold">z</text>
</svg>