<svg xmlns="http://www.w3.org/2000/svg" viewBox="0 0 200 150" width="200" height="150">
  <defs>
    <linearGradient id="bg70802" gradientTransform="rotate(45)">
      <stop offset="0%" style="stop-color:#FFD6D6"/>
      <stop offset="100%" style="stop-color:#FFB3B3"/>
    </linearGradient>
  </defs>
  <rect width="200" height="150" fill="url(#bg70802)" rx="16"/>
  <circle cx="83.58224642860819" cy="111.98624398768402" r="2.315773860766967" fill="#FFD6D6" opacity="0.3"/><circle cx="106.92812075449183" cy="137.01731849905627" r="2.3608366444934745" fill="#FFD6D6" opacity="0.3"/><circle cx="38.78511632192385" cy="68.59415552066821" r="2.3995486536077806" fill="#FFD6D6" opacity="0.3"/><circle cx="61.25370284789824" cy="68.18885550064806" r="3.251400005391588" fill="#FFD6D6" opacity="0.3"/><circle cx="89.07076601935842" cy="16.10268435079707" r="4.223767385565225" fill="#FFD6D6" opacity="0.3"/><circle cx="57.77406086308474" cy="128.1386774616749" r="3.027534625270164" fill="#FFD6D6" opacity="0.3"/>
  <circle cx="100" cy="75" r="48" fill="#FFE5D9" opacity="1"/>
  <circle cx="80" cy="68" r="8" fill="#333" opacity="1"/>
  <circle cx="120" cy="68" r="8" fill="#333" opacity="1"/>
  <circle cx="78" cy="65" r="3" fill="white" opacity="1"/>
  <circle cx="118" cy="65" r="3" fill="white" opacity="1"/>
  <path d="M72 92 Q100 115 128 92" stroke="#333" stroke-width="4" fill="none" stroke-linecap="round"/>
  <ellipse cx="60" cy="82" rx="12" ry="7" fill="#FFB3B3" opacity="0.4"/>
  <ellipse cx="140" cy="82" rx="12" ry="7" fill="#FFB3B3" opacity="0.4"/>
  <path d="M45,42.25 C39,37 42,34 45,37.75 C48,34 51,37 45,42.25Z" fill="#FFB3B3"/>
  <path d="M160,46.8 C155.2,42.6 157.6,40.2 160,43.2 C162.4,40.2 164.8,42.6 160,46.8Z" fill="#FFD6D6"/>
</svg>