<svg xmlns="http://www.w3.org/2000/svg" viewBox="0 0 200 150" width="200" height="150">
  <defs>
    <linearGradient id="bg7104" gradientTransform="rotate(0)">
      <stop offset="0%" style="stop-color:#FFE5D9"/>
      <stop offset="100%" style="stop-color:#FFCDB2"/>
    </linearGradient>
  </defs>
  <rect width="200" height="150" fill="url(#bg7104)" rx="16"/>
  <rect x="0" y="0" width="200" height="150" rx="0" fill="#1a1a3e"/>
  <polygon points="112.41372295063229,20.3445662250233 113.7642168586336,23.08096576440712 116.78401304012388,23.519767834759296 114.59886799537809,25.64975782725023 115.11471076663491,28.65735196044552 112.41372295063229,27.23735863211823 109.71273513462967,28.65735196044552 110.2285779058865,25.64975782725023 108.0434328611407,23.519767834759296 111.06322904263098,23.08096576440712" fill="#FFF3B0"/>
  <polygon points="167.38528884974585,37.64009609332243 168.65911081561327,40.221141309450296 171.50746332252527,40.635031155654744 169.44637608613556,42.64409467192653 169.9329327814807,45.480937880607215 167.38528884974585,44.14156220309269 164.837644918011,45.480937880607215 165.32420161335614,42.64409467192653 163.26311437696643,40.635031155654744 166.11146688387842,40.221141309450296" fill="#FFF3B0"/>
  <polygon points="31.89047506522911,17.32219800189523 32.48521242130761,18.52726750838128 33.81508557825763,18.720509389456666 32.852780321743374,19.658525184346495 33.07994977738611,20.983024741387098 31.89047506522911,20.357680878127212 30.701000353072114,20.983024741387098 30.928169808714852,19.658525184346495 29.965864552200593,18.720509389456666 31.29573770915061,18.52726750838128" fill="#FFF3B0"/>
  <polygon points="52.19594970165417,29.572452634082083 53.22357432377912,31.65464754513047 55.52141283420304,31.988543025192765 53.8586812679286,33.60930573148502 54.25119894590407,35.897859397901875 52.19594970165417,34.817350927040366 50.14070045740428,35.897859397901875 50.53321813537974,33.60930573148502 48.8704865691053,31.98854302519276 51.168325079529225,31.65464754513047" fill="#FFF3B0"/>
  <polygon points="31.925079461707355,9.901603281666212 32.74690741133507,11.5668085887692 34.58457057251193,11.833836676517953 33.25482501710964,13.130018242303057 33.5687353609628,14.960255983585665 31.925079461707355,14.096134939728927 30.281423562451916,14.960255983585665 30.59533390630507,13.130018242303057 29.26558835090278,11.83383667651795 31.103251512079634,11.5668085887692" fill="#FFF3B0"/>
  <polygon points="149.26901361193813,7.074577371126907 150.30586423149663,9.17546619480826 152.6243326993422,9.51235938315411 150.94667315564018,11.14767327111982 151.34271485105515,13.456773535777227 149.26901361193813,12.36656427713342 147.19531237282112,13.456773535777227 147.5913540682361,11.14767327111982 145.91369452453407,9.512359383154108 148.23216299237964,9.17546619480826" fill="#FFF3B0"/>
  <polygon points="78.2601403800436,11.235356722149845 79.34525447037035,13.434038018938141 81.7716433396838,13.786612959545156 80.0158918598637,15.498047671996032 80.4303685606971,17.914632265660938 78.2601403800436,16.773675790693687 76.08991219939008,17.914632265660938 76.50438890022349,15.498047671996032 74.74863742040338,13.786612959545154 77.17502628971684,13.434038018938141" fill="#FFF3B0"/>
  <polygon points="126.98657736742916,20.8695906829862 128.20910967489527,23.346711700128065 130.94277501907916,23.743936526104868 128.96467619325418,25.672106334922052 129.43164198236138,28.394725795692842 126.98657736742916,27.109279256481386 124.54151275249694,28.394725795692842 125.00847854160416,25.672106334922052 123.03037971577916,23.743936526104864 125.76404505996305,23.346711700128065" fill="#FFF3B0"/>
  <polygon points="71.07065736559889,9.124930853386104 72.07572937045542,11.161429170662725 74.32313869559664,11.487996861172908 72.69689803059777,13.07318972979201 73.08080137531196,15.31151797943148 71.07065736559889,14.254722733685412 69.06051335588582,15.31151797943148 69.44441670060002,13.073189729792011 67.81817603560114,11.487996861172906 70.06558536074236,11.161429170662725" fill="#FFF3B0"/>
  <polygon points="80.24006424236177,50.168892633715586 81.53922839602703,52.80128673087588 84.44424775755354,53.22341075304148 82.34215599995765,55.27244379903673 82.83839254969229,58.165724889363176 80.24006424236177,56.799702858699675 77.64173593503125,58.165724889363176 78.13797248476588,55.27244379903673 76.03588072717,53.22341075304148 78.94090008869651,52.80128673087588" fill="#FFF3B0"/>
  <path d="M155 25 A22 22 0 1 1 175 50 A18 18 0 1 0 155 25" fill="#FFE566"/>
  <rect x="35" y="75" width="130" height="50" rx="8" fill="#C9B8E8"/>
  <rect x="45" y="65" width="90" height="20" rx="8" fill="white"/>
  <rect x="40" y="90" width="120" height="30" rx="6" fill="#FFCDB2"/>
  <text x="170" y="75" fill="#E2D9F3" font-size="16" font-weight="bold">z</text>
  <text x="178" y="65" fill="#E2D9F3" font-size="13" font-weight="bold">z</text>
</svg>