<svg xmlns="http://www.w3.org/2000/svg" viewBox="0 0 200 150" width="200" height="150">
  <defs>
    <linearGradient id="bg71314" gradientTransform="rotate(90)">
      <stop offset="0%" style="stop-color:#D8F3DC"/>
      <stop offset="100%" style="stop-color:#B7E4C7"/>
    </linearGradient>
  </defs>
  <rect width="200" height="150" fill="url(#bg71314)" rx="16"/>
  <circle cx="117.44847186728293" cy="24.80823836745003" r="4.311130732698075" fill="#D8F3DC" opacity="0.3"/><circle cx="9.872389958218264" cy="58.270831081608776" r="2.171582091090386" fill="#D8F3DC" opacity="0.3"/><circle cx="192.64268395468207" cy="136.78691666555096" r="4.952982682581478" fill="#D8F3DC" opacity="0.3"/><circle cx="154.5763659687509" cy="61.005221073855864" r="2.9349405746797856" fill="#D8F3DC" opacity="0.3"/><circle cx="75.24347511389351" cy="40.542732718404295" r="4.476898205504767" fill="#D8F3DC" opacity="0.3"/><circle cx="152.33358480618335" cy="138.9469072225438" r="3.3522517540338868" fill="#D8F3DC" opacity="0.3"/>
  <circle cx="100" cy="75" r="48" fill="#FFE5D9" opacity="1"/>
  <circle cx="80" cy="68" r="8" fill="#333" opacity="1"/>
  <circle cx="120" cy="68" r="8" fill="#333" opacity="1"/>
  <circle cx="78" cy="65" r="3" fill="white" opacity="1"/>
  <circle cx="118" cy="65" r="3" fill="white" opacity="1"/>
  <path d="M72 92 Q100 115 128 92" stroke="#333" stroke-width="4" fill="none" stroke-linecap="round"/>
  <ellipse cx="60" cy="82" rx="12" ry="7" fill="#FFB3B3" opacity="0.4"/>
  <ellipse cx="140" cy="82" rx="12" ry="7" fill="#FFB3B3" opacity="0.4"/>
  <path d="M45,42.25 C39,37 42,34 45,37.75 C48,34 51,37 45,42.25Z" fill="#FFB3B3"/>
  <path d="M160,46.8 C155.2,42.6 157.6,40.2 160,43.2 C162.4,40.2 164.8,42.6 160,46.8Z" fill="#FFD6D6"/>
</svg>