<svg xmlns="http://www.w3.org/2000/svg" viewBox="0 0 200 150" width="200" height="150">
  <defs>
    <linearGradient id="bg71351" gradientTransform="rotate(0)">
      <stop offset="0%" style="stop-color:#E2D9F3"/>
      <stop offset="100%" style="stop-color:#C9B8E8"/>
    </linearGradient>
  </defs>
  <rect width="200" height="150" fill="url(#bg71351)" rx="16"/>
  <circle cx="0.4168022895100876" cy="62.43930308403378" r="3.6776308814658023" fill="#E2D9F3" opacity="0.3"/><circle cx="112.34551185625605" cy="84.45272324229336" r="2.332274861220867" fill="#E2D9F3" opacity="0.3"/><circle cx="30.383083632477792" cy="11.000572742841541" r="2.9687834116144813" fill="#E2D9F3" opacity="0.3"/><circle cx="46.924060637684306" cy="46.823813526793856" r="4.790222778496172" fill="#E2D9F3" opacity="0.3"/><circle cx="196.68950324248726" cy="72.61754939318052" r="4.238164184062043" fill="#E2D9F3" opacity="0.3"/><circle cx="181.71685036068084" cy="74.39541311097173" r="4.433094950312807" fill="#E2D9F3" opacity="0.3"/>
  <circle cx="100" cy="75" r="48" fill="#FFE5D9" opacity="1"/>
  <circle cx="80" cy="68" r="8" fill="#333" opacity="1"/>
  <circle cx="120" cy="68" r="8" fill="#333" opacity="1"/>
  <circle cx="78" cy="65" r="3" fill="white" opacity="1"/>
  <circle cx="118" cy="65" r="3" fill="white" opacity="1"/>
  <path d="M72 92 Q100 115 128 92" stroke="#333" stroke-width="4" fill="none" stroke-linecap="round"/>
  <ellipse cx="60" cy="82" rx="12" ry="7" fill="#FFB3B3" opacity="0.4"/>
  <ellipse cx="140" cy="82" rx="12" ry="7" fill="#FFB3B3" opacity="0.4"/>
  <path d="M45,42.25 C39,37 42,34 45,37.75 C48,34 51,37 45,42.25Z" fill="#FFB3B3"/>
  <path d="M160,46.8 C155.2,42.6 157.6,40.2 160,43.2 C162.4,40.2 164.8,42.6 160,46.8Z" fill="#FFD6D6"/>
</svg>