<svg xmlns="http://www.w3.org/2000/svg" viewBox="0 0 200 150" width="200" height="150">
  <defs>
    <linearGradient id="bg71414" gradientTransform="rotate(90)">
      <stop offset="0%" style="stop-color:#D4E9FF"/>
      <stop offset="100%" style="stop-color:#A8D0F0"/>
    </linearGradient>
  </defs>
  <rect width="200" height="150" fill="url(#bg71414)" rx="16"/>
  <circle cx="132.12268153765763" cy="37.9615717298293" r="2.0664410269182554" fill="#D4E9FF" opacity="0.3"/><circle cx="7.993219142190355" cy="143.35139452388717" r="2.1691822896264057" fill="#D4E9FF" opacity="0.3"/><circle cx="176.10241068023242" cy="145.70275647324706" r="4.213697382494502" fill="#D4E9FF" opacity="0.3"/><circle cx="92.85757007837674" cy="76.99245560202144" r="4.912766645787087" fill="#D4E9FF" opacity="0.3"/><circle cx="160.2524785184869" cy="36.30638684244332" r="2.2374829042087185" fill="#D4E9FF" opacity="0.3"/><circle cx="144.24513962730998" cy="133.48110456372524" r="2.984695384011502" fill="#D4E9FF" opacity="0.3"/>
  <circle cx="100" cy="75" r="48" fill="#FFE5D9" opacity="1"/>
  <circle cx="80" cy="68" r="8" fill="#333" opacity="1"/>
  <circle cx="120" cy="68" r="8" fill="#333" opacity="1"/>
  <circle cx="78" cy="65" r="3" fill="white" opacity="1"/>
  <circle cx="118" cy="65" r="3" fill="white" opacity="1"/>
  <path d="M72 92 Q100 115 128 92" stroke="#333" stroke-width="4" fill="none" stroke-linecap="round"/>
  <ellipse cx="60" cy="82" rx="12" ry="7" fill="#FFB3B3" opacity="0.4"/>
  <ellipse cx="140" cy="82" rx="12" ry="7" fill="#FFB3B3" opacity="0.4"/>
  <path d="M45,42.25 C39,37 42,34 45,37.75 C48,34 51,37 45,42.25Z" fill="#FFB3B3"/>
  <path d="M160,46.8 C155.2,42.6 157.6,40.2 160,43.2 C162.4,40.2 164.8,42.6 160,46.8Z" fill="#FFD6D6"/>
</svg>