<svg xmlns="http://www.w3.org/2000/svg" viewBox="0 0 200 150" width="200" height="150">
  <defs>
    <linearGradient id="bg71803" gradientTransform="rotate(0)">
      <stop offset="0%" style="stop-color:#FFF5EB"/>
      <stop offset="100%" style="stop-color:#FFE4CC"/>
    </linearGradient>
  </defs>
  <rect width="200" height="150" fill="url(#bg71803)" rx="16"/>
  <circle cx="59.35280411840722" cy="105.50354734250504" r="4.428598665054324" fill="#FFF5EB" opacity="0.3"/><circle cx="143.3178400318866" cy="91.02093673000127" r="2.083232128596137" fill="#FFF5EB" opacity="0.3"/><circle cx="132.81946918868925" cy="1.561288678928463" r="2.660705592186787" fill="#FFF5EB" opacity="0.3"/><circle cx="75.16911450584303" cy="121.21981603122549" r="4.062870161847968" fill="#FFF5EB" opacity="0.3"/><circle cx="43.094815798940544" cy="5.164351729315797" r="2.285449899452942" fill="#FFF5EB" opacity="0.3"/><circle cx="103.3085872491938" cy="74.26805669128953" r="3.10240231950047" fill="#FFF5EB" opacity="0.3"/>
  <circle cx="100" cy="75" r="48" fill="#FFE5D9" opacity="1"/>
  <circle cx="80" cy="68" r="8" fill="#333" opacity="1"/>
  <circle cx="120" cy="68" r="8" fill="#333" opacity="1"/>
  <circle cx="78" cy="65" r="3" fill="white" opacity="1"/>
  <circle cx="118" cy="65" r="3" fill="white" opacity="1"/>
  <path d="M72 92 Q100 115 128 92" stroke="#333" stroke-width="4" fill="none" stroke-linecap="round"/>
  <ellipse cx="60" cy="82" rx="12" ry="7" fill="#FFB3B3" opacity="0.4"/>
  <ellipse cx="140" cy="82" rx="12" ry="7" fill="#FFB3B3" opacity="0.4"/>
  <path d="M45,42.25 C39,37 42,34 45,37.75 C48,34 51,37 45,42.25Z" fill="#FFB3B3"/>
  <path d="M160,46.8 C155.2,42.6 157.6,40.2 160,43.2 C162.4,40.2 164.8,42.6 160,46.8Z" fill="#FFD6D6"/>
</svg>