<svg xmlns="http://www.w3.org/2000/svg" viewBox="0 0 200 150" width="200" height="150">
  <defs>
    <linearGradient id="bg71894" gradientTransform="rotate(90)">
      <stop offset="0%" style="stop-color:#D4E9FF"/>
      <stop offset="100%" style="stop-color:#A8D0F0"/>
    </linearGradient>
  </defs>
  <rect width="200" height="150" fill="url(#bg71894)" rx="16"/>
  <circle cx="87.79894618382968" cy="110.54125590380863" r="3.767310730967438" fill="#D4E9FF" opacity="0.3"/><circle cx="95.30546471519301" cy="85.15793935521287" r="3.0068462211643237" fill="#D4E9FF" opacity="0.3"/><circle cx="59.224252049898496" cy="43.697495367450756" r="2.9021219934693363" fill="#D4E9FF" opacity="0.3"/><circle cx="115.34171821385826" cy="43.42550815354116" r="3.2645765806046256" fill="#D4E9FF" opacity="0.3"/><circle cx="176.88098741873546" cy="117.04728746982482" r="3.9579819480277365" fill="#D4E9FF" opacity="0.3"/><circle cx="103.19512653550191" cy="131.66923696693402" r="2.951786877129962" fill="#D4E9FF" opacity="0.3"/>
  <circle cx="100" cy="75" r="48" fill="#FFE5D9" opacity="1"/>
  <circle cx="80" cy="68" r="8" fill="#333" opacity="1"/>
  <circle cx="120" cy="68" r="8" fill="#333" opacity="1"/>
  <circle cx="78" cy="65" r="3" fill="white" opacity="1"/>
  <circle cx="118" cy="65" r="3" fill="white" opacity="1"/>
  <path d="M72 92 Q100 115 128 92" stroke="#333" stroke-width="4" fill="none" stroke-linecap="round"/>
  <ellipse cx="60" cy="82" rx="12" ry="7" fill="#FFB3B3" opacity="0.4"/>
  <ellipse cx="140" cy="82" rx="12" ry="7" fill="#FFB3B3" opacity="0.4"/>
  <path d="M45,42.25 C39,37 42,34 45,37.75 C48,34 51,37 45,42.25Z" fill="#FFB3B3"/>
  <path d="M160,46.8 C155.2,42.6 157.6,40.2 160,43.2 C162.4,40.2 164.8,42.6 160,46.8Z" fill="#FFD6D6"/>
</svg>