<svg xmlns="http://www.w3.org/2000/svg" viewBox="0 0 200 150" width="200" height="150">
  <defs>
    <linearGradient id="bg72232" gradientTransform="rotate(135)">
      <stop offset="0%" style="stop-color:#FFD6D6"/>
      <stop offset="100%" style="stop-color:#FFB3B3"/>
    </linearGradient>
  </defs>
  <rect width="200" height="150" fill="url(#bg72232)" rx="16"/>
  <circle cx="89.18265743118354" cy="104.76741722541192" r="2.8806787384351082" fill="#FFD6D6" opacity="0.3"/><circle cx="190.63576753051166" cy="85.24836837111707" r="4.726221079870811" fill="#FFD6D6" opacity="0.3"/><circle cx="35.47811060016102" cy="96.16816941188517" r="3.96202509989962" fill="#FFD6D6" opacity="0.3"/><circle cx="120.62845217333233" cy="138.35795656779624" r="3.125794734318333" fill="#FFD6D6" opacity="0.3"/><circle cx="155.66082736222597" cy="95.73099759659272" r="2.207206296872755" fill="#FFD6D6" opacity="0.3"/><circle cx="185.32997686024828" cy="40.33926109382264" r="4.428418608300177" fill="#FFD6D6" opacity="0.3"/>
  <circle cx="100" cy="75" r="48" fill="#FFE5D9" opacity="1"/>
  <circle cx="80" cy="68" r="8" fill="#333" opacity="1"/>
  <circle cx="120" cy="68" r="8" fill="#333" opacity="1"/>
  <circle cx="78" cy="65" r="3" fill="white" opacity="1"/>
  <circle cx="118" cy="65" r="3" fill="white" opacity="1"/>
  <path d="M72 92 Q100 115 128 92" stroke="#333" stroke-width="4" fill="none" stroke-linecap="round"/>
  <ellipse cx="60" cy="82" rx="12" ry="7" fill="#FFB3B3" opacity="0.4"/>
  <ellipse cx="140" cy="82" rx="12" ry="7" fill="#FFB3B3" opacity="0.4"/>
  <path d="M45,42.25 C39,37 42,34 45,37.75 C48,34 51,37 45,42.25Z" fill="#FFB3B3"/>
  <path d="M160,46.8 C155.2,42.6 157.6,40.2 160,43.2 C162.4,40.2 164.8,42.6 160,46.8Z" fill="#FFD6D6"/>
</svg>