<svg xmlns="http://www.w3.org/2000/svg" viewBox="0 0 200 150" width="200" height="150">
  <defs>
    <linearGradient id="bg72441" gradientTransform="rotate(90)">
      <stop offset="0%" style="stop-color:#FFE5D9"/>
      <stop offset="100%" style="stop-color:#FFCDB2"/>
    </linearGradient>
  </defs>
  <rect width="200" height="150" fill="url(#bg72441)" rx="16"/>
  <circle cx="84.19360247808072" cy="7.987284533237471" r="3.493856500272159" fill="#FFE5D9" opacity="0.3"/><circle cx="66.95185198132094" cy="133.9510843898836" r="4.92049401599661" fill="#FFE5D9" opacity="0.3"/><circle cx="65.99025450777845" cy="86.18165785478595" r="4.371718651655101" fill="#FFE5D9" opacity="0.3"/><circle cx="154.30744024506566" cy="29.06049376334181" r="4.922153039953969" fill="#FFE5D9" opacity="0.3"/><circle cx="70.83718841458904" cy="149.30386566293237" r="4.719430752888002" fill="#FFE5D9" opacity="0.3"/><circle cx="35.81915493523411" cy="27.485071774390235" r="2.4274896336155507" fill="#FFE5D9" opacity="0.3"/>
  <circle cx="100" cy="75" r="48" fill="#FFE5D9" opacity="1"/>
  <circle cx="80" cy="68" r="8" fill="#333" opacity="1"/>
  <circle cx="120" cy="68" r="8" fill="#333" opacity="1"/>
  <circle cx="78" cy="65" r="3" fill="white" opacity="1"/>
  <circle cx="118" cy="65" r="3" fill="white" opacity="1"/>
  <path d="M72 92 Q100 115 128 92" stroke="#333" stroke-width="4" fill="none" stroke-linecap="round"/>
  <ellipse cx="60" cy="82" rx="12" ry="7" fill="#FFB3B3" opacity="0.4"/>
  <ellipse cx="140" cy="82" rx="12" ry="7" fill="#FFB3B3" opacity="0.4"/>
  <path d="M45,42.25 C39,37 42,34 45,37.75 C48,34 51,37 45,42.25Z" fill="#FFB3B3"/>
  <path d="M160,46.8 C155.2,42.6 157.6,40.2 160,43.2 C162.4,40.2 164.8,42.6 160,46.8Z" fill="#FFD6D6"/>
</svg>