<svg xmlns="http://www.w3.org/2000/svg" viewBox="0 0 200 150" width="200" height="150">
  <defs>
    <linearGradient id="bg72614" gradientTransform="rotate(45)">
      <stop offset="0%" style="stop-color:#E2D9F3"/>
      <stop offset="100%" style="stop-color:#C9B8E8"/>
    </linearGradient>
  </defs>
  <rect width="200" height="150" fill="url(#bg72614)" rx="16"/>
  <circle cx="182.32766020082636" cy="141.80165797124573" r="4.988566614961655" fill="#E2D9F3" opacity="0.3"/><circle cx="53.384640944204875" cy="7.846054493529664" r="2.3539205047491123" fill="#E2D9F3" opacity="0.3"/><circle cx="134.0816157800873" cy="63.16182245403752" r="4.909020758774204" fill="#E2D9F3" opacity="0.3"/><circle cx="150.40260282758027" cy="115.0871522415855" r="4.585215994095275" fill="#E2D9F3" opacity="0.3"/><circle cx="161.4724466620828" cy="138.61618318314868" r="2.505956500631328" fill="#E2D9F3" opacity="0.3"/><circle cx="170.21892094944633" cy="35.57738429553865" r="2.7867524630373737" fill="#E2D9F3" opacity="0.3"/>
  <circle cx="100" cy="75" r="48" fill="#FFE5D9" opacity="1"/>
  <circle cx="80" cy="68" r="8" fill="#333" opacity="1"/>
  <circle cx="120" cy="68" r="8" fill="#333" opacity="1"/>
  <circle cx="78" cy="65" r="3" fill="white" opacity="1"/>
  <circle cx="118" cy="65" r="3" fill="white" opacity="1"/>
  <path d="M72 92 Q100 115 128 92" stroke="#333" stroke-width="4" fill="none" stroke-linecap="round"/>
  <ellipse cx="60" cy="82" rx="12" ry="7" fill="#FFB3B3" opacity="0.4"/>
  <ellipse cx="140" cy="82" rx="12" ry="7" fill="#FFB3B3" opacity="0.4"/>
  <path d="M45,42.25 C39,37 42,34 45,37.75 C48,34 51,37 45,42.25Z" fill="#FFB3B3"/>
  <path d="M160,46.8 C155.2,42.6 157.6,40.2 160,43.2 C162.4,40.2 164.8,42.6 160,46.8Z" fill="#FFD6D6"/>
</svg>