<svg xmlns="http://www.w3.org/2000/svg" viewBox="0 0 200 150" width="200" height="150">
  <defs>
    <linearGradient id="bg73005" gradientTransform="rotate(90)">
      <stop offset="0%" style="stop-color:#FFF5EB"/>
      <stop offset="100%" style="stop-color:#FFE4CC"/>
    </linearGradient>
  </defs>
  <rect width="200" height="150" fill="url(#bg73005)" rx="16"/>
  <circle cx="199.83805198680784" cy="86.40676503800933" r="3.5747056055761277" fill="#FFF5EB" opacity="0.3"/><circle cx="167.13222923044668" cy="55.00911546187126" r="3.4356203342586014" fill="#FFF5EB" opacity="0.3"/><circle cx="84.67470175110066" cy="88.68141704842856" r="2.289370620133923" fill="#FFF5EB" opacity="0.3"/><circle cx="48.284795581503204" cy="47.21140480344843" r="3.551817070485413" fill="#FFF5EB" opacity="0.3"/><circle cx="6.664195092071168" cy="114.17891916189546" r="4.785154159711965" fill="#FFF5EB" opacity="0.3"/><circle cx="58.973999272484434" cy="54.14463175702622" r="4.516644429359076" fill="#FFF5EB" opacity="0.3"/>
  <circle cx="100" cy="75" r="48" fill="#FFE5D9" opacity="1"/>
  <circle cx="80" cy="68" r="8" fill="#333" opacity="1"/>
  <circle cx="120" cy="68" r="8" fill="#333" opacity="1"/>
  <circle cx="78" cy="65" r="3" fill="white" opacity="1"/>
  <circle cx="118" cy="65" r="3" fill="white" opacity="1"/>
  <path d="M72 92 Q100 115 128 92" stroke="#333" stroke-width="4" fill="none" stroke-linecap="round"/>
  <ellipse cx="60" cy="82" rx="12" ry="7" fill="#FFB3B3" opacity="0.4"/>
  <ellipse cx="140" cy="82" rx="12" ry="7" fill="#FFB3B3" opacity="0.4"/>
  <path d="M45,42.25 C39,37 42,34 45,37.75 C48,34 51,37 45,42.25Z" fill="#FFB3B3"/>
  <path d="M160,46.8 C155.2,42.6 157.6,40.2 160,43.2 C162.4,40.2 164.8,42.6 160,46.8Z" fill="#FFD6D6"/>
</svg>