<svg xmlns="http://www.w3.org/2000/svg" viewBox="0 0 200 150" width="200" height="150">
  <defs>
    <linearGradient id="bg73521" gradientTransform="rotate(90)">
      <stop offset="0%" style="stop-color:#F0F7FF"/>
      <stop offset="100%" style="stop-color:#DCE8F5"/>
    </linearGradient>
  </defs>
  <rect width="200" height="150" fill="url(#bg73521)" rx="16"/>
  <circle cx="126.99386283275089" cy="131.44811858228422" r="2.2183751216434757" fill="#F0F7FF" opacity="0.3"/><circle cx="128.54991948697716" cy="3.32017495729815" r="2.3541383791107364" fill="#F0F7FF" opacity="0.3"/><circle cx="58.28336625409065" cy="149.06903379824143" r="2.829958728428892" fill="#F0F7FF" opacity="0.3"/><circle cx="77.88259770513832" cy="56.47085519681241" r="3.37320653561801" fill="#F0F7FF" opacity="0.3"/><circle cx="109.83681593752408" cy="47.370921552646905" r="4.357554275994588" fill="#F0F7FF" opacity="0.3"/><circle cx="45.71943337668927" cy="88.47632935485308" r="2.000886041276317" fill="#F0F7FF" opacity="0.3"/>
  <circle cx="100" cy="75" r="48" fill="#FFE5D9" opacity="1"/>
  <circle cx="80" cy="68" r="8" fill="#333" opacity="1"/>
  <circle cx="120" cy="68" r="8" fill="#333" opacity="1"/>
  <circle cx="78" cy="65" r="3" fill="white" opacity="1"/>
  <circle cx="118" cy="65" r="3" fill="white" opacity="1"/>
  <path d="M72 92 Q100 115 128 92" stroke="#333" stroke-width="4" fill="none" stroke-linecap="round"/>
  <ellipse cx="60" cy="82" rx="12" ry="7" fill="#FFB3B3" opacity="0.4"/>
  <ellipse cx="140" cy="82" rx="12" ry="7" fill="#FFB3B3" opacity="0.4"/>
  <path d="M45,42.25 C39,37 42,34 45,37.75 C48,34 51,37 45,42.25Z" fill="#FFB3B3"/>
  <path d="M160,46.8 C155.2,42.6 157.6,40.2 160,43.2 C162.4,40.2 164.8,42.6 160,46.8Z" fill="#FFD6D6"/>
</svg>