<svg xmlns="http://www.w3.org/2000/svg" viewBox="0 0 200 150" width="200" height="150">
  <defs>
    <linearGradient id="bg73620" gradientTransform="rotate(45)">
      <stop offset="0%" style="stop-color:#E2D9F3"/>
      <stop offset="100%" style="stop-color:#C9B8E8"/>
    </linearGradient>
  </defs>
  <rect width="200" height="150" fill="url(#bg73620)" rx="16"/>
  <circle cx="76.71328729193192" cy="13.507703157574724" r="4.2149277337885" fill="#E2D9F3" opacity="0.3"/><circle cx="168.65831435516156" cy="43.388234958774774" r="3.890276419961083" fill="#E2D9F3" opacity="0.3"/><circle cx="169.5553585486664" cy="68.70668595720417" r="3.281580614289851" fill="#E2D9F3" opacity="0.3"/><circle cx="167.31193360446923" cy="144.70484989636816" r="4.147809294747731" fill="#E2D9F3" opacity="0.3"/><circle cx="116.71481637567922" cy="100.62439497423838" r="3.231601751128437" fill="#E2D9F3" opacity="0.3"/><circle cx="124.48335430308362" cy="51.3146568293223" r="3.409323757515267" fill="#E2D9F3" opacity="0.3"/>
  <circle cx="100" cy="75" r="48" fill="#FFE5D9" opacity="1"/>
  <circle cx="80" cy="68" r="8" fill="#333" opacity="1"/>
  <circle cx="120" cy="68" r="8" fill="#333" opacity="1"/>
  <circle cx="78" cy="65" r="3" fill="white" opacity="1"/>
  <circle cx="118" cy="65" r="3" fill="white" opacity="1"/>
  <path d="M72 92 Q100 115 128 92" stroke="#333" stroke-width="4" fill="none" stroke-linecap="round"/>
  <ellipse cx="60" cy="82" rx="12" ry="7" fill="#FFB3B3" opacity="0.4"/>
  <ellipse cx="140" cy="82" rx="12" ry="7" fill="#FFB3B3" opacity="0.4"/>
  <path d="M45,42.25 C39,37 42,34 45,37.75 C48,34 51,37 45,42.25Z" fill="#FFB3B3"/>
  <path d="M160,46.8 C155.2,42.6 157.6,40.2 160,43.2 C162.4,40.2 164.8,42.6 160,46.8Z" fill="#FFD6D6"/>
</svg>