<svg xmlns="http://www.w3.org/2000/svg" viewBox="0 0 200 150" width="200" height="150">
  <defs>
    <linearGradient id="bg73722" gradientTransform="rotate(90)">
      <stop offset="0%" style="stop-color:#D0F0F0"/>
      <stop offset="100%" style="stop-color:#A0E0E0"/>
    </linearGradient>
  </defs>
  <rect width="200" height="150" fill="url(#bg73722)" rx="16"/>
  <circle cx="64.45123373086972" cy="149.89841278320455" r="2.712121370364912" fill="#D0F0F0" opacity="0.3"/><circle cx="133.15010490805435" cy="136.53815821689932" r="4.942645944071046" fill="#D0F0F0" opacity="0.3"/><circle cx="117.45619657012867" cy="44.71003602398014" r="4.978248031737564" fill="#D0F0F0" opacity="0.3"/><circle cx="103.86198049129689" cy="90.77913675799891" r="2.8018868927811127" fill="#D0F0F0" opacity="0.3"/><circle cx="80.0550489952002" cy="109.32459113055302" r="4.601683132626022" fill="#D0F0F0" opacity="0.3"/><circle cx="182.70095612133446" cy="90.50031543061579" r="4.021040312071364" fill="#D0F0F0" opacity="0.3"/>
  <circle cx="100" cy="75" r="48" fill="#FFE5D9" opacity="1"/>
  <circle cx="80" cy="68" r="8" fill="#333" opacity="1"/>
  <circle cx="120" cy="68" r="8" fill="#333" opacity="1"/>
  <circle cx="78" cy="65" r="3" fill="white" opacity="1"/>
  <circle cx="118" cy="65" r="3" fill="white" opacity="1"/>
  <path d="M72 92 Q100 115 128 92" stroke="#333" stroke-width="4" fill="none" stroke-linecap="round"/>
  <ellipse cx="60" cy="82" rx="12" ry="7" fill="#FFB3B3" opacity="0.4"/>
  <ellipse cx="140" cy="82" rx="12" ry="7" fill="#FFB3B3" opacity="0.4"/>
  <path d="M45,42.25 C39,37 42,34 45,37.75 C48,34 51,37 45,42.25Z" fill="#FFB3B3"/>
  <path d="M160,46.8 C155.2,42.6 157.6,40.2 160,43.2 C162.4,40.2 164.8,42.6 160,46.8Z" fill="#FFD6D6"/>
</svg>