<svg xmlns="http://www.w3.org/2000/svg" viewBox="0 0 200 150" width="200" height="150">
  <defs>
    <linearGradient id="bg73899" gradientTransform="rotate(45)">
      <stop offset="0%" style="stop-color:#E8F0E8"/>
      <stop offset="100%" style="stop-color:#C5DBC5"/>
    </linearGradient>
  </defs>
  <rect width="200" height="150" fill="url(#bg73899)" rx="16"/>
  <circle cx="9.795359697454842" cy="28.853797340207166" r="2.5809892966954067" fill="#E8F0E8" opacity="0.3"/><circle cx="66.60136001410137" cy="124.2165100908096" r="2.47912957450626" fill="#E8F0E8" opacity="0.3"/><circle cx="176.46990257344441" cy="34.41437421270166" r="3.178545722254512" fill="#E8F0E8" opacity="0.3"/><circle cx="163.2028505431208" cy="54.48853481257174" r="4.550621972291083" fill="#E8F0E8" opacity="0.3"/><circle cx="67.95830189803382" cy="127.79644286174516" r="3.4267310495988568" fill="#E8F0E8" opacity="0.3"/><circle cx="85.71557192426553" cy="146.27428149278785" r="3.4967492164796568" fill="#E8F0E8" opacity="0.3"/>
  <circle cx="100" cy="75" r="48" fill="#FFE5D9" opacity="1"/>
  <circle cx="80" cy="68" r="8" fill="#333" opacity="1"/>
  <circle cx="120" cy="68" r="8" fill="#333" opacity="1"/>
  <circle cx="78" cy="65" r="3" fill="white" opacity="1"/>
  <circle cx="118" cy="65" r="3" fill="white" opacity="1"/>
  <path d="M72 92 Q100 115 128 92" stroke="#333" stroke-width="4" fill="none" stroke-linecap="round"/>
  <ellipse cx="60" cy="82" rx="12" ry="7" fill="#FFB3B3" opacity="0.4"/>
  <ellipse cx="140" cy="82" rx="12" ry="7" fill="#FFB3B3" opacity="0.4"/>
  <path d="M45,42.25 C39,37 42,34 45,37.75 C48,34 51,37 45,42.25Z" fill="#FFB3B3"/>
  <path d="M160,46.8 C155.2,42.6 157.6,40.2 160,43.2 C162.4,40.2 164.8,42.6 160,46.8Z" fill="#FFD6D6"/>
</svg>