<svg xmlns="http://www.w3.org/2000/svg" viewBox="0 0 200 150" width="200" height="150">
  <defs>
    <linearGradient id="bg7401" gradientTransform="rotate(45)">
      <stop offset="0%" style="stop-color:#FFF5EB"/>
      <stop offset="100%" style="stop-color:#FFE4CC"/>
    </linearGradient>
  </defs>
  <rect width="200" height="150" fill="url(#bg7401)" rx="16"/>
  <circle cx="12.768768485693727" cy="35.826796025685326" r="2.402007467646172" fill="#FFF5EB" opacity="0.3"/><circle cx="71.86689536265476" cy="59.987606764843804" r="3.275044494478493" fill="#FFF5EB" opacity="0.3"/><circle cx="106.69570003319677" cy="49.9426813259106" r="2.561223198703374" fill="#FFF5EB" opacity="0.3"/><circle cx="72.3690679162246" cy="135.3314416568537" r="3.464718304082453" fill="#FFF5EB" opacity="0.3"/><circle cx="179.66205087017784" cy="134.26624100593472" r="2.1123136948008323" fill="#FFF5EB" opacity="0.3"/><circle cx="159.0972900066845" cy="122.98839110198969" r="4.917999164396633" fill="#FFF5EB" opacity="0.3"/>
  <circle cx="100" cy="75" r="48" fill="#FFE5D9" opacity="1"/>
  <circle cx="80" cy="68" r="8" fill="#333" opacity="1"/>
  <circle cx="120" cy="68" r="8" fill="#333" opacity="1"/>
  <circle cx="78" cy="65" r="3" fill="white" opacity="1"/>
  <circle cx="118" cy="65" r="3" fill="white" opacity="1"/>
  <path d="M72 92 Q100 115 128 92" stroke="#333" stroke-width="4" fill="none" stroke-linecap="round"/>
  <ellipse cx="60" cy="82" rx="12" ry="7" fill="#FFB3B3" opacity="0.4"/>
  <ellipse cx="140" cy="82" rx="12" ry="7" fill="#FFB3B3" opacity="0.4"/>
  <path d="M45,42.25 C39,37 42,34 45,37.75 C48,34 51,37 45,42.25Z" fill="#FFB3B3"/>
  <path d="M160,46.8 C155.2,42.6 157.6,40.2 160,43.2 C162.4,40.2 164.8,42.6 160,46.8Z" fill="#FFD6D6"/>
</svg>