<svg xmlns="http://www.w3.org/2000/svg" viewBox="0 0 200 150" width="200" height="150">
  <defs>
    <linearGradient id="bg7410" gradientTransform="rotate(45)">
      <stop offset="0%" style="stop-color:#E0F4FF"/>
      <stop offset="100%" style="stop-color:#BAE6FD"/>
    </linearGradient>
  </defs>
  <rect width="200" height="150" fill="url(#bg7410)" rx="16"/>
  <rect x="0" y="0" width="200" height="150" rx="0" fill="#1a1a3e"/>
  <polygon points="20.250441580355982,45.979125876569924 21.304027801423057,48.11392473271277 23.659918211886158,48.456255647617056 21.95517989612107,50.117964814762026 22.357614022490132,52.46433581171557 20.250441580355982,51.35652970028559 18.143269138221832,52.46433581171557 18.545703264590895,50.117964814762026 16.840964948825807,48.456255647617056 19.196855359288907,48.11392473271277" fill="#FFF3B0"/>
  <polygon points="152.89063756724317,26.29652067432471 153.90962687292853,28.361218523159216 156.18815622878626,28.692308218827076 154.53939689801473,30.299451361573453 154.92861617861385,32.56877389565555 152.89063756724317,31.497345133824638 150.8526589558725,32.56877389565555 151.24187823647162,30.299451361573453 149.5931189057001,28.692308218827076 151.87164826155782,28.361218523159216" fill="#FFF3B0"/>
  <polygon points="53.04010208395539,23.568427265692662 54.46730511892174,26.460256473029844 57.65862812280053,26.923982849613797 55.34936510337796,29.174957965991794 55.894508153888104,32.35338583553769 53.04010208395539,30.85273575795236 50.185696014022675,32.35338583553769 50.730839064532816,29.174957965991794 48.42157604511025,26.923982849613793 51.612899048989036,26.460256473029844" fill="#FFF3B0"/>
  <polygon points="108.6115996161925,23.596014388210733 109.45981185334342,25.314680101019892 111.35647207496007,25.590280963456003 109.98403584557629,26.928075651707243 110.30802409049436,28.817072064830704 108.6115996161925,27.925208939329877 106.91517514189066,28.817072064830704 107.23916338680873,26.928075651707243 105.86672715742495,25.590280963456003 107.76338737904159,25.314680101019892" fill="#FFF3B0"/>
  <polygon points="61.91718550575615,26.79574043062621 62.979020000996876,28.947252115694653 65.3533541132093,29.29226305733789 63.63526980948273,30.966981347545982 64.0408544962376,33.33172152104055 61.91718550575615,32.21524266090182 59.7935165152747,33.33172152104055 60.199101202029574,30.966981347545982 58.48101689830299,29.292263057337887 60.85535101051543,28.947252115694653" fill="#FFF3B0"/>
  <polygon points="166.03679426316376,27.010118742286977 166.68611286859215,28.325781939492515 168.1380334093854,28.53675834352668 167.08741383627458,29.560859321181226 167.33543147402054,31.00691310690411 166.03679426316376,30.32417912180108 164.73815705230697,31.00691310690411 164.98617469005293,29.560859321181226 163.9355551169421,28.53675834352668 165.38747565773537,28.325781939492515" fill="#FFF3B0"/>
  <polygon points="93.78751546570129,32.8309373327229 95.08011410626118,35.45002824729872 97.97045253417691,35.87001900494051 95.8789839999391,37.908696967416205 96.37271274682107,40.78735644517547 93.78751546570129,39.42823780352501 91.20231818458151,40.78735644517547 91.69604693146348,37.908696967416205 89.60457839722567,35.87001900494051 92.4949168251414,35.45002824729872" fill="#FFF3B0"/>
  <polygon points="171.60285880040647,37.93098403993645 172.32849194317546,39.401277379188464 173.9510569771338,39.637049879513505 172.77695788877014,40.78151363692887 173.0541250859445,42.397522394994304 171.60285880040647,41.634546556717396 170.15159251486844,42.397522394994304 170.4287597120428,40.78151363692887 169.25466062367914,39.637049879513505 170.87722565763747,39.401277379188464" fill="#FFF3B0"/>
  <polygon points="121.97589584016896,48.2605310273284 122.83127430611722,49.99371710566011 124.74395870246703,50.27164641698019 123.35992727131799,51.6207436335374 123.68665277206549,53.52569947273477 121.97589584016896,52.6263013283633 120.26513890827243,53.52569947273477 120.59186440901993,51.6207436335374 119.2078329778709,50.27164641698019 121.1205173742207,49.99371710566011" fill="#FFF3B0"/>
  <polygon points="112.48876556192045,33.57176850402084 113.64633407127572,35.917258488861194 116.23473594680722,36.29337529728969 114.36175075436384,38.119084636622006 114.803902580631,40.6970275928113 112.48876556192045,39.47988803325643 110.17362854320989,40.6970275928113 110.61578036947705,38.119084636622006 108.74279517703367,36.29337529728969 111.33119705256517,35.917258488861194" fill="#FFF3B0"/>
  <path d="M155 25 A22 22 0 1 1 175 50 A18 18 0 1 0 155 25" fill="#FFE566"/>
  <rect x="35" y="75" width="130" height="50" rx="8" fill="#C9B8E8"/>
  <rect x="45" y="65" width="90" height="20" rx="8" fill="white"/>
  <rect x="40" y="90" width="120" height="30" rx="6" fill="#BAE6FD"/>
  <text x="170" y="75" fill="#E2D9F3" font-size="16" font-weight="bold">z</text>
  <text x="178" y="65" fill="#E2D9F3" font-size="13" font-weight="bold">z</text>
</svg>