<svg xmlns="http://www.w3.org/2000/svg" viewBox="0 0 200 150" width="200" height="150">
  <defs>
    <linearGradient id="bg74364" gradientTransform="rotate(45)">
      <stop offset="0%" style="stop-color:#E2D9F3"/>
      <stop offset="100%" style="stop-color:#C9B8E8"/>
    </linearGradient>
  </defs>
  <rect width="200" height="150" fill="url(#bg74364)" rx="16"/>
  <circle cx="81.61534342070809" cy="36.044634345910254" r="2.8164845242154115" fill="#E2D9F3" opacity="0.3"/><circle cx="159.6400119316968" cy="125.79182743811543" r="3.3982703507681435" fill="#E2D9F3" opacity="0.3"/><circle cx="198.02459379479842" cy="53.240946619280294" r="4.062957381192973" fill="#E2D9F3" opacity="0.3"/><circle cx="103.30315555438574" cy="119.52143613966655" r="2.187193160691095" fill="#E2D9F3" opacity="0.3"/><circle cx="196.20994151837294" cy="27.1326560912712" r="3.8145263221076675" fill="#E2D9F3" opacity="0.3"/><circle cx="174.0076800044335" cy="47.328347284064876" r="4.15377410776091" fill="#E2D9F3" opacity="0.3"/>
  <circle cx="100" cy="75" r="48" fill="#FFE5D9" opacity="1"/>
  <circle cx="80" cy="68" r="8" fill="#333" opacity="1"/>
  <circle cx="120" cy="68" r="8" fill="#333" opacity="1"/>
  <circle cx="78" cy="65" r="3" fill="white" opacity="1"/>
  <circle cx="118" cy="65" r="3" fill="white" opacity="1"/>
  <path d="M72 92 Q100 115 128 92" stroke="#333" stroke-width="4" fill="none" stroke-linecap="round"/>
  <ellipse cx="60" cy="82" rx="12" ry="7" fill="#FFB3B3" opacity="0.4"/>
  <ellipse cx="140" cy="82" rx="12" ry="7" fill="#FFB3B3" opacity="0.4"/>
  <path d="M45,42.25 C39,37 42,34 45,37.75 C48,34 51,37 45,42.25Z" fill="#FFB3B3"/>
  <path d="M160,46.8 C155.2,42.6 157.6,40.2 160,43.2 C162.4,40.2 164.8,42.6 160,46.8Z" fill="#FFD6D6"/>
</svg>