<svg xmlns="http://www.w3.org/2000/svg" viewBox="0 0 200 150" width="200" height="150">
  <defs>
    <linearGradient id="bg7470" gradientTransform="rotate(45)">
      <stop offset="0%" style="stop-color:#FFF5EB"/>
      <stop offset="100%" style="stop-color:#FFE4CC"/>
    </linearGradient>
  </defs>
  <rect width="200" height="150" fill="url(#bg7470)" rx="16"/>
  <circle cx="182.9452124787167" cy="63.97872983116031" r="2.925141513125709" fill="#FFF5EB" opacity="0.3"/><circle cx="174.62736384986783" cy="10.857297166921853" r="4.03589841201574" fill="#FFF5EB" opacity="0.3"/><circle cx="106.38221213139332" cy="61.6125129113243" r="4.697027258220345" fill="#FFF5EB" opacity="0.3"/><circle cx="37.287831010326045" cy="4.119572821946349" r="4.052734123838491" fill="#FFF5EB" opacity="0.3"/><circle cx="26.86351045540505" cy="148.6902268824906" r="3.7020098981683986" fill="#FFF5EB" opacity="0.3"/><circle cx="134.5236904333433" cy="148.99440883955322" r="3.321635523261648" fill="#FFF5EB" opacity="0.3"/>
  <circle cx="100" cy="75" r="48" fill="#FFE5D9" opacity="1"/>
  <circle cx="80" cy="68" r="8" fill="#333" opacity="1"/>
  <circle cx="120" cy="68" r="8" fill="#333" opacity="1"/>
  <circle cx="78" cy="65" r="3" fill="white" opacity="1"/>
  <circle cx="118" cy="65" r="3" fill="white" opacity="1"/>
  <path d="M72 92 Q100 115 128 92" stroke="#333" stroke-width="4" fill="none" stroke-linecap="round"/>
  <ellipse cx="60" cy="82" rx="12" ry="7" fill="#FFB3B3" opacity="0.4"/>
  <ellipse cx="140" cy="82" rx="12" ry="7" fill="#FFB3B3" opacity="0.4"/>
  <path d="M45,42.25 C39,37 42,34 45,37.75 C48,34 51,37 45,42.25Z" fill="#FFB3B3"/>
  <path d="M160,46.8 C155.2,42.6 157.6,40.2 160,43.2 C162.4,40.2 164.8,42.6 160,46.8Z" fill="#FFD6D6"/>
</svg>