<svg xmlns="http://www.w3.org/2000/svg" viewBox="0 0 200 150" width="200" height="150">
  <defs>
    <linearGradient id="bg74974" gradientTransform="rotate(90)">
      <stop offset="0%" style="stop-color:#D8F3DC"/>
      <stop offset="100%" style="stop-color:#B7E4C7"/>
    </linearGradient>
  </defs>
  <rect width="200" height="150" fill="url(#bg74974)" rx="16"/>
  <circle cx="140.427420400556" cy="0.9825376774074357" r="4.32596523463144" fill="#D8F3DC" opacity="0.3"/><circle cx="194.1433318072086" cy="136.452560190628" r="2.856906361945221" fill="#D8F3DC" opacity="0.3"/><circle cx="100.20746158843394" cy="52.12106180833871" r="4.579183017487594" fill="#D8F3DC" opacity="0.3"/><circle cx="193.5869101780554" cy="124.06046533598101" r="3.8517760361319233" fill="#D8F3DC" opacity="0.3"/><circle cx="64.45093953025207" cy="123.41527167536697" r="3.0865431713739326" fill="#D8F3DC" opacity="0.3"/><circle cx="26.386339465534547" cy="64.58975484101757" r="2.219565046587377" fill="#D8F3DC" opacity="0.3"/>
  <circle cx="100" cy="75" r="48" fill="#FFE5D9" opacity="1"/>
  <circle cx="80" cy="68" r="8" fill="#333" opacity="1"/>
  <circle cx="120" cy="68" r="8" fill="#333" opacity="1"/>
  <circle cx="78" cy="65" r="3" fill="white" opacity="1"/>
  <circle cx="118" cy="65" r="3" fill="white" opacity="1"/>
  <path d="M72 92 Q100 115 128 92" stroke="#333" stroke-width="4" fill="none" stroke-linecap="round"/>
  <ellipse cx="60" cy="82" rx="12" ry="7" fill="#FFB3B3" opacity="0.4"/>
  <ellipse cx="140" cy="82" rx="12" ry="7" fill="#FFB3B3" opacity="0.4"/>
  <path d="M45,42.25 C39,37 42,34 45,37.75 C48,34 51,37 45,42.25Z" fill="#FFB3B3"/>
  <path d="M160,46.8 C155.2,42.6 157.6,40.2 160,43.2 C162.4,40.2 164.8,42.6 160,46.8Z" fill="#FFD6D6"/>
</svg>