<svg xmlns="http://www.w3.org/2000/svg" viewBox="0 0 200 150" width="200" height="150">
  <defs>
    <linearGradient id="bg7498" gradientTransform="rotate(135)">
      <stop offset="0%" style="stop-color:#F0F7FF"/>
      <stop offset="100%" style="stop-color:#DCE8F5"/>
    </linearGradient>
  </defs>
  <rect width="200" height="150" fill="url(#bg7498)" rx="16"/>
  <circle cx="71.72055988967259" cy="94.58978999334704" r="4.468502137584494" fill="#F0F7FF" opacity="0.3"/><circle cx="16.99027511604072" cy="123.43892799722198" r="2.3389374845964994" fill="#F0F7FF" opacity="0.3"/><circle cx="19.22189600263664" cy="52.66526729947145" r="4.7908979755466135" fill="#F0F7FF" opacity="0.3"/><circle cx="13.121729710837826" cy="36.865943964403414" r="2.2575345190271037" fill="#F0F7FF" opacity="0.3"/><circle cx="43.31483968894645" cy="99.56609024029603" r="4.789887915248983" fill="#F0F7FF" opacity="0.3"/><circle cx="36.42660486566456" cy="65.74958586620596" r="3.221112644263485" fill="#F0F7FF" opacity="0.3"/>
  <ellipse cx="100" cy="95" rx="32" ry="28" fill="#DCE8F5" opacity="1"/>
  <circle cx="100" cy="58" r="28" fill="#DCE8F5" opacity="1"/>
  <ellipse cx="82" cy="25" rx="10" ry="24" fill="#DCE8F5" opacity="1"/>
  <ellipse cx="118" cy="25" rx="10" ry="24" fill="#DCE8F5" opacity="1"/>
  <ellipse cx="82" cy="27" rx="5" ry="15" fill="#FFD6D6" opacity="1"/>
  <ellipse cx="118" cy="27" rx="5" ry="15" fill="#FFD6D6" opacity="1"/>
  <circle cx="88" cy="52" r="5" fill="#333" opacity="1"/>
  <circle cx="112" cy="52" r="5" fill="#333" opacity="1"/>
  <circle cx="86" cy="50" r="2" fill="white" opacity="1"/>
  <circle cx="110" cy="50" r="2" fill="white" opacity="1"/>
  <ellipse cx="100" cy="68" rx="6" ry="4" fill="#FFB3B3" opacity="1"/>
  <path d="M50,46.8 C45.2,42.6 47.6,40.2 50,43.2 C52.4,40.2 54.8,42.6 50,46.8Z" fill="#FFB3B3"/>
  <path d="M155,51.5 C151,48 153,46 155,48.5 C157,46 159,48 155,51.5Z" fill="#FFD6D6"/>
</svg>