<svg xmlns="http://www.w3.org/2000/svg" viewBox="0 0 200 150" width="200" height="150">
  <defs>
    <linearGradient id="bg75091" gradientTransform="rotate(180)">
      <stop offset="0%" style="stop-color:#F0F7FF"/>
      <stop offset="100%" style="stop-color:#DCE8F5"/>
    </linearGradient>
  </defs>
  <rect width="200" height="150" fill="url(#bg75091)" rx="16"/>
  <rect x="0" y="110" width="200" height="40" rx="0" fill="#DCE8F5"/>
  <path d="M55 35 L55 80 L40 108 L90 108 L75 80 L75 35" fill="none" stroke="#C7D9EB" stroke-width="3"/>
  <rect x="50" y="30" width="30" height="10" rx="2" fill="#C7D9EB"/>
  <path d="M57 82 L43 105 L87 105 L73 82" fill="#B7E4C7"/>
  <circle cx="60" cy="92" r="4" fill="#D8F3DC" opacity="1"/>
  <circle cx="72" cy="88" r="3" fill="#D8F3DC" opacity="1"/>
  <circle cx="145" cy="55" r="28" fill="#F0F7FF" opacity="0.3"/>
  <circle cx="145" cy="55" r="24" fill="#D4E9FF" opacity="0.5"/>
  <circle cx="145" cy="55" r="24" fill="none" stroke="#C7D9EB" stroke-width="4"/>
  <rect x="162" y="72" width="10" height="35" rx="3" fill="#C7D9EB"/>
  <polygon points="95,41 97.3511410091699,45.763932022500214 102.60845213036123,46.52786404500042 98.80422606518061,50.236067977499786 99.70228201833979,55.47213595499958 95,53 90.29771798166021,55.47213595499958 91.19577393481939,50.23606797749979 87.39154786963877,46.52786404500042 92.6488589908301,45.763932022500214" fill="#FFE566"/><polygon points="112.95416432311869,3.01556729508097 115.89309058458106,8.970482323206234 122.46472948607023,9.925397351331496 117.70944690459446,14.560652266955707 118.83201684604342,21.105737238830443 112.95416432311869,18.01556729508097 107.07631180019396,21.105737238830443 108.19888174164292,14.560652266955708 103.44359916016715,9.925397351331494 110.01523806165632,8.970482323206234" fill="#FFE566"/><polygon points="66.23227176010585,36.937757746417915 69.75898327386068,44.08365578016823 77.64494995564769,45.22955381391855 71.93861085787677,50.7918597126676 73.28569478761553,58.64596167891729 66.23227176010585,54.937757746417915 59.178848732596165,58.64596167891729 60.525932662334924,50.7918597126676 54.819593564564,45.22955381391854 62.705560246351006,44.08365578016823" fill="#FFE566"/><polygon points="123.13999930324216,-0.8600558581468611 127.25449606928947,7.476825181228507 136.4547905313743,8.813706220603876 129.79739491730822,15.30306310247777 131.3689928353368,24.4661820631024 123.13999930324216,20.13994414185314 114.91100577114754,24.4661820631024 116.48260368917609,15.303063102477772 109.82520807511001,8.813706220603871 119.02550253719485,7.476825181228508" fill="#FFE566"/>
</svg>