<svg xmlns="http://www.w3.org/2000/svg" viewBox="0 0 200 150" width="200" height="150">
  <defs>
    <linearGradient id="bg7513" gradientTransform="rotate(135)">
      <stop offset="0%" style="stop-color:#FFF3B0"/>
      <stop offset="100%" style="stop-color:#FFE566"/>
    </linearGradient>
  </defs>
  <rect width="200" height="150" fill="url(#bg7513)" rx="16"/>
  <rect x="0" y="100" width="200" height="50" rx="0" fill="#C5DBC5"/>
  <circle cx="165" cy="35" r="22" fill="#FFE566" opacity="1"/>
  <line x1="191" y1="35" x2="200" y2="35" stroke="#FFF3B0" stroke-width="3" stroke-linecap="round"/>
  <line x1="183.38477631085024" y1="53.384776310850235" x2="189.74873734152916" y2="59.748737341529164" stroke="#FFF3B0" stroke-width="3" stroke-linecap="round"/>
  <line x1="165" y1="61" x2="165" y2="70" stroke="#FFF3B0" stroke-width="3" stroke-linecap="round"/>
  <line x1="146.61522368914976" y1="53.38477631085024" x2="140.25126265847084" y2="59.748737341529164" stroke="#FFF3B0" stroke-width="3" stroke-linecap="round"/>
  <line x1="139" y1="35" x2="130" y2="35.00000000000001" stroke="#FFF3B0" stroke-width="3" stroke-linecap="round"/>
  <line x1="146.61522368914976" y1="16.615223689149765" x2="140.25126265847084" y2="10.25126265847084" stroke="#FFF3B0" stroke-width="3" stroke-linecap="round"/>
  <line x1="165" y1="9" x2="165" y2="0" stroke="#FFF3B0" stroke-width="3" stroke-linecap="round"/>
  <line x1="183.38477631085024" y1="16.61522368914976" x2="189.74873734152916" y2="10.251262658470832" stroke="#FFF3B0" stroke-width="3" stroke-linecap="round"/>
  <rect x="90" y="55" width="14" height="50" rx="2" fill="#8B6914"/>
  <path d="M77.08558102863026,24.500435279558587 Q87.08558102863026,36.50043527955859 77.08558102863026,48.50043527955859 Q67.08558102863026,36.50043527955859 77.08558102863026,24.500435279558587Z" fill="#B7E4C7"/>
  <path d="M87.48605046095327,26.466788512178027 Q97.48605046095327,38.46678851217803 87.48605046095327,50.46678851217803 Q77.48605046095327,38.46678851217803 87.48605046095327,26.466788512178027Z" fill="#95D5B2"/>
  <path d="M102.36239524309349,39.520288900737796 Q112.36239524309349,51.520288900737796 102.36239524309349,63.520288900737796 Q92.36239524309349,51.520288900737796 102.36239524309349,39.520288900737796Z" fill="#B7E4C7"/>
  <path d="M114.11002512708365,26.595849558669215 Q124.11002512708365,38.595849558669215 114.11002512708365,50.595849558669215 Q104.11002512708365,38.595849558669215 114.11002512708365,26.595849558669215Z" fill="#95D5B2"/>
  <path d="M125.68351866470766,42.96992527452676 Q135.68351866470766,54.96992527452676 125.68351866470766,66.96992527452676 Q115.68351866470766,54.96992527452676 125.68351866470766,42.96992527452676Z" fill="#B7E4C7"/>
  <circle cx="45" cy="95" r="8" fill="#FFB3B3" opacity="1"/>
  <circle cx="155" cy="98" r="6" fill="#C9B8E8" opacity="1"/>
</svg>