<svg xmlns="http://www.w3.org/2000/svg" viewBox="0 0 200 150" width="200" height="150">
  <defs>
    <linearGradient id="bg7517" gradientTransform="rotate(135)">
      <stop offset="0%" style="stop-color:#E8F0E8"/>
      <stop offset="100%" style="stop-color:#C5DBC5"/>
    </linearGradient>
  </defs>
  <rect width="200" height="150" fill="url(#bg7517)" rx="16"/>
  <circle cx="120.84277361882414" cy="39.003209082056856" r="4.121204740947633" fill="#E8F0E8" opacity="0.3"/><circle cx="166.73144879050597" cy="114.38422772376953" r="4.176486821493768" fill="#E8F0E8" opacity="0.3"/><circle cx="175.38483785865537" cy="2.942538707799258" r="3.093937623758393" fill="#E8F0E8" opacity="0.3"/><circle cx="182.58648738610646" cy="125.72959574290508" r="2.097550208697612" fill="#E8F0E8" opacity="0.3"/><circle cx="83.26612524288066" cy="114.97882492076315" r="4.852920022791295" fill="#E8F0E8" opacity="0.3"/><circle cx="86.09451454944974" cy="105.80537349675296" r="3.8643855780646845" fill="#E8F0E8" opacity="0.3"/>
  <circle cx="100" cy="75" r="48" fill="#FFE5D9" opacity="1"/>
  <circle cx="80" cy="68" r="8" fill="#333" opacity="1"/>
  <circle cx="120" cy="68" r="8" fill="#333" opacity="1"/>
  <circle cx="78" cy="65" r="3" fill="white" opacity="1"/>
  <circle cx="118" cy="65" r="3" fill="white" opacity="1"/>
  <path d="M72 92 Q100 115 128 92" stroke="#333" stroke-width="4" fill="none" stroke-linecap="round"/>
  <ellipse cx="60" cy="82" rx="12" ry="7" fill="#FFB3B3" opacity="0.4"/>
  <ellipse cx="140" cy="82" rx="12" ry="7" fill="#FFB3B3" opacity="0.4"/>
  <path d="M45,42.25 C39,37 42,34 45,37.75 C48,34 51,37 45,42.25Z" fill="#FFB3B3"/>
  <path d="M160,46.8 C155.2,42.6 157.6,40.2 160,43.2 C162.4,40.2 164.8,42.6 160,46.8Z" fill="#FFD6D6"/>
</svg>