<svg xmlns="http://www.w3.org/2000/svg" viewBox="0 0 200 150" width="200" height="150">
  <defs>
    <linearGradient id="bg75183" gradientTransform="rotate(0)">
      <stop offset="0%" style="stop-color:#FFF3B0"/>
      <stop offset="100%" style="stop-color:#FFE566"/>
    </linearGradient>
  </defs>
  <rect width="200" height="150" fill="url(#bg75183)" rx="16"/>
  <circle cx="150.83704762146226" cy="55.897441681963755" r="2.4009066854396224" fill="#FFF3B0" opacity="0.3"/><circle cx="154.4496490684196" cy="122.81993913393308" r="2.975544498418458" fill="#FFF3B0" opacity="0.3"/><circle cx="51.03758142222432" cy="112.76815947321666" r="2.2927571364507457" fill="#FFF3B0" opacity="0.3"/><circle cx="114.83559716762102" cy="71.2480066776152" r="2.412818027105459" fill="#FFF3B0" opacity="0.3"/><circle cx="111.71417801815551" cy="77.94351328748235" r="3.758100831810225" fill="#FFF3B0" opacity="0.3"/><circle cx="129.8563585653028" cy="146.80356255948936" r="4.967471722428854" fill="#FFF3B0" opacity="0.3"/>
  <circle cx="100" cy="75" r="48" fill="#FFE5D9" opacity="1"/>
  <circle cx="80" cy="68" r="8" fill="#333" opacity="1"/>
  <circle cx="120" cy="68" r="8" fill="#333" opacity="1"/>
  <circle cx="78" cy="65" r="3" fill="white" opacity="1"/>
  <circle cx="118" cy="65" r="3" fill="white" opacity="1"/>
  <path d="M72 92 Q100 115 128 92" stroke="#333" stroke-width="4" fill="none" stroke-linecap="round"/>
  <ellipse cx="60" cy="82" rx="12" ry="7" fill="#FFB3B3" opacity="0.4"/>
  <ellipse cx="140" cy="82" rx="12" ry="7" fill="#FFB3B3" opacity="0.4"/>
  <path d="M45,42.25 C39,37 42,34 45,37.75 C48,34 51,37 45,42.25Z" fill="#FFB3B3"/>
  <path d="M160,46.8 C155.2,42.6 157.6,40.2 160,43.2 C162.4,40.2 164.8,42.6 160,46.8Z" fill="#FFD6D6"/>
</svg>