<svg xmlns="http://www.w3.org/2000/svg" viewBox="0 0 200 150" width="200" height="150">
  <defs>
    <linearGradient id="bg7518" gradientTransform="rotate(90)">
      <stop offset="0%" style="stop-color:#E8F0E8"/>
      <stop offset="100%" style="stop-color:#C5DBC5"/>
    </linearGradient>
  </defs>
  <rect width="200" height="150" fill="url(#bg7518)" rx="16"/>
  <circle cx="178.5604498878456" cy="34.28735329987376" r="4.905064474649407" fill="#E8F0E8" opacity="0.3"/><circle cx="77.24820115727198" cy="22.162331046564532" r="2.9806378767116257" fill="#E8F0E8" opacity="0.3"/><circle cx="166.9505425139505" cy="92.92138813502788" r="4.461055451050015" fill="#E8F0E8" opacity="0.3"/><circle cx="20.776188804484264" cy="120.2604025646906" r="3.3583336894134845" fill="#E8F0E8" opacity="0.3"/><circle cx="1.9304895238747122" cy="142.19204629043816" r="3.6869228407776973" fill="#E8F0E8" opacity="0.3"/><circle cx="195.7700152288453" cy="97.37054486313355" r="2.3378286914139608" fill="#E8F0E8" opacity="0.3"/>
  <circle cx="100" cy="75" r="48" fill="#FFE5D9" opacity="1"/>
  <circle cx="80" cy="68" r="8" fill="#333" opacity="1"/>
  <circle cx="120" cy="68" r="8" fill="#333" opacity="1"/>
  <circle cx="78" cy="65" r="3" fill="white" opacity="1"/>
  <circle cx="118" cy="65" r="3" fill="white" opacity="1"/>
  <path d="M72 92 Q100 115 128 92" stroke="#333" stroke-width="4" fill="none" stroke-linecap="round"/>
  <ellipse cx="60" cy="82" rx="12" ry="7" fill="#FFB3B3" opacity="0.4"/>
  <ellipse cx="140" cy="82" rx="12" ry="7" fill="#FFB3B3" opacity="0.4"/>
  <path d="M45,42.25 C39,37 42,34 45,37.75 C48,34 51,37 45,42.25Z" fill="#FFB3B3"/>
  <path d="M160,46.8 C155.2,42.6 157.6,40.2 160,43.2 C162.4,40.2 164.8,42.6 160,46.8Z" fill="#FFD6D6"/>
</svg>