<svg xmlns="http://www.w3.org/2000/svg" viewBox="0 0 200 150" width="200" height="150">
  <defs>
    <linearGradient id="bg7519" gradientTransform="rotate(135)">
      <stop offset="0%" style="stop-color:#FFE4EC"/>
      <stop offset="100%" style="stop-color:#FFC8DD"/>
    </linearGradient>
  </defs>
  <rect width="200" height="150" fill="url(#bg7519)" rx="16"/>
  <circle cx="127.34002333072567" cy="54.24455905058494" r="2.586096615992574" fill="#FFE4EC" opacity="0.3"/><circle cx="9.81802723799774" cy="56.57798736144741" r="2.5186845263724535" fill="#FFE4EC" opacity="0.3"/><circle cx="70.00675163226333" cy="63.208119768205506" r="3.784462890494069" fill="#FFE4EC" opacity="0.3"/><circle cx="156.25858340881678" cy="147.36937808709172" r="3.6870978862498305" fill="#FFE4EC" opacity="0.3"/><circle cx="24.189058750887682" cy="12.32195598627186" r="3.8182465855143164" fill="#FFE4EC" opacity="0.3"/><circle cx="68.00028897814627" cy="58.953693144371755" r="2.1037695487775636" fill="#FFE4EC" opacity="0.3"/>
  <circle cx="100" cy="75" r="48" fill="#FFE5D9" opacity="1"/>
  <circle cx="80" cy="68" r="8" fill="#333" opacity="1"/>
  <circle cx="120" cy="68" r="8" fill="#333" opacity="1"/>
  <circle cx="78" cy="65" r="3" fill="white" opacity="1"/>
  <circle cx="118" cy="65" r="3" fill="white" opacity="1"/>
  <path d="M72 92 Q100 115 128 92" stroke="#333" stroke-width="4" fill="none" stroke-linecap="round"/>
  <ellipse cx="60" cy="82" rx="12" ry="7" fill="#FFB3B3" opacity="0.4"/>
  <ellipse cx="140" cy="82" rx="12" ry="7" fill="#FFB3B3" opacity="0.4"/>
  <path d="M45,42.25 C39,37 42,34 45,37.75 C48,34 51,37 45,42.25Z" fill="#FFB3B3"/>
  <path d="M160,46.8 C155.2,42.6 157.6,40.2 160,43.2 C162.4,40.2 164.8,42.6 160,46.8Z" fill="#FFD6D6"/>
</svg>