<svg xmlns="http://www.w3.org/2000/svg" viewBox="0 0 200 150" width="200" height="150">
  <defs>
    <linearGradient id="bg7522" gradientTransform="rotate(180)">
      <stop offset="0%" style="stop-color:#FFE5D9"/>
      <stop offset="100%" style="stop-color:#FFCDB2"/>
    </linearGradient>
  </defs>
  <rect width="200" height="150" fill="url(#bg7522)" rx="16"/>
  <rect x="0" y="0" width="200" height="150" rx="0" fill="#1a1a3e"/>
  <polygon points="93.87237486522281,42.8027911318095 95.31346933387617,45.722767458150535 98.53585452778401,46.19100743514831 96.20411469650341,48.46389202816989 96.75456380252953,51.67325657518701 93.87237486522281,50.15800017983929 90.9901859279161,51.67325657518701 91.54063503394221,48.46389202816989 89.20889520266161,46.1910074351483 92.43128039656945,45.722767458150535" fill="#FFF3B0"/>
  <polygon points="38.788261861759565,25.01552178696329 39.40527114468524,26.265719146307255 40.78494584405544,26.466197615088348 39.786603852907504,27.439340544589378 40.02228042761091,28.813440411652593 38.788261861759565,28.164678458651906 37.55424329590822,28.813440411652593 37.78991987061163,27.439340544589378 36.79157787946369,26.466197615088348 38.171252578833894,26.265719146307255" fill="#FFF3B0"/>
  <polygon points="27.143704265754423,15.024061165936075 28.366817004385172,17.502358265074424 31.10178023210946,17.899771684568925 29.12274224893194,19.82885694555119 29.58992974301592,22.55276904552246 27.143704265754423,21.266712204867616 24.697478788492926,22.55276904552246 25.164666282576906,19.82885694555119 23.185628299399387,17.899771684568922 25.920591527123673,17.502358265074424" fill="#FFF3B0"/>
  <polygon points="170.2439433884274,43.7154902501843 170.94830246574426,45.14267762460435 172.52329724319378,45.37153776204504 171.3836203158106,46.482448205192036 171.65266154306113,48.0510789232204 170.2439433884274,47.3104719611224 168.83522523379366,48.0510789232204 169.1042664610442,46.482448205192036 167.964589533661,45.37153776204504 169.53958431111053,45.14267762460435" fill="#FFF3B0"/>
  <polygon points="124.56379326855313,10.658653062630947 125.79347981411702,13.150270149484367 128.54314252101477,13.549819528330678 126.55346789478395,15.489272953802402 127.02316635968091,18.22782513696675 124.56379326855313,16.93485618665227 122.10442017742534,18.22782513696675 122.5741186423223,15.489272953802402 120.58444401609148,13.549819528330676 123.33410672298923,13.150270149484367" fill="#FFF3B0"/>
  <polygon points="41.67126042516429,46.9939307797049 42.86203960362731,49.406712930108256 45.524702792861966,49.79362053905493 43.59798160901313,51.671709524399944 44.05281878209033,54.3236137276383 41.67126042516429,53.07155440407496 39.289702068238256,54.3236137276383 39.74453924131545,51.671709524399944 37.81781805746662,49.79362053905493 40.480481246701274,49.406712930108256" fill="#FFF3B0"/>
  <polygon points="92.19512550472245,7.231231496317378 93.50504603440079,9.885420391805326 96.43411738388407,10.311039372397659 94.31462144430327,12.377037302964084 94.81496656407913,15.294273194715174 92.19512550472245,13.916941241004224 89.57528444536578,15.294273194715174 90.07562956514164,12.377037302964084 87.95613362556084,10.311039372397657 90.88520497504412,9.885420391805326" fill="#FFF3B0"/>
  <polygon points="34.368817609101825,42.55503188500552 35.259108149484916,44.35895755263593 37.249858317506536,44.64823048457623 35.80933796330418,46.05239079229048 36.149398689868015,48.03509696388534 34.368817609101825,47.09899009207584 32.588236528335635,48.03509696388534 32.92829725489947,46.05239079229048 31.487776900697114,44.64823048457623 33.47852706871873,44.35895755263593" fill="#FFF3B0"/>
  <polygon points="31.026175612551015,30.888526164713767 31.6262716066759,32.10445345781771 32.968127042564454,32.29943646593936 31.997151327557734,33.24590386904789 32.226367600800785,34.58233728839971 31.026175612551015,33.951359019660686 29.825983624301248,34.58233728839971 30.055199897544295,33.24590386904789 29.08422418253758,32.29943646593935 30.42607961842613,32.10445345781771" fill="#FFF3B0"/>
  <polygon points="151.46611380293507,46.6433167929099 152.7018808724895,49.14725436706678 155.46514004436892,49.54877942792103 153.465626923652,51.49782301531221 153.93764794204395,54.24991672441189 151.46611380293507,52.950554332817774 148.9945796638262,54.24991672441189 149.46660068221814,51.49782301531221 147.46708756150122,49.54877942792103 150.23034673338063,49.14725436706678" fill="#FFF3B0"/>
  <path d="M155 25 A22 22 0 1 1 175 50 A18 18 0 1 0 155 25" fill="#FFE566"/>
  <rect x="35" y="75" width="130" height="50" rx="8" fill="#C9B8E8"/>
  <rect x="45" y="65" width="90" height="20" rx="8" fill="white"/>
  <rect x="40" y="90" width="120" height="30" rx="6" fill="#FFCDB2"/>
  <text x="170" y="75" fill="#E2D9F3" font-size="16" font-weight="bold">z</text>
  <text x="178" y="65" fill="#E2D9F3" font-size="13" font-weight="bold">z</text>
</svg>