<svg xmlns="http://www.w3.org/2000/svg" viewBox="0 0 200 150" width="200" height="150">
  <defs>
    <linearGradient id="bg7527" gradientTransform="rotate(90)">
      <stop offset="0%" style="stop-color:#E8F0E8"/>
      <stop offset="100%" style="stop-color:#C5DBC5"/>
    </linearGradient>
  </defs>
  <rect width="200" height="150" fill="url(#bg7527)" rx="16"/>
  <circle cx="31.578471077227732" cy="88.61937429693967" r="4.587164795073477" fill="#E8F0E8" opacity="0.3"/><circle cx="79.19513339729747" cy="71.96707227121806" r="2.5910715609352337" fill="#E8F0E8" opacity="0.3"/><circle cx="100.90716971571965" cy="97.7117294513846" r="4.116191608403881" fill="#E8F0E8" opacity="0.3"/><circle cx="128.69249322502583" cy="79.55507661708907" r="3.6463541382736366" fill="#E8F0E8" opacity="0.3"/><circle cx="144.23432036928716" cy="19.804588690021774" r="4.143235415061554" fill="#E8F0E8" opacity="0.3"/><circle cx="41.81086493044859" cy="99.05888302582753" r="4.553286742338969" fill="#E8F0E8" opacity="0.3"/>
  <circle cx="100" cy="75" r="48" fill="#FFE5D9" opacity="1"/>
  <circle cx="80" cy="68" r="8" fill="#333" opacity="1"/>
  <circle cx="120" cy="68" r="8" fill="#333" opacity="1"/>
  <circle cx="78" cy="65" r="3" fill="white" opacity="1"/>
  <circle cx="118" cy="65" r="3" fill="white" opacity="1"/>
  <path d="M72 92 Q100 115 128 92" stroke="#333" stroke-width="4" fill="none" stroke-linecap="round"/>
  <ellipse cx="60" cy="82" rx="12" ry="7" fill="#FFB3B3" opacity="0.4"/>
  <ellipse cx="140" cy="82" rx="12" ry="7" fill="#FFB3B3" opacity="0.4"/>
  <path d="M45,42.25 C39,37 42,34 45,37.75 C48,34 51,37 45,42.25Z" fill="#FFB3B3"/>
  <path d="M160,46.8 C155.2,42.6 157.6,40.2 160,43.2 C162.4,40.2 164.8,42.6 160,46.8Z" fill="#FFD6D6"/>
</svg>