<svg xmlns="http://www.w3.org/2000/svg" viewBox="0 0 200 150" width="200" height="150">
  <defs>
    <linearGradient id="bg7534" gradientTransform="rotate(45)">
      <stop offset="0%" style="stop-color:#D8F3DC"/>
      <stop offset="100%" style="stop-color:#B7E4C7"/>
    </linearGradient>
  </defs>
  <rect width="200" height="150" fill="url(#bg7534)" rx="16"/>
  <circle cx="15.67145227054425" cy="41.500649885654184" r="2.4864624252086287" fill="#D8F3DC" opacity="0.3"/><circle cx="138.91171084251255" cy="118.27205468116517" r="4.765944308912367" fill="#D8F3DC" opacity="0.3"/><circle cx="28.842206277840887" cy="51.443282451526784" r="2.785510144811269" fill="#D8F3DC" opacity="0.3"/><circle cx="97.14804059221933" cy="127.02094090291212" r="4.067026454670668" fill="#D8F3DC" opacity="0.3"/><circle cx="105.53921580940369" cy="87.46578730924739" r="2.612886011354931" fill="#D8F3DC" opacity="0.3"/><circle cx="74.6997887346879" cy="81.14168723677722" r="2.6816719841835948" fill="#D8F3DC" opacity="0.3"/>
  <circle cx="100" cy="75" r="48" fill="#FFE5D9" opacity="1"/>
  <circle cx="80" cy="68" r="8" fill="#333" opacity="1"/>
  <circle cx="120" cy="68" r="8" fill="#333" opacity="1"/>
  <circle cx="78" cy="65" r="3" fill="white" opacity="1"/>
  <circle cx="118" cy="65" r="3" fill="white" opacity="1"/>
  <path d="M72 92 Q100 115 128 92" stroke="#333" stroke-width="4" fill="none" stroke-linecap="round"/>
  <ellipse cx="60" cy="82" rx="12" ry="7" fill="#FFB3B3" opacity="0.4"/>
  <ellipse cx="140" cy="82" rx="12" ry="7" fill="#FFB3B3" opacity="0.4"/>
  <path d="M45,42.25 C39,37 42,34 45,37.75 C48,34 51,37 45,42.25Z" fill="#FFB3B3"/>
  <path d="M160,46.8 C155.2,42.6 157.6,40.2 160,43.2 C162.4,40.2 164.8,42.6 160,46.8Z" fill="#FFD6D6"/>
</svg>