<svg xmlns="http://www.w3.org/2000/svg" viewBox="0 0 200 150" width="200" height="150">
  <defs>
    <linearGradient id="bg7540" gradientTransform="rotate(90)">
      <stop offset="0%" style="stop-color:#FFE4EC"/>
      <stop offset="100%" style="stop-color:#FFC8DD"/>
    </linearGradient>
  </defs>
  <rect width="200" height="150" fill="url(#bg7540)" rx="16"/>
  <circle cx="159.69401629172353" cy="122.06341189928764" r="2.88736565016643" fill="#FFE4EC" opacity="0.3"/><circle cx="123.03174797289103" cy="55.99094338467694" r="3.8508854487424458" fill="#FFE4EC" opacity="0.3"/><circle cx="139.64118278563546" cy="100.87011758337212" r="4.555382395003107" fill="#FFE4EC" opacity="0.3"/><circle cx="101.05210483779956" cy="116.56396050032072" r="4.647450797316196" fill="#FFE4EC" opacity="0.3"/><circle cx="70.4488394375403" cy="92.69114004109724" r="3.7833093640438165" fill="#FFE4EC" opacity="0.3"/><circle cx="98.49959540915734" cy="36.44601605406024" r="4.823175955772967" fill="#FFE4EC" opacity="0.3"/>
  <circle cx="100" cy="75" r="48" fill="#FFE5D9" opacity="1"/>
  <circle cx="80" cy="68" r="8" fill="#333" opacity="1"/>
  <circle cx="120" cy="68" r="8" fill="#333" opacity="1"/>
  <circle cx="78" cy="65" r="3" fill="white" opacity="1"/>
  <circle cx="118" cy="65" r="3" fill="white" opacity="1"/>
  <path d="M72 92 Q100 115 128 92" stroke="#333" stroke-width="4" fill="none" stroke-linecap="round"/>
  <ellipse cx="60" cy="82" rx="12" ry="7" fill="#FFB3B3" opacity="0.4"/>
  <ellipse cx="140" cy="82" rx="12" ry="7" fill="#FFB3B3" opacity="0.4"/>
  <path d="M45,42.25 C39,37 42,34 45,37.75 C48,34 51,37 45,42.25Z" fill="#FFB3B3"/>
  <path d="M160,46.8 C155.2,42.6 157.6,40.2 160,43.2 C162.4,40.2 164.8,42.6 160,46.8Z" fill="#FFD6D6"/>
</svg>