<svg xmlns="http://www.w3.org/2000/svg" viewBox="0 0 200 150" width="200" height="150">
  <defs>
    <linearGradient id="bg7541" gradientTransform="rotate(45)">
      <stop offset="0%" style="stop-color:#FFD6D6"/>
      <stop offset="100%" style="stop-color:#FFB3B3"/>
    </linearGradient>
  </defs>
  <rect width="200" height="150" fill="url(#bg7541)" rx="16"/>
  <circle cx="12.844530079928518" cy="122.73182387043562" r="3.5010022950073107" fill="#FFD6D6" opacity="0.3"/><circle cx="155.37849118445592" cy="34.50606775786582" r="4.006458364005994" fill="#FFD6D6" opacity="0.3"/><circle cx="21.255143465896253" cy="99.06132047453866" r="3.7075706100349635" fill="#FFD6D6" opacity="0.3"/><circle cx="88.60977293295491" cy="9.434514262557059" r="2.696426794755098" fill="#FFD6D6" opacity="0.3"/><circle cx="71.72708491852973" cy="75.87602992434768" r="4.408465519900346" fill="#FFD6D6" opacity="0.3"/><circle cx="86.05642151051143" cy="62.7421123637987" r="3.185689053801525" fill="#FFD6D6" opacity="0.3"/>
  <circle cx="100" cy="75" r="48" fill="#FFE5D9" opacity="1"/>
  <circle cx="80" cy="68" r="8" fill="#333" opacity="1"/>
  <circle cx="120" cy="68" r="8" fill="#333" opacity="1"/>
  <circle cx="78" cy="65" r="3" fill="white" opacity="1"/>
  <circle cx="118" cy="65" r="3" fill="white" opacity="1"/>
  <path d="M72 92 Q100 115 128 92" stroke="#333" stroke-width="4" fill="none" stroke-linecap="round"/>
  <ellipse cx="60" cy="82" rx="12" ry="7" fill="#FFB3B3" opacity="0.4"/>
  <ellipse cx="140" cy="82" rx="12" ry="7" fill="#FFB3B3" opacity="0.4"/>
  <path d="M45,42.25 C39,37 42,34 45,37.75 C48,34 51,37 45,42.25Z" fill="#FFB3B3"/>
  <path d="M160,46.8 C155.2,42.6 157.6,40.2 160,43.2 C162.4,40.2 164.8,42.6 160,46.8Z" fill="#FFD6D6"/>
</svg>