<svg xmlns="http://www.w3.org/2000/svg" viewBox="0 0 200 150" width="200" height="150">
  <defs>
    <linearGradient id="bg7553" gradientTransform="rotate(45)">
      <stop offset="0%" style="stop-color:#FFD6D6"/>
      <stop offset="100%" style="stop-color:#FFB3B3"/>
    </linearGradient>
  </defs>
  <rect width="200" height="150" fill="url(#bg7553)" rx="16"/>
  <rect x="0" y="0" width="200" height="150" rx="0" fill="#1a1a3e"/>
  <polygon points="79.58062355431707,19.56684322619185 80.63983242862767,21.713034822171977 83.00829547395719,22.057192647860173 81.29445951413713,23.72776982623347 81.69904130293827,26.086662655983165 79.58062355431707,24.972944537067633 77.46220580569587,26.086662655983165 77.86678759449701,23.727769826233473 76.15295163467695,22.057192647860173 78.52141468000647,21.713034822171977" fill="#FFF3B0"/>
  <polygon points="80.32395771890151,32.923940274503366 81.57074384012175,35.45020488599384 84.35864236057348,35.855310253768124 82.34130003973749,37.821733016019564 82.81752996134198,40.59836651381957 80.32395771890151,39.28741800565194 77.83038547646105,40.59836651381957 78.30661539806553,37.821733016019564 76.28927307722954,35.855310253768124 79.07717159768127,35.45020488599384" fill="#FFF3B0"/>
  <polygon points="53.02368651400684,29.533920211773875 54.226003058522416,31.970079619168086 56.9144645825319,32.360735945587884 54.969075548269366,34.257021587790106 55.42831960303799,36.93461988283193 53.02368651400684,35.670429454697114 50.61905342497569,36.93461988283193 51.078297479744315,34.257021587790106 49.13290844548178,32.360735945587884 51.821369969491265,31.970079619168086" fill="#FFF3B0"/>
  <polygon points="60.73401817928243,43.40867958199874 61.44516591867201,44.84962228819687 63.03534060599242,45.08068819565605 61.88467939263742,46.202305671386924 62.15631365806159,47.78605496203616 60.73401817928243,47.03830997821558 59.31172270050327,47.78605496203616 59.583356965927436,46.202305671386924 58.43269575257244,45.080688195656045 60.02287043989285,44.84962228819687" fill="#FFF3B0"/>
  <polygon points="166.50889542810546,16.028217951000443 167.30652680461438,17.64439564595006 169.09008478347502,17.90356179051117 167.79949010579023,19.161580682410598 168.10415818112327,20.937931863432247 166.50889542810546,20.09925260216596 164.91363267508765,20.937931863432247 165.2183007504207,19.161580682410598 163.9277060727359,17.903561790511166 165.71126405159654,17.64439564595006" fill="#FFF3B0"/>
  <polygon points="117.83602093566515,24.480644148013198 119.2888576154195,27.42441279274808 122.53749919155533,27.896468045409886 120.18676006361024,30.187872375534063 120.74169429517386,33.42338721098186 117.83602093566515,31.89578432423241 114.93034757615644,33.42338721098186 115.48528180772006,30.187872375534067 113.13454267977497,27.896468045409886 116.38318425591079,27.42441279274808" fill="#FFF3B0"/>
  <polygon points="131.320845785649,40.346435850223315 131.98614260748073,41.69447445004803 133.4737915263111,41.91064249130232 132.39731865598003,42.9599442053951 132.6514394293125,44.441582001996444 131.320845785649,43.742047525934595 129.9902521419855,44.441582001996444 130.24437291531797,42.9599442053951 129.1679000449869,41.91064249130232 130.65554896381727,41.69447445004803" fill="#FFF3B0"/>
  <polygon points="132.6668227419941,19.599574240575294 134.06955053411633,22.441811189222392 137.20614523122984,22.8975850773362 134.93648398661196,25.109958003794702 135.47227832623855,28.233878706480827 132.6668227419941,26.758963422175157 129.86136715774967,28.233878706480827 130.39716149737626,25.109958003794702 128.12750025275838,22.8975850773362 131.2640949498719,22.441811189222392" fill="#FFF3B0"/>
  <polygon points="119.06312739159148,20.064569002099233 119.69700686011721,21.348949091059247 121.11440444128219,21.554909015420904 120.08876591643684,22.554659489233465 120.33088632864295,23.96632981176934 119.06312739159148,23.2998294958943 117.79536845454001,23.96632981176934 118.03748886674612,22.554659489233465 117.01185034190077,21.554909015420904 118.42924792306574,21.348949091059247" fill="#FFF3B0"/>
  <polygon points="103.25961315622408,48.6216342541984 104.35157981614118,50.83420037353904 106.79329149687922,51.18900184897577 105.02645232655165,52.911244388521474 105.44354647605829,55.343089878940624 103.25961315622408,54.19492818591016 101.07567983638987,55.343089878940624 101.4927739858965,52.911244388521474 99.72593481556893,51.18900184897577 102.16764649630697,50.83420037353904" fill="#FFF3B0"/>
  <path d="M155 25 A22 22 0 1 1 175 50 A18 18 0 1 0 155 25" fill="#FFE566"/>
  <rect x="35" y="75" width="130" height="50" rx="8" fill="#C9B8E8"/>
  <rect x="45" y="65" width="90" height="20" rx="8" fill="white"/>
  <rect x="40" y="90" width="120" height="30" rx="6" fill="#FFB3B3"/>
  <text x="170" y="75" fill="#E2D9F3" font-size="16" font-weight="bold">z</text>
  <text x="178" y="65" fill="#E2D9F3" font-size="13" font-weight="bold">z</text>
</svg>