<svg xmlns="http://www.w3.org/2000/svg" viewBox="0 0 200 150" width="200" height="150">
  <defs>
    <linearGradient id="bg7563" gradientTransform="rotate(180)">
      <stop offset="0%" style="stop-color:#FFD6D6"/>
      <stop offset="100%" style="stop-color:#FFB3B3"/>
    </linearGradient>
  </defs>
  <rect width="200" height="150" fill="url(#bg7563)" rx="16"/>
  <rect x="0" y="0" width="200" height="150" rx="0" fill="#1a1a3e"/>
  <polygon points="148.20254847145407,20.304648759304655 149.4362107302022,22.804321520946083 152.19476340203892,23.205162687312523 150.1986559367465,25.150886581125683 150.66987298895032,27.898292807671723 148.20254847145407,26.601143545129617 145.7352239539578,27.898292807671723 146.20644100616164,25.150886581125683 144.21033354086921,23.205162687312523 146.96888621270594,22.804321520946083" fill="#FFF3B0"/>
  <polygon points="76.70614986112923,18.29157257774932 77.61273444509071,20.12851358375217 79.63991920218193,20.42308077138237 78.17303453165559,21.852939936050756 78.51931902905218,23.871933475979535 76.70614986112923,22.91869403286728 74.89298069320628,23.871933475979535 75.23926519060288,21.852939936050756 73.77238052007654,20.42308077138237 75.79956527716776,20.128513583752174" fill="#FFF3B0"/>
  <polygon points="130.4643967022912,42.9980007608342 131.37585183355884,44.8448105735945 133.41392746551432,45.140960297975916 131.93916208390277,46.57850125740002 132.2873069648265,48.60834166558694 130.4643967022912,47.649981025970874 128.64148643975588,48.60834166558694 128.98963132067962,46.57850125740002 127.51486593906807,45.14096029797591 129.55294157102355,44.8448105735945" fill="#FFF3B0"/>
  <polygon points="58.32226990893332,42.50887081819337 59.30965530081951,44.509532143315795 61.51751615706728,44.83035310491226 59.9198930330003,46.38765076541179 60.297040692705686,48.586590349104256 58.32226990893332,47.54839190877124 56.34749912516096,48.586590349104256 56.724646784866344,46.38765076541179 55.12702366079937,44.83035310491226 57.334884517047136,44.509532143315795" fill="#FFF3B0"/>
  <polygon points="44.73186457087195,33.45912935724709 45.666536625555324,35.35298179505316 47.75652687649676,35.65667515513827 46.244195723684356,37.13083369146437 46.601208680238706,39.212378947960694 44.73186457087195,38.22960659040996 42.86252046150519,39.212378947960694 43.21953341805954,37.13083369146437 41.70720226524714,35.65667515513827 43.797192516188574,35.35298179505316" fill="#FFF3B0"/>
  <polygon points="41.80549726330355,33.778223079320924 43.09122457198696,36.38339115480037 45.96619823473093,36.801149281376134 43.885847749017245,38.82898982500435 44.376951880670376,41.692346621784104 41.80549726330355,40.34045292603196 39.234042645936725,41.692346621784104 39.725146777589856,38.82898982500435 37.64479629187617,36.801149281376134 40.51976995462014,36.38339115480037" fill="#FFF3B0"/>
  <polygon points="173.2947432023866,49.35021911613558 174.12775318517626,51.038081697153274 175.9904201326299,51.30874304772027 174.64258166750824,52.62256084169533 174.96076316796592,54.47770133680439 173.2947432023866,53.60182280748768 171.62872323680728,54.47770133680439 171.94690473726496,52.62256084169533 170.5990662721433,51.30874304772027 172.46173321959694,51.038081697153274" fill="#FFF3B0"/>
  <polygon points="83.26685999081747,45.32748967642601 84.73579674904809,48.30388064330947 88.02043919509994,48.78116712857911 85.64364959295871,51.0979643951909 86.20473350727872,54.369334632341975 83.26685999081747,52.82480312126745 80.32898647435621,54.369334632341975 80.89007038867622,51.0979643951909 78.51328078653499,48.78116712857911 81.79792323258684,48.30388064330947" fill="#FFF3B0"/>
  <polygon points="28.260555342840235,16.756197037375387 29.47894366686397,19.224921426945855 32.203342782373085,19.620799791081367 30.23194906260666,21.542433736827263 30.697331990887704,24.255824410844184 28.260555342840235,22.974735113680254 25.823778694792765,24.255824410844184 26.28916162307381,21.542433736827263 24.317767903307384,19.620799791081364 27.0421670188165,19.224921426945855" fill="#FFF3B0"/>
  <polygon points="148.6062407731879,33.40972970118128 150.04687890823183,36.328781394637105 153.26824370916862,36.79687309985712 150.93724224117824,39.06903796655078 151.48751704327577,42.277386243684475 148.6062407731879,40.762609665888704 145.7249645031,42.277386243684475 146.27523930519754,39.06903796655078 143.94423783720717,36.79687309985712 147.16560263814395,36.328781394637105" fill="#FFF3B0"/>
  <path d="M155 25 A22 22 0 1 1 175 50 A18 18 0 1 0 155 25" fill="#FFE566"/>
  <rect x="35" y="75" width="130" height="50" rx="8" fill="#C9B8E8"/>
  <rect x="45" y="65" width="90" height="20" rx="8" fill="white"/>
  <rect x="40" y="90" width="120" height="30" rx="6" fill="#FFB3B3"/>
  <text x="170" y="75" fill="#E2D9F3" font-size="16" font-weight="bold">z</text>
  <text x="178" y="65" fill="#E2D9F3" font-size="13" font-weight="bold">z</text>
</svg>