<svg xmlns="http://www.w3.org/2000/svg" viewBox="0 0 200 150" width="200" height="150">
  <defs>
    <linearGradient id="bg75653" gradientTransform="rotate(45)">
      <stop offset="0%" style="stop-color:#FFD6D6"/>
      <stop offset="100%" style="stop-color:#FFB3B3"/>
    </linearGradient>
  </defs>
  <rect width="200" height="150" fill="url(#bg75653)" rx="16"/>
  <circle cx="104.80909677862655" cy="40.48157327733861" r="3.716775600823894" fill="#FFD6D6" opacity="0.3"/><circle cx="139.8566684751131" cy="92.04087536763836" r="4.96955832621461" fill="#FFD6D6" opacity="0.3"/><circle cx="149.21662763626955" cy="67.3842627700651" r="2.7758642741268886" fill="#FFD6D6" opacity="0.3"/><circle cx="117.11557341950538" cy="90.91780177104738" r="4.0001177241392725" fill="#FFD6D6" opacity="0.3"/><circle cx="95.40988818916958" cy="26.023573861175464" r="2.758772532345347" fill="#FFD6D6" opacity="0.3"/><circle cx="53.407928223896306" cy="42.357790181767996" r="4.8371100526064765" fill="#FFD6D6" opacity="0.3"/>
  <circle cx="100" cy="75" r="45" fill="#FFD6D6" opacity="1"/>
  <circle cx="100" cy="75" r="40" fill="white" opacity="1"/>
  <line x1="100" y1="42" x2="100" y2="52" stroke="#FF9999" stroke-width="2"/>
  <line x1="116.5" y1="46.421161675113524" x2="114" y2="50.751288694035715" stroke="#FF9999" stroke-width="2"/>
  <line x1="128.57883832488648" y1="58.5" x2="124.24871130596428" y2="61" stroke="#FF9999" stroke-width="2"/>
  <line x1="133" y1="75" x2="123" y2="75" stroke="#FF9999" stroke-width="2"/>
  <line x1="128.57883832488648" y1="91.5" x2="124.24871130596429" y2="89" stroke="#FF9999" stroke-width="2"/>
  <line x1="116.5" y1="103.57883832488648" x2="114" y2="99.24871130596429" stroke="#FF9999" stroke-width="2"/>
  <line x1="100" y1="108" x2="100" y2="98" stroke="#FF9999" stroke-width="2"/>
  <line x1="83.5" y1="103.57883832488648" x2="86" y2="99.24871130596428" stroke="#FF9999" stroke-width="2"/>
  <line x1="71.42116167511352" y1="91.50000000000001" x2="75.75128869403572" y2="89.00000000000001" stroke="#FF9999" stroke-width="2"/>
  <line x1="67" y1="75" x2="77" y2="75" stroke="#FF9999" stroke-width="2"/>
  <line x1="71.42116167511352" y1="58.5" x2="75.75128869403572" y2="61" stroke="#FF9999" stroke-width="2"/>
  <line x1="83.49999999999999" y1="46.42116167511353" x2="85.99999999999999" y2="50.75128869403572" stroke="#FF9999" stroke-width="2"/>
  <line x1="100" y1="75" x2="100" y2="55" stroke="#FF9999" stroke-width="4" stroke-linecap="round"/>
  <line x1="100" y1="75" x2="118" y2="85" stroke="#FFB3B3" stroke-width="3" stroke-linecap="round"/>
  <circle cx="100" cy="75" r="5" fill="#FF9999" opacity="1"/>
  <polygon points="45,33 48.52671151375484,40.14589803375031 56.412678195541844,41.291796067500634 50.70633909777092,46.85410196624969 52.05342302750968,54.70820393249937 45,51 37.94657697249032,54.70820393249937 39.29366090222908,46.85410196624969 33.587321804458156,41.29179606750063 41.47328848624516,40.14589803375031" fill="#FFF3B0"/>
</svg>