<svg xmlns="http://www.w3.org/2000/svg" viewBox="0 0 200 150" width="200" height="150">
  <defs>
    <linearGradient id="bg7579" gradientTransform="rotate(135)">
      <stop offset="0%" style="stop-color:#E0F4FF"/>
      <stop offset="100%" style="stop-color:#BAE6FD"/>
    </linearGradient>
  </defs>
  <rect width="200" height="150" fill="url(#bg7579)" rx="16"/>
  <circle cx="87.08147163833928" cy="134.6626699594708" r="4.345315746655125" fill="#E0F4FF" opacity="0.3"/><circle cx="196.82456016694232" cy="54.362965035625166" r="2.347945564728434" fill="#E0F4FF" opacity="0.3"/><circle cx="197.494668143554" cy="32.009825210798226" r="3.50970222351134" fill="#E0F4FF" opacity="0.3"/><circle cx="98.63248164074321" cy="96.68645546812513" r="3.7345272272796137" fill="#E0F4FF" opacity="0.3"/><circle cx="135.93373196436005" cy="106.4397568372442" r="2.2715360721513207" fill="#E0F4FF" opacity="0.3"/><circle cx="83.98673904994212" cy="36.65355660014029" r="3.5922608854943974" fill="#E0F4FF" opacity="0.3"/>
  <circle cx="60" cy="80" r="28" fill="#BAE6FD" opacity="1"/>
  <circle cx="140" cy="80" r="28" fill="#B7E4C7" opacity="1"/>
  <path d="M88 80 L112 80" stroke="#7DD3FC" stroke-width="10" stroke-linecap="round"/>
  <path d="M92 74 L108 74" stroke="#7DD3FC" stroke-width="5" stroke-linecap="round"/>
  <path d="M92 86 L108 86" stroke="#7DD3FC" stroke-width="5" stroke-linecap="round"/>
  <path d="M100,43 C92,36 96,32 100,37 C104,32 108,36 100,43Z" fill="#FFB3B3"/>
  <polygon points="22.5,44.5 24.851141009169893,49.263932022500214 30.10845213036123,50.02786404500042 26.304226065180615,53.736067977499786 27.202282018339787,58.97213595499958 22.5,56.5 17.797717981660217,58.97213595499958 18.695773934819385,53.73606797749979 14.89154786963877,50.02786404500042 20.148858990830107,49.263932022500214" fill="#FFF3B0"/><polygon points="37.46180360259891,12.512972745900807 40.400729864061276,18.46788777402607 46.97236876555045,19.422802802151335 42.21708618407468,24.058057717775544 43.339656125523646,30.603142689650284 37.46180360259891,27.512972745900807 31.583951079674183,30.603142689650284 32.706521021123145,24.058057717775544 27.951238439647376,19.42280280215133 34.52287734113655,18.46788777402607" fill="#FFF3B0"/><polygon points="-1.4731068665784612,40.44813145534826 2.053604647176377,47.594029489098574 9.93957132896338,48.739927522848895 4.233232231192459,54.30223342159795 5.580316160931216,62.15633538784763 -1.4731068665784615,58.44813145534826 -8.526529894088139,62.15633538784763 -7.179445964349383,54.30223342159795 -12.885785062120304,48.73992752284889 -4.999818380333301,47.594029489098574" fill="#FFF3B0"/><polygon points="45.949999419368474,8.61662011821095 50.064496185415784,16.953501157586317 59.264790647500625,18.290382196961687 52.60739503343455,24.779739078835583 54.1789929514631,33.94285803946021 45.949999419368474,29.61662011821095 37.721005887273854,33.94285803946021 39.2926038053024,24.779739078835583 32.63520819123632,18.29038219696168 41.835502653321164,16.953501157586317" fill="#FFF3B0"/>
  <polygon points="100,108 103.52671151375483,115.14589803375031 111.41267819554184,116.29179606750063 105.70633909777092,121.85410196624969 107.05342302750968,129.70820393249937 100,126 92.94657697249032,129.70820393249937 94.29366090222908,121.85410196624969 88.58732180445816,116.29179606750063 96.47328848624517,115.14589803375031" fill="#FFE566"/>
</svg>