<svg xmlns="http://www.w3.org/2000/svg" viewBox="0 0 200 150" width="200" height="150">
  <defs>
    <linearGradient id="bg7582" gradientTransform="rotate(90)">
      <stop offset="0%" style="stop-color:#F0F7FF"/>
      <stop offset="100%" style="stop-color:#DCE8F5"/>
    </linearGradient>
  </defs>
  <rect width="200" height="150" fill="url(#bg7582)" rx="16"/>
  <rect x="0" y="100" width="200" height="50" rx="0" fill="#C5DBC5"/>
  <circle cx="165" cy="35" r="22" fill="#FFE566" opacity="1"/>
  <line x1="191" y1="35" x2="200" y2="35" stroke="#FFF3B0" stroke-width="3" stroke-linecap="round"/>
  <line x1="183.38477631085024" y1="53.384776310850235" x2="189.74873734152916" y2="59.748737341529164" stroke="#FFF3B0" stroke-width="3" stroke-linecap="round"/>
  <line x1="165" y1="61" x2="165" y2="70" stroke="#FFF3B0" stroke-width="3" stroke-linecap="round"/>
  <line x1="146.61522368914976" y1="53.38477631085024" x2="140.25126265847084" y2="59.748737341529164" stroke="#FFF3B0" stroke-width="3" stroke-linecap="round"/>
  <line x1="139" y1="35" x2="130" y2="35.00000000000001" stroke="#FFF3B0" stroke-width="3" stroke-linecap="round"/>
  <line x1="146.61522368914976" y1="16.615223689149765" x2="140.25126265847084" y2="10.25126265847084" stroke="#FFF3B0" stroke-width="3" stroke-linecap="round"/>
  <line x1="165" y1="9" x2="165" y2="0" stroke="#FFF3B0" stroke-width="3" stroke-linecap="round"/>
  <line x1="183.38477631085024" y1="16.61522368914976" x2="189.74873734152916" y2="10.251262658470832" stroke="#FFF3B0" stroke-width="3" stroke-linecap="round"/>
  <rect x="90" y="55" width="14" height="50" rx="2" fill="#8B6914"/>
  <path d="M78.4033845514059,32.85264087350515 Q88.4033845514059,44.85264087350515 78.4033845514059,56.85264087350515 Q68.4033845514059,44.85264087350515 78.4033845514059,32.85264087350515Z" fill="#B7E4C7"/>
  <path d="M90.45003733017074,29.499398881016987 Q100.45003733017074,41.49939888101699 90.45003733017074,53.49939888101699 Q80.45003733017074,41.49939888101699 90.45003733017074,29.499398881016987Z" fill="#95D5B2"/>
  <path d="M101.44007356985821,34.68047621527876 Q111.44007356985821,46.68047621527876 101.44007356985821,58.68047621527876 Q91.44007356985821,46.68047621527876 101.44007356985821,34.68047621527876Z" fill="#B7E4C7"/>
  <path d="M118.62338277393428,41.98064565902132 Q128.62338277393428,53.98064565902132 118.62338277393428,65.98064565902132 Q108.62338277393428,53.98064565902132 118.62338277393428,41.98064565902132Z" fill="#95D5B2"/>
  <path d="M123.1821473659511,30.767100382698118 Q133.1821473659511,42.76710038269812 123.1821473659511,54.76710038269812 Q113.1821473659511,42.76710038269812 123.1821473659511,30.767100382698118Z" fill="#B7E4C7"/>
  <circle cx="45" cy="95" r="8" fill="#FFB3B3" opacity="1"/>
  <circle cx="155" cy="98" r="6" fill="#C9B8E8" opacity="1"/>
</svg>