<svg xmlns="http://www.w3.org/2000/svg" viewBox="0 0 200 150" width="200" height="150">
  <defs>
    <linearGradient id="bg7600" gradientTransform="rotate(135)">
      <stop offset="0%" style="stop-color:#FFE4EC"/>
      <stop offset="100%" style="stop-color:#FFC8DD"/>
    </linearGradient>
  </defs>
  <rect width="200" height="150" fill="url(#bg7600)" rx="16"/>
  <rect x="0" y="0" width="200" height="150" rx="0" fill="#1a1a3e"/>
  <polygon points="68.95976219531804,49.17258194468786 69.83137848813247,50.938669453891606 71.78037176916192,51.221874754984526 70.37006698223998,52.596582163872 70.70299478094691,54.537700174945314 68.95976219531804,53.62122856902033 67.21652960968916,54.537700174945314 67.5494574083961,52.596582163872 66.13915262147415,51.221874754984526 68.0881459025036,50.938669453891606" fill="#FFF3B0"/>
  <polygon points="149.27816196306594,45.282115839210746 150.72312381354652,48.20992833703535 153.95415673611495,48.679424902561635 151.61615934959045,50.95840910443026 152.16808566402707,54.176386437351454 149.27816196306594,52.657063636105704 146.3882382621048,54.176386437351454 146.94016457654143,50.95840910443026 144.60216719001693,48.679424902561635 147.83320011258536,48.20992833703535" fill="#FFF3B0"/>
  <polygon points="80.11809738525699,12.938609298745178 80.83579861613805,14.392830829077502 82.44062735592338,14.626026095001361 81.27936237059019,15.757979693842481 81.55349984701913,17.35632382453132 80.11809738525699,16.601688091970573 78.68269492349485,17.35632382453132 78.95683239992378,15.757979693842481 77.7955674145906,14.62602609500136 79.40039615437593,14.392830829077502" fill="#FFF3B0"/>
  <polygon points="134.7315053363718,38.46484226087887 135.60985895625595,40.24458108578345 137.57391735859989,40.52997547714128 136.15271134748585,41.915308953387935 136.48821257614009,43.871431212350245 134.7315053363718,42.94787556151914 132.97479809660354,43.871431212350245 133.31029932525777,41.915308953387935 131.88909331414374,40.52997547714128 133.85315171648767,40.24458108578345" fill="#FFF3B0"/>
  <polygon points="20.238208414020846,40.69876116323991 21.123086062558702,42.49171911404888 23.101732636459516,42.779233290815085 21.66997052524018,44.1748564215806 22.00796371109656,46.14550790587853 20.238208414020846,45.21509248536819 18.468453116945135,46.14550790587853 18.80644630280151,44.1748564215806 17.374684191582176,42.779233290815085 19.35333076548299,42.49171911404888" fill="#FFF3B0"/>
  <polygon points="103.46031409653733,37.16125368050814 104.76714380123796,39.80917988055172 107.68930385596457,40.23379459123119 105.57480897625095,42.294917693238936 106.0739735059386,45.205270216605626 103.46031409653733,43.83118814860046 100.84665468713607,45.205270216605626 101.34581921682371,42.294917693238936 99.2313243371101,40.23379459123118 102.1534843918367,39.80917988055172" fill="#FFF3B0"/>
  <polygon points="141.17194293975444,20.770851760210462 142.04582802133402,22.541536337564697 143.99989446826893,22.825478812814005 142.5859187040117,24.20376454022347 142.91971310291362,26.149935218131553 141.17194293975444,25.231078066525242 139.42417277659527,26.149935218131553 139.75796717549719,24.20376454022347 138.34399141123995,22.825478812814005 140.29805785817487,22.541536337564697" fill="#FFF3B0"/>
  <polygon points="51.35711649329096,37.706325879416255 52.22146071306058,39.457678559227354 54.154193144424475,39.73852102055557 52.75565481885772,41.10175896429526 53.08580493283021,43.02668183069137 51.35711649329096,42.11785653486491 49.62842805375171,43.02668183069137 49.9585781677242,41.10175896429526 48.560039842157444,39.73852102055557 50.49277227352134,39.457678559227354" fill="#FFF3B0"/>
  <polygon points="145.14473848214038,12.316916253118507 146.57590710365204,15.216780616432066 149.77609742861677,15.6817954901917 147.46041795537857,17.939025103243686 148.0070757251637,21.126284463814944 145.14473848214038,19.621464721780285 142.28240123911706,21.126284463814944 142.8290590089022,17.939025103243686 140.513379535664,15.6817954901917 143.71356986062872,15.216780616432066" fill="#FFF3B0"/>
  <polygon points="36.082857974488434,34.71747289574614 37.11577647095136,36.81039436780615 39.42545244425934,37.146009931910235 37.754155209373884,38.77512210153187 38.148694967414286,41.07546539936167 36.082857974488434,39.989390619613914 34.01702098156258,41.07546539936167 34.41156073960298,38.77512210153187 32.740263504717525,37.146009931910235 35.04993947802551,36.81039436780615" fill="#FFF3B0"/>
  <path d="M155 25 A22 22 0 1 1 175 50 A18 18 0 1 0 155 25" fill="#FFE566"/>
  <rect x="35" y="75" width="130" height="50" rx="8" fill="#C9B8E8"/>
  <rect x="45" y="65" width="90" height="20" rx="8" fill="white"/>
  <rect x="40" y="90" width="120" height="30" rx="6" fill="#FFC8DD"/>
  <text x="170" y="75" fill="#E2D9F3" font-size="16" font-weight="bold">z</text>
  <text x="178" y="65" fill="#E2D9F3" font-size="13" font-weight="bold">z</text>
</svg>