<svg xmlns="http://www.w3.org/2000/svg" viewBox="0 0 200 150" width="200" height="150">
  <defs>
    <linearGradient id="bg7635" gradientTransform="rotate(90)">
      <stop offset="0%" style="stop-color:#D4E9FF"/>
      <stop offset="100%" style="stop-color:#A8D0F0"/>
    </linearGradient>
  </defs>
  <rect width="200" height="150" fill="url(#bg7635)" rx="16"/>
  <circle cx="5.102581783285132" cy="136.14525394716566" r="2.5643748121128738" fill="#D4E9FF" opacity="0.3"/><circle cx="88.80494940240169" cy="69.68477187265307" r="4.426613444871691" fill="#D4E9FF" opacity="0.3"/><circle cx="83.55335818023377" cy="31.09687031426347" r="2.798811682817359" fill="#D4E9FF" opacity="0.3"/><circle cx="32.3233316274127" cy="130.1984039416311" r="3.6841286217754714" fill="#D4E9FF" opacity="0.3"/><circle cx="139.6723701745941" cy="74.33238607311523" r="4.788162505006312" fill="#D4E9FF" opacity="0.3"/><circle cx="179.37800101772154" cy="56.68556481741689" r="4.060529093832429" fill="#D4E9FF" opacity="0.3"/>
  <ellipse cx="100" cy="95" rx="32" ry="28" fill="#A8D0F0" opacity="1"/>
  <circle cx="100" cy="58" r="28" fill="#A8D0F0" opacity="1"/>
  <ellipse cx="82" cy="25" rx="10" ry="24" fill="#A8D0F0" opacity="1"/>
  <ellipse cx="118" cy="25" rx="10" ry="24" fill="#A8D0F0" opacity="1"/>
  <ellipse cx="82" cy="27" rx="5" ry="15" fill="#FFD6D6" opacity="1"/>
  <ellipse cx="118" cy="27" rx="5" ry="15" fill="#FFD6D6" opacity="1"/>
  <circle cx="88" cy="52" r="5" fill="#333" opacity="1"/>
  <circle cx="112" cy="52" r="5" fill="#333" opacity="1"/>
  <circle cx="86" cy="50" r="2" fill="white" opacity="1"/>
  <circle cx="110" cy="50" r="2" fill="white" opacity="1"/>
  <ellipse cx="100" cy="68" rx="6" ry="4" fill="#FFB3B3" opacity="1"/>
  <path d="M50,46.8 C45.2,42.6 47.6,40.2 50,43.2 C52.4,40.2 54.8,42.6 50,46.8Z" fill="#FFB3B3"/>
  <path d="M155,51.5 C151,48 153,46 155,48.5 C157,46 159,48 155,51.5Z" fill="#FFD6D6"/>
</svg>