<svg xmlns="http://www.w3.org/2000/svg" viewBox="0 0 200 150" width="200" height="150">
  <defs>
    <linearGradient id="bg76556" gradientTransform="rotate(0)">
      <stop offset="0%" style="stop-color:#F0F7FF"/>
      <stop offset="100%" style="stop-color:#DCE8F5"/>
    </linearGradient>
  </defs>
  <rect width="200" height="150" fill="url(#bg76556)" rx="16"/>
  <circle cx="151.01285631390056" cy="54.16688095911013" r="2.4005095023549075" fill="#F0F7FF" opacity="0.3"/><circle cx="183.08105900396185" cy="148.7868547602602" r="3.511498103719532" fill="#F0F7FF" opacity="0.3"/><circle cx="51.10432533365383" cy="87.6456759751818" r="4.5079552528695785" fill="#F0F7FF" opacity="0.3"/><circle cx="53.092987669333525" cy="121.57777445354441" r="4.046212770559578" fill="#F0F7FF" opacity="0.3"/><circle cx="197.33233379647572" cy="34.79682509359918" r="2.264201853520717" fill="#F0F7FF" opacity="0.3"/><circle cx="179.83035464239947" cy="146.7914013234349" r="2.734881071453856" fill="#F0F7FF" opacity="0.3"/>
  <circle cx="100" cy="75" r="48" fill="#FFE5D9" opacity="1"/>
  <circle cx="80" cy="68" r="8" fill="#333" opacity="1"/>
  <circle cx="120" cy="68" r="8" fill="#333" opacity="1"/>
  <circle cx="78" cy="65" r="3" fill="white" opacity="1"/>
  <circle cx="118" cy="65" r="3" fill="white" opacity="1"/>
  <path d="M72 92 Q100 115 128 92" stroke="#333" stroke-width="4" fill="none" stroke-linecap="round"/>
  <ellipse cx="60" cy="82" rx="12" ry="7" fill="#FFB3B3" opacity="0.4"/>
  <ellipse cx="140" cy="82" rx="12" ry="7" fill="#FFB3B3" opacity="0.4"/>
  <path d="M45,42.25 C39,37 42,34 45,37.75 C48,34 51,37 45,42.25Z" fill="#FFB3B3"/>
  <path d="M160,46.8 C155.2,42.6 157.6,40.2 160,43.2 C162.4,40.2 164.8,42.6 160,46.8Z" fill="#FFD6D6"/>
</svg>