<svg xmlns="http://www.w3.org/2000/svg" viewBox="0 0 200 150" width="200" height="150">
  <defs>
    <linearGradient id="bg76688" gradientTransform="rotate(135)">
      <stop offset="0%" style="stop-color:#FFE5D9"/>
      <stop offset="100%" style="stop-color:#FFCDB2"/>
    </linearGradient>
  </defs>
  <rect width="200" height="150" fill="url(#bg76688)" rx="16"/>
  <circle cx="42.5327178400039" cy="121.58189189567565" r="4.923650875646672" fill="#FFE5D9" opacity="0.3"/><circle cx="156.00857597256663" cy="121.62795022686623" r="2.298453330846314" fill="#FFE5D9" opacity="0.3"/><circle cx="133.43487034362624" cy="27.334667258855916" r="4.040912834592746" fill="#FFE5D9" opacity="0.3"/><circle cx="170.7397344904166" cy="115.26412313414767" r="3.7286275459446188" fill="#FFE5D9" opacity="0.3"/><circle cx="50.20346918172436" cy="82.6713239836863" r="4.824722884291987" fill="#FFE5D9" opacity="0.3"/><circle cx="128.131114297139" cy="104.66772628706167" r="2.8711793061775097" fill="#FFE5D9" opacity="0.3"/>
  <circle cx="100" cy="75" r="48" fill="#FFE5D9" opacity="1"/>
  <circle cx="80" cy="68" r="8" fill="#333" opacity="1"/>
  <circle cx="120" cy="68" r="8" fill="#333" opacity="1"/>
  <circle cx="78" cy="65" r="3" fill="white" opacity="1"/>
  <circle cx="118" cy="65" r="3" fill="white" opacity="1"/>
  <path d="M72 92 Q100 115 128 92" stroke="#333" stroke-width="4" fill="none" stroke-linecap="round"/>
  <ellipse cx="60" cy="82" rx="12" ry="7" fill="#FFB3B3" opacity="0.4"/>
  <ellipse cx="140" cy="82" rx="12" ry="7" fill="#FFB3B3" opacity="0.4"/>
  <path d="M45,42.25 C39,37 42,34 45,37.75 C48,34 51,37 45,42.25Z" fill="#FFB3B3"/>
  <path d="M160,46.8 C155.2,42.6 157.6,40.2 160,43.2 C162.4,40.2 164.8,42.6 160,46.8Z" fill="#FFD6D6"/>
</svg>