<svg xmlns="http://www.w3.org/2000/svg" viewBox="0 0 200 150" width="200" height="150">
  <defs>
    <linearGradient id="bg7687" gradientTransform="rotate(0)">
      <stop offset="0%" style="stop-color:#E8F0E8"/>
      <stop offset="100%" style="stop-color:#C5DBC5"/>
    </linearGradient>
  </defs>
  <rect width="200" height="150" fill="url(#bg7687)" rx="16"/>
  <rect x="0" y="0" width="200" height="150" rx="0" fill="#1a1a3e"/>
  <polygon points="91.89323130238336,43.55742363410354 93.2696903477584,46.34643428822735 96.34754634146145,46.793672943127646 94.1203888219224,48.96461497726202 94.64614939313344,52.030034321197 91.89323130238336,50.582739631774075 89.14031321163327,52.030034321197 89.66607378284431,48.96461497726202 87.43891626330526,46.79367294312764 90.51677225700831,46.34643428822735" fill="#FFF3B0"/>
  <polygon points="55.62870797192318,34.659329710795646 56.863671200251495,37.161638524727955 59.62513292850622,37.56290240173521 57.6269204502147,39.51067817610106 58.09863442857982,42.2609817044814 55.62870797192318,40.96246452157084 53.15878151526653,42.2609817044814 53.630495493631656,39.51067817610106 51.632283015340136,37.5629024017352 54.39374474359485,37.161638524727955" fill="#FFF3B0"/>
  <polygon points="26.00528476981708,24.10101958504174 26.673739571612195,25.455456951174074 28.168449948312226,25.67265108231877 27.08686735906465,26.726933541366133 27.342194373407313,28.215604262702893 26.00528476981708,27.51274929000465 24.66837516622685,28.215604262702893 24.92370218056951,26.726933541366133 23.842119591321936,25.67265108231877 25.336829968021966,25.455456951174074" fill="#FFF3B0"/>
  <polygon points="64.48766475472439,45.326230014061366 65.28264627026765,46.93703850424607 67.06027897987819,47.19534365678716 65.7739718673013,48.4491832056293 66.07762778581092,50.21963305955363 64.48766475472439,49.3837400269922 62.897701723637866,50.21963305955363 63.20135764214749,48.4491832056293 61.91505052957059,47.19534365678716 63.69268323918113,46.93703850424607" fill="#FFF3B0"/>
  <polygon points="83.55983017610924,29.935498153893604 84.75307296039115,32.35327211491388 87.42124493970661,32.74098019791486 85.49053755790793,34.62295476594083 85.94631574467306,37.28034549996878 83.55983017610924,36.02569578795146 81.17334460754543,37.28034549996878 81.62912279431056,34.62295476594083 79.69841541251188,32.74098019791486 82.36658739182734,32.35327211491388" fill="#FFF3B0"/>
  <polygon points="104.1129308091513,38.21111621957209 105.08163232591563,40.173919878714386 107.24771476730785,40.48867008128181 105.68032278822957,42.016499658441845 106.05033384267998,44.17382964073673 104.1129308091513,43.155276589296705 102.17552777562261,44.17382964073673 102.54553883007301,42.016499658441845 100.97814685099473,40.48867008128181 103.14422929238695,40.173919878714386" fill="#FFF3B0"/>
  <polygon points="46.7318281072221,17.912921090653526 47.69764253394997,19.86987486643155 49.857269245763476,20.18368699658133 48.29454867649279,21.706963074574368 48.66345696067784,23.857863412866962 46.7318281072221,22.84234602753827 44.800199253766365,23.857863412866962 45.16910753795141,21.706963074574368 43.606386968680724,20.18368699658133 45.76601368049423,19.86987486643155" fill="#FFF3B0"/>
  <polygon points="154.31921660843727,32.057479189246806 155.76604403670652,34.989071760547745 159.00124851802772,35.45917448904242 156.6602325632325,37.74110106776777 157.21287146497573,40.96323310348249 154.31921660843727,39.44194871766558 151.4255617518988,40.96323310348249 151.97820065364203,37.74110106776777 149.63718469884682,35.45917448904242 152.87238918016803,34.989071760547745" fill="#FFF3B0"/>
  <polygon points="72.18264486725275,51.41399579042587 73.12174356968127,53.31681759623802 75.2216321058933,53.62194926136381 73.70213848657302,55.10308947701596 74.0608422721098,57.1944930229197 72.18264486725275,56.20706621248493 70.3044474623957,57.1944930229197 70.66315124793248,55.10308947701596 69.14365762861219,53.62194926136381 71.24354616482422,53.31681759623802" fill="#FFF3B0"/>
  <polygon points="94.5163520533606,50.10252135430392 95.1208274467561,51.32732227954783 96.47247551711433,51.52372824075016 95.49441378523747,52.47710280320554 95.72530284015158,53.82328928806558 94.5163520533606,53.18770624642866 93.30740126656963,53.82328928806558 93.53829032148374,52.47710280320554 92.56022858960688,51.52372824075015 93.91187665996512,51.32732227954783" fill="#FFF3B0"/>
  <path d="M155 25 A22 22 0 1 1 175 50 A18 18 0 1 0 155 25" fill="#FFE566"/>
  <rect x="35" y="75" width="130" height="50" rx="8" fill="#C9B8E8"/>
  <rect x="45" y="65" width="90" height="20" rx="8" fill="white"/>
  <rect x="40" y="90" width="120" height="30" rx="6" fill="#C5DBC5"/>
  <text x="170" y="75" fill="#E2D9F3" font-size="16" font-weight="bold">z</text>
  <text x="178" y="65" fill="#E2D9F3" font-size="13" font-weight="bold">z</text>
</svg>