<svg xmlns="http://www.w3.org/2000/svg" viewBox="0 0 200 150" width="200" height="150">
  <defs>
    <linearGradient id="bg7688" gradientTransform="rotate(90)">
      <stop offset="0%" style="stop-color:#FFE4EC"/>
      <stop offset="100%" style="stop-color:#FFC8DD"/>
    </linearGradient>
  </defs>
  <rect width="200" height="150" fill="url(#bg7688)" rx="16"/>
  <circle cx="50.26405769040139" cy="144.29290860944093" r="2.4526695634558564" fill="#FFE4EC" opacity="0.3"/><circle cx="110.63287827746535" cy="114.96965728265423" r="3.827778715585737" fill="#FFE4EC" opacity="0.3"/><circle cx="118.50094659948809" cy="73.23955402675892" r="4.245485379114143" fill="#FFE4EC" opacity="0.3"/><circle cx="161.27561067114584" cy="10.685732884746812" r="4.473035066853299" fill="#FFE4EC" opacity="0.3"/><circle cx="1.521885397778533" cy="121.79522445158" r="2.6493181100559013" fill="#FFE4EC" opacity="0.3"/><circle cx="193.13413578438485" cy="136.6730508657838" r="3.2055584287845704" fill="#FFE4EC" opacity="0.3"/>
  <circle cx="100" cy="75" r="45" fill="#FFE4EC" opacity="1"/>
  <circle cx="100" cy="75" r="40" fill="white" opacity="1"/>
  <line x1="100" y1="42" x2="100" y2="52" stroke="#FFAFCC" stroke-width="2"/>
  <line x1="116.5" y1="46.421161675113524" x2="114" y2="50.751288694035715" stroke="#FFAFCC" stroke-width="2"/>
  <line x1="128.57883832488648" y1="58.5" x2="124.24871130596428" y2="61" stroke="#FFAFCC" stroke-width="2"/>
  <line x1="133" y1="75" x2="123" y2="75" stroke="#FFAFCC" stroke-width="2"/>
  <line x1="128.57883832488648" y1="91.5" x2="124.24871130596429" y2="89" stroke="#FFAFCC" stroke-width="2"/>
  <line x1="116.5" y1="103.57883832488648" x2="114" y2="99.24871130596429" stroke="#FFAFCC" stroke-width="2"/>
  <line x1="100" y1="108" x2="100" y2="98" stroke="#FFAFCC" stroke-width="2"/>
  <line x1="83.5" y1="103.57883832488648" x2="86" y2="99.24871130596428" stroke="#FFAFCC" stroke-width="2"/>
  <line x1="71.42116167511352" y1="91.50000000000001" x2="75.75128869403572" y2="89.00000000000001" stroke="#FFAFCC" stroke-width="2"/>
  <line x1="67" y1="75" x2="77" y2="75" stroke="#FFAFCC" stroke-width="2"/>
  <line x1="71.42116167511352" y1="58.5" x2="75.75128869403572" y2="61" stroke="#FFAFCC" stroke-width="2"/>
  <line x1="83.49999999999999" y1="46.42116167511353" x2="85.99999999999999" y2="50.75128869403572" stroke="#FFAFCC" stroke-width="2"/>
  <line x1="100" y1="75" x2="100" y2="55" stroke="#FFAFCC" stroke-width="4" stroke-linecap="round"/>
  <line x1="100" y1="75" x2="118" y2="85" stroke="#FFB3B3" stroke-width="3" stroke-linecap="round"/>
  <circle cx="100" cy="75" r="5" fill="#FFAFCC" opacity="1"/>
  <polygon points="45,33 48.52671151375484,40.14589803375031 56.412678195541844,41.291796067500634 50.70633909777092,46.85410196624969 52.05342302750968,54.70820393249937 45,51 37.94657697249032,54.70820393249937 39.29366090222908,46.85410196624969 33.587321804458156,41.29179606750063 41.47328848624516,40.14589803375031" fill="#FFF3B0"/>
</svg>