<svg xmlns="http://www.w3.org/2000/svg" viewBox="0 0 200 150" width="200" height="150">
  <defs>
    <linearGradient id="bg76902" gradientTransform="rotate(90)">
      <stop offset="0%" style="stop-color:#D0F0F0"/>
      <stop offset="100%" style="stop-color:#A0E0E0"/>
    </linearGradient>
  </defs>
  <rect width="200" height="150" fill="url(#bg76902)" rx="16"/>
  <circle cx="87.11997827610958" cy="121.0242527176888" r="4.624728438730017" fill="#D0F0F0" opacity="0.3"/><circle cx="58.654729053159826" cy="95.24264367673823" r="2.9725259752003694" fill="#D0F0F0" opacity="0.3"/><circle cx="195.4123017798338" cy="76.20656312333267" r="3.244692032997591" fill="#D0F0F0" opacity="0.3"/><circle cx="164.02531788080523" cy="43.36685603350361" r="3.9622719059880183" fill="#D0F0F0" opacity="0.3"/><circle cx="120.89760042108537" cy="103.19151562725892" r="4.355074877395964" fill="#D0F0F0" opacity="0.3"/><circle cx="98.77629047223309" cy="1.962084615843196" r="3.0046922831097618" fill="#D0F0F0" opacity="0.3"/>
  <circle cx="100" cy="75" r="48" fill="#FFE5D9" opacity="1"/>
  <circle cx="80" cy="68" r="8" fill="#333" opacity="1"/>
  <circle cx="120" cy="68" r="8" fill="#333" opacity="1"/>
  <circle cx="78" cy="65" r="3" fill="white" opacity="1"/>
  <circle cx="118" cy="65" r="3" fill="white" opacity="1"/>
  <path d="M72 92 Q100 115 128 92" stroke="#333" stroke-width="4" fill="none" stroke-linecap="round"/>
  <ellipse cx="60" cy="82" rx="12" ry="7" fill="#FFB3B3" opacity="0.4"/>
  <ellipse cx="140" cy="82" rx="12" ry="7" fill="#FFB3B3" opacity="0.4"/>
  <path d="M45,42.25 C39,37 42,34 45,37.75 C48,34 51,37 45,42.25Z" fill="#FFB3B3"/>
  <path d="M160,46.8 C155.2,42.6 157.6,40.2 160,43.2 C162.4,40.2 164.8,42.6 160,46.8Z" fill="#FFD6D6"/>
</svg>