<svg xmlns="http://www.w3.org/2000/svg" viewBox="0 0 200 150" width="200" height="150">
  <defs>
    <linearGradient id="bg7705" gradientTransform="rotate(0)">
      <stop offset="0%" style="stop-color:#D4E9FF"/>
      <stop offset="100%" style="stop-color:#A8D0F0"/>
    </linearGradient>
  </defs>
  <rect width="200" height="150" fill="url(#bg7705)" rx="16"/>
  <rect x="35.30051305948291" y="42.825612512942826" width="6" height="3" rx="1" fill="#FFF3B0"/>
  <rect x="105.53244088077918" y="30.974453905027985" width="6" height="3" rx="1" fill="#FFD6D6"/>
  <rect x="58.25906068144832" y="24.477970505060966" width="6" height="3" rx="1" fill="#D8F3DC"/>
  <circle cx="138.06286403894774" cy="21.985815575495735" r="3" fill="#FFF3B0" opacity="1"/>
  <rect x="90.04274847044144" y="45.17435373972603" width="6" height="3" rx="1" fill="#FFD6D6"/>
  <rect x="71.89106998645002" y="18.14830761491521" width="6" height="3" rx="1" fill="#D8F3DC"/>
  <circle cx="124.27757353441848" cy="36.904183810220275" r="3" fill="#FFF3B0" opacity="1"/>
  <rect x="114.05363359459443" y="19.403372194715303" width="6" height="3" rx="1" fill="#FFD6D6"/>
  <rect x="55" y="55" width="90" height="60" rx="15" fill="#A8D0F0"/>
  <ellipse cx="100" cy="75" rx="28" ry="20" fill="#D4E9FF" opacity="1"/>
  <rect x="60" y="50" width="80" height="18" rx="10" fill="#7BB8E0"/>
  <polygon points="40,25 44.40838939219355,33.93237254218789 54.265847744427305,35.36474508437579 47.13292387221365,42.31762745781211 48.8167787843871,52.135254915624216 40,47.5 31.183221215612903,52.135254915624216 32.86707612778635,42.31762745781211 25.734152255572695,35.364745084375784 35.59161060780645,33.93237254218789" fill="#FFE566"/>
  <polygon points="165,32 168.82060413990106,39.74138953656284 177.363734711837,40.982779073125684 171.18186735591848,47.00861046343716 172.64120827980216,55.517220926874316 165,51.5 157.35879172019784,55.517220926874316 158.81813264408152,47.00861046343716 152.636265288163,40.98277907312568 161.17939586009894,39.74138953656284" fill="#FFF3B0"/>
  <polygon points="100,13 103.52671151375483,20.145898033750314 111.41267819554184,21.29179606750063 105.70633909777092,26.854101966249683 107.05342302750968,34.70820393249937 100,31 92.94657697249032,34.70820393249937 94.29366090222908,26.854101966249686 88.58732180445816,21.291796067500627 96.47328848624517,20.145898033750317" fill="#FFB3B3"/>
</svg>