<svg xmlns="http://www.w3.org/2000/svg" viewBox="0 0 200 150" width="200" height="150">
  <defs>
    <linearGradient id="bg7709" gradientTransform="rotate(0)">
      <stop offset="0%" style="stop-color:#FFE4EC"/>
      <stop offset="100%" style="stop-color:#FFC8DD"/>
    </linearGradient>
  </defs>
  <rect width="200" height="150" fill="url(#bg7709)" rx="16"/>
  <circle cx="73.21518087956065" cy="77.91919676537873" r="3.463918793258017" fill="#FFE4EC" opacity="0.3"/><circle cx="15.567867597928853" cy="100.12896043608634" r="4.518519789286074" fill="#FFE4EC" opacity="0.3"/><circle cx="185.77532773497296" cy="65.55365346018789" r="2.321499082975606" fill="#FFE4EC" opacity="0.3"/><circle cx="179.96015859334875" cy="134.17472494112417" r="3.1940536222737137" fill="#FFE4EC" opacity="0.3"/><circle cx="6.985515384985774" cy="126.6989953996017" r="3.9514203689665237" fill="#FFE4EC" opacity="0.3"/><circle cx="9.816029442663421" cy="141.58668516092803" r="2.3510246875212033" fill="#FFE4EC" opacity="0.3"/>
  <circle cx="100" cy="75" r="48" fill="#FFE5D9" opacity="1"/>
  <circle cx="80" cy="68" r="8" fill="#333" opacity="1"/>
  <circle cx="120" cy="68" r="8" fill="#333" opacity="1"/>
  <circle cx="78" cy="65" r="3" fill="white" opacity="1"/>
  <circle cx="118" cy="65" r="3" fill="white" opacity="1"/>
  <path d="M72 92 Q100 115 128 92" stroke="#333" stroke-width="4" fill="none" stroke-linecap="round"/>
  <ellipse cx="60" cy="82" rx="12" ry="7" fill="#FFB3B3" opacity="0.4"/>
  <ellipse cx="140" cy="82" rx="12" ry="7" fill="#FFB3B3" opacity="0.4"/>
  <path d="M45,42.25 C39,37 42,34 45,37.75 C48,34 51,37 45,42.25Z" fill="#FFB3B3"/>
  <path d="M160,46.8 C155.2,42.6 157.6,40.2 160,43.2 C162.4,40.2 164.8,42.6 160,46.8Z" fill="#FFD6D6"/>
</svg>