<svg xmlns="http://www.w3.org/2000/svg" viewBox="0 0 200 150" width="200" height="150">
  <defs>
    <linearGradient id="bg7712" gradientTransform="rotate(180)">
      <stop offset="0%" style="stop-color:#E0F4FF"/>
      <stop offset="100%" style="stop-color:#BAE6FD"/>
    </linearGradient>
  </defs>
  <rect width="200" height="150" fill="url(#bg7712)" rx="16"/>
  <circle cx="125.62112582672853" cy="33.20391499005382" r="2.3641010251831176" fill="#E0F4FF" opacity="0.3"/><circle cx="114.72700318881834" cy="83.46823140932429" r="4.489000880591902" fill="#E0F4FF" opacity="0.3"/><circle cx="106.20873927218781" cy="103.9534977776384" r="3.2045984970864083" fill="#E0F4FF" opacity="0.3"/><circle cx="89.04578257570392" cy="2.6593554462124303" r="4.380246121573691" fill="#E0F4FF" opacity="0.3"/><circle cx="134.94927670408288" cy="148.2193803975406" r="3.7011153455131307" fill="#E0F4FF" opacity="0.3"/><circle cx="19.07900438272918" cy="145.70204849887887" r="4.468830059634456" fill="#E0F4FF" opacity="0.3"/>
  <circle cx="100" cy="75" r="48" fill="#FFE5D9" opacity="1"/>
  <circle cx="80" cy="68" r="8" fill="#333" opacity="1"/>
  <circle cx="120" cy="68" r="8" fill="#333" opacity="1"/>
  <circle cx="78" cy="65" r="3" fill="white" opacity="1"/>
  <circle cx="118" cy="65" r="3" fill="white" opacity="1"/>
  <path d="M72 92 Q100 115 128 92" stroke="#333" stroke-width="4" fill="none" stroke-linecap="round"/>
  <ellipse cx="60" cy="82" rx="12" ry="7" fill="#FFB3B3" opacity="0.4"/>
  <ellipse cx="140" cy="82" rx="12" ry="7" fill="#FFB3B3" opacity="0.4"/>
  <path d="M45,42.25 C39,37 42,34 45,37.75 C48,34 51,37 45,42.25Z" fill="#FFB3B3"/>
  <path d="M160,46.8 C155.2,42.6 157.6,40.2 160,43.2 C162.4,40.2 164.8,42.6 160,46.8Z" fill="#FFD6D6"/>
</svg>