<svg xmlns="http://www.w3.org/2000/svg" viewBox="0 0 200 150" width="200" height="150">
  <defs>
    <linearGradient id="bg7713" gradientTransform="rotate(0)">
      <stop offset="0%" style="stop-color:#FFE5D9"/>
      <stop offset="100%" style="stop-color:#FFCDB2"/>
    </linearGradient>
  </defs>
  <rect width="200" height="150" fill="url(#bg7713)" rx="16"/>
  <circle cx="28.60437186341187" cy="28.98565696946207" r="2.1939758286280266" fill="#FFE5D9" opacity="0.3"/><circle cx="87.40803202454117" cy="112.44496253239049" r="3.9436251867145984" fill="#FFE5D9" opacity="0.3"/><circle cx="170.45520096365863" cy="42.09751023886383" r="4.576108175910122" fill="#FFE5D9" opacity="0.3"/><circle cx="163.330139955724" cy="42.080171074758255" r="4.399774331137451" fill="#FFE5D9" opacity="0.3"/><circle cx="116.20881348771945" cy="82.74585997196482" r="3.858267431490276" fill="#FFE5D9" opacity="0.3"/><circle cx="36.94694323439762" cy="58.962741690902476" r="3.6016261755867163" fill="#FFE5D9" opacity="0.3"/>
  <circle cx="100" cy="75" r="48" fill="#FFE5D9" opacity="1"/>
  <circle cx="80" cy="68" r="8" fill="#333" opacity="1"/>
  <circle cx="120" cy="68" r="8" fill="#333" opacity="1"/>
  <circle cx="78" cy="65" r="3" fill="white" opacity="1"/>
  <circle cx="118" cy="65" r="3" fill="white" opacity="1"/>
  <path d="M72 92 Q100 115 128 92" stroke="#333" stroke-width="4" fill="none" stroke-linecap="round"/>
  <ellipse cx="60" cy="82" rx="12" ry="7" fill="#FFB3B3" opacity="0.4"/>
  <ellipse cx="140" cy="82" rx="12" ry="7" fill="#FFB3B3" opacity="0.4"/>
  <path d="M45,42.25 C39,37 42,34 45,37.75 C48,34 51,37 45,42.25Z" fill="#FFB3B3"/>
  <path d="M160,46.8 C155.2,42.6 157.6,40.2 160,43.2 C162.4,40.2 164.8,42.6 160,46.8Z" fill="#FFD6D6"/>
</svg>