<svg xmlns="http://www.w3.org/2000/svg" viewBox="0 0 200 150" width="200" height="150">
  <defs>
    <linearGradient id="bg7718" gradientTransform="rotate(45)">
      <stop offset="0%" style="stop-color:#D4E9FF"/>
      <stop offset="100%" style="stop-color:#A8D0F0"/>
    </linearGradient>
  </defs>
  <rect width="200" height="150" fill="url(#bg7718)" rx="16"/>
  <circle cx="87.2786276288025" cy="148.67020451374628" r="3.0782718778273193" fill="#D4E9FF" opacity="0.3"/><circle cx="64.13467724632937" cy="93.3003717002066" r="4.723473205422124" fill="#D4E9FF" opacity="0.3"/><circle cx="140.60552720329724" cy="10.963080647798051" r="2.628144977942611" fill="#D4E9FF" opacity="0.3"/><circle cx="77.37043758661457" cy="54.763772325532045" r="2.8147080178684973" fill="#D4E9FF" opacity="0.3"/><circle cx="183.7558959816306" cy="37.61368666564522" r="3.8315595551703154" fill="#D4E9FF" opacity="0.3"/><circle cx="109.50972909067787" cy="123.38856786377619" r="2.447837687554056" fill="#D4E9FF" opacity="0.3"/>
  <ellipse cx="100" cy="95" rx="32" ry="28" fill="#A8D0F0" opacity="1"/>
  <circle cx="100" cy="58" r="28" fill="#A8D0F0" opacity="1"/>
  <ellipse cx="82" cy="25" rx="10" ry="24" fill="#A8D0F0" opacity="1"/>
  <ellipse cx="118" cy="25" rx="10" ry="24" fill="#A8D0F0" opacity="1"/>
  <ellipse cx="82" cy="27" rx="5" ry="15" fill="#FFD6D6" opacity="1"/>
  <ellipse cx="118" cy="27" rx="5" ry="15" fill="#FFD6D6" opacity="1"/>
  <circle cx="88" cy="52" r="5" fill="#333" opacity="1"/>
  <circle cx="112" cy="52" r="5" fill="#333" opacity="1"/>
  <circle cx="86" cy="50" r="2" fill="white" opacity="1"/>
  <circle cx="110" cy="50" r="2" fill="white" opacity="1"/>
  <ellipse cx="100" cy="68" rx="6" ry="4" fill="#FFB3B3" opacity="1"/>
  <path d="M50,46.8 C45.2,42.6 47.6,40.2 50,43.2 C52.4,40.2 54.8,42.6 50,46.8Z" fill="#FFB3B3"/>
  <path d="M155,51.5 C151,48 153,46 155,48.5 C157,46 159,48 155,51.5Z" fill="#FFD6D6"/>
</svg>