<svg xmlns="http://www.w3.org/2000/svg" viewBox="0 0 200 150" width="200" height="150">
  <defs>
    <linearGradient id="bg7725" gradientTransform="rotate(90)">
      <stop offset="0%" style="stop-color:#FFF5EB"/>
      <stop offset="100%" style="stop-color:#FFE4CC"/>
    </linearGradient>
  </defs>
  <rect width="200" height="150" fill="url(#bg7725)" rx="16"/>
  <circle cx="42.27176950180365" cy="82.19061544368742" r="3.606398322226596" fill="#FFF5EB" opacity="0.3"/><circle cx="193.58951001158857" cy="67.95118442526018" r="4.174820957276552" fill="#FFF5EB" opacity="0.3"/><circle cx="158.138378465992" cy="74.59694016761205" r="3.799322202642543" fill="#FFF5EB" opacity="0.3"/><circle cx="7.4698493037431035" cy="21.964482435615196" r="3.9528771630557458" fill="#FFF5EB" opacity="0.3"/><circle cx="70.17844634137873" cy="13.58309791106791" r="3.319090085597395" fill="#FFF5EB" opacity="0.3"/><circle cx="91.94690613439889" cy="30.972240491701086" r="4.855989296667758" fill="#FFF5EB" opacity="0.3"/>
  <circle cx="100" cy="75" r="48" fill="#FFE5D9" opacity="1"/>
  <circle cx="80" cy="68" r="8" fill="#333" opacity="1"/>
  <circle cx="120" cy="68" r="8" fill="#333" opacity="1"/>
  <circle cx="78" cy="65" r="3" fill="white" opacity="1"/>
  <circle cx="118" cy="65" r="3" fill="white" opacity="1"/>
  <path d="M72 92 Q100 115 128 92" stroke="#333" stroke-width="4" fill="none" stroke-linecap="round"/>
  <ellipse cx="60" cy="82" rx="12" ry="7" fill="#FFB3B3" opacity="0.4"/>
  <ellipse cx="140" cy="82" rx="12" ry="7" fill="#FFB3B3" opacity="0.4"/>
  <path d="M45,42.25 C39,37 42,34 45,37.75 C48,34 51,37 45,42.25Z" fill="#FFB3B3"/>
  <path d="M160,46.8 C155.2,42.6 157.6,40.2 160,43.2 C162.4,40.2 164.8,42.6 160,46.8Z" fill="#FFD6D6"/>
</svg>