<svg xmlns="http://www.w3.org/2000/svg" viewBox="0 0 200 150" width="200" height="150">
  <defs>
    <linearGradient id="bg7726" gradientTransform="rotate(0)">
      <stop offset="0%" style="stop-color:#FFE5D9"/>
      <stop offset="100%" style="stop-color:#FFCDB2"/>
    </linearGradient>
  </defs>
  <rect width="200" height="150" fill="url(#bg7726)" rx="16"/>
  <circle cx="0.35085028193861945" cy="77.87917170953733" r="4.926198657253735" fill="#FFE5D9" opacity="0.3"/><circle cx="32.40772139142791" cy="113.8735178571551" r="4.83360169905427" fill="#FFE5D9" opacity="0.3"/><circle cx="123.51542413844072" cy="18.444204584830004" r="4.378648828514997" fill="#FFE5D9" opacity="0.3"/><circle cx="69.59537206585082" cy="79.56985190558044" r="3.0599856359162914" fill="#FFE5D9" opacity="0.3"/><circle cx="188.8956985087134" cy="66.43365968238868" r="3.0223909080850717" fill="#FFE5D9" opacity="0.3"/><circle cx="20.382352226806688" cy="127.82791730238614" r="4.726104653980656" fill="#FFE5D9" opacity="0.3"/>
  <circle cx="100" cy="75" r="48" fill="#FFE5D9" opacity="1"/>
  <circle cx="80" cy="68" r="8" fill="#333" opacity="1"/>
  <circle cx="120" cy="68" r="8" fill="#333" opacity="1"/>
  <circle cx="78" cy="65" r="3" fill="white" opacity="1"/>
  <circle cx="118" cy="65" r="3" fill="white" opacity="1"/>
  <path d="M72 92 Q100 115 128 92" stroke="#333" stroke-width="4" fill="none" stroke-linecap="round"/>
  <ellipse cx="60" cy="82" rx="12" ry="7" fill="#FFB3B3" opacity="0.4"/>
  <ellipse cx="140" cy="82" rx="12" ry="7" fill="#FFB3B3" opacity="0.4"/>
  <path d="M45,42.25 C39,37 42,34 45,37.75 C48,34 51,37 45,42.25Z" fill="#FFB3B3"/>
  <path d="M160,46.8 C155.2,42.6 157.6,40.2 160,43.2 C162.4,40.2 164.8,42.6 160,46.8Z" fill="#FFD6D6"/>
</svg>