<svg xmlns="http://www.w3.org/2000/svg" viewBox="0 0 200 150" width="200" height="150">
  <defs>
    <linearGradient id="bg77278" gradientTransform="rotate(0)">
      <stop offset="0%" style="stop-color:#D8F3DC"/>
      <stop offset="100%" style="stop-color:#B7E4C7"/>
    </linearGradient>
  </defs>
  <rect width="200" height="150" fill="url(#bg77278)" rx="16"/>
  <circle cx="142.0420570884744" cy="49.304526311152586" r="4.019827051651191" fill="#D8F3DC" opacity="0.3"/><circle cx="161.346535382836" cy="139.87318781232716" r="3.1915614154513605" fill="#D8F3DC" opacity="0.3"/><circle cx="121.61767140278243" cy="124.08124655021311" r="2.72921334425655" fill="#D8F3DC" opacity="0.3"/><circle cx="129.449845677118" cy="96.42341287817544" r="4.8236991319263325" fill="#D8F3DC" opacity="0.3"/><circle cx="192.6572713871792" cy="128.7116690472203" r="3.267553103923433" fill="#D8F3DC" opacity="0.3"/><circle cx="172.12997788465145" cy="135.104003258175" r="2.487793273174134" fill="#D8F3DC" opacity="0.3"/>
  <circle cx="100" cy="75" r="48" fill="#FFE5D9" opacity="1"/>
  <circle cx="80" cy="68" r="8" fill="#333" opacity="1"/>
  <circle cx="120" cy="68" r="8" fill="#333" opacity="1"/>
  <circle cx="78" cy="65" r="3" fill="white" opacity="1"/>
  <circle cx="118" cy="65" r="3" fill="white" opacity="1"/>
  <path d="M72 92 Q100 115 128 92" stroke="#333" stroke-width="4" fill="none" stroke-linecap="round"/>
  <ellipse cx="60" cy="82" rx="12" ry="7" fill="#FFB3B3" opacity="0.4"/>
  <ellipse cx="140" cy="82" rx="12" ry="7" fill="#FFB3B3" opacity="0.4"/>
  <path d="M45,42.25 C39,37 42,34 45,37.75 C48,34 51,37 45,42.25Z" fill="#FFB3B3"/>
  <path d="M160,46.8 C155.2,42.6 157.6,40.2 160,43.2 C162.4,40.2 164.8,42.6 160,46.8Z" fill="#FFD6D6"/>
</svg>