<svg xmlns="http://www.w3.org/2000/svg" viewBox="0 0 200 150" width="200" height="150">
  <defs>
    <linearGradient id="bg77312" gradientTransform="rotate(45)">
      <stop offset="0%" style="stop-color:#FFE5D9"/>
      <stop offset="100%" style="stop-color:#FFCDB2"/>
    </linearGradient>
  </defs>
  <rect width="200" height="150" fill="url(#bg77312)" rx="16"/>
  <circle cx="115.17459807073465" cy="148.04882638009076" r="2.023978028748843" fill="#FFE5D9" opacity="0.3"/><circle cx="153.0729578693581" cy="122.81648192888497" r="3.123365480112625" fill="#FFE5D9" opacity="0.3"/><circle cx="150.3411819001485" cy="58.15200113734136" r="4.215872412076351" fill="#FFE5D9" opacity="0.3"/><circle cx="63.90076945754117" cy="6.713522524250948" r="4.848326811688821" fill="#FFE5D9" opacity="0.3"/><circle cx="142.29650854795182" cy="124.54565099606043" r="4.559003288013173" fill="#FFE5D9" opacity="0.3"/><circle cx="196.97585747335324" cy="137.94770199265258" r="2.370977182597926" fill="#FFE5D9" opacity="0.3"/>
  <circle cx="100" cy="75" r="48" fill="#FFE5D9" opacity="1"/>
  <circle cx="80" cy="68" r="8" fill="#333" opacity="1"/>
  <circle cx="120" cy="68" r="8" fill="#333" opacity="1"/>
  <circle cx="78" cy="65" r="3" fill="white" opacity="1"/>
  <circle cx="118" cy="65" r="3" fill="white" opacity="1"/>
  <path d="M72 92 Q100 115 128 92" stroke="#333" stroke-width="4" fill="none" stroke-linecap="round"/>
  <ellipse cx="60" cy="82" rx="12" ry="7" fill="#FFB3B3" opacity="0.4"/>
  <ellipse cx="140" cy="82" rx="12" ry="7" fill="#FFB3B3" opacity="0.4"/>
  <path d="M45,42.25 C39,37 42,34 45,37.75 C48,34 51,37 45,42.25Z" fill="#FFB3B3"/>
  <path d="M160,46.8 C155.2,42.6 157.6,40.2 160,43.2 C162.4,40.2 164.8,42.6 160,46.8Z" fill="#FFD6D6"/>
</svg>