<svg xmlns="http://www.w3.org/2000/svg" viewBox="0 0 200 150" width="200" height="150">
  <defs>
    <linearGradient id="bg7735" gradientTransform="rotate(180)">
      <stop offset="0%" style="stop-color:#F0F7FF"/>
      <stop offset="100%" style="stop-color:#DCE8F5"/>
    </linearGradient>
  </defs>
  <rect width="200" height="150" fill="url(#bg7735)" rx="16"/>
  <circle cx="159.97102299525068" cy="86.99179528921377" r="2.988351512587542" fill="#F0F7FF" opacity="0.3"/><circle cx="179.53472799035808" cy="61.93746759856822" r="2.887046338948494" fill="#F0F7FF" opacity="0.3"/><circle cx="42.413983852020465" cy="112.88074150211287" r="4.1422357448846014" fill="#F0F7FF" opacity="0.3"/><circle cx="84.89324701881742" cy="110.0860914047189" r="2.9958172091319284" fill="#F0F7FF" opacity="0.3"/><circle cx="198.22287973693165" cy="46.613311676355806" r="2.311788534070729" fill="#F0F7FF" opacity="0.3"/><circle cx="157.82983357196372" cy="31.164028516377584" r="2.964462841669956" fill="#F0F7FF" opacity="0.3"/>
  <circle cx="100" cy="75" r="48" fill="#FFE5D9" opacity="1"/>
  <circle cx="80" cy="68" r="8" fill="#333" opacity="1"/>
  <circle cx="120" cy="68" r="8" fill="#333" opacity="1"/>
  <circle cx="78" cy="65" r="3" fill="white" opacity="1"/>
  <circle cx="118" cy="65" r="3" fill="white" opacity="1"/>
  <path d="M72 92 Q100 115 128 92" stroke="#333" stroke-width="4" fill="none" stroke-linecap="round"/>
  <ellipse cx="60" cy="82" rx="12" ry="7" fill="#FFB3B3" opacity="0.4"/>
  <ellipse cx="140" cy="82" rx="12" ry="7" fill="#FFB3B3" opacity="0.4"/>
  <path d="M45,42.25 C39,37 42,34 45,37.75 C48,34 51,37 45,42.25Z" fill="#FFB3B3"/>
  <path d="M160,46.8 C155.2,42.6 157.6,40.2 160,43.2 C162.4,40.2 164.8,42.6 160,46.8Z" fill="#FFD6D6"/>
</svg>