<svg xmlns="http://www.w3.org/2000/svg" viewBox="0 0 200 150" width="200" height="150">
  <defs>
    <linearGradient id="bg77422" gradientTransform="rotate(0)">
      <stop offset="0%" style="stop-color:#E2D9F3"/>
      <stop offset="100%" style="stop-color:#C9B8E8"/>
    </linearGradient>
  </defs>
  <rect width="200" height="150" fill="url(#bg77422)" rx="16"/>
  <circle cx="124.894303142446" cy="39.17930053166856" r="4.188418525667657" fill="#E2D9F3" opacity="0.3"/><circle cx="190.06748155625246" cy="133.4169115525583" r="3.2249809098934747" fill="#E2D9F3" opacity="0.3"/><circle cx="84.12881318195105" cy="149.99014810255176" r="4.15032885986875" fill="#E2D9F3" opacity="0.3"/><circle cx="49.760095571764396" cy="32.20788457856543" r="3.9976645689312136" fill="#E2D9F3" opacity="0.3"/><circle cx="16.859223857682082" cy="23.579027951564058" r="4.916838796214506" fill="#E2D9F3" opacity="0.3"/><circle cx="188.75370070509234" cy="31.30533036937777" r="3.8956283944662573" fill="#E2D9F3" opacity="0.3"/>
  <circle cx="100" cy="75" r="45" fill="#E2D9F3" opacity="1"/>
  <circle cx="100" cy="75" r="40" fill="white" opacity="1"/>
  <line x1="100" y1="42" x2="100" y2="52" stroke="#B298DC" stroke-width="2"/>
  <line x1="116.5" y1="46.421161675113524" x2="114" y2="50.751288694035715" stroke="#B298DC" stroke-width="2"/>
  <line x1="128.57883832488648" y1="58.5" x2="124.24871130596428" y2="61" stroke="#B298DC" stroke-width="2"/>
  <line x1="133" y1="75" x2="123" y2="75" stroke="#B298DC" stroke-width="2"/>
  <line x1="128.57883832488648" y1="91.5" x2="124.24871130596429" y2="89" stroke="#B298DC" stroke-width="2"/>
  <line x1="116.5" y1="103.57883832488648" x2="114" y2="99.24871130596429" stroke="#B298DC" stroke-width="2"/>
  <line x1="100" y1="108" x2="100" y2="98" stroke="#B298DC" stroke-width="2"/>
  <line x1="83.5" y1="103.57883832488648" x2="86" y2="99.24871130596428" stroke="#B298DC" stroke-width="2"/>
  <line x1="71.42116167511352" y1="91.50000000000001" x2="75.75128869403572" y2="89.00000000000001" stroke="#B298DC" stroke-width="2"/>
  <line x1="67" y1="75" x2="77" y2="75" stroke="#B298DC" stroke-width="2"/>
  <line x1="71.42116167511352" y1="58.5" x2="75.75128869403572" y2="61" stroke="#B298DC" stroke-width="2"/>
  <line x1="83.49999999999999" y1="46.42116167511353" x2="85.99999999999999" y2="50.75128869403572" stroke="#B298DC" stroke-width="2"/>
  <line x1="100" y1="75" x2="100" y2="55" stroke="#B298DC" stroke-width="4" stroke-linecap="round"/>
  <line x1="100" y1="75" x2="118" y2="85" stroke="#FFB3B3" stroke-width="3" stroke-linecap="round"/>
  <circle cx="100" cy="75" r="5" fill="#B298DC" opacity="1"/>
  <polygon points="45,33 48.52671151375484,40.14589803375031 56.412678195541844,41.291796067500634 50.70633909777092,46.85410196624969 52.05342302750968,54.70820393249937 45,51 37.94657697249032,54.70820393249937 39.29366090222908,46.85410196624969 33.587321804458156,41.29179606750063 41.47328848624516,40.14589803375031" fill="#FFF3B0"/>
</svg>