<svg xmlns="http://www.w3.org/2000/svg" viewBox="0 0 200 150" width="200" height="150">
  <defs>
    <linearGradient id="bg77527" gradientTransform="rotate(135)">
      <stop offset="0%" style="stop-color:#E8F0E8"/>
      <stop offset="100%" style="stop-color:#C5DBC5"/>
    </linearGradient>
  </defs>
  <rect width="200" height="150" fill="url(#bg77527)" rx="16"/>
  <circle cx="13.299766919044487" cy="99.5274589847213" r="2.198815585666125" fill="#E8F0E8" opacity="0.3"/><circle cx="154.65405686518352" cy="136.19269447867737" r="3.335801598062062" fill="#E8F0E8" opacity="0.3"/><circle cx="188.29324454159178" cy="72.96108003192785" r="3.3044134256097095" fill="#E8F0E8" opacity="0.3"/><circle cx="37.96922092365094" cy="102.478554820118" r="4.638636082026096" fill="#E8F0E8" opacity="0.3"/><circle cx="166.42026578483637" cy="148.5470941357221" r="3.768676573828543" fill="#E8F0E8" opacity="0.3"/><circle cx="14.306489240698284" cy="34.047323892946224" r="4.02816139861352" fill="#E8F0E8" opacity="0.3"/>
  <circle cx="100" cy="75" r="48" fill="#FFE5D9" opacity="1"/>
  <circle cx="80" cy="68" r="8" fill="#333" opacity="1"/>
  <circle cx="120" cy="68" r="8" fill="#333" opacity="1"/>
  <circle cx="78" cy="65" r="3" fill="white" opacity="1"/>
  <circle cx="118" cy="65" r="3" fill="white" opacity="1"/>
  <path d="M72 92 Q100 115 128 92" stroke="#333" stroke-width="4" fill="none" stroke-linecap="round"/>
  <ellipse cx="60" cy="82" rx="12" ry="7" fill="#FFB3B3" opacity="0.4"/>
  <ellipse cx="140" cy="82" rx="12" ry="7" fill="#FFB3B3" opacity="0.4"/>
  <path d="M45,42.25 C39,37 42,34 45,37.75 C48,34 51,37 45,42.25Z" fill="#FFB3B3"/>
  <path d="M160,46.8 C155.2,42.6 157.6,40.2 160,43.2 C162.4,40.2 164.8,42.6 160,46.8Z" fill="#FFD6D6"/>
</svg>