<svg xmlns="http://www.w3.org/2000/svg" viewBox="0 0 200 150" width="200" height="150">
  <defs>
    <linearGradient id="bg77535" gradientTransform="rotate(90)">
      <stop offset="0%" style="stop-color:#FFD6D6"/>
      <stop offset="100%" style="stop-color:#FFB3B3"/>
    </linearGradient>
  </defs>
  <rect width="200" height="150" fill="url(#bg77535)" rx="16"/>
  <circle cx="160.11861298065924" cy="22.809689229598007" r="4.13194371596137" fill="#FFD6D6" opacity="0.3"/><circle cx="126.88901098445058" cy="142.45935662502234" r="2.2909608753052453" fill="#FFD6D6" opacity="0.3"/><circle cx="155.8824474541325" cy="114.76795446801589" r="2.4047960499856345" fill="#FFD6D6" opacity="0.3"/><circle cx="190.7313532934495" cy="134.7212797568318" r="3.391520324510566" fill="#FFD6D6" opacity="0.3"/><circle cx="152.12562042142963" cy="120.98186925049959" r="3.502324050316929" fill="#FFD6D6" opacity="0.3"/><circle cx="176.18885711672192" cy="32.663784961278" r="4.834832661435939" fill="#FFD6D6" opacity="0.3"/>
  <circle cx="100" cy="75" r="45" fill="#FFD6D6" opacity="1"/>
  <circle cx="100" cy="75" r="40" fill="white" opacity="1"/>
  <line x1="100" y1="42" x2="100" y2="52" stroke="#FF9999" stroke-width="2"/>
  <line x1="116.5" y1="46.421161675113524" x2="114" y2="50.751288694035715" stroke="#FF9999" stroke-width="2"/>
  <line x1="128.57883832488648" y1="58.5" x2="124.24871130596428" y2="61" stroke="#FF9999" stroke-width="2"/>
  <line x1="133" y1="75" x2="123" y2="75" stroke="#FF9999" stroke-width="2"/>
  <line x1="128.57883832488648" y1="91.5" x2="124.24871130596429" y2="89" stroke="#FF9999" stroke-width="2"/>
  <line x1="116.5" y1="103.57883832488648" x2="114" y2="99.24871130596429" stroke="#FF9999" stroke-width="2"/>
  <line x1="100" y1="108" x2="100" y2="98" stroke="#FF9999" stroke-width="2"/>
  <line x1="83.5" y1="103.57883832488648" x2="86" y2="99.24871130596428" stroke="#FF9999" stroke-width="2"/>
  <line x1="71.42116167511352" y1="91.50000000000001" x2="75.75128869403572" y2="89.00000000000001" stroke="#FF9999" stroke-width="2"/>
  <line x1="67" y1="75" x2="77" y2="75" stroke="#FF9999" stroke-width="2"/>
  <line x1="71.42116167511352" y1="58.5" x2="75.75128869403572" y2="61" stroke="#FF9999" stroke-width="2"/>
  <line x1="83.49999999999999" y1="46.42116167511353" x2="85.99999999999999" y2="50.75128869403572" stroke="#FF9999" stroke-width="2"/>
  <line x1="100" y1="75" x2="100" y2="55" stroke="#FF9999" stroke-width="4" stroke-linecap="round"/>
  <line x1="100" y1="75" x2="118" y2="85" stroke="#FFB3B3" stroke-width="3" stroke-linecap="round"/>
  <circle cx="100" cy="75" r="5" fill="#FF9999" opacity="1"/>
  <polygon points="45,33 48.52671151375484,40.14589803375031 56.412678195541844,41.291796067500634 50.70633909777092,46.85410196624969 52.05342302750968,54.70820393249937 45,51 37.94657697249032,54.70820393249937 39.29366090222908,46.85410196624969 33.587321804458156,41.29179606750063 41.47328848624516,40.14589803375031" fill="#FFF3B0"/>
</svg>