<svg xmlns="http://www.w3.org/2000/svg" viewBox="0 0 200 150" width="200" height="150">
  <defs>
    <linearGradient id="bg77609" gradientTransform="rotate(45)">
      <stop offset="0%" style="stop-color:#D0F0F0"/>
      <stop offset="100%" style="stop-color:#A0E0E0"/>
    </linearGradient>
  </defs>
  <rect width="200" height="150" fill="url(#bg77609)" rx="16"/>
  <circle cx="102.17803779596579" cy="121.63582266816775" r="3.356609326961916" fill="#D0F0F0" opacity="0.3"/><circle cx="121.55559571492631" cy="54.31561072864497" r="4.674120324500109" fill="#D0F0F0" opacity="0.3"/><circle cx="75.37859874828428" cy="85.56817277196842" r="2.4298830114748853" fill="#D0F0F0" opacity="0.3"/><circle cx="167.09516604532837" cy="123.71638897479897" r="2.166342760381667" fill="#D0F0F0" opacity="0.3"/><circle cx="105.97206867314526" cy="138.80387127348968" r="4.037180110346526" fill="#D0F0F0" opacity="0.3"/><circle cx="118.98425559547832" cy="144.0457547927963" r="4.483278891973896" fill="#D0F0F0" opacity="0.3"/>
  <circle cx="100" cy="75" r="48" fill="#FFE5D9" opacity="1"/>
  <circle cx="80" cy="68" r="8" fill="#333" opacity="1"/>
  <circle cx="120" cy="68" r="8" fill="#333" opacity="1"/>
  <circle cx="78" cy="65" r="3" fill="white" opacity="1"/>
  <circle cx="118" cy="65" r="3" fill="white" opacity="1"/>
  <path d="M72 92 Q100 115 128 92" stroke="#333" stroke-width="4" fill="none" stroke-linecap="round"/>
  <ellipse cx="60" cy="82" rx="12" ry="7" fill="#FFB3B3" opacity="0.4"/>
  <ellipse cx="140" cy="82" rx="12" ry="7" fill="#FFB3B3" opacity="0.4"/>
  <path d="M45,42.25 C39,37 42,34 45,37.75 C48,34 51,37 45,42.25Z" fill="#FFB3B3"/>
  <path d="M160,46.8 C155.2,42.6 157.6,40.2 160,43.2 C162.4,40.2 164.8,42.6 160,46.8Z" fill="#FFD6D6"/>
</svg>