<svg xmlns="http://www.w3.org/2000/svg" viewBox="0 0 200 150" width="200" height="150">
  <defs>
    <linearGradient id="bg7762" gradientTransform="rotate(180)">
      <stop offset="0%" style="stop-color:#F0F7FF"/>
      <stop offset="100%" style="stop-color:#DCE8F5"/>
    </linearGradient>
  </defs>
  <rect width="200" height="150" fill="url(#bg7762)" rx="16"/>
  <rect x="0" y="0" width="200" height="150" rx="0" fill="#1a1a3e"/>
  <polygon points="126.82394656472752,23.91172930411267 127.75724884881944,25.8028062835525 129.84417619960482,26.106054578193127 128.33406138216617,27.578052721470055 128.69055113291137,29.65654745402824 126.82394656472752,28.675215358510286 124.95734199654366,29.65654745402824 125.31383174728887,27.57805272147006 123.80371692985022,26.106054578193127 125.8906442806356,25.802806283552503" fill="#FFF3B0"/>
  <polygon points="111.76726060974147,14.20980710657932 113.16871067765456,17.049455103201794 116.30244829657991,17.5048138335537 114.03485445316069,19.715171541903842 114.57016074556763,22.83624671095779 111.76726060974147,21.36267490539103 108.9643604739153,22.83624671095779 109.49966676632225,19.715171541903842 107.23207292290303,17.504813833553698 110.36581054182838,17.049455103201794" fill="#FFF3B0"/>
  <polygon points="135.88191700559037,14.24366933901456 136.6958111081322,15.892798916058572 138.51573364790198,16.157249140622223 137.19882532674617,17.440917495651814 137.50970521067407,19.253486299808703 135.88191700559037,18.397707396455644 134.25412880050666,19.253486299808703 134.56500868443456,17.440917495651814 133.24810036327875,16.157249140622223 135.06802290304853,15.892798916058572" fill="#FFF3B0"/>
  <polygon points="47.249573795943434,47.2084084416656 48.403075037558885,49.54565724192611 50.98238222594146,49.92045251495608 49.11597801094244,51.739746986711964 49.556576279174344,54.308632004527794 47.249573795943434,53.09576902335721 44.94257131271252,54.308632004527794 45.383169580944426,51.739746986711964 43.51676536594541,49.92045251495608 46.09607255432798,49.54565724192611" fill="#FFF3B0"/>
  <polygon points="120.61367980648811,13.37381876336076 121.48083404867607,15.130865170485729 123.41984988118567,15.412620663444518 122.01676484383688,16.780290555817423 122.34798829086404,18.711471434107903 120.61367980648811,17.7996915058593 118.87937132211218,18.711471434107903 119.21059476913933,16.780290555817423 117.80750973179055,15.412620663444516 119.74652556430014,15.130865170485729" fill="#FFF3B0"/>
  <polygon points="71.86536066103145,10.12641716755138 72.92015390640125,12.26366172206167 75.27874330525577,12.60638482293575 73.57205198314361,14.269997700767817 73.97494715177108,16.619056780348046 71.86536066103145,15.509981528460003 69.75577417029182,16.619056780348046 70.15866933891928,14.269997700767817 68.45197801680712,12.60638482293575 70.81056741566164,12.26366172206167" fill="#FFF3B0"/>
  <polygon points="155.5981433008833,32.35952276077387 156.95211657354358,35.10297226298516 159.9796928509298,35.54290484744541 157.78891807590654,37.67838247069122 158.30608984620383,40.69372526285753 155.5981433008833,39.27007351402699 152.89019675556276,40.69372526285753 153.40736852586005,37.67838247069122 151.21659375083678,35.54290484744541 154.244170028223,35.10297226298516" fill="#FFF3B0"/>
  <polygon points="68.39563832422755,11.386264338459114 69.31676432093198,13.252669464881956 71.37646466540534,13.551961443923393 69.88605149481644,15.004755227871192 70.23789031763641,17.056132969901864 68.39563832422755,16.08760378060333 66.55338633081868,17.056132969901864 66.90522515363865,15.004755227871192 65.41481198304976,13.551961443923393 67.47451232752312,13.252669464881956" fill="#FFF3B0"/>
  <polygon points="58.22498535144405,43.37617659857381 59.66132073605185,46.28650996739168 62.8730642945232,46.75320362424702 60.549024822983625,49.0185822216248 61.09765612065966,52.217348132713255 58.22498535144405,50.707095734461404 55.35231458222844,52.217348132713255 55.90094587990447,49.0185822216248 53.57690640836489,46.75320362424702 56.788649966836246,46.28650996739168" fill="#FFF3B0"/>
  <polygon points="179.71523522261123,42.94064905791174 180.90460610196672,45.35057768264842 183.56412023866426,45.73702770747687 181.63967773063774,47.61289553285387 182.0939769813222,50.26166340788777 179.71523522261123,49.01108485763643 177.33649346390027,50.26166340788777 177.7907927145847,47.61289553285387 175.8663502065582,45.73702770747686 178.52586434325573,45.35057768264842" fill="#FFF3B0"/>
  <path d="M155 25 A22 22 0 1 1 175 50 A18 18 0 1 0 155 25" fill="#FFE566"/>
  <rect x="35" y="75" width="130" height="50" rx="8" fill="#C9B8E8"/>
  <rect x="45" y="65" width="90" height="20" rx="8" fill="white"/>
  <rect x="40" y="90" width="120" height="30" rx="6" fill="#DCE8F5"/>
  <text x="170" y="75" fill="#E2D9F3" font-size="16" font-weight="bold">z</text>
  <text x="178" y="65" fill="#E2D9F3" font-size="13" font-weight="bold">z</text>
</svg>