<svg xmlns="http://www.w3.org/2000/svg" viewBox="0 0 200 150" width="200" height="150">
  <defs>
    <linearGradient id="bg7779" gradientTransform="rotate(0)">
      <stop offset="0%" style="stop-color:#FFD6D6"/>
      <stop offset="100%" style="stop-color:#FFB3B3"/>
    </linearGradient>
  </defs>
  <rect width="200" height="150" fill="url(#bg7779)" rx="16"/>
  <circle cx="3.791447997355135" cy="61.692860062430555" r="4.201671293363461" fill="#FFD6D6" opacity="0.3"/><circle cx="161.57182549759455" cy="39.66096922331417" r="2.1193889772885086" fill="#FFD6D6" opacity="0.3"/><circle cx="199.38643560599303" cy="126.70433586399668" r="3.349338859163254" fill="#FFD6D6" opacity="0.3"/><circle cx="192.6725661576711" cy="14.954863765115078" r="4.621270566403837" fill="#FFD6D6" opacity="0.3"/><circle cx="95.92204636664974" cy="59.066826564981056" r="2.8353308139703586" fill="#FFD6D6" opacity="0.3"/><circle cx="187.21799328977795" cy="143.3249520298432" r="3.694244104137397" fill="#FFD6D6" opacity="0.3"/>
  <ellipse cx="100" cy="95" rx="32" ry="28" fill="#FFB3B3" opacity="1"/>
  <circle cx="100" cy="58" r="28" fill="#FFB3B3" opacity="1"/>
  <ellipse cx="82" cy="25" rx="10" ry="24" fill="#FFB3B3" opacity="1"/>
  <ellipse cx="118" cy="25" rx="10" ry="24" fill="#FFB3B3" opacity="1"/>
  <ellipse cx="82" cy="27" rx="5" ry="15" fill="#FFD6D6" opacity="1"/>
  <ellipse cx="118" cy="27" rx="5" ry="15" fill="#FFD6D6" opacity="1"/>
  <circle cx="88" cy="52" r="5" fill="#333" opacity="1"/>
  <circle cx="112" cy="52" r="5" fill="#333" opacity="1"/>
  <circle cx="86" cy="50" r="2" fill="white" opacity="1"/>
  <circle cx="110" cy="50" r="2" fill="white" opacity="1"/>
  <ellipse cx="100" cy="68" rx="6" ry="4" fill="#FFB3B3" opacity="1"/>
  <path d="M50,46.8 C45.2,42.6 47.6,40.2 50,43.2 C52.4,40.2 54.8,42.6 50,46.8Z" fill="#FFB3B3"/>
  <path d="M155,51.5 C151,48 153,46 155,48.5 C157,46 159,48 155,51.5Z" fill="#FFD6D6"/>
</svg>