<svg xmlns="http://www.w3.org/2000/svg" viewBox="0 0 200 150" width="200" height="150">
  <defs>
    <linearGradient id="bg7786" gradientTransform="rotate(135)">
      <stop offset="0%" style="stop-color:#FFE5D9"/>
      <stop offset="100%" style="stop-color:#FFCDB2"/>
    </linearGradient>
  </defs>
  <rect width="200" height="150" fill="url(#bg7786)" rx="16"/>
  <circle cx="29.57575456093764" cy="64.80604082425714" r="4.3460655977869465" fill="#FFE5D9" opacity="0.3"/><circle cx="126.77169015587424" cy="46.67250705524566" r="4.17375823022212" fill="#FFE5D9" opacity="0.3"/><circle cx="28.054563976184" cy="101.71238434827501" r="3.152658965917567" fill="#FFE5D9" opacity="0.3"/><circle cx="153.50899859513447" cy="1.0595097304758383" r="2.7368122823822887" fill="#FFE5D9" opacity="0.3"/><circle cx="33.34557106632019" cy="112.36025227074151" r="2.713855959191278" fill="#FFE5D9" opacity="0.3"/><circle cx="54.025544233172695" cy="122.57140256479033" r="2.9970596635585025" fill="#FFE5D9" opacity="0.3"/>
  <ellipse cx="100" cy="95" rx="32" ry="28" fill="#FFCDB2" opacity="1"/>
  <circle cx="100" cy="58" r="28" fill="#FFCDB2" opacity="1"/>
  <ellipse cx="82" cy="25" rx="10" ry="24" fill="#FFCDB2" opacity="1"/>
  <ellipse cx="118" cy="25" rx="10" ry="24" fill="#FFCDB2" opacity="1"/>
  <ellipse cx="82" cy="27" rx="5" ry="15" fill="#FFD6D6" opacity="1"/>
  <ellipse cx="118" cy="27" rx="5" ry="15" fill="#FFD6D6" opacity="1"/>
  <circle cx="88" cy="52" r="5" fill="#333" opacity="1"/>
  <circle cx="112" cy="52" r="5" fill="#333" opacity="1"/>
  <circle cx="86" cy="50" r="2" fill="white" opacity="1"/>
  <circle cx="110" cy="50" r="2" fill="white" opacity="1"/>
  <ellipse cx="100" cy="68" rx="6" ry="4" fill="#FFB3B3" opacity="1"/>
  <path d="M50,46.8 C45.2,42.6 47.6,40.2 50,43.2 C52.4,40.2 54.8,42.6 50,46.8Z" fill="#FFB3B3"/>
  <path d="M155,51.5 C151,48 153,46 155,48.5 C157,46 159,48 155,51.5Z" fill="#FFD6D6"/>
</svg>