<svg xmlns="http://www.w3.org/2000/svg" viewBox="0 0 200 150" width="200" height="150">
  <defs>
    <linearGradient id="bg7797" gradientTransform="rotate(0)">
      <stop offset="0%" style="stop-color:#FFF5EB"/>
      <stop offset="100%" style="stop-color:#FFE4CC"/>
    </linearGradient>
  </defs>
  <rect width="200" height="150" fill="url(#bg7797)" rx="16"/>
  <rect x="0" y="0" width="200" height="150" rx="0" fill="#1a1a3e"/>
  <polygon points="39.11738730295838,24.856017460072394 40.49107442711257,27.639411588340742 43.562732216537555,28.085749591439978 41.340059759747966,30.25231976989594 41.86476155126677,33.311565954550375 39.11738730295838,31.867185835579733 36.37001305464999,33.311565954550375 36.89471484616879,30.25231976989594 34.6720423893792,28.085749591439978 37.74370017880418,27.639411588340742" fill="#FFF3B0"/>
  <polygon points="55.45263851417076,7.850820480274024 56.161649476163205,9.287433602569077 57.74704618397084,9.517805228965464 56.5998423490708,10.636052593624303 56.87066043815565,12.215043211075916 55.45263851417076,11.469544967970023 54.03461659018586,12.215043211075916 54.30543467927072,10.636052593624303 53.15823084437068,9.517805228965463 54.74362755217831,9.287433602569077" fill="#FFF3B0"/>
  <polygon points="142.01437835142315,43.17983770419187 143.36798577475815,45.922545914702965 146.39474398818354,46.36235962751158 144.20456116980336,48.49726023563946 144.72159319809316,51.51178826938457 142.01437835142315,50.088521197299315 139.30716350475313,51.51178826938457 139.82419553304294,48.49726023563946 137.63401271466276,46.36235962751158 140.66077092808814,45.922545914702965" fill="#FFF3B0"/>
  <polygon points="148.14554934681382,21.88227533877682 149.58017085904427,24.789136022856052 152.7880820823751,25.25527280881916 150.46681571459447,27.517948298104006 151.01479237127472,30.712897359315075 148.14554934681382,29.204447033125177 145.27630632235292,30.712897359315075 145.82428297903317,27.517948298104006 143.50301661125255,25.25527280881916 146.71092783458337,24.789136022856052" fill="#FFF3B0"/>
  <polygon points="98.31226666483417,24.037074254623803 99.58546099453731,26.616847740978837 102.43241006432083,27.030533655831444 100.3723383645775,29.038607268527276 100.85865532424046,31.874052710928314 98.31226666483417,30.535336969131095 95.76587800542788,31.874052710928314 96.25219496509084,29.038607268527276 94.1921232653475,27.03053365583144 97.03907233513102,26.61684774097884" fill="#FFF3B0"/>
  <polygon points="152.6008213028581,11.366122280419177 153.25057939045175,12.68267596575464 154.70348264324147,12.89379516620045 153.65215197304977,13.91858929219751 153.90033747804543,15.365621819086185 152.6008213028581,14.682425735088145 151.30130512767076,15.365621819086185 151.54949063266642,13.91858929219751 150.49815996247472,12.893795166200448 151.95106321526444,12.68267596575464" fill="#FFF3B0"/>
  <polygon points="29.455175823346735,21.922099438731493 30.30549325215191,23.645030735738317 32.206860825413116,23.921315616407238 30.831018324379926,25.262430598907315 31.15581068095708,27.15611534274524 29.455175823346735,26.26203868774519 27.75454096573639,27.15611534274524 28.079333322313545,25.26243059890732 26.703490821280354,23.921315616407238 28.604858394541562,23.645030735738317" fill="#FFF3B0"/>
  <polygon points="18.893861630967876,14.530079598611337 19.959942259851474,16.690194890164545 22.34377101553092,17.036585484261188 20.618816323249398,18.718000748156104 21.026022888735067,21.092197200244307 18.893861630967876,19.97125369098103 16.761700373200686,21.092197200244307 17.168906938686355,18.718000748156104 15.443952246404834,17.036585484261188 17.82778100208428,16.690194890164545" fill="#FFF3B0"/>
  <polygon points="94.73517173370965,15.742721049168722 96.14140043231787,18.592051609152342 99.28582339431692,19.048963010738124 97.01049756401328,21.26685754357755 97.5476291309261,24.398574879588537 94.73517173370965,22.91997852436225 91.9227143364932,24.398574879588537 92.45984590340602,21.26685754357755 90.18452007310238,19.04896301073812 93.32894303510143,18.592051609152342" fill="#FFF3B0"/>
  <polygon points="32.59653562648964,27.439167905115028 33.97416070429625,30.230541199003266 37.054624025780285,30.678158720807023 34.82557982613496,32.850939813522466 35.35178578210287,35.91895594984542 32.59653562648964,34.47043522136846 29.84128547087641,35.91895594984542 30.367491426844317,32.850939813522466 28.138447227198995,30.678158720807023 31.218910548683024,30.230541199003266" fill="#FFF3B0"/>
  <path d="M155 25 A22 22 0 1 1 175 50 A18 18 0 1 0 155 25" fill="#FFE566"/>
  <rect x="35" y="75" width="130" height="50" rx="8" fill="#C9B8E8"/>
  <rect x="45" y="65" width="90" height="20" rx="8" fill="white"/>
  <rect x="40" y="90" width="120" height="30" rx="6" fill="#FFE4CC"/>
  <text x="170" y="75" fill="#E2D9F3" font-size="16" font-weight="bold">z</text>
  <text x="178" y="65" fill="#E2D9F3" font-size="13" font-weight="bold">z</text>
</svg>