<svg xmlns="http://www.w3.org/2000/svg" viewBox="0 0 200 150" width="200" height="150">
  <defs>
    <linearGradient id="bg7806" gradientTransform="rotate(0)">
      <stop offset="0%" style="stop-color:#E0F4FF"/>
      <stop offset="100%" style="stop-color:#BAE6FD"/>
    </linearGradient>
  </defs>
  <rect width="200" height="150" fill="url(#bg7806)" rx="16"/>
  <rect x="0" y="0" width="200" height="150" rx="0" fill="#1a1a3e"/>
  <polygon points="98.571019215251,33.483791662371914 99.41764057210099,35.19923389960899 101.31074347722067,35.47431785370098 99.94088134623584,36.80960341614264 100.26426192895097,38.695056886768285 98.571019215251,37.80486651180718 96.87777650155103,38.695056886768285 97.20115708426616,36.80960341614264 95.83129495328133,35.47431785370098 97.724397858401,35.19923389960899" fill="#FFF3B0"/>
  <polygon points="71.54556424820385,8.067987493197279 72.52407319595271,10.050663178025571 74.71208571971096,10.368600008089313 73.1288249839574,11.911897800044914 73.50258214370157,14.091069252127998 71.54556424820385,13.06220405749093 69.58854635270612,14.091069252127998 69.96230351245029,11.911897800044914 68.37904277669674,10.368600008089311 70.56705530045498,10.050663178025571" fill="#FFF3B0"/>
  <polygon points="127.95067019193084,47.164151204124664 128.6366427261876,48.55408337312512 130.17052394348354,48.77696936057994 129.0605970677072,49.858880670533914 129.32261526044437,51.386563955397534 127.95067019193084,50.66528974876155 126.57872512341731,51.386563955397534 126.84074331615449,49.858880670533914 125.73081644037815,48.77696936057994 127.26469765767408,48.55408337312512" fill="#FFF3B0"/>
  <polygon points="102.55461843746161,21.49503139963963 103.36522759736663,23.13750495590111 105.17780478209824,23.40088783790106 103.86621160977992,24.679375203293514 104.17583675727164,26.484628332685865 102.55461843746161,25.63230342242423 100.93340011765159,26.484628332685865 101.2430252651433,24.679375203293514 99.93143209282499,23.400887837901056 101.7440092775566,23.13750495590111" fill="#FFF3B0"/>
  <polygon points="117.18801601282394,7.120923359503877 118.1330334781984,9.035737888943313 120.24615677070027,9.342792676727575 118.7170863917621,10.833267925857545 119.07805094357288,12.937852750556042 117.18801601282394,11.944202584469394 115.297981082075,12.937852750556042 115.65894563388578,10.833267925857545 114.1298752549476,9.342792676727575 116.24299854744947,9.035737888943313" fill="#FFF3B0"/>
  <polygon points="76.95981012885113,20.475193112518355 78.16707019139022,22.921369181492707 80.86658575774828,23.31363175428703 78.9131979432997,25.217714280174107 79.37433025392932,27.90632195164983 76.95981012885113,26.636933601058445 74.54529000377295,27.90632195164983 75.00642231440256,25.217714280174107 73.05303449995398,23.313631754287027 75.75255006631204,22.921369181492707" fill="#FFF3B0"/>
  <polygon points="115.67227946443836,30.107948913458358 116.85401698855173,32.50241067111426 119.49646242403153,32.88638046847621 117.58437094423495,34.75020901683132 118.03575451266511,37.38197715991031 115.67227946443836,36.13942479434024 113.30880441621161,37.38197715991031 113.76018798464177,34.75020901683132 111.84809650484519,32.886380468476204 114.49054194032499,32.50241067111426" fill="#FFF3B0"/>
  <polygon points="98.15500472649092,33.40396721653997 99.48096311321797,36.090652359793864 102.4458962012756,36.52148235602669 100.30045046388327,38.6127750878598 100.80692149994502,41.56572781215858 98.15500472649092,40.171532657603166 95.50308795303681,41.56572781215858 96.00955898909857,38.6127750878598 93.86411325170623,36.52148235602669 96.82904633976386,36.090652359793864" fill="#FFF3B0"/>
  <polygon points="134.808031954542,50.38801875579611 136.09860446429312,53.00300428094441 138.98441232598915,53.422336708779284 136.89622214026556,55.4578190712448 137.38917697404423,58.33196628938006 134.808031954542,56.974978047736386 132.22688693503977,58.33196628938006 132.71984176881844,55.4578190712448 130.63165158309485,53.422336708779284 133.5174594447909,53.00300428094441" fill="#FFF3B0"/>
  <polygon points="174.37141416074155,38.346002603082525 175.0291360557707,39.6786927247759 176.49984692334587,39.8923995231145 175.43563054204373,40.92975411313084 175.68685795079986,42.394522299824395 174.37141416074155,41.70295257314683 173.05597037068324,42.394522299824395 173.30719777943938,40.92975411313084 172.24298139813723,39.8923995231145 173.7136922657124,39.6786927247759" fill="#FFF3B0"/>
  <path d="M155 25 A22 22 0 1 1 175 50 A18 18 0 1 0 155 25" fill="#FFE566"/>
  <rect x="35" y="75" width="130" height="50" rx="8" fill="#C9B8E8"/>
  <rect x="45" y="65" width="90" height="20" rx="8" fill="white"/>
  <rect x="40" y="90" width="120" height="30" rx="6" fill="#BAE6FD"/>
  <text x="170" y="75" fill="#E2D9F3" font-size="16" font-weight="bold">z</text>
  <text x="178" y="65" fill="#E2D9F3" font-size="13" font-weight="bold">z</text>
</svg>