<svg xmlns="http://www.w3.org/2000/svg" viewBox="0 0 200 150" width="200" height="150">
  <defs>
    <linearGradient id="bg7807" gradientTransform="rotate(180)">
      <stop offset="0%" style="stop-color:#FFE4EC"/>
      <stop offset="100%" style="stop-color:#FFC8DD"/>
    </linearGradient>
  </defs>
  <rect width="200" height="150" fill="url(#bg7807)" rx="16"/>
  <rect x="0" y="0" width="200" height="150" rx="0" fill="#1a1a3e"/>
  <polygon points="74.77702963753927,14.203603294998857 75.46190137651143,15.591305009132483 76.9933211407217,15.813833326517823 75.8851753891305,16.894008469484234 76.14677311548361,18.419240247221325 74.77702963753927,17.699123485243717 73.40728615959493,18.419240247221325 73.66888388594805,16.894008469484234 72.56073813435684,15.813833326517821 74.09215789856711,15.591305009132483" fill="#FFF3B0"/>
  <polygon points="65.22254916750171,12.530579482554458 66.1818432491113,14.474321596086119 68.32689002600357,14.786015137680732 66.77471959675265,16.299007370802467 67.14113733072088,18.435386687113425 65.22254916750171,17.426725198365602 63.303961004282534,18.435386687113425 63.67037873825078,16.299007370802467 62.118208308999854,14.78601513768073 64.26325508589213,14.474321596086119" fill="#FFF3B0"/>
  <polygon points="61.64343497948721,27.646926562414706 62.962808738336264,30.32026979232445 65.91301815085217,30.748960313267354 63.77822656516969,32.8298678138889 64.28218249718532,35.768156356396254 61.64343497948721,34.380884689315224 59.004687461789096,35.768156356396254 59.50864339380473,32.8298678138889 57.37385180812225,30.74896031326735 60.32406122063815,30.32026979232445" fill="#FFF3B0"/>
  <polygon points="182.82281572411193,29.761332406538713 184.22959911934944,32.611786904654835 187.3752624207185,33.06887853810091 185.09903907241522,35.28764793476777 185.63638251458698,38.42060059832678 182.82281572411193,36.94142100054887 180.00924893363688,38.42060059832678 180.54659237580864,35.287647934767776 178.27036902750535,33.06887853810091 181.41603232887442,32.61178690465484" fill="#FFF3B0"/>
  <polygon points="59.23714227408709,37.25691188915971 59.9555112692587,38.71248645772955 61.56183317539063,38.94589869342384 60.39948772473886,40.07890548565427 60.67388026443031,41.678736749273284 59.23714227408709,40.923398887786334 57.80040428374387,41.678736749273284 58.07479682343532,40.07890548565427 56.91245137278355,38.94589869342384 58.51877327891548,38.71248645772955" fill="#FFF3B0"/>
  <polygon points="62.956903081758355,15.360724869353362 63.6410427296208,16.746943204877446 65.170825488344,16.9692336514418 64.06386428505117,18.048254145188345 64.32518237748324,19.57185553206359 62.956903081758355,18.852508536232563 61.58862378603347,19.57185553206359 61.849941878465536,18.048254145188345 60.742980675172724,16.9692336514418 62.27276343389591,16.746943204877446" fill="#FFF3B0"/>
  <polygon points="143.702667603593,19.73001575040189 144.42623593111975,21.196125317002753 146.04418389783538,21.431226918186496 144.8734257507142,22.572434062760948 145.1498042586465,24.183844409702886 143.702667603593,23.42303964665325 142.2555309485395,24.183844409702886 142.5319094564718,22.572434062760948 141.36115130935062,21.431226918186493 142.97909927606625,21.196125317002753" fill="#FFF3B0"/>
  <polygon points="119.48878625482735,37.418027876446104 120.40595498057716,39.276414696119645 122.45680659819062,39.5744208798846 120.97279642650898,41.020973282452616 121.32312370632698,43.06353805255054 119.48878625482735,42.09916978417186 117.65444880332771,43.06353805255054 118.00477608314571,41.020973282452616 116.52076591146407,39.57442087988459 118.57161752907753,39.276414696119645" fill="#FFF3B0"/>
  <polygon points="151.82676943046317,10.304817869468707 152.65666065296816,11.986361151927612 154.51235384041968,12.256009155850284 153.16956163544143,13.564908061886625 153.4865518754731,15.413102975768306 151.82676943046317,14.540503705077413 150.16698698545324,15.413102975768306 150.48397722548492,13.564908061886625 149.14118502050667,12.256009155850283 150.9968782079582,11.986361151927614" fill="#FFF3B0"/>
  <polygon points="134.37473967488586,11.407242741002847 135.37458395353895,13.433148528027823 137.61030372752145,13.758017627327991 135.99252170120366,15.334965361014701 136.37442823219203,17.561651293301747 134.37473967488586,16.510352804177273 132.3750511175797,17.561651293301747 132.75695764856806,15.334965361014701 131.13917562225026,13.758017627327991 133.37489539623277,13.433148528027823" fill="#FFF3B0"/>
  <path d="M155 25 A22 22 0 1 1 175 50 A18 18 0 1 0 155 25" fill="#FFE566"/>
  <rect x="35" y="75" width="130" height="50" rx="8" fill="#C9B8E8"/>
  <rect x="45" y="65" width="90" height="20" rx="8" fill="white"/>
  <rect x="40" y="90" width="120" height="30" rx="6" fill="#FFC8DD"/>
  <text x="170" y="75" fill="#E2D9F3" font-size="16" font-weight="bold">z</text>
  <text x="178" y="65" fill="#E2D9F3" font-size="13" font-weight="bold">z</text>
</svg>