<svg xmlns="http://www.w3.org/2000/svg" viewBox="0 0 200 150" width="200" height="150">
  <defs>
    <linearGradient id="bg7811" gradientTransform="rotate(135)">
      <stop offset="0%" style="stop-color:#FFE5D9"/>
      <stop offset="100%" style="stop-color:#FFCDB2"/>
    </linearGradient>
  </defs>
  <rect width="200" height="150" fill="url(#bg7811)" rx="16"/>
  <circle cx="93.19955737773853" cy="38.366042115512755" r="3.433875189210994" fill="#FFE5D9" opacity="0.3"/><circle cx="44.21939409976403" cy="90.00260269584146" r="4.38710682711644" fill="#FFE5D9" opacity="0.3"/><circle cx="109.63974222086108" cy="117.95447218382833" r="2.210398685198925" fill="#FFE5D9" opacity="0.3"/><circle cx="126.933003540762" cy="79.04880842734201" r="2.4264246151651605" fill="#FFE5D9" opacity="0.3"/><circle cx="159.11938744980034" cy="66.12860934051241" r="2.08819073930772" fill="#FFE5D9" opacity="0.3"/><circle cx="94.12035164568806" cy="81.53238570384929" r="2.8925170106376754" fill="#FFE5D9" opacity="0.3"/>
  <circle cx="100" cy="75" r="45" fill="#FFE5D9" opacity="1"/>
  <circle cx="100" cy="75" r="40" fill="white" opacity="1"/>
  <line x1="100" y1="42" x2="100" y2="52" stroke="#FFB4A2" stroke-width="2"/>
  <line x1="116.5" y1="46.421161675113524" x2="114" y2="50.751288694035715" stroke="#FFB4A2" stroke-width="2"/>
  <line x1="128.57883832488648" y1="58.5" x2="124.24871130596428" y2="61" stroke="#FFB4A2" stroke-width="2"/>
  <line x1="133" y1="75" x2="123" y2="75" stroke="#FFB4A2" stroke-width="2"/>
  <line x1="128.57883832488648" y1="91.5" x2="124.24871130596429" y2="89" stroke="#FFB4A2" stroke-width="2"/>
  <line x1="116.5" y1="103.57883832488648" x2="114" y2="99.24871130596429" stroke="#FFB4A2" stroke-width="2"/>
  <line x1="100" y1="108" x2="100" y2="98" stroke="#FFB4A2" stroke-width="2"/>
  <line x1="83.5" y1="103.57883832488648" x2="86" y2="99.24871130596428" stroke="#FFB4A2" stroke-width="2"/>
  <line x1="71.42116167511352" y1="91.50000000000001" x2="75.75128869403572" y2="89.00000000000001" stroke="#FFB4A2" stroke-width="2"/>
  <line x1="67" y1="75" x2="77" y2="75" stroke="#FFB4A2" stroke-width="2"/>
  <line x1="71.42116167511352" y1="58.5" x2="75.75128869403572" y2="61" stroke="#FFB4A2" stroke-width="2"/>
  <line x1="83.49999999999999" y1="46.42116167511353" x2="85.99999999999999" y2="50.75128869403572" stroke="#FFB4A2" stroke-width="2"/>
  <line x1="100" y1="75" x2="100" y2="55" stroke="#FFB4A2" stroke-width="4" stroke-linecap="round"/>
  <line x1="100" y1="75" x2="118" y2="85" stroke="#FFB3B3" stroke-width="3" stroke-linecap="round"/>
  <circle cx="100" cy="75" r="5" fill="#FFB4A2" opacity="1"/>
  <polygon points="45,33 48.52671151375484,40.14589803375031 56.412678195541844,41.291796067500634 50.70633909777092,46.85410196624969 52.05342302750968,54.70820393249937 45,51 37.94657697249032,54.70820393249937 39.29366090222908,46.85410196624969 33.587321804458156,41.29179606750063 41.47328848624516,40.14589803375031" fill="#FFF3B0"/>
</svg>