<svg xmlns="http://www.w3.org/2000/svg" viewBox="0 0 200 150" width="200" height="150">
  <defs>
    <linearGradient id="bg7814" gradientTransform="rotate(180)">
      <stop offset="0%" style="stop-color:#FFD6D6"/>
      <stop offset="100%" style="stop-color:#FFB3B3"/>
    </linearGradient>
  </defs>
  <rect width="200" height="150" fill="url(#bg7814)" rx="16"/>
  <rect x="0" y="0" width="200" height="150" rx="0" fill="#1a1a3e"/>
  <polygon points="109.37764892078121,32.22937216837545 109.98204995595242,33.45402242740053 111.33353175626648,33.65040422815121 110.35559033852385,34.603661513310755 110.58645099112363,35.94968239997167 109.37764892078121,35.31417754319864 108.1688468504388,35.94968239997167 108.39970750303857,34.603661513310755 107.42176608529594,33.65040422815121 108.77324788561,33.45402242740053" fill="#FFF3B0"/>
  <polygon points="25.00408878639064,8.80199364733835 26.16202672668751,11.148232181026225 28.75125467491741,11.524469024844043 26.877671730654022,13.350761028195683 27.319964666984383,15.929526719182956 25.00408878639064,14.711998716948528 22.688212905796895,15.929526719182956 23.130505842127256,13.350761028195683 21.25692289786387,11.524469024844041 23.846150846093767,11.148232181026225" fill="#FFF3B0"/>
  <polygon points="100.45310256183257,38.29802487389043 101.07243134153518,39.55292204703912 102.45729259337222,39.754154166008384 101.45519757760239,40.7309553903697 101.69176012123779,42.11022085266956 100.45310256183257,41.45902003642868 99.21444500242734,42.11022085266956 99.45100754606274,40.7309553903697 98.44891253029292,39.754154166008384 99.83377378212995,39.55292204703912" fill="#FFF3B0"/>
  <polygon points="129.58560756366978,19.964532563765715 130.2396292313785,21.28972520599973 131.702066139133,21.50222972760139 130.6438368514014,22.533748343744946 130.89365089908725,23.99027600309182 129.58560756366978,23.302596925662783 128.27756422825232,23.99027600309182 128.52737827593816,22.533748343744946 127.46914898820657,21.50222972760139 128.93158589596106,21.28972520599973" fill="#FFF3B0"/>
  <polygon points="83.13703992444061,22.12625542418209 84.40446888239835,24.694346991429562 87.23852618904355,25.10615962344598 85.18778305674209,27.10514013024332 85.67189784035608,29.92774590107349 83.13703992444061,28.595092229875263 80.60218200852515,29.92774590107349 81.08629679213914,27.10514013024332 79.03555365983767,25.10615962344598 81.86961096648288,24.694346991429562" fill="#FFF3B0"/>
  <polygon points="143.02799135652094,7.856558847719498 144.3788806684123,10.59375956289254 147.39956099987927,11.03269010775656 145.2137761782001,13.163303728628039 145.72976998030364,16.17177843922756 143.02799135652094,14.75136935864657 140.32621273273824,16.17177843922756 140.84220653484178,13.16330372862804 138.65642171316262,11.032690107756558 141.67710204462958,10.593759562892542" fill="#FFF3B0"/>
  <polygon points="154.8650919978536,25.800239579070876 155.876660865665,27.849901978533875 158.1385976180138,28.178580627781823 156.5018448079337,29.77402030536057 156.8882297334764,32.02681728143521 154.8650919978536,30.96319082971604 152.8419542622308,32.02681728143521 153.22833918777349,29.77402030536057 151.5915863776934,28.178580627781823 153.8535231300422,27.84990197853388" fill="#FFF3B0"/>
  <polygon points="142.1434965568369,26.24701073306096 142.8628069051898,27.704492691509753 144.47123374102597,27.938210791393768 143.30736514893144,29.0727022795889 143.58211725354272,30.674629967552054 142.1434965568369,29.9183023087553 140.7048758601311,30.674629967552054 140.97962796474238,29.0727022795889 139.81575937264785,27.938210791393768 141.424186208484,27.704492691509756" fill="#FFF3B0"/>
  <polygon points="122.08219093254229,46.35136179059009 122.67536953536853,47.55327291801482 124.00175721408638,47.746008329456984 123.04197407331434,48.68156566910434 123.26854813819479,50.00259383163602 122.08219093254229,49.378888938537784 120.89583372688979,50.00259383163602 121.12240779177024,48.68156566910434 120.1626246509982,47.746008329456984 121.48901232971605,47.55327291801482" fill="#FFF3B0"/>
  <polygon points="179.80978119514475,28.582670591079477 180.55418020445313,30.09098772906931 182.2187069916502,30.332857629049872 181.01424409339748,31.506918786122114 181.29857921376154,33.16471974315547 179.80978119514475,32.38201230510731 178.32098317652796,33.16471974315547 178.60531829689202,31.506918786122114 177.4008553986393,30.33285762904987 179.06538218583637,30.09098772906931" fill="#FFF3B0"/>
  <path d="M155 25 A22 22 0 1 1 175 50 A18 18 0 1 0 155 25" fill="#FFE566"/>
  <rect x="35" y="75" width="130" height="50" rx="8" fill="#C9B8E8"/>
  <rect x="45" y="65" width="90" height="20" rx="8" fill="white"/>
  <rect x="40" y="90" width="120" height="30" rx="6" fill="#FFB3B3"/>
  <text x="170" y="75" fill="#E2D9F3" font-size="16" font-weight="bold">z</text>
  <text x="178" y="65" fill="#E2D9F3" font-size="13" font-weight="bold">z</text>
</svg>