<svg xmlns="http://www.w3.org/2000/svg" viewBox="0 0 200 150" width="200" height="150">
  <defs>
    <linearGradient id="bg7817" gradientTransform="rotate(0)">
      <stop offset="0%" style="stop-color:#E0F4FF"/>
      <stop offset="100%" style="stop-color:#BAE6FD"/>
    </linearGradient>
  </defs>
  <rect width="200" height="150" fill="url(#bg7817)" rx="16"/>
  <rect x="0" y="0" width="200" height="150" rx="0" fill="#1a1a3e"/>
  <polygon points="136.85355024336786,39.15557056578655 137.50757318976383,40.48076579892388 138.97001295674988,40.69327073599621 137.91178160005887,41.72479136887675 138.16159613615977,43.18132187590194 136.85355024336786,42.49364145398158 135.54550435057595,43.18132187590194 135.79531888667685,41.72479136887675 134.73708752998584,40.69327073599621 136.1995272969719,40.48076579892388" fill="#FFF3B0"/>
  <polygon points="139.507119020127,45.9669557068828 140.10593041509566,47.18028011779784 141.44491339994707,47.374845734351865 140.47601621003705,48.319287076231326 140.70474181006432,49.65285965121883 139.507119020127,49.02323208996586 138.30949623018967,49.65285965121883 138.53822183021694,48.319287076231326 137.56932464030692,47.374845734351865 138.90830762515833,47.18028011779784" fill="#FFF3B0"/>
  <polygon points="32.031805022693334,38.09536727731802 32.943417725578584,39.9424963650482 34.98184569838232,40.23869728755174 33.506825360537825,41.67648676788111 33.855030428463834,43.706678093217555 32.031805022693334,42.74815177299797 30.208579616922837,43.706678093217555 30.55678468484884,41.676486767881116 29.08176434700435,40.23869728755174 31.120192319808083,39.94249636504821" fill="#FFF3B0"/>
  <polygon points="58.253260861429226,23.44124278655363 58.87273415655684,24.696432779936497 60.25791855470796,24.89771185481376 59.2555897080686,25.87474100794039 59.49220745168445,27.25432831082154 58.253260861429226,26.602975542070453 57.014314271174,27.25432831082154 57.25093201478985,25.87474100794039 56.24860316815049,24.89771185481376 57.63378756630161,24.696432779936497" fill="#FFF3B0"/>
  <polygon points="145.22264509830734,34.84483690684192 146.10320465633046,36.62904545061872 148.0721956863073,36.915156594726575 146.6474203923073,38.303969261906445 146.98376421435356,40.265004217302014 145.22264509830734,39.33912910584877 143.46152598226112,40.265004217302014 143.79786980430737,38.303969261906445 142.37309451030737,36.915156594726575 144.34208554028422,36.62904545061872" fill="#FFF3B0"/>
  <polygon points="119.4291499263727,31.005056313898876 120.78087797674667,33.74395649886136 123.8034337844761,34.183159566378365 121.61629185542441,36.31509603999556 122.13260602712063,39.32543864864677 119.4291499263727,37.9041476662353 116.72569382562477,39.32543864864677 117.242007997321,36.31509603999556 115.0548660682693,34.183159566378365 118.07742187599874,33.74395649886136" fill="#FFF3B0"/>
  <polygon points="159.81539459377927,46.67231355492822 160.6862664926088,48.43689275717453 162.63359525808596,48.71985619 161.22449492593262,50.09338954565486 161.55713839143834,52.03284976696065 159.81539459377927,51.11716086319075 158.0736507961202,52.03284976696065 158.40629426162593,50.09338954565486 156.9971939294726,48.71985619 158.94452269494974,48.43689275717453" fill="#FFF3B0"/>
  <polygon points="138.43305311978838,41.292011238690975 139.51355866402133,43.48135460116233 141.92964251099158,43.83243213437247 140.18134781538998,45.53659827863388 140.59406420825425,47.94291948931557 138.43305311978838,46.80680872647463 136.2720420313225,47.94291948931557 136.68475842418678,45.53659827863388 134.93646372858518,43.83243213437247 137.35254757555543,43.48135460116233" fill="#FFF3B0"/>
  <polygon points="95.66104076959164,6.394924897531382 96.77185372783968,8.645677788220164 99.25570701276996,9.006602797185696 97.4583738911808,10.758569592873974 97.88266668608773,13.232386406493315 95.66104076959164,12.06440854270113 93.43941485309554,13.232386406493315 93.86370764800247,10.758569592873974 92.06637452641331,9.006602797185696 94.55022781134359,8.645677788220164" fill="#FFF3B0"/>
  <polygon points="129.93527955342358,26.6629672451445 131.07981174564318,28.98204276636235 133.63906352988306,29.353923818587127 131.78717154165332,31.159072365402412 132.22434393786278,33.70798301666725 129.93527955342358,32.504550652123726 127.64621516898438,33.70798301666725 128.08338756519385,31.159072365402412 126.2314955769641,29.353923818587127 128.79074736120398,28.98204276636235" fill="#FFF3B0"/>
  <path d="M155 25 A22 22 0 1 1 175 50 A18 18 0 1 0 155 25" fill="#FFE566"/>
  <rect x="35" y="75" width="130" height="50" rx="8" fill="#C9B8E8"/>
  <rect x="45" y="65" width="90" height="20" rx="8" fill="white"/>
  <rect x="40" y="90" width="120" height="30" rx="6" fill="#BAE6FD"/>
  <text x="170" y="75" fill="#E2D9F3" font-size="16" font-weight="bold">z</text>
  <text x="178" y="65" fill="#E2D9F3" font-size="13" font-weight="bold">z</text>
</svg>