<svg xmlns="http://www.w3.org/2000/svg" viewBox="0 0 200 150" width="200" height="150">
  <defs>
    <linearGradient id="bg7819" gradientTransform="rotate(135)">
      <stop offset="0%" style="stop-color:#E8F0E8"/>
      <stop offset="100%" style="stop-color:#C5DBC5"/>
    </linearGradient>
  </defs>
  <rect width="200" height="150" fill="url(#bg7819)" rx="16"/>
  <rect x="0" y="0" width="200" height="150" rx="0" fill="#1a1a3e"/>
  <polygon points="173.7728559525732,25.50333952155097 174.9769019118146,27.943003105921548 177.6692305247123,28.33422135324872 175.72104323864275,30.233234616832306 176.180947871056,32.91468437507024 173.7728559525732,31.64867553268118 171.3647640340904,32.91468437507024 171.82466866650364,30.233234616832306 169.8764813804341,28.33422135324872 172.5688099933318,27.943003105921548" fill="#FFF3B0"/>
  <polygon points="159.48010115960642,30.294395539330253 160.72228888936624,32.81134279203843 163.49990509392538,33.21495405185624 161.49000312676588,35.17412426173837 161.9644766191261,37.94051699125612 159.48010115960642,36.63440351800136 156.99572570008675,37.94051699125612 157.47019919244696,35.17412426173837 155.46029722528746,33.21495405185624 158.2379134298466,32.81134279203843" fill="#FFF3B0"/>
  <polygon points="87.59105588467719,16.339914141010922 88.211338854373,17.596744714260407 89.59833373989825,17.79828686835241 88.59469481228771,18.77659303481261 88.83162182406879,20.157983509456823 87.59105588467719,19.505779398483355 86.35048994528559,20.157983509456823 86.58741695706667,18.77659303481261 85.58377802945613,17.79828686835241 86.97077291498138,17.596744714260407" fill="#FFF3B0"/>
  <polygon points="37.866551568895375,23.136376373557596 39.15988598048836,25.756958123082118 42.051869642449965,26.177187947224475 39.95921060567267,28.21702636287065 40.45322039208134,31.097324426801542 37.866551568895375,29.73743214970409 35.27988274570941,31.097324426801542 35.773892532118076,28.21702636287065 33.681233495340784,26.177187947224475 36.57321715730239,25.756958123082118" fill="#FFF3B0"/>
  <polygon points="24.48427501612059,32.86612403449635 25.775084145545986,35.481589003471726 28.661421104918492,35.90099831369928 26.57284806051954,37.93685387113831 27.06589327497138,40.81152804903247 24.48427501612059,39.45429101073978 21.902656757269803,40.81152804903247 22.395701971721643,37.93685387113831 20.30712892732269,35.90099831369928 23.193465886695197,35.481589003471726" fill="#FFF3B0"/>
  <polygon points="166.67801562088243,17.867323437651066 168.03408470769645,20.61501952316861 171.06634736799865,21.055633078927052 168.87218149444053,23.194416206290374 169.39015379451044,26.21442644517058 166.67801562088243,24.788571026928366 163.96587744725443,26.21442644517058 164.48384974732434,23.194416206290374 162.28968387376622,21.055633078927052 165.32194653406842,20.61501952316861" fill="#FFF3B0"/>
  <polygon points="152.73689228368312,13.064479603838208 153.3842341135936,14.376137416358475 154.83173444995256,14.586471527091845 153.78431336681786,15.607454747572078 154.0315759435041,17.04910618951905 152.73689228368312,16.368450709198896 151.44220862386214,17.04910618951905 151.68947120054838,15.607454747572078 150.64205011741367,14.586471527091845 152.08955045377263,14.376137416358475" fill="#FFF3B0"/>
  <polygon points="119.49294014499173,15.017218567732016 120.26287391377004,16.577274779580495 121.9844981589309,16.827441425851394 120.73871915196132,18.04177583540506 121.03280768254832,19.756443537500527 119.49294014499173,18.94688726446475 117.95307260743515,19.756443537500527 118.24716113802215,18.04177583540506 117.00138213105257,16.827441425851394 118.72300637621343,16.577274779580495" fill="#FFF3B0"/>
  <polygon points="116.83884513713565,15.291553218130048 117.84281437522414,17.32581708587804 120.08775783890866,17.65202646574493 118.46330148802215,19.235480057965905 118.84678361331261,21.471352409920662 116.83884513713565,20.415716681773347 114.83090666095869,21.471352409920662 115.21438878624915,19.235480057965905 113.58993243536264,17.65202646574493 115.83487589904716,17.32581708587804" fill="#FFF3B0"/>
  <polygon points="183.4581852084375,27.540128070436822 184.8009057623526,30.260777074098208 187.80332019569303,30.69705342860199 185.63075270206525,32.81478333882705 186.14362631626776,35.80506595805967 183.4581852084375,34.39324601790963 180.77274410060724,35.80506595805967 181.28561771480975,32.81478333882705 179.11305022118196,30.69705342860199 182.11546465452238,30.260777074098208" fill="#FFF3B0"/>
  <path d="M155 25 A22 22 0 1 1 175 50 A18 18 0 1 0 155 25" fill="#FFE566"/>
  <rect x="35" y="75" width="130" height="50" rx="8" fill="#C9B8E8"/>
  <rect x="45" y="65" width="90" height="20" rx="8" fill="white"/>
  <rect x="40" y="90" width="120" height="30" rx="6" fill="#C5DBC5"/>
  <text x="170" y="75" fill="#E2D9F3" font-size="16" font-weight="bold">z</text>
  <text x="178" y="65" fill="#E2D9F3" font-size="13" font-weight="bold">z</text>
</svg>