<svg xmlns="http://www.w3.org/2000/svg" viewBox="0 0 200 150" width="200" height="150">
  <defs>
    <linearGradient id="bg7824" gradientTransform="rotate(180)">
      <stop offset="0%" style="stop-color:#D4E9FF"/>
      <stop offset="100%" style="stop-color:#A8D0F0"/>
    </linearGradient>
  </defs>
  <rect width="200" height="150" fill="url(#bg7824)" rx="16"/>
  <rect x="0" y="0" width="200" height="150" rx="0" fill="#1a1a3e"/>
  <polygon points="98.1216903769473,27.3163441777009 99.37301296845112,29.851800681965493 102.17105534483488,30.258380038286287 100.14637286089109,32.23195769123959 100.62433555995494,35.01869405683449 98.1216903769473,33.70297562153229 95.61904519393966,35.01869405683449 96.09700789300351,32.23195769123959 94.07232540905972,30.258380038286287 96.87036778544348,29.851800681965493" fill="#FFF3B0"/>
  <polygon points="18.731161259574947,38.328123243183654 19.343235633930842,39.56832138560614 20.711875542276275,39.767196405393804 19.72151840092561,40.732556029983044 19.955310008286737,42.09566569414761 18.731161259574947,41.45209261108812 17.507012510863156,42.09566569414761 17.740804118224283,40.732556029983044 16.75044697687362,39.767196405393804 18.11908688521905,39.56832138560614" fill="#FFF3B0"/>
  <polygon points="62.9996022366322,34.45371394438189 64.40940725962048,37.31029092904635 67.56182712604291,37.76836434886333 65.28071468133756,39.99189943668363 65.81921228260876,43.13158136413789 62.9996022366322,41.64922463892435 60.179992190655646,43.13158136413789 60.71848979192684,39.99189943668363 58.437377347221485,37.76836434886333 61.58979721364392,37.31029092904635" fill="#FFF3B0"/>
  <polygon points="114.58936075403471,8.710319763773214 115.26119513553338,10.071604906329666 116.76346248218596,10.28989712948504 115.67641161811034,11.349509839120545 115.93302951703207,12.845706995066795 114.58936075403471,12.139298521976457 113.24569199103736,12.845706995066795 113.5023098899591,11.349509839120545 112.41525902588347,10.289897129485038 113.91752637253605,10.071604906329666" fill="#FFF3B0"/>
  <polygon points="111.85779134253607,49.001260161159735 113.17686197956426,51.673989199175615 116.12639359108323,52.102581229868555 113.99209246680965,54.18301064877412 114.49593261659244,57.12062412906558 111.85779134253607,55.733671183128536 109.21965006847971,57.12062412906558 109.7234902182625,54.18301064877412 107.58918909398892,52.102581229868555 110.53872070550788,51.673989199175615" fill="#FFF3B0"/>
  <polygon points="165.65876256603644,15.587095066161055 166.58674118535723,17.467385122578676 168.66176445982492,17.76890365367902 167.16026351293067,19.23250534835391 167.514719804678,21.299144105229487 165.65876256603644,20.323409642112892 163.80280532739488,21.299144105229487 164.15726161914222,19.23250534835391 162.65576067224796,17.76890365367902 164.73078394671566,17.467385122578676" fill="#FFF3B0"/>
  <polygon points="177.56198614270033,9.050263421635123 178.85249985617273,11.66512981251033 181.73817624539268,12.084443136276176 179.6500811940465,14.11983276564267 180.14301356964512,16.99384904254086 177.56198614270033,15.636922622963198 174.98095871575555,16.99384904254086 175.47389109135418,14.11983276564267 173.385796040008,12.084443136276176 176.27147242922794,11.66512981251033" fill="#FFF3B0"/>
  <polygon points="19.599244311912116,21.618323629139013 20.953977160294805,24.363312199867845 23.983251900630414,24.80349158544109 21.791248106271265,26.94016720645475 22.308710008677494,29.95720159861489 19.599244311912116,28.532751184605786 16.88977861514674,29.95720159861489 17.407240517552967,26.94016720645475 15.21523672319382,24.803491585441087 18.244511463529427,24.36331219986785" fill="#FFF3B0"/>
  <polygon points="120.33843667710244,27.11056990945417 121.47261237080289,29.40866087264513 124.0087063203451,29.77717689451703 122.17357149872376,31.565991240879924 122.60678806450335,34.09183763098662 120.33843667710244,32.89929473341135 118.07008528970152,34.09183763098662 118.50330185548111,31.565991240879924 116.66816703385977,29.777176894517027 119.20426098340198,29.40866087264513" fill="#FFF3B0"/>
  <polygon points="97.03385840981355,18.807720621013573 97.98994520349945,20.74496405939752 100.12782026657092,21.055615489974233 98.58083933819223,22.56354920995494 98.94603199718533,24.692785791089076 97.03385840981355,23.68749664443527 95.12168482244176,24.692785791089076 95.48687748143486,22.56354920995494 93.93989655305617,21.055615489974233 96.07777161612765,20.74496405939752" fill="#FFF3B0"/>
  <path d="M155 25 A22 22 0 1 1 175 50 A18 18 0 1 0 155 25" fill="#FFE566"/>
  <rect x="35" y="75" width="130" height="50" rx="8" fill="#C9B8E8"/>
  <rect x="45" y="65" width="90" height="20" rx="8" fill="white"/>
  <rect x="40" y="90" width="120" height="30" rx="6" fill="#A8D0F0"/>
  <text x="170" y="75" fill="#E2D9F3" font-size="16" font-weight="bold">z</text>
  <text x="178" y="65" fill="#E2D9F3" font-size="13" font-weight="bold">z</text>
</svg>