<svg xmlns="http://www.w3.org/2000/svg" viewBox="0 0 200 150" width="200" height="150">
  <defs>
    <linearGradient id="bg7835" gradientTransform="rotate(90)">
      <stop offset="0%" style="stop-color:#F0F7FF"/>
      <stop offset="100%" style="stop-color:#DCE8F5"/>
    </linearGradient>
  </defs>
  <rect width="200" height="150" fill="url(#bg7835)" rx="16"/>
  <rect x="0" y="0" width="200" height="150" rx="0" fill="#1a1a3e"/>
  <polygon points="131.30935808578215,30.043876078782432 132.3126456581885,32.076758740997 134.55606487106985,32.402746634257525 132.932711478426,33.98512510790702 133.31593323059485,36.21947936807756 131.30935808578215,35.16456038564456 129.30278294096945,36.21947936807756 129.6860046931383,33.98512510790702 128.06265130049445,32.40274663425752 130.3060705133758,32.076758740997" fill="#FFF3B0"/>
  <polygon points="108.80108697483593,45.63177270661072 110.12649084696154,48.31733428056086 113.09018400267587,48.74798410407784 110.9456354887559,50.83840225917666 111.45189471908716,53.79012006130944 108.80108697483593,52.39650795791022 106.15027923058469,53.79012006130944 106.65653846091595,50.83840225917666 104.51198994699598,48.74798410407783 107.4756831027103,48.31733428056086" fill="#FFF3B0"/>
  <polygon points="133.69844724601535,23.881837607430498 134.83361376427152,26.181936200453638 137.37192326487408,26.550774160739202 135.53518525544473,28.341151228988874 135.9687802825277,30.869204217809674 133.69844724601535,29.675619505643226 131.428114209503,30.869204217809674 131.86170923658597,28.341151228988874 130.0249712271566,26.5507741607392 132.56328072775918,26.181936200453638" fill="#FFF3B0"/>
  <polygon points="112.47767737004324,20.070495760679933 113.23434859348627,21.60367912050631 114.92631688572283,21.8495365045756 113.70199712788303,23.042953316003352 113.99101981692931,24.72808489556969 112.47767737004324,23.932473687951187 110.96433492315717,24.72808489556969 111.25335761220344,23.042953316003352 110.02903785436365,21.8495365045756 111.7210061466002,21.60367912050631" fill="#FFF3B0"/>
  <polygon points="104.68415653704142,7.096948440615051 105.5752054987489,8.90241083769712 107.56765154840743,9.19193019566376 106.12590404272443,10.597286680436978 106.46625446045638,12.58168188114348 104.68415653704142,11.644777557961334 102.90205861362645,12.58168188114348 103.2424090313584,10.597286680436978 101.80066152567541,9.19193019566376 103.79310757533393,8.90241083769712" fill="#FFF3B0"/>
  <polygon points="52.15935051921406,25.19703336141538 53.42977227375379,27.77118899688259 56.270521676999195,28.183974047455315 54.21493609810663,30.187674773078864 54.70019402829353,33.016945599847865 52.15935051921406,31.681145116098833 49.618507010134586,33.016945599847865 50.10376494032149,30.187674773078864 48.04817936142892,28.183974047455315 50.888928764674326,27.77118899688259" fill="#FFF3B0"/>
  <polygon points="135.36292750550274,43.56327478619281 136.40396025265832,45.672637525944786 138.73178024210154,46.01088956991909 137.04735387380214,47.652799481662704 137.4449929998139,49.97121348135492 135.36292750550274,48.876606873525844 133.28086201119157,49.97121348135492 133.67850113720334,47.652799481662704 131.99407476890394,46.01088956991909 134.32189475834716,45.672637525944786" fill="#FFF3B0"/>
  <polygon points="117.42078856889748,44.54880484779915 118.58305355797962,46.90381093995786 121.18195708143534,47.281453727152574 119.30137282516641,49.11457032301444 119.74531854706177,51.702972493265726 117.42078856889748,50.48089476269115 115.09625859073319,51.702972493265726 115.54020431262855,49.11457032301444 113.65962005635961,47.281453727152574 116.25852357981533,46.90381093995786" fill="#FFF3B0"/>
  <polygon points="65.01133984143053,41.377531495528274 66.32681147005783,44.04296814601685 69.26829545414084,44.47039078799344 67.13981764778569,46.54514387483164 67.64228309868514,49.47474224562302 65.01133984143053,48.09157352106422 62.38039658417592,49.47474224562302 62.88286203507537,46.54514387483164 60.75438422872021,44.47039078799344 63.69586821280322,44.04296814601685" fill="#FFF3B0"/>
  <polygon points="89.02884458898825,10.106090954100182 89.79096780632823,11.650321260158545 91.49512712753125,11.897950104428695 90.26198585825975,13.099965764300567 90.5530910236682,14.797239112712738 89.02884458898825,13.995895339464823 87.5045981543083,14.797239112712738 87.79570331971675,13.099965764300567 86.56256205044525,11.897950104428695 88.26672137164827,11.650321260158545" fill="#FFF3B0"/>
  <path d="M155 25 A22 22 0 1 1 175 50 A18 18 0 1 0 155 25" fill="#FFE566"/>
  <rect x="35" y="75" width="130" height="50" rx="8" fill="#C9B8E8"/>
  <rect x="45" y="65" width="90" height="20" rx="8" fill="white"/>
  <rect x="40" y="90" width="120" height="30" rx="6" fill="#DCE8F5"/>
  <text x="170" y="75" fill="#E2D9F3" font-size="16" font-weight="bold">z</text>
  <text x="178" y="65" fill="#E2D9F3" font-size="13" font-weight="bold">z</text>
</svg>