<svg xmlns="http://www.w3.org/2000/svg" viewBox="0 0 200 150" width="200" height="150">
  <defs>
    <linearGradient id="bg78443" gradientTransform="rotate(0)">
      <stop offset="0%" style="stop-color:#F0F7FF"/>
      <stop offset="100%" style="stop-color:#DCE8F5"/>
    </linearGradient>
  </defs>
  <rect width="200" height="150" fill="url(#bg78443)" rx="16"/>
  <rect x="0" y="100" width="200" height="50" rx="0" fill="#C5DBC5"/>
  <circle cx="165" cy="35" r="22" fill="#FFE566" opacity="1"/>
  <line x1="191" y1="35" x2="200" y2="35" stroke="#FFF3B0" stroke-width="3" stroke-linecap="round"/>
  <line x1="183.38477631085024" y1="53.384776310850235" x2="189.74873734152916" y2="59.748737341529164" stroke="#FFF3B0" stroke-width="3" stroke-linecap="round"/>
  <line x1="165" y1="61" x2="165" y2="70" stroke="#FFF3B0" stroke-width="3" stroke-linecap="round"/>
  <line x1="146.61522368914976" y1="53.38477631085024" x2="140.25126265847084" y2="59.748737341529164" stroke="#FFF3B0" stroke-width="3" stroke-linecap="round"/>
  <line x1="139" y1="35" x2="130" y2="35.00000000000001" stroke="#FFF3B0" stroke-width="3" stroke-linecap="round"/>
  <line x1="146.61522368914976" y1="16.615223689149765" x2="140.25126265847084" y2="10.25126265847084" stroke="#FFF3B0" stroke-width="3" stroke-linecap="round"/>
  <line x1="165" y1="9" x2="165" y2="0" stroke="#FFF3B0" stroke-width="3" stroke-linecap="round"/>
  <line x1="183.38477631085024" y1="16.61522368914976" x2="189.74873734152916" y2="10.251262658470832" stroke="#FFF3B0" stroke-width="3" stroke-linecap="round"/>
  <rect x="90" y="55" width="14" height="50" rx="2" fill="#8B6914"/>
  <path d="M76.4384645333339,41.58624551196044 Q86.4384645333339,53.58624551196044 76.4384645333339,65.58624551196044 Q66.4384645333339,53.58624551196044 76.4384645333339,41.58624551196044Z" fill="#B7E4C7"/>
  <path d="M89.77424042297935,25.752250572075354 Q99.77424042297935,37.752250572075354 89.77424042297935,49.752250572075354 Q79.77424042297935,37.752250572075354 89.77424042297935,25.752250572075354Z" fill="#95D5B2"/>
  <path d="M100.91675333289459,34.79167878257431 Q110.91675333289459,46.79167878257431 100.91675333289459,58.79167878257431 Q90.91675333289459,46.79167878257431 100.91675333289459,34.79167878257431Z" fill="#B7E4C7"/>
  <path d="M113.39677407915588,31.798456404838362 Q123.39677407915588,43.79845640483836 113.39677407915588,55.79845640483836 Q103.39677407915588,43.79845640483836 113.39677407915588,31.798456404838362Z" fill="#95D5B2"/>
  <path d="M130.12296779277676,34.03802342144263 Q140.12296779277676,46.03802342144263 130.12296779277676,58.03802342144263 Q120.12296779277676,46.03802342144263 130.12296779277676,34.03802342144263Z" fill="#B7E4C7"/>
  <circle cx="45" cy="95" r="8" fill="#FFB3B3" opacity="1"/>
  <circle cx="155" cy="98" r="6" fill="#C9B8E8" opacity="1"/>
</svg>