<svg xmlns="http://www.w3.org/2000/svg" viewBox="0 0 200 150" width="200" height="150">
  <defs>
    <linearGradient id="bg7856" gradientTransform="rotate(180)">
      <stop offset="0%" style="stop-color:#FFE4EC"/>
      <stop offset="100%" style="stop-color:#FFC8DD"/>
    </linearGradient>
  </defs>
  <rect width="200" height="150" fill="url(#bg7856)" rx="16"/>
  <circle cx="157.19127661795937" cy="79.4488839933365" r="4.098921452035938" fill="#FFE4EC" opacity="0.3"/><circle cx="185.30562741034373" cy="103.26847425635606" r="3.4855728164002358" fill="#FFE4EC" opacity="0.3"/><circle cx="144.96345242951065" cy="36.105165498156566" r="3.4510273804698954" fill="#FFE4EC" opacity="0.3"/><circle cx="44.65187611676811" cy="27.152396999895245" r="3.282490420790964" fill="#FFE4EC" opacity="0.3"/><circle cx="74.63376113560116" cy="53.38087678726424" r="4.419795185750445" fill="#FFE4EC" opacity="0.3"/><circle cx="168.58665508098056" cy="36.35167328616262" r="3.124065178415549" fill="#FFE4EC" opacity="0.3"/>
  <circle cx="100" cy="75" r="45" fill="#FFE4EC" opacity="1"/>
  <circle cx="100" cy="75" r="40" fill="white" opacity="1"/>
  <line x1="100" y1="42" x2="100" y2="52" stroke="#FFAFCC" stroke-width="2"/>
  <line x1="116.5" y1="46.421161675113524" x2="114" y2="50.751288694035715" stroke="#FFAFCC" stroke-width="2"/>
  <line x1="128.57883832488648" y1="58.5" x2="124.24871130596428" y2="61" stroke="#FFAFCC" stroke-width="2"/>
  <line x1="133" y1="75" x2="123" y2="75" stroke="#FFAFCC" stroke-width="2"/>
  <line x1="128.57883832488648" y1="91.5" x2="124.24871130596429" y2="89" stroke="#FFAFCC" stroke-width="2"/>
  <line x1="116.5" y1="103.57883832488648" x2="114" y2="99.24871130596429" stroke="#FFAFCC" stroke-width="2"/>
  <line x1="100" y1="108" x2="100" y2="98" stroke="#FFAFCC" stroke-width="2"/>
  <line x1="83.5" y1="103.57883832488648" x2="86" y2="99.24871130596428" stroke="#FFAFCC" stroke-width="2"/>
  <line x1="71.42116167511352" y1="91.50000000000001" x2="75.75128869403572" y2="89.00000000000001" stroke="#FFAFCC" stroke-width="2"/>
  <line x1="67" y1="75" x2="77" y2="75" stroke="#FFAFCC" stroke-width="2"/>
  <line x1="71.42116167511352" y1="58.5" x2="75.75128869403572" y2="61" stroke="#FFAFCC" stroke-width="2"/>
  <line x1="83.49999999999999" y1="46.42116167511353" x2="85.99999999999999" y2="50.75128869403572" stroke="#FFAFCC" stroke-width="2"/>
  <line x1="100" y1="75" x2="100" y2="55" stroke="#FFAFCC" stroke-width="4" stroke-linecap="round"/>
  <line x1="100" y1="75" x2="118" y2="85" stroke="#FFB3B3" stroke-width="3" stroke-linecap="round"/>
  <circle cx="100" cy="75" r="5" fill="#FFAFCC" opacity="1"/>
  <polygon points="45,33 48.52671151375484,40.14589803375031 56.412678195541844,41.291796067500634 50.70633909777092,46.85410196624969 52.05342302750968,54.70820393249937 45,51 37.94657697249032,54.70820393249937 39.29366090222908,46.85410196624969 33.587321804458156,41.29179606750063 41.47328848624516,40.14589803375031" fill="#FFF3B0"/>
</svg>