<svg xmlns="http://www.w3.org/2000/svg" viewBox="0 0 200 150" width="200" height="150">
  <defs>
    <linearGradient id="bg78674" gradientTransform="rotate(90)">
      <stop offset="0%" style="stop-color:#E2D9F3"/>
      <stop offset="100%" style="stop-color:#C9B8E8"/>
    </linearGradient>
  </defs>
  <rect width="200" height="150" fill="url(#bg78674)" rx="16"/>
  <circle cx="0.1643563432025985" cy="124.30602680524316" r="2.4036695170862004" fill="#E2D9F3" opacity="0.3"/><circle cx="179.27849399202387" cy="144.01154964198213" r="3.8293447669748275" fill="#E2D9F3" opacity="0.3"/><circle cx="25.308834949282755" cy="43.21326304316244" r="2.917860687150096" fill="#E2D9F3" opacity="0.3"/><circle cx="9.306255491173943" cy="58.893301950229215" r="3.509411481451025" fill="#E2D9F3" opacity="0.3"/><circle cx="85.16843823799718" cy="58.448270557346405" r="3.4615078734859708" fill="#E2D9F3" opacity="0.3"/><circle cx="45.597894540151174" cy="24.40747041709983" r="2.727792557408975" fill="#E2D9F3" opacity="0.3"/>
  <circle cx="100" cy="75" r="45" fill="#E2D9F3" opacity="1"/>
  <circle cx="100" cy="75" r="40" fill="white" opacity="1"/>
  <line x1="100" y1="42" x2="100" y2="52" stroke="#B298DC" stroke-width="2"/>
  <line x1="116.5" y1="46.421161675113524" x2="114" y2="50.751288694035715" stroke="#B298DC" stroke-width="2"/>
  <line x1="128.57883832488648" y1="58.5" x2="124.24871130596428" y2="61" stroke="#B298DC" stroke-width="2"/>
  <line x1="133" y1="75" x2="123" y2="75" stroke="#B298DC" stroke-width="2"/>
  <line x1="128.57883832488648" y1="91.5" x2="124.24871130596429" y2="89" stroke="#B298DC" stroke-width="2"/>
  <line x1="116.5" y1="103.57883832488648" x2="114" y2="99.24871130596429" stroke="#B298DC" stroke-width="2"/>
  <line x1="100" y1="108" x2="100" y2="98" stroke="#B298DC" stroke-width="2"/>
  <line x1="83.5" y1="103.57883832488648" x2="86" y2="99.24871130596428" stroke="#B298DC" stroke-width="2"/>
  <line x1="71.42116167511352" y1="91.50000000000001" x2="75.75128869403572" y2="89.00000000000001" stroke="#B298DC" stroke-width="2"/>
  <line x1="67" y1="75" x2="77" y2="75" stroke="#B298DC" stroke-width="2"/>
  <line x1="71.42116167511352" y1="58.5" x2="75.75128869403572" y2="61" stroke="#B298DC" stroke-width="2"/>
  <line x1="83.49999999999999" y1="46.42116167511353" x2="85.99999999999999" y2="50.75128869403572" stroke="#B298DC" stroke-width="2"/>
  <line x1="100" y1="75" x2="100" y2="55" stroke="#B298DC" stroke-width="4" stroke-linecap="round"/>
  <line x1="100" y1="75" x2="118" y2="85" stroke="#FFB3B3" stroke-width="3" stroke-linecap="round"/>
  <circle cx="100" cy="75" r="5" fill="#B298DC" opacity="1"/>
  <polygon points="45,33 48.52671151375484,40.14589803375031 56.412678195541844,41.291796067500634 50.70633909777092,46.85410196624969 52.05342302750968,54.70820393249937 45,51 37.94657697249032,54.70820393249937 39.29366090222908,46.85410196624969 33.587321804458156,41.29179606750063 41.47328848624516,40.14589803375031" fill="#FFF3B0"/>
</svg>