<svg xmlns="http://www.w3.org/2000/svg" viewBox="0 0 200 150" width="200" height="150">
  <defs>
    <linearGradient id="bg7934" gradientTransform="rotate(90)">
      <stop offset="0%" style="stop-color:#D4E9FF"/>
      <stop offset="100%" style="stop-color:#A8D0F0"/>
    </linearGradient>
  </defs>
  <rect width="200" height="150" fill="url(#bg7934)" rx="16"/>
  <rect x="28" y="45" width="50" height="65" rx="10" fill="#FFB3B3"/>
  <circle cx="40" cy="60" r="5" fill="#FF9999" opacity="1"/>
  <circle cx="53" cy="60" r="5" fill="#FF9999" opacity="1"/>
  <circle cx="66" cy="60" r="5" fill="#FF9999" opacity="1"/>
  <circle cx="40" cy="80" r="5" fill="#FF9999" opacity="1"/>
  <circle cx="53" cy="80" r="5" fill="#FF9999" opacity="1"/>
  <circle cx="66" cy="80" r="5" fill="#FF9999" opacity="1"/>
  <rect x="86" y="45" width="50" height="65" rx="10" fill="#B7E4C7"/>
  <line x1="94" y1="55" x2="128" y2="55" stroke="#95D5B2" stroke-width="4"/>
  <line x1="94" y1="69" x2="128" y2="69" stroke="#95D5B2" stroke-width="4"/>
  <line x1="94" y1="83" x2="128" y2="83" stroke="#95D5B2" stroke-width="4"/>
  <line x1="94" y1="97" x2="128" y2="97" stroke="#95D5B2" stroke-width="4"/>
  <rect x="144" y="45" width="50" height="65" rx="10" fill="#C9B8E8"/>
  <rect x="152" y="52" width="12" height="12" rx="2" fill="#B298DC"/>
  <rect x="170" y="52" width="12" height="12" rx="2" fill="#B298DC"/>
  <rect x="152" y="74" width="12" height="12" rx="2" fill="#B298DC"/>
  <rect x="170" y="74" width="12" height="12" rx="2" fill="#B298DC"/>
  <polygon points="157.5,29.5 159.85114100916988,34.263932022500214 165.10845213036123,35.02786404500042 161.30422606518061,38.736067977499786 162.2022820183398,43.97213595499958 157.5,41.5 152.7977179816602,43.97213595499958 153.69577393481939,38.73606797749979 149.89154786963877,35.02786404500042 155.14885899083012,34.263932022500214" fill="#FFF3B0"/><polygon points="172.4618036025989,-2.4870272540991927 175.40072986406128,3.46788777402607 181.97236876555044,4.422802802151333 177.21708618407467,9.058057717775544 178.33965612552365,15.603142689650282 172.4618036025989,12.512972745900807 166.58395107967416,15.603142689650282 167.70652102112314,9.058057717775545 162.95123843964737,4.42280280215133 169.52287734113654,3.467887774026071" fill="#FFF3B0"/><polygon points="133.52689313342154,25.44813145534826 137.05360464717637,32.594029489098574 144.93957132896338,33.739927522848895 139.23323223119246,39.30223342159795 140.5803161609312,47.15633538784763 133.52689313342154,43.44813145534826 126.47347010591186,47.15633538784763 127.82055403565062,39.30223342159795 122.1142149378797,33.73992752284889 130.0001816196667,32.594029489098574" fill="#FFF3B0"/><polygon points="180.94999941936848,-6.38337988178905 185.0644961854158,1.9535011575863175 194.26479064750063,3.290382196961686 187.60739503343456,9.779739078835581 189.1789929514631,18.942858039460212 180.94999941936848,14.61662011821095 172.72100588727386,18.942858039460212 174.2926038053024,9.779739078835583 167.63520819123633,3.2903821969616818 176.83550265332116,1.9535011575863184" fill="#FFF3B0"/>
</svg>