<svg xmlns="http://www.w3.org/2000/svg" viewBox="0 0 200 150" width="200" height="150">
  <defs>
    <linearGradient id="bg7939" gradientTransform="rotate(90)">
      <stop offset="0%" style="stop-color:#FFF5EB"/>
      <stop offset="100%" style="stop-color:#FFE4CC"/>
    </linearGradient>
  </defs>
  <rect width="200" height="150" fill="url(#bg7939)" rx="16"/>
  <circle cx="99.49362575534906" cy="46.30153218149644" r="2.8272310807724352" fill="#FFF5EB" opacity="0.3"/><circle cx="172.3859925994475" cy="66.31660551395271" r="4.7209880794580386" fill="#FFF5EB" opacity="0.3"/><circle cx="21.433769615759957" cy="123.16457028218792" r="2.621349365554579" fill="#FFF5EB" opacity="0.3"/><circle cx="164.02860858971167" cy="88.41203586698612" r="2.5577477534525315" fill="#FFF5EB" opacity="0.3"/><circle cx="6.205463431615499" cy="127.24323348274993" r="4.209057186197242" fill="#FFF5EB" opacity="0.3"/><circle cx="5.475324993676622" cy="20.17468159983764" r="2.1419895841609105" fill="#FFF5EB" opacity="0.3"/>
  <circle cx="100" cy="75" r="48" fill="#FFE5D9" opacity="1"/>
  <circle cx="80" cy="68" r="8" fill="#333" opacity="1"/>
  <circle cx="120" cy="68" r="8" fill="#333" opacity="1"/>
  <circle cx="78" cy="65" r="3" fill="white" opacity="1"/>
  <circle cx="118" cy="65" r="3" fill="white" opacity="1"/>
  <path d="M72 92 Q100 115 128 92" stroke="#333" stroke-width="4" fill="none" stroke-linecap="round"/>
  <ellipse cx="60" cy="82" rx="12" ry="7" fill="#FFB3B3" opacity="0.4"/>
  <ellipse cx="140" cy="82" rx="12" ry="7" fill="#FFB3B3" opacity="0.4"/>
  <path d="M45,42.25 C39,37 42,34 45,37.75 C48,34 51,37 45,42.25Z" fill="#FFB3B3"/>
  <path d="M160,46.8 C155.2,42.6 157.6,40.2 160,43.2 C162.4,40.2 164.8,42.6 160,46.8Z" fill="#FFD6D6"/>
</svg>