<svg xmlns="http://www.w3.org/2000/svg" viewBox="0 0 200 150" width="200" height="150">
  <defs>
    <linearGradient id="bg7946" gradientTransform="rotate(135)">
      <stop offset="0%" style="stop-color:#FFD6D6"/>
      <stop offset="100%" style="stop-color:#FFB3B3"/>
    </linearGradient>
  </defs>
  <rect width="200" height="150" fill="url(#bg7946)" rx="16"/>
  <circle cx="164.62506475363625" cy="93.70797309820773" r="4.548397238975667" fill="#FFD6D6" opacity="0.3"/><circle cx="181.780018572681" cy="142.72986018968368" r="3.7411472699786827" fill="#FFD6D6" opacity="0.3"/><circle cx="35.57932620187785" cy="74.34165376398596" r="3.9286052167153684" fill="#FFD6D6" opacity="0.3"/><circle cx="50.402754312744946" cy="143.0123146205915" r="4.043915688107518" fill="#FFD6D6" opacity="0.3"/><circle cx="23.77906695828642" cy="22.27982485787834" r="2.5757397211318676" fill="#FFD6D6" opacity="0.3"/><circle cx="49.92999288151623" cy="2.0537214373234747" r="3.007782687807776" fill="#FFD6D6" opacity="0.3"/>
  <circle cx="100" cy="75" r="45" fill="#FFD6D6" opacity="1"/>
  <circle cx="100" cy="75" r="40" fill="white" opacity="1"/>
  <line x1="100" y1="42" x2="100" y2="52" stroke="#FF9999" stroke-width="2"/>
  <line x1="116.5" y1="46.421161675113524" x2="114" y2="50.751288694035715" stroke="#FF9999" stroke-width="2"/>
  <line x1="128.57883832488648" y1="58.5" x2="124.24871130596428" y2="61" stroke="#FF9999" stroke-width="2"/>
  <line x1="133" y1="75" x2="123" y2="75" stroke="#FF9999" stroke-width="2"/>
  <line x1="128.57883832488648" y1="91.5" x2="124.24871130596429" y2="89" stroke="#FF9999" stroke-width="2"/>
  <line x1="116.5" y1="103.57883832488648" x2="114" y2="99.24871130596429" stroke="#FF9999" stroke-width="2"/>
  <line x1="100" y1="108" x2="100" y2="98" stroke="#FF9999" stroke-width="2"/>
  <line x1="83.5" y1="103.57883832488648" x2="86" y2="99.24871130596428" stroke="#FF9999" stroke-width="2"/>
  <line x1="71.42116167511352" y1="91.50000000000001" x2="75.75128869403572" y2="89.00000000000001" stroke="#FF9999" stroke-width="2"/>
  <line x1="67" y1="75" x2="77" y2="75" stroke="#FF9999" stroke-width="2"/>
  <line x1="71.42116167511352" y1="58.5" x2="75.75128869403572" y2="61" stroke="#FF9999" stroke-width="2"/>
  <line x1="83.49999999999999" y1="46.42116167511353" x2="85.99999999999999" y2="50.75128869403572" stroke="#FF9999" stroke-width="2"/>
  <line x1="100" y1="75" x2="100" y2="55" stroke="#FF9999" stroke-width="4" stroke-linecap="round"/>
  <line x1="100" y1="75" x2="118" y2="85" stroke="#FFB3B3" stroke-width="3" stroke-linecap="round"/>
  <circle cx="100" cy="75" r="5" fill="#FF9999" opacity="1"/>
  <polygon points="45,33 48.52671151375484,40.14589803375031 56.412678195541844,41.291796067500634 50.70633909777092,46.85410196624969 52.05342302750968,54.70820393249937 45,51 37.94657697249032,54.70820393249937 39.29366090222908,46.85410196624969 33.587321804458156,41.29179606750063 41.47328848624516,40.14589803375031" fill="#FFF3B0"/>
</svg>