<svg xmlns="http://www.w3.org/2000/svg" viewBox="0 0 200 150" width="200" height="150">
  <defs>
    <linearGradient id="bg7959" gradientTransform="rotate(45)">
      <stop offset="0%" style="stop-color:#FFF3B0"/>
      <stop offset="100%" style="stop-color:#FFE566"/>
    </linearGradient>
  </defs>
  <rect width="200" height="150" fill="url(#bg7959)" rx="16"/>
  <circle cx="151.66004991624504" cy="88.59522293784039" r="2.6902674490420395" fill="#FFF3B0" opacity="0.3"/><circle cx="136.26606699726835" cy="103.09221164402516" r="3.9254491654974117" fill="#FFF3B0" opacity="0.3"/><circle cx="198.50688600163267" cy="62.09274004161216" r="2.618449298375708" fill="#FFF3B0" opacity="0.3"/><circle cx="168.74157615056902" cy="113.72153316624463" r="2.2030290818838694" fill="#FFF3B0" opacity="0.3"/><circle cx="77.13680135448158" cy="39.63089681856218" r="3.2207959294300963" fill="#FFF3B0" opacity="0.3"/><circle cx="29.004411878850078" cy="20.42691785468378" r="4.639469783097411" fill="#FFF3B0" opacity="0.3"/>
  <circle cx="100" cy="75" r="45" fill="#FFF3B0" opacity="1"/>
  <circle cx="100" cy="75" r="40" fill="white" opacity="1"/>
  <line x1="100" y1="42" x2="100" y2="52" stroke="#FFD93D" stroke-width="2"/>
  <line x1="116.5" y1="46.421161675113524" x2="114" y2="50.751288694035715" stroke="#FFD93D" stroke-width="2"/>
  <line x1="128.57883832488648" y1="58.5" x2="124.24871130596428" y2="61" stroke="#FFD93D" stroke-width="2"/>
  <line x1="133" y1="75" x2="123" y2="75" stroke="#FFD93D" stroke-width="2"/>
  <line x1="128.57883832488648" y1="91.5" x2="124.24871130596429" y2="89" stroke="#FFD93D" stroke-width="2"/>
  <line x1="116.5" y1="103.57883832488648" x2="114" y2="99.24871130596429" stroke="#FFD93D" stroke-width="2"/>
  <line x1="100" y1="108" x2="100" y2="98" stroke="#FFD93D" stroke-width="2"/>
  <line x1="83.5" y1="103.57883832488648" x2="86" y2="99.24871130596428" stroke="#FFD93D" stroke-width="2"/>
  <line x1="71.42116167511352" y1="91.50000000000001" x2="75.75128869403572" y2="89.00000000000001" stroke="#FFD93D" stroke-width="2"/>
  <line x1="67" y1="75" x2="77" y2="75" stroke="#FFD93D" stroke-width="2"/>
  <line x1="71.42116167511352" y1="58.5" x2="75.75128869403572" y2="61" stroke="#FFD93D" stroke-width="2"/>
  <line x1="83.49999999999999" y1="46.42116167511353" x2="85.99999999999999" y2="50.75128869403572" stroke="#FFD93D" stroke-width="2"/>
  <line x1="100" y1="75" x2="100" y2="55" stroke="#FFD93D" stroke-width="4" stroke-linecap="round"/>
  <line x1="100" y1="75" x2="118" y2="85" stroke="#FFB3B3" stroke-width="3" stroke-linecap="round"/>
  <circle cx="100" cy="75" r="5" fill="#FFD93D" opacity="1"/>
  <polygon points="45,33 48.52671151375484,40.14589803375031 56.412678195541844,41.291796067500634 50.70633909777092,46.85410196624969 52.05342302750968,54.70820393249937 45,51 37.94657697249032,54.70820393249937 39.29366090222908,46.85410196624969 33.587321804458156,41.29179606750063 41.47328848624516,40.14589803375031" fill="#FFF3B0"/>
</svg>