<svg xmlns="http://www.w3.org/2000/svg" viewBox="0 0 200 150" width="200" height="150">
  <defs>
    <linearGradient id="bg79779" gradientTransform="rotate(45)">
      <stop offset="0%" style="stop-color:#E8F0E8"/>
      <stop offset="100%" style="stop-color:#C5DBC5"/>
    </linearGradient>
  </defs>
  <rect width="200" height="150" fill="url(#bg79779)" rx="16"/>
  <circle cx="55.62092928303173" cy="82.11062362715893" r="4.1513109310981235" fill="#E8F0E8" opacity="0.3"/><circle cx="52.763994248982726" cy="48.826046973499615" r="2.9097123267501956" fill="#E8F0E8" opacity="0.3"/><circle cx="84.55884582931503" cy="81.6273925214432" r="4.548865000323531" fill="#E8F0E8" opacity="0.3"/><circle cx="175.0307140584482" cy="68.51324213407679" r="3.400218569070603" fill="#E8F0E8" opacity="0.3"/><circle cx="33.30874593266344" cy="36.6448990715071" r="2.806902371106844" fill="#E8F0E8" opacity="0.3"/><circle cx="0.03500790771795437" cy="71.57905641322486" r="2.265669617515414" fill="#E8F0E8" opacity="0.3"/>
  <circle cx="100" cy="75" r="48" fill="#FFE5D9" opacity="1"/>
  <circle cx="80" cy="68" r="8" fill="#333" opacity="1"/>
  <circle cx="120" cy="68" r="8" fill="#333" opacity="1"/>
  <circle cx="78" cy="65" r="3" fill="white" opacity="1"/>
  <circle cx="118" cy="65" r="3" fill="white" opacity="1"/>
  <path d="M72 92 Q100 115 128 92" stroke="#333" stroke-width="4" fill="none" stroke-linecap="round"/>
  <ellipse cx="60" cy="82" rx="12" ry="7" fill="#FFB3B3" opacity="0.4"/>
  <ellipse cx="140" cy="82" rx="12" ry="7" fill="#FFB3B3" opacity="0.4"/>
  <path d="M45,42.25 C39,37 42,34 45,37.75 C48,34 51,37 45,42.25Z" fill="#FFB3B3"/>
  <path d="M160,46.8 C155.2,42.6 157.6,40.2 160,43.2 C162.4,40.2 164.8,42.6 160,46.8Z" fill="#FFD6D6"/>
</svg>