<svg xmlns="http://www.w3.org/2000/svg" viewBox="0 0 200 150" width="200" height="150">
  <defs>
    <linearGradient id="bg22207" gradientTransform="rotate(90)">
      <stop offset="0%" style="stop-color:#FFF5EB"/>
      <stop offset="100%" style="stop-color:#FFE4CC"/>
    </linearGradient>
  </defs>
  <rect width="200" height="150" fill="url(#bg22207)" rx="16"/>
  <circle cx="117.85144453533576" cy="97.2126924634722" r="3.0685091450050095" fill="#FFF5EB" opacity="0.3"/><circle cx="87.43169968474831" cy="66.41845814765475" r="4.26916340672426" fill="#FFF5EB" opacity="0.3"/><circle cx="83.93233885146856" cy="42.18277909003518" r="3.6147418110022045" fill="#FFF5EB" opacity="0.3"/><circle cx="157.15410909360799" cy="73.91384989750804" r="3.1834570483024436" fill="#FFF5EB" opacity="0.3"/><circle cx="40.289206988768456" cy="110.3318713405315" r="2.454288631154668" fill="#FFF5EB" opacity="0.3"/><circle cx="26.978191275702557" cy="13.058425085455383" r="4.306845233642889" fill="#FFF5EB" opacity="0.3"/>
  <circle cx="100" cy="75" r="48" fill="#FFE5D9" opacity="1"/>
  <circle cx="80" cy="68" r="8" fill="#333" opacity="1"/>
  <circle cx="120" cy="68" r="8" fill="#333" opacity="1"/>
  <circle cx="78" cy="65" r="3" fill="white" opacity="1"/>
  <circle cx="118" cy="65" r="3" fill="white" opacity="1"/>
  <path d="M72 92 Q100 115 128 92" stroke="#333" stroke-width="4" fill="none" stroke-linecap="round"/>
  <ellipse cx="60" cy="82" rx="12" ry="7" fill="#FFB3B3" opacity="0.4"/>
  <ellipse cx="140" cy="82" rx="12" ry="7" fill="#FFB3B3" opacity="0.4"/>
  <path d="M45,42.25 C39,37 42,34 45,37.75 C48,34 51,37 45,42.25Z" fill="#FFB3B3"/>
  <path d="M160,46.8 C155.2,42.6 157.6,40.2 160,43.2 C162.4,40.2 164.8,42.6 160,46.8Z" fill="#FFD6D6"/>
</svg>