<svg xmlns="http://www.w3.org/2000/svg" viewBox="0 0 200 150" width="200" height="150">
  <defs>
    <linearGradient id="bg23072" gradientTransform="rotate(135)">
      <stop offset="0%" style="stop-color:#FFF5EB"/>
      <stop offset="100%" style="stop-color:#FFE4CC"/>
    </linearGradient>
  </defs>
  <rect width="200" height="150" fill="url(#bg23072)" rx="16"/>
  <circle cx="86.63598680395808" cy="49.340467905403784" r="3.2767954148657736" fill="#FFF5EB" opacity="0.3"/><circle cx="34.02561893017264" cy="48.316819542196754" r="3.9398728534615657" fill="#FFF5EB" opacity="0.3"/><circle cx="41.24600033610477" cy="145.1148572521106" r="3.226388798356311" fill="#FFF5EB" opacity="0.3"/><circle cx="91.91462475100707" cy="51.48349622063506" r="3.0471919219326082" fill="#FFF5EB" opacity="0.3"/><circle cx="143.11968283655006" cy="132.9289445714494" r="2.4930686789102765" fill="#FFF5EB" opacity="0.3"/><circle cx="186.20309724828985" cy="146.94975442557734" r="2.632971711217351" fill="#FFF5EB" opacity="0.3"/>
  <circle cx="100" cy="75" r="48" fill="#FFE5D9" opacity="1"/>
  <circle cx="80" cy="68" r="8" fill="#333" opacity="1"/>
  <circle cx="120" cy="68" r="8" fill="#333" opacity="1"/>
  <circle cx="78" cy="65" r="3" fill="white" opacity="1"/>
  <circle cx="118" cy="65" r="3" fill="white" opacity="1"/>
  <path d="M72 92 Q100 115 128 92" stroke="#333" stroke-width="4" fill="none" stroke-linecap="round"/>
  <ellipse cx="60" cy="82" rx="12" ry="7" fill="#FFB3B3" opacity="0.4"/>
  <ellipse cx="140" cy="82" rx="12" ry="7" fill="#FFB3B3" opacity="0.4"/>
  <path d="M45,42.25 C39,37 42,34 45,37.75 C48,34 51,37 45,42.25Z" fill="#FFB3B3"/>
  <path d="M160,46.8 C155.2,42.6 157.6,40.2 160,43.2 C162.4,40.2 164.8,42.6 160,46.8Z" fill="#FFD6D6"/>
</svg>