<svg xmlns="http://www.w3.org/2000/svg" viewBox="0 0 200 150" width="200" height="150">
  <defs>
    <linearGradient id="bg23614" gradientTransform="rotate(90)">
      <stop offset="0%" style="stop-color:#FFE5D9"/>
      <stop offset="100%" style="stop-color:#FFCDB2"/>
    </linearGradient>
  </defs>
  <rect width="200" height="150" fill="url(#bg23614)" rx="16"/>
  <rect x="0" y="0" width="200" height="150" rx="0" fill="#1a1a3e"/>
  <polygon points="55.24585721399035,8.070541133860388 56.68119746333433,10.97885813839745 59.89071583170897,11.445228456205161 57.56828652284966,13.709037532876058 58.11653771267831,16.905587245162376 55.24585721399035,15.396381194048445 52.37517671530239,16.905587245162376 52.923427905131035,13.709037532876058 50.60099859627173,11.44522845620516 53.81051696464637,10.97885813839745" fill="#FFF3B0"/>
  <polygon points="25.076039191917516,48.47684531559571 26.014964422073575,50.37931562819219 28.11446506249216,50.6843909287599 26.59525212720484,52.16525754509988 26.953889652229638,54.256274762575295 25.076039191917516,53.26903035168198 23.198188731605395,54.256274762575295 23.556826256630192,52.165257545099884 22.03761332134287,50.6843909287599 24.137113961761457,50.37931562819219" fill="#FFF3B0"/>
  <polygon points="123.83412664994466,26.077971381266707 124.72439397622045,27.881850011978134 126.7150922359201,28.171115401197742 125.27460944293239,29.575239095776634 125.61466130249624,31.55789356879475 123.83412664994466,30.621811105742154 122.05359199739308,31.55789356879475 122.39364385695694,29.575239095776634 120.95316106396923,28.171115401197742 122.94385932366887,27.881850011978134" fill="#FFF3B0"/>
  <polygon points="113.77017948921093,26.499758078316518 115.12719736217252,29.249376614547725 118.16158157279683,29.69029844961303 115.96588053100389,31.83057799616596 116.48421523513413,34.8527012128495 113.77017948921093,33.42584818181422 111.05614374328773,34.8527012128495 111.57447844741797,31.83057799616596 109.37877740562503,29.69029844961303 112.41316161624933,29.249376614547725" fill="#FFF3B0"/>
  <polygon points="56.40600142001148,28.778765523318725 57.55265939578326,31.102148352476693 60.11666457655127,31.4747201136475 58.261332998281375,33.28322143211582 58.69931737155504,35.836866272925754 56.40600142001148,34.63119872728021 54.112685468467916,35.836866272925754 54.55066984174158,33.28322143211582 52.69533826347168,31.4747201136475 55.2593434442397,31.102148352476693" fill="#FFF3B0"/>
  <polygon points="93.31230597709691,25.790679180048755 94.24523373651002,27.68099728960213 96.33132362465427,27.98412389379788 94.8218148008756,29.455531339247063 95.17816149592312,31.533191993087748 93.31230597709691,30.552253696121625 91.44645045827072,31.533191993087748 91.80279715331822,29.455531339247063 90.29328832953955,27.98412389379788 92.37937821768381,27.68099728960213" fill="#FFF3B0"/>
  <polygon points="113.22835408246192,13.789734813632094 114.49688666152935,16.360062561493436 117.33341173999723,16.77223378174557 115.28088291122958,18.77295491240298 115.76541924059677,21.59801848356466 113.22835408246192,20.264204396459718 110.69128892432707,21.59801848356466 111.17582525369426,18.77295491240298 109.12329642492661,16.772233781745566 111.9598215033945,16.360062561493436" fill="#FFF3B0"/>
  <polygon points="62.32470285605814,15.137076272790637 63.4379009968282,17.392662071140762 65.92708771201643,17.754362072886806 64.12589528403728,19.510090762554796 64.55109913759826,21.989219455714874 62.32470285605814,20.81873366260288 60.09830657451801,21.989219455714874 60.52351042807899,19.510090762554796 58.72231800009984,17.754362072886806 61.21150471528808,17.392662071140762" fill="#FFF3B0"/>
  <polygon points="144.13858858411913,50.447233709885495 145.04171581330962,52.277169349965014 147.06116969011063,52.57061317493326 145.59987913711487,53.99501942269544 145.94484304250014,56.00631332039411 144.13858858411913,55.05670915521932 142.33233412573813,56.00631332039411 142.6772980311234,53.99501942269544 141.21600747812764,52.57061317493326 143.23546135492865,52.277169349965014" fill="#FFF3B0"/>
  <polygon points="71.92844194076315,37.83736193543518 72.63161544605461,39.26214707854933 74.2039592038631,39.490622000287665 73.06620057231312,40.59966256713642 73.33478895134606,42.165652977461825 71.92844194076315,41.42629259956266 70.52209493018024,42.165652977461825 70.79068330921318,40.59966256713642 69.6529246776632,39.49062200028766 71.22526843547169,39.26214707854933" fill="#FFF3B0"/>
  <path d="M155 25 A22 22 0 1 1 175 50 A18 18 0 1 0 155 25" fill="#FFE566"/>
  <rect x="35" y="75" width="130" height="50" rx="8" fill="#C9B8E8"/>
  <rect x="45" y="65" width="90" height="20" rx="8" fill="white"/>
  <rect x="40" y="90" width="120" height="30" rx="6" fill="#FFCDB2"/>
  <text x="170" y="75" fill="#E2D9F3" font-size="16" font-weight="bold">z</text>
  <text x="178" y="65" fill="#E2D9F3" font-size="13" font-weight="bold">z</text>
</svg>