<svg xmlns="http://www.w3.org/2000/svg" viewBox="0 0 200 150" width="200" height="150">
  <defs>
    <linearGradient id="bg23682" gradientTransform="rotate(45)">
      <stop offset="0%" style="stop-color:#E0F4FF"/>
      <stop offset="100%" style="stop-color:#BAE6FD"/>
    </linearGradient>
  </defs>
  <rect width="200" height="150" fill="url(#bg23682)" rx="16"/>
  <rect x="0" y="100" width="200" height="50" rx="0" fill="#C5DBC5"/>
  <circle cx="165" cy="35" r="22" fill="#FFE566" opacity="1"/>
  <line x1="191" y1="35" x2="200" y2="35" stroke="#FFF3B0" stroke-width="3" stroke-linecap="round"/>
  <line x1="183.38477631085024" y1="53.384776310850235" x2="189.74873734152916" y2="59.748737341529164" stroke="#FFF3B0" stroke-width="3" stroke-linecap="round"/>
  <line x1="165" y1="61" x2="165" y2="70" stroke="#FFF3B0" stroke-width="3" stroke-linecap="round"/>
  <line x1="146.61522368914976" y1="53.38477631085024" x2="140.25126265847084" y2="59.748737341529164" stroke="#FFF3B0" stroke-width="3" stroke-linecap="round"/>
  <line x1="139" y1="35" x2="130" y2="35.00000000000001" stroke="#FFF3B0" stroke-width="3" stroke-linecap="round"/>
  <line x1="146.61522368914976" y1="16.615223689149765" x2="140.25126265847084" y2="10.25126265847084" stroke="#FFF3B0" stroke-width="3" stroke-linecap="round"/>
  <line x1="165" y1="9" x2="165" y2="0" stroke="#FFF3B0" stroke-width="3" stroke-linecap="round"/>
  <line x1="183.38477631085024" y1="16.61522368914976" x2="189.74873734152916" y2="10.251262658470832" stroke="#FFF3B0" stroke-width="3" stroke-linecap="round"/>
  <rect x="90" y="55" width="14" height="50" rx="2" fill="#8B6914"/>
  <path d="M77.98926283461333,34.99517842022033 Q87.98926283461333,46.99517842022033 77.98926283461333,58.99517842022033 Q67.98926283461333,46.99517842022033 77.98926283461333,34.99517842022033Z" fill="#B7E4C7"/>
  <path d="M89.59892575544654,25.158510827212012 Q99.59892575544654,37.15851082721201 89.59892575544654,49.15851082721201 Q79.59892575544654,37.15851082721201 89.59892575544654,25.158510827212012Z" fill="#95D5B2"/>
  <path d="M104.57364358654013,23.393976546492922 Q114.57364358654013,35.39397654649292 104.57364358654013,47.39397654649292 Q94.57364358654013,35.39397654649292 104.57364358654013,23.393976546492922Z" fill="#B7E4C7"/>
  <path d="M112.73886406424572,37.05689687220729 Q122.73886406424572,49.05689687220729 112.73886406424572,61.05689687220729 Q102.73886406424572,49.05689687220729 112.73886406424572,37.05689687220729Z" fill="#95D5B2"/>
  <path d="M126.22595938648738,35.739084421336884 Q136.22595938648738,47.739084421336884 126.22595938648738,59.739084421336884 Q116.22595938648738,47.739084421336884 126.22595938648738,35.739084421336884Z" fill="#B7E4C7"/>
  <circle cx="45" cy="95" r="8" fill="#FFB3B3" opacity="1"/>
  <circle cx="155" cy="98" r="6" fill="#C9B8E8" opacity="1"/>
</svg>