<svg xmlns="http://www.w3.org/2000/svg" viewBox="0 0 200 150" width="200" height="150">
  <defs>
    <linearGradient id="bg23821" gradientTransform="rotate(90)">
      <stop offset="0%" style="stop-color:#E2D9F3"/>
      <stop offset="100%" style="stop-color:#C9B8E8"/>
    </linearGradient>
  </defs>
  <rect width="200" height="150" fill="url(#bg23821)" rx="16"/>
  <rect x="0" y="0" width="200" height="150" rx="0" fill="#1a1a3e"/>
  <polygon points="121.64742446322634,19.973431236013084 122.34064907572261,21.378057720505502 123.89074643294022,21.603300051018966 122.76908544808327,22.69664929044702 123.03387368821888,24.240483190901994 121.64742446322634,23.51158369794996 120.26097523823381,24.240483190901994 120.52576347836941,22.69664929044702 119.40410249351247,21.603300051018966 120.95419985073008,21.378057720505502" fill="#FFF3B0"/>
  <polygon points="147.18342453390505,38.13136223546189 148.1961988844151,40.18346720966129 150.4608311780238,40.512537543981495 148.82212785596442,42.109878500839656 149.20897323492517,44.36536012633823 147.18342453390505,43.30046615509946 145.15787583288494,44.36536012633823 145.54472121184568,42.109878500839656 143.9060178897863,40.512537543981495 146.170650183395,40.18346720966129" fill="#FFF3B0"/>
  <polygon points="41.24873074046263,33.16510920294331 42.70016799169184,36.106042295774614 45.9456803505158,36.57764284654514 43.59720554548922,38.866840007324754 44.15160524292106,42.099238269645404 41.24873074046263,40.57310682912566 38.34585623800421,42.099238269645404 38.90025593543605,38.866840007324754 36.551781130409466,36.57764284654513 39.797293489233425,36.106042295774614" fill="#FFF3B0"/>
  <polygon points="72.08896133448434,8.052265766141318 73.10436496724985,10.109698248084452 75.37487651471379,10.439622887996414 73.73191892459906,12.041110731307288 74.11976860001538,14.302447854442086 72.08896133448434,13.234789292234836 70.0581540689533,14.302447854442086 70.44600374436962,12.041110731307288 68.80304615425489,10.439622887996414 71.07355770171883,10.109698248084452" fill="#FFF3B0"/>
  <polygon points="177.42806888247287,17.78959996532194 178.45945462261307,19.87941573385328 180.76570324859046,20.21453327523858 179.09688606553166,21.84122799180173 179.49084036275326,24.138157791135484 177.42806888247287,23.05369464676005 175.36529740219248,24.138157791135484 175.75925169941408,21.84122799180173 174.0904345163553,20.21453327523858 176.39668314233268,19.87941573385328" fill="#FFF3B0"/>
  <polygon points="69.26010446064538,6.066913629510054 70.42072754969625,8.418592868831688 73.01595967306979,8.795702170366994 71.13803206685758,10.626229172440567 71.58135063874713,13.210974777584752 69.26010446064538,11.990623442869037 66.93885828254363,13.210974777584752 67.38217685443318,10.626229172440567 65.50424924822097,8.795702170366992 68.0994813715945,8.418592868831688" fill="#FFF3B0"/>
  <polygon points="164.2414980896865,16.34673379346259 165.3942213551552,18.682406241873608 167.97178893598877,19.0569487351303 166.10664351283765,20.875016188091692 166.54694462062392,23.442168627566478 164.2414980896865,22.23012365892555 161.93605155874909,23.442168627566478 162.37635266653535,20.875016188091692 160.51120724338423,19.0569487351303 163.08877482421778,18.682406241873608" fill="#FFF3B0"/>
  <polygon points="29.160771836013737,11.021182953147218 29.96112629589173,12.642878217656179 31.750773274274053,12.902929145638389 30.455772555143895,14.165242866481886 30.761480755769725,15.947658443289804 29.160771836013737,15.106115962727472 27.56006291625775,15.947658443289804 27.86577111688358,14.165242866481886 26.57077039775342,12.902929145638387 28.360417376135743,12.642878217656179" fill="#FFF3B0"/>
  <polygon points="55.01012134708844,15.705543770771328 55.90193719465725,17.512560048330204 57.896098053232684,17.802328582617953 56.45310970016057,19.2088945946614 56.79375304222605,21.19499767528034 55.01012134708844,20.25728700058471 53.226489651950835,21.19499767528034 53.56713299401632,19.2088945946614 52.1241446409442,17.80232858261795 54.118305499519636,17.512560048330204" fill="#FFF3B0"/>
  <polygon points="169.77994244169167,50.56201381280334 170.5971222477018,52.21780095224278 172.42439184378054,52.48331876657926 171.1021671427361,53.772169311224275 171.41430205371194,55.59205548454224 169.77994244169167,54.73282178811223 168.1455828296714,55.59205548454224 168.45771774064724,53.772169311224275 167.1354930396028,52.48331876657926 168.96276263568154,52.21780095224278" fill="#FFF3B0"/>
  <path d="M155 25 A22 22 0 1 1 175 50 A18 18 0 1 0 155 25" fill="#FFE566"/>
  <rect x="35" y="75" width="130" height="50" rx="8" fill="#C9B8E8"/>
  <rect x="45" y="65" width="90" height="20" rx="8" fill="white"/>
  <rect x="40" y="90" width="120" height="30" rx="6" fill="#C9B8E8"/>
  <text x="170" y="75" fill="#E2D9F3" font-size="16" font-weight="bold">z</text>
  <text x="178" y="65" fill="#E2D9F3" font-size="13" font-weight="bold">z</text>
</svg>