<svg xmlns="http://www.w3.org/2000/svg" viewBox="0 0 200 150" width="200" height="150">
  <defs>
    <linearGradient id="bg264" gradientTransform="rotate(45)">
      <stop offset="0%" style="stop-color:#FFE5D9"/>
      <stop offset="100%" style="stop-color:#FFCDB2"/>
    </linearGradient>
  </defs>
  <rect width="200" height="150" fill="url(#bg264)" rx="16"/>
  <circle cx="153.78752197175345" cy="38.92018125987988" r="3.0464613905560327" fill="#FFE5D9" opacity="0.3"/><circle cx="162.23246884364926" cy="35.41916600888726" r="4.590218488558094" fill="#FFE5D9" opacity="0.3"/><circle cx="40.983540551133046" cy="61.861048581158684" r="3.895340196872894" fill="#FFE5D9" opacity="0.3"/><circle cx="78.81374094140483" cy="145.024813556347" r="3.499530964807491" fill="#FFE5D9" opacity="0.3"/><circle cx="195.17361099169648" cy="142.7822677189397" r="3.685573048778906" fill="#FFE5D9" opacity="0.3"/><circle cx="116.82758187089348" cy="87.75346681907195" r="4.610745814655274" fill="#FFE5D9" opacity="0.3"/>
  <ellipse cx="100" cy="95" rx="32" ry="28" fill="#FFCDB2" opacity="1"/>
  <circle cx="100" cy="58" r="28" fill="#FFCDB2" opacity="1"/>
  <ellipse cx="82" cy="25" rx="10" ry="24" fill="#FFCDB2" opacity="1"/>
  <ellipse cx="118" cy="25" rx="10" ry="24" fill="#FFCDB2" opacity="1"/>
  <ellipse cx="82" cy="27" rx="5" ry="15" fill="#FFD6D6" opacity="1"/>
  <ellipse cx="118" cy="27" rx="5" ry="15" fill="#FFD6D6" opacity="1"/>
  <circle cx="88" cy="52" r="5" fill="#333" opacity="1"/>
  <circle cx="112" cy="52" r="5" fill="#333" opacity="1"/>
  <circle cx="86" cy="50" r="2" fill="white" opacity="1"/>
  <circle cx="110" cy="50" r="2" fill="white" opacity="1"/>
  <ellipse cx="100" cy="68" rx="6" ry="4" fill="#FFB3B3" opacity="1"/>
  <path d="M50,46.8 C45.2,42.6 47.6,40.2 50,43.2 C52.4,40.2 54.8,42.6 50,46.8Z" fill="#FFB3B3"/>
  <path d="M155,51.5 C151,48 153,46 155,48.5 C157,46 159,48 155,51.5Z" fill="#FFD6D6"/>
</svg>