<svg xmlns="http://www.w3.org/2000/svg" viewBox="0 0 200 150" width="200" height="150">
  <defs>
    <linearGradient id="bg266" gradientTransform="rotate(180)">
      <stop offset="0%" style="stop-color:#D4E9FF"/>
      <stop offset="100%" style="stop-color:#A8D0F0"/>
    </linearGradient>
  </defs>
  <rect width="200" height="150" fill="url(#bg266)" rx="16"/>
  <circle cx="132.2127882620407" cy="76.00524011061225" r="4.873869206307063" fill="#D4E9FF" opacity="0.3"/><circle cx="149.65736532576557" cy="13.942135384104404" r="3.5980293524626177" fill="#D4E9FF" opacity="0.3"/><circle cx="120.08674857097503" cy="13.776543448148004" r="4.457783818748794" fill="#D4E9FF" opacity="0.3"/><circle cx="143.47410114751256" cy="88.09994972325512" r="2.2660126066391513" fill="#D4E9FF" opacity="0.3"/><circle cx="109.49879565905576" cy="131.81287269131303" r="4.341190452653791" fill="#D4E9FF" opacity="0.3"/><circle cx="187.13004776691378" cy="98.52521651525876" r="3.8800649943095777" fill="#D4E9FF" opacity="0.3"/>
  <ellipse cx="100" cy="95" rx="32" ry="28" fill="#A8D0F0" opacity="1"/>
  <circle cx="100" cy="58" r="28" fill="#A8D0F0" opacity="1"/>
  <ellipse cx="82" cy="25" rx="10" ry="24" fill="#A8D0F0" opacity="1"/>
  <ellipse cx="118" cy="25" rx="10" ry="24" fill="#A8D0F0" opacity="1"/>
  <ellipse cx="82" cy="27" rx="5" ry="15" fill="#FFD6D6" opacity="1"/>
  <ellipse cx="118" cy="27" rx="5" ry="15" fill="#FFD6D6" opacity="1"/>
  <circle cx="88" cy="52" r="5" fill="#333" opacity="1"/>
  <circle cx="112" cy="52" r="5" fill="#333" opacity="1"/>
  <circle cx="86" cy="50" r="2" fill="white" opacity="1"/>
  <circle cx="110" cy="50" r="2" fill="white" opacity="1"/>
  <ellipse cx="100" cy="68" rx="6" ry="4" fill="#FFB3B3" opacity="1"/>
  <path d="M50,46.8 C45.2,42.6 47.6,40.2 50,43.2 C52.4,40.2 54.8,42.6 50,46.8Z" fill="#FFB3B3"/>
  <path d="M155,51.5 C151,48 153,46 155,48.5 C157,46 159,48 155,51.5Z" fill="#FFD6D6"/>
</svg>