<svg xmlns="http://www.w3.org/2000/svg" viewBox="0 0 200 150" width="200" height="150">
  <defs>
    <linearGradient id="bg27222" gradientTransform="rotate(0)">
      <stop offset="0%" style="stop-color:#D0F0F0"/>
      <stop offset="100%" style="stop-color:#A0E0E0"/>
    </linearGradient>
  </defs>
  <rect width="200" height="150" fill="url(#bg27222)" rx="16"/>
  <circle cx="27.882492738353903" cy="14.474109781804145" r="2.002291600171702" fill="#D0F0F0" opacity="0.3"/><circle cx="1.2129860315326368" cy="80.56985014802649" r="4.341666980552873" fill="#D0F0F0" opacity="0.3"/><circle cx="182.0533742162297" cy="27.792328265786637" r="4.161017348862515" fill="#D0F0F0" opacity="0.3"/><circle cx="108.5787144034839" cy="143.69687189400793" r="4.482218860573084" fill="#D0F0F0" opacity="0.3"/><circle cx="92.5691445197117" cy="130.66203030580255" r="3.5358635872999002" fill="#D0F0F0" opacity="0.3"/><circle cx="174.555475950865" cy="0.19313354905534652" r="3.7226062786498915" fill="#D0F0F0" opacity="0.3"/>
  <circle cx="100" cy="75" r="48" fill="#FFE5D9" opacity="1"/>
  <circle cx="80" cy="68" r="8" fill="#333" opacity="1"/>
  <circle cx="120" cy="68" r="8" fill="#333" opacity="1"/>
  <circle cx="78" cy="65" r="3" fill="white" opacity="1"/>
  <circle cx="118" cy="65" r="3" fill="white" opacity="1"/>
  <path d="M72 92 Q100 115 128 92" stroke="#333" stroke-width="4" fill="none" stroke-linecap="round"/>
  <ellipse cx="60" cy="82" rx="12" ry="7" fill="#FFB3B3" opacity="0.4"/>
  <ellipse cx="140" cy="82" rx="12" ry="7" fill="#FFB3B3" opacity="0.4"/>
  <path d="M45,42.25 C39,37 42,34 45,37.75 C48,34 51,37 45,42.25Z" fill="#FFB3B3"/>
  <path d="M160,46.8 C155.2,42.6 157.6,40.2 160,43.2 C162.4,40.2 164.8,42.6 160,46.8Z" fill="#FFD6D6"/>
</svg>