<svg xmlns="http://www.w3.org/2000/svg" viewBox="0 0 200 150" width="200" height="150">
  <defs>
    <linearGradient id="bg27780" gradientTransform="rotate(180)">
      <stop offset="0%" style="stop-color:#E2D9F3"/>
      <stop offset="100%" style="stop-color:#C9B8E8"/>
    </linearGradient>
  </defs>
  <rect width="200" height="150" fill="url(#bg27780)" rx="16"/>
  <circle cx="178.5973055744762" cy="63.13458546019319" r="2.5629853524387727" fill="#E2D9F3" opacity="0.3"/><circle cx="16.19047406657046" cy="6.348800080013461" r="3.6582526507681905" fill="#E2D9F3" opacity="0.3"/><circle cx="47.22143251910893" cy="50.36865162126105" r="4.833560912238681" fill="#E2D9F3" opacity="0.3"/><circle cx="162.7593395212898" cy="64.91927062143077" r="3.927249840487093" fill="#E2D9F3" opacity="0.3"/><circle cx="132.28446745961264" cy="92.3137638914568" r="3.3096577265080214" fill="#E2D9F3" opacity="0.3"/><circle cx="101.02877054305281" cy="62.33722208085055" r="3.1988429903610722" fill="#E2D9F3" opacity="0.3"/>
  <ellipse cx="100" cy="95" rx="32" ry="28" fill="#C9B8E8" opacity="1"/>
  <circle cx="100" cy="58" r="28" fill="#C9B8E8" opacity="1"/>
  <ellipse cx="82" cy="25" rx="10" ry="24" fill="#C9B8E8" opacity="1"/>
  <ellipse cx="118" cy="25" rx="10" ry="24" fill="#C9B8E8" opacity="1"/>
  <ellipse cx="82" cy="27" rx="5" ry="15" fill="#FFD6D6" opacity="1"/>
  <ellipse cx="118" cy="27" rx="5" ry="15" fill="#FFD6D6" opacity="1"/>
  <circle cx="88" cy="52" r="5" fill="#333" opacity="1"/>
  <circle cx="112" cy="52" r="5" fill="#333" opacity="1"/>
  <circle cx="86" cy="50" r="2" fill="white" opacity="1"/>
  <circle cx="110" cy="50" r="2" fill="white" opacity="1"/>
  <ellipse cx="100" cy="68" rx="6" ry="4" fill="#FFB3B3" opacity="1"/>
  <path d="M50,46.8 C45.2,42.6 47.6,40.2 50,43.2 C52.4,40.2 54.8,42.6 50,46.8Z" fill="#FFB3B3"/>
  <path d="M155,51.5 C151,48 153,46 155,48.5 C157,46 159,48 155,51.5Z" fill="#FFD6D6"/>
</svg>