<svg xmlns="http://www.w3.org/2000/svg" viewBox="0 0 200 150" width="200" height="150">
  <defs>
    <linearGradient id="bg27869" gradientTransform="rotate(90)">
      <stop offset="0%" style="stop-color:#FFE4EC"/>
      <stop offset="100%" style="stop-color:#FFC8DD"/>
    </linearGradient>
  </defs>
  <rect width="200" height="150" fill="url(#bg27869)" rx="16"/>
  <circle cx="151.57885699627514" cy="86.46475183390976" r="2.772014654272425" fill="#FFE4EC" opacity="0.3"/><circle cx="15.49054931710998" cy="137.42278461752448" r="4.211639309165548" fill="#FFE4EC" opacity="0.3"/><circle cx="67.7644162236902" cy="138.28908996420637" r="2.420443618898844" fill="#FFE4EC" opacity="0.3"/><circle cx="164.72202930490312" cy="135.94051073596347" r="3.257683242697567" fill="#FFE4EC" opacity="0.3"/><circle cx="22.84467326308004" cy="47.3857793955176" r="3.5580160092204096" fill="#FFE4EC" opacity="0.3"/><circle cx="47.27698990573117" cy="28.5205297479024" r="3.0786601408426577" fill="#FFE4EC" opacity="0.3"/>
  <circle cx="100" cy="75" r="48" fill="#FFE5D9" opacity="1"/>
  <circle cx="80" cy="68" r="8" fill="#333" opacity="1"/>
  <circle cx="120" cy="68" r="8" fill="#333" opacity="1"/>
  <circle cx="78" cy="65" r="3" fill="white" opacity="1"/>
  <circle cx="118" cy="65" r="3" fill="white" opacity="1"/>
  <path d="M72 92 Q100 115 128 92" stroke="#333" stroke-width="4" fill="none" stroke-linecap="round"/>
  <ellipse cx="60" cy="82" rx="12" ry="7" fill="#FFB3B3" opacity="0.4"/>
  <ellipse cx="140" cy="82" rx="12" ry="7" fill="#FFB3B3" opacity="0.4"/>
  <path d="M45,42.25 C39,37 42,34 45,37.75 C48,34 51,37 45,42.25Z" fill="#FFB3B3"/>
  <path d="M160,46.8 C155.2,42.6 157.6,40.2 160,43.2 C162.4,40.2 164.8,42.6 160,46.8Z" fill="#FFD6D6"/>
</svg>