<svg xmlns="http://www.w3.org/2000/svg" viewBox="0 0 200 150" width="200" height="150">
  <defs>
    <linearGradient id="bg280" gradientTransform="rotate(0)">
      <stop offset="0%" style="stop-color:#FFE4EC"/>
      <stop offset="100%" style="stop-color:#FFC8DD"/>
    </linearGradient>
  </defs>
  <rect width="200" height="150" fill="url(#bg280)" rx="16"/>
  <circle cx="16.261195237893844" cy="128.8105232273665" r="2.9983890285311645" fill="#FFE4EC" opacity="0.3"/><circle cx="8.038565004335396" cy="131.77733765560333" r="2.8848568069934117" fill="#FFE4EC" opacity="0.3"/><circle cx="116.67991144822736" cy="80.05941255523794" r="3.1902602808213487" fill="#FFE4EC" opacity="0.3"/><circle cx="103.83102891350973" cy="103.48902192245077" r="2.4906834497805903" fill="#FFE4EC" opacity="0.3"/><circle cx="127.80212039833714" cy="62.057829324589875" r="3.878271906669397" fill="#FFE4EC" opacity="0.3"/><circle cx="120.9357911880943" cy="94.88396890210424" r="4.403224090321601" fill="#FFE4EC" opacity="0.3"/>
  <circle cx="100" cy="75" r="48" fill="#FFE5D9" opacity="1"/>
  <circle cx="80" cy="68" r="8" fill="#333" opacity="1"/>
  <circle cx="120" cy="68" r="8" fill="#333" opacity="1"/>
  <circle cx="78" cy="65" r="3" fill="white" opacity="1"/>
  <circle cx="118" cy="65" r="3" fill="white" opacity="1"/>
  <path d="M72 92 Q100 115 128 92" stroke="#333" stroke-width="4" fill="none" stroke-linecap="round"/>
  <ellipse cx="60" cy="82" rx="12" ry="7" fill="#FFB3B3" opacity="0.4"/>
  <ellipse cx="140" cy="82" rx="12" ry="7" fill="#FFB3B3" opacity="0.4"/>
  <path d="M45,42.25 C39,37 42,34 45,37.75 C48,34 51,37 45,42.25Z" fill="#FFB3B3"/>
  <path d="M160,46.8 C155.2,42.6 157.6,40.2 160,43.2 C162.4,40.2 164.8,42.6 160,46.8Z" fill="#FFD6D6"/>
</svg>