<svg xmlns="http://www.w3.org/2000/svg" viewBox="0 0 200 150" width="200" height="150">
  <defs>
    <linearGradient id="bg28038" gradientTransform="rotate(90)">
      <stop offset="0%" style="stop-color:#FFF5EB"/>
      <stop offset="100%" style="stop-color:#FFE4CC"/>
    </linearGradient>
  </defs>
  <rect width="200" height="150" fill="url(#bg28038)" rx="16"/>
  <rect x="0" y="100" width="200" height="50" rx="0" fill="#C5DBC5"/>
  <circle cx="165" cy="35" r="22" fill="#FFE566" opacity="1"/>
  <line x1="191" y1="35" x2="200" y2="35" stroke="#FFF3B0" stroke-width="3" stroke-linecap="round"/>
  <line x1="183.38477631085024" y1="53.384776310850235" x2="189.74873734152916" y2="59.748737341529164" stroke="#FFF3B0" stroke-width="3" stroke-linecap="round"/>
  <line x1="165" y1="61" x2="165" y2="70" stroke="#FFF3B0" stroke-width="3" stroke-linecap="round"/>
  <line x1="146.61522368914976" y1="53.38477631085024" x2="140.25126265847084" y2="59.748737341529164" stroke="#FFF3B0" stroke-width="3" stroke-linecap="round"/>
  <line x1="139" y1="35" x2="130" y2="35.00000000000001" stroke="#FFF3B0" stroke-width="3" stroke-linecap="round"/>
  <line x1="146.61522368914976" y1="16.615223689149765" x2="140.25126265847084" y2="10.25126265847084" stroke="#FFF3B0" stroke-width="3" stroke-linecap="round"/>
  <line x1="165" y1="9" x2="165" y2="0" stroke="#FFF3B0" stroke-width="3" stroke-linecap="round"/>
  <line x1="183.38477631085024" y1="16.61522368914976" x2="189.74873734152916" y2="10.251262658470832" stroke="#FFF3B0" stroke-width="3" stroke-linecap="round"/>
  <rect x="90" y="55" width="14" height="50" rx="2" fill="#8B6914"/>
  <path d="M76.4855335871689,34.01308061250165 Q86.4855335871689,46.01308061250165 76.4855335871689,58.01308061250165 Q66.4855335871689,46.01308061250165 76.4855335871689,34.01308061250165Z" fill="#B7E4C7"/>
  <path d="M88.81480021691823,40.02832980533458 Q98.81480021691823,52.02832980533458 88.81480021691823,64.02832980533458 Q78.81480021691823,52.02832980533458 88.81480021691823,40.02832980533458Z" fill="#95D5B2"/>
  <path d="M101.59987772318709,24.670486280527257 Q111.59987772318709,36.67048628052726 101.59987772318709,48.67048628052726 Q91.59987772318709,36.67048628052726 101.59987772318709,24.670486280527257Z" fill="#B7E4C7"/>
  <path d="M117.1022360618299,26.25185638561379 Q127.1022360618299,38.25185638561379 117.1022360618299,50.25185638561379 Q107.1022360618299,38.25185638561379 117.1022360618299,26.25185638561379Z" fill="#95D5B2"/>
  <path d="M128.76177719241423,23.636714276042767 Q138.76177719241423,35.63671427604277 128.76177719241423,47.63671427604277 Q118.76177719241423,35.63671427604277 128.76177719241423,23.636714276042767Z" fill="#B7E4C7"/>
  <circle cx="45" cy="95" r="8" fill="#FFB3B3" opacity="1"/>
  <circle cx="155" cy="98" r="6" fill="#C9B8E8" opacity="1"/>
</svg>