<svg xmlns="http://www.w3.org/2000/svg" viewBox="0 0 200 150" width="200" height="150">
  <defs>
    <linearGradient id="bg285" gradientTransform="rotate(0)">
      <stop offset="0%" style="stop-color:#FFE5D9"/>
      <stop offset="100%" style="stop-color:#FFCDB2"/>
    </linearGradient>
  </defs>
  <rect width="200" height="150" fill="url(#bg285)" rx="16"/>
  <circle cx="91.07405844879395" cy="48.81889646385389" r="4.426609503881991" fill="#FFE5D9" opacity="0.3"/><circle cx="22.200115204395843" cy="61.522516178570186" r="3.781153803020061" fill="#FFE5D9" opacity="0.3"/><circle cx="165.4615362698678" cy="59.549676966162224" r="2.0858532984161684" fill="#FFE5D9" opacity="0.3"/><circle cx="84.3614811576117" cy="19.338487892673584" r="3.214524537616853" fill="#FFE5D9" opacity="0.3"/><circle cx="43.63515707264014" cy="20.2117076295508" r="4.374864354837882" fill="#FFE5D9" opacity="0.3"/><circle cx="178.29749935472137" cy="7.714718366514717" r="4.734253585498664" fill="#FFE5D9" opacity="0.3"/>
  <path d="M55 45 L55 115 L100 125 L145 115 L145 45 L125 40 L100 48 L75 40 Z" fill="#FFCDB2"/>
  <rect x="80" y="70" width="40" height="40" rx="5" fill="#FFE5D9"/>
  <rect x="85" y="75" width="30" height="30" rx="3" fill="#FFB4A2"/>
  <rect x="90" y="62" width="5" height="20" rx="1" fill="#8B4513"/>
  <circle cx="92.5" cy="58" r="7" fill="#B7E4C7" opacity="1"/>
  <polygon points="45,25 49.40838939219355,33.93237254218789 59.265847744427305,35.36474508437579 52.13292387221365,42.31762745781211 53.8167787843871,52.135254915624216 45,47.5 36.1832212156129,52.135254915624216 37.86707612778635,42.31762745781211 30.734152255572695,35.364745084375784 40.59161060780645,33.93237254218789" fill="#FFE566"/>
  <polygon points="160,32 163.82060413990106,39.74138953656284 172.363734711837,40.982779073125684 166.18186735591848,47.00861046343716 167.64120827980216,55.517220926874316 160,51.5 152.35879172019784,55.517220926874316 153.81813264408152,47.00861046343716 147.636265288163,40.98277907312568 156.17939586009894,39.74138953656284" fill="#FFF3B0"/>
  <polygon points="100,15 102.93892626146237,20.954915028125264 109.51056516295154,21.909830056250527 104.75528258147577,26.545084971874736 105.87785252292473,33.09016994374947 100,30 94.12214747707527,33.09016994374947 95.24471741852423,26.545084971874736 90.48943483704846,21.909830056250524 97.06107373853763,20.954915028125264" fill="#FFB3B3"/>
</svg>