<svg xmlns="http://www.w3.org/2000/svg" viewBox="0 0 200 150" width="200" height="150">
  <defs>
    <linearGradient id="bg28970" gradientTransform="rotate(90)">
      <stop offset="0%" style="stop-color:#FFD6D6"/>
      <stop offset="100%" style="stop-color:#FFB3B3"/>
    </linearGradient>
  </defs>
  <rect width="200" height="150" fill="url(#bg28970)" rx="16"/>
  <circle cx="194.29689594144293" cy="62.72238972319428" r="4.450201366265901" fill="#FFD6D6" opacity="0.3"/><circle cx="105.78228213780676" cy="106.34822506008277" r="4.972026598703451" fill="#FFD6D6" opacity="0.3"/><circle cx="190.17837920728198" cy="100.01048093749887" r="2.959681116795764" fill="#FFD6D6" opacity="0.3"/><circle cx="194.81471289975616" cy="106.94812825931876" r="3.1947966840307345" fill="#FFD6D6" opacity="0.3"/><circle cx="67.31503243845509" cy="109.78918734599574" r="3.2339182707964937" fill="#FFD6D6" opacity="0.3"/><circle cx="197.56397493974873" cy="96.22175691774828" r="3.4728262492672" fill="#FFD6D6" opacity="0.3"/>
  <circle cx="100" cy="75" r="48" fill="#FFE5D9" opacity="1"/>
  <circle cx="80" cy="68" r="8" fill="#333" opacity="1"/>
  <circle cx="120" cy="68" r="8" fill="#333" opacity="1"/>
  <circle cx="78" cy="65" r="3" fill="white" opacity="1"/>
  <circle cx="118" cy="65" r="3" fill="white" opacity="1"/>
  <path d="M72 92 Q100 115 128 92" stroke="#333" stroke-width="4" fill="none" stroke-linecap="round"/>
  <ellipse cx="60" cy="82" rx="12" ry="7" fill="#FFB3B3" opacity="0.4"/>
  <ellipse cx="140" cy="82" rx="12" ry="7" fill="#FFB3B3" opacity="0.4"/>
  <path d="M45,42.25 C39,37 42,34 45,37.75 C48,34 51,37 45,42.25Z" fill="#FFB3B3"/>
  <path d="M160,46.8 C155.2,42.6 157.6,40.2 160,43.2 C162.4,40.2 164.8,42.6 160,46.8Z" fill="#FFD6D6"/>
</svg>