<svg xmlns="http://www.w3.org/2000/svg" viewBox="0 0 200 150" width="200" height="150">
  <defs>
    <linearGradient id="bg293" gradientTransform="rotate(45)">
      <stop offset="0%" style="stop-color:#E0F4FF"/>
      <stop offset="100%" style="stop-color:#BAE6FD"/>
    </linearGradient>
  </defs>
  <rect width="200" height="150" fill="url(#bg293)" rx="16"/>
  <rect x="0" y="100" width="200" height="50" rx="0" fill="#C5DBC5"/>
  <circle cx="165" cy="35" r="22" fill="#FFE566" opacity="1"/>
  <line x1="191" y1="35" x2="200" y2="35" stroke="#FFF3B0" stroke-width="3" stroke-linecap="round"/>
  <line x1="183.38477631085024" y1="53.384776310850235" x2="189.74873734152916" y2="59.748737341529164" stroke="#FFF3B0" stroke-width="3" stroke-linecap="round"/>
  <line x1="165" y1="61" x2="165" y2="70" stroke="#FFF3B0" stroke-width="3" stroke-linecap="round"/>
  <line x1="146.61522368914976" y1="53.38477631085024" x2="140.25126265847084" y2="59.748737341529164" stroke="#FFF3B0" stroke-width="3" stroke-linecap="round"/>
  <line x1="139" y1="35" x2="130" y2="35.00000000000001" stroke="#FFF3B0" stroke-width="3" stroke-linecap="round"/>
  <line x1="146.61522368914976" y1="16.615223689149765" x2="140.25126265847084" y2="10.25126265847084" stroke="#FFF3B0" stroke-width="3" stroke-linecap="round"/>
  <line x1="165" y1="9" x2="165" y2="0" stroke="#FFF3B0" stroke-width="3" stroke-linecap="round"/>
  <line x1="183.38477631085024" y1="16.61522368914976" x2="189.74873734152916" y2="10.251262658470832" stroke="#FFF3B0" stroke-width="3" stroke-linecap="round"/>
  <rect x="90" y="55" width="14" height="50" rx="2" fill="#8B6914"/>
  <path d="M77.81922205186856,35.66756645895839 Q87.81922205186856,47.66756645895839 77.81922205186856,59.66756645895839 Q67.81922205186856,47.66756645895839 77.81922205186856,35.66756645895839Z" fill="#B7E4C7"/>
  <path d="M89.6746330128226,27.321657363543636 Q99.6746330128226,39.321657363543636 89.6746330128226,51.321657363543636 Q79.6746330128226,39.321657363543636 89.6746330128226,27.321657363543636Z" fill="#95D5B2"/>
  <path d="M106.0760020762973,42.732738812167554 Q116.0760020762973,54.732738812167554 106.0760020762973,66.73273881216755 Q96.0760020762973,54.732738812167554 106.0760020762973,42.732738812167554Z" fill="#B7E4C7"/>
  <path d="M111.0624781466795,35.866146763944926 Q121.0624781466795,47.866146763944926 111.0624781466795,59.866146763944926 Q101.0624781466795,47.866146763944926 111.0624781466795,35.866146763944926Z" fill="#95D5B2"/>
  <path d="M127.92534696237999,29.80390274585079 Q137.92534696238,41.80390274585079 127.92534696237999,53.80390274585079 Q117.92534696237999,41.80390274585079 127.92534696237999,29.80390274585079Z" fill="#B7E4C7"/>
  <circle cx="45" cy="95" r="8" fill="#FFB3B3" opacity="1"/>
  <circle cx="155" cy="98" r="6" fill="#C9B8E8" opacity="1"/>
</svg>