<svg xmlns="http://www.w3.org/2000/svg" viewBox="0 0 200 150" width="200" height="150">
  <defs>
    <linearGradient id="bg29442" gradientTransform="rotate(0)">
      <stop offset="0%" style="stop-color:#D0F0F0"/>
      <stop offset="100%" style="stop-color:#A0E0E0"/>
    </linearGradient>
  </defs>
  <rect width="200" height="150" fill="url(#bg29442)" rx="16"/>
  <circle cx="14.599216987517138" cy="22.841610359955666" r="4.630112034412377" fill="#D0F0F0" opacity="0.3"/><circle cx="95.00778867259214" cy="133.1251359840735" r="3.9357535159806503" fill="#D0F0F0" opacity="0.3"/><circle cx="70.73276794053527" cy="128.18212597203456" r="3.538972734667368" fill="#D0F0F0" opacity="0.3"/><circle cx="78.06417339961627" cy="34.207742688113285" r="4.983396967790213" fill="#D0F0F0" opacity="0.3"/><circle cx="102.970319600945" cy="62.23789716441388" r="4.310923095305952" fill="#D0F0F0" opacity="0.3"/><circle cx="136.7025503244804" cy="47.11182318892497" r="2.879103641746042" fill="#D0F0F0" opacity="0.3"/>
  <circle cx="100" cy="75" r="48" fill="#FFE5D9" opacity="1"/>
  <circle cx="80" cy="68" r="8" fill="#333" opacity="1"/>
  <circle cx="120" cy="68" r="8" fill="#333" opacity="1"/>
  <circle cx="78" cy="65" r="3" fill="white" opacity="1"/>
  <circle cx="118" cy="65" r="3" fill="white" opacity="1"/>
  <path d="M72 92 Q100 115 128 92" stroke="#333" stroke-width="4" fill="none" stroke-linecap="round"/>
  <ellipse cx="60" cy="82" rx="12" ry="7" fill="#FFB3B3" opacity="0.4"/>
  <ellipse cx="140" cy="82" rx="12" ry="7" fill="#FFB3B3" opacity="0.4"/>
  <path d="M45,42.25 C39,37 42,34 45,37.75 C48,34 51,37 45,42.25Z" fill="#FFB3B3"/>
  <path d="M160,46.8 C155.2,42.6 157.6,40.2 160,43.2 C162.4,40.2 164.8,42.6 160,46.8Z" fill="#FFD6D6"/>
</svg>