<svg xmlns="http://www.w3.org/2000/svg" viewBox="0 0 200 150" width="200" height="150">
  <defs>
    <linearGradient id="bg3001" gradientTransform="rotate(45)">
      <stop offset="0%" style="stop-color:#E2D9F3"/>
      <stop offset="100%" style="stop-color:#C9B8E8"/>
    </linearGradient>
  </defs>
  <rect width="200" height="150" fill="url(#bg3001)" rx="16"/>
  <rect x="0" y="100" width="200" height="50" rx="0" fill="#C5DBC5"/>
  <circle cx="165" cy="35" r="22" fill="#FFE566" opacity="1"/>
  <line x1="191" y1="35" x2="200" y2="35" stroke="#FFF3B0" stroke-width="3" stroke-linecap="round"/>
  <line x1="183.38477631085024" y1="53.384776310850235" x2="189.74873734152916" y2="59.748737341529164" stroke="#FFF3B0" stroke-width="3" stroke-linecap="round"/>
  <line x1="165" y1="61" x2="165" y2="70" stroke="#FFF3B0" stroke-width="3" stroke-linecap="round"/>
  <line x1="146.61522368914976" y1="53.38477631085024" x2="140.25126265847084" y2="59.748737341529164" stroke="#FFF3B0" stroke-width="3" stroke-linecap="round"/>
  <line x1="139" y1="35" x2="130" y2="35.00000000000001" stroke="#FFF3B0" stroke-width="3" stroke-linecap="round"/>
  <line x1="146.61522368914976" y1="16.615223689149765" x2="140.25126265847084" y2="10.25126265847084" stroke="#FFF3B0" stroke-width="3" stroke-linecap="round"/>
  <line x1="165" y1="9" x2="165" y2="0" stroke="#FFF3B0" stroke-width="3" stroke-linecap="round"/>
  <line x1="183.38477631085024" y1="16.61522368914976" x2="189.74873734152916" y2="10.251262658470832" stroke="#FFF3B0" stroke-width="3" stroke-linecap="round"/>
  <rect x="90" y="55" width="14" height="50" rx="2" fill="#8B6914"/>
  <path d="M77.19048217820819,34.83222831225066 Q87.19048217820819,46.83222831225066 77.19048217820819,58.83222831225066 Q67.19048217820819,46.83222831225066 77.19048217820819,34.83222831225066Z" fill="#B7E4C7"/>
  <path d="M87.93999515723408,33.2779174812531 Q97.93999515723408,45.2779174812531 87.93999515723408,57.2779174812531 Q77.93999515723408,45.2779174812531 87.93999515723408,33.2779174812531Z" fill="#95D5B2"/>
  <path d="M101.93366248754319,35.55689913790775 Q111.93366248754319,47.55689913790775 101.93366248754319,59.55689913790775 Q91.93366248754319,47.55689913790775 101.93366248754319,35.55689913790775Z" fill="#B7E4C7"/>
  <path d="M114.43043918359035,33.989281666625175 Q124.43043918359035,45.989281666625175 114.43043918359035,57.989281666625175 Q104.43043918359035,45.989281666625175 114.43043918359035,33.989281666625175Z" fill="#95D5B2"/>
  <path d="M128.5755018687487,38.597438247018545 Q138.5755018687487,50.597438247018545 128.5755018687487,62.597438247018545 Q118.57550186874869,50.597438247018545 128.5755018687487,38.597438247018545Z" fill="#B7E4C7"/>
  <circle cx="45" cy="95" r="8" fill="#FFB3B3" opacity="1"/>
  <circle cx="155" cy="98" r="6" fill="#C9B8E8" opacity="1"/>
</svg>