<svg xmlns="http://www.w3.org/2000/svg" viewBox="0 0 200 150" width="200" height="150">
  <defs>
    <linearGradient id="bg3010" gradientTransform="rotate(180)">
      <stop offset="0%" style="stop-color:#D8F3DC"/>
      <stop offset="100%" style="stop-color:#B7E4C7"/>
    </linearGradient>
  </defs>
  <rect width="200" height="150" fill="url(#bg3010)" rx="16"/>
  <rect x="0" y="100" width="200" height="50" rx="0" fill="#C5DBC5"/>
  <circle cx="165" cy="35" r="22" fill="#FFE566" opacity="1"/>
  <line x1="191" y1="35" x2="200" y2="35" stroke="#FFF3B0" stroke-width="3" stroke-linecap="round"/>
  <line x1="183.38477631085024" y1="53.384776310850235" x2="189.74873734152916" y2="59.748737341529164" stroke="#FFF3B0" stroke-width="3" stroke-linecap="round"/>
  <line x1="165" y1="61" x2="165" y2="70" stroke="#FFF3B0" stroke-width="3" stroke-linecap="round"/>
  <line x1="146.61522368914976" y1="53.38477631085024" x2="140.25126265847084" y2="59.748737341529164" stroke="#FFF3B0" stroke-width="3" stroke-linecap="round"/>
  <line x1="139" y1="35" x2="130" y2="35.00000000000001" stroke="#FFF3B0" stroke-width="3" stroke-linecap="round"/>
  <line x1="146.61522368914976" y1="16.615223689149765" x2="140.25126265847084" y2="10.25126265847084" stroke="#FFF3B0" stroke-width="3" stroke-linecap="round"/>
  <line x1="165" y1="9" x2="165" y2="0" stroke="#FFF3B0" stroke-width="3" stroke-linecap="round"/>
  <line x1="183.38477631085024" y1="16.61522368914976" x2="189.74873734152916" y2="10.251262658470832" stroke="#FFF3B0" stroke-width="3" stroke-linecap="round"/>
  <rect x="90" y="55" width="14" height="50" rx="2" fill="#8B6914"/>
  <path d="M77.28480043204036,35.622096619443255 Q87.28480043204036,47.622096619443255 77.28480043204036,59.622096619443255 Q67.28480043204036,47.622096619443255 77.28480043204036,35.622096619443255Z" fill="#B7E4C7"/>
  <path d="M94.0901071297194,31.244665278234606 Q104.0901071297194,43.244665278234606 94.0901071297194,55.244665278234606 Q84.0901071297194,43.244665278234606 94.0901071297194,31.244665278234606Z" fill="#95D5B2"/>
  <path d="M100.54268416661944,36.580212623928674 Q110.54268416661944,48.580212623928674 100.54268416661944,60.580212623928674 Q90.54268416661944,48.580212623928674 100.54268416661944,36.580212623928674Z" fill="#B7E4C7"/>
  <path d="M118.6642453349632,42.101324807134006 Q128.6642453349632,54.101324807134006 118.6642453349632,66.101324807134 Q108.6642453349632,54.101324807134006 118.6642453349632,42.101324807134006Z" fill="#95D5B2"/>
  <path d="M127.99724725623673,30.4335879583289 Q137.99724725623673,42.4335879583289 127.99724725623673,54.4335879583289 Q117.99724725623673,42.4335879583289 127.99724725623673,30.4335879583289Z" fill="#B7E4C7"/>
  <circle cx="45" cy="95" r="8" fill="#FFB3B3" opacity="1"/>
  <circle cx="155" cy="98" r="6" fill="#C9B8E8" opacity="1"/>
</svg>