<svg xmlns="http://www.w3.org/2000/svg" viewBox="0 0 200 150" width="200" height="150">
  <defs>
    <linearGradient id="bg3016" gradientTransform="rotate(135)">
      <stop offset="0%" style="stop-color:#FFE4EC"/>
      <stop offset="100%" style="stop-color:#FFC8DD"/>
    </linearGradient>
  </defs>
  <rect width="200" height="150" fill="url(#bg3016)" rx="16"/>
  <rect x="0" y="100" width="200" height="50" rx="0" fill="#C5DBC5"/>
  <circle cx="165" cy="35" r="22" fill="#FFE566" opacity="1"/>
  <line x1="191" y1="35" x2="200" y2="35" stroke="#FFF3B0" stroke-width="3" stroke-linecap="round"/>
  <line x1="183.38477631085024" y1="53.384776310850235" x2="189.74873734152916" y2="59.748737341529164" stroke="#FFF3B0" stroke-width="3" stroke-linecap="round"/>
  <line x1="165" y1="61" x2="165" y2="70" stroke="#FFF3B0" stroke-width="3" stroke-linecap="round"/>
  <line x1="146.61522368914976" y1="53.38477631085024" x2="140.25126265847084" y2="59.748737341529164" stroke="#FFF3B0" stroke-width="3" stroke-linecap="round"/>
  <line x1="139" y1="35" x2="130" y2="35.00000000000001" stroke="#FFF3B0" stroke-width="3" stroke-linecap="round"/>
  <line x1="146.61522368914976" y1="16.615223689149765" x2="140.25126265847084" y2="10.25126265847084" stroke="#FFF3B0" stroke-width="3" stroke-linecap="round"/>
  <line x1="165" y1="9" x2="165" y2="0" stroke="#FFF3B0" stroke-width="3" stroke-linecap="round"/>
  <line x1="183.38477631085024" y1="16.61522368914976" x2="189.74873734152916" y2="10.251262658470832" stroke="#FFF3B0" stroke-width="3" stroke-linecap="round"/>
  <rect x="90" y="55" width="14" height="50" rx="2" fill="#8B6914"/>
  <path d="M78.396426087289,42.960689731597085 Q88.396426087289,54.960689731597085 78.396426087289,66.96068973159709 Q68.396426087289,54.960689731597085 78.396426087289,42.960689731597085Z" fill="#B7E4C7"/>
  <path d="M90.1995752530056,32.49049935248695 Q100.1995752530056,44.49049935248695 90.1995752530056,56.49049935248695 Q80.1995752530056,44.49049935248695 90.1995752530056,32.49049935248695Z" fill="#95D5B2"/>
  <path d="M100.00828705546155,41.85476277107955 Q110.00828705546155,53.85476277107955 100.00828705546155,65.85476277107955 Q90.00828705546155,53.85476277107955 100.00828705546155,41.85476277107955Z" fill="#B7E4C7"/>
  <path d="M113.68439717723231,39.113556061791314 Q123.68439717723231,51.113556061791314 113.68439717723231,63.113556061791314 Q103.68439717723231,51.113556061791314 113.68439717723231,39.113556061791314Z" fill="#95D5B2"/>
  <path d="M126.94835335195239,36.50978142387248 Q136.9483533519524,48.50978142387248 126.94835335195239,60.50978142387248 Q116.94835335195239,48.50978142387248 126.94835335195239,36.50978142387248Z" fill="#B7E4C7"/>
  <circle cx="45" cy="95" r="8" fill="#FFB3B3" opacity="1"/>
  <circle cx="155" cy="98" r="6" fill="#C9B8E8" opacity="1"/>
</svg>