<svg xmlns="http://www.w3.org/2000/svg" viewBox="0 0 200 150" width="200" height="150">
  <defs>
    <linearGradient id="bg3035" gradientTransform="rotate(0)">
      <stop offset="0%" style="stop-color:#FFF3B0"/>
      <stop offset="100%" style="stop-color:#FFE566"/>
    </linearGradient>
  </defs>
  <rect width="200" height="150" fill="url(#bg3035)" rx="16"/>
  <rect x="0" y="100" width="200" height="50" rx="0" fill="#C5DBC5"/>
  <circle cx="165" cy="35" r="22" fill="#FFE566" opacity="1"/>
  <line x1="191" y1="35" x2="200" y2="35" stroke="#FFF3B0" stroke-width="3" stroke-linecap="round"/>
  <line x1="183.38477631085024" y1="53.384776310850235" x2="189.74873734152916" y2="59.748737341529164" stroke="#FFF3B0" stroke-width="3" stroke-linecap="round"/>
  <line x1="165" y1="61" x2="165" y2="70" stroke="#FFF3B0" stroke-width="3" stroke-linecap="round"/>
  <line x1="146.61522368914976" y1="53.38477631085024" x2="140.25126265847084" y2="59.748737341529164" stroke="#FFF3B0" stroke-width="3" stroke-linecap="round"/>
  <line x1="139" y1="35" x2="130" y2="35.00000000000001" stroke="#FFF3B0" stroke-width="3" stroke-linecap="round"/>
  <line x1="146.61522368914976" y1="16.615223689149765" x2="140.25126265847084" y2="10.25126265847084" stroke="#FFF3B0" stroke-width="3" stroke-linecap="round"/>
  <line x1="165" y1="9" x2="165" y2="0" stroke="#FFF3B0" stroke-width="3" stroke-linecap="round"/>
  <line x1="183.38477631085024" y1="16.61522368914976" x2="189.74873734152916" y2="10.251262658470832" stroke="#FFF3B0" stroke-width="3" stroke-linecap="round"/>
  <rect x="90" y="55" width="14" height="50" rx="2" fill="#8B6914"/>
  <path d="M80.75747295837209,37.820852570692296 Q90.75747295837209,49.820852570692296 80.75747295837209,61.820852570692296 Q70.75747295837209,49.820852570692296 80.75747295837209,37.820852570692296Z" fill="#B7E4C7"/>
  <path d="M93.09286364824948,25.919484254052804 Q103.09286364824948,37.919484254052804 93.09286364824948,49.919484254052804 Q83.09286364824948,37.919484254052804 93.09286364824948,25.919484254052804Z" fill="#95D5B2"/>
  <path d="M105.74783634894447,39.92525972348449 Q115.74783634894447,51.92525972348449 105.74783634894447,63.92525972348449 Q95.74783634894447,51.92525972348449 105.74783634894447,39.92525972348449Z" fill="#B7E4C7"/>
  <path d="M117.65918604969067,30.40381387699017 Q127.65918604969067,42.40381387699017 117.65918604969067,54.40381387699017 Q107.65918604969067,42.40381387699017 117.65918604969067,30.40381387699017Z" fill="#95D5B2"/>
  <path d="M123.4028019398811,24.599122581446863 Q133.4028019398811,36.59912258144686 123.4028019398811,48.59912258144686 Q113.4028019398811,36.59912258144686 123.4028019398811,24.599122581446863Z" fill="#B7E4C7"/>
  <circle cx="45" cy="95" r="8" fill="#FFB3B3" opacity="1"/>
  <circle cx="155" cy="98" r="6" fill="#C9B8E8" opacity="1"/>
</svg>