<svg xmlns="http://www.w3.org/2000/svg" viewBox="0 0 200 150" width="200" height="150">
  <defs>
    <linearGradient id="bg3041" gradientTransform="rotate(0)">
      <stop offset="0%" style="stop-color:#E8F0E8"/>
      <stop offset="100%" style="stop-color:#C5DBC5"/>
    </linearGradient>
  </defs>
  <rect width="200" height="150" fill="url(#bg3041)" rx="16"/>
  <rect x="0" y="100" width="200" height="50" rx="0" fill="#C5DBC5"/>
  <circle cx="165" cy="35" r="22" fill="#FFE566" opacity="1"/>
  <line x1="191" y1="35" x2="200" y2="35" stroke="#FFF3B0" stroke-width="3" stroke-linecap="round"/>
  <line x1="183.38477631085024" y1="53.384776310850235" x2="189.74873734152916" y2="59.748737341529164" stroke="#FFF3B0" stroke-width="3" stroke-linecap="round"/>
  <line x1="165" y1="61" x2="165" y2="70" stroke="#FFF3B0" stroke-width="3" stroke-linecap="round"/>
  <line x1="146.61522368914976" y1="53.38477631085024" x2="140.25126265847084" y2="59.748737341529164" stroke="#FFF3B0" stroke-width="3" stroke-linecap="round"/>
  <line x1="139" y1="35" x2="130" y2="35.00000000000001" stroke="#FFF3B0" stroke-width="3" stroke-linecap="round"/>
  <line x1="146.61522368914976" y1="16.615223689149765" x2="140.25126265847084" y2="10.25126265847084" stroke="#FFF3B0" stroke-width="3" stroke-linecap="round"/>
  <line x1="165" y1="9" x2="165" y2="0" stroke="#FFF3B0" stroke-width="3" stroke-linecap="round"/>
  <line x1="183.38477631085024" y1="16.61522368914976" x2="189.74873734152916" y2="10.251262658470832" stroke="#FFF3B0" stroke-width="3" stroke-linecap="round"/>
  <rect x="90" y="55" width="14" height="50" rx="2" fill="#8B6914"/>
  <path d="M82.50425783434184,41.07359486489986 Q92.50425783434184,53.07359486489986 82.50425783434184,65.07359486489986 Q72.50425783434184,53.07359486489986 82.50425783434184,41.07359486489986Z" fill="#B7E4C7"/>
  <path d="M94.6831157765846,32.82168258350612 Q104.6831157765846,44.82168258350612 94.6831157765846,56.82168258350612 Q84.6831157765846,44.82168258350612 94.6831157765846,32.82168258350612Z" fill="#95D5B2"/>
  <path d="M106.53797576842044,28.26333225072449 Q116.53797576842044,40.26333225072449 106.53797576842044,52.26333225072449 Q96.53797576842044,40.26333225072449 106.53797576842044,28.26333225072449Z" fill="#B7E4C7"/>
  <path d="M118.86896419528057,23.67074968115776 Q128.86896419528057,35.67074968115776 118.86896419528057,47.67074968115776 Q108.86896419528057,35.67074968115776 118.86896419528057,23.67074968115776Z" fill="#95D5B2"/>
  <path d="M124.24987833091654,28.448705808157683 Q134.24987833091654,40.44870580815768 124.24987833091654,52.44870580815768 Q114.24987833091654,40.44870580815768 124.24987833091654,28.448705808157683Z" fill="#B7E4C7"/>
  <circle cx="45" cy="95" r="8" fill="#FFB3B3" opacity="1"/>
  <circle cx="155" cy="98" r="6" fill="#C9B8E8" opacity="1"/>
</svg>