<svg xmlns="http://www.w3.org/2000/svg" viewBox="0 0 200 150" width="200" height="150">
  <defs>
    <linearGradient id="bg3045" gradientTransform="rotate(135)">
      <stop offset="0%" style="stop-color:#FFF5EB"/>
      <stop offset="100%" style="stop-color:#FFE4CC"/>
    </linearGradient>
  </defs>
  <rect width="200" height="150" fill="url(#bg3045)" rx="16"/>
  <rect x="0" y="100" width="200" height="50" rx="0" fill="#C5DBC5"/>
  <circle cx="165" cy="35" r="22" fill="#FFE566" opacity="1"/>
  <line x1="191" y1="35" x2="200" y2="35" stroke="#FFF3B0" stroke-width="3" stroke-linecap="round"/>
  <line x1="183.38477631085024" y1="53.384776310850235" x2="189.74873734152916" y2="59.748737341529164" stroke="#FFF3B0" stroke-width="3" stroke-linecap="round"/>
  <line x1="165" y1="61" x2="165" y2="70" stroke="#FFF3B0" stroke-width="3" stroke-linecap="round"/>
  <line x1="146.61522368914976" y1="53.38477631085024" x2="140.25126265847084" y2="59.748737341529164" stroke="#FFF3B0" stroke-width="3" stroke-linecap="round"/>
  <line x1="139" y1="35" x2="130" y2="35.00000000000001" stroke="#FFF3B0" stroke-width="3" stroke-linecap="round"/>
  <line x1="146.61522368914976" y1="16.615223689149765" x2="140.25126265847084" y2="10.25126265847084" stroke="#FFF3B0" stroke-width="3" stroke-linecap="round"/>
  <line x1="165" y1="9" x2="165" y2="0" stroke="#FFF3B0" stroke-width="3" stroke-linecap="round"/>
  <line x1="183.38477631085024" y1="16.61522368914976" x2="189.74873734152916" y2="10.251262658470832" stroke="#FFF3B0" stroke-width="3" stroke-linecap="round"/>
  <rect x="90" y="55" width="14" height="50" rx="2" fill="#8B6914"/>
  <path d="M79.5703691408271,39.972641086576914 Q89.5703691408271,51.972641086576914 79.5703691408271,63.972641086576914 Q69.5703691408271,51.972641086576914 79.5703691408271,39.972641086576914Z" fill="#B7E4C7"/>
  <path d="M87.46432361415646,41.34151203793226 Q97.46432361415646,53.34151203793226 87.46432361415646,65.34151203793226 Q77.46432361415646,53.34151203793226 87.46432361415646,41.34151203793226Z" fill="#95D5B2"/>
  <path d="M106.70262596232351,23.50951997451193 Q116.70262596232351,35.50951997451193 106.70262596232351,47.50951997451193 Q96.70262596232351,35.50951997451193 106.70262596232351,23.50951997451193Z" fill="#B7E4C7"/>
  <path d="M114.13501201303734,34.34020372002851 Q124.13501201303734,46.34020372002851 114.13501201303734,58.34020372002851 Q104.13501201303734,46.34020372002851 114.13501201303734,34.34020372002851Z" fill="#95D5B2"/>
  <path d="M124.93450025988568,38.966320654479205 Q134.93450025988568,50.966320654479205 124.93450025988568,62.966320654479205 Q114.93450025988568,50.966320654479205 124.93450025988568,38.966320654479205Z" fill="#B7E4C7"/>
  <circle cx="45" cy="95" r="8" fill="#FFB3B3" opacity="1"/>
  <circle cx="155" cy="98" r="6" fill="#C9B8E8" opacity="1"/>
</svg>