<svg xmlns="http://www.w3.org/2000/svg" viewBox="0 0 200 150" width="200" height="150">
  <defs>
    <linearGradient id="bg3052" gradientTransform="rotate(135)">
      <stop offset="0%" style="stop-color:#FFD6D6"/>
      <stop offset="100%" style="stop-color:#FFB3B3"/>
    </linearGradient>
  </defs>
  <rect width="200" height="150" fill="url(#bg3052)" rx="16"/>
  <rect x="0" y="100" width="200" height="50" rx="0" fill="#C5DBC5"/>
  <circle cx="165" cy="35" r="22" fill="#FFE566" opacity="1"/>
  <line x1="191" y1="35" x2="200" y2="35" stroke="#FFF3B0" stroke-width="3" stroke-linecap="round"/>
  <line x1="183.38477631085024" y1="53.384776310850235" x2="189.74873734152916" y2="59.748737341529164" stroke="#FFF3B0" stroke-width="3" stroke-linecap="round"/>
  <line x1="165" y1="61" x2="165" y2="70" stroke="#FFF3B0" stroke-width="3" stroke-linecap="round"/>
  <line x1="146.61522368914976" y1="53.38477631085024" x2="140.25126265847084" y2="59.748737341529164" stroke="#FFF3B0" stroke-width="3" stroke-linecap="round"/>
  <line x1="139" y1="35" x2="130" y2="35.00000000000001" stroke="#FFF3B0" stroke-width="3" stroke-linecap="round"/>
  <line x1="146.61522368914976" y1="16.615223689149765" x2="140.25126265847084" y2="10.25126265847084" stroke="#FFF3B0" stroke-width="3" stroke-linecap="round"/>
  <line x1="165" y1="9" x2="165" y2="0" stroke="#FFF3B0" stroke-width="3" stroke-linecap="round"/>
  <line x1="183.38477631085024" y1="16.61522368914976" x2="189.74873734152916" y2="10.251262658470832" stroke="#FFF3B0" stroke-width="3" stroke-linecap="round"/>
  <rect x="90" y="55" width="14" height="50" rx="2" fill="#8B6914"/>
  <path d="M82.52931436593644,34.38961107832074 Q92.52931436593644,46.38961107832074 82.52931436593644,58.38961107832074 Q72.52931436593644,46.38961107832074 82.52931436593644,34.38961107832074Z" fill="#B7E4C7"/>
  <path d="M92.47731574917998,35.939385948502604 Q102.47731574917998,47.939385948502604 92.47731574917998,59.939385948502604 Q82.47731574917998,47.939385948502604 92.47731574917998,35.939385948502604Z" fill="#95D5B2"/>
  <path d="M103.39934603479196,25.013310810966118 Q113.39934603479196,37.01331081096612 103.39934603479196,49.01331081096612 Q93.39934603479196,37.01331081096612 103.39934603479196,25.013310810966118Z" fill="#B7E4C7"/>
  <path d="M112.7287242513703,30.603026750421122 Q122.7287242513703,42.60302675042112 112.7287242513703,54.60302675042112 Q102.7287242513703,42.60302675042112 112.7287242513703,30.603026750421122Z" fill="#95D5B2"/>
  <path d="M128.85028959449846,35.05974501634046 Q138.85028959449846,47.05974501634046 128.85028959449846,59.05974501634046 Q118.85028959449846,47.05974501634046 128.85028959449846,35.05974501634046Z" fill="#B7E4C7"/>
  <circle cx="45" cy="95" r="8" fill="#FFB3B3" opacity="1"/>
  <circle cx="155" cy="98" r="6" fill="#C9B8E8" opacity="1"/>
</svg>