<svg xmlns="http://www.w3.org/2000/svg" viewBox="0 0 200 150" width="200" height="150">
  <defs>
    <linearGradient id="bg3055" gradientTransform="rotate(45)">
      <stop offset="0%" style="stop-color:#F0F7FF"/>
      <stop offset="100%" style="stop-color:#DCE8F5"/>
    </linearGradient>
  </defs>
  <rect width="200" height="150" fill="url(#bg3055)" rx="16"/>
  <rect x="0" y="100" width="200" height="50" rx="0" fill="#C5DBC5"/>
  <circle cx="165" cy="35" r="22" fill="#FFE566" opacity="1"/>
  <line x1="191" y1="35" x2="200" y2="35" stroke="#FFF3B0" stroke-width="3" stroke-linecap="round"/>
  <line x1="183.38477631085024" y1="53.384776310850235" x2="189.74873734152916" y2="59.748737341529164" stroke="#FFF3B0" stroke-width="3" stroke-linecap="round"/>
  <line x1="165" y1="61" x2="165" y2="70" stroke="#FFF3B0" stroke-width="3" stroke-linecap="round"/>
  <line x1="146.61522368914976" y1="53.38477631085024" x2="140.25126265847084" y2="59.748737341529164" stroke="#FFF3B0" stroke-width="3" stroke-linecap="round"/>
  <line x1="139" y1="35" x2="130" y2="35.00000000000001" stroke="#FFF3B0" stroke-width="3" stroke-linecap="round"/>
  <line x1="146.61522368914976" y1="16.615223689149765" x2="140.25126265847084" y2="10.25126265847084" stroke="#FFF3B0" stroke-width="3" stroke-linecap="round"/>
  <line x1="165" y1="9" x2="165" y2="0" stroke="#FFF3B0" stroke-width="3" stroke-linecap="round"/>
  <line x1="183.38477631085024" y1="16.61522368914976" x2="189.74873734152916" y2="10.251262658470832" stroke="#FFF3B0" stroke-width="3" stroke-linecap="round"/>
  <rect x="90" y="55" width="14" height="50" rx="2" fill="#8B6914"/>
  <path d="M81.5815747328561,39.17362043754838 Q91.5815747328561,51.17362043754838 81.5815747328561,63.17362043754838 Q71.5815747328561,51.17362043754838 81.5815747328561,39.17362043754838Z" fill="#B7E4C7"/>
  <path d="M94.99048818550364,42.67411758313574 Q104.99048818550364,54.67411758313574 94.99048818550364,66.67411758313574 Q84.99048818550364,54.67411758313574 94.99048818550364,42.67411758313574Z" fill="#95D5B2"/>
  <path d="M104.00564206819384,30.697012057033135 Q114.00564206819384,42.697012057033135 104.00564206819384,54.697012057033135 Q94.00564206819384,42.697012057033135 104.00564206819384,30.697012057033135Z" fill="#B7E4C7"/>
  <path d="M114.98080409868271,36.473559434387425 Q124.98080409868271,48.473559434387425 114.98080409868271,60.473559434387425 Q104.98080409868271,48.473559434387425 114.98080409868271,36.473559434387425Z" fill="#95D5B2"/>
  <path d="M129.0309010071578,32.330014117595056 Q139.0309010071578,44.330014117595056 129.0309010071578,56.330014117595056 Q119.03090100715781,44.330014117595056 129.0309010071578,32.330014117595056Z" fill="#B7E4C7"/>
  <circle cx="45" cy="95" r="8" fill="#FFB3B3" opacity="1"/>
  <circle cx="155" cy="98" r="6" fill="#C9B8E8" opacity="1"/>
</svg>