<svg xmlns="http://www.w3.org/2000/svg" viewBox="0 0 200 150" width="200" height="150">
  <defs>
    <linearGradient id="bg3060" gradientTransform="rotate(0)">
      <stop offset="0%" style="stop-color:#D8F3DC"/>
      <stop offset="100%" style="stop-color:#B7E4C7"/>
    </linearGradient>
  </defs>
  <rect width="200" height="150" fill="url(#bg3060)" rx="16"/>
  <rect x="0" y="100" width="200" height="50" rx="0" fill="#C5DBC5"/>
  <circle cx="165" cy="35" r="22" fill="#FFE566" opacity="1"/>
  <line x1="191" y1="35" x2="200" y2="35" stroke="#FFF3B0" stroke-width="3" stroke-linecap="round"/>
  <line x1="183.38477631085024" y1="53.384776310850235" x2="189.74873734152916" y2="59.748737341529164" stroke="#FFF3B0" stroke-width="3" stroke-linecap="round"/>
  <line x1="165" y1="61" x2="165" y2="70" stroke="#FFF3B0" stroke-width="3" stroke-linecap="round"/>
  <line x1="146.61522368914976" y1="53.38477631085024" x2="140.25126265847084" y2="59.748737341529164" stroke="#FFF3B0" stroke-width="3" stroke-linecap="round"/>
  <line x1="139" y1="35" x2="130" y2="35.00000000000001" stroke="#FFF3B0" stroke-width="3" stroke-linecap="round"/>
  <line x1="146.61522368914976" y1="16.615223689149765" x2="140.25126265847084" y2="10.25126265847084" stroke="#FFF3B0" stroke-width="3" stroke-linecap="round"/>
  <line x1="165" y1="9" x2="165" y2="0" stroke="#FFF3B0" stroke-width="3" stroke-linecap="round"/>
  <line x1="183.38477631085024" y1="16.61522368914976" x2="189.74873734152916" y2="10.251262658470832" stroke="#FFF3B0" stroke-width="3" stroke-linecap="round"/>
  <rect x="90" y="55" width="14" height="50" rx="2" fill="#8B6914"/>
  <path d="M81.81473043432925,26.869926219558693 Q91.81473043432925,38.86992621955869 81.81473043432925,50.86992621955869 Q71.81473043432925,38.86992621955869 81.81473043432925,26.869926219558693Z" fill="#B7E4C7"/>
  <path d="M94.75052862716257,27.264154395341393 Q104.75052862716257,39.26415439534139 94.75052862716257,51.26415439534139 Q84.75052862716257,39.26415439534139 94.75052862716257,27.264154395341393Z" fill="#95D5B2"/>
  <path d="M105.12889890590304,40.719995242405275 Q115.12889890590304,52.719995242405275 105.12889890590304,64.71999524240528 Q95.12889890590304,52.719995242405275 105.12889890590304,40.719995242405275Z" fill="#B7E4C7"/>
  <path d="M118.72082698783197,36.807298487372464 Q128.72082698783197,48.807298487372464 118.72082698783197,60.807298487372464 Q108.72082698783197,48.807298487372464 118.72082698783197,36.807298487372464Z" fill="#95D5B2"/>
  <path d="M129.85831270519702,35.240657828624535 Q139.85831270519702,47.240657828624535 129.85831270519702,59.240657828624535 Q119.85831270519702,47.240657828624535 129.85831270519702,35.240657828624535Z" fill="#B7E4C7"/>
  <circle cx="45" cy="95" r="8" fill="#FFB3B3" opacity="1"/>
  <circle cx="155" cy="98" r="6" fill="#C9B8E8" opacity="1"/>
</svg>