<svg xmlns="http://www.w3.org/2000/svg" viewBox="0 0 200 150" width="200" height="150">
  <defs>
    <linearGradient id="bg3061" gradientTransform="rotate(90)">
      <stop offset="0%" style="stop-color:#FFF3B0"/>
      <stop offset="100%" style="stop-color:#FFE566"/>
    </linearGradient>
  </defs>
  <rect width="200" height="150" fill="url(#bg3061)" rx="16"/>
  <circle cx="40.06200247567904" cy="86.7097710914095" r="2.2777215563328355" fill="#FFF3B0" opacity="0.3"/><circle cx="62.847470744964085" cy="10.596898328685711" r="3.7219798931091645" fill="#FFF3B0" opacity="0.3"/><circle cx="152.01796990772323" cy="81.03829809783747" r="2.127634699830651" fill="#FFF3B0" opacity="0.3"/><circle cx="167.33790560174384" cy="74.76378001465491" r="2.964238605705077" fill="#FFF3B0" opacity="0.3"/><circle cx="145.72734202083666" cy="8.871783819449774" r="2.4240599655695405" fill="#FFF3B0" opacity="0.3"/><circle cx="113.15957532133325" cy="44.780468435601506" r="3.1669814529905125" fill="#FFF3B0" opacity="0.3"/>
  <ellipse cx="100" cy="95" rx="32" ry="28" fill="#FFE566" opacity="1"/>
  <circle cx="100" cy="58" r="28" fill="#FFE566" opacity="1"/>
  <ellipse cx="82" cy="25" rx="10" ry="24" fill="#FFE566" opacity="1"/>
  <ellipse cx="118" cy="25" rx="10" ry="24" fill="#FFE566" opacity="1"/>
  <ellipse cx="82" cy="27" rx="5" ry="15" fill="#FFD6D6" opacity="1"/>
  <ellipse cx="118" cy="27" rx="5" ry="15" fill="#FFD6D6" opacity="1"/>
  <circle cx="88" cy="52" r="5" fill="#333" opacity="1"/>
  <circle cx="112" cy="52" r="5" fill="#333" opacity="1"/>
  <circle cx="86" cy="50" r="2" fill="white" opacity="1"/>
  <circle cx="110" cy="50" r="2" fill="white" opacity="1"/>
  <ellipse cx="100" cy="68" rx="6" ry="4" fill="#FFB3B3" opacity="1"/>
  <path d="M50,46.8 C45.2,42.6 47.6,40.2 50,43.2 C52.4,40.2 54.8,42.6 50,46.8Z" fill="#FFB3B3"/>
  <path d="M155,51.5 C151,48 153,46 155,48.5 C157,46 159,48 155,51.5Z" fill="#FFD6D6"/>
</svg>