<svg xmlns="http://www.w3.org/2000/svg" viewBox="0 0 200 150" width="200" height="150">
  <defs>
    <linearGradient id="bg3081" gradientTransform="rotate(135)">
      <stop offset="0%" style="stop-color:#E0F4FF"/>
      <stop offset="100%" style="stop-color:#BAE6FD"/>
    </linearGradient>
  </defs>
  <rect width="200" height="150" fill="url(#bg3081)" rx="16"/>
  <rect x="0" y="100" width="200" height="50" rx="0" fill="#C5DBC5"/>
  <circle cx="165" cy="35" r="22" fill="#FFE566" opacity="1"/>
  <line x1="191" y1="35" x2="200" y2="35" stroke="#FFF3B0" stroke-width="3" stroke-linecap="round"/>
  <line x1="183.38477631085024" y1="53.384776310850235" x2="189.74873734152916" y2="59.748737341529164" stroke="#FFF3B0" stroke-width="3" stroke-linecap="round"/>
  <line x1="165" y1="61" x2="165" y2="70" stroke="#FFF3B0" stroke-width="3" stroke-linecap="round"/>
  <line x1="146.61522368914976" y1="53.38477631085024" x2="140.25126265847084" y2="59.748737341529164" stroke="#FFF3B0" stroke-width="3" stroke-linecap="round"/>
  <line x1="139" y1="35" x2="130" y2="35.00000000000001" stroke="#FFF3B0" stroke-width="3" stroke-linecap="round"/>
  <line x1="146.61522368914976" y1="16.615223689149765" x2="140.25126265847084" y2="10.25126265847084" stroke="#FFF3B0" stroke-width="3" stroke-linecap="round"/>
  <line x1="165" y1="9" x2="165" y2="0" stroke="#FFF3B0" stroke-width="3" stroke-linecap="round"/>
  <line x1="183.38477631085024" y1="16.61522368914976" x2="189.74873734152916" y2="10.251262658470832" stroke="#FFF3B0" stroke-width="3" stroke-linecap="round"/>
  <rect x="90" y="55" width="14" height="50" rx="2" fill="#8B6914"/>
  <path d="M80.19929587063234,34.04856480018498 Q90.19929587063234,46.04856480018498 80.19929587063234,58.04856480018498 Q70.19929587063234,46.04856480018498 80.19929587063234,34.04856480018498Z" fill="#B7E4C7"/>
  <path d="M89.74181867284642,35.588538344243716 Q99.74181867284642,47.588538344243716 89.74181867284642,59.588538344243716 Q79.74181867284642,47.588538344243716 89.74181867284642,35.588538344243716Z" fill="#95D5B2"/>
  <path d="M105.49430554819264,33.863215725912596 Q115.49430554819264,45.863215725912596 105.49430554819264,57.863215725912596 Q95.49430554819264,45.863215725912596 105.49430554819264,33.863215725912596Z" fill="#B7E4C7"/>
  <path d="M116.09020856813731,35.59328368378192 Q126.09020856813731,47.59328368378192 116.09020856813731,59.59328368378192 Q106.09020856813731,47.59328368378192 116.09020856813731,35.59328368378192Z" fill="#95D5B2"/>
  <path d="M123.30668301561673,36.19590706188137 Q133.30668301561673,48.19590706188137 123.30668301561673,60.19590706188137 Q113.30668301561673,48.19590706188137 123.30668301561673,36.19590706188137Z" fill="#B7E4C7"/>
  <circle cx="45" cy="95" r="8" fill="#FFB3B3" opacity="1"/>
  <circle cx="155" cy="98" r="6" fill="#C9B8E8" opacity="1"/>
</svg>