<svg xmlns="http://www.w3.org/2000/svg" viewBox="0 0 200 150" width="200" height="150">
  <defs>
    <linearGradient id="bg3085" gradientTransform="rotate(90)">
      <stop offset="0%" style="stop-color:#E2D9F3"/>
      <stop offset="100%" style="stop-color:#C9B8E8"/>
    </linearGradient>
  </defs>
  <rect width="200" height="150" fill="url(#bg3085)" rx="16"/>
  <rect x="0" y="100" width="200" height="50" rx="0" fill="#C5DBC5"/>
  <circle cx="165" cy="35" r="22" fill="#FFE566" opacity="1"/>
  <line x1="191" y1="35" x2="200" y2="35" stroke="#FFF3B0" stroke-width="3" stroke-linecap="round"/>
  <line x1="183.38477631085024" y1="53.384776310850235" x2="189.74873734152916" y2="59.748737341529164" stroke="#FFF3B0" stroke-width="3" stroke-linecap="round"/>
  <line x1="165" y1="61" x2="165" y2="70" stroke="#FFF3B0" stroke-width="3" stroke-linecap="round"/>
  <line x1="146.61522368914976" y1="53.38477631085024" x2="140.25126265847084" y2="59.748737341529164" stroke="#FFF3B0" stroke-width="3" stroke-linecap="round"/>
  <line x1="139" y1="35" x2="130" y2="35.00000000000001" stroke="#FFF3B0" stroke-width="3" stroke-linecap="round"/>
  <line x1="146.61522368914976" y1="16.615223689149765" x2="140.25126265847084" y2="10.25126265847084" stroke="#FFF3B0" stroke-width="3" stroke-linecap="round"/>
  <line x1="165" y1="9" x2="165" y2="0" stroke="#FFF3B0" stroke-width="3" stroke-linecap="round"/>
  <line x1="183.38477631085024" y1="16.61522368914976" x2="189.74873734152916" y2="10.251262658470832" stroke="#FFF3B0" stroke-width="3" stroke-linecap="round"/>
  <rect x="90" y="55" width="14" height="50" rx="2" fill="#8B6914"/>
  <path d="M79.93473395676119,28.721985092277464 Q89.93473395676119,40.721985092277464 79.93473395676119,52.721985092277464 Q69.93473395676119,40.721985092277464 79.93473395676119,28.721985092277464Z" fill="#B7E4C7"/>
  <path d="M87.23901612204645,32.71758607553056 Q97.23901612204645,44.71758607553056 87.23901612204645,56.71758607553056 Q77.23901612204645,44.71758607553056 87.23901612204645,32.71758607553056Z" fill="#95D5B2"/>
  <path d="M104.07547447495745,25.42195056318451 Q114.07547447495745,37.42195056318451 104.07547447495745,49.42195056318451 Q94.07547447495745,37.42195056318451 104.07547447495745,25.42195056318451Z" fill="#B7E4C7"/>
  <path d="M116.7150500920252,41.699394919894985 Q126.7150500920252,53.699394919894985 116.7150500920252,65.69939491989498 Q106.7150500920252,53.699394919894985 116.7150500920252,41.699394919894985Z" fill="#95D5B2"/>
  <path d="M130.94002879770778,30.212430366198532 Q140.94002879770778,42.21243036619853 130.94002879770778,54.21243036619853 Q120.94002879770778,42.21243036619853 130.94002879770778,30.212430366198532Z" fill="#B7E4C7"/>
  <circle cx="45" cy="95" r="8" fill="#FFB3B3" opacity="1"/>
  <circle cx="155" cy="98" r="6" fill="#C9B8E8" opacity="1"/>
</svg>