<svg xmlns="http://www.w3.org/2000/svg" viewBox="0 0 200 150" width="200" height="150">
  <defs>
    <linearGradient id="bg3103" gradientTransform="rotate(45)">
      <stop offset="0%" style="stop-color:#E8F0E8"/>
      <stop offset="100%" style="stop-color:#C5DBC5"/>
    </linearGradient>
  </defs>
  <rect width="200" height="150" fill="url(#bg3103)" rx="16"/>
  <rect x="0" y="100" width="200" height="50" rx="0" fill="#C5DBC5"/>
  <circle cx="165" cy="35" r="22" fill="#FFE566" opacity="1"/>
  <line x1="191" y1="35" x2="200" y2="35" stroke="#FFF3B0" stroke-width="3" stroke-linecap="round"/>
  <line x1="183.38477631085024" y1="53.384776310850235" x2="189.74873734152916" y2="59.748737341529164" stroke="#FFF3B0" stroke-width="3" stroke-linecap="round"/>
  <line x1="165" y1="61" x2="165" y2="70" stroke="#FFF3B0" stroke-width="3" stroke-linecap="round"/>
  <line x1="146.61522368914976" y1="53.38477631085024" x2="140.25126265847084" y2="59.748737341529164" stroke="#FFF3B0" stroke-width="3" stroke-linecap="round"/>
  <line x1="139" y1="35" x2="130" y2="35.00000000000001" stroke="#FFF3B0" stroke-width="3" stroke-linecap="round"/>
  <line x1="146.61522368914976" y1="16.615223689149765" x2="140.25126265847084" y2="10.25126265847084" stroke="#FFF3B0" stroke-width="3" stroke-linecap="round"/>
  <line x1="165" y1="9" x2="165" y2="0" stroke="#FFF3B0" stroke-width="3" stroke-linecap="round"/>
  <line x1="183.38477631085024" y1="16.61522368914976" x2="189.74873734152916" y2="10.251262658470832" stroke="#FFF3B0" stroke-width="3" stroke-linecap="round"/>
  <rect x="90" y="55" width="14" height="50" rx="2" fill="#8B6914"/>
  <path d="M79.90874883826473,33.848226783364225 Q89.90874883826473,45.848226783364225 79.90874883826473,57.848226783364225 Q69.90874883826473,45.848226783364225 79.90874883826473,33.848226783364225Z" fill="#B7E4C7"/>
  <path d="M90.1760838911141,32.98362069342875 Q100.1760838911141,44.98362069342875 90.1760838911141,56.98362069342875 Q80.1760838911141,44.98362069342875 90.1760838911141,32.98362069342875Z" fill="#95D5B2"/>
  <path d="M100.08192639854678,41.661957605763746 Q110.08192639854678,53.661957605763746 100.08192639854678,65.66195760576375 Q90.08192639854678,53.661957605763746 100.08192639854678,41.661957605763746Z" fill="#B7E4C7"/>
  <path d="M114.13857010420179,34.80738455041137 Q124.13857010420179,46.80738455041137 114.13857010420179,58.80738455041137 Q104.13857010420179,46.80738455041137 114.13857010420179,34.80738455041137Z" fill="#95D5B2"/>
  <path d="M124.53691294633609,25.08245693709614 Q134.5369129463361,37.08245693709614 124.53691294633609,49.08245693709614 Q114.53691294633609,37.08245693709614 124.53691294633609,25.08245693709614Z" fill="#B7E4C7"/>
  <circle cx="45" cy="95" r="8" fill="#FFB3B3" opacity="1"/>
  <circle cx="155" cy="98" r="6" fill="#C9B8E8" opacity="1"/>
</svg>