<svg xmlns="http://www.w3.org/2000/svg" viewBox="0 0 200 150" width="200" height="150">
  <defs>
    <linearGradient id="bg3104" gradientTransform="rotate(0)">
      <stop offset="0%" style="stop-color:#FFF5EB"/>
      <stop offset="100%" style="stop-color:#FFE4CC"/>
    </linearGradient>
  </defs>
  <rect width="200" height="150" fill="url(#bg3104)" rx="16"/>
  <rect x="0" y="100" width="200" height="50" rx="0" fill="#C5DBC5"/>
  <circle cx="165" cy="35" r="22" fill="#FFE566" opacity="1"/>
  <line x1="191" y1="35" x2="200" y2="35" stroke="#FFF3B0" stroke-width="3" stroke-linecap="round"/>
  <line x1="183.38477631085024" y1="53.384776310850235" x2="189.74873734152916" y2="59.748737341529164" stroke="#FFF3B0" stroke-width="3" stroke-linecap="round"/>
  <line x1="165" y1="61" x2="165" y2="70" stroke="#FFF3B0" stroke-width="3" stroke-linecap="round"/>
  <line x1="146.61522368914976" y1="53.38477631085024" x2="140.25126265847084" y2="59.748737341529164" stroke="#FFF3B0" stroke-width="3" stroke-linecap="round"/>
  <line x1="139" y1="35" x2="130" y2="35.00000000000001" stroke="#FFF3B0" stroke-width="3" stroke-linecap="round"/>
  <line x1="146.61522368914976" y1="16.615223689149765" x2="140.25126265847084" y2="10.25126265847084" stroke="#FFF3B0" stroke-width="3" stroke-linecap="round"/>
  <line x1="165" y1="9" x2="165" y2="0" stroke="#FFF3B0" stroke-width="3" stroke-linecap="round"/>
  <line x1="183.38477631085024" y1="16.61522368914976" x2="189.74873734152916" y2="10.251262658470832" stroke="#FFF3B0" stroke-width="3" stroke-linecap="round"/>
  <rect x="90" y="55" width="14" height="50" rx="2" fill="#8B6914"/>
  <path d="M76.69387265610567,23.381205886960743 Q86.69387265610567,35.38120588696074 76.69387265610567,47.38120588696074 Q66.69387265610567,35.38120588696074 76.69387265610567,23.381205886960743Z" fill="#B7E4C7"/>
  <path d="M89.03777526137128,38.022504513690365 Q99.03777526137128,50.022504513690365 89.03777526137128,62.022504513690365 Q79.03777526137128,50.022504513690365 89.03777526137128,38.022504513690365Z" fill="#95D5B2"/>
  <path d="M101.97475092370951,31.670970616003615 Q111.97475092370951,43.670970616003615 101.97475092370951,55.670970616003615 Q91.97475092370951,43.670970616003615 101.97475092370951,31.670970616003615Z" fill="#B7E4C7"/>
  <path d="M118.92380495702673,30.279415953180433 Q128.92380495702673,42.27941595318043 118.92380495702673,54.27941595318043 Q108.92380495702673,42.27941595318043 118.92380495702673,30.279415953180433Z" fill="#95D5B2"/>
  <path d="M123.25036004759022,36.55133544326236 Q133.25036004759022,48.55133544326236 123.25036004759022,60.55133544326236 Q113.25036004759022,48.55133544326236 123.25036004759022,36.55133544326236Z" fill="#B7E4C7"/>
  <circle cx="45" cy="95" r="8" fill="#FFB3B3" opacity="1"/>
  <circle cx="155" cy="98" r="6" fill="#C9B8E8" opacity="1"/>
</svg>