<svg xmlns="http://www.w3.org/2000/svg" viewBox="0 0 200 150" width="200" height="150">
  <defs>
    <linearGradient id="bg31084" gradientTransform="rotate(90)">
      <stop offset="0%" style="stop-color:#FFD6D6"/>
      <stop offset="100%" style="stop-color:#FFB3B3"/>
    </linearGradient>
  </defs>
  <rect width="200" height="150" fill="url(#bg31084)" rx="16"/>
  <circle cx="93.60905498142529" cy="110.04157146578564" r="3.5936383397674945" fill="#FFD6D6" opacity="0.3"/><circle cx="179.32929576963943" cy="130.11442375582192" r="3.0568248227814365" fill="#FFD6D6" opacity="0.3"/><circle cx="122.68637444994965" cy="131.95618247295897" r="4.118946965659688" fill="#FFD6D6" opacity="0.3"/><circle cx="122.9348581553495" cy="122.5696770165996" r="3.542611205326466" fill="#FFD6D6" opacity="0.3"/><circle cx="162.54563850861814" cy="19.48218264280328" r="2.1397858410655317" fill="#FFD6D6" opacity="0.3"/><circle cx="193.52762183025334" cy="53.27022399096677" r="2.6794874657143737" fill="#FFD6D6" opacity="0.3"/>
  <circle cx="100" cy="75" r="45" fill="#FFD6D6" opacity="1"/>
  <circle cx="100" cy="75" r="40" fill="white" opacity="1"/>
  <line x1="100" y1="42" x2="100" y2="52" stroke="#FF9999" stroke-width="2"/>
  <line x1="116.5" y1="46.421161675113524" x2="114" y2="50.751288694035715" stroke="#FF9999" stroke-width="2"/>
  <line x1="128.57883832488648" y1="58.5" x2="124.24871130596428" y2="61" stroke="#FF9999" stroke-width="2"/>
  <line x1="133" y1="75" x2="123" y2="75" stroke="#FF9999" stroke-width="2"/>
  <line x1="128.57883832488648" y1="91.5" x2="124.24871130596429" y2="89" stroke="#FF9999" stroke-width="2"/>
  <line x1="116.5" y1="103.57883832488648" x2="114" y2="99.24871130596429" stroke="#FF9999" stroke-width="2"/>
  <line x1="100" y1="108" x2="100" y2="98" stroke="#FF9999" stroke-width="2"/>
  <line x1="83.5" y1="103.57883832488648" x2="86" y2="99.24871130596428" stroke="#FF9999" stroke-width="2"/>
  <line x1="71.42116167511352" y1="91.50000000000001" x2="75.75128869403572" y2="89.00000000000001" stroke="#FF9999" stroke-width="2"/>
  <line x1="67" y1="75" x2="77" y2="75" stroke="#FF9999" stroke-width="2"/>
  <line x1="71.42116167511352" y1="58.5" x2="75.75128869403572" y2="61" stroke="#FF9999" stroke-width="2"/>
  <line x1="83.49999999999999" y1="46.42116167511353" x2="85.99999999999999" y2="50.75128869403572" stroke="#FF9999" stroke-width="2"/>
  <line x1="100" y1="75" x2="100" y2="55" stroke="#FF9999" stroke-width="4" stroke-linecap="round"/>
  <line x1="100" y1="75" x2="118" y2="85" stroke="#FFB3B3" stroke-width="3" stroke-linecap="round"/>
  <circle cx="100" cy="75" r="5" fill="#FF9999" opacity="1"/>
  <polygon points="45,33 48.52671151375484,40.14589803375031 56.412678195541844,41.291796067500634 50.70633909777092,46.85410196624969 52.05342302750968,54.70820393249937 45,51 37.94657697249032,54.70820393249937 39.29366090222908,46.85410196624969 33.587321804458156,41.29179606750063 41.47328848624516,40.14589803375031" fill="#FFF3B0"/>
</svg>