<svg xmlns="http://www.w3.org/2000/svg" viewBox="0 0 200 150" width="200" height="150">
  <defs>
    <linearGradient id="bg3111" gradientTransform="rotate(135)">
      <stop offset="0%" style="stop-color:#D0F0F0"/>
      <stop offset="100%" style="stop-color:#A0E0E0"/>
    </linearGradient>
  </defs>
  <rect width="200" height="150" fill="url(#bg3111)" rx="16"/>
  <rect x="0" y="100" width="200" height="50" rx="0" fill="#C5DBC5"/>
  <circle cx="165" cy="35" r="22" fill="#FFE566" opacity="1"/>
  <line x1="191" y1="35" x2="200" y2="35" stroke="#FFF3B0" stroke-width="3" stroke-linecap="round"/>
  <line x1="183.38477631085024" y1="53.384776310850235" x2="189.74873734152916" y2="59.748737341529164" stroke="#FFF3B0" stroke-width="3" stroke-linecap="round"/>
  <line x1="165" y1="61" x2="165" y2="70" stroke="#FFF3B0" stroke-width="3" stroke-linecap="round"/>
  <line x1="146.61522368914976" y1="53.38477631085024" x2="140.25126265847084" y2="59.748737341529164" stroke="#FFF3B0" stroke-width="3" stroke-linecap="round"/>
  <line x1="139" y1="35" x2="130" y2="35.00000000000001" stroke="#FFF3B0" stroke-width="3" stroke-linecap="round"/>
  <line x1="146.61522368914976" y1="16.615223689149765" x2="140.25126265847084" y2="10.25126265847084" stroke="#FFF3B0" stroke-width="3" stroke-linecap="round"/>
  <line x1="165" y1="9" x2="165" y2="0" stroke="#FFF3B0" stroke-width="3" stroke-linecap="round"/>
  <line x1="183.38477631085024" y1="16.61522368914976" x2="189.74873734152916" y2="10.251262658470832" stroke="#FFF3B0" stroke-width="3" stroke-linecap="round"/>
  <rect x="90" y="55" width="14" height="50" rx="2" fill="#8B6914"/>
  <path d="M79.18321431239019,32.664821936330554 Q89.18321431239019,44.664821936330554 79.18321431239019,56.664821936330554 Q69.18321431239019,44.664821936330554 79.18321431239019,32.664821936330554Z" fill="#B7E4C7"/>
  <path d="M88.11954784594127,37.61076224592034 Q98.11954784594127,49.61076224592034 88.11954784594127,61.61076224592034 Q78.11954784594127,49.61076224592034 88.11954784594127,37.61076224592034Z" fill="#95D5B2"/>
  <path d="M106.5458664662292,25.536491839746304 Q116.5458664662292,37.536491839746304 106.5458664662292,49.536491839746304 Q96.5458664662292,37.536491839746304 106.5458664662292,25.536491839746304Z" fill="#B7E4C7"/>
  <path d="M118.16242369057727,30.598137747245346 Q128.16242369057727,42.598137747245346 118.16242369057727,54.598137747245346 Q108.16242369057727,42.598137747245346 118.16242369057727,30.598137747245346Z" fill="#95D5B2"/>
  <path d="M130.02819114867452,23.064904038590612 Q140.02819114867452,35.06490403859061 130.02819114867452,47.06490403859061 Q120.02819114867452,35.06490403859061 130.02819114867452,23.064904038590612Z" fill="#B7E4C7"/>
  <circle cx="45" cy="95" r="8" fill="#FFB3B3" opacity="1"/>
  <circle cx="155" cy="98" r="6" fill="#C9B8E8" opacity="1"/>
</svg>