<svg xmlns="http://www.w3.org/2000/svg" viewBox="0 0 200 150" width="200" height="150">
  <defs>
    <linearGradient id="bg3115" gradientTransform="rotate(180)">
      <stop offset="0%" style="stop-color:#E0F4FF"/>
      <stop offset="100%" style="stop-color:#BAE6FD"/>
    </linearGradient>
  </defs>
  <rect width="200" height="150" fill="url(#bg3115)" rx="16"/>
  <rect x="0" y="100" width="200" height="50" rx="0" fill="#C5DBC5"/>
  <circle cx="165" cy="35" r="22" fill="#FFE566" opacity="1"/>
  <line x1="191" y1="35" x2="200" y2="35" stroke="#FFF3B0" stroke-width="3" stroke-linecap="round"/>
  <line x1="183.38477631085024" y1="53.384776310850235" x2="189.74873734152916" y2="59.748737341529164" stroke="#FFF3B0" stroke-width="3" stroke-linecap="round"/>
  <line x1="165" y1="61" x2="165" y2="70" stroke="#FFF3B0" stroke-width="3" stroke-linecap="round"/>
  <line x1="146.61522368914976" y1="53.38477631085024" x2="140.25126265847084" y2="59.748737341529164" stroke="#FFF3B0" stroke-width="3" stroke-linecap="round"/>
  <line x1="139" y1="35" x2="130" y2="35.00000000000001" stroke="#FFF3B0" stroke-width="3" stroke-linecap="round"/>
  <line x1="146.61522368914976" y1="16.615223689149765" x2="140.25126265847084" y2="10.25126265847084" stroke="#FFF3B0" stroke-width="3" stroke-linecap="round"/>
  <line x1="165" y1="9" x2="165" y2="0" stroke="#FFF3B0" stroke-width="3" stroke-linecap="round"/>
  <line x1="183.38477631085024" y1="16.61522368914976" x2="189.74873734152916" y2="10.251262658470832" stroke="#FFF3B0" stroke-width="3" stroke-linecap="round"/>
  <rect x="90" y="55" width="14" height="50" rx="2" fill="#8B6914"/>
  <path d="M79.1484571083929,23.579948636623158 Q89.1484571083929,35.57994863662316 79.1484571083929,47.57994863662316 Q69.1484571083929,35.57994863662316 79.1484571083929,23.579948636623158Z" fill="#B7E4C7"/>
  <path d="M90.91899733328319,34.52957309368503 Q100.91899733328319,46.52957309368503 90.91899733328319,58.52957309368503 Q80.91899733328319,46.52957309368503 90.91899733328319,34.52957309368503Z" fill="#95D5B2"/>
  <path d="M102.91054582021752,33.51552539349359 Q112.91054582021752,45.51552539349359 102.91054582021752,57.51552539349359 Q92.91054582021752,45.51552539349359 102.91054582021752,33.51552539349359Z" fill="#B7E4C7"/>
  <path d="M113.3898606412622,25.764054460046736 Q123.3898606412622,37.76405446004674 113.3898606412622,49.76405446004674 Q103.3898606412622,37.76405446004674 113.3898606412622,25.764054460046736Z" fill="#95D5B2"/>
  <path d="M126.31578784248632,33.889959174510295 Q136.31578784248632,45.889959174510295 126.31578784248632,57.889959174510295 Q116.31578784248632,45.889959174510295 126.31578784248632,33.889959174510295Z" fill="#B7E4C7"/>
  <circle cx="45" cy="95" r="8" fill="#FFB3B3" opacity="1"/>
  <circle cx="155" cy="98" r="6" fill="#C9B8E8" opacity="1"/>
</svg>