<svg xmlns="http://www.w3.org/2000/svg" viewBox="0 0 200 150" width="200" height="150">
  <defs>
    <linearGradient id="bg31322" gradientTransform="rotate(0)">
      <stop offset="0%" style="stop-color:#D4E9FF"/>
      <stop offset="100%" style="stop-color:#A8D0F0"/>
    </linearGradient>
  </defs>
  <rect width="200" height="150" fill="url(#bg31322)" rx="16"/>
  <circle cx="143.18779486820858" cy="25.662403757405627" r="2.4247505315543094" fill="#D4E9FF" opacity="0.3"/><circle cx="67.36348937338335" cy="83.95798377202937" r="3.4366976991780547" fill="#D4E9FF" opacity="0.3"/><circle cx="10.03769113231101" cy="99.20287146460396" r="3.043396440882134" fill="#D4E9FF" opacity="0.3"/><circle cx="26.30325598647687" cy="76.48789090229116" r="2.247650577688546" fill="#D4E9FF" opacity="0.3"/><circle cx="132.05450073473912" cy="14.116229413775727" r="4.834244280115399" fill="#D4E9FF" opacity="0.3"/><circle cx="106.81631304290704" cy="82.29302414974882" r="3.2997072727603154" fill="#D4E9FF" opacity="0.3"/>
  <circle cx="100" cy="75" r="48" fill="#FFE5D9" opacity="1"/>
  <circle cx="80" cy="68" r="8" fill="#333" opacity="1"/>
  <circle cx="120" cy="68" r="8" fill="#333" opacity="1"/>
  <circle cx="78" cy="65" r="3" fill="white" opacity="1"/>
  <circle cx="118" cy="65" r="3" fill="white" opacity="1"/>
  <path d="M72 92 Q100 115 128 92" stroke="#333" stroke-width="4" fill="none" stroke-linecap="round"/>
  <ellipse cx="60" cy="82" rx="12" ry="7" fill="#FFB3B3" opacity="0.4"/>
  <ellipse cx="140" cy="82" rx="12" ry="7" fill="#FFB3B3" opacity="0.4"/>
  <path d="M45,42.25 C39,37 42,34 45,37.75 C48,34 51,37 45,42.25Z" fill="#FFB3B3"/>
  <path d="M160,46.8 C155.2,42.6 157.6,40.2 160,43.2 C162.4,40.2 164.8,42.6 160,46.8Z" fill="#FFD6D6"/>
</svg>