<svg xmlns="http://www.w3.org/2000/svg" viewBox="0 0 200 150" width="200" height="150">
  <defs>
    <linearGradient id="bg3140" gradientTransform="rotate(0)">
      <stop offset="0%" style="stop-color:#E0F4FF"/>
      <stop offset="100%" style="stop-color:#BAE6FD"/>
    </linearGradient>
  </defs>
  <rect width="200" height="150" fill="url(#bg3140)" rx="16"/>
  <rect x="0" y="100" width="200" height="50" rx="0" fill="#C5DBC5"/>
  <circle cx="165" cy="35" r="22" fill="#FFE566" opacity="1"/>
  <line x1="191" y1="35" x2="200" y2="35" stroke="#FFF3B0" stroke-width="3" stroke-linecap="round"/>
  <line x1="183.38477631085024" y1="53.384776310850235" x2="189.74873734152916" y2="59.748737341529164" stroke="#FFF3B0" stroke-width="3" stroke-linecap="round"/>
  <line x1="165" y1="61" x2="165" y2="70" stroke="#FFF3B0" stroke-width="3" stroke-linecap="round"/>
  <line x1="146.61522368914976" y1="53.38477631085024" x2="140.25126265847084" y2="59.748737341529164" stroke="#FFF3B0" stroke-width="3" stroke-linecap="round"/>
  <line x1="139" y1="35" x2="130" y2="35.00000000000001" stroke="#FFF3B0" stroke-width="3" stroke-linecap="round"/>
  <line x1="146.61522368914976" y1="16.615223689149765" x2="140.25126265847084" y2="10.25126265847084" stroke="#FFF3B0" stroke-width="3" stroke-linecap="round"/>
  <line x1="165" y1="9" x2="165" y2="0" stroke="#FFF3B0" stroke-width="3" stroke-linecap="round"/>
  <line x1="183.38477631085024" y1="16.61522368914976" x2="189.74873734152916" y2="10.251262658470832" stroke="#FFF3B0" stroke-width="3" stroke-linecap="round"/>
  <rect x="90" y="55" width="14" height="50" rx="2" fill="#8B6914"/>
  <path d="M82.69895254104631,30.58263478295703 Q92.69895254104631,42.58263478295703 82.69895254104631,54.58263478295703 Q72.69895254104631,42.58263478295703 82.69895254104631,30.58263478295703Z" fill="#B7E4C7"/>
  <path d="M94.47890199192625,25.131318731253486 Q104.47890199192625,37.13131873125349 94.47890199192625,49.13131873125349 Q84.47890199192625,37.13131873125349 94.47890199192625,25.131318731253486Z" fill="#95D5B2"/>
  <path d="M103.58761095446243,24.544388497513864 Q113.58761095446243,36.544388497513864 103.58761095446243,48.544388497513864 Q93.58761095446243,36.544388497513864 103.58761095446243,24.544388497513864Z" fill="#B7E4C7"/>
  <path d="M116.90076211211272,34.759244466411474 Q126.90076211211272,46.759244466411474 116.90076211211272,58.759244466411474 Q106.90076211211272,46.759244466411474 116.90076211211272,34.759244466411474Z" fill="#95D5B2"/>
  <path d="M129.23560839050333,36.798335565879825 Q139.23560839050333,48.798335565879825 129.23560839050333,60.798335565879825 Q119.23560839050333,48.798335565879825 129.23560839050333,36.798335565879825Z" fill="#B7E4C7"/>
  <circle cx="45" cy="95" r="8" fill="#FFB3B3" opacity="1"/>
  <circle cx="155" cy="98" r="6" fill="#C9B8E8" opacity="1"/>
</svg>