<svg xmlns="http://www.w3.org/2000/svg" viewBox="0 0 200 150" width="200" height="150">
  <defs>
    <linearGradient id="bg3143" gradientTransform="rotate(180)">
      <stop offset="0%" style="stop-color:#E2D9F3"/>
      <stop offset="100%" style="stop-color:#C9B8E8"/>
    </linearGradient>
  </defs>
  <rect width="200" height="150" fill="url(#bg3143)" rx="16"/>
  <rect x="0" y="100" width="200" height="50" rx="0" fill="#C5DBC5"/>
  <circle cx="165" cy="35" r="22" fill="#FFE566" opacity="1"/>
  <line x1="191" y1="35" x2="200" y2="35" stroke="#FFF3B0" stroke-width="3" stroke-linecap="round"/>
  <line x1="183.38477631085024" y1="53.384776310850235" x2="189.74873734152916" y2="59.748737341529164" stroke="#FFF3B0" stroke-width="3" stroke-linecap="round"/>
  <line x1="165" y1="61" x2="165" y2="70" stroke="#FFF3B0" stroke-width="3" stroke-linecap="round"/>
  <line x1="146.61522368914976" y1="53.38477631085024" x2="140.25126265847084" y2="59.748737341529164" stroke="#FFF3B0" stroke-width="3" stroke-linecap="round"/>
  <line x1="139" y1="35" x2="130" y2="35.00000000000001" stroke="#FFF3B0" stroke-width="3" stroke-linecap="round"/>
  <line x1="146.61522368914976" y1="16.615223689149765" x2="140.25126265847084" y2="10.25126265847084" stroke="#FFF3B0" stroke-width="3" stroke-linecap="round"/>
  <line x1="165" y1="9" x2="165" y2="0" stroke="#FFF3B0" stroke-width="3" stroke-linecap="round"/>
  <line x1="183.38477631085024" y1="16.61522368914976" x2="189.74873734152916" y2="10.251262658470832" stroke="#FFF3B0" stroke-width="3" stroke-linecap="round"/>
  <rect x="90" y="55" width="14" height="50" rx="2" fill="#8B6914"/>
  <path d="M79.8836959411201,25.376523594066384 Q89.8836959411201,37.376523594066384 79.8836959411201,49.376523594066384 Q69.8836959411201,37.376523594066384 79.8836959411201,25.376523594066384Z" fill="#B7E4C7"/>
  <path d="M90.66794202446181,30.093248991895962 Q100.66794202446181,42.09324899189596 90.66794202446181,54.09324899189596 Q80.66794202446181,42.09324899189596 90.66794202446181,30.093248991895962Z" fill="#95D5B2"/>
  <path d="M100.29769300535554,26.62163041952499 Q110.29769300535554,38.62163041952499 100.29769300535554,50.62163041952499 Q90.29769300535554,38.62163041952499 100.29769300535554,26.62163041952499Z" fill="#B7E4C7"/>
  <path d="M111.14008313855447,37.13518723279594 Q121.14008313855447,49.13518723279594 111.14008313855447,61.13518723279594 Q101.14008313855447,49.13518723279594 111.14008313855447,37.13518723279594Z" fill="#95D5B2"/>
  <path d="M125.0642035077035,34.681878149465774 Q135.0642035077035,46.681878149465774 125.0642035077035,58.681878149465774 Q115.0642035077035,46.681878149465774 125.0642035077035,34.681878149465774Z" fill="#B7E4C7"/>
  <circle cx="45" cy="95" r="8" fill="#FFB3B3" opacity="1"/>
  <circle cx="155" cy="98" r="6" fill="#C9B8E8" opacity="1"/>
</svg>