<svg xmlns="http://www.w3.org/2000/svg" viewBox="0 0 200 150" width="200" height="150">
  <defs>
    <linearGradient id="bg3144" gradientTransform="rotate(0)">
      <stop offset="0%" style="stop-color:#D8F3DC"/>
      <stop offset="100%" style="stop-color:#B7E4C7"/>
    </linearGradient>
  </defs>
  <rect width="200" height="150" fill="url(#bg3144)" rx="16"/>
  <rect x="0" y="100" width="200" height="50" rx="0" fill="#C5DBC5"/>
  <circle cx="165" cy="35" r="22" fill="#FFE566" opacity="1"/>
  <line x1="191" y1="35" x2="200" y2="35" stroke="#FFF3B0" stroke-width="3" stroke-linecap="round"/>
  <line x1="183.38477631085024" y1="53.384776310850235" x2="189.74873734152916" y2="59.748737341529164" stroke="#FFF3B0" stroke-width="3" stroke-linecap="round"/>
  <line x1="165" y1="61" x2="165" y2="70" stroke="#FFF3B0" stroke-width="3" stroke-linecap="round"/>
  <line x1="146.61522368914976" y1="53.38477631085024" x2="140.25126265847084" y2="59.748737341529164" stroke="#FFF3B0" stroke-width="3" stroke-linecap="round"/>
  <line x1="139" y1="35" x2="130" y2="35.00000000000001" stroke="#FFF3B0" stroke-width="3" stroke-linecap="round"/>
  <line x1="146.61522368914976" y1="16.615223689149765" x2="140.25126265847084" y2="10.25126265847084" stroke="#FFF3B0" stroke-width="3" stroke-linecap="round"/>
  <line x1="165" y1="9" x2="165" y2="0" stroke="#FFF3B0" stroke-width="3" stroke-linecap="round"/>
  <line x1="183.38477631085024" y1="16.61522368914976" x2="189.74873734152916" y2="10.251262658470832" stroke="#FFF3B0" stroke-width="3" stroke-linecap="round"/>
  <rect x="90" y="55" width="14" height="50" rx="2" fill="#8B6914"/>
  <path d="M80.92540896264109,38.95992701370051 Q90.92540896264109,50.95992701370051 80.92540896264109,62.95992701370051 Q70.92540896264109,50.95992701370051 80.92540896264109,38.95992701370051Z" fill="#B7E4C7"/>
  <path d="M90.82351501769153,34.22677567602295 Q100.82351501769153,46.22677567602295 90.82351501769153,58.22677567602295 Q80.82351501769153,46.22677567602295 90.82351501769153,34.22677567602295Z" fill="#95D5B2"/>
  <path d="M103.80255073220724,41.20983699741191 Q113.80255073220724,53.20983699741191 103.80255073220724,65.20983699741191 Q93.80255073220724,53.20983699741191 103.80255073220724,41.20983699741191Z" fill="#B7E4C7"/>
  <path d="M118.70727035360323,37.7412269976121 Q128.70727035360323,49.7412269976121 118.70727035360323,61.7412269976121 Q108.70727035360323,49.7412269976121 118.70727035360323,37.7412269976121Z" fill="#95D5B2"/>
  <path d="M123.75582955468417,35.75863116959954 Q133.75582955468417,47.75863116959954 123.75582955468417,59.75863116959954 Q113.75582955468417,47.75863116959954 123.75582955468417,35.75863116959954Z" fill="#B7E4C7"/>
  <circle cx="45" cy="95" r="8" fill="#FFB3B3" opacity="1"/>
  <circle cx="155" cy="98" r="6" fill="#C9B8E8" opacity="1"/>
</svg>