<svg xmlns="http://www.w3.org/2000/svg" viewBox="0 0 200 150" width="200" height="150">
  <defs>
    <linearGradient id="bg3151" gradientTransform="rotate(45)">
      <stop offset="0%" style="stop-color:#FFE4EC"/>
      <stop offset="100%" style="stop-color:#FFC8DD"/>
    </linearGradient>
  </defs>
  <rect width="200" height="150" fill="url(#bg3151)" rx="16"/>
  <rect x="0" y="100" width="200" height="50" rx="0" fill="#C5DBC5"/>
  <circle cx="165" cy="35" r="22" fill="#FFE566" opacity="1"/>
  <line x1="191" y1="35" x2="200" y2="35" stroke="#FFF3B0" stroke-width="3" stroke-linecap="round"/>
  <line x1="183.38477631085024" y1="53.384776310850235" x2="189.74873734152916" y2="59.748737341529164" stroke="#FFF3B0" stroke-width="3" stroke-linecap="round"/>
  <line x1="165" y1="61" x2="165" y2="70" stroke="#FFF3B0" stroke-width="3" stroke-linecap="round"/>
  <line x1="146.61522368914976" y1="53.38477631085024" x2="140.25126265847084" y2="59.748737341529164" stroke="#FFF3B0" stroke-width="3" stroke-linecap="round"/>
  <line x1="139" y1="35" x2="130" y2="35.00000000000001" stroke="#FFF3B0" stroke-width="3" stroke-linecap="round"/>
  <line x1="146.61522368914976" y1="16.615223689149765" x2="140.25126265847084" y2="10.25126265847084" stroke="#FFF3B0" stroke-width="3" stroke-linecap="round"/>
  <line x1="165" y1="9" x2="165" y2="0" stroke="#FFF3B0" stroke-width="3" stroke-linecap="round"/>
  <line x1="183.38477631085024" y1="16.61522368914976" x2="189.74873734152916" y2="10.251262658470832" stroke="#FFF3B0" stroke-width="3" stroke-linecap="round"/>
  <rect x="90" y="55" width="14" height="50" rx="2" fill="#8B6914"/>
  <path d="M78.46238897606236,36.28176126418839 Q88.46238897606236,48.28176126418839 78.46238897606236,60.28176126418839 Q68.46238897606236,48.28176126418839 78.46238897606236,36.28176126418839Z" fill="#B7E4C7"/>
  <path d="M92.20080522573699,40.349936558857735 Q102.20080522573699,52.349936558857735 92.20080522573699,64.34993655885773 Q82.20080522573699,52.349936558857735 92.20080522573699,40.349936558857735Z" fill="#95D5B2"/>
  <path d="M102.44261714357708,33.63965178360377 Q112.44261714357708,45.63965178360377 102.44261714357708,57.63965178360377 Q92.44261714357708,45.63965178360377 102.44261714357708,33.63965178360377Z" fill="#B7E4C7"/>
  <path d="M115.4486122617891,29.84661024457455 Q125.4486122617891,41.84661024457455 115.4486122617891,53.84661024457455 Q105.4486122617891,41.84661024457455 115.4486122617891,29.84661024457455Z" fill="#95D5B2"/>
  <path d="M123.58644881586952,27.619944065671007 Q133.58644881586952,39.61994406567101 123.58644881586952,51.61994406567101 Q113.58644881586952,39.61994406567101 123.58644881586952,27.619944065671007Z" fill="#B7E4C7"/>
  <circle cx="45" cy="95" r="8" fill="#FFB3B3" opacity="1"/>
  <circle cx="155" cy="98" r="6" fill="#C9B8E8" opacity="1"/>
</svg>