<svg xmlns="http://www.w3.org/2000/svg" viewBox="0 0 200 150" width="200" height="150">
  <defs>
    <linearGradient id="bg319" gradientTransform="rotate(0)">
      <stop offset="0%" style="stop-color:#FFE4EC"/>
      <stop offset="100%" style="stop-color:#FFC8DD"/>
    </linearGradient>
  </defs>
  <rect width="200" height="150" fill="url(#bg319)" rx="16"/>
  <circle cx="37.10616275930079" cy="104.13053298861996" r="4.2456923403142355" fill="#FFE4EC" opacity="0.3"/><circle cx="27.134088953607716" cy="31.092228941997746" r="3.0173674664765713" fill="#FFE4EC" opacity="0.3"/><circle cx="186.40642734790163" cy="85.52802464710112" r="3.6087616503368736" fill="#FFE4EC" opacity="0.3"/><circle cx="170.50400406130848" cy="81.25426728411185" r="2.9073973116283014" fill="#FFE4EC" opacity="0.3"/><circle cx="139.38180701152305" cy="22.677346957561895" r="3.381740644492311" fill="#FFE4EC" opacity="0.3"/><circle cx="46.51997479068086" cy="120.38901917151463" r="4.725602346621599" fill="#FFE4EC" opacity="0.3"/>
  <ellipse cx="100" cy="95" rx="32" ry="28" fill="#FFC8DD" opacity="1"/>
  <circle cx="100" cy="58" r="28" fill="#FFC8DD" opacity="1"/>
  <ellipse cx="82" cy="25" rx="10" ry="24" fill="#FFC8DD" opacity="1"/>
  <ellipse cx="118" cy="25" rx="10" ry="24" fill="#FFC8DD" opacity="1"/>
  <ellipse cx="82" cy="27" rx="5" ry="15" fill="#FFD6D6" opacity="1"/>
  <ellipse cx="118" cy="27" rx="5" ry="15" fill="#FFD6D6" opacity="1"/>
  <circle cx="88" cy="52" r="5" fill="#333" opacity="1"/>
  <circle cx="112" cy="52" r="5" fill="#333" opacity="1"/>
  <circle cx="86" cy="50" r="2" fill="white" opacity="1"/>
  <circle cx="110" cy="50" r="2" fill="white" opacity="1"/>
  <ellipse cx="100" cy="68" rx="6" ry="4" fill="#FFB3B3" opacity="1"/>
  <path d="M50,46.8 C45.2,42.6 47.6,40.2 50,43.2 C52.4,40.2 54.8,42.6 50,46.8Z" fill="#FFB3B3"/>
  <path d="M155,51.5 C151,48 153,46 155,48.5 C157,46 159,48 155,51.5Z" fill="#FFD6D6"/>
</svg>