<svg xmlns="http://www.w3.org/2000/svg" viewBox="0 0 200 150" width="200" height="150">
  <defs>
    <linearGradient id="bg350" gradientTransform="rotate(135)">
      <stop offset="0%" style="stop-color:#FFD6D6"/>
      <stop offset="100%" style="stop-color:#FFB3B3"/>
    </linearGradient>
  </defs>
  <rect width="200" height="150" fill="url(#bg350)" rx="16"/>
  <circle cx="149.08045018510165" cy="73.14751287940453" r="3.716286007076633" fill="#FFD6D6" opacity="0.3"/><circle cx="31.6270890954911" cy="108.78846453938422" r="4.273023366791676" fill="#FFD6D6" opacity="0.3"/><circle cx="34.98619167257857" cy="148.57958997899914" r="2.392726148495285" fill="#FFD6D6" opacity="0.3"/><circle cx="57.1737800275514" cy="83.3041112869978" r="4.757693851788645" fill="#FFD6D6" opacity="0.3"/><circle cx="103.12970528029837" cy="35.32656816305462" r="3.8637920558612677" fill="#FFD6D6" opacity="0.3"/><circle cx="63.350593407722045" cy="87.21713751292555" r="3.5352810351960215" fill="#FFD6D6" opacity="0.3"/>
  <circle cx="100" cy="75" r="48" fill="#FFE5D9" opacity="1"/>
  <circle cx="80" cy="68" r="8" fill="#333" opacity="1"/>
  <circle cx="120" cy="68" r="8" fill="#333" opacity="1"/>
  <circle cx="78" cy="65" r="3" fill="white" opacity="1"/>
  <circle cx="118" cy="65" r="3" fill="white" opacity="1"/>
  <path d="M72 92 Q100 115 128 92" stroke="#333" stroke-width="4" fill="none" stroke-linecap="round"/>
  <ellipse cx="60" cy="82" rx="12" ry="7" fill="#FFB3B3" opacity="0.4"/>
  <ellipse cx="140" cy="82" rx="12" ry="7" fill="#FFB3B3" opacity="0.4"/>
  <path d="M45,42.25 C39,37 42,34 45,37.75 C48,34 51,37 45,42.25Z" fill="#FFB3B3"/>
  <path d="M160,46.8 C155.2,42.6 157.6,40.2 160,43.2 C162.4,40.2 164.8,42.6 160,46.8Z" fill="#FFD6D6"/>
</svg>