<svg xmlns="http://www.w3.org/2000/svg" viewBox="0 0 200 150" width="200" height="150">
  <defs>
    <linearGradient id="bg351" gradientTransform="rotate(45)">
      <stop offset="0%" style="stop-color:#FFF3B0"/>
      <stop offset="100%" style="stop-color:#FFE566"/>
    </linearGradient>
  </defs>
  <rect width="200" height="150" fill="url(#bg351)" rx="16"/>
  <circle cx="130.40394488962193" cy="93.72762320444963" r="4.136386154305001" fill="#FFF3B0" opacity="0.3"/><circle cx="26.74558388789592" cy="65.92250236624295" r="2.307602816752464" fill="#FFF3B0" opacity="0.3"/><circle cx="99.27634634877904" cy="123.39324950007722" r="4.125239408269408" fill="#FFF3B0" opacity="0.3"/><circle cx="39.26019998953052" cy="34.89614630707365" r="2.536887656536237" fill="#FFF3B0" opacity="0.3"/><circle cx="93.7152976219295" cy="44.50162881298638" r="2.807053021650063" fill="#FFF3B0" opacity="0.3"/><circle cx="98.65879372300697" cy="74.31747281698335" r="3.842732867579798" fill="#FFF3B0" opacity="0.3"/>
  <circle cx="100" cy="75" r="48" fill="#FFE5D9" opacity="1"/>
  <circle cx="80" cy="68" r="8" fill="#333" opacity="1"/>
  <circle cx="120" cy="68" r="8" fill="#333" opacity="1"/>
  <circle cx="78" cy="65" r="3" fill="white" opacity="1"/>
  <circle cx="118" cy="65" r="3" fill="white" opacity="1"/>
  <path d="M72 92 Q100 115 128 92" stroke="#333" stroke-width="4" fill="none" stroke-linecap="round"/>
  <ellipse cx="60" cy="82" rx="12" ry="7" fill="#FFB3B3" opacity="0.4"/>
  <ellipse cx="140" cy="82" rx="12" ry="7" fill="#FFB3B3" opacity="0.4"/>
  <path d="M45,42.25 C39,37 42,34 45,37.75 C48,34 51,37 45,42.25Z" fill="#FFB3B3"/>
  <path d="M160,46.8 C155.2,42.6 157.6,40.2 160,43.2 C162.4,40.2 164.8,42.6 160,46.8Z" fill="#FFD6D6"/>
</svg>