<svg xmlns="http://www.w3.org/2000/svg" viewBox="0 0 200 150" width="200" height="150">
  <defs>
    <linearGradient id="bg353" gradientTransform="rotate(180)">
      <stop offset="0%" style="stop-color:#FFD6D6"/>
      <stop offset="100%" style="stop-color:#FFB3B3"/>
    </linearGradient>
  </defs>
  <rect width="200" height="150" fill="url(#bg353)" rx="16"/>
  <circle cx="14.591476840723772" cy="31.063544565949996" r="2.1403971237796213" fill="#FFD6D6" opacity="0.3"/><circle cx="89.60874549766231" cy="77.36600919201919" r="4.082414449738792" fill="#FFD6D6" opacity="0.3"/><circle cx="75.12501945529948" cy="18.45921104181798" r="3.0706113528030983" fill="#FFD6D6" opacity="0.3"/><circle cx="192.8013727101643" cy="109.12131263556262" r="4.344690669337069" fill="#FFD6D6" opacity="0.3"/><circle cx="83.98641306266654" cy="68.8359388020217" r="4.500611100163951" fill="#FFD6D6" opacity="0.3"/><circle cx="84.06878611385764" cy="53.700192109863565" r="4.001602746654044" fill="#FFD6D6" opacity="0.3"/>
  <circle cx="100" cy="75" r="48" fill="#FFE5D9" opacity="1"/>
  <circle cx="80" cy="68" r="8" fill="#333" opacity="1"/>
  <circle cx="120" cy="68" r="8" fill="#333" opacity="1"/>
  <circle cx="78" cy="65" r="3" fill="white" opacity="1"/>
  <circle cx="118" cy="65" r="3" fill="white" opacity="1"/>
  <path d="M72 92 Q100 115 128 92" stroke="#333" stroke-width="4" fill="none" stroke-linecap="round"/>
  <ellipse cx="60" cy="82" rx="12" ry="7" fill="#FFB3B3" opacity="0.4"/>
  <ellipse cx="140" cy="82" rx="12" ry="7" fill="#FFB3B3" opacity="0.4"/>
  <path d="M45,42.25 C39,37 42,34 45,37.75 C48,34 51,37 45,42.25Z" fill="#FFB3B3"/>
  <path d="M160,46.8 C155.2,42.6 157.6,40.2 160,43.2 C162.4,40.2 164.8,42.6 160,46.8Z" fill="#FFD6D6"/>
</svg>