<svg xmlns="http://www.w3.org/2000/svg" viewBox="0 0 200 150" width="200" height="150">
  <defs>
    <linearGradient id="bg377" gradientTransform="rotate(45)">
      <stop offset="0%" style="stop-color:#E0F4FF"/>
      <stop offset="100%" style="stop-color:#BAE6FD"/>
    </linearGradient>
  </defs>
  <rect width="200" height="150" fill="url(#bg377)" rx="16"/>
  <circle cx="194.98072398928343" cy="117.81975839267034" r="2.9222727038304583" fill="#E0F4FF" opacity="0.3"/><circle cx="69.354873060729" cy="33.17610360204526" r="3.450537289963904" fill="#E0F4FF" opacity="0.3"/><circle cx="161.5160360507616" cy="114.50738194389487" r="4.859584860061659" fill="#E0F4FF" opacity="0.3"/><circle cx="178.29380496350495" cy="70.34150946183217" r="4.557915419309211" fill="#E0F4FF" opacity="0.3"/><circle cx="79.75190758825192" cy="102.68093285912983" r="4.392156967634946" fill="#E0F4FF" opacity="0.3"/><circle cx="98.90844611327338" cy="93.65701598956706" r="3.431554150687589" fill="#E0F4FF" opacity="0.3"/>
  <ellipse cx="100" cy="95" rx="32" ry="28" fill="#BAE6FD" opacity="1"/>
  <circle cx="100" cy="58" r="28" fill="#BAE6FD" opacity="1"/>
  <ellipse cx="82" cy="25" rx="10" ry="24" fill="#BAE6FD" opacity="1"/>
  <ellipse cx="118" cy="25" rx="10" ry="24" fill="#BAE6FD" opacity="1"/>
  <ellipse cx="82" cy="27" rx="5" ry="15" fill="#FFD6D6" opacity="1"/>
  <ellipse cx="118" cy="27" rx="5" ry="15" fill="#FFD6D6" opacity="1"/>
  <circle cx="88" cy="52" r="5" fill="#333" opacity="1"/>
  <circle cx="112" cy="52" r="5" fill="#333" opacity="1"/>
  <circle cx="86" cy="50" r="2" fill="white" opacity="1"/>
  <circle cx="110" cy="50" r="2" fill="white" opacity="1"/>
  <ellipse cx="100" cy="68" rx="6" ry="4" fill="#FFB3B3" opacity="1"/>
  <path d="M50,46.8 C45.2,42.6 47.6,40.2 50,43.2 C52.4,40.2 54.8,42.6 50,46.8Z" fill="#FFB3B3"/>
  <path d="M155,51.5 C151,48 153,46 155,48.5 C157,46 159,48 155,51.5Z" fill="#FFD6D6"/>
</svg>