<svg xmlns="http://www.w3.org/2000/svg" viewBox="0 0 200 150" width="200" height="150">
  <defs>
    <linearGradient id="bg4023" gradientTransform="rotate(0)">
      <stop offset="0%" style="stop-color:#E8F0E8"/>
      <stop offset="100%" style="stop-color:#C5DBC5"/>
    </linearGradient>
  </defs>
  <rect width="200" height="150" fill="url(#bg4023)" rx="16"/>
  <rect x="0" y="0" width="200" height="150" rx="0" fill="#1a1a3e"/>
  <polygon points="22.396380472564488,24.31181779882172 23.45253175118021,26.451814029238548 25.814157804688286,26.794978381862364 24.105269138626387,28.460733140680432 24.508683029795932,30.812816604746132 22.396380472564488,29.702313432200754 20.284077915333043,30.812816604746132 20.68749180650259,28.460733140680432 18.97860314044069,26.794978381862364 21.340229193948765,26.451814029238548" fill="#FFF3B0"/>
  <polygon points="139.30425406841096,39.86488264941772 140.14960776103516,41.57775631838284 142.0398760827733,41.85242838339966 140.67206507559212,43.18571459427166 140.99496145365933,45.06834493517729 139.30425406841096,44.179487461262624 137.61354668316258,45.06834493517729 137.9364430612298,43.18571459427166 136.5686320540486,41.852428383399655 138.45890037578675,41.57775631838284" fill="#FFF3B0"/>
  <polygon points="32.95423769102854,11.228952022071098 34.35714768905366,14.071558160201986 37.49414981095193,14.527391250602417 35.22419375099023,16.740051550996814 35.760057687078785,19.864378032192068 32.95423769102854,18.38927116526247 30.148417694978296,19.864378032192068 30.684281631066842,16.740051550996814 28.41432557110515,14.527391250602415 31.551327693003415,14.071558160201986" fill="#FFF3B0"/>
  <polygon points="144.00911090262525,29.426221686841927 144.78767356569543,31.003761948211697 146.5285926050636,31.25673229219474 145.26885175384444,32.484676136325696 145.5662362287656,34.21856066842274 144.00911090262525,33.3999314390021 142.4519855764849,34.21856066842274 142.74937005140606,32.484676136325696 141.4896292001869,31.25673229219474 143.23054823955508,31.003761948211697" fill="#FFF3B0"/>
  <polygon points="176.35640842963767,16.790378300706834 177.07637094028482,18.24918168429569 178.68625605534322,18.48311168455424 177.52133224249044,19.618631758774047 177.79633345093194,21.222011833510955 176.35640842963767,20.46499845069775 174.9164834083434,21.222011833510955 175.1914846167849,19.618631758774047 174.0265608039321,18.483111684554235 175.63644591899052,18.24918168429569" fill="#FFF3B0"/>
  <polygon points="166.6233940285565,32.92320501377981 167.8579769537174,35.42474324932894 170.61858829823777,35.825883558346554 168.62099116339712,37.77305952109097 169.09255987887832,40.52251610187063 166.6233940285565,39.22439879337435 164.1542281782347,40.52251610187063 164.6257968937159,37.77305952109097 162.62819975887524,35.825883558346554 165.3888111033956,35.42474324932894" fill="#FFF3B0"/>
  <polygon points="181.55207674046324,39.185195065429525 182.8994210906691,41.91521290368189 185.91217464682973,42.35299162067191 183.73212569364648,44.478014151595396 184.24676544087498,47.47859411649892 181.55207674046324,46.06191242921659 178.8573880400515,47.47859411649892 179.37202778728,44.4780141515954 177.19197883409674,42.35299162067191 180.20473239025736,41.9152129036819" fill="#FFF3B0"/>
  <polygon points="62.11625997157171,13.053217680889702 63.50890276811834,15.875020196560653 66.62294672957202,16.32751727097553 64.36960335057186,18.523984209615012 64.90154556466497,21.625445297084244 62.11625997157171,20.161134004657924 59.330974378478444,21.625445297084244 59.86291659257155,18.523984209615012 57.6095732135714,16.327517270975527 60.723617175025076,15.875020196560653" fill="#FFF3B0"/>
  <polygon points="131.6264034631604,46.5330857849076 132.413974034935,48.12887806287929 134.1750353705014,48.384775253822276 132.9007194168309,49.62692631153639 133.2015446067096,51.38087175113646 131.6264034631604,50.55277104599372 130.05126231961117,51.38087175113646 130.35208750948988,49.62692631153639 129.07777155581937,48.384775253822276 130.83883289138578,48.12887806287929" fill="#FFF3B0"/>
  <polygon points="156.34194650308928,42.05275805077872 157.76805828215535,44.94237613215291 160.9569411636603,45.40574793820123 158.6494438333748,47.655001933045064 159.19417006122146,50.83099953998554 156.34194650308928,49.33149687675632 153.4897229449571,50.83099953998554 154.03444917280376,47.655001933045064 151.72695184251825,45.40574793820123 154.9158347240232,44.94237613215291" fill="#FFF3B0"/>
  <path d="M155 25 A22 22 0 1 1 175 50 A18 18 0 1 0 155 25" fill="#FFE566"/>
  <rect x="35" y="75" width="130" height="50" rx="8" fill="#C9B8E8"/>
  <rect x="45" y="65" width="90" height="20" rx="8" fill="white"/>
  <rect x="40" y="90" width="120" height="30" rx="6" fill="#C5DBC5"/>
  <text x="170" y="75" fill="#E2D9F3" font-size="16" font-weight="bold">z</text>
  <text x="178" y="65" fill="#E2D9F3" font-size="13" font-weight="bold">z</text>
</svg>