<svg xmlns="http://www.w3.org/2000/svg" viewBox="0 0 200 150" width="200" height="150">
  <defs>
    <linearGradient id="bg4026" gradientTransform="rotate(135)">
      <stop offset="0%" style="stop-color:#D0F0F0"/>
      <stop offset="100%" style="stop-color:#A0E0E0"/>
    </linearGradient>
  </defs>
  <rect width="200" height="150" fill="url(#bg4026)" rx="16"/>
  <circle cx="162.07756006806449" cy="109.83802572445711" r="4.118839209827229" fill="#D0F0F0" opacity="0.3"/><circle cx="186.36853302846248" cy="27.128282322246378" r="3.46460628339878" fill="#D0F0F0" opacity="0.3"/><circle cx="96.26256897681742" cy="51.19772318607829" r="2.5675041211961798" fill="#D0F0F0" opacity="0.3"/><circle cx="100.43710169527458" cy="94.81666760839289" r="2.8138570805585914" fill="#D0F0F0" opacity="0.3"/><circle cx="25.827674722995653" cy="71.88813967350143" r="3.5749706073397647" fill="#D0F0F0" opacity="0.3"/><circle cx="79.77827723625524" cy="134.11585017347534" r="3.111574260329917" fill="#D0F0F0" opacity="0.3"/>
  <ellipse cx="100" cy="95" rx="32" ry="28" fill="#A0E0E0" opacity="1"/>
  <circle cx="100" cy="58" r="28" fill="#A0E0E0" opacity="1"/>
  <ellipse cx="82" cy="25" rx="10" ry="24" fill="#A0E0E0" opacity="1"/>
  <ellipse cx="118" cy="25" rx="10" ry="24" fill="#A0E0E0" opacity="1"/>
  <ellipse cx="82" cy="27" rx="5" ry="15" fill="#FFD6D6" opacity="1"/>
  <ellipse cx="118" cy="27" rx="5" ry="15" fill="#FFD6D6" opacity="1"/>
  <circle cx="88" cy="52" r="5" fill="#333" opacity="1"/>
  <circle cx="112" cy="52" r="5" fill="#333" opacity="1"/>
  <circle cx="86" cy="50" r="2" fill="white" opacity="1"/>
  <circle cx="110" cy="50" r="2" fill="white" opacity="1"/>
  <ellipse cx="100" cy="68" rx="6" ry="4" fill="#FFB3B3" opacity="1"/>
  <path d="M50,46.8 C45.2,42.6 47.6,40.2 50,43.2 C52.4,40.2 54.8,42.6 50,46.8Z" fill="#FFB3B3"/>
  <path d="M155,51.5 C151,48 153,46 155,48.5 C157,46 159,48 155,51.5Z" fill="#FFD6D6"/>
</svg>