<svg xmlns="http://www.w3.org/2000/svg" viewBox="0 0 200 150" width="200" height="150">
  <defs>
    <linearGradient id="bg4141" gradientTransform="rotate(45)">
      <stop offset="0%" style="stop-color:#E2D9F3"/>
      <stop offset="100%" style="stop-color:#C9B8E8"/>
    </linearGradient>
  </defs>
  <rect width="200" height="150" fill="url(#bg4141)" rx="16"/>
  <circle cx="112.30925851018583" cy="114.3358272779551" r="2.146192330383201" fill="#E2D9F3" opacity="0.3"/><circle cx="65.5261166542914" cy="88.56514998742568" r="3.862558457725754" fill="#E2D9F3" opacity="0.3"/><circle cx="91.86485334030294" cy="40.852638932938135" r="3.6409255588678207" fill="#E2D9F3" opacity="0.3"/><circle cx="111.15354012840726" cy="126.21344342051088" r="4.657230997416264" fill="#E2D9F3" opacity="0.3"/><circle cx="18.72290074798002" cy="94.9656247857547" r="4.136308953604384" fill="#E2D9F3" opacity="0.3"/><circle cx="157.98687692149542" cy="4.985788695518778" r="2.97913306571445" fill="#E2D9F3" opacity="0.3"/>
  <circle cx="100" cy="75" r="48" fill="#FFE5D9" opacity="1"/>
  <circle cx="80" cy="68" r="8" fill="#333" opacity="1"/>
  <circle cx="120" cy="68" r="8" fill="#333" opacity="1"/>
  <circle cx="78" cy="65" r="3" fill="white" opacity="1"/>
  <circle cx="118" cy="65" r="3" fill="white" opacity="1"/>
  <path d="M72 92 Q100 115 128 92" stroke="#333" stroke-width="4" fill="none" stroke-linecap="round"/>
  <ellipse cx="60" cy="82" rx="12" ry="7" fill="#FFB3B3" opacity="0.4"/>
  <ellipse cx="140" cy="82" rx="12" ry="7" fill="#FFB3B3" opacity="0.4"/>
  <path d="M45,42.25 C39,37 42,34 45,37.75 C48,34 51,37 45,42.25Z" fill="#FFB3B3"/>
  <path d="M160,46.8 C155.2,42.6 157.6,40.2 160,43.2 C162.4,40.2 164.8,42.6 160,46.8Z" fill="#FFD6D6"/>
</svg>