<svg xmlns="http://www.w3.org/2000/svg" viewBox="0 0 200 150" width="200" height="150">
  <defs>
    <linearGradient id="bg416" gradientTransform="rotate(0)">
      <stop offset="0%" style="stop-color:#E0F4FF"/>
      <stop offset="100%" style="stop-color:#BAE6FD"/>
    </linearGradient>
  </defs>
  <rect width="200" height="150" fill="url(#bg416)" rx="16"/>
  <rect x="68.69789189332732" y="91.11611661139068" width="57.243456191412406" height="23.88388338860932" rx="4" fill="#FFB3B3"/>
  <rect x="77.95172752498911" y="66.06539525720655" width="47.4524609969958" height="25.050721354184134" rx="4" fill="#B7E4C7"/>
  <rect x="82.69727594372307" y="42.235302694897655" width="36.891475831886055" height="23.83009256230889" rx="4" fill="#C9B8E8"/>
  <rect x="84.5312831900319" y="19.11306394776784" width="30.614957260826486" height="23.122238747129813" rx="4" fill="#FFE566"/>
  <polygon points="45,31 49.11449676604731,39.33688103937537 58.31479122813215,40.673762078750734 51.657395614066075,47.16311896062463 53.22899353209462,56.326237921249266 45,52 36.77100646790538,56.326237921249266 38.342604385933925,47.16311896062463 31.68520877186785,40.673762078750734 40.88550323395269,39.33688103937537" fill="#FFE566"/>
  <polygon points="160,38 163.52671151375483,45.14589803375031 171.41267819554184,46.291796067500634 165.70633909777092,51.85410196624969 167.05342302750967,59.70820393249937 160,56 152.94657697249033,59.70820393249937 154.29366090222908,51.85410196624969 148.58732180445816,46.29179606750063 156.47328848624517,45.14589803375031" fill="#FFF3B0"/>
  <polygon points="100,12 102.93892626146237,17.954915028125264 109.51056516295154,18.909830056250527 104.75528258147577,23.545084971874736 105.87785252292473,30.090169943749473 100,27 94.12214747707527,30.090169943749473 95.24471741852423,23.545084971874736 90.48943483704846,18.909830056250524 97.06107373853763,17.954915028125264" fill="#FFB3B3"/>
</svg>