<svg xmlns="http://www.w3.org/2000/svg" viewBox="0 0 200 150" width="200" height="150">
  <defs>
    <linearGradient id="bg4224" gradientTransform="rotate(45)">
      <stop offset="0%" style="stop-color:#D8F3DC"/>
      <stop offset="100%" style="stop-color:#B7E4C7"/>
    </linearGradient>
  </defs>
  <rect width="200" height="150" fill="url(#bg4224)" rx="16"/>
  <circle cx="44.209528040664736" cy="84.87399606310646" r="4.976423458900172" fill="#D8F3DC" opacity="0.3"/><circle cx="160.12510929049313" cy="149.02374578987292" r="2.941040242505551" fill="#D8F3DC" opacity="0.3"/><circle cx="79.09931681406306" cy="102.25618252216009" r="3.870259102449836" fill="#D8F3DC" opacity="0.3"/><circle cx="137.38995455159966" cy="116.56853712872817" r="2.267370690401549" fill="#D8F3DC" opacity="0.3"/><circle cx="10.027825949146063" cy="74.81584723509513" r="4.156191687877083" fill="#D8F3DC" opacity="0.3"/><circle cx="104.80081183549714" cy="127.19434803493641" r="3.542654522418161" fill="#D8F3DC" opacity="0.3"/>
  <circle cx="100" cy="75" r="48" fill="#FFE5D9" opacity="1"/>
  <circle cx="80" cy="68" r="8" fill="#333" opacity="1"/>
  <circle cx="120" cy="68" r="8" fill="#333" opacity="1"/>
  <circle cx="78" cy="65" r="3" fill="white" opacity="1"/>
  <circle cx="118" cy="65" r="3" fill="white" opacity="1"/>
  <path d="M72 92 Q100 115 128 92" stroke="#333" stroke-width="4" fill="none" stroke-linecap="round"/>
  <ellipse cx="60" cy="82" rx="12" ry="7" fill="#FFB3B3" opacity="0.4"/>
  <ellipse cx="140" cy="82" rx="12" ry="7" fill="#FFB3B3" opacity="0.4"/>
  <path d="M45,42.25 C39,37 42,34 45,37.75 C48,34 51,37 45,42.25Z" fill="#FFB3B3"/>
  <path d="M160,46.8 C155.2,42.6 157.6,40.2 160,43.2 C162.4,40.2 164.8,42.6 160,46.8Z" fill="#FFD6D6"/>
</svg>