<svg xmlns="http://www.w3.org/2000/svg" viewBox="0 0 200 150" width="200" height="150">
  <defs>
    <linearGradient id="bg4326" gradientTransform="rotate(45)">
      <stop offset="0%" style="stop-color:#FFF5EB"/>
      <stop offset="100%" style="stop-color:#FFE4CC"/>
    </linearGradient>
  </defs>
  <rect width="200" height="150" fill="url(#bg4326)" rx="16"/>
  <circle cx="54.115823494430515" cy="36.942891739181505" r="2.0638931859612057" fill="#FFF5EB" opacity="0.3"/><circle cx="38.40555332221811" cy="4.265864471290115" r="2.4860100600581063" fill="#FFF5EB" opacity="0.3"/><circle cx="41.698421368710115" cy="89.66236474902871" r="4.478266155059828" fill="#FFF5EB" opacity="0.3"/><circle cx="199.91043369664112" cy="137.82273363349304" r="2.9666098698780843" fill="#FFF5EB" opacity="0.3"/><circle cx="151.90739695790398" cy="132.12355131836375" r="3.248741055181199" fill="#FFF5EB" opacity="0.3"/><circle cx="64.27081604470004" cy="123.9610697725766" r="4.88130236735924" fill="#FFF5EB" opacity="0.3"/>
  <ellipse cx="100" cy="95" rx="32" ry="28" fill="#FFE4CC" opacity="1"/>
  <circle cx="100" cy="58" r="28" fill="#FFE4CC" opacity="1"/>
  <ellipse cx="82" cy="25" rx="10" ry="24" fill="#FFE4CC" opacity="1"/>
  <ellipse cx="118" cy="25" rx="10" ry="24" fill="#FFE4CC" opacity="1"/>
  <ellipse cx="82" cy="27" rx="5" ry="15" fill="#FFD6D6" opacity="1"/>
  <ellipse cx="118" cy="27" rx="5" ry="15" fill="#FFD6D6" opacity="1"/>
  <circle cx="88" cy="52" r="5" fill="#333" opacity="1"/>
  <circle cx="112" cy="52" r="5" fill="#333" opacity="1"/>
  <circle cx="86" cy="50" r="2" fill="white" opacity="1"/>
  <circle cx="110" cy="50" r="2" fill="white" opacity="1"/>
  <ellipse cx="100" cy="68" rx="6" ry="4" fill="#FFB3B3" opacity="1"/>
  <path d="M50,46.8 C45.2,42.6 47.6,40.2 50,43.2 C52.4,40.2 54.8,42.6 50,46.8Z" fill="#FFB3B3"/>
  <path d="M155,51.5 C151,48 153,46 155,48.5 C157,46 159,48 155,51.5Z" fill="#FFD6D6"/>
</svg>