<svg xmlns="http://www.w3.org/2000/svg" viewBox="0 0 200 150" width="200" height="150">
  <defs>
    <linearGradient id="bg44050" gradientTransform="rotate(90)">
      <stop offset="0%" style="stop-color:#FFE5D9"/>
      <stop offset="100%" style="stop-color:#FFCDB2"/>
    </linearGradient>
  </defs>
  <rect width="200" height="150" fill="url(#bg44050)" rx="16"/>
  <circle cx="143.08752131686333" cy="138.88636994051922" r="3.841011345231891" fill="#FFE5D9" opacity="0.3"/><circle cx="112.21679103737188" cy="2.170963772732648" r="2.898667946756177" fill="#FFE5D9" opacity="0.3"/><circle cx="100.70283636960085" cy="22.697771988623572" r="4.956103862085001" fill="#FFE5D9" opacity="0.3"/><circle cx="13.676101660712447" cy="75.09431250464331" r="4.310180198232047" fill="#FFE5D9" opacity="0.3"/><circle cx="134.02190051674552" cy="79.17867638175267" r="2.72835011884672" fill="#FFE5D9" opacity="0.3"/><circle cx="194.2963504612635" cy="32.15659286315713" r="4.183870540209682" fill="#FFE5D9" opacity="0.3"/>
  <ellipse cx="100" cy="70" rx="50" ry="58" fill="#FFB4A2" opacity="1"/>
  <ellipse cx="100" cy="70" rx="44" ry="52" fill="#D4E9FF" opacity="1"/>
  <ellipse cx="80" cy="50" rx="15" ry="20" fill="white" opacity="0.5"/>
  <rect x="88" y="123" width="24" height="22" rx="4" fill="#FFB4A2"/>
  <polygon points="25,46 27.351141009169893,50.763932022500214 32.60845213036123,51.52786404500042 28.804226065180615,55.236067977499786 29.702282018339787,60.47213595499958 25,58 20.297717981660217,60.47213595499958 21.195773934819385,55.23606797749979 17.39154786963877,51.52786404500042 22.648858990830107,50.763932022500214" fill="#FFF3B0"/><polygon points="42.95416432311869,8.01556729508097 45.89309058458105,13.970482323206234 52.464729486070226,14.925397351331496 47.70944690459446,19.560652266955707 48.83201684604342,26.105737238830443 42.95416432311869,23.01556729508097 37.07631180019396,26.105737238830443 38.19888174164292,19.560652266955707 33.44359916016715,14.925397351331494 40.015238061656326,13.970482323206234" fill="#FFF3B0"/><polygon points="-3.7677282398941534,41.937757746417915 -0.24101672613931546,49.08365578016823 7.644949955647688,50.22955381391855 1.9386108578767667,55.7918597126676 3.2856947876155234,63.64596167891729 -3.767728239894154,59.937757746417915 -10.821151267403831,63.64596167891729 -9.474067337665076,55.7918597126676 -15.180406435435996,50.22955381391854 -7.2944397536489936,49.08365578016823" fill="#FFF3B0"/><polygon points="53.13999930324216,4.139944141853139 57.25449606928947,12.476825181228506 66.45479053137431,13.813706220603876 59.79739491730824,20.303063102477772 61.36899283533678,29.4661820631024 53.13999930324216,25.13994414185314 44.91100577114754,29.4661820631024 46.48260368917609,20.303063102477772 39.82520807511001,13.813706220603871 49.02550253719485,12.476825181228508" fill="#FFF3B0"/>
  <path d="M55,101.5 C51,98 53,96 55,98.5 C57,96 59,98 55,101.5Z" fill="#FFB3B3"/>
</svg>