<svg xmlns="http://www.w3.org/2000/svg" viewBox="0 0 200 150" width="200" height="150">
  <defs>
    <linearGradient id="bg44074" gradientTransform="rotate(45)">
      <stop offset="0%" style="stop-color:#FFF5EB"/>
      <stop offset="100%" style="stop-color:#FFE4CC"/>
    </linearGradient>
  </defs>
  <rect width="200" height="150" fill="url(#bg44074)" rx="16"/>
  <circle cx="36.481955170711444" cy="102.44548139621656" r="2.570392813878698" fill="#FFF5EB" opacity="0.3"/><circle cx="113.68043194652273" cy="90.34551833603643" r="4.759550193630275" fill="#FFF5EB" opacity="0.3"/><circle cx="73.75063428735302" cy="33.34225413564127" r="3.711607379472298" fill="#FFF5EB" opacity="0.3"/><circle cx="162.37777389633266" cy="86.13750724816782" r="2.307944781754486" fill="#FFF5EB" opacity="0.3"/><circle cx="169.6143553341244" cy="126.79258534865312" r="4.7614780586227425" fill="#FFF5EB" opacity="0.3"/><circle cx="193.00106586961192" cy="131.71846587192704" r="4.790459162199568" fill="#FFF5EB" opacity="0.3"/>
  <ellipse cx="100" cy="95" rx="32" ry="28" fill="#FFE4CC" opacity="1"/>
  <circle cx="100" cy="58" r="28" fill="#FFE4CC" opacity="1"/>
  <ellipse cx="82" cy="25" rx="10" ry="24" fill="#FFE4CC" opacity="1"/>
  <ellipse cx="118" cy="25" rx="10" ry="24" fill="#FFE4CC" opacity="1"/>
  <ellipse cx="82" cy="27" rx="5" ry="15" fill="#FFD6D6" opacity="1"/>
  <ellipse cx="118" cy="27" rx="5" ry="15" fill="#FFD6D6" opacity="1"/>
  <circle cx="88" cy="52" r="5" fill="#333" opacity="1"/>
  <circle cx="112" cy="52" r="5" fill="#333" opacity="1"/>
  <circle cx="86" cy="50" r="2" fill="white" opacity="1"/>
  <circle cx="110" cy="50" r="2" fill="white" opacity="1"/>
  <ellipse cx="100" cy="68" rx="6" ry="4" fill="#FFB3B3" opacity="1"/>
  <path d="M50,46.8 C45.2,42.6 47.6,40.2 50,43.2 C52.4,40.2 54.8,42.6 50,46.8Z" fill="#FFB3B3"/>
  <path d="M155,51.5 C151,48 153,46 155,48.5 C157,46 159,48 155,51.5Z" fill="#FFD6D6"/>
</svg>