<svg xmlns="http://www.w3.org/2000/svg" viewBox="0 0 200 150" width="200" height="150">
  <defs>
    <linearGradient id="bg4474" gradientTransform="rotate(90)">
      <stop offset="0%" style="stop-color:#F0F7FF"/>
      <stop offset="100%" style="stop-color:#DCE8F5"/>
    </linearGradient>
  </defs>
  <rect width="200" height="150" fill="url(#bg4474)" rx="16"/>
  <rect x="0" y="100" width="200" height="50" rx="0" fill="#C5DBC5"/>
  <circle cx="165" cy="35" r="22" fill="#FFE566" opacity="1"/>
  <line x1="191" y1="35" x2="200" y2="35" stroke="#FFF3B0" stroke-width="3" stroke-linecap="round"/>
  <line x1="183.38477631085024" y1="53.384776310850235" x2="189.74873734152916" y2="59.748737341529164" stroke="#FFF3B0" stroke-width="3" stroke-linecap="round"/>
  <line x1="165" y1="61" x2="165" y2="70" stroke="#FFF3B0" stroke-width="3" stroke-linecap="round"/>
  <line x1="146.61522368914976" y1="53.38477631085024" x2="140.25126265847084" y2="59.748737341529164" stroke="#FFF3B0" stroke-width="3" stroke-linecap="round"/>
  <line x1="139" y1="35" x2="130" y2="35.00000000000001" stroke="#FFF3B0" stroke-width="3" stroke-linecap="round"/>
  <line x1="146.61522368914976" y1="16.615223689149765" x2="140.25126265847084" y2="10.25126265847084" stroke="#FFF3B0" stroke-width="3" stroke-linecap="round"/>
  <line x1="165" y1="9" x2="165" y2="0" stroke="#FFF3B0" stroke-width="3" stroke-linecap="round"/>
  <line x1="183.38477631085024" y1="16.61522368914976" x2="189.74873734152916" y2="10.251262658470832" stroke="#FFF3B0" stroke-width="3" stroke-linecap="round"/>
  <rect x="90" y="55" width="14" height="50" rx="2" fill="#8B6914"/>
  <path d="M82.69243267281854,35.970066576177715 Q92.69243267281854,47.970066576177715 82.69243267281854,59.970066576177715 Q72.69243267281854,47.970066576177715 82.69243267281854,35.970066576177715Z" fill="#B7E4C7"/>
  <path d="M90.26836032969004,34.57831094893481 Q100.26836032969004,46.57831094893481 90.26836032969004,58.57831094893481 Q80.26836032969004,46.57831094893481 90.26836032969004,34.57831094893481Z" fill="#95D5B2"/>
  <path d="M100.42814289178568,25.432166699109075 Q110.42814289178568,37.432166699109075 100.42814289178568,49.432166699109075 Q90.42814289178568,37.432166699109075 100.42814289178568,25.432166699109075Z" fill="#B7E4C7"/>
  <path d="M111.53353625614545,42.008414509316935 Q121.53353625614545,54.008414509316935 111.53353625614545,66.00841450931694 Q101.53353625614545,54.008414509316935 111.53353625614545,42.008414509316935Z" fill="#95D5B2"/>
  <path d="M127.47500072380353,26.742993484393082 Q137.47500072380353,38.74299348439308 127.47500072380353,50.74299348439308 Q117.47500072380353,38.74299348439308 127.47500072380353,26.742993484393082Z" fill="#B7E4C7"/>
  <circle cx="45" cy="95" r="8" fill="#FFB3B3" opacity="1"/>
  <circle cx="155" cy="98" r="6" fill="#C9B8E8" opacity="1"/>
</svg>