<svg xmlns="http://www.w3.org/2000/svg" viewBox="0 0 200 150" width="200" height="150">
  <defs>
    <linearGradient id="bg456" gradientTransform="rotate(45)">
      <stop offset="0%" style="stop-color:#E2D9F3"/>
      <stop offset="100%" style="stop-color:#C9B8E8"/>
    </linearGradient>
  </defs>
  <rect width="200" height="150" fill="url(#bg456)" rx="16"/>
  <circle cx="70.49163511801453" cy="31.48292697060242" r="2.8068680531195014" fill="#E2D9F3" opacity="0.3"/><circle cx="42.30425317582558" cy="135.18303600885702" r="3.7390840954212763" fill="#E2D9F3" opacity="0.3"/><circle cx="90.73656003165524" cy="8.077752752888046" r="4.423829108663995" fill="#E2D9F3" opacity="0.3"/><circle cx="147.0911504252058" cy="71.2117462284823" r="3.446105018027083" fill="#E2D9F3" opacity="0.3"/><circle cx="133.4377623987166" cy="4.420147006828756" r="3.777781821005192" fill="#E2D9F3" opacity="0.3"/><circle cx="152.2861755809572" cy="111.47663287727028" r="2.9718696306572383" fill="#E2D9F3" opacity="0.3"/>
  <circle cx="100" cy="75" r="48" fill="#FFE5D9" opacity="1"/>
  <circle cx="80" cy="68" r="8" fill="#333" opacity="1"/>
  <circle cx="120" cy="68" r="8" fill="#333" opacity="1"/>
  <circle cx="78" cy="65" r="3" fill="white" opacity="1"/>
  <circle cx="118" cy="65" r="3" fill="white" opacity="1"/>
  <path d="M72 92 Q100 115 128 92" stroke="#333" stroke-width="4" fill="none" stroke-linecap="round"/>
  <ellipse cx="60" cy="82" rx="12" ry="7" fill="#FFB3B3" opacity="0.4"/>
  <ellipse cx="140" cy="82" rx="12" ry="7" fill="#FFB3B3" opacity="0.4"/>
  <path d="M45,42.25 C39,37 42,34 45,37.75 C48,34 51,37 45,42.25Z" fill="#FFB3B3"/>
  <path d="M160,46.8 C155.2,42.6 157.6,40.2 160,43.2 C162.4,40.2 164.8,42.6 160,46.8Z" fill="#FFD6D6"/>
</svg>