<svg xmlns="http://www.w3.org/2000/svg" viewBox="0 0 200 150" width="200" height="150">
  <defs>
    <linearGradient id="bg50187" gradientTransform="rotate(180)">
      <stop offset="0%" style="stop-color:#D0F0F0"/>
      <stop offset="100%" style="stop-color:#A0E0E0"/>
    </linearGradient>
  </defs>
  <rect width="200" height="150" fill="url(#bg50187)" rx="16"/>
  <rect x="0" y="100" width="200" height="50" rx="0" fill="#C5DBC5"/>
  <circle cx="165" cy="35" r="22" fill="#FFE566" opacity="1"/>
  <line x1="191" y1="35" x2="200" y2="35" stroke="#FFF3B0" stroke-width="3" stroke-linecap="round"/>
  <line x1="183.38477631085024" y1="53.384776310850235" x2="189.74873734152916" y2="59.748737341529164" stroke="#FFF3B0" stroke-width="3" stroke-linecap="round"/>
  <line x1="165" y1="61" x2="165" y2="70" stroke="#FFF3B0" stroke-width="3" stroke-linecap="round"/>
  <line x1="146.61522368914976" y1="53.38477631085024" x2="140.25126265847084" y2="59.748737341529164" stroke="#FFF3B0" stroke-width="3" stroke-linecap="round"/>
  <line x1="139" y1="35" x2="130" y2="35.00000000000001" stroke="#FFF3B0" stroke-width="3" stroke-linecap="round"/>
  <line x1="146.61522368914976" y1="16.615223689149765" x2="140.25126265847084" y2="10.25126265847084" stroke="#FFF3B0" stroke-width="3" stroke-linecap="round"/>
  <line x1="165" y1="9" x2="165" y2="0" stroke="#FFF3B0" stroke-width="3" stroke-linecap="round"/>
  <line x1="183.38477631085024" y1="16.61522368914976" x2="189.74873734152916" y2="10.251262658470832" stroke="#FFF3B0" stroke-width="3" stroke-linecap="round"/>
  <rect x="90" y="55" width="14" height="50" rx="2" fill="#8B6914"/>
  <path d="M76.18408072409511,36.02617351762137 Q86.18408072409511,48.02617351762137 76.18408072409511,60.02617351762137 Q66.18408072409511,48.02617351762137 76.18408072409511,36.02617351762137Z" fill="#B7E4C7"/>
  <path d="M88.7256373157361,37.29997401042783 Q98.7256373157361,49.29997401042783 88.7256373157361,61.29997401042783 Q78.7256373157361,49.29997401042783 88.7256373157361,37.29997401042783Z" fill="#95D5B2"/>
  <path d="M105.84296589541191,24.130119947119965 Q115.84296589541191,36.130119947119965 105.84296589541191,48.130119947119965 Q95.84296589541191,36.130119947119965 105.84296589541191,24.130119947119965Z" fill="#B7E4C7"/>
  <path d="M116.05251754837809,36.326152387617185 Q126.05251754837809,48.326152387617185 116.05251754837809,60.326152387617185 Q106.05251754837809,48.326152387617185 116.05251754837809,36.326152387617185Z" fill="#95D5B2"/>
  <path d="M128.37680529281351,30.249361558606324 Q138.37680529281351,42.249361558606324 128.37680529281351,54.249361558606324 Q118.37680529281351,42.249361558606324 128.37680529281351,30.249361558606324Z" fill="#B7E4C7"/>
  <circle cx="45" cy="95" r="8" fill="#FFB3B3" opacity="1"/>
  <circle cx="155" cy="98" r="6" fill="#C9B8E8" opacity="1"/>
</svg>