<svg xmlns="http://www.w3.org/2000/svg" viewBox="0 0 200 150" width="200" height="150">
  <defs>
    <linearGradient id="bg5091" gradientTransform="rotate(90)">
      <stop offset="0%" style="stop-color:#E8F0E8"/>
      <stop offset="100%" style="stop-color:#C5DBC5"/>
    </linearGradient>
  </defs>
  <rect width="200" height="150" fill="url(#bg5091)" rx="16"/>
  <circle cx="143.75493932369864" cy="50.90115934825462" r="9.012491635976403" fill="#FFB3B3" opacity="0.4"/>
  <circle cx="71.24085410119733" cy="33.758400857977904" r="10.842950543046754" fill="#A8D0F0" opacity="0.4"/>
  <circle cx="29.758642381930258" cy="31.868673938488428" r="7.863471207165276" fill="#FFE566" opacity="0.4"/>
  <circle cx="162.95223306948174" cy="40.67463393588696" r="11.7152777776937" fill="#FFB3B3" opacity="0.4"/>
  <circle cx="40.019587792339735" cy="41.65637315921231" r="10.029203044086898" fill="#A8D0F0" opacity="0.4"/>
  <circle cx="152.77261261013336" cy="40.82475656801762" r="6.26654583191339" fill="#FFE566" opacity="0.4"/>
  <rect x="49.31340043142882" y="71.48076531369588" width="35" height="43.51923468630412" rx="4" fill="#FFB3B3"/>
  <ellipse cx="66.81340043142882" cy="63.48076531369588" rx="10" ry="8" fill="#FFB3B3" opacity="1"/>
  <rect x="100.73062398116235" y="71.96404704476299" width="35" height="43.03595295523701" rx="4" fill="#A8D0F0"/>
  <ellipse cx="118.23062398116235" cy="63.96404704476299" rx="10" ry="8" fill="#A8D0F0" opacity="1"/>
  <rect x="157.606588220915" y="75.67594543983796" width="35" height="39.32405456016204" rx="4" fill="#FFE566"/>
  <ellipse cx="175.106588220915" cy="67.67594543983796" rx="10" ry="8" fill="#FFE566" opacity="1"/>
  <rect x="165" y="50" width="8" height="40" rx="2" fill="#8B4513"/>
  <rect x="163" y="85" width="12" height="20" rx="3" fill="#C5DBC5"/>
</svg>