<svg xmlns="http://www.w3.org/2000/svg" viewBox="0 0 200 150" width="200" height="150">
  <defs>
    <linearGradient id="bg5462" gradientTransform="rotate(90)">
      <stop offset="0%" style="stop-color:#FFD6D6"/>
      <stop offset="100%" style="stop-color:#FFB3B3"/>
    </linearGradient>
  </defs>
  <rect width="200" height="150" fill="url(#bg5462)" rx="16"/>
  <path d="M10 45 Q22 38 34 45" stroke="#FFB3B3" stroke-width="3" fill="none" opacity="0.3"/>
  <path d="M22 51 Q34 44 46 51" stroke="#FFB3B3" stroke-width="3" fill="none" opacity="0.3"/>
  <path d="M34 57 Q46 50 58 57" stroke="#FFB3B3" stroke-width="3" fill="none" opacity="0.3"/>
  <path d="M46 63 Q58 56 70 63" stroke="#FFB3B3" stroke-width="3" fill="none" opacity="0.3"/>
  <rect x="25" y="90" width="55" height="28" rx="14" fill="#FFB3B3"/>
  <rect x="70" y="65" width="50" height="26" rx="13" fill="#B7E4C7"/>
  <rect x="110" y="45" width="45" height="24" rx="12" fill="#C9B8E8"/>
  <circle cx="160" cy="85" r="15" fill="#FFE566" opacity="1"/>
  <circle cx="157" cy="80" r="5" fill="white" opacity="0.5"/>
  <polygon points="30,41 32.35114100916989,45.763932022500214 37.60845213036123,46.52786404500042 33.804226065180615,50.236067977499786 34.70228201833979,55.47213595499958 30,53 25.297717981660217,55.47213595499958 26.195773934819385,50.23606797749979 22.39154786963877,46.52786404500042 27.648858990830107,45.763932022500214" fill="#FFF3B0"/><polygon points="47.95416432311869,3.01556729508097 50.89309058458105,8.970482323206234 57.464729486070226,9.925397351331496 52.70944690459446,14.560652266955707 53.83201684604342,21.105737238830443 47.95416432311869,18.01556729508097 42.07631180019396,21.105737238830443 43.19888174164292,14.560652266955708 38.44359916016715,9.925397351331494 45.015238061656326,8.970482323206234" fill="#FFF3B0"/><polygon points="1.2322717601058464,36.937757746417915 4.758983273860684,44.08365578016823 12.644949955647688,45.22955381391855 6.938610857876767,50.7918597126676 8.285694787615522,58.64596167891729 1.2322717601058462,54.937757746417915 -5.821151267403831,58.64596167891729 -4.474067337665075,50.7918597126676 -10.180406435435996,45.22955381391854 -2.2944397536489936,44.08365578016823" fill="#FFF3B0"/><polygon points="58.13999930324216,-0.8600558581468611 62.25449606928947,7.476825181228507 71.45479053137431,8.813706220603876 64.79739491730824,15.30306310247777 66.36899283533678,24.4661820631024 58.13999930324216,20.13994414185314 49.91100577114754,24.4661820631024 51.48260368917609,15.303063102477772 44.82520807511001,8.813706220603871 54.02550253719485,7.476825181228508" fill="#FFF3B0"/>
</svg>