<svg xmlns="http://www.w3.org/2000/svg" viewBox="0 0 200 150" width="200" height="150">
  <defs>
    <linearGradient id="bg5820" gradientTransform="rotate(45)">
      <stop offset="0%" style="stop-color:#E2D9F3"/>
      <stop offset="100%" style="stop-color:#C9B8E8"/>
    </linearGradient>
  </defs>
  <rect width="200" height="150" fill="url(#bg5820)" rx="16"/>
  <circle cx="135.9428127987485" cy="16.346268064353353" r="4.773233181294017" fill="#E2D9F3" opacity="0.3"/><circle cx="35.34355773663265" cy="20.431547432667685" r="3.0244924911967246" fill="#E2D9F3" opacity="0.3"/><circle cx="42.71537371132581" cy="93.51432414208602" r="4.788062928603722" fill="#E2D9F3" opacity="0.3"/><circle cx="26.534503678885812" cy="71.86241411118317" r="3.0813926699065632" fill="#E2D9F3" opacity="0.3"/><circle cx="195.84142009007337" cy="68.766970712295" r="4.958371527271083" fill="#E2D9F3" opacity="0.3"/><circle cx="93.17647832558578" cy="102.0814136734316" r="3.886512729676724" fill="#E2D9F3" opacity="0.3"/>
  <ellipse cx="100" cy="70" rx="50" ry="58" fill="#B298DC" opacity="1"/>
  <ellipse cx="100" cy="70" rx="44" ry="52" fill="#D4E9FF" opacity="1"/>
  <ellipse cx="80" cy="50" rx="15" ry="20" fill="white" opacity="0.5"/>
  <rect x="88" y="123" width="24" height="22" rx="4" fill="#B298DC"/>
  <polygon points="25,46 27.351141009169893,50.763932022500214 32.60845213036123,51.52786404500042 28.804226065180615,55.236067977499786 29.702282018339787,60.47213595499958 25,58 20.297717981660217,60.47213595499958 21.195773934819385,55.23606797749979 17.39154786963877,51.52786404500042 22.648858990830107,50.763932022500214" fill="#FFF3B0"/><polygon points="42.95416432311869,8.01556729508097 45.89309058458105,13.970482323206234 52.464729486070226,14.925397351331496 47.70944690459446,19.560652266955707 48.83201684604342,26.105737238830443 42.95416432311869,23.01556729508097 37.07631180019396,26.105737238830443 38.19888174164292,19.560652266955707 33.44359916016715,14.925397351331494 40.015238061656326,13.970482323206234" fill="#FFF3B0"/><polygon points="-3.7677282398941534,41.937757746417915 -0.24101672613931546,49.08365578016823 7.644949955647688,50.22955381391855 1.9386108578767667,55.7918597126676 3.2856947876155234,63.64596167891729 -3.767728239894154,59.937757746417915 -10.821151267403831,63.64596167891729 -9.474067337665076,55.7918597126676 -15.180406435435996,50.22955381391854 -7.2944397536489936,49.08365578016823" fill="#FFF3B0"/><polygon points="53.13999930324216,4.139944141853139 57.25449606928947,12.476825181228506 66.45479053137431,13.813706220603876 59.79739491730824,20.303063102477772 61.36899283533678,29.4661820631024 53.13999930324216,25.13994414185314 44.91100577114754,29.4661820631024 46.48260368917609,20.303063102477772 39.82520807511001,13.813706220603871 49.02550253719485,12.476825181228508" fill="#FFF3B0"/>
  <path d="M55,101.5 C51,98 53,96 55,98.5 C57,96 59,98 55,101.5Z" fill="#FFB3B3"/>
</svg>