<svg xmlns="http://www.w3.org/2000/svg" viewBox="0 0 200 150" width="200" height="150">
  <defs>
    <linearGradient id="bg5860" gradientTransform="rotate(135)">
      <stop offset="0%" style="stop-color:#D0F0F0"/>
      <stop offset="100%" style="stop-color:#A0E0E0"/>
    </linearGradient>
  </defs>
  <rect width="200" height="150" fill="url(#bg5860)" rx="16"/>
  <circle cx="34.115502484928584" cy="77.5030327411855" r="3.334059087035712" fill="#D0F0F0" opacity="0.3"/><circle cx="104.01727312419098" cy="16.672953468423657" r="2.321200007057996" fill="#D0F0F0" opacity="0.3"/><circle cx="158.65769905121851" cy="116.75717941006951" r="2.1851938391309886" fill="#D0F0F0" opacity="0.3"/><circle cx="124.02846963450429" cy="60.892878478043144" r="4.443987003623079" fill="#D0F0F0" opacity="0.3"/><circle cx="167.9794117453639" cy="21.08850258973689" r="3.3937627860450448" fill="#D0F0F0" opacity="0.3"/><circle cx="191.2102334190422" cy="120.0343159390286" r="4.357326647535956" fill="#D0F0F0" opacity="0.3"/>
  <circle cx="100" cy="75" r="48" fill="#FFE5D9" opacity="1"/>
  <circle cx="80" cy="68" r="8" fill="#333" opacity="1"/>
  <circle cx="120" cy="68" r="8" fill="#333" opacity="1"/>
  <circle cx="78" cy="65" r="3" fill="white" opacity="1"/>
  <circle cx="118" cy="65" r="3" fill="white" opacity="1"/>
  <path d="M72 92 Q100 115 128 92" stroke="#333" stroke-width="4" fill="none" stroke-linecap="round"/>
  <ellipse cx="60" cy="82" rx="12" ry="7" fill="#FFB3B3" opacity="0.4"/>
  <ellipse cx="140" cy="82" rx="12" ry="7" fill="#FFB3B3" opacity="0.4"/>
  <path d="M45,42.25 C39,37 42,34 45,37.75 C48,34 51,37 45,42.25Z" fill="#FFB3B3"/>
  <path d="M160,46.8 C155.2,42.6 157.6,40.2 160,43.2 C162.4,40.2 164.8,42.6 160,46.8Z" fill="#FFD6D6"/>
</svg>