<svg xmlns="http://www.w3.org/2000/svg" viewBox="0 0 200 150" width="200" height="150">
  <defs>
    <linearGradient id="bg5876" gradientTransform="rotate(0)">
      <stop offset="0%" style="stop-color:#FFE5D9"/>
      <stop offset="100%" style="stop-color:#FFCDB2"/>
    </linearGradient>
  </defs>
  <rect width="200" height="150" fill="url(#bg5876)" rx="16"/>
  <rect x="0" y="0" width="200" height="150" rx="0" fill="#1a1a3e"/>
  <polygon points="184.46079058008763,47.734806943023614 185.800011151669,50.44836420788542 188.79459938659105,50.883503349192495 186.62769498333932,52.99571311060336 187.13923172325036,55.97820115462838 184.46079058008763,54.5700613136878 181.7823494369249,55.97820115462838 182.29388617683594,52.99571311060336 180.12698177358422,50.88350334919249 183.12157000850627,50.44836420788542" fill="#FFF3B0"/>
  <polygon points="68.02031894446372,40.28952207536804 68.75512952446665,41.778410933541565 70.39821593193925,42.01716536398484 69.2092674382015,43.176103714250374 69.48994010446958,44.81255092540247 68.02031894446372,44.039925358558776 66.55069778445787,44.81255092540247 66.83137045072596,43.176103714250374 65.6424219569882,42.01716536398484 67.2855083644608,41.778410933541565" fill="#FFF3B0"/>
  <polygon points="41.24794683321852,44.16238567616438 41.97980554553085,45.64529339711024 43.61629137618668,45.883088707600166 42.4321191047026,47.037371391814276 42.711664257843175,48.66724469700824 41.24794683321852,47.89772290753217 39.784229408593866,48.66724469700824 40.06377456173444,47.037371391814276 38.87960229025036,45.883088707600166 40.51608812090619,45.64529339711024" fill="#FFF3B0"/>
  <polygon points="122.22508282042327,36.99388412640246 123.62832998909548,39.837173446884584 126.76608604748067,40.29311609066925 124.49558443395196,42.50630817436146 125.0315771577677,45.63138554562298 122.22508282042327,44.15592415649485 119.41858848307884,45.63138554562298 119.95458120689457,42.50630817436146 117.68407959336587,40.293116090669244 120.82183565175106,39.837173446884584" fill="#FFF3B0"/>
  <polygon points="97.55571277592736,30.714739225715675 98.6261925023188,32.88376806239696 101.01985793906543,33.231588009919555 99.2877853574964,34.91994150108983 99.69667222871024,37.30393488730528 97.55571277592736,36.17836589319177 95.41475332314448,37.30393488730528 95.82364019435832,34.91994150108983 94.09156761278929,33.231588009919555 96.48523304953592,32.88376806239697" fill="#FFF3B0"/>
  <polygon points="101.61301347377503,39.91109610666899 102.36536977065933,41.43553647033831 104.04768959379264,41.679991849780876 102.83035153378384,42.866603187793324 103.11772606754363,44.5421252846909 101.61301347377503,43.751051059349265 100.10830088000642,44.5421252846909 100.39567541376621,42.866603187793324 99.17833735375741,41.679991849780876 100.86065717689073,41.43553647033831" fill="#FFF3B0"/>
  <polygon points="168.15376496703266,30.32636357018646 169.14947342120095,32.34388926149381 171.37594521049252,32.66741454995871 169.76485508876257,34.23783928882768 170.14518187536925,36.45531460462645 168.15376496703266,35.4083647787138 166.16234805869607,36.45531460462645 166.54267484530274,34.23783928882768 164.9315847235728,32.66741454995871 167.15805651286436,32.34388926149381" fill="#FFF3B0"/>
  <polygon points="20.942033491810434,40.02520861517769 21.81305138402373,41.79008363232972 23.760706600631238,42.07309450128108 22.351370046220836,43.44685811672796 22.68406927623702,45.38664347007758 20.942033491810434,44.47080105977966 19.199997707383847,45.38664347007758 19.532696937400033,43.44685811672796 18.12336038298963,42.07309450128108 20.07101559959714,41.79008363232972" fill="#FFF3B0"/>
  <polygon points="78.42488064745339,13.736480691037286 79.89059726488725,16.70634694000768 83.16803925722041,17.182587138107813 80.7964599523369,19.494305620112808 81.35631388232112,22.758504498318068 78.42488064745339,21.21735884364807 75.49344741258567,22.758504498318068 76.05330134256988,19.494305620112808 73.68172203768637,17.182587138107813 76.95916403001954,16.70634694000768" fill="#FFF3B0"/>
  <polygon points="161.43528364671624,28.14898993962197 162.61171559710715,30.532701430724078 165.24229740908393,30.91494734268378 163.33879052790007,32.77040797551828 163.78814754749808,35.39036043227218 161.43528364671624,34.153386677049184 159.0824197459344,35.39036043227218 159.5317767655324,32.77040797551828 157.62826988434855,30.914947342683778 160.25885169632534,30.532701430724078" fill="#FFF3B0"/>
  <path d="M155 25 A22 22 0 1 1 175 50 A18 18 0 1 0 155 25" fill="#FFE566"/>
  <rect x="35" y="75" width="130" height="50" rx="8" fill="#C9B8E8"/>
  <rect x="45" y="65" width="90" height="20" rx="8" fill="white"/>
  <rect x="40" y="90" width="120" height="30" rx="6" fill="#FFCDB2"/>
  <text x="170" y="75" fill="#E2D9F3" font-size="16" font-weight="bold">z</text>
  <text x="178" y="65" fill="#E2D9F3" font-size="13" font-weight="bold">z</text>
</svg>