<svg xmlns="http://www.w3.org/2000/svg" viewBox="0 0 200 150" width="200" height="150">
  <defs>
    <linearGradient id="bg6001" gradientTransform="rotate(0)">
      <stop offset="0%" style="stop-color:#D8F3DC"/>
      <stop offset="100%" style="stop-color:#B7E4C7"/>
    </linearGradient>
  </defs>
  <rect width="200" height="150" fill="url(#bg6001)" rx="16"/>
  <circle cx="0.859844053411507" cy="30.434617222636007" r="3.302760852968504" fill="#D8F3DC" opacity="0.3"/><circle cx="56.179566594619246" cy="61.04555535957843" r="3.1768616632689373" fill="#D8F3DC" opacity="0.3"/><circle cx="149.30599588005862" cy="109.55722544912874" r="4.752398719001576" fill="#D8F3DC" opacity="0.3"/><circle cx="115.69574431341607" cy="113.1644704874816" r="2.5779179878718423" fill="#D8F3DC" opacity="0.3"/><circle cx="45.34654787639738" cy="15.160096032195725" r="2.225647060711708" fill="#D8F3DC" opacity="0.3"/><circle cx="33.45728028543817" cy="15.7360492729822" r="4.245734922072643" fill="#D8F3DC" opacity="0.3"/>
  <circle cx="100" cy="75" r="48" fill="#FFE5D9" opacity="1"/>
  <circle cx="80" cy="68" r="8" fill="#333" opacity="1"/>
  <circle cx="120" cy="68" r="8" fill="#333" opacity="1"/>
  <circle cx="78" cy="65" r="3" fill="white" opacity="1"/>
  <circle cx="118" cy="65" r="3" fill="white" opacity="1"/>
  <path d="M72 92 Q100 115 128 92" stroke="#333" stroke-width="4" fill="none" stroke-linecap="round"/>
  <ellipse cx="60" cy="82" rx="12" ry="7" fill="#FFB3B3" opacity="0.4"/>
  <ellipse cx="140" cy="82" rx="12" ry="7" fill="#FFB3B3" opacity="0.4"/>
  <path d="M45,42.25 C39,37 42,34 45,37.75 C48,34 51,37 45,42.25Z" fill="#FFB3B3"/>
  <path d="M160,46.8 C155.2,42.6 157.6,40.2 160,43.2 C162.4,40.2 164.8,42.6 160,46.8Z" fill="#FFD6D6"/>
</svg>