<svg xmlns="http://www.w3.org/2000/svg" viewBox="0 0 200 150" width="200" height="150">
  <defs>
    <linearGradient id="bg6005" gradientTransform="rotate(45)">
      <stop offset="0%" style="stop-color:#E0F4FF"/>
      <stop offset="100%" style="stop-color:#BAE6FD"/>
    </linearGradient>
  </defs>
  <rect width="200" height="150" fill="url(#bg6005)" rx="16"/>
  <circle cx="76.21656295414141" cy="81.51018091630249" r="2.1209579290343754" fill="#E0F4FF" opacity="0.3"/><circle cx="143.38539780328574" cy="62.472420180120025" r="4.9336347175712945" fill="#E0F4FF" opacity="0.3"/><circle cx="169.44814697671973" cy="87.66495370323355" r="3.535570880029809" fill="#E0F4FF" opacity="0.3"/><circle cx="138.52521232465733" cy="30.112426648247492" r="4.72168756357496" fill="#E0F4FF" opacity="0.3"/><circle cx="35.49551564365174" cy="149.92558589638065" r="4.503235908001443" fill="#E0F4FF" opacity="0.3"/><circle cx="146.08556484399742" cy="13.599635994683013" r="3.1063334521313664" fill="#E0F4FF" opacity="0.3"/>
  <circle cx="100" cy="75" r="48" fill="#FFE5D9" opacity="1"/>
  <circle cx="80" cy="68" r="8" fill="#333" opacity="1"/>
  <circle cx="120" cy="68" r="8" fill="#333" opacity="1"/>
  <circle cx="78" cy="65" r="3" fill="white" opacity="1"/>
  <circle cx="118" cy="65" r="3" fill="white" opacity="1"/>
  <path d="M72 92 Q100 115 128 92" stroke="#333" stroke-width="4" fill="none" stroke-linecap="round"/>
  <ellipse cx="60" cy="82" rx="12" ry="7" fill="#FFB3B3" opacity="0.4"/>
  <ellipse cx="140" cy="82" rx="12" ry="7" fill="#FFB3B3" opacity="0.4"/>
  <path d="M45,42.25 C39,37 42,34 45,37.75 C48,34 51,37 45,42.25Z" fill="#FFB3B3"/>
  <path d="M160,46.8 C155.2,42.6 157.6,40.2 160,43.2 C162.4,40.2 164.8,42.6 160,46.8Z" fill="#FFD6D6"/>
</svg>