<svg xmlns="http://www.w3.org/2000/svg" viewBox="0 0 200 150" width="200" height="150">
  <defs>
    <linearGradient id="bg6007" gradientTransform="rotate(45)">
      <stop offset="0%" style="stop-color:#F0F7FF"/>
      <stop offset="100%" style="stop-color:#DCE8F5"/>
    </linearGradient>
  </defs>
  <rect width="200" height="150" fill="url(#bg6007)" rx="16"/>
  <circle cx="119.82776491713594" cy="107.8013206385549" r="4.432111469772963" fill="#F0F7FF" opacity="0.3"/><circle cx="183.92634605479543" cy="103.55168044588936" r="3.101715640020302" fill="#F0F7FF" opacity="0.3"/><circle cx="47.86495841835858" cy="102.98791121458635" r="2.7041952183571993" fill="#F0F7FF" opacity="0.3"/><circle cx="153.1696247348009" cy="112.78264416996535" r="4.138585578652055" fill="#F0F7FF" opacity="0.3"/><circle cx="40.362468275543506" cy="14.605109468448063" r="4.925147325051512" fill="#F0F7FF" opacity="0.3"/><circle cx="68.26663199935865" cy="128.6091677218792" r="4.415442741968036" fill="#F0F7FF" opacity="0.3"/>
  <circle cx="100" cy="75" r="48" fill="#FFE5D9" opacity="1"/>
  <circle cx="80" cy="68" r="8" fill="#333" opacity="1"/>
  <circle cx="120" cy="68" r="8" fill="#333" opacity="1"/>
  <circle cx="78" cy="65" r="3" fill="white" opacity="1"/>
  <circle cx="118" cy="65" r="3" fill="white" opacity="1"/>
  <path d="M72 92 Q100 115 128 92" stroke="#333" stroke-width="4" fill="none" stroke-linecap="round"/>
  <ellipse cx="60" cy="82" rx="12" ry="7" fill="#FFB3B3" opacity="0.4"/>
  <ellipse cx="140" cy="82" rx="12" ry="7" fill="#FFB3B3" opacity="0.4"/>
  <path d="M45,42.25 C39,37 42,34 45,37.75 C48,34 51,37 45,42.25Z" fill="#FFB3B3"/>
  <path d="M160,46.8 C155.2,42.6 157.6,40.2 160,43.2 C162.4,40.2 164.8,42.6 160,46.8Z" fill="#FFD6D6"/>
</svg>