<svg xmlns="http://www.w3.org/2000/svg" viewBox="0 0 200 150" width="200" height="150">
  <defs>
    <linearGradient id="bg6009" gradientTransform="rotate(45)">
      <stop offset="0%" style="stop-color:#FFF5EB"/>
      <stop offset="100%" style="stop-color:#FFE4CC"/>
    </linearGradient>
  </defs>
  <rect width="200" height="150" fill="url(#bg6009)" rx="16"/>
  <circle cx="87.46295185701456" cy="43.480833524108675" r="3.0515851743966778" fill="#FFF5EB" opacity="0.3"/><circle cx="81.50817229434324" cy="56.28517204768286" r="2.264310892405774" fill="#FFF5EB" opacity="0.3"/><circle cx="68.56746846988244" cy="73.78277589718891" r="4.946474170780675" fill="#FFF5EB" opacity="0.3"/><circle cx="0.7913273411759292" cy="87.93945201447855" r="3.0936869498145825" fill="#FFF5EB" opacity="0.3"/><circle cx="43.653999949128774" cy="87.04250818782384" r="3.4332448571717578" fill="#FFF5EB" opacity="0.3"/><circle cx="151.36953191158682" cy="147.2052256238385" r="3.718946199453967" fill="#FFF5EB" opacity="0.3"/>
  <circle cx="100" cy="75" r="48" fill="#FFE5D9" opacity="1"/>
  <circle cx="80" cy="68" r="8" fill="#333" opacity="1"/>
  <circle cx="120" cy="68" r="8" fill="#333" opacity="1"/>
  <circle cx="78" cy="65" r="3" fill="white" opacity="1"/>
  <circle cx="118" cy="65" r="3" fill="white" opacity="1"/>
  <path d="M72 92 Q100 115 128 92" stroke="#333" stroke-width="4" fill="none" stroke-linecap="round"/>
  <ellipse cx="60" cy="82" rx="12" ry="7" fill="#FFB3B3" opacity="0.4"/>
  <ellipse cx="140" cy="82" rx="12" ry="7" fill="#FFB3B3" opacity="0.4"/>
  <path d="M45,42.25 C39,37 42,34 45,37.75 C48,34 51,37 45,42.25Z" fill="#FFB3B3"/>
  <path d="M160,46.8 C155.2,42.6 157.6,40.2 160,43.2 C162.4,40.2 164.8,42.6 160,46.8Z" fill="#FFD6D6"/>
</svg>