<svg xmlns="http://www.w3.org/2000/svg" viewBox="0 0 200 150" width="200" height="150">
  <defs>
    <linearGradient id="bg6015" gradientTransform="rotate(90)">
      <stop offset="0%" style="stop-color:#D4E9FF"/>
      <stop offset="100%" style="stop-color:#A8D0F0"/>
    </linearGradient>
  </defs>
  <rect width="200" height="150" fill="url(#bg6015)" rx="16"/>
  <circle cx="137.92658282400225" cy="126.0949866044939" r="3.122569701516113" fill="#D4E9FF" opacity="0.3"/><circle cx="172.09665119894453" cy="87.9363765191556" r="4.721579626440871" fill="#D4E9FF" opacity="0.3"/><circle cx="23.31565158947342" cy="143.7076925303245" r="3.9134288252707847" fill="#D4E9FF" opacity="0.3"/><circle cx="29.266504229781276" cy="136.6570856735052" r="4.6371915311065095" fill="#D4E9FF" opacity="0.3"/><circle cx="29.733013893201132" cy="131.07328786950347" r="4.9129056791530274" fill="#D4E9FF" opacity="0.3"/><circle cx="163.21084970149968" cy="129.107474572902" r="4.467638096900373" fill="#D4E9FF" opacity="0.3"/>
  <circle cx="100" cy="75" r="48" fill="#FFE5D9" opacity="1"/>
  <circle cx="80" cy="68" r="8" fill="#333" opacity="1"/>
  <circle cx="120" cy="68" r="8" fill="#333" opacity="1"/>
  <circle cx="78" cy="65" r="3" fill="white" opacity="1"/>
  <circle cx="118" cy="65" r="3" fill="white" opacity="1"/>
  <path d="M72 92 Q100 115 128 92" stroke="#333" stroke-width="4" fill="none" stroke-linecap="round"/>
  <ellipse cx="60" cy="82" rx="12" ry="7" fill="#FFB3B3" opacity="0.4"/>
  <ellipse cx="140" cy="82" rx="12" ry="7" fill="#FFB3B3" opacity="0.4"/>
  <path d="M45,42.25 C39,37 42,34 45,37.75 C48,34 51,37 45,42.25Z" fill="#FFB3B3"/>
  <path d="M160,46.8 C155.2,42.6 157.6,40.2 160,43.2 C162.4,40.2 164.8,42.6 160,46.8Z" fill="#FFD6D6"/>
</svg>