<svg xmlns="http://www.w3.org/2000/svg" viewBox="0 0 200 150" width="200" height="150">
  <defs>
    <linearGradient id="bg6022" gradientTransform="rotate(45)">
      <stop offset="0%" style="stop-color:#FFF5EB"/>
      <stop offset="100%" style="stop-color:#FFE4CC"/>
    </linearGradient>
  </defs>
  <rect width="200" height="150" fill="url(#bg6022)" rx="16"/>
  <circle cx="156.80019620285748" cy="39.711978816058036" r="3.617072734056819" fill="#FFF5EB" opacity="0.3"/><circle cx="29.582664383633528" cy="23.26099609117591" r="2.0814961627474986" fill="#FFF5EB" opacity="0.3"/><circle cx="129.3825110387843" cy="85.73625773851745" r="2.9520141942130067" fill="#FFF5EB" opacity="0.3"/><circle cx="109.91037475882877" cy="50.17763363148333" r="4.302023824492608" fill="#FFF5EB" opacity="0.3"/><circle cx="110.39744885383698" cy="130.99265204950257" r="2.1369713083804527" fill="#FFF5EB" opacity="0.3"/><circle cx="37.66922936010815" cy="95.57839488315949" r="2.6375219983106035" fill="#FFF5EB" opacity="0.3"/>
  <circle cx="100" cy="75" r="48" fill="#FFE5D9" opacity="1"/>
  <circle cx="80" cy="68" r="8" fill="#333" opacity="1"/>
  <circle cx="120" cy="68" r="8" fill="#333" opacity="1"/>
  <circle cx="78" cy="65" r="3" fill="white" opacity="1"/>
  <circle cx="118" cy="65" r="3" fill="white" opacity="1"/>
  <path d="M72 92 Q100 115 128 92" stroke="#333" stroke-width="4" fill="none" stroke-linecap="round"/>
  <ellipse cx="60" cy="82" rx="12" ry="7" fill="#FFB3B3" opacity="0.4"/>
  <ellipse cx="140" cy="82" rx="12" ry="7" fill="#FFB3B3" opacity="0.4"/>
  <path d="M45,42.25 C39,37 42,34 45,37.75 C48,34 51,37 45,42.25Z" fill="#FFB3B3"/>
  <path d="M160,46.8 C155.2,42.6 157.6,40.2 160,43.2 C162.4,40.2 164.8,42.6 160,46.8Z" fill="#FFD6D6"/>
</svg>