<svg xmlns="http://www.w3.org/2000/svg" viewBox="0 0 200 150" width="200" height="150">
  <defs>
    <linearGradient id="bg6024" gradientTransform="rotate(180)">
      <stop offset="0%" style="stop-color:#FFE5D9"/>
      <stop offset="100%" style="stop-color:#FFCDB2"/>
    </linearGradient>
  </defs>
  <rect width="200" height="150" fill="url(#bg6024)" rx="16"/>
  <circle cx="177.6379644113149" cy="95.7063242185086" r="2.032758952531367" fill="#FFE5D9" opacity="0.3"/><circle cx="89.86123306458467" cy="116.09864130664391" r="4.822843090802053" fill="#FFE5D9" opacity="0.3"/><circle cx="53.55608674544783" cy="114.22868214940536" r="4.07179029892086" fill="#FFE5D9" opacity="0.3"/><circle cx="123.12615386945254" cy="19.430281039103647" r="4.703138227727322" fill="#FFE5D9" opacity="0.3"/><circle cx="6.733045513101388" cy="111.3574278849228" r="4.724756915366015" fill="#FFE5D9" opacity="0.3"/><circle cx="13.077249789148482" cy="77.02911850944929" r="2.1139192610735336" fill="#FFE5D9" opacity="0.3"/>
  <circle cx="100" cy="75" r="48" fill="#FFE5D9" opacity="1"/>
  <circle cx="80" cy="68" r="8" fill="#333" opacity="1"/>
  <circle cx="120" cy="68" r="8" fill="#333" opacity="1"/>
  <circle cx="78" cy="65" r="3" fill="white" opacity="1"/>
  <circle cx="118" cy="65" r="3" fill="white" opacity="1"/>
  <path d="M72 92 Q100 115 128 92" stroke="#333" stroke-width="4" fill="none" stroke-linecap="round"/>
  <ellipse cx="60" cy="82" rx="12" ry="7" fill="#FFB3B3" opacity="0.4"/>
  <ellipse cx="140" cy="82" rx="12" ry="7" fill="#FFB3B3" opacity="0.4"/>
  <path d="M45,42.25 C39,37 42,34 45,37.75 C48,34 51,37 45,42.25Z" fill="#FFB3B3"/>
  <path d="M160,46.8 C155.2,42.6 157.6,40.2 160,43.2 C162.4,40.2 164.8,42.6 160,46.8Z" fill="#FFD6D6"/>
</svg>