<svg xmlns="http://www.w3.org/2000/svg" viewBox="0 0 200 150" width="200" height="150">
  <defs>
    <linearGradient id="bg6029" gradientTransform="rotate(180)">
      <stop offset="0%" style="stop-color:#E0F4FF"/>
      <stop offset="100%" style="stop-color:#BAE6FD"/>
    </linearGradient>
  </defs>
  <rect width="200" height="150" fill="url(#bg6029)" rx="16"/>
  <circle cx="17.508206235379475" cy="144.02896956416953" r="4.0445659138545125" fill="#E0F4FF" opacity="0.3"/><circle cx="137.480768874957" cy="148.60944910469698" r="3.260616548885082" fill="#E0F4FF" opacity="0.3"/><circle cx="79.1334413741879" cy="96.32015292545475" r="3.1325225017488947" fill="#E0F4FF" opacity="0.3"/><circle cx="5.085415788835235" cy="136.41188448191315" r="2.3218480774758063" fill="#E0F4FF" opacity="0.3"/><circle cx="119.50076284942952" cy="28.393911790635684" r="3.630006730181776" fill="#E0F4FF" opacity="0.3"/><circle cx="51.83486816822551" cy="131.7101854079965" r="4.688723392728207" fill="#E0F4FF" opacity="0.3"/>
  <circle cx="100" cy="75" r="48" fill="#FFE5D9" opacity="1"/>
  <circle cx="80" cy="68" r="8" fill="#333" opacity="1"/>
  <circle cx="120" cy="68" r="8" fill="#333" opacity="1"/>
  <circle cx="78" cy="65" r="3" fill="white" opacity="1"/>
  <circle cx="118" cy="65" r="3" fill="white" opacity="1"/>
  <path d="M72 92 Q100 115 128 92" stroke="#333" stroke-width="4" fill="none" stroke-linecap="round"/>
  <ellipse cx="60" cy="82" rx="12" ry="7" fill="#FFB3B3" opacity="0.4"/>
  <ellipse cx="140" cy="82" rx="12" ry="7" fill="#FFB3B3" opacity="0.4"/>
  <path d="M45,42.25 C39,37 42,34 45,37.75 C48,34 51,37 45,42.25Z" fill="#FFB3B3"/>
  <path d="M160,46.8 C155.2,42.6 157.6,40.2 160,43.2 C162.4,40.2 164.8,42.6 160,46.8Z" fill="#FFD6D6"/>
</svg>