<svg xmlns="http://www.w3.org/2000/svg" viewBox="0 0 200 150" width="200" height="150">
  <defs>
    <linearGradient id="bg6030" gradientTransform="rotate(45)">
      <stop offset="0%" style="stop-color:#E8F0E8"/>
      <stop offset="100%" style="stop-color:#C5DBC5"/>
    </linearGradient>
  </defs>
  <rect width="200" height="150" fill="url(#bg6030)" rx="16"/>
  <rect x="0" y="0" width="200" height="150" rx="0" fill="#1a1a3e"/>
  <polygon points="71.40786407302585,20.812538047435737 72.12861861438309,22.2729462605299 73.74027476394956,22.507133607166182 72.57406941848771,23.643902866944153 72.84937315574032,25.24904681999469 71.40786407302585,24.491200646809375 69.96635499031137,25.24904681999469 70.24165872756399,23.643902866944153 69.07545338210214,22.50713360716618 70.68710953166861,22.2729462605299" fill="#FFF3B0"/>
  <polygon points="156.26330171957306,31.7957259113864 157.51770835083363,34.33743136273604 160.32264684975877,34.745012784317765 158.29297428466592,36.72345456422447 158.7721149820942,39.51705918729462 156.26330171957306,38.19809800069015 153.75448845705193,39.51705918729462 154.2336291544802,36.72345456422447 152.20395658938736,34.745012784317765 155.0088950883125,34.33743136273604" fill="#FFF3B0"/>
  <polygon points="57.26866431047711,36.16248770321545 58.50022219387257,38.6578965346669 61.25406933937058,39.05805394803299 59.26136682492384,41.00045883506274 59.73178007726803,43.74317854882467 57.26866431047711,42.44824195747151 54.805548543686186,43.74317854882467 55.27596179603037,41.00045883506274 53.28325928158363,39.05805394803299 56.037106427081646,38.6578965346669" fill="#FFF3B0"/>
  <polygon points="182.63038026723734,37.895630741880495 183.87335453866177,40.414171702073006 186.65272950385008,40.818038524769555 184.6415548855437,42.77844926292387 185.1163288100862,45.54659364647127 182.63038026723734,44.2396531543684 180.14443172438848,45.54659364647127 180.61920564893097,42.77844926292387 178.6080310306246,40.818038524769555 181.3874059958129,40.414171702073006" fill="#FFF3B0"/>
  <polygon points="54.04498527272608,42.249816639183905 54.89549645847629,43.97314053064229 56.79729728543771,44.24948836675893 55.421141279081894,45.590908941421596 55.7460076442265,47.48502518831756 54.04498527272608,46.59074480520911 52.34396290122566,47.48502518831756 52.66882926637027,45.590908941421596 51.29267326001445,44.24948836675893 53.19447408697587,43.97314053064229" fill="#FFF3B0"/>
  <polygon points="176.5610273020502,20.286124520303645 177.68283780086026,22.559160862069035 180.19128233407247,22.92365918857328 178.37615481806134,24.692971231952257 178.8046482996703,27.19127992833973 176.5610273020502,26.011738566087075 174.3174063044301,27.19127992833973 174.74589978603908,24.692971231952257 172.93077227002794,22.92365918857328 175.43921680324016,22.559160862069035" fill="#FFF3B0"/>
  <polygon points="130.1158997021048,31.379321191388044 131.4114885231745,34.0044708734424 134.3085131979752,34.42543319962712 132.21220645004,36.46882725487741 132.70707734424423,39.35414596249714 130.1158997021048,37.99188325899695 127.52472205996537,39.35414596249714 128.0195929541696,36.46882725487741 125.9232862062344,34.42543319962712 128.82031088103508,34.0044708734424" fill="#FFF3B0"/>
  <polygon points="168.8033530920984,34.8702233278982 169.42366435036914,36.12711122006112 170.81072249107092,36.328662565668296 169.80703779158466,37.307013348680364 170.04397560863987,38.68846682290679 168.8033530920984,38.03623296756541 167.56273057555694,38.68846682290679 167.79966839261215,37.307013348680364 166.7959836931259,36.328662565668296 168.18304183382767,36.12711122006112" fill="#FFF3B0"/>
  <polygon points="24.500723535029465,11.285833565840221 25.523287816245418,13.357775106288074 27.809811060407498,13.690026381919381 26.15526729771848,15.302807952250276 26.54585209746137,17.580092073843787 24.500723535029465,16.504904360289856 22.45559497259756,17.580092073843787 22.84617977234045,15.302807952250276 21.191636009651432,13.69002638191938 23.478159253813512,13.357775106288074" fill="#FFF3B0"/>
  <polygon points="167.67318673088084,27.50692028424419 168.70830181845213,29.604292536023742 171.02288951879714,29.9406218158435 169.34803812483898,31.57319843432392 169.74341690602338,33.87843361244386 167.67318673088084,32.790049200123576 165.6029565557383,33.87843361244386 165.9983353369227,31.57319843432392 164.32348394296454,29.940621815843496 166.63807164330956,29.604292536023742" fill="#FFF3B0"/>
  <path d="M155 25 A22 22 0 1 1 175 50 A18 18 0 1 0 155 25" fill="#FFE566"/>
  <rect x="35" y="75" width="130" height="50" rx="8" fill="#C9B8E8"/>
  <rect x="45" y="65" width="90" height="20" rx="8" fill="white"/>
  <rect x="40" y="90" width="120" height="30" rx="6" fill="#C5DBC5"/>
  <text x="170" y="75" fill="#E2D9F3" font-size="16" font-weight="bold">z</text>
  <text x="178" y="65" fill="#E2D9F3" font-size="13" font-weight="bold">z</text>
</svg>