<svg xmlns="http://www.w3.org/2000/svg" viewBox="0 0 200 150" width="200" height="150">
  <defs>
    <linearGradient id="bg6041" gradientTransform="rotate(180)">
      <stop offset="0%" style="stop-color:#D0F0F0"/>
      <stop offset="100%" style="stop-color:#A0E0E0"/>
    </linearGradient>
  </defs>
  <rect width="200" height="150" fill="url(#bg6041)" rx="16"/>
  <circle cx="63.76752477008267" cy="35.58290297694384" r="3.846852205914729" fill="#D0F0F0" opacity="0.3"/><circle cx="37.949682722683065" cy="144.36975749491694" r="2.476931440854969" fill="#D0F0F0" opacity="0.3"/><circle cx="13.409153738939494" cy="131.23947648767285" r="2.876403427311743" fill="#D0F0F0" opacity="0.3"/><circle cx="106.30756340578955" cy="73.70574960659724" r="3.366398006363852" fill="#D0F0F0" opacity="0.3"/><circle cx="119.98545288060996" cy="142.1965564271204" r="2.1556588720977743" fill="#D0F0F0" opacity="0.3"/><circle cx="56.688846655379166" cy="144.9121012458818" r="4.663947411036133" fill="#D0F0F0" opacity="0.3"/>
  <circle cx="100" cy="75" r="48" fill="#FFE5D9" opacity="1"/>
  <circle cx="80" cy="68" r="8" fill="#333" opacity="1"/>
  <circle cx="120" cy="68" r="8" fill="#333" opacity="1"/>
  <circle cx="78" cy="65" r="3" fill="white" opacity="1"/>
  <circle cx="118" cy="65" r="3" fill="white" opacity="1"/>
  <path d="M72 92 Q100 115 128 92" stroke="#333" stroke-width="4" fill="none" stroke-linecap="round"/>
  <ellipse cx="60" cy="82" rx="12" ry="7" fill="#FFB3B3" opacity="0.4"/>
  <ellipse cx="140" cy="82" rx="12" ry="7" fill="#FFB3B3" opacity="0.4"/>
  <path d="M45,42.25 C39,37 42,34 45,37.75 C48,34 51,37 45,42.25Z" fill="#FFB3B3"/>
  <path d="M160,46.8 C155.2,42.6 157.6,40.2 160,43.2 C162.4,40.2 164.8,42.6 160,46.8Z" fill="#FFD6D6"/>
</svg>