<svg xmlns="http://www.w3.org/2000/svg" viewBox="0 0 200 150" width="200" height="150">
  <defs>
    <linearGradient id="bg6042" gradientTransform="rotate(135)">
      <stop offset="0%" style="stop-color:#E8F0E8"/>
      <stop offset="100%" style="stop-color:#C5DBC5"/>
    </linearGradient>
  </defs>
  <rect width="200" height="150" fill="url(#bg6042)" rx="16"/>
  <circle cx="86.26582406577654" cy="72.4247780517544" r="4.018369932308076" fill="#E8F0E8" opacity="0.3"/><circle cx="138.30938123464875" cy="37.18230953272723" r="2.7769254375089076" fill="#E8F0E8" opacity="0.3"/><circle cx="96.83164519447018" cy="110.7170427252214" r="2.7773224538887007" fill="#E8F0E8" opacity="0.3"/><circle cx="142.96329733115272" cy="109.25116837299811" r="2.9461300633574865" fill="#E8F0E8" opacity="0.3"/><circle cx="59.76638165661825" cy="111.48928041329782" r="4.391920798893807" fill="#E8F0E8" opacity="0.3"/><circle cx="126.56298799361139" cy="26.807113122322335" r="3.096071213921732" fill="#E8F0E8" opacity="0.3"/>
  <circle cx="100" cy="75" r="48" fill="#FFE5D9" opacity="1"/>
  <circle cx="80" cy="68" r="8" fill="#333" opacity="1"/>
  <circle cx="120" cy="68" r="8" fill="#333" opacity="1"/>
  <circle cx="78" cy="65" r="3" fill="white" opacity="1"/>
  <circle cx="118" cy="65" r="3" fill="white" opacity="1"/>
  <path d="M72 92 Q100 115 128 92" stroke="#333" stroke-width="4" fill="none" stroke-linecap="round"/>
  <ellipse cx="60" cy="82" rx="12" ry="7" fill="#FFB3B3" opacity="0.4"/>
  <ellipse cx="140" cy="82" rx="12" ry="7" fill="#FFB3B3" opacity="0.4"/>
  <path d="M45,42.25 C39,37 42,34 45,37.75 C48,34 51,37 45,42.25Z" fill="#FFB3B3"/>
  <path d="M160,46.8 C155.2,42.6 157.6,40.2 160,43.2 C162.4,40.2 164.8,42.6 160,46.8Z" fill="#FFD6D6"/>
</svg>