<svg xmlns="http://www.w3.org/2000/svg" viewBox="0 0 200 150" width="200" height="150">
  <defs>
    <linearGradient id="bg6045" gradientTransform="rotate(180)">
      <stop offset="0%" style="stop-color:#F0F7FF"/>
      <stop offset="100%" style="stop-color:#DCE8F5"/>
    </linearGradient>
  </defs>
  <rect width="200" height="150" fill="url(#bg6045)" rx="16"/>
  <circle cx="62.51772539653757" cy="7.06244255245565" r="4.94043645603233" fill="#F0F7FF" opacity="0.3"/><circle cx="0.434749298983661" cy="144.13605343183917" r="3.5679916893732297" fill="#F0F7FF" opacity="0.3"/><circle cx="57.8520078855945" cy="84.15128114991148" r="4.714891978216656" fill="#F0F7FF" opacity="0.3"/><circle cx="6.88431296730414" cy="7.819333404256668" r="3.2293335659996956" fill="#F0F7FF" opacity="0.3"/><circle cx="103.44294079550309" cy="68.59050581479096" r="3.2872713748001843" fill="#F0F7FF" opacity="0.3"/><circle cx="105.65483218770169" cy="24.459851414576406" r="4.517084770557631" fill="#F0F7FF" opacity="0.3"/>
  <circle cx="100" cy="75" r="48" fill="#FFE5D9" opacity="1"/>
  <circle cx="80" cy="68" r="8" fill="#333" opacity="1"/>
  <circle cx="120" cy="68" r="8" fill="#333" opacity="1"/>
  <circle cx="78" cy="65" r="3" fill="white" opacity="1"/>
  <circle cx="118" cy="65" r="3" fill="white" opacity="1"/>
  <path d="M72 92 Q100 115 128 92" stroke="#333" stroke-width="4" fill="none" stroke-linecap="round"/>
  <ellipse cx="60" cy="82" rx="12" ry="7" fill="#FFB3B3" opacity="0.4"/>
  <ellipse cx="140" cy="82" rx="12" ry="7" fill="#FFB3B3" opacity="0.4"/>
  <path d="M45,42.25 C39,37 42,34 45,37.75 C48,34 51,37 45,42.25Z" fill="#FFB3B3"/>
  <path d="M160,46.8 C155.2,42.6 157.6,40.2 160,43.2 C162.4,40.2 164.8,42.6 160,46.8Z" fill="#FFD6D6"/>
</svg>