<svg xmlns="http://www.w3.org/2000/svg" viewBox="0 0 200 150" width="200" height="150">
  <defs>
    <linearGradient id="bg6046" gradientTransform="rotate(135)">
      <stop offset="0%" style="stop-color:#E2D9F3"/>
      <stop offset="100%" style="stop-color:#C9B8E8"/>
    </linearGradient>
  </defs>
  <rect width="200" height="150" fill="url(#bg6046)" rx="16"/>
  <circle cx="152.69064654175963" cy="133.41276925393686" r="2.4906244899048033" fill="#E2D9F3" opacity="0.3"/><circle cx="79.42098396051733" cy="94.78316430595441" r="4.939976480473888" fill="#E2D9F3" opacity="0.3"/><circle cx="73.16767297306797" cy="85.34138219174565" r="3.0021496503050003" fill="#E2D9F3" opacity="0.3"/><circle cx="61.9393556347859" cy="62.46651515048143" r="4.359049241340472" fill="#E2D9F3" opacity="0.3"/><circle cx="199.38146499857794" cy="40.3757597405729" r="3.6831602794609353" fill="#E2D9F3" opacity="0.3"/><circle cx="104.32174902944098" cy="85.57632973843283" r="2.381151344335194" fill="#E2D9F3" opacity="0.3"/>
  <circle cx="100" cy="75" r="48" fill="#FFE5D9" opacity="1"/>
  <circle cx="80" cy="68" r="8" fill="#333" opacity="1"/>
  <circle cx="120" cy="68" r="8" fill="#333" opacity="1"/>
  <circle cx="78" cy="65" r="3" fill="white" opacity="1"/>
  <circle cx="118" cy="65" r="3" fill="white" opacity="1"/>
  <path d="M72 92 Q100 115 128 92" stroke="#333" stroke-width="4" fill="none" stroke-linecap="round"/>
  <ellipse cx="60" cy="82" rx="12" ry="7" fill="#FFB3B3" opacity="0.4"/>
  <ellipse cx="140" cy="82" rx="12" ry="7" fill="#FFB3B3" opacity="0.4"/>
  <path d="M45,42.25 C39,37 42,34 45,37.75 C48,34 51,37 45,42.25Z" fill="#FFB3B3"/>
  <path d="M160,46.8 C155.2,42.6 157.6,40.2 160,43.2 C162.4,40.2 164.8,42.6 160,46.8Z" fill="#FFD6D6"/>
</svg>