<svg xmlns="http://www.w3.org/2000/svg" viewBox="0 0 200 150" width="200" height="150">
  <defs>
    <linearGradient id="bg6047" gradientTransform="rotate(180)">
      <stop offset="0%" style="stop-color:#D8F3DC"/>
      <stop offset="100%" style="stop-color:#B7E4C7"/>
    </linearGradient>
  </defs>
  <rect width="200" height="150" fill="url(#bg6047)" rx="16"/>
  <circle cx="28.749121546570677" cy="1.248080126424611" r="3.8091365748423414" fill="#D8F3DC" opacity="0.3"/><circle cx="184.22922120444127" cy="115.83335401764998" r="4.000489855914566" fill="#D8F3DC" opacity="0.3"/><circle cx="66.48887054070656" cy="7.462693254728947" r="4.556060181072553" fill="#D8F3DC" opacity="0.3"/><circle cx="80.75376877641247" cy="138.5020162190358" r="4.182687152249855" fill="#D8F3DC" opacity="0.3"/><circle cx="132.8861678892281" cy="126.36077864190156" r="4.026163698305027" fill="#D8F3DC" opacity="0.3"/><circle cx="106.53711984423353" cy="97.55703568666831" r="4.233970095270706" fill="#D8F3DC" opacity="0.3"/>
  <circle cx="100" cy="75" r="48" fill="#FFE5D9" opacity="1"/>
  <circle cx="80" cy="68" r="8" fill="#333" opacity="1"/>
  <circle cx="120" cy="68" r="8" fill="#333" opacity="1"/>
  <circle cx="78" cy="65" r="3" fill="white" opacity="1"/>
  <circle cx="118" cy="65" r="3" fill="white" opacity="1"/>
  <path d="M72 92 Q100 115 128 92" stroke="#333" stroke-width="4" fill="none" stroke-linecap="round"/>
  <ellipse cx="60" cy="82" rx="12" ry="7" fill="#FFB3B3" opacity="0.4"/>
  <ellipse cx="140" cy="82" rx="12" ry="7" fill="#FFB3B3" opacity="0.4"/>
  <path d="M45,42.25 C39,37 42,34 45,37.75 C48,34 51,37 45,42.25Z" fill="#FFB3B3"/>
  <path d="M160,46.8 C155.2,42.6 157.6,40.2 160,43.2 C162.4,40.2 164.8,42.6 160,46.8Z" fill="#FFD6D6"/>
</svg>