<svg xmlns="http://www.w3.org/2000/svg" viewBox="0 0 200 150" width="200" height="150">
  <defs>
    <linearGradient id="bg6048" gradientTransform="rotate(135)">
      <stop offset="0%" style="stop-color:#FFF3B0"/>
      <stop offset="100%" style="stop-color:#FFE566"/>
    </linearGradient>
  </defs>
  <rect width="200" height="150" fill="url(#bg6048)" rx="16"/>
  <circle cx="72.97635636296036" cy="50.574275325914186" r="3.8667125517094973" fill="#FFF3B0" opacity="0.3"/><circle cx="28.637418465223163" cy="66.91837587659393" r="4.0030549051098205" fill="#FFF3B0" opacity="0.3"/><circle cx="1.9114508669645147" cy="91.03896878541491" r="3.2227571579715004" fill="#FFF3B0" opacity="0.3"/><circle cx="121.94338362614872" cy="80.69500320652878" r="2.340155014369884" fill="#FFF3B0" opacity="0.3"/><circle cx="138.319170493196" cy="51.08242019578029" r="2.2810020873694157" fill="#FFF3B0" opacity="0.3"/><circle cx="28.029125408284017" cy="14.995067038989873" r="3.20404829472227" fill="#FFF3B0" opacity="0.3"/>
  <circle cx="100" cy="75" r="48" fill="#FFE5D9" opacity="1"/>
  <circle cx="80" cy="68" r="8" fill="#333" opacity="1"/>
  <circle cx="120" cy="68" r="8" fill="#333" opacity="1"/>
  <circle cx="78" cy="65" r="3" fill="white" opacity="1"/>
  <circle cx="118" cy="65" r="3" fill="white" opacity="1"/>
  <path d="M72 92 Q100 115 128 92" stroke="#333" stroke-width="4" fill="none" stroke-linecap="round"/>
  <ellipse cx="60" cy="82" rx="12" ry="7" fill="#FFB3B3" opacity="0.4"/>
  <ellipse cx="140" cy="82" rx="12" ry="7" fill="#FFB3B3" opacity="0.4"/>
  <path d="M45,42.25 C39,37 42,34 45,37.75 C48,34 51,37 45,42.25Z" fill="#FFB3B3"/>
  <path d="M160,46.8 C155.2,42.6 157.6,40.2 160,43.2 C162.4,40.2 164.8,42.6 160,46.8Z" fill="#FFD6D6"/>
</svg>