<svg xmlns="http://www.w3.org/2000/svg" viewBox="0 0 200 150" width="200" height="150">
  <defs>
    <linearGradient id="bg6054" gradientTransform="rotate(0)">
      <stop offset="0%" style="stop-color:#D0F0F0"/>
      <stop offset="100%" style="stop-color:#A0E0E0"/>
    </linearGradient>
  </defs>
  <rect width="200" height="150" fill="url(#bg6054)" rx="16"/>
  <circle cx="83.76860592507" cy="3.7990583618238816" r="3.176962841859222" fill="#D0F0F0" opacity="0.3"/><circle cx="78.57643409297452" cy="109.26660080249349" r="2.414207232528497" fill="#D0F0F0" opacity="0.3"/><circle cx="61.51897365161858" cy="73.79356611677395" r="2.5721824468255363" fill="#D0F0F0" opacity="0.3"/><circle cx="79.57152112630865" cy="94.55864666520029" r="2.8815219614971284" fill="#D0F0F0" opacity="0.3"/><circle cx="33.52101212121852" cy="47.54577739956858" r="4.946562170893003" fill="#D0F0F0" opacity="0.3"/><circle cx="188.36710412797402" cy="19.393031220693047" r="4.62230568533414" fill="#D0F0F0" opacity="0.3"/>
  <circle cx="100" cy="75" r="48" fill="#FFE5D9" opacity="1"/>
  <circle cx="80" cy="68" r="8" fill="#333" opacity="1"/>
  <circle cx="120" cy="68" r="8" fill="#333" opacity="1"/>
  <circle cx="78" cy="65" r="3" fill="white" opacity="1"/>
  <circle cx="118" cy="65" r="3" fill="white" opacity="1"/>
  <path d="M72 92 Q100 115 128 92" stroke="#333" stroke-width="4" fill="none" stroke-linecap="round"/>
  <ellipse cx="60" cy="82" rx="12" ry="7" fill="#FFB3B3" opacity="0.4"/>
  <ellipse cx="140" cy="82" rx="12" ry="7" fill="#FFB3B3" opacity="0.4"/>
  <path d="M45,42.25 C39,37 42,34 45,37.75 C48,34 51,37 45,42.25Z" fill="#FFB3B3"/>
  <path d="M160,46.8 C155.2,42.6 157.6,40.2 160,43.2 C162.4,40.2 164.8,42.6 160,46.8Z" fill="#FFD6D6"/>
</svg>