<svg xmlns="http://www.w3.org/2000/svg" viewBox="0 0 200 150" width="200" height="150">
  <defs>
    <linearGradient id="bg6056" gradientTransform="rotate(180)">
      <stop offset="0%" style="stop-color:#E0F4FF"/>
      <stop offset="100%" style="stop-color:#BAE6FD"/>
    </linearGradient>
  </defs>
  <rect width="200" height="150" fill="url(#bg6056)" rx="16"/>
  <circle cx="2.896798805159051" cy="108.34029490206376" r="3.821472622734291" fill="#E0F4FF" opacity="0.3"/><circle cx="9.691921420380822" cy="70.61875166232312" r="3.8261276487082796" fill="#E0F4FF" opacity="0.3"/><circle cx="85.30584948712203" cy="137.61291314762616" r="4.998305305804934" fill="#E0F4FF" opacity="0.3"/><circle cx="1.3817116096106474" cy="105.4225275511385" r="4.305148999685116" fill="#E0F4FF" opacity="0.3"/><circle cx="88.27607162238564" cy="2.649039299649303" r="2.016081456259144" fill="#E0F4FF" opacity="0.3"/><circle cx="100.60384151529433" cy="71.93358686326974" r="4.931128974037904" fill="#E0F4FF" opacity="0.3"/>
  <circle cx="100" cy="75" r="48" fill="#FFE5D9" opacity="1"/>
  <circle cx="80" cy="68" r="8" fill="#333" opacity="1"/>
  <circle cx="120" cy="68" r="8" fill="#333" opacity="1"/>
  <circle cx="78" cy="65" r="3" fill="white" opacity="1"/>
  <circle cx="118" cy="65" r="3" fill="white" opacity="1"/>
  <path d="M72 92 Q100 115 128 92" stroke="#333" stroke-width="4" fill="none" stroke-linecap="round"/>
  <ellipse cx="60" cy="82" rx="12" ry="7" fill="#FFB3B3" opacity="0.4"/>
  <ellipse cx="140" cy="82" rx="12" ry="7" fill="#FFB3B3" opacity="0.4"/>
  <path d="M45,42.25 C39,37 42,34 45,37.75 C48,34 51,37 45,42.25Z" fill="#FFB3B3"/>
  <path d="M160,46.8 C155.2,42.6 157.6,40.2 160,43.2 C162.4,40.2 164.8,42.6 160,46.8Z" fill="#FFD6D6"/>
</svg>