<svg xmlns="http://www.w3.org/2000/svg" viewBox="0 0 200 150" width="200" height="150">
  <defs>
    <linearGradient id="bg6059" gradientTransform="rotate(135)">
      <stop offset="0%" style="stop-color:#E2D9F3"/>
      <stop offset="100%" style="stop-color:#C9B8E8"/>
    </linearGradient>
  </defs>
  <rect width="200" height="150" fill="url(#bg6059)" rx="16"/>
  <circle cx="13.164873232472019" cy="35.66332854642269" r="2.8951496597292135" fill="#E2D9F3" opacity="0.3"/><circle cx="137.84056788790622" cy="12.606751773455471" r="2.464119839039995" fill="#E2D9F3" opacity="0.3"/><circle cx="113.86792474913818" cy="73.91665287264004" r="3.324442099416956" fill="#E2D9F3" opacity="0.3"/><circle cx="95.39491383347922" cy="106.21600428509055" r="4.721044708894624" fill="#E2D9F3" opacity="0.3"/><circle cx="29.191306824304775" cy="48.44814209936885" r="2.887926534869166" fill="#E2D9F3" opacity="0.3"/><circle cx="58.010594727966236" cy="112.80406770301852" r="3.0924184499472176" fill="#E2D9F3" opacity="0.3"/>
  <circle cx="100" cy="75" r="48" fill="#FFE5D9" opacity="1"/>
  <circle cx="80" cy="68" r="8" fill="#333" opacity="1"/>
  <circle cx="120" cy="68" r="8" fill="#333" opacity="1"/>
  <circle cx="78" cy="65" r="3" fill="white" opacity="1"/>
  <circle cx="118" cy="65" r="3" fill="white" opacity="1"/>
  <path d="M72 92 Q100 115 128 92" stroke="#333" stroke-width="4" fill="none" stroke-linecap="round"/>
  <ellipse cx="60" cy="82" rx="12" ry="7" fill="#FFB3B3" opacity="0.4"/>
  <ellipse cx="140" cy="82" rx="12" ry="7" fill="#FFB3B3" opacity="0.4"/>
  <path d="M45,42.25 C39,37 42,34 45,37.75 C48,34 51,37 45,42.25Z" fill="#FFB3B3"/>
  <path d="M160,46.8 C155.2,42.6 157.6,40.2 160,43.2 C162.4,40.2 164.8,42.6 160,46.8Z" fill="#FFD6D6"/>
</svg>