<svg xmlns="http://www.w3.org/2000/svg" viewBox="0 0 200 150" width="200" height="150">
  <defs>
    <linearGradient id="bg6067" gradientTransform="rotate(45)">
      <stop offset="0%" style="stop-color:#E0F4FF"/>
      <stop offset="100%" style="stop-color:#BAE6FD"/>
    </linearGradient>
  </defs>
  <rect width="200" height="150" fill="url(#bg6067)" rx="16"/>
  <circle cx="101.19319502991857" cy="123.42457537001792" r="4.889966580732107" fill="#E0F4FF" opacity="0.3"/><circle cx="26.963211345355376" cy="93.44235853163809" r="2.034324739470321" fill="#E0F4FF" opacity="0.3"/><circle cx="127.57025052960671" cy="88.20685662608412" r="3.4295466987005057" fill="#E0F4FF" opacity="0.3"/><circle cx="92.02828635789047" cy="36.17321864312544" r="2.6281088075420485" fill="#E0F4FF" opacity="0.3"/><circle cx="53.756793048160034" cy="21.467196224966756" r="2.575808880744944" fill="#E0F4FF" opacity="0.3"/><circle cx="23.892042264151314" cy="31.713446177145954" r="3.3548349006468925" fill="#E0F4FF" opacity="0.3"/>
  <circle cx="100" cy="75" r="48" fill="#FFE5D9" opacity="1"/>
  <circle cx="80" cy="68" r="8" fill="#333" opacity="1"/>
  <circle cx="120" cy="68" r="8" fill="#333" opacity="1"/>
  <circle cx="78" cy="65" r="3" fill="white" opacity="1"/>
  <circle cx="118" cy="65" r="3" fill="white" opacity="1"/>
  <path d="M72 92 Q100 115 128 92" stroke="#333" stroke-width="4" fill="none" stroke-linecap="round"/>
  <ellipse cx="60" cy="82" rx="12" ry="7" fill="#FFB3B3" opacity="0.4"/>
  <ellipse cx="140" cy="82" rx="12" ry="7" fill="#FFB3B3" opacity="0.4"/>
  <path d="M45,42.25 C39,37 42,34 45,37.75 C48,34 51,37 45,42.25Z" fill="#FFB3B3"/>
  <path d="M160,46.8 C155.2,42.6 157.6,40.2 160,43.2 C162.4,40.2 164.8,42.6 160,46.8Z" fill="#FFD6D6"/>
</svg>