<svg xmlns="http://www.w3.org/2000/svg" viewBox="0 0 200 150" width="200" height="150">
  <defs>
    <linearGradient id="bg60682" gradientTransform="rotate(135)">
      <stop offset="0%" style="stop-color:#F0F7FF"/>
      <stop offset="100%" style="stop-color:#DCE8F5"/>
    </linearGradient>
  </defs>
  <rect width="200" height="150" fill="url(#bg60682)" rx="16"/>
  <rect x="0" y="0" width="200" height="150" rx="0" fill="#1a1a3e"/>
  <polygon points="151.10747881160933,17.665749655185664 152.4644496483009,20.415272885524075 155.49872868262804,20.856179437578813 153.30310374711868,22.996384798840097 153.82142048499247,26.018403264210864 151.10747881160933,24.591599690036674 148.39353713822618,26.018403264210864 148.91185387609997,22.996384798840097 146.7162289405906,20.856179437578813 149.75050797491775,20.415272885524075" fill="#FFF3B0"/>
  <polygon points="58.37389914462619,48.983920853006566 59.1330412199102,50.52211070549423 60.83053450482549,50.76877091799312 59.60221682472584,51.96608474047959 59.8921832951942,53.65671898796384 58.37389914462619,52.858509772972866 56.855614994058186,53.65671898796384 57.14558146452654,51.96608474047959 55.91726378442689,50.76877091799312 57.61475706934219,50.52211070549423" fill="#FFF3B0"/>
  <polygon points="145.80157727783444,45.808123318513026 146.4791861761419,47.18110891009937 147.99436573491613,47.40127738750214 146.89797150637528,48.46999762656915 147.15679507444938,49.979054820441725 145.80157727783444,49.266574661063714 144.4463594812195,49.979054820441725 144.7051830492936,48.46999762656915 143.60878882075275,47.40127738750214 145.12396837952699,47.18110891009937" fill="#FFF3B0"/>
  <polygon points="57.54394847050207,11.310057780663556 58.52460065769641,13.297076142934989 60.71740561054679,13.615709353708308 59.13067704052443,15.162387448635522 59.50525284489074,17.346331965109375 57.54394847050207,16.3152132351579 55.582644096113405,17.346331965109375 55.957219900479714,15.162387448635522 54.370491330457355,13.615709353708306 56.563296283307736,13.297076142934989" fill="#FFF3B0"/>
  <polygon points="161.2842257052307,11.047321244563136 162.7490394340393,14.015358041357786 166.02446250603023,14.491304873160061 163.65434410563046,16.801599325241796 164.21385316284787,20.06378744092808 161.2842257052307,18.523591139540258 158.35459824761355,20.06378744092808 158.91410730483096,16.801599325241796 156.5439889044312,14.49130487316006 159.81941197642212,14.015358041357786" fill="#FFF3B0"/>
  <polygon points="90.24630790710034,41.743912049021674 91.41527175733937,44.112491516428875 94.02915438971372,44.49231089555579 92.13773114840704,46.33599289059548 92.5842356075784,48.939313643888994 90.24630790710034,47.710192313862535 87.90838020662228,48.939313643888994 88.35488466579365,46.33599289059548 86.46346142448697,44.49231089555579 89.07734405686132,44.112491516428875" fill="#FFF3B0"/>
  <polygon points="87.44062339914308,48.378385323275324 88.62734849648768,50.78295300811217 91.28094648475526,51.168543366253346 89.36078494194918,53.04023828187334 89.81407359383228,55.683113913775685 87.44062339914308,54.43531730336235 85.06717320445388,55.683113913775685 85.52046185633698,53.04023828187334 83.6003003135309,51.168543366253346 86.25389830179847,50.78295300811217" fill="#FFF3B0"/>
  <polygon points="49.7595407824565,21.219068422547934 50.87375004827251,23.47670298401621 53.36519770779725,23.83873152020504 51.562369245126874,25.59605494955773 51.98795931408852,28.07743545128807 49.7595407824565,26.90588649838628 47.531122250824474,28.07743545128807 47.95671231978612,25.59605494955773 46.153883857115744,23.838731520205037 48.64533151664048,23.47670298401621" fill="#FFF3B0"/>
  <polygon points="46.743766900372066,28.91274782273547 47.86392721758153,31.18244053137153 50.3686818325596,31.546402681371383 48.556224366465834,33.31311206932613 48.98408753479099,35.80774575728059 46.743766900372066,34.62993949864409 44.503446265953144,35.80774575728059 44.9313094342783,33.31311206932614 43.11885196818453,31.546402681371383 45.623606583162605,31.18244053137153" fill="#FFF3B0"/>
  <polygon points="109.29133605394782,16.372909915570517 110.36364711761587,18.54564944687285 112.76140754900274,18.894064431947058 111.02637180147528,20.585306296066626 111.43595818128392,22.97337813033461 109.29133605394782,21.845883554254897 107.14671392661171,22.97337813033461 107.55630030642035,20.585306296066626 105.82126455889289,18.894064431947058 108.21902499027976,18.54564944687285" fill="#FFF3B0"/>
  <path d="M155 25 A22 22 0 1 1 175 50 A18 18 0 1 0 155 25" fill="#FFE566"/>
  <rect x="35" y="75" width="130" height="50" rx="8" fill="#C9B8E8"/>
  <rect x="45" y="65" width="90" height="20" rx="8" fill="white"/>
  <rect x="40" y="90" width="120" height="30" rx="6" fill="#DCE8F5"/>
  <text x="170" y="75" fill="#E2D9F3" font-size="16" font-weight="bold">z</text>
  <text x="178" y="65" fill="#E2D9F3" font-size="13" font-weight="bold">z</text>
</svg>