<svg xmlns="http://www.w3.org/2000/svg" viewBox="0 0 200 150" width="200" height="150">
  <defs>
    <linearGradient id="bg6071" gradientTransform="rotate(0)">
      <stop offset="0%" style="stop-color:#D8F3DC"/>
      <stop offset="100%" style="stop-color:#B7E4C7"/>
    </linearGradient>
  </defs>
  <rect width="200" height="150" fill="url(#bg6071)" rx="16"/>
  <circle cx="143.83989835478133" cy="43.15614540519164" r="4.717208458324421" fill="#D8F3DC" opacity="0.3"/><circle cx="108.72933631198975" cy="26.185041614962756" r="4.538553759757633" fill="#D8F3DC" opacity="0.3"/><circle cx="168.64452585250547" cy="127.44287806403918" r="4.963880910163425" fill="#D8F3DC" opacity="0.3"/><circle cx="94.04990222433298" cy="13.805704174137645" r="4.057428101143387" fill="#D8F3DC" opacity="0.3"/><circle cx="199.38184851489495" cy="73.59352415295461" r="2.9573913787135098" fill="#D8F3DC" opacity="0.3"/><circle cx="132.76505704125157" cy="4.342474848613165" r="4.241973014090036" fill="#D8F3DC" opacity="0.3"/>
  <circle cx="100" cy="75" r="48" fill="#FFE5D9" opacity="1"/>
  <circle cx="80" cy="68" r="8" fill="#333" opacity="1"/>
  <circle cx="120" cy="68" r="8" fill="#333" opacity="1"/>
  <circle cx="78" cy="65" r="3" fill="white" opacity="1"/>
  <circle cx="118" cy="65" r="3" fill="white" opacity="1"/>
  <path d="M72 92 Q100 115 128 92" stroke="#333" stroke-width="4" fill="none" stroke-linecap="round"/>
  <ellipse cx="60" cy="82" rx="12" ry="7" fill="#FFB3B3" opacity="0.4"/>
  <ellipse cx="140" cy="82" rx="12" ry="7" fill="#FFB3B3" opacity="0.4"/>
  <path d="M45,42.25 C39,37 42,34 45,37.75 C48,34 51,37 45,42.25Z" fill="#FFB3B3"/>
  <path d="M160,46.8 C155.2,42.6 157.6,40.2 160,43.2 C162.4,40.2 164.8,42.6 160,46.8Z" fill="#FFD6D6"/>
</svg>