<svg xmlns="http://www.w3.org/2000/svg" viewBox="0 0 200 150" width="200" height="150">
  <defs>
    <linearGradient id="bg6077" gradientTransform="rotate(0)">
      <stop offset="0%" style="stop-color:#D0F0F0"/>
      <stop offset="100%" style="stop-color:#A0E0E0"/>
    </linearGradient>
  </defs>
  <rect width="200" height="150" fill="url(#bg6077)" rx="16"/>
  <circle cx="164.72787934199005" cy="100.42806118317458" r="4.3280927914029235" fill="#D0F0F0" opacity="0.3"/><circle cx="38.05596504316782" cy="0.5867683727274198" r="4.759108692888731" fill="#D0F0F0" opacity="0.3"/><circle cx="108.36887119321545" cy="1.6651623493999068" r="4.817911029798779" fill="#D0F0F0" opacity="0.3"/><circle cx="64.77731960985693" cy="70.0645886833172" r="4.4923260611876685" fill="#D0F0F0" opacity="0.3"/><circle cx="61.069570831205056" cy="42.73812284700398" r="3.293566951419052" fill="#D0F0F0" opacity="0.3"/><circle cx="173.65431882099074" cy="91.45665395917604" r="3.129592976425556" fill="#D0F0F0" opacity="0.3"/>
  <circle cx="100" cy="75" r="48" fill="#FFE5D9" opacity="1"/>
  <circle cx="80" cy="68" r="8" fill="#333" opacity="1"/>
  <circle cx="120" cy="68" r="8" fill="#333" opacity="1"/>
  <circle cx="78" cy="65" r="3" fill="white" opacity="1"/>
  <circle cx="118" cy="65" r="3" fill="white" opacity="1"/>
  <path d="M72 92 Q100 115 128 92" stroke="#333" stroke-width="4" fill="none" stroke-linecap="round"/>
  <ellipse cx="60" cy="82" rx="12" ry="7" fill="#FFB3B3" opacity="0.4"/>
  <ellipse cx="140" cy="82" rx="12" ry="7" fill="#FFB3B3" opacity="0.4"/>
  <path d="M45,42.25 C39,37 42,34 45,37.75 C48,34 51,37 45,42.25Z" fill="#FFB3B3"/>
  <path d="M160,46.8 C155.2,42.6 157.6,40.2 160,43.2 C162.4,40.2 164.8,42.6 160,46.8Z" fill="#FFD6D6"/>
</svg>