<svg xmlns="http://www.w3.org/2000/svg" viewBox="0 0 200 150" width="200" height="150">
  <defs>
    <linearGradient id="bg6078" gradientTransform="rotate(90)">
      <stop offset="0%" style="stop-color:#FFF5EB"/>
      <stop offset="100%" style="stop-color:#FFE4CC"/>
    </linearGradient>
  </defs>
  <rect width="200" height="150" fill="url(#bg6078)" rx="16"/>
  <circle cx="88.00855702083936" cy="72.401227169712" r="3.60565029281679" fill="#FFF5EB" opacity="0.3"/><circle cx="37.139309529811726" cy="24.372912978742534" r="2.154449354051394" fill="#FFF5EB" opacity="0.3"/><circle cx="2.1659668976553803" cy="109.78132495056343" r="4.358914909139003" fill="#FFF5EB" opacity="0.3"/><circle cx="115.35734228446017" cy="40.4828122451363" r="3.966108385696316" fill="#FFF5EB" opacity="0.3"/><circle cx="55.50734476000798" cy="145.76719590158973" r="3.7983187745210216" fill="#FFF5EB" opacity="0.3"/><circle cx="92.96129977374221" cy="81.5751891207583" r="4.601985299261287" fill="#FFF5EB" opacity="0.3"/>
  <circle cx="100" cy="75" r="48" fill="#FFE5D9" opacity="1"/>
  <circle cx="80" cy="68" r="8" fill="#333" opacity="1"/>
  <circle cx="120" cy="68" r="8" fill="#333" opacity="1"/>
  <circle cx="78" cy="65" r="3" fill="white" opacity="1"/>
  <circle cx="118" cy="65" r="3" fill="white" opacity="1"/>
  <path d="M72 92 Q100 115 128 92" stroke="#333" stroke-width="4" fill="none" stroke-linecap="round"/>
  <ellipse cx="60" cy="82" rx="12" ry="7" fill="#FFB3B3" opacity="0.4"/>
  <ellipse cx="140" cy="82" rx="12" ry="7" fill="#FFB3B3" opacity="0.4"/>
  <path d="M45,42.25 C39,37 42,34 45,37.75 C48,34 51,37 45,42.25Z" fill="#FFB3B3"/>
  <path d="M160,46.8 C155.2,42.6 157.6,40.2 160,43.2 C162.4,40.2 164.8,42.6 160,46.8Z" fill="#FFD6D6"/>
</svg>