<svg xmlns="http://www.w3.org/2000/svg" viewBox="0 0 200 150" width="200" height="150">
  <defs>
    <linearGradient id="bg6081" gradientTransform="rotate(135)">
      <stop offset="0%" style="stop-color:#FFF5EB"/>
      <stop offset="100%" style="stop-color:#FFE4CC"/>
    </linearGradient>
  </defs>
  <rect width="200" height="150" fill="url(#bg6081)" rx="16"/>
  <circle cx="10.508756814488152" cy="68.69313600981286" r="4.761963446254185" fill="#FFF5EB" opacity="0.3"/><circle cx="80.91106621377548" cy="73.49592034897796" r="4.793339574953279" fill="#FFF5EB" opacity="0.3"/><circle cx="177.14754102051984" cy="8.696155708867082" r="4.956381829246311" fill="#FFF5EB" opacity="0.3"/><circle cx="146.59807697844371" cy="50.33749826000076" r="2.1627550565772253" fill="#FFF5EB" opacity="0.3"/><circle cx="30.75408339700516" cy="27.49945457535432" r="4.729345103641663" fill="#FFF5EB" opacity="0.3"/><circle cx="97.45055170296837" cy="23.4319443223157" r="4.718786456184716" fill="#FFF5EB" opacity="0.3"/>
  <circle cx="100" cy="75" r="48" fill="#FFE5D9" opacity="1"/>
  <circle cx="80" cy="68" r="8" fill="#333" opacity="1"/>
  <circle cx="120" cy="68" r="8" fill="#333" opacity="1"/>
  <circle cx="78" cy="65" r="3" fill="white" opacity="1"/>
  <circle cx="118" cy="65" r="3" fill="white" opacity="1"/>
  <path d="M72 92 Q100 115 128 92" stroke="#333" stroke-width="4" fill="none" stroke-linecap="round"/>
  <ellipse cx="60" cy="82" rx="12" ry="7" fill="#FFB3B3" opacity="0.4"/>
  <ellipse cx="140" cy="82" rx="12" ry="7" fill="#FFB3B3" opacity="0.4"/>
  <path d="M45,42.25 C39,37 42,34 45,37.75 C48,34 51,37 45,42.25Z" fill="#FFB3B3"/>
  <path d="M160,46.8 C155.2,42.6 157.6,40.2 160,43.2 C162.4,40.2 164.8,42.6 160,46.8Z" fill="#FFD6D6"/>
</svg>