<svg xmlns="http://www.w3.org/2000/svg" viewBox="0 0 200 150" width="200" height="150">
  <defs>
    <linearGradient id="bg6082" gradientTransform="rotate(135)">
      <stop offset="0%" style="stop-color:#F0F7FF"/>
      <stop offset="100%" style="stop-color:#DCE8F5"/>
    </linearGradient>
  </defs>
  <rect width="200" height="150" fill="url(#bg6082)" rx="16"/>
  <circle cx="140.23479854567995" cy="123.9985750021333" r="4.437257569014037" fill="#F0F7FF" opacity="0.3"/><circle cx="103.15254140696197" cy="149.39193925538348" r="2.365433728019525" fill="#F0F7FF" opacity="0.3"/><circle cx="180.7826097493944" cy="31.837773433062466" r="3.289581886087035" fill="#F0F7FF" opacity="0.3"/><circle cx="70.19216279386455" cy="114.09171454142779" r="3.540516627199395" fill="#F0F7FF" opacity="0.3"/><circle cx="69.41936101611645" cy="72.93689821603948" r="4.584178658819837" fill="#F0F7FF" opacity="0.3"/><circle cx="116.56014684049296" cy="65.55341601379041" r="3.724920725465381" fill="#F0F7FF" opacity="0.3"/>
  <circle cx="100" cy="75" r="48" fill="#FFE5D9" opacity="1"/>
  <circle cx="80" cy="68" r="8" fill="#333" opacity="1"/>
  <circle cx="120" cy="68" r="8" fill="#333" opacity="1"/>
  <circle cx="78" cy="65" r="3" fill="white" opacity="1"/>
  <circle cx="118" cy="65" r="3" fill="white" opacity="1"/>
  <path d="M72 92 Q100 115 128 92" stroke="#333" stroke-width="4" fill="none" stroke-linecap="round"/>
  <ellipse cx="60" cy="82" rx="12" ry="7" fill="#FFB3B3" opacity="0.4"/>
  <ellipse cx="140" cy="82" rx="12" ry="7" fill="#FFB3B3" opacity="0.4"/>
  <path d="M45,42.25 C39,37 42,34 45,37.75 C48,34 51,37 45,42.25Z" fill="#FFB3B3"/>
  <path d="M160,46.8 C155.2,42.6 157.6,40.2 160,43.2 C162.4,40.2 164.8,42.6 160,46.8Z" fill="#FFD6D6"/>
</svg>