<svg xmlns="http://www.w3.org/2000/svg" viewBox="0 0 200 150" width="200" height="150">
  <defs>
    <linearGradient id="bg6083" gradientTransform="rotate(135)">
      <stop offset="0%" style="stop-color:#FFF3B0"/>
      <stop offset="100%" style="stop-color:#FFE566"/>
    </linearGradient>
  </defs>
  <rect width="200" height="150" fill="url(#bg6083)" rx="16"/>
  <circle cx="157.12077998759924" cy="41.368156483940766" r="3.364672238822095" fill="#FFF3B0" opacity="0.3"/><circle cx="26.467276492985548" cy="96.21673196611482" r="4.940717847010092" fill="#FFF3B0" opacity="0.3"/><circle cx="141.38423868898826" cy="30.791312053679576" r="3.9790252390448586" fill="#FFF3B0" opacity="0.3"/><circle cx="23.82460694780093" cy="12.241720416932367" r="2.983657472215782" fill="#FFF3B0" opacity="0.3"/><circle cx="107.34748371614842" cy="126.63676754364133" r="4.8253109610959655" fill="#FFF3B0" opacity="0.3"/><circle cx="25.30917670646886" cy="118.77517296275073" r="3.5408587892425203" fill="#FFF3B0" opacity="0.3"/>
  <circle cx="100" cy="75" r="48" fill="#FFE5D9" opacity="1"/>
  <circle cx="80" cy="68" r="8" fill="#333" opacity="1"/>
  <circle cx="120" cy="68" r="8" fill="#333" opacity="1"/>
  <circle cx="78" cy="65" r="3" fill="white" opacity="1"/>
  <circle cx="118" cy="65" r="3" fill="white" opacity="1"/>
  <path d="M72 92 Q100 115 128 92" stroke="#333" stroke-width="4" fill="none" stroke-linecap="round"/>
  <ellipse cx="60" cy="82" rx="12" ry="7" fill="#FFB3B3" opacity="0.4"/>
  <ellipse cx="140" cy="82" rx="12" ry="7" fill="#FFB3B3" opacity="0.4"/>
  <path d="M45,42.25 C39,37 42,34 45,37.75 C48,34 51,37 45,42.25Z" fill="#FFB3B3"/>
  <path d="M160,46.8 C155.2,42.6 157.6,40.2 160,43.2 C162.4,40.2 164.8,42.6 160,46.8Z" fill="#FFD6D6"/>
</svg>