<svg xmlns="http://www.w3.org/2000/svg" viewBox="0 0 200 150" width="200" height="150">
  <defs>
    <linearGradient id="bg6085" gradientTransform="rotate(45)">
      <stop offset="0%" style="stop-color:#FFD6D6"/>
      <stop offset="100%" style="stop-color:#FFB3B3"/>
    </linearGradient>
  </defs>
  <rect width="200" height="150" fill="url(#bg6085)" rx="16"/>
  <circle cx="78.28651371264641" cy="72.86141107922504" r="3.1330982630115614" fill="#FFD6D6" opacity="0.3"/><circle cx="156.45665501251642" cy="18.847782694138004" r="3.290770151927063" fill="#FFD6D6" opacity="0.3"/><circle cx="7.2335830198426265" cy="113.53374060357737" r="4.997845771464199" fill="#FFD6D6" opacity="0.3"/><circle cx="72.73043121458613" cy="22.29269110291625" r="2.5261788922834967" fill="#FFD6D6" opacity="0.3"/><circle cx="36.68674168475263" cy="81.17689822061038" r="2.6173698927350415" fill="#FFD6D6" opacity="0.3"/><circle cx="21.45324222765339" cy="88.67365747046279" r="3.0214787949589663" fill="#FFD6D6" opacity="0.3"/>
  <circle cx="100" cy="75" r="48" fill="#FFE5D9" opacity="1"/>
  <circle cx="80" cy="68" r="8" fill="#333" opacity="1"/>
  <circle cx="120" cy="68" r="8" fill="#333" opacity="1"/>
  <circle cx="78" cy="65" r="3" fill="white" opacity="1"/>
  <circle cx="118" cy="65" r="3" fill="white" opacity="1"/>
  <path d="M72 92 Q100 115 128 92" stroke="#333" stroke-width="4" fill="none" stroke-linecap="round"/>
  <ellipse cx="60" cy="82" rx="12" ry="7" fill="#FFB3B3" opacity="0.4"/>
  <ellipse cx="140" cy="82" rx="12" ry="7" fill="#FFB3B3" opacity="0.4"/>
  <path d="M45,42.25 C39,37 42,34 45,37.75 C48,34 51,37 45,42.25Z" fill="#FFB3B3"/>
  <path d="M160,46.8 C155.2,42.6 157.6,40.2 160,43.2 C162.4,40.2 164.8,42.6 160,46.8Z" fill="#FFD6D6"/>
</svg>