<svg xmlns="http://www.w3.org/2000/svg" viewBox="0 0 200 150" width="200" height="150">
  <defs>
    <linearGradient id="bg6088" gradientTransform="rotate(90)">
      <stop offset="0%" style="stop-color:#D0F0F0"/>
      <stop offset="100%" style="stop-color:#A0E0E0"/>
    </linearGradient>
  </defs>
  <rect width="200" height="150" fill="url(#bg6088)" rx="16"/>
  <circle cx="85.56145236088923" cy="51.125898241707546" r="2.899967597284558" fill="#D0F0F0" opacity="0.3"/><circle cx="115.44411478971597" cy="116.51832602856302" r="3.0680355179783874" fill="#D0F0F0" opacity="0.3"/><circle cx="91.81136304760003" cy="2.133842521106999" r="4.585360235958433" fill="#D0F0F0" opacity="0.3"/><circle cx="71.43323158525163" cy="28.224748804041155" r="4.380752605857197" fill="#D0F0F0" opacity="0.3"/><circle cx="197.23247414112848" cy="1.8318590055969253" r="3.601040648291928" fill="#D0F0F0" opacity="0.3"/><circle cx="16.849607863332494" cy="38.25390449924271" r="4.6500403254940466" fill="#D0F0F0" opacity="0.3"/>
  <circle cx="100" cy="75" r="48" fill="#FFE5D9" opacity="1"/>
  <circle cx="80" cy="68" r="8" fill="#333" opacity="1"/>
  <circle cx="120" cy="68" r="8" fill="#333" opacity="1"/>
  <circle cx="78" cy="65" r="3" fill="white" opacity="1"/>
  <circle cx="118" cy="65" r="3" fill="white" opacity="1"/>
  <path d="M72 92 Q100 115 128 92" stroke="#333" stroke-width="4" fill="none" stroke-linecap="round"/>
  <ellipse cx="60" cy="82" rx="12" ry="7" fill="#FFB3B3" opacity="0.4"/>
  <ellipse cx="140" cy="82" rx="12" ry="7" fill="#FFB3B3" opacity="0.4"/>
  <path d="M45,42.25 C39,37 42,34 45,37.75 C48,34 51,37 45,42.25Z" fill="#FFB3B3"/>
  <path d="M160,46.8 C155.2,42.6 157.6,40.2 160,43.2 C162.4,40.2 164.8,42.6 160,46.8Z" fill="#FFD6D6"/>
</svg>