<svg xmlns="http://www.w3.org/2000/svg" viewBox="0 0 200 150" width="200" height="150">
  <defs>
    <linearGradient id="bg6089" gradientTransform="rotate(135)">
      <stop offset="0%" style="stop-color:#FFD6D6"/>
      <stop offset="100%" style="stop-color:#FFB3B3"/>
    </linearGradient>
  </defs>
  <rect width="200" height="150" fill="url(#bg6089)" rx="16"/>
  <circle cx="95.51790967416309" cy="82.44778213465906" r="2.8667384975833556" fill="#FFD6D6" opacity="0.3"/><circle cx="131.4875890748226" cy="136.87895172026856" r="2.7218602970106076" fill="#FFD6D6" opacity="0.3"/><circle cx="44.742620291071944" cy="148.83089330414805" r="3.8962237891362292" fill="#FFD6D6" opacity="0.3"/><circle cx="132.7803017322367" cy="147.04193132374712" r="4.6281571745948895" fill="#FFD6D6" opacity="0.3"/><circle cx="149.80444178181642" cy="92.04211426899747" r="3.253274705240642" fill="#FFD6D6" opacity="0.3"/><circle cx="134.1636860390281" cy="69.56643017509805" r="2.972828158048287" fill="#FFD6D6" opacity="0.3"/>
  <circle cx="100" cy="75" r="48" fill="#FFE5D9" opacity="1"/>
  <circle cx="80" cy="68" r="8" fill="#333" opacity="1"/>
  <circle cx="120" cy="68" r="8" fill="#333" opacity="1"/>
  <circle cx="78" cy="65" r="3" fill="white" opacity="1"/>
  <circle cx="118" cy="65" r="3" fill="white" opacity="1"/>
  <path d="M72 92 Q100 115 128 92" stroke="#333" stroke-width="4" fill="none" stroke-linecap="round"/>
  <ellipse cx="60" cy="82" rx="12" ry="7" fill="#FFB3B3" opacity="0.4"/>
  <ellipse cx="140" cy="82" rx="12" ry="7" fill="#FFB3B3" opacity="0.4"/>
  <path d="M45,42.25 C39,37 42,34 45,37.75 C48,34 51,37 45,42.25Z" fill="#FFB3B3"/>
  <path d="M160,46.8 C155.2,42.6 157.6,40.2 160,43.2 C162.4,40.2 164.8,42.6 160,46.8Z" fill="#FFD6D6"/>
</svg>