<svg xmlns="http://www.w3.org/2000/svg" viewBox="0 0 200 150" width="200" height="150">
  <defs>
    <linearGradient id="bg6092" gradientTransform="rotate(180)">
      <stop offset="0%" style="stop-color:#F0F7FF"/>
      <stop offset="100%" style="stop-color:#DCE8F5"/>
    </linearGradient>
  </defs>
  <rect width="200" height="150" fill="url(#bg6092)" rx="16"/>
  <circle cx="146.21339506957156" cy="46.687026801828324" r="2.9193170484713846" fill="#F0F7FF" opacity="0.3"/><circle cx="114.8493872005929" cy="88.0495553732544" r="2.8933808480580865" fill="#F0F7FF" opacity="0.3"/><circle cx="172.5130160120898" cy="98.81546229255491" r="2.975662819283116" fill="#F0F7FF" opacity="0.3"/><circle cx="190.86428172849992" cy="126.57914736419116" r="2.091906245596874" fill="#F0F7FF" opacity="0.3"/><circle cx="19.718148205720354" cy="50.60227457479414" r="4.876289117017791" fill="#F0F7FF" opacity="0.3"/><circle cx="10.267726441088598" cy="136.515104395221" r="4.54408959772627" fill="#F0F7FF" opacity="0.3"/>
  <circle cx="100" cy="75" r="48" fill="#FFE5D9" opacity="1"/>
  <circle cx="80" cy="68" r="8" fill="#333" opacity="1"/>
  <circle cx="120" cy="68" r="8" fill="#333" opacity="1"/>
  <circle cx="78" cy="65" r="3" fill="white" opacity="1"/>
  <circle cx="118" cy="65" r="3" fill="white" opacity="1"/>
  <path d="M72 92 Q100 115 128 92" stroke="#333" stroke-width="4" fill="none" stroke-linecap="round"/>
  <ellipse cx="60" cy="82" rx="12" ry="7" fill="#FFB3B3" opacity="0.4"/>
  <ellipse cx="140" cy="82" rx="12" ry="7" fill="#FFB3B3" opacity="0.4"/>
  <path d="M45,42.25 C39,37 42,34 45,37.75 C48,34 51,37 45,42.25Z" fill="#FFB3B3"/>
  <path d="M160,46.8 C155.2,42.6 157.6,40.2 160,43.2 C162.4,40.2 164.8,42.6 160,46.8Z" fill="#FFD6D6"/>
</svg>