<svg xmlns="http://www.w3.org/2000/svg" viewBox="0 0 200 150" width="200" height="150">
  <defs>
    <linearGradient id="bg6093" gradientTransform="rotate(0)">
      <stop offset="0%" style="stop-color:#FFE5D9"/>
      <stop offset="100%" style="stop-color:#FFCDB2"/>
    </linearGradient>
  </defs>
  <rect width="200" height="150" fill="url(#bg6093)" rx="16"/>
  <rect x="0" y="0" width="200" height="150" rx="0" fill="#1a1a3e"/>
  <polygon points="82.0538739632093,35.34240277588651 83.14188506030739,37.546954049538606 85.57475183369283,37.90047028470575 83.81431289845106,39.61647413693175 84.22989615740546,42.039510459492035 82.0538739632093,40.89550789134137 79.87785176901313,42.039510459492035 80.29343502796753,39.61647413693175 78.53299609272577,37.90047028470575 80.96586286611121,37.546954049538606" fill="#FFF3B0"/>
  <polygon points="32.95452727774773,45.63112265170366 34.132526087708186,48.018008947059954 36.766611504193634,48.40076396255503 34.86056939097068,50.258695835861616 35.31052489766865,52.882137740158356 32.95452727774773,51.6435164912873 30.59852965782681,52.882137740158356 31.048485164524777,50.258695835861616 29.142443051301825,48.40076396255503 31.77652846778727,48.018008947059954" fill="#FFF3B0"/>
  <polygon points="69.45316041435944,31.466568940038087 70.57834794547144,33.74644789662815 73.09434375247301,34.11204348744211 71.27375208341623,35.88668176366438 71.70353547658343,38.39251122151457 69.45316041435944,37.20941903736639 67.20278535213546,38.39251122151457 67.63256874530266,35.88668176366438 65.81197707624588,34.11204348744211 68.32797288324745,33.74644789662815" fill="#FFF3B0"/>
  <polygon points="74.41062663850971,25.703355742495205 75.82500837227077,28.56920615607062 78.98766207509449,29.028766639361635 76.69914435680211,31.259520084915195 77.23939010603182,34.40939449705078 74.41062663850971,32.92222553334841 71.5818631709876,34.40939449705078 72.12210892021731,31.259520084915195 69.83359120192493,29.02876663936163 72.99624490474865,28.56920615607062" fill="#FFF3B0"/>
  <polygon points="49.53911523314673,43.99062914720935 50.88835976727794,46.72449717862973 53.90536226386535,47.16289330280355 51.722238748506044,49.29091279115194 52.23760430140914,52.295724527847966 49.53911523314673,50.87704486894904 46.84062616488432,52.295724527847966 47.35599171778742,49.29091279115194 45.17286820242811,47.16289330280355 48.18987069901552,46.72449717862973" fill="#FFF3B0"/>
  <polygon points="52.45526346228871,17.47819659695824 53.47927271483028,19.553065969102633 55.76902701310197,19.885786744378123 54.11214523769534,21.500847313855004 54.50328196737184,23.781349433882866 52.45526346228871,22.704642387564945 50.407244957205585,23.781349433882866 50.79838168688209,21.500847313855004 49.14149991147546,19.885786744378123 51.431254209747145,19.553065969102633" fill="#FFF3B0"/>
  <polygon points="128.72896559767696,44.768771767792714 129.5408317388336,46.41379224625615 131.3562196190902,46.67758354622254 130.0425926083836,47.95805341406895 130.3526978799902,49.76610588184814 128.72896559767696,48.91245930328387 127.10523331536373,49.76610588184814 127.41533858697034,47.95805341406896 126.10171157626371,46.67758354622254 127.91709945652035,46.41379224625616" fill="#FFF3B0"/>
  <polygon points="17.530334881539602,31.15751704136983 18.91681786371568,33.96683840987942 22.017088061508012,34.41733403928017 19.773711471523807,36.60408575974122 20.303300845891755,39.691828739003746 17.530334881539602,38.233994258696384 14.757368917187451,39.691828739003746 15.286958291555397,36.60408575974122 13.043581701571192,34.41733403928017 16.143851899363526,33.96683840987943" fill="#FFF3B0"/>
  <polygon points="69.71937253814758,25.560670287979974 70.48796684594949,27.11801245545023 72.20659596531392,27.367743884467565 70.96298425173075,28.579965705094946 71.25656115375138,30.291650383756995 69.71937253814758,29.48350250333874 68.18218392254379,30.291650383756995 68.47576082456442,28.579965705094946 67.23214911098124,27.36774388446756 68.95077823034568,27.11801245545023" fill="#FFF3B0"/>
  <polygon points="50.25759022652437,13.379692232072557 51.525452001472466,15.948660782330503 54.360477116329946,16.36061404511195 52.30903367142716,18.36027718798235 52.79331377642056,21.18384685641565 50.25759022652437,19.85073809450205 47.72186667662818,21.18384685641565 48.206146781621584,18.36027718798235 46.154703336718796,16.360614045111948 48.989728451576276,15.948660782330503" fill="#FFF3B0"/>
  <path d="M155 25 A22 22 0 1 1 175 50 A18 18 0 1 0 155 25" fill="#FFE566"/>
  <rect x="35" y="75" width="130" height="50" rx="8" fill="#C9B8E8"/>
  <rect x="45" y="65" width="90" height="20" rx="8" fill="white"/>
  <rect x="40" y="90" width="120" height="30" rx="6" fill="#FFCDB2"/>
  <text x="170" y="75" fill="#E2D9F3" font-size="16" font-weight="bold">z</text>
  <text x="178" y="65" fill="#E2D9F3" font-size="13" font-weight="bold">z</text>
</svg>