<svg xmlns="http://www.w3.org/2000/svg" viewBox="0 0 200 150" width="200" height="150">
  <defs>
    <linearGradient id="bg6094" gradientTransform="rotate(0)">
      <stop offset="0%" style="stop-color:#FFE5D9"/>
      <stop offset="100%" style="stop-color:#FFCDB2"/>
    </linearGradient>
  </defs>
  <rect width="200" height="150" fill="url(#bg6094)" rx="16"/>
  <circle cx="80.4522276728676" cy="59.339364408333495" r="4.74128753243167" fill="#FFE5D9" opacity="0.3"/><circle cx="45.49415658621001" cy="135.54413578976892" r="3.9478590308754065" fill="#FFE5D9" opacity="0.3"/><circle cx="90.52642359365564" cy="45.82598122078707" r="4.250634986389741" fill="#FFE5D9" opacity="0.3"/><circle cx="113.505683810763" cy="137.4659501523638" r="2.3319146621324762" fill="#FFE5D9" opacity="0.3"/><circle cx="74.85855541781348" cy="59.98393460681655" r="2.5355736284491286" fill="#FFE5D9" opacity="0.3"/><circle cx="35.77080740069505" cy="49.29031493651337" r="3.8272868152855697" fill="#FFE5D9" opacity="0.3"/>
  <circle cx="100" cy="75" r="48" fill="#FFE5D9" opacity="1"/>
  <circle cx="80" cy="68" r="8" fill="#333" opacity="1"/>
  <circle cx="120" cy="68" r="8" fill="#333" opacity="1"/>
  <circle cx="78" cy="65" r="3" fill="white" opacity="1"/>
  <circle cx="118" cy="65" r="3" fill="white" opacity="1"/>
  <path d="M72 92 Q100 115 128 92" stroke="#333" stroke-width="4" fill="none" stroke-linecap="round"/>
  <ellipse cx="60" cy="82" rx="12" ry="7" fill="#FFB3B3" opacity="0.4"/>
  <ellipse cx="140" cy="82" rx="12" ry="7" fill="#FFB3B3" opacity="0.4"/>
  <path d="M45,42.25 C39,37 42,34 45,37.75 C48,34 51,37 45,42.25Z" fill="#FFB3B3"/>
  <path d="M160,46.8 C155.2,42.6 157.6,40.2 160,43.2 C162.4,40.2 164.8,42.6 160,46.8Z" fill="#FFD6D6"/>
</svg>