<svg xmlns="http://www.w3.org/2000/svg" viewBox="0 0 200 150" width="200" height="150">
  <defs>
    <linearGradient id="bg61" gradientTransform="rotate(180)">
      <stop offset="0%" style="stop-color:#FFD6D6"/>
      <stop offset="100%" style="stop-color:#FFB3B3"/>
    </linearGradient>
  </defs>
  <rect width="200" height="150" fill="url(#bg61)" rx="16"/>
  <circle cx="54.302033853309695" cy="104.11330366468974" r="3.4108552256493567" fill="#FFD6D6" opacity="0.3"/><circle cx="163.55960025948661" cy="30.248167332774756" r="2.253853006686768" fill="#FFD6D6" opacity="0.3"/><circle cx="179.1465440635875" cy="77.0036991318193" r="2.317412922652693" fill="#FFD6D6" opacity="0.3"/><circle cx="180.27408634807216" cy="49.0095089143324" r="4.857715861610444" fill="#FFD6D6" opacity="0.3"/><circle cx="76.03653564838169" cy="44.77947579425745" r="2.4721505292272923" fill="#FFD6D6" opacity="0.3"/><circle cx="34.75851063558366" cy="147.7412314631806" r="4.714309057445462" fill="#FFD6D6" opacity="0.3"/>
  <circle cx="100" cy="75" r="48" fill="#FFE5D9" opacity="1"/>
  <circle cx="80" cy="68" r="8" fill="#333" opacity="1"/>
  <circle cx="120" cy="68" r="8" fill="#333" opacity="1"/>
  <circle cx="78" cy="65" r="3" fill="white" opacity="1"/>
  <circle cx="118" cy="65" r="3" fill="white" opacity="1"/>
  <path d="M72 92 Q100 115 128 92" stroke="#333" stroke-width="4" fill="none" stroke-linecap="round"/>
  <ellipse cx="60" cy="82" rx="12" ry="7" fill="#FFB3B3" opacity="0.4"/>
  <ellipse cx="140" cy="82" rx="12" ry="7" fill="#FFB3B3" opacity="0.4"/>
  <path d="M45,42.25 C39,37 42,34 45,37.75 C48,34 51,37 45,42.25Z" fill="#FFB3B3"/>
  <path d="M160,46.8 C155.2,42.6 157.6,40.2 160,43.2 C162.4,40.2 164.8,42.6 160,46.8Z" fill="#FFD6D6"/>
</svg>