<svg xmlns="http://www.w3.org/2000/svg" viewBox="0 0 200 150" width="200" height="150">
  <defs>
    <linearGradient id="bg6109" gradientTransform="rotate(0)">
      <stop offset="0%" style="stop-color:#FFF3B0"/>
      <stop offset="100%" style="stop-color:#FFE566"/>
    </linearGradient>
  </defs>
  <rect width="200" height="150" fill="url(#bg6109)" rx="16"/>
  <circle cx="183.90796094154211" cy="130.651805802745" r="3.3412681422764763" fill="#FFF3B0" opacity="0.3"/><circle cx="192.11666730752768" cy="107.55940785747953" r="3.265624591120286" fill="#FFF3B0" opacity="0.3"/><circle cx="23.16901208487252" cy="3.9608715567737818" r="4.056221945427751" fill="#FFF3B0" opacity="0.3"/><circle cx="161.33681823594088" cy="131.8899960510862" r="4.9303916792098335" fill="#FFF3B0" opacity="0.3"/><circle cx="47.292639059742214" cy="38.845712238799024" r="3.9144559735814255" fill="#FFF3B0" opacity="0.3"/><circle cx="100.59686952336051" cy="10.511533184705968" r="4.57216657480194" fill="#FFF3B0" opacity="0.3"/>
  <circle cx="100" cy="75" r="48" fill="#FFE5D9" opacity="1"/>
  <circle cx="80" cy="68" r="8" fill="#333" opacity="1"/>
  <circle cx="120" cy="68" r="8" fill="#333" opacity="1"/>
  <circle cx="78" cy="65" r="3" fill="white" opacity="1"/>
  <circle cx="118" cy="65" r="3" fill="white" opacity="1"/>
  <path d="M72 92 Q100 115 128 92" stroke="#333" stroke-width="4" fill="none" stroke-linecap="round"/>
  <ellipse cx="60" cy="82" rx="12" ry="7" fill="#FFB3B3" opacity="0.4"/>
  <ellipse cx="140" cy="82" rx="12" ry="7" fill="#FFB3B3" opacity="0.4"/>
  <path d="M45,42.25 C39,37 42,34 45,37.75 C48,34 51,37 45,42.25Z" fill="#FFB3B3"/>
  <path d="M160,46.8 C155.2,42.6 157.6,40.2 160,43.2 C162.4,40.2 164.8,42.6 160,46.8Z" fill="#FFD6D6"/>
</svg>