<svg xmlns="http://www.w3.org/2000/svg" viewBox="0 0 200 150" width="200" height="150">
  <defs>
    <linearGradient id="bg6115" gradientTransform="rotate(0)">
      <stop offset="0%" style="stop-color:#E0F4FF"/>
      <stop offset="100%" style="stop-color:#BAE6FD"/>
    </linearGradient>
  </defs>
  <rect width="200" height="150" fill="url(#bg6115)" rx="16"/>
  <circle cx="11.345184558331312" cy="147.00441436280016" r="3.481371411705368" fill="#E0F4FF" opacity="0.3"/><circle cx="172.25035567862506" cy="76.65545538670813" r="2.9918543248313654" fill="#E0F4FF" opacity="0.3"/><circle cx="61.03327786040609" cy="25.81183507536835" r="3.8080334138621765" fill="#E0F4FF" opacity="0.3"/><circle cx="87.96745389772695" cy="116.9738163716147" r="2.866836142449756" fill="#E0F4FF" opacity="0.3"/><circle cx="150.3824332896329" cy="52.450555276590194" r="4.24741134623855" fill="#E0F4FF" opacity="0.3"/><circle cx="24.5550229959008" cy="103.3261233947087" r="2.3138710969524254" fill="#E0F4FF" opacity="0.3"/>
  <circle cx="100" cy="75" r="48" fill="#FFE5D9" opacity="1"/>
  <circle cx="80" cy="68" r="8" fill="#333" opacity="1"/>
  <circle cx="120" cy="68" r="8" fill="#333" opacity="1"/>
  <circle cx="78" cy="65" r="3" fill="white" opacity="1"/>
  <circle cx="118" cy="65" r="3" fill="white" opacity="1"/>
  <path d="M72 92 Q100 115 128 92" stroke="#333" stroke-width="4" fill="none" stroke-linecap="round"/>
  <ellipse cx="60" cy="82" rx="12" ry="7" fill="#FFB3B3" opacity="0.4"/>
  <ellipse cx="140" cy="82" rx="12" ry="7" fill="#FFB3B3" opacity="0.4"/>
  <path d="M45,42.25 C39,37 42,34 45,37.75 C48,34 51,37 45,42.25Z" fill="#FFB3B3"/>
  <path d="M160,46.8 C155.2,42.6 157.6,40.2 160,43.2 C162.4,40.2 164.8,42.6 160,46.8Z" fill="#FFD6D6"/>
</svg>