<svg xmlns="http://www.w3.org/2000/svg" viewBox="0 0 200 150" width="200" height="150">
  <defs>
    <linearGradient id="bg6125" gradientTransform="rotate(180)">
      <stop offset="0%" style="stop-color:#D0F0F0"/>
      <stop offset="100%" style="stop-color:#A0E0E0"/>
    </linearGradient>
  </defs>
  <rect width="200" height="150" fill="url(#bg6125)" rx="16"/>
  <circle cx="60.02559579246736" cy="60.73064328857072" r="2.8541071741783526" fill="#D0F0F0" opacity="0.3"/><circle cx="64.04562865500338" cy="122.72086853172368" r="3.2786756292898644" fill="#D0F0F0" opacity="0.3"/><circle cx="101.150554889864" cy="118.74227858415907" r="3.948738268863508" fill="#D0F0F0" opacity="0.3"/><circle cx="53.38674420781899" cy="95.65665580598761" r="2.121352299933278" fill="#D0F0F0" opacity="0.3"/><circle cx="185.67588068181067" cy="5.7649508853501175" r="2.1056325526592445" fill="#D0F0F0" opacity="0.3"/><circle cx="184.21643933615997" cy="35.70262946132061" r="2.4773973273086085" fill="#D0F0F0" opacity="0.3"/>
  <circle cx="100" cy="75" r="48" fill="#FFE5D9" opacity="1"/>
  <circle cx="80" cy="68" r="8" fill="#333" opacity="1"/>
  <circle cx="120" cy="68" r="8" fill="#333" opacity="1"/>
  <circle cx="78" cy="65" r="3" fill="white" opacity="1"/>
  <circle cx="118" cy="65" r="3" fill="white" opacity="1"/>
  <path d="M72 92 Q100 115 128 92" stroke="#333" stroke-width="4" fill="none" stroke-linecap="round"/>
  <ellipse cx="60" cy="82" rx="12" ry="7" fill="#FFB3B3" opacity="0.4"/>
  <ellipse cx="140" cy="82" rx="12" ry="7" fill="#FFB3B3" opacity="0.4"/>
  <path d="M45,42.25 C39,37 42,34 45,37.75 C48,34 51,37 45,42.25Z" fill="#FFB3B3"/>
  <path d="M160,46.8 C155.2,42.6 157.6,40.2 160,43.2 C162.4,40.2 164.8,42.6 160,46.8Z" fill="#FFD6D6"/>
</svg>