<svg xmlns="http://www.w3.org/2000/svg" viewBox="0 0 200 150" width="200" height="150">
  <defs>
    <linearGradient id="bg6130" gradientTransform="rotate(45)">
      <stop offset="0%" style="stop-color:#D8F3DC"/>
      <stop offset="100%" style="stop-color:#B7E4C7"/>
    </linearGradient>
  </defs>
  <rect width="200" height="150" fill="url(#bg6130)" rx="16"/>
  <circle cx="69.73854031398332" cy="117.62776862879036" r="4.518065051677695" fill="#D8F3DC" opacity="0.3"/><circle cx="1.5372042524177232" cy="136.43183576037927" r="4.983953185950895" fill="#D8F3DC" opacity="0.3"/><circle cx="105.24556653981563" cy="94.59441051876638" r="3.5899980669037177" fill="#D8F3DC" opacity="0.3"/><circle cx="157.24489858730522" cy="33.7555380784579" r="3.6906340664709205" fill="#D8F3DC" opacity="0.3"/><circle cx="46.1259329947552" cy="1.4788484204473207" r="4.308337723130535" fill="#D8F3DC" opacity="0.3"/><circle cx="161.1626773912576" cy="16.554531166912057" r="2.432221195369493" fill="#D8F3DC" opacity="0.3"/>
  <circle cx="100" cy="75" r="45" fill="#D8F3DC" opacity="1"/>
  <circle cx="100" cy="75" r="40" fill="white" opacity="1"/>
  <line x1="100" y1="42" x2="100" y2="52" stroke="#95D5B2" stroke-width="2"/>
  <line x1="116.5" y1="46.421161675113524" x2="114" y2="50.751288694035715" stroke="#95D5B2" stroke-width="2"/>
  <line x1="128.57883832488648" y1="58.5" x2="124.24871130596428" y2="61" stroke="#95D5B2" stroke-width="2"/>
  <line x1="133" y1="75" x2="123" y2="75" stroke="#95D5B2" stroke-width="2"/>
  <line x1="128.57883832488648" y1="91.5" x2="124.24871130596429" y2="89" stroke="#95D5B2" stroke-width="2"/>
  <line x1="116.5" y1="103.57883832488648" x2="114" y2="99.24871130596429" stroke="#95D5B2" stroke-width="2"/>
  <line x1="100" y1="108" x2="100" y2="98" stroke="#95D5B2" stroke-width="2"/>
  <line x1="83.5" y1="103.57883832488648" x2="86" y2="99.24871130596428" stroke="#95D5B2" stroke-width="2"/>
  <line x1="71.42116167511352" y1="91.50000000000001" x2="75.75128869403572" y2="89.00000000000001" stroke="#95D5B2" stroke-width="2"/>
  <line x1="67" y1="75" x2="77" y2="75" stroke="#95D5B2" stroke-width="2"/>
  <line x1="71.42116167511352" y1="58.5" x2="75.75128869403572" y2="61" stroke="#95D5B2" stroke-width="2"/>
  <line x1="83.49999999999999" y1="46.42116167511353" x2="85.99999999999999" y2="50.75128869403572" stroke="#95D5B2" stroke-width="2"/>
  <line x1="100" y1="75" x2="100" y2="55" stroke="#95D5B2" stroke-width="4" stroke-linecap="round"/>
  <line x1="100" y1="75" x2="118" y2="85" stroke="#FFB3B3" stroke-width="3" stroke-linecap="round"/>
  <circle cx="100" cy="75" r="5" fill="#95D5B2" opacity="1"/>
  <polygon points="45,33 48.52671151375484,40.14589803375031 56.412678195541844,41.291796067500634 50.70633909777092,46.85410196624969 52.05342302750968,54.70820393249937 45,51 37.94657697249032,54.70820393249937 39.29366090222908,46.85410196624969 33.587321804458156,41.29179606750063 41.47328848624516,40.14589803375031" fill="#FFF3B0"/>
</svg>