<svg xmlns="http://www.w3.org/2000/svg" viewBox="0 0 200 150" width="200" height="150">
  <defs>
    <linearGradient id="bg6134" gradientTransform="rotate(45)">
      <stop offset="0%" style="stop-color:#D0F0F0"/>
      <stop offset="100%" style="stop-color:#A0E0E0"/>
    </linearGradient>
  </defs>
  <rect width="200" height="150" fill="url(#bg6134)" rx="16"/>
  <circle cx="175.26087058204212" cy="12.271351021206556" r="2.8992011813870704" fill="#D0F0F0" opacity="0.3"/><circle cx="167.7574544401466" cy="29.344277810832864" r="3.9502382772116107" fill="#D0F0F0" opacity="0.3"/><circle cx="105.58719383079733" cy="32.836750452406704" r="2.5704751063085496" fill="#D0F0F0" opacity="0.3"/><circle cx="68.56328280919115" cy="107.84143443752328" r="3.8239174325926797" fill="#D0F0F0" opacity="0.3"/><circle cx="49.90458055763156" cy="143.9965494273565" r="3.2214214373962022" fill="#D0F0F0" opacity="0.3"/><circle cx="95.361248304107" cy="110.82178495071275" r="3.4335051364369065" fill="#D0F0F0" opacity="0.3"/>
  <circle cx="100" cy="75" r="48" fill="#FFE5D9" opacity="1"/>
  <circle cx="80" cy="68" r="8" fill="#333" opacity="1"/>
  <circle cx="120" cy="68" r="8" fill="#333" opacity="1"/>
  <circle cx="78" cy="65" r="3" fill="white" opacity="1"/>
  <circle cx="118" cy="65" r="3" fill="white" opacity="1"/>
  <path d="M72 92 Q100 115 128 92" stroke="#333" stroke-width="4" fill="none" stroke-linecap="round"/>
  <ellipse cx="60" cy="82" rx="12" ry="7" fill="#FFB3B3" opacity="0.4"/>
  <ellipse cx="140" cy="82" rx="12" ry="7" fill="#FFB3B3" opacity="0.4"/>
  <path d="M45,42.25 C39,37 42,34 45,37.75 C48,34 51,37 45,42.25Z" fill="#FFB3B3"/>
  <path d="M160,46.8 C155.2,42.6 157.6,40.2 160,43.2 C162.4,40.2 164.8,42.6 160,46.8Z" fill="#FFD6D6"/>
</svg>