<svg xmlns="http://www.w3.org/2000/svg" viewBox="0 0 200 150" width="200" height="150">
  <defs>
    <linearGradient id="bg6152" gradientTransform="rotate(180)">
      <stop offset="0%" style="stop-color:#F0F7FF"/>
      <stop offset="100%" style="stop-color:#DCE8F5"/>
    </linearGradient>
  </defs>
  <rect width="200" height="150" fill="url(#bg6152)" rx="16"/>
  <circle cx="112.87695519877161" cy="32.086802931098646" r="2.347242126926176" fill="#F0F7FF" opacity="0.3"/><circle cx="83.31180601253436" cy="79.99289329510475" r="3.318224916266445" fill="#F0F7FF" opacity="0.3"/><circle cx="31.588369118981063" cy="37.82519676244647" r="3.8785233087692177" fill="#F0F7FF" opacity="0.3"/><circle cx="124.05845290923025" cy="133.55968745922482" r="4.62271592025354" fill="#F0F7FF" opacity="0.3"/><circle cx="111.50741337078216" cy="124.31255485953443" r="4.997865802100932" fill="#F0F7FF" opacity="0.3"/><circle cx="159.7985188531311" cy="63.3924490379286" r="3.6871722114583463" fill="#F0F7FF" opacity="0.3"/>
  <circle cx="100" cy="75" r="48" fill="#FFE5D9" opacity="1"/>
  <circle cx="80" cy="68" r="8" fill="#333" opacity="1"/>
  <circle cx="120" cy="68" r="8" fill="#333" opacity="1"/>
  <circle cx="78" cy="65" r="3" fill="white" opacity="1"/>
  <circle cx="118" cy="65" r="3" fill="white" opacity="1"/>
  <path d="M72 92 Q100 115 128 92" stroke="#333" stroke-width="4" fill="none" stroke-linecap="round"/>
  <ellipse cx="60" cy="82" rx="12" ry="7" fill="#FFB3B3" opacity="0.4"/>
  <ellipse cx="140" cy="82" rx="12" ry="7" fill="#FFB3B3" opacity="0.4"/>
  <path d="M45,42.25 C39,37 42,34 45,37.75 C48,34 51,37 45,42.25Z" fill="#FFB3B3"/>
  <path d="M160,46.8 C155.2,42.6 157.6,40.2 160,43.2 C162.4,40.2 164.8,42.6 160,46.8Z" fill="#FFD6D6"/>
</svg>