<svg xmlns="http://www.w3.org/2000/svg" viewBox="0 0 200 150" width="200" height="150">
  <defs>
    <linearGradient id="bg6153" gradientTransform="rotate(0)">
      <stop offset="0%" style="stop-color:#F0F7FF"/>
      <stop offset="100%" style="stop-color:#DCE8F5"/>
    </linearGradient>
  </defs>
  <rect width="200" height="150" fill="url(#bg6153)" rx="16"/>
  <rect x="0" y="95" width="200" height="55" rx="0" fill="#FFE4CC"/>
  <ellipse cx="100" cy="90" rx="60" ry="22" fill="#F8F8F8" opacity="1"/>
  <ellipse cx="100" cy="88" rx="52" ry="18" fill="white" opacity="1"/>
  <circle cx="75" cy="75" r="16" fill="#FFB3B3" opacity="1"/>
  <rect x="73" y="57" width="4" height="8" rx="1" fill="#8B4513"/>
  <path d="M105 82 Q125 55 145 75" stroke="#FFE566" stroke-width="14" fill="none" stroke-linecap="round"/>
  <polygon points="146,45.4 148.35114100916988,50.163932022500205 153.60845213036123,50.92786404500042 149.80422606518061,54.636067977499785 150.7022820183398,59.87213595499958 146,57.4 141.2977179816602,59.87213595499958 142.19577393481939,54.63606797749979 138.39154786963877,50.92786404500042 143.64885899083012,50.16393202250021" fill="#FFF3B0"/><polygon points="162.75722003491077,9.814529475408904 165.69614629637314,15.769444503534167 172.2677851978623,16.72435953165943 167.51250261638654,21.35961444728364 168.6350725578355,27.904699419158376 162.75722003491077,24.814529475408904 156.87936751198603,27.904699419158376 158.001937453435,21.35961444728364 153.24665487195924,16.724359531659427 159.8182937734484,15.769444503534167" fill="#FFF3B0"/><polygon points="119.15012030943211,41.341907229990056 122.67683182318694,48.48780526374037 130.56279850497396,49.63370329749069 124.85645940720303,55.19600919623974 126.20354333694179,63.05011116248943 119.15012030943211,59.341907229990056 112.09669728192243,63.05011116248943 113.44378121166119,55.19600919623974 107.73744211389027,49.63370329749068 115.62340879567728,48.48780526374037" fill="#FFF3B0"/><polygon points="172.26399934969268,5.9306145323962625 176.37849611574,14.26749557177163 185.57879057782483,15.604376611147 178.92139496375876,22.093733493020896 180.4929928817873,31.25685245364553 172.26399934969268,26.930614532396262 164.03500581759806,31.25685245364553 165.6066037356266,22.093733493020896 158.94920812156053,15.604376611146995 168.14950258364536,14.267495571771631" fill="#FFF3B0"/>
</svg>