<svg xmlns="http://www.w3.org/2000/svg" viewBox="0 0 200 150" width="200" height="150">
  <defs>
    <linearGradient id="bg6167" gradientTransform="rotate(90)">
      <stop offset="0%" style="stop-color:#F0F7FF"/>
      <stop offset="100%" style="stop-color:#DCE8F5"/>
    </linearGradient>
  </defs>
  <rect width="200" height="150" fill="url(#bg6167)" rx="16"/>
  <rect x="0" y="100" width="200" height="50" rx="0" fill="#C5DBC5"/>
  <circle cx="165" cy="35" r="22" fill="#FFE566" opacity="1"/>
  <line x1="191" y1="35" x2="200" y2="35" stroke="#FFF3B0" stroke-width="3" stroke-linecap="round"/>
  <line x1="183.38477631085024" y1="53.384776310850235" x2="189.74873734152916" y2="59.748737341529164" stroke="#FFF3B0" stroke-width="3" stroke-linecap="round"/>
  <line x1="165" y1="61" x2="165" y2="70" stroke="#FFF3B0" stroke-width="3" stroke-linecap="round"/>
  <line x1="146.61522368914976" y1="53.38477631085024" x2="140.25126265847084" y2="59.748737341529164" stroke="#FFF3B0" stroke-width="3" stroke-linecap="round"/>
  <line x1="139" y1="35" x2="130" y2="35.00000000000001" stroke="#FFF3B0" stroke-width="3" stroke-linecap="round"/>
  <line x1="146.61522368914976" y1="16.615223689149765" x2="140.25126265847084" y2="10.25126265847084" stroke="#FFF3B0" stroke-width="3" stroke-linecap="round"/>
  <line x1="165" y1="9" x2="165" y2="0" stroke="#FFF3B0" stroke-width="3" stroke-linecap="round"/>
  <line x1="183.38477631085024" y1="16.61522368914976" x2="189.74873734152916" y2="10.251262658470832" stroke="#FFF3B0" stroke-width="3" stroke-linecap="round"/>
  <rect x="90" y="55" width="14" height="50" rx="2" fill="#8B6914"/>
  <path d="M76.1259728259829,23.59295896482581 Q86.1259728259829,35.59295896482581 76.1259728259829,47.59295896482581 Q66.1259728259829,35.59295896482581 76.1259728259829,23.59295896482581Z" fill="#B7E4C7"/>
  <path d="M94.83081602577295,30.097713629314057 Q104.83081602577295,42.09771362931406 94.83081602577295,54.09771362931406 Q84.83081602577295,42.09771362931406 94.83081602577295,30.097713629314057Z" fill="#95D5B2"/>
  <path d="M105.89368581875169,38.661717380608025 Q115.89368581875169,50.661717380608025 105.89368581875169,62.661717380608025 Q95.89368581875169,50.661717380608025 105.89368581875169,38.661717380608025Z" fill="#B7E4C7"/>
  <path d="M112.93125305060312,30.53052483272768 Q122.93125305060312,42.53052483272768 112.93125305060312,54.53052483272768 Q102.93125305060312,42.53052483272768 112.93125305060312,30.53052483272768Z" fill="#95D5B2"/>
  <path d="M129.96034218306158,23.17758752182999 Q139.96034218306158,35.17758752182999 129.96034218306158,47.17758752182999 Q119.96034218306158,35.17758752182999 129.96034218306158,23.17758752182999Z" fill="#B7E4C7"/>
  <circle cx="45" cy="95" r="8" fill="#FFB3B3" opacity="1"/>
  <circle cx="155" cy="98" r="6" fill="#C9B8E8" opacity="1"/>
</svg>