<svg xmlns="http://www.w3.org/2000/svg" viewBox="0 0 200 150" width="200" height="150">
  <defs>
    <linearGradient id="bg61691" gradientTransform="rotate(90)">
      <stop offset="0%" style="stop-color:#F0F7FF"/>
      <stop offset="100%" style="stop-color:#DCE8F5"/>
    </linearGradient>
  </defs>
  <rect width="200" height="150" fill="url(#bg61691)" rx="16"/>
  <circle cx="12.657211888290476" cy="104.31349304676587" r="4.006119563133325" fill="#F0F7FF" opacity="0.3"/><circle cx="87.86643145394919" cy="131.6642359747675" r="2.7241465436441104" fill="#F0F7FF" opacity="0.3"/><circle cx="94.30399289549314" cy="100.56607921660543" r="3.293827956128098" fill="#F0F7FF" opacity="0.3"/><circle cx="38.70535360329086" cy="136.7785352406827" r="4.0408895799450875" fill="#F0F7FF" opacity="0.3"/><circle cx="110.97138066943444" cy="54.30709096744977" r="2.9905859054488246" fill="#F0F7FF" opacity="0.3"/><circle cx="164.36439045000952" cy="24.853815609594676" r="3.3992438665081863" fill="#F0F7FF" opacity="0.3"/>
  <circle cx="100" cy="75" r="48" fill="#FFE5D9" opacity="1"/>
  <circle cx="80" cy="68" r="8" fill="#333" opacity="1"/>
  <circle cx="120" cy="68" r="8" fill="#333" opacity="1"/>
  <circle cx="78" cy="65" r="3" fill="white" opacity="1"/>
  <circle cx="118" cy="65" r="3" fill="white" opacity="1"/>
  <path d="M72 92 Q100 115 128 92" stroke="#333" stroke-width="4" fill="none" stroke-linecap="round"/>
  <ellipse cx="60" cy="82" rx="12" ry="7" fill="#FFB3B3" opacity="0.4"/>
  <ellipse cx="140" cy="82" rx="12" ry="7" fill="#FFB3B3" opacity="0.4"/>
  <path d="M45,42.25 C39,37 42,34 45,37.75 C48,34 51,37 45,42.25Z" fill="#FFB3B3"/>
  <path d="M160,46.8 C155.2,42.6 157.6,40.2 160,43.2 C162.4,40.2 164.8,42.6 160,46.8Z" fill="#FFD6D6"/>
</svg>