<svg xmlns="http://www.w3.org/2000/svg" viewBox="0 0 200 150" width="200" height="150">
  <defs>
    <linearGradient id="bg6172" gradientTransform="rotate(0)">
      <stop offset="0%" style="stop-color:#D0F0F0"/>
      <stop offset="100%" style="stop-color:#A0E0E0"/>
    </linearGradient>
  </defs>
  <rect width="200" height="150" fill="url(#bg6172)" rx="16"/>
  <rect x="0" y="100" width="200" height="50" rx="0" fill="#C5DBC5"/>
  <circle cx="165" cy="35" r="22" fill="#FFE566" opacity="1"/>
  <line x1="191" y1="35" x2="200" y2="35" stroke="#FFF3B0" stroke-width="3" stroke-linecap="round"/>
  <line x1="183.38477631085024" y1="53.384776310850235" x2="189.74873734152916" y2="59.748737341529164" stroke="#FFF3B0" stroke-width="3" stroke-linecap="round"/>
  <line x1="165" y1="61" x2="165" y2="70" stroke="#FFF3B0" stroke-width="3" stroke-linecap="round"/>
  <line x1="146.61522368914976" y1="53.38477631085024" x2="140.25126265847084" y2="59.748737341529164" stroke="#FFF3B0" stroke-width="3" stroke-linecap="round"/>
  <line x1="139" y1="35" x2="130" y2="35.00000000000001" stroke="#FFF3B0" stroke-width="3" stroke-linecap="round"/>
  <line x1="146.61522368914976" y1="16.615223689149765" x2="140.25126265847084" y2="10.25126265847084" stroke="#FFF3B0" stroke-width="3" stroke-linecap="round"/>
  <line x1="165" y1="9" x2="165" y2="0" stroke="#FFF3B0" stroke-width="3" stroke-linecap="round"/>
  <line x1="183.38477631085024" y1="16.61522368914976" x2="189.74873734152916" y2="10.251262658470832" stroke="#FFF3B0" stroke-width="3" stroke-linecap="round"/>
  <rect x="90" y="55" width="14" height="50" rx="2" fill="#8B6914"/>
  <path d="M79.91683978231595,34.28254831659433 Q89.91683978231595,46.28254831659433 79.91683978231595,58.28254831659433 Q69.91683978231595,46.28254831659433 79.91683978231595,34.28254831659433Z" fill="#B7E4C7"/>
  <path d="M93.2392334103206,39.16181988389144 Q103.2392334103206,51.16181988389144 93.2392334103206,63.16181988389144 Q83.2392334103206,51.16181988389144 93.2392334103206,39.16181988389144Z" fill="#95D5B2"/>
  <path d="M104.34304372435508,23.875358991115718 Q114.34304372435508,35.87535899111572 104.34304372435508,47.87535899111572 Q94.34304372435508,35.87535899111572 104.34304372435508,23.875358991115718Z" fill="#B7E4C7"/>
  <path d="M118.76164189578412,31.7971674396681 Q128.76164189578412,43.7971674396681 118.76164189578412,55.7971674396681 Q108.76164189578412,43.7971674396681 118.76164189578412,31.7971674396681Z" fill="#95D5B2"/>
  <path d="M128.1833180882968,24.043842420695 Q138.1833180882968,36.043842420695 128.1833180882968,48.043842420695 Q118.1833180882968,36.043842420695 128.1833180882968,24.043842420695Z" fill="#B7E4C7"/>
  <circle cx="45" cy="95" r="8" fill="#FFB3B3" opacity="1"/>
  <circle cx="155" cy="98" r="6" fill="#C9B8E8" opacity="1"/>
</svg>