<svg xmlns="http://www.w3.org/2000/svg" viewBox="0 0 200 150" width="200" height="150">
  <defs>
    <linearGradient id="bg6173" gradientTransform="rotate(90)">
      <stop offset="0%" style="stop-color:#E8F0E8"/>
      <stop offset="100%" style="stop-color:#C5DBC5"/>
    </linearGradient>
  </defs>
  <rect width="200" height="150" fill="url(#bg6173)" rx="16"/>
  <rect x="0" y="100" width="200" height="50" rx="0" fill="#C5DBC5"/>
  <circle cx="165" cy="35" r="22" fill="#FFE566" opacity="1"/>
  <line x1="191" y1="35" x2="200" y2="35" stroke="#FFF3B0" stroke-width="3" stroke-linecap="round"/>
  <line x1="183.38477631085024" y1="53.384776310850235" x2="189.74873734152916" y2="59.748737341529164" stroke="#FFF3B0" stroke-width="3" stroke-linecap="round"/>
  <line x1="165" y1="61" x2="165" y2="70" stroke="#FFF3B0" stroke-width="3" stroke-linecap="round"/>
  <line x1="146.61522368914976" y1="53.38477631085024" x2="140.25126265847084" y2="59.748737341529164" stroke="#FFF3B0" stroke-width="3" stroke-linecap="round"/>
  <line x1="139" y1="35" x2="130" y2="35.00000000000001" stroke="#FFF3B0" stroke-width="3" stroke-linecap="round"/>
  <line x1="146.61522368914976" y1="16.615223689149765" x2="140.25126265847084" y2="10.25126265847084" stroke="#FFF3B0" stroke-width="3" stroke-linecap="round"/>
  <line x1="165" y1="9" x2="165" y2="0" stroke="#FFF3B0" stroke-width="3" stroke-linecap="round"/>
  <line x1="183.38477631085024" y1="16.61522368914976" x2="189.74873734152916" y2="10.251262658470832" stroke="#FFF3B0" stroke-width="3" stroke-linecap="round"/>
  <rect x="90" y="55" width="14" height="50" rx="2" fill="#8B6914"/>
  <path d="M79.24791488310439,31.498357428416057 Q89.24791488310439,43.49835742841606 79.24791488310439,55.49835742841606 Q69.24791488310439,43.49835742841606 79.24791488310439,31.498357428416057Z" fill="#B7E4C7"/>
  <path d="M91.92857476561767,36.410779506884865 Q101.92857476561767,48.410779506884865 91.92857476561767,60.410779506884865 Q81.92857476561767,48.410779506884865 91.92857476561767,36.410779506884865Z" fill="#95D5B2"/>
  <path d="M103.10836263561214,32.42756916479084 Q113.10836263561214,44.42756916479084 103.10836263561214,56.42756916479084 Q93.10836263561214,44.42756916479084 103.10836263561214,32.42756916479084Z" fill="#B7E4C7"/>
  <path d="M111.32093688251473,34.66104933330644 Q121.32093688251473,46.66104933330644 111.32093688251473,58.66104933330644 Q101.32093688251473,46.66104933330644 111.32093688251473,34.66104933330644Z" fill="#95D5B2"/>
  <path d="M130.63981524256815,27.048604442577926 Q140.63981524256815,39.048604442577926 130.63981524256815,51.048604442577926 Q120.63981524256815,39.048604442577926 130.63981524256815,27.048604442577926Z" fill="#B7E4C7"/>
  <circle cx="45" cy="95" r="8" fill="#FFB3B3" opacity="1"/>
  <circle cx="155" cy="98" r="6" fill="#C9B8E8" opacity="1"/>
</svg>