<svg xmlns="http://www.w3.org/2000/svg" viewBox="0 0 200 150" width="200" height="150">
  <defs>
    <linearGradient id="bg6176" gradientTransform="rotate(90)">
      <stop offset="0%" style="stop-color:#FFE4EC"/>
      <stop offset="100%" style="stop-color:#FFC8DD"/>
    </linearGradient>
  </defs>
  <rect width="200" height="150" fill="url(#bg6176)" rx="16"/>
  <rect x="0" y="100" width="200" height="50" rx="0" fill="#C5DBC5"/>
  <circle cx="165" cy="35" r="22" fill="#FFE566" opacity="1"/>
  <line x1="191" y1="35" x2="200" y2="35" stroke="#FFF3B0" stroke-width="3" stroke-linecap="round"/>
  <line x1="183.38477631085024" y1="53.384776310850235" x2="189.74873734152916" y2="59.748737341529164" stroke="#FFF3B0" stroke-width="3" stroke-linecap="round"/>
  <line x1="165" y1="61" x2="165" y2="70" stroke="#FFF3B0" stroke-width="3" stroke-linecap="round"/>
  <line x1="146.61522368914976" y1="53.38477631085024" x2="140.25126265847084" y2="59.748737341529164" stroke="#FFF3B0" stroke-width="3" stroke-linecap="round"/>
  <line x1="139" y1="35" x2="130" y2="35.00000000000001" stroke="#FFF3B0" stroke-width="3" stroke-linecap="round"/>
  <line x1="146.61522368914976" y1="16.615223689149765" x2="140.25126265847084" y2="10.25126265847084" stroke="#FFF3B0" stroke-width="3" stroke-linecap="round"/>
  <line x1="165" y1="9" x2="165" y2="0" stroke="#FFF3B0" stroke-width="3" stroke-linecap="round"/>
  <line x1="183.38477631085024" y1="16.61522368914976" x2="189.74873734152916" y2="10.251262658470832" stroke="#FFF3B0" stroke-width="3" stroke-linecap="round"/>
  <rect x="90" y="55" width="14" height="50" rx="2" fill="#8B6914"/>
  <path d="M76.57373406495026,31.18940688674047 Q86.57373406495026,43.18940688674047 76.57373406495026,55.18940688674047 Q66.57373406495026,43.18940688674047 76.57373406495026,31.18940688674047Z" fill="#B7E4C7"/>
  <path d="M93.0969383878546,29.646080798091134 Q103.0969383878546,41.646080798091134 93.0969383878546,53.646080798091134 Q83.0969383878546,41.646080798091134 93.0969383878546,29.646080798091134Z" fill="#95D5B2"/>
  <path d="M105.65336949034099,30.498644360784965 Q115.65336949034099,42.498644360784965 105.65336949034099,54.498644360784965 Q95.65336949034099,42.498644360784965 105.65336949034099,30.498644360784965Z" fill="#B7E4C7"/>
  <path d="M118.70174550406045,41.29151646695209 Q128.70174550406045,53.29151646695209 118.70174550406045,65.29151646695209 Q108.70174550406045,53.29151646695209 118.70174550406045,41.29151646695209Z" fill="#95D5B2"/>
  <path d="M130.7455619743223,31.517593834158106 Q140.7455619743223,43.517593834158106 130.7455619743223,55.517593834158106 Q120.7455619743223,43.517593834158106 130.7455619743223,31.517593834158106Z" fill="#B7E4C7"/>
  <circle cx="45" cy="95" r="8" fill="#FFB3B3" opacity="1"/>
  <circle cx="155" cy="98" r="6" fill="#C9B8E8" opacity="1"/>
</svg>