<svg xmlns="http://www.w3.org/2000/svg" viewBox="0 0 200 150" width="200" height="150">
  <defs>
    <linearGradient id="bg6177" gradientTransform="rotate(135)">
      <stop offset="0%" style="stop-color:#E0F4FF"/>
      <stop offset="100%" style="stop-color:#BAE6FD"/>
    </linearGradient>
  </defs>
  <rect width="200" height="150" fill="url(#bg6177)" rx="16"/>
  <rect x="0" y="100" width="200" height="50" rx="0" fill="#C5DBC5"/>
  <circle cx="165" cy="35" r="22" fill="#FFE566" opacity="1"/>
  <line x1="191" y1="35" x2="200" y2="35" stroke="#FFF3B0" stroke-width="3" stroke-linecap="round"/>
  <line x1="183.38477631085024" y1="53.384776310850235" x2="189.74873734152916" y2="59.748737341529164" stroke="#FFF3B0" stroke-width="3" stroke-linecap="round"/>
  <line x1="165" y1="61" x2="165" y2="70" stroke="#FFF3B0" stroke-width="3" stroke-linecap="round"/>
  <line x1="146.61522368914976" y1="53.38477631085024" x2="140.25126265847084" y2="59.748737341529164" stroke="#FFF3B0" stroke-width="3" stroke-linecap="round"/>
  <line x1="139" y1="35" x2="130" y2="35.00000000000001" stroke="#FFF3B0" stroke-width="3" stroke-linecap="round"/>
  <line x1="146.61522368914976" y1="16.615223689149765" x2="140.25126265847084" y2="10.25126265847084" stroke="#FFF3B0" stroke-width="3" stroke-linecap="round"/>
  <line x1="165" y1="9" x2="165" y2="0" stroke="#FFF3B0" stroke-width="3" stroke-linecap="round"/>
  <line x1="183.38477631085024" y1="16.61522368914976" x2="189.74873734152916" y2="10.251262658470832" stroke="#FFF3B0" stroke-width="3" stroke-linecap="round"/>
  <rect x="90" y="55" width="14" height="50" rx="2" fill="#8B6914"/>
  <path d="M78.67288511119841,42.95640495453699 Q88.67288511119841,54.95640495453699 78.67288511119841,66.95640495453699 Q68.67288511119841,54.95640495453699 78.67288511119841,42.95640495453699Z" fill="#B7E4C7"/>
  <path d="M88.29308438015869,26.045753228398098 Q98.29308438015869,38.0457532283981 88.29308438015869,50.0457532283981 Q78.29308438015869,38.0457532283981 88.29308438015869,26.045753228398098Z" fill="#95D5B2"/>
  <path d="M106.67814067157815,25.218129672910436 Q116.67814067157815,37.218129672910436 106.67814067157815,49.218129672910436 Q96.67814067157815,37.218129672910436 106.67814067157815,25.218129672910436Z" fill="#B7E4C7"/>
  <path d="M114.71644755620218,34.47600225996939 Q124.71644755620218,46.47600225996939 114.71644755620218,58.47600225996939 Q104.71644755620218,46.47600225996939 114.71644755620218,34.47600225996939Z" fill="#95D5B2"/>
  <path d="M128.86854226516152,36.69713365758798 Q138.86854226516152,48.69713365758798 128.86854226516152,60.69713365758798 Q118.86854226516152,48.69713365758798 128.86854226516152,36.69713365758798Z" fill="#B7E4C7"/>
  <circle cx="45" cy="95" r="8" fill="#FFB3B3" opacity="1"/>
  <circle cx="155" cy="98" r="6" fill="#C9B8E8" opacity="1"/>
</svg>