<svg xmlns="http://www.w3.org/2000/svg" viewBox="0 0 200 150" width="200" height="150">
  <defs>
    <linearGradient id="bg61827" gradientTransform="rotate(135)">
      <stop offset="0%" style="stop-color:#D0F0F0"/>
      <stop offset="100%" style="stop-color:#A0E0E0"/>
    </linearGradient>
  </defs>
  <rect width="200" height="150" fill="url(#bg61827)" rx="16"/>
  <rect x="0" y="0" width="200" height="150" rx="0" fill="#1a1a3e"/>
  <polygon points="111.90950282554695,49.10197633442476 112.77372866522268,50.85308914996658 114.70619639064944,51.13389314727065 113.3078496080982,52.496944382715085 113.6379545048984,54.42160361276765 111.90950282554695,53.512902789138025 110.1810511461955,54.42160361276765 110.51115604299571,52.496944382715085 109.11280926044446,51.13389314727065 111.04527698587123,50.85308914996658" fill="#FFF3B0"/>
  <polygon points="48.358070588374176,14.988879617444582 49.28246117056748,16.861899516562886 51.34946135011232,17.162252223729695 49.85376596924325,18.62019489015651 50.206851752760784,20.678842970916946 48.358070588374176,19.70688119329907 46.50928942398757,20.678842970916946 46.8623752075051,18.62019489015651 45.36667982663603,17.16225222372969 47.43368000618087,16.861899516562886" fill="#FFF3B0"/>
  <polygon points="37.758796288599115,15.54191296715544 38.39893404272517,16.83897372778127 39.830325575915076,17.04696709239912 38.7945609322571,18.05658809255753 39.039071796851225,19.482195821951642 37.758796288599115,18.80911515517937 36.478520780347004,19.482195821951642 36.72303164494113,18.05658809255753 35.68726700128315,17.04696709239912 37.118658534473056,16.83897372778127" fill="#FFF3B0"/>
  <polygon points="34.10257913134046,15.437255035344606 35.35086733439953,17.966563197070705 38.14212461195067,18.372156620819776 36.12235187164556,20.340948456538094 36.5991555374586,23.12092713975456 34.10257913134046,21.80839924927568 31.606002725222325,23.12092713975456 32.08280639103536,20.340948456538094 30.063033650730254,18.372156620819776 32.854290928281394,17.966563197070705" fill="#FFF3B0"/>
  <polygon points="160.1195175527937,51.49235591384695 160.74554739778608,52.760830928305175 162.14539268713273,52.96424035537284 161.13245511996323,53.9516104552557 161.37157724277847,55.34579940927388 160.1195175527937,54.68755267601864 158.86745786280892,55.34579940927388 159.10657998562417,53.9516104552557 158.09364241845466,52.96424035537284 159.4934877078013,52.760830928305175" fill="#FFF3B0"/>
  <polygon points="134.79592780489838,40.74739487563329 136.23678416361545,43.666888738546575 139.45863692751962,44.13505134893617 137.127282366209,46.40756039655291 137.6776405223325,49.61639466494884 134.79592780489838,48.10138863320435 131.91421508746427,49.61639466494884 132.46457324358778,46.40756039655291 130.13321868227715,44.13505134893617 133.3550714461813,43.666888738546575" fill="#FFF3B0"/>
  <polygon points="60.32357266611143,29.716676532216297 61.36219206960185,31.821149303598485 63.684615658556716,32.158617204682194 62.00409416233407,33.79672080687878 62.40081147309227,36.109760211242794 60.32357266611143,35.01769114311173 58.246333859130594,36.109760211242794 58.64305116988879,33.79672080687878 56.96252967366615,32.158617204682194 59.28495326262101,31.821149303598485" fill="#FFF3B0"/>
  <polygon points="95.38591445927523,21.05882949657962 96.2997774878038,22.910518242089335 98.34323734171748,23.20745033971732 96.86457590049636,24.648789018655965 97.21364051633235,26.683991892850578 95.38591445927523,25.723099440224814 93.55818840221811,26.683991892850578 93.90725301805409,24.648789018655965 92.42859157683297,23.20745033971732 94.47205143074666,22.910518242089335" fill="#FFF3B0"/>
  <polygon points="109.15859970930796,10.272643583572062 109.89614186816473,11.76706722503719 111.5453362716404,12.006709199251892 110.35196799047418,13.169955777483429 110.63368402702149,14.812486304144368 109.15859970930796,14.036988585323343 107.68351539159444,14.812486304144368 107.96523142814175,13.169955777483429 106.77186314697553,12.00670919925189 108.4210575504512,11.76706722503719" fill="#FFF3B0"/>
  <polygon points="119.58529805868238,15.696804737627644 120.4517351106889,17.452397958721537 122.38914725719998,17.73392042246443 120.98722265794119,19.100459167262255 121.31817216269542,21.030042839545864 119.58529805868238,20.119017009680647 117.85242395466935,21.030042839545864 118.18337345942358,19.100459167262255 116.78144886016479,17.73392042246443 118.71886100667587,17.452397958721537" fill="#FFF3B0"/>
  <path d="M155 25 A22 22 0 1 1 175 50 A18 18 0 1 0 155 25" fill="#FFE566"/>
  <rect x="35" y="75" width="130" height="50" rx="8" fill="#C9B8E8"/>
  <rect x="45" y="65" width="90" height="20" rx="8" fill="white"/>
  <rect x="40" y="90" width="120" height="30" rx="6" fill="#A0E0E0"/>
  <text x="170" y="75" fill="#E2D9F3" font-size="16" font-weight="bold">z</text>
  <text x="178" y="65" fill="#E2D9F3" font-size="13" font-weight="bold">z</text>
</svg>