<svg xmlns="http://www.w3.org/2000/svg" viewBox="0 0 200 150" width="200" height="150">
  <defs>
    <linearGradient id="bg6182" gradientTransform="rotate(180)">
      <stop offset="0%" style="stop-color:#FFD6D6"/>
      <stop offset="100%" style="stop-color:#FFB3B3"/>
    </linearGradient>
  </defs>
  <rect width="200" height="150" fill="url(#bg6182)" rx="16"/>
  <rect x="0" y="100" width="200" height="50" rx="0" fill="#C5DBC5"/>
  <circle cx="165" cy="35" r="22" fill="#FFE566" opacity="1"/>
  <line x1="191" y1="35" x2="200" y2="35" stroke="#FFF3B0" stroke-width="3" stroke-linecap="round"/>
  <line x1="183.38477631085024" y1="53.384776310850235" x2="189.74873734152916" y2="59.748737341529164" stroke="#FFF3B0" stroke-width="3" stroke-linecap="round"/>
  <line x1="165" y1="61" x2="165" y2="70" stroke="#FFF3B0" stroke-width="3" stroke-linecap="round"/>
  <line x1="146.61522368914976" y1="53.38477631085024" x2="140.25126265847084" y2="59.748737341529164" stroke="#FFF3B0" stroke-width="3" stroke-linecap="round"/>
  <line x1="139" y1="35" x2="130" y2="35.00000000000001" stroke="#FFF3B0" stroke-width="3" stroke-linecap="round"/>
  <line x1="146.61522368914976" y1="16.615223689149765" x2="140.25126265847084" y2="10.25126265847084" stroke="#FFF3B0" stroke-width="3" stroke-linecap="round"/>
  <line x1="165" y1="9" x2="165" y2="0" stroke="#FFF3B0" stroke-width="3" stroke-linecap="round"/>
  <line x1="183.38477631085024" y1="16.61522368914976" x2="189.74873734152916" y2="10.251262658470832" stroke="#FFF3B0" stroke-width="3" stroke-linecap="round"/>
  <rect x="90" y="55" width="14" height="50" rx="2" fill="#8B6914"/>
  <path d="M82.26899472943842,27.630114644696732 Q92.26899472943842,39.63011464469673 82.26899472943842,51.63011464469673 Q72.26899472943842,39.63011464469673 82.26899472943842,27.630114644696732Z" fill="#B7E4C7"/>
  <path d="M93.57441539771662,29.180432236469642 Q103.57441539771662,41.18043223646964 93.57441539771662,53.18043223646964 Q83.57441539771662,41.18043223646964 93.57441539771662,29.180432236469642Z" fill="#95D5B2"/>
  <path d="M101.8618077969877,31.041870395172737 Q111.8618077969877,43.04187039517274 101.8618077969877,55.04187039517274 Q91.8618077969877,43.04187039517274 101.8618077969877,31.041870395172737Z" fill="#B7E4C7"/>
  <path d="M115.9464048013615,32.47316828998737 Q125.9464048013615,44.47316828998737 115.9464048013615,56.47316828998737 Q105.9464048013615,44.47316828998737 115.9464048013615,32.47316828998737Z" fill="#95D5B2"/>
  <path d="M123.72666169638978,24.099119178361434 Q133.72666169638978,36.099119178361434 123.72666169638978,48.099119178361434 Q113.72666169638978,36.099119178361434 123.72666169638978,24.099119178361434Z" fill="#B7E4C7"/>
  <circle cx="45" cy="95" r="8" fill="#FFB3B3" opacity="1"/>
  <circle cx="155" cy="98" r="6" fill="#C9B8E8" opacity="1"/>
</svg>