<svg xmlns="http://www.w3.org/2000/svg" viewBox="0 0 200 150" width="200" height="150">
  <defs>
    <linearGradient id="bg6183" gradientTransform="rotate(90)">
      <stop offset="0%" style="stop-color:#FFF3B0"/>
      <stop offset="100%" style="stop-color:#FFE566"/>
    </linearGradient>
  </defs>
  <rect width="200" height="150" fill="url(#bg6183)" rx="16"/>
  <rect x="0" y="100" width="200" height="50" rx="0" fill="#C5DBC5"/>
  <circle cx="165" cy="35" r="22" fill="#FFE566" opacity="1"/>
  <line x1="191" y1="35" x2="200" y2="35" stroke="#FFF3B0" stroke-width="3" stroke-linecap="round"/>
  <line x1="183.38477631085024" y1="53.384776310850235" x2="189.74873734152916" y2="59.748737341529164" stroke="#FFF3B0" stroke-width="3" stroke-linecap="round"/>
  <line x1="165" y1="61" x2="165" y2="70" stroke="#FFF3B0" stroke-width="3" stroke-linecap="round"/>
  <line x1="146.61522368914976" y1="53.38477631085024" x2="140.25126265847084" y2="59.748737341529164" stroke="#FFF3B0" stroke-width="3" stroke-linecap="round"/>
  <line x1="139" y1="35" x2="130" y2="35.00000000000001" stroke="#FFF3B0" stroke-width="3" stroke-linecap="round"/>
  <line x1="146.61522368914976" y1="16.615223689149765" x2="140.25126265847084" y2="10.25126265847084" stroke="#FFF3B0" stroke-width="3" stroke-linecap="round"/>
  <line x1="165" y1="9" x2="165" y2="0" stroke="#FFF3B0" stroke-width="3" stroke-linecap="round"/>
  <line x1="183.38477631085024" y1="16.61522368914976" x2="189.74873734152916" y2="10.251262658470832" stroke="#FFF3B0" stroke-width="3" stroke-linecap="round"/>
  <rect x="90" y="55" width="14" height="50" rx="2" fill="#8B6914"/>
  <path d="M81.30054899487004,24.465793600627876 Q91.30054899487004,36.465793600627876 81.30054899487004,48.465793600627876 Q71.30054899487004,36.465793600627876 81.30054899487004,24.465793600627876Z" fill="#B7E4C7"/>
  <path d="M90.93066160567105,34.155089191142906 Q100.93066160567105,46.155089191142906 90.93066160567105,58.155089191142906 Q80.93066160567105,46.155089191142906 90.93066160567105,34.155089191142906Z" fill="#95D5B2"/>
  <path d="M105.39374021667754,38.57924143942728 Q115.39374021667754,50.57924143942728 105.39374021667754,62.57924143942728 Q95.39374021667754,50.57924143942728 105.39374021667754,38.57924143942728Z" fill="#B7E4C7"/>
  <path d="M113.458122965043,30.601513513487816 Q123.458122965043,42.60151351348782 113.458122965043,54.60151351348782 Q103.458122965043,42.60151351348782 113.458122965043,30.601513513487816Z" fill="#95D5B2"/>
  <path d="M130.9164117478722,24.06104221802525 Q140.9164117478722,36.06104221802525 130.9164117478722,48.06104221802525 Q120.91641174787219,36.06104221802525 130.9164117478722,24.06104221802525Z" fill="#B7E4C7"/>
  <circle cx="45" cy="95" r="8" fill="#FFB3B3" opacity="1"/>
  <circle cx="155" cy="98" r="6" fill="#C9B8E8" opacity="1"/>
</svg>