<svg xmlns="http://www.w3.org/2000/svg" viewBox="0 0 200 150" width="200" height="150">
  <defs>
    <linearGradient id="bg6184" gradientTransform="rotate(90)">
      <stop offset="0%" style="stop-color:#E8F0E8"/>
      <stop offset="100%" style="stop-color:#C5DBC5"/>
    </linearGradient>
  </defs>
  <rect width="200" height="150" fill="url(#bg6184)" rx="16"/>
  <rect x="0" y="100" width="200" height="50" rx="0" fill="#C5DBC5"/>
  <circle cx="165" cy="35" r="22" fill="#FFE566" opacity="1"/>
  <line x1="191" y1="35" x2="200" y2="35" stroke="#FFF3B0" stroke-width="3" stroke-linecap="round"/>
  <line x1="183.38477631085024" y1="53.384776310850235" x2="189.74873734152916" y2="59.748737341529164" stroke="#FFF3B0" stroke-width="3" stroke-linecap="round"/>
  <line x1="165" y1="61" x2="165" y2="70" stroke="#FFF3B0" stroke-width="3" stroke-linecap="round"/>
  <line x1="146.61522368914976" y1="53.38477631085024" x2="140.25126265847084" y2="59.748737341529164" stroke="#FFF3B0" stroke-width="3" stroke-linecap="round"/>
  <line x1="139" y1="35" x2="130" y2="35.00000000000001" stroke="#FFF3B0" stroke-width="3" stroke-linecap="round"/>
  <line x1="146.61522368914976" y1="16.615223689149765" x2="140.25126265847084" y2="10.25126265847084" stroke="#FFF3B0" stroke-width="3" stroke-linecap="round"/>
  <line x1="165" y1="9" x2="165" y2="0" stroke="#FFF3B0" stroke-width="3" stroke-linecap="round"/>
  <line x1="183.38477631085024" y1="16.61522368914976" x2="189.74873734152916" y2="10.251262658470832" stroke="#FFF3B0" stroke-width="3" stroke-linecap="round"/>
  <rect x="90" y="55" width="14" height="50" rx="2" fill="#8B6914"/>
  <path d="M75.04791768594441,40.851891211030306 Q85.04791768594441,52.851891211030306 75.04791768594441,64.8518912110303 Q65.04791768594441,52.851891211030306 75.04791768594441,40.851891211030306Z" fill="#B7E4C7"/>
  <path d="M87.8079109627688,36.00601343060407 Q97.8079109627688,48.00601343060407 87.8079109627688,60.00601343060407 Q77.8079109627688,48.00601343060407 87.8079109627688,36.00601343060407Z" fill="#95D5B2"/>
  <path d="M106.30342465308786,33.6054700490472 Q116.30342465308786,45.6054700490472 106.30342465308786,57.6054700490472 Q96.30342465308786,45.6054700490472 106.30342465308786,33.6054700490472Z" fill="#B7E4C7"/>
  <path d="M113.2697008460691,36.29508282306051 Q123.2697008460691,48.29508282306051 113.2697008460691,60.29508282306051 Q103.2697008460691,48.29508282306051 113.2697008460691,36.29508282306051Z" fill="#95D5B2"/>
  <path d="M127.17183026263228,24.484958956674518 Q137.17183026263228,36.48495895667452 127.17183026263228,48.48495895667452 Q117.17183026263228,36.48495895667452 127.17183026263228,24.484958956674518Z" fill="#B7E4C7"/>
  <circle cx="45" cy="95" r="8" fill="#FFB3B3" opacity="1"/>
  <circle cx="155" cy="98" r="6" fill="#C9B8E8" opacity="1"/>
</svg>