<svg xmlns="http://www.w3.org/2000/svg" viewBox="0 0 200 150" width="200" height="150">
  <defs>
    <linearGradient id="bg6185" gradientTransform="rotate(45)">
      <stop offset="0%" style="stop-color:#FFD6D6"/>
      <stop offset="100%" style="stop-color:#FFB3B3"/>
    </linearGradient>
  </defs>
  <rect width="200" height="150" fill="url(#bg6185)" rx="16"/>
  <rect x="0" y="100" width="200" height="50" rx="0" fill="#C5DBC5"/>
  <circle cx="165" cy="35" r="22" fill="#FFE566" opacity="1"/>
  <line x1="191" y1="35" x2="200" y2="35" stroke="#FFF3B0" stroke-width="3" stroke-linecap="round"/>
  <line x1="183.38477631085024" y1="53.384776310850235" x2="189.74873734152916" y2="59.748737341529164" stroke="#FFF3B0" stroke-width="3" stroke-linecap="round"/>
  <line x1="165" y1="61" x2="165" y2="70" stroke="#FFF3B0" stroke-width="3" stroke-linecap="round"/>
  <line x1="146.61522368914976" y1="53.38477631085024" x2="140.25126265847084" y2="59.748737341529164" stroke="#FFF3B0" stroke-width="3" stroke-linecap="round"/>
  <line x1="139" y1="35" x2="130" y2="35.00000000000001" stroke="#FFF3B0" stroke-width="3" stroke-linecap="round"/>
  <line x1="146.61522368914976" y1="16.615223689149765" x2="140.25126265847084" y2="10.25126265847084" stroke="#FFF3B0" stroke-width="3" stroke-linecap="round"/>
  <line x1="165" y1="9" x2="165" y2="0" stroke="#FFF3B0" stroke-width="3" stroke-linecap="round"/>
  <line x1="183.38477631085024" y1="16.61522368914976" x2="189.74873734152916" y2="10.251262658470832" stroke="#FFF3B0" stroke-width="3" stroke-linecap="round"/>
  <rect x="90" y="55" width="14" height="50" rx="2" fill="#8B6914"/>
  <path d="M76.1655045290463,42.835346442778246 Q86.1655045290463,54.835346442778246 76.1655045290463,66.83534644277825 Q66.1655045290463,54.835346442778246 76.1655045290463,42.835346442778246Z" fill="#B7E4C7"/>
  <path d="M91.99309362187341,26.788190432860574 Q101.99309362187341,38.788190432860574 91.99309362187341,50.788190432860574 Q81.99309362187341,38.788190432860574 91.99309362187341,26.788190432860574Z" fill="#95D5B2"/>
  <path d="M101.3928839810942,37.07052786104032 Q111.3928839810942,49.07052786104032 101.3928839810942,61.07052786104032 Q91.3928839810942,49.07052786104032 101.3928839810942,37.07052786104032Z" fill="#B7E4C7"/>
  <path d="M111.22298954208964,37.599546223580546 Q121.22298954208964,49.599546223580546 111.22298954208964,61.599546223580546 Q101.22298954208964,49.599546223580546 111.22298954208964,37.599546223580546Z" fill="#95D5B2"/>
  <path d="M128.4585480222304,33.20611091567844 Q138.4585480222304,45.20611091567844 128.4585480222304,57.20611091567844 Q118.45854802223039,45.20611091567844 128.4585480222304,33.20611091567844Z" fill="#B7E4C7"/>
  <circle cx="45" cy="95" r="8" fill="#FFB3B3" opacity="1"/>
  <circle cx="155" cy="98" r="6" fill="#C9B8E8" opacity="1"/>
</svg>