<svg xmlns="http://www.w3.org/2000/svg" viewBox="0 0 200 150" width="200" height="150">
  <defs>
    <linearGradient id="bg6186" gradientTransform="rotate(180)">
      <stop offset="0%" style="stop-color:#FFE4EC"/>
      <stop offset="100%" style="stop-color:#FFC8DD"/>
    </linearGradient>
  </defs>
  <rect width="200" height="150" fill="url(#bg6186)" rx="16"/>
  <rect x="0" y="100" width="200" height="50" rx="0" fill="#C5DBC5"/>
  <circle cx="165" cy="35" r="22" fill="#FFE566" opacity="1"/>
  <line x1="191" y1="35" x2="200" y2="35" stroke="#FFF3B0" stroke-width="3" stroke-linecap="round"/>
  <line x1="183.38477631085024" y1="53.384776310850235" x2="189.74873734152916" y2="59.748737341529164" stroke="#FFF3B0" stroke-width="3" stroke-linecap="round"/>
  <line x1="165" y1="61" x2="165" y2="70" stroke="#FFF3B0" stroke-width="3" stroke-linecap="round"/>
  <line x1="146.61522368914976" y1="53.38477631085024" x2="140.25126265847084" y2="59.748737341529164" stroke="#FFF3B0" stroke-width="3" stroke-linecap="round"/>
  <line x1="139" y1="35" x2="130" y2="35.00000000000001" stroke="#FFF3B0" stroke-width="3" stroke-linecap="round"/>
  <line x1="146.61522368914976" y1="16.615223689149765" x2="140.25126265847084" y2="10.25126265847084" stroke="#FFF3B0" stroke-width="3" stroke-linecap="round"/>
  <line x1="165" y1="9" x2="165" y2="0" stroke="#FFF3B0" stroke-width="3" stroke-linecap="round"/>
  <line x1="183.38477631085024" y1="16.61522368914976" x2="189.74873734152916" y2="10.251262658470832" stroke="#FFF3B0" stroke-width="3" stroke-linecap="round"/>
  <rect x="90" y="55" width="14" height="50" rx="2" fill="#8B6914"/>
  <path d="M82.24273532060033,39.86302148402319 Q92.24273532060033,51.86302148402319 82.24273532060033,63.86302148402319 Q72.24273532060033,51.86302148402319 82.24273532060033,39.86302148402319Z" fill="#B7E4C7"/>
  <path d="M91.00265137014503,36.34526039314369 Q101.00265137014503,48.34526039314369 91.00265137014503,60.34526039314369 Q81.00265137014503,48.34526039314369 91.00265137014503,36.34526039314369Z" fill="#95D5B2"/>
  <path d="M102.50831214273057,26.800298007809033 Q112.50831214273057,38.80029800780903 102.50831214273057,50.80029800780903 Q92.50831214273057,38.80029800780903 102.50831214273057,26.800298007809033Z" fill="#B7E4C7"/>
  <path d="M111.72078163726837,26.46754033696925 Q121.72078163726837,38.46754033696925 111.72078163726837,50.46754033696925 Q101.72078163726837,38.46754033696925 111.72078163726837,26.46754033696925Z" fill="#95D5B2"/>
  <path d="M129.12089761347488,33.285593205917394 Q139.12089761347488,45.285593205917394 129.12089761347488,57.285593205917394 Q119.12089761347488,45.285593205917394 129.12089761347488,33.285593205917394Z" fill="#B7E4C7"/>
  <circle cx="45" cy="95" r="8" fill="#FFB3B3" opacity="1"/>
  <circle cx="155" cy="98" r="6" fill="#C9B8E8" opacity="1"/>
</svg>