<svg xmlns="http://www.w3.org/2000/svg" viewBox="0 0 200 150" width="200" height="150">
  <defs>
    <linearGradient id="bg6189" gradientTransform="rotate(90)">
      <stop offset="0%" style="stop-color:#FFF5EB"/>
      <stop offset="100%" style="stop-color:#FFE4CC"/>
    </linearGradient>
  </defs>
  <rect width="200" height="150" fill="url(#bg6189)" rx="16"/>
  <rect x="0" y="100" width="200" height="50" rx="0" fill="#C5DBC5"/>
  <circle cx="165" cy="35" r="22" fill="#FFE566" opacity="1"/>
  <line x1="191" y1="35" x2="200" y2="35" stroke="#FFF3B0" stroke-width="3" stroke-linecap="round"/>
  <line x1="183.38477631085024" y1="53.384776310850235" x2="189.74873734152916" y2="59.748737341529164" stroke="#FFF3B0" stroke-width="3" stroke-linecap="round"/>
  <line x1="165" y1="61" x2="165" y2="70" stroke="#FFF3B0" stroke-width="3" stroke-linecap="round"/>
  <line x1="146.61522368914976" y1="53.38477631085024" x2="140.25126265847084" y2="59.748737341529164" stroke="#FFF3B0" stroke-width="3" stroke-linecap="round"/>
  <line x1="139" y1="35" x2="130" y2="35.00000000000001" stroke="#FFF3B0" stroke-width="3" stroke-linecap="round"/>
  <line x1="146.61522368914976" y1="16.615223689149765" x2="140.25126265847084" y2="10.25126265847084" stroke="#FFF3B0" stroke-width="3" stroke-linecap="round"/>
  <line x1="165" y1="9" x2="165" y2="0" stroke="#FFF3B0" stroke-width="3" stroke-linecap="round"/>
  <line x1="183.38477631085024" y1="16.61522368914976" x2="189.74873734152916" y2="10.251262658470832" stroke="#FFF3B0" stroke-width="3" stroke-linecap="round"/>
  <rect x="90" y="55" width="14" height="50" rx="2" fill="#8B6914"/>
  <path d="M75.6923496849522,34.3486748768355 Q85.6923496849522,46.3486748768355 75.6923496849522,58.3486748768355 Q65.6923496849522,46.3486748768355 75.6923496849522,34.3486748768355Z" fill="#B7E4C7"/>
  <path d="M94.28785093009355,26.354584711414645 Q104.28785093009355,38.354584711414645 94.28785093009355,50.354584711414645 Q84.28785093009355,38.354584711414645 94.28785093009355,26.354584711414645Z" fill="#95D5B2"/>
  <path d="M99.00944260502001,39.65445501435897 Q109.00944260502001,51.65445501435897 99.00944260502001,63.65445501435897 Q89.00944260502001,51.65445501435897 99.00944260502001,39.65445501435897Z" fill="#B7E4C7"/>
  <path d="M118.6918499290914,30.334570578614148 Q128.6918499290914,42.33457057861415 118.6918499290914,54.33457057861415 Q108.6918499290914,42.33457057861415 118.6918499290914,30.334570578614148Z" fill="#95D5B2"/>
  <path d="M128.82238524223794,28.9867894840977 Q138.82238524223794,40.9867894840977 128.82238524223794,52.9867894840977 Q118.82238524223794,40.9867894840977 128.82238524223794,28.9867894840977Z" fill="#B7E4C7"/>
  <circle cx="45" cy="95" r="8" fill="#FFB3B3" opacity="1"/>
  <circle cx="155" cy="98" r="6" fill="#C9B8E8" opacity="1"/>
</svg>