<svg xmlns="http://www.w3.org/2000/svg" viewBox="0 0 200 150" width="200" height="150">
  <defs>
    <linearGradient id="bg62184" gradientTransform="rotate(135)">
      <stop offset="0%" style="stop-color:#D8F3DC"/>
      <stop offset="100%" style="stop-color:#B7E4C7"/>
    </linearGradient>
  </defs>
  <rect width="200" height="150" fill="url(#bg62184)" rx="16"/>
  <circle cx="59.673389508679975" cy="83.2585406720682" r="4.293723733369916" fill="#D8F3DC" opacity="0.3"/><circle cx="117.56808585450926" cy="56.47887646385925" r="2.2878057147026993" fill="#D8F3DC" opacity="0.3"/><circle cx="59.24375019985746" cy="10.727843789027247" r="4.599256391400559" fill="#D8F3DC" opacity="0.3"/><circle cx="152.49326821258364" cy="148.2671957801358" r="4.90420742443348" fill="#D8F3DC" opacity="0.3"/><circle cx="103.95005510599731" cy="88.26964066054188" r="4.001889136139312" fill="#D8F3DC" opacity="0.3"/><circle cx="26.325053395021314" cy="71.68802899407183" r="4.52665559635625" fill="#D8F3DC" opacity="0.3"/>
  <circle cx="100" cy="75" r="48" fill="#FFE5D9" opacity="1"/>
  <circle cx="80" cy="68" r="8" fill="#333" opacity="1"/>
  <circle cx="120" cy="68" r="8" fill="#333" opacity="1"/>
  <circle cx="78" cy="65" r="3" fill="white" opacity="1"/>
  <circle cx="118" cy="65" r="3" fill="white" opacity="1"/>
  <path d="M72 92 Q100 115 128 92" stroke="#333" stroke-width="4" fill="none" stroke-linecap="round"/>
  <ellipse cx="60" cy="82" rx="12" ry="7" fill="#FFB3B3" opacity="0.4"/>
  <ellipse cx="140" cy="82" rx="12" ry="7" fill="#FFB3B3" opacity="0.4"/>
  <path d="M45,42.25 C39,37 42,34 45,37.75 C48,34 51,37 45,42.25Z" fill="#FFB3B3"/>
  <path d="M160,46.8 C155.2,42.6 157.6,40.2 160,43.2 C162.4,40.2 164.8,42.6 160,46.8Z" fill="#FFD6D6"/>
</svg>