<svg xmlns="http://www.w3.org/2000/svg" viewBox="0 0 200 150" width="200" height="150">
  <defs>
    <linearGradient id="bg62303" gradientTransform="rotate(45)">
      <stop offset="0%" style="stop-color:#E2D9F3"/>
      <stop offset="100%" style="stop-color:#C9B8E8"/>
    </linearGradient>
  </defs>
  <rect width="200" height="150" fill="url(#bg62303)" rx="16"/>
  <circle cx="173.94736230453418" cy="117.68182494620305" r="2.8772910808684173" fill="#E2D9F3" opacity="0.3"/><circle cx="20.758688815840287" cy="44.06667093580836" r="4.2501192869574425" fill="#E2D9F3" opacity="0.3"/><circle cx="122.10949040636478" cy="115.06197631533723" r="2.6903730710982927" fill="#E2D9F3" opacity="0.3"/><circle cx="185.97688345726056" cy="1.6928565273246932" r="2.4490607523166545" fill="#E2D9F3" opacity="0.3"/><circle cx="116.034852195844" cy="145.16219360948526" r="2.0569931179561536" fill="#E2D9F3" opacity="0.3"/><circle cx="123.99375005043112" cy="144.14306890648731" r="4.537492458749512" fill="#E2D9F3" opacity="0.3"/>
  <circle cx="100" cy="75" r="48" fill="#FFE5D9" opacity="1"/>
  <circle cx="80" cy="68" r="8" fill="#333" opacity="1"/>
  <circle cx="120" cy="68" r="8" fill="#333" opacity="1"/>
  <circle cx="78" cy="65" r="3" fill="white" opacity="1"/>
  <circle cx="118" cy="65" r="3" fill="white" opacity="1"/>
  <path d="M72 92 Q100 115 128 92" stroke="#333" stroke-width="4" fill="none" stroke-linecap="round"/>
  <ellipse cx="60" cy="82" rx="12" ry="7" fill="#FFB3B3" opacity="0.4"/>
  <ellipse cx="140" cy="82" rx="12" ry="7" fill="#FFB3B3" opacity="0.4"/>
  <path d="M45,42.25 C39,37 42,34 45,37.75 C48,34 51,37 45,42.25Z" fill="#FFB3B3"/>
  <path d="M160,46.8 C155.2,42.6 157.6,40.2 160,43.2 C162.4,40.2 164.8,42.6 160,46.8Z" fill="#FFD6D6"/>
</svg>