<svg xmlns="http://www.w3.org/2000/svg" viewBox="0 0 200 150" width="200" height="150">
  <defs>
    <linearGradient id="bg62683" gradientTransform="rotate(180)">
      <stop offset="0%" style="stop-color:#F0F7FF"/>
      <stop offset="100%" style="stop-color:#DCE8F5"/>
    </linearGradient>
  </defs>
  <rect width="200" height="150" fill="url(#bg62683)" rx="16"/>
  <rect x="0" y="0" width="200" height="150" rx="0" fill="#1a1a3e"/>
  <polygon points="38.44474694229575,20.982431962660485 39.84829592248413,23.826332820069137 42.98672685193583,24.28237352835995 40.71573689711579,26.496041627164278 41.251844902672495,29.62179114255023 38.44474694229575,28.14601241001401 35.63764898191901,29.62179114255023 36.17375698747571,26.496041627164278 33.902767032655674,24.282373528359948 37.041197962107375,23.826332820069137" fill="#FFF3B0"/>
  <polygon points="19.82933325549311,40.08358817169392 21.282196815986556,43.027411282755246 24.530898499282273,43.49947526949864 22.180115877387692,45.790921995745386 22.73506037648,49.026496695478905 19.82933325549311,47.49886554464774 16.923606134506226,49.026496695478905 17.47855063359853,45.790921995745386 15.12776801170395,43.49947526949863 18.376469694999667,43.027411282755246" fill="#FFF3B0"/>
  <polygon points="145.64114071428776,50.950184639011695 146.52213007977673,52.735264067836304 148.4920821884645,53.021514864855405 147.06661145137613,54.41100542150637 147.40311944526573,56.37299757219553 145.64114071428776,55.44667053442822 143.87916198330979,56.37299757219553 144.21566997719938,54.41100542150637 142.790199240111,53.021514864855405 144.7601513487988,52.735264067836304" fill="#FFF3B0"/>
  <polygon points="24.04419944883557,14.11297166636632 25.28821456034202,16.633621598916374 28.069916914707427,17.037826611056193 26.0570581817715,18.999878955252075 26.532229671848473,21.770341323727603 24.04419944883557,20.462306427597014 21.556169225822668,21.770341323727603 22.031340715899642,18.999878955252075 20.018481982963714,17.037826611056193 22.80018433732912,16.633621598916374" fill="#FFF3B0"/>
  <polygon points="61.901171512166684,17.38527377375067 63.17789232493632,19.972192695254744 66.03272685057802,20.387024433914085 63.96694918137235,22.400659992203163 64.45461313770596,25.243959027810924 61.901171512166684,23.90153532228487 59.347729886627405,25.243959027810924 59.83539384296102,22.400659992203163 57.76961617375535,20.387024433914082 60.624450699397045,19.972192695254744" fill="#FFF3B0"/>
  <polygon points="165.7388308436748,27.932533646261618 166.93765212352952,30.361610873905658 169.618297998158,30.7511315199936 167.6785644209164,32.64190445406392 168.13647340338426,35.31171868031013 165.7388308436748,34.05120339092991 163.34118828396535,35.31171868031013 163.79909726643322,32.641904454063926 161.8593636891916,30.7511315199936 164.5400095638201,30.361610873905658" fill="#FFF3B0"/>
  <polygon points="85.1261624207109,39.522902000899194 86.49817473260185,42.3029025888646 89.56608752795668,42.748696412472015 87.34612497433379,44.91262508818674 87.87018704449281,47.96814141111631 85.1261624207109,46.525522293973154 82.38213779692899,47.96814141111631 82.906199867088,44.91262508818674 80.68623731346511,42.748696412472015 83.75415010881994,42.3029025888646" fill="#FFF3B0"/>
  <polygon points="40.2100347254418,32.337222240910705 41.54667465091773,35.04555054563254 44.535492385722165,35.47985118419095 42.37276355558198,37.58799076776084 42.88331457639366,40.56473162844756 40.2100347254418,39.159305239400965 37.536754874489944,40.56473162844756 38.04730589530162,37.58799076776084 35.88457706516144,35.47985118419095 38.87339479996587,35.04555054563254" fill="#FFF3B0"/>
  <polygon points="71.60125411673107,20.689298306415367 72.94940280778326,23.420945917233404 75.9639549247533,23.858985980406867 73.78260452074218,25.985277112353323 74.29755149883543,28.987648370646713 71.60125411673107,27.570120949349075 68.90495673462671,28.987648370646713 69.41990371271996,25.985277112353323 67.23855330870884,23.858985980406867 70.25310542567888,23.420945917233404" fill="#FFF3B0"/>
  <polygon points="95.98531283811099,50.796133090285366 96.75397947960525,52.35362182182473 98.47277034202287,52.60337675348341 97.22904159006693,53.81571265832838 97.5226461210995,55.52755842649072 95.98531283811099,54.719334489927405 94.44797955512247,55.52755842649072 94.74158408615504,53.81571265832838 93.4978553341991,52.60337675348341 95.21664619661672,52.35362182182473" fill="#FFF3B0"/>
  <path d="M155 25 A22 22 0 1 1 175 50 A18 18 0 1 0 155 25" fill="#FFE566"/>
  <rect x="35" y="75" width="130" height="50" rx="8" fill="#C9B8E8"/>
  <rect x="45" y="65" width="90" height="20" rx="8" fill="white"/>
  <rect x="40" y="90" width="120" height="30" rx="6" fill="#DCE8F5"/>
  <text x="170" y="75" fill="#E2D9F3" font-size="16" font-weight="bold">z</text>
  <text x="178" y="65" fill="#E2D9F3" font-size="13" font-weight="bold">z</text>
</svg>