<svg xmlns="http://www.w3.org/2000/svg" viewBox="0 0 200 150" width="200" height="150">
  <defs>
    <linearGradient id="bg6269" gradientTransform="rotate(45)">
      <stop offset="0%" style="stop-color:#E8F0E8"/>
      <stop offset="100%" style="stop-color:#C5DBC5"/>
    </linearGradient>
  </defs>
  <rect width="200" height="150" fill="url(#bg6269)" rx="16"/>
  <circle cx="63.49664286385632" cy="24.94103171432016" r="2.398440259463314" fill="#E8F0E8" opacity="0.3"/><circle cx="73.35248225964506" cy="112.8523632928136" r="2.5965750204277356" fill="#E8F0E8" opacity="0.3"/><circle cx="100.54907912162889" cy="111.2620216630603" r="3.362319963461232" fill="#E8F0E8" opacity="0.3"/><circle cx="170.43834080177476" cy="104.93308008162785" r="4.097343388241825" fill="#E8F0E8" opacity="0.3"/><circle cx="106.25904642238311" cy="79.0973280023536" r="2.313356908526657" fill="#E8F0E8" opacity="0.3"/><circle cx="156.58761206323106" cy="40.70277194725804" r="4.07768028463056" fill="#E8F0E8" opacity="0.3"/>
  <ellipse cx="100" cy="95" rx="32" ry="28" fill="#C5DBC5" opacity="1"/>
  <circle cx="100" cy="58" r="28" fill="#C5DBC5" opacity="1"/>
  <ellipse cx="82" cy="25" rx="10" ry="24" fill="#C5DBC5" opacity="1"/>
  <ellipse cx="118" cy="25" rx="10" ry="24" fill="#C5DBC5" opacity="1"/>
  <ellipse cx="82" cy="27" rx="5" ry="15" fill="#FFD6D6" opacity="1"/>
  <ellipse cx="118" cy="27" rx="5" ry="15" fill="#FFD6D6" opacity="1"/>
  <circle cx="88" cy="52" r="5" fill="#333" opacity="1"/>
  <circle cx="112" cy="52" r="5" fill="#333" opacity="1"/>
  <circle cx="86" cy="50" r="2" fill="white" opacity="1"/>
  <circle cx="110" cy="50" r="2" fill="white" opacity="1"/>
  <ellipse cx="100" cy="68" rx="6" ry="4" fill="#FFB3B3" opacity="1"/>
  <path d="M50,46.8 C45.2,42.6 47.6,40.2 50,43.2 C52.4,40.2 54.8,42.6 50,46.8Z" fill="#FFB3B3"/>
  <path d="M155,51.5 C151,48 153,46 155,48.5 C157,46 159,48 155,51.5Z" fill="#FFD6D6"/>
</svg>