<svg xmlns="http://www.w3.org/2000/svg" viewBox="0 0 200 150" width="200" height="150">
  <defs>
    <linearGradient id="bg63127" gradientTransform="rotate(45)">
      <stop offset="0%" style="stop-color:#FFE4EC"/>
      <stop offset="100%" style="stop-color:#FFC8DD"/>
    </linearGradient>
  </defs>
  <rect width="200" height="150" fill="url(#bg63127)" rx="16"/>
  <circle cx="142.64805271195655" cy="42.86603453274438" r="3.7029016786282227" fill="#FFE4EC" opacity="0.3"/><circle cx="174.76294106749037" cy="54.13834643700284" r="3.7526891900670307" fill="#FFE4EC" opacity="0.3"/><circle cx="73.40657031418232" cy="43.28628600842421" r="4.27008339038548" fill="#FFE4EC" opacity="0.3"/><circle cx="81.95164833232411" cy="65.69308380951497" r="2.2071884213991098" fill="#FFE4EC" opacity="0.3"/><circle cx="161.20823903493147" cy="129.27587443400625" r="2.758295453957544" fill="#FFE4EC" opacity="0.3"/><circle cx="183.493172411454" cy="55.45404001086354" r="4.59673038234223" fill="#FFE4EC" opacity="0.3"/>
  <circle cx="100" cy="75" r="48" fill="#FFE5D9" opacity="1"/>
  <circle cx="80" cy="68" r="8" fill="#333" opacity="1"/>
  <circle cx="120" cy="68" r="8" fill="#333" opacity="1"/>
  <circle cx="78" cy="65" r="3" fill="white" opacity="1"/>
  <circle cx="118" cy="65" r="3" fill="white" opacity="1"/>
  <path d="M72 92 Q100 115 128 92" stroke="#333" stroke-width="4" fill="none" stroke-linecap="round"/>
  <ellipse cx="60" cy="82" rx="12" ry="7" fill="#FFB3B3" opacity="0.4"/>
  <ellipse cx="140" cy="82" rx="12" ry="7" fill="#FFB3B3" opacity="0.4"/>
  <path d="M45,42.25 C39,37 42,34 45,37.75 C48,34 51,37 45,42.25Z" fill="#FFB3B3"/>
  <path d="M160,46.8 C155.2,42.6 157.6,40.2 160,43.2 C162.4,40.2 164.8,42.6 160,46.8Z" fill="#FFD6D6"/>
</svg>