<svg xmlns="http://www.w3.org/2000/svg" viewBox="0 0 200 150" width="200" height="150">
  <defs>
    <linearGradient id="bg6313" gradientTransform="rotate(135)">
      <stop offset="0%" style="stop-color:#D4E9FF"/>
      <stop offset="100%" style="stop-color:#A8D0F0"/>
    </linearGradient>
  </defs>
  <rect width="200" height="150" fill="url(#bg6313)" rx="16"/>
  <ellipse cx="50" cy="55" rx="40" ry="25" fill="#D4E9FF" opacity="0.7"/>
  <ellipse cx="100" cy="45" rx="50" ry="30" fill="#E2D9F3" opacity="0.6"/>
  <ellipse cx="155" cy="60" rx="45" ry="28" fill="#A8D0F0" opacity="0.5"/>
  <ellipse cx="70" cy="85" rx="35" ry="22" fill="#D4E9FF" opacity="0.4"/>
  <ellipse cx="140" cy="90" rx="40" ry="25" fill="#D4E9FF" opacity="0.5"/>
  <path d="M100,104.2 C88.8,94.4 94.4,88.8 100,95.8 C105.6,88.8 111.2,94.4 100,104.2Z" fill="#FFB3B3"/>
  <polygon points="45,25 47.93892626146236,30.954915028125264 54.510565162951536,31.909830056250527 49.75528258147577,36.545084971874736 50.877852522924734,43.09016994374947 45,40 39.12214747707527,43.09016994374947 40.24471741852423,36.545084971874736 35.489434837048464,31.909830056250524 42.06107373853764,30.954915028125264" fill="#FFF3B0"/>
  <polygon points="160,32 162.35114100916988,36.763932022500214 167.60845213036123,37.52786404500042 163.80422606518061,41.236067977499786 164.7022820183398,46.47213595499958 160,44 155.2977179816602,46.47213595499958 156.19577393481939,41.23606797749979 152.39154786963877,37.52786404500042 157.64885899083012,36.763932022500214" fill="#FFF3B0"/>
</svg>