<svg xmlns="http://www.w3.org/2000/svg" viewBox="0 0 200 150" width="200" height="150">
  <defs>
    <linearGradient id="bg63303" gradientTransform="rotate(135)">
      <stop offset="0%" style="stop-color:#FFD6D6"/>
      <stop offset="100%" style="stop-color:#FFB3B3"/>
    </linearGradient>
  </defs>
  <rect width="200" height="150" fill="url(#bg63303)" rx="16"/>
  <circle cx="60.067383072237135" cy="6.251519468696642" r="3.3425431262348866" fill="#FFD6D6" opacity="0.3"/><circle cx="34.85793465479219" cy="21.636973747763477" r="4.540513984838981" fill="#FFD6D6" opacity="0.3"/><circle cx="73.69529810057429" cy="15.052075636231166" r="3.744364999874506" fill="#FFD6D6" opacity="0.3"/><circle cx="126.78489144727791" cy="148.4190658152329" r="2.741501849201086" fill="#FFD6D6" opacity="0.3"/><circle cx="93.88261196727399" cy="12.136223515972233" r="4.735182443007034" fill="#FFD6D6" opacity="0.3"/><circle cx="106.90319388681928" cy="79.58181945705292" r="2.5040373719884883" fill="#FFD6D6" opacity="0.3"/>
  <circle cx="60" cy="80" r="28" fill="#FFB3B3" opacity="1"/>
  <circle cx="140" cy="80" r="28" fill="#B7E4C7" opacity="1"/>
  <path d="M88 80 L112 80" stroke="#FF9999" stroke-width="10" stroke-linecap="round"/>
  <path d="M92 74 L108 74" stroke="#FF9999" stroke-width="5" stroke-linecap="round"/>
  <path d="M92 86 L108 86" stroke="#FF9999" stroke-width="5" stroke-linecap="round"/>
  <path d="M100,43 C92,36 96,32 100,37 C104,32 108,36 100,43Z" fill="#FFB3B3"/>
  <polygon points="22.5,44.5 24.851141009169893,49.263932022500214 30.10845213036123,50.02786404500042 26.304226065180615,53.736067977499786 27.202282018339787,58.97213595499958 22.5,56.5 17.797717981660217,58.97213595499958 18.695773934819385,53.73606797749979 14.89154786963877,50.02786404500042 20.148858990830107,49.263932022500214" fill="#FFF3B0"/><polygon points="37.46180360259891,12.512972745900807 40.400729864061276,18.46788777402607 46.97236876555045,19.422802802151335 42.21708618407468,24.058057717775544 43.339656125523646,30.603142689650284 37.46180360259891,27.512972745900807 31.583951079674183,30.603142689650284 32.706521021123145,24.058057717775544 27.951238439647376,19.42280280215133 34.52287734113655,18.46788777402607" fill="#FFF3B0"/><polygon points="-1.4731068665784612,40.44813145534826 2.053604647176377,47.594029489098574 9.93957132896338,48.739927522848895 4.233232231192459,54.30223342159795 5.580316160931216,62.15633538784763 -1.4731068665784615,58.44813145534826 -8.526529894088139,62.15633538784763 -7.179445964349383,54.30223342159795 -12.885785062120304,48.73992752284889 -4.999818380333301,47.594029489098574" fill="#FFF3B0"/><polygon points="45.949999419368474,8.61662011821095 50.064496185415784,16.953501157586317 59.264790647500625,18.290382196961687 52.60739503343455,24.779739078835583 54.1789929514631,33.94285803946021 45.949999419368474,29.61662011821095 37.721005887273854,33.94285803946021 39.2926038053024,24.779739078835583 32.63520819123632,18.29038219696168 41.835502653321164,16.953501157586317" fill="#FFF3B0"/>
  <polygon points="100,108 103.52671151375483,115.14589803375031 111.41267819554184,116.29179606750063 105.70633909777092,121.85410196624969 107.05342302750968,129.70820393249937 100,126 92.94657697249032,129.70820393249937 94.29366090222908,121.85410196624969 88.58732180445816,116.29179606750063 96.47328848624517,115.14589803375031" fill="#FFE566"/>
</svg>