<svg xmlns="http://www.w3.org/2000/svg" viewBox="0 0 200 150" width="200" height="150">
  <defs>
    <linearGradient id="bg63336" gradientTransform="rotate(135)">
      <stop offset="0%" style="stop-color:#FFE5D9"/>
      <stop offset="100%" style="stop-color:#FFCDB2"/>
    </linearGradient>
  </defs>
  <rect width="200" height="150" fill="url(#bg63336)" rx="16"/>
  <rect x="0" y="0" width="200" height="150" rx="0" fill="#1a1a3e"/>
  <polygon points="39.95811222240263,40.88336897206045 40.792977801349444,42.57499140155996 42.659793987949236,42.84625567186667 41.30895310517594,44.16300009973575 41.62784338029626,46.02227306821824 39.95811222240263,45.14444344963886 38.288381064509004,46.02227306821824 38.60727133962933,44.16300009973575 37.25643045685603,42.84625567186667 39.12324664345582,42.57499140155996" fill="#FFF3B0"/>
  <polygon points="117.89079968719307,15.404836994681318 118.6627884935727,16.96905716751653 120.38900794250651,17.219891535980608 119.13990381484979,18.437467137145084 119.43477729995234,20.156711475237714 117.89079968719307,19.34499440779473 116.34682207443379,20.156711475237714 116.64169555953634,18.437467137145084 115.39259143187962,17.219891535980608 117.11881088081343,16.96905716751653" fill="#FFF3B0"/>
  <polygon points="119.79786463617529,46.42531003372824 121.18012720275891,49.226079906214935 124.2709602643932,49.675204239463405 122.03441245028424,51.85529954857536 122.56238976934252,54.93364352418424 119.79786463617529,53.48024665144294 117.03333950300807,54.93364352418424 117.56131682206635,51.85529954857536 115.32476900795739,49.6752042394634 118.41560206959167,49.226079906214935" fill="#FFF3B0"/>
  <polygon points="59.92425753606767,14.294896126061758 60.528363317362135,15.518948135389046 61.87918490993717,15.715234002339786 60.90172122300242,16.668025615052393 61.13246909865659,18.01338896166648 59.92425753606767,17.378194553191406 58.71604597347875,18.01338896166648 58.94679384913292,16.668025615052393 57.96933016219817,15.715234002339784 59.32015175477321,15.518948135389046" fill="#FFF3B0"/>
  <polygon points="78.08845613020367,28.073091143562124 79.52422524847513,30.982277131460524 82.73470259692509,31.44878679722988 80.41157936356437,33.71327228311539 80.95999436674661,36.9107771005396 78.08845613020367,35.40112010994926 75.21691789366072,36.9107771005396 75.76533289684296,33.71327228311539 73.44220966348225,31.448786797229875 76.6526870119322,30.982277131460524" fill="#FFF3B0"/>
  <polygon points="164.09957943746525,27.433810446113966 165.5261490441291,30.324356187524433 168.71605565926467,30.787876750776757 166.40781754836496,33.03785282825701 166.952718650793,36.21487003224191 164.09957943746525,34.714885980588406 161.2464402241375,36.21487003224191 161.79134132656554,33.03785282825701 159.48310321566584,30.787876750776753 162.6730098308014,30.324356187524433" fill="#FFF3B0"/>
  <polygon points="56.75560112846142,24.090059806889712 58.11645289922544,26.847446668559808 61.15940996595475,27.289614212534467 58.957505547208086,29.435940557153646 59.477304669989465,32.46660198972214 56.75560112846142,31.035717759976023 54.033897586933385,32.46660198972214 54.55369670971476,29.435940557153646 52.35179229096809,27.289614212534463 55.3947493576974,26.847446668559808" fill="#FFF3B0"/>
  <polygon points="138.0935801033229,39.219458914451025 139.21538095962552,41.492475718362364 141.72380393153566,41.85697091182603 139.90869201742927,43.62626774710656 140.33718181592815,46.12455496931441 138.0935801033229,44.94502374579406 135.84997839071764,46.12455496931441 136.2784681892165,43.62626774710656 134.46335627511013,41.85697091182603 136.97177924702027,41.492475718362364" fill="#FFF3B0"/>
  <polygon points="61.36856258448461,23.489872714761077 62.550603030549226,25.88494825933074 65.19372582010388,26.269016482001067 63.28114420229424,28.13332279683911 63.73264347661384,30.765765557017797 61.36856258448461,29.522894680459103 59.00448169235538,30.765765557017797 59.45598096667497,28.13332279683911 57.543399348865336,26.269016482001067 60.18652213841999,25.88494825933074" fill="#FFF3B0"/>
  <polygon points="29.022530495021783,44.87110573541122 29.823852903704836,46.494762278418825 31.61566428141401,46.755127712032746 30.319097388217898,48.018968075281514 30.62517531238789,49.80353930575812 29.022530495021783,48.960979063592276 27.419885677655678,49.80353930575812 27.72596360182567,48.018968075281514 26.429396708629557,46.75512771203274 28.22120808633873,46.494762278418825" fill="#FFF3B0"/>
  <path d="M155 25 A22 22 0 1 1 175 50 A18 18 0 1 0 155 25" fill="#FFE566"/>
  <rect x="35" y="75" width="130" height="50" rx="8" fill="#C9B8E8"/>
  <rect x="45" y="65" width="90" height="20" rx="8" fill="white"/>
  <rect x="40" y="90" width="120" height="30" rx="6" fill="#FFCDB2"/>
  <text x="170" y="75" fill="#E2D9F3" font-size="16" font-weight="bold">z</text>
  <text x="178" y="65" fill="#E2D9F3" font-size="13" font-weight="bold">z</text>
</svg>