<svg xmlns="http://www.w3.org/2000/svg" viewBox="0 0 200 150" width="200" height="150">
  <defs>
    <linearGradient id="bg63478" gradientTransform="rotate(180)">
      <stop offset="0%" style="stop-color:#E2D9F3"/>
      <stop offset="100%" style="stop-color:#C9B8E8"/>
    </linearGradient>
  </defs>
  <rect width="200" height="150" fill="url(#bg63478)" rx="16"/>
  <circle cx="112.0841041127278" cy="31.669024757775333" r="3.7060827911445813" fill="#E2D9F3" opacity="0.3"/><circle cx="125.0173400154381" cy="46.70701026120838" r="2.962985935913821" fill="#E2D9F3" opacity="0.3"/><circle cx="52.14254019829241" cy="92.8372731982563" r="3.611948993986516" fill="#E2D9F3" opacity="0.3"/><circle cx="120.7281194749612" cy="147.55669248575032" r="2.6045671702722757" fill="#E2D9F3" opacity="0.3"/><circle cx="36.108705389051465" cy="47.416509802587825" r="3.312547464382078" fill="#E2D9F3" opacity="0.3"/><circle cx="175.9612849320547" cy="39.66562856953715" r="2.0117349202491823" fill="#E2D9F3" opacity="0.3"/>
  <circle cx="100" cy="75" r="48" fill="#FFE5D9" opacity="1"/>
  <circle cx="80" cy="68" r="8" fill="#333" opacity="1"/>
  <circle cx="120" cy="68" r="8" fill="#333" opacity="1"/>
  <circle cx="78" cy="65" r="3" fill="white" opacity="1"/>
  <circle cx="118" cy="65" r="3" fill="white" opacity="1"/>
  <path d="M72 92 Q100 115 128 92" stroke="#333" stroke-width="4" fill="none" stroke-linecap="round"/>
  <ellipse cx="60" cy="82" rx="12" ry="7" fill="#FFB3B3" opacity="0.4"/>
  <ellipse cx="140" cy="82" rx="12" ry="7" fill="#FFB3B3" opacity="0.4"/>
  <path d="M45,42.25 C39,37 42,34 45,37.75 C48,34 51,37 45,42.25Z" fill="#FFB3B3"/>
  <path d="M160,46.8 C155.2,42.6 157.6,40.2 160,43.2 C162.4,40.2 164.8,42.6 160,46.8Z" fill="#FFD6D6"/>
</svg>