<svg xmlns="http://www.w3.org/2000/svg" viewBox="0 0 200 150" width="200" height="150">
  <defs>
    <linearGradient id="bg63605" gradientTransform="rotate(135)">
      <stop offset="0%" style="stop-color:#E8F0E8"/>
      <stop offset="100%" style="stop-color:#C5DBC5"/>
    </linearGradient>
  </defs>
  <rect width="200" height="150" fill="url(#bg63605)" rx="16"/>
  <circle cx="132.36361537001358" cy="110.7622528176762" r="4.210738389238941" fill="#E8F0E8" opacity="0.3"/><circle cx="196.15102766883865" cy="91.14549075902687" r="2.269117177942462" fill="#E8F0E8" opacity="0.3"/><circle cx="129.8592991064652" cy="58.18420839686951" r="2.202140149936895" fill="#E8F0E8" opacity="0.3"/><circle cx="42.286384098406415" cy="34.89169138965735" r="4.656003472673547" fill="#E8F0E8" opacity="0.3"/><circle cx="98.32622506753523" cy="5.529606979280288" r="4.7372224619184635" fill="#E8F0E8" opacity="0.3"/><circle cx="143.78181980837326" cy="45.70749294248344" r="3.984164115629028" fill="#E8F0E8" opacity="0.3"/>
  <circle cx="100" cy="75" r="48" fill="#FFE5D9" opacity="1"/>
  <circle cx="80" cy="68" r="8" fill="#333" opacity="1"/>
  <circle cx="120" cy="68" r="8" fill="#333" opacity="1"/>
  <circle cx="78" cy="65" r="3" fill="white" opacity="1"/>
  <circle cx="118" cy="65" r="3" fill="white" opacity="1"/>
  <path d="M72 92 Q100 115 128 92" stroke="#333" stroke-width="4" fill="none" stroke-linecap="round"/>
  <ellipse cx="60" cy="82" rx="12" ry="7" fill="#FFB3B3" opacity="0.4"/>
  <ellipse cx="140" cy="82" rx="12" ry="7" fill="#FFB3B3" opacity="0.4"/>
  <path d="M45,42.25 C39,37 42,34 45,37.75 C48,34 51,37 45,42.25Z" fill="#FFB3B3"/>
  <path d="M160,46.8 C155.2,42.6 157.6,40.2 160,43.2 C162.4,40.2 164.8,42.6 160,46.8Z" fill="#FFD6D6"/>
</svg>