<svg xmlns="http://www.w3.org/2000/svg" viewBox="0 0 200 150" width="200" height="150">
  <defs>
    <linearGradient id="bg63760" gradientTransform="rotate(180)">
      <stop offset="0%" style="stop-color:#D4E9FF"/>
      <stop offset="100%" style="stop-color:#A8D0F0"/>
    </linearGradient>
  </defs>
  <rect width="200" height="150" fill="url(#bg63760)" rx="16"/>
  <rect x="0" y="0" width="200" height="150" rx="0" fill="#1a1a3e"/>
  <polygon points="29.565344092970918,9.69650771569377 31.01434323454787,12.632500658784389 34.25440381445278,13.103309019707316 31.90987395371185,15.38866081019008 32.46334237612482,18.615629322518696 29.565344092970918,17.092061462196853 26.66734580981701,18.615629322518696 27.220814232229987,15.38866081019008 24.876284371489056,13.103309019707314 28.116344951393963,12.632500658784389" fill="#FFF3B0"/>
  <polygon points="114.08184085808898,26.180691591265713 114.94267752092192,27.924937184455363 116.86756681654043,28.20463997144919 115.4747038373147,29.562345819761443 115.80351418375486,31.47945724206135 114.08184085808898,30.57432000985318 112.3601675324231,31.47945724206135 112.68897787886326,29.562345819761443 111.29611489963753,28.20463997144919 113.22100419525604,27.924937184455363" fill="#FFF3B0"/>
  <polygon points="44.21853829889642,35.953766779610305 44.88352196587969,37.30117085840679 46.37047064918136,37.51723714948284 45.29450447403889,38.56604495783536 45.548505632862955,40.04698534833997 44.21853829889642,39.347780142771626 42.88857096492988,40.04698534833997 43.14257212375395,38.56604495783536 42.06660594861148,37.51723714948284 43.55355463191315,37.30117085840679" fill="#FFF3B0"/>
  <polygon points="38.3397234732729,14.942824788471057 39.60267312195924,17.501840283805606 42.42671438858138,17.912197500014226 40.38321893092714,19.904113270077247 40.86562277064559,22.716743472557514 38.3397234732729,21.388799625848833 35.81382417590021,22.716743472557514 36.29622801561865,19.904113270077247 34.252732557964414,17.912197500014226 37.07677382458655,17.501840283805606" fill="#FFF3B0"/>
  <polygon points="115.68619481849055,5.480796840545281 117.04983553154021,8.24383471651511 120.09902886280557,8.686908442770031 117.89261184064806,10.837633488577623 118.41347624458989,13.87450598689506 115.68619481849055,12.440689289689999 112.95891339239121,13.87450598689506 113.47977779633304,10.837633488577623 111.27336077417553,8.68690844277003 114.32255410544087,8.24383471651511" fill="#FFF3B0"/>
  <polygon points="15.068049044193685,10.226557722628968 15.861122077310222,11.833499205045275 17.634487290480738,12.091184254056008 16.351268167337214,13.342013757132161 16.65419511042676,15.108213358229785 15.068049044193685,14.274327022845682 13.481902977960614,15.108213358229785 13.784829921050159,13.342013757132161 12.501610797906633,12.091184254056008 14.274976011077149,11.833499205045275" fill="#FFF3B0"/>
  <polygon points="143.55752418870907,26.44162962432074 144.67172643020714,28.69924995296633 147.16315838287952,29.06127620681591 145.3603412857943,30.81858855746118 145.78592867170525,33.29995341580561 143.55752418870907,32.128411848708765 141.32911970571288,33.29995341580561 141.75470709162383,30.81858855746118 139.95188999453862,29.06127620681591 142.443321947211,28.69924995296633" fill="#FFF3B0"/>
  <polygon points="169.71547678504066,28.272473150684164 170.6302479664879,30.126002014993084 172.67573851206168,30.423229189391535 171.19560764855117,31.866000201061887 171.5450191479351,33.90322556152914 169.71547678504066,32.94137822041557 167.88593442214622,33.90322556152914 168.23534592153015,31.866000201061887 166.75521505801964,30.42322918939153 168.80070560359343,30.126002014993084" fill="#FFF3B0"/>
  <polygon points="94.61548721417785,10.200918234731944 95.97160438820839,12.948711755592504 99.00397457479559,13.389340935834735 96.80973089448672,15.528199906035534 97.32772156223893,18.548317236720795 94.61548721417785,17.12241125658693 91.90325286611676,18.548317236720795 92.42124353386897,15.528199906035534 90.2269998535601,13.389340935834733 93.2593700401473,12.948711755592504" fill="#FFF3B0"/>
  <polygon points="91.66754235292501,51.056957108101415 92.34825359917384,52.436228743206684 93.87037021883482,52.65740523456018 92.76895628587991,53.731018476127375 93.02896484542266,55.24698470040155 91.66754235292501,54.531242539356754 90.30611986042736,55.24698470040155 90.56612841997011,53.731018476127375 89.4647144870152,52.65740523456018 90.98683110667618,52.436228743206684" fill="#FFF3B0"/>
  <path d="M155 25 A22 22 0 1 1 175 50 A18 18 0 1 0 155 25" fill="#FFE566"/>
  <rect x="35" y="75" width="130" height="50" rx="8" fill="#C9B8E8"/>
  <rect x="45" y="65" width="90" height="20" rx="8" fill="white"/>
  <rect x="40" y="90" width="120" height="30" rx="6" fill="#A8D0F0"/>
  <text x="170" y="75" fill="#E2D9F3" font-size="16" font-weight="bold">z</text>
  <text x="178" y="65" fill="#E2D9F3" font-size="13" font-weight="bold">z</text>
</svg>