<svg xmlns="http://www.w3.org/2000/svg" viewBox="0 0 200 150" width="200" height="150">
  <defs>
    <linearGradient id="bg6405" gradientTransform="rotate(135)">
      <stop offset="0%" style="stop-color:#FFE5D9"/>
      <stop offset="100%" style="stop-color:#FFCDB2"/>
    </linearGradient>
  </defs>
  <rect width="200" height="150" fill="url(#bg6405)" rx="16"/>
  <circle cx="58.6546720325714" cy="13.082575656244444" r="2.5151035105777737" fill="#FFE5D9" opacity="0.3"/><circle cx="89.24834565004858" cy="63.51307965333035" r="3.609414611965917" fill="#FFE5D9" opacity="0.3"/><circle cx="126.943279128227" cy="8.817194028279118" r="4.375487044195324" fill="#FFE5D9" opacity="0.3"/><circle cx="27.863271082605934" cy="101.64554423781738" r="3.743748370668527" fill="#FFE5D9" opacity="0.3"/><circle cx="113.13901357843861" cy="126.11021980765145" r="3.7513952055619484" fill="#FFE5D9" opacity="0.3"/><circle cx="26.787123394024093" cy="67.32798094562895" r="4.994273242780821" fill="#FFE5D9" opacity="0.3"/>
  <ellipse cx="100" cy="95" rx="32" ry="28" fill="#FFCDB2" opacity="1"/>
  <circle cx="100" cy="58" r="28" fill="#FFCDB2" opacity="1"/>
  <ellipse cx="82" cy="25" rx="10" ry="24" fill="#FFCDB2" opacity="1"/>
  <ellipse cx="118" cy="25" rx="10" ry="24" fill="#FFCDB2" opacity="1"/>
  <ellipse cx="82" cy="27" rx="5" ry="15" fill="#FFD6D6" opacity="1"/>
  <ellipse cx="118" cy="27" rx="5" ry="15" fill="#FFD6D6" opacity="1"/>
  <circle cx="88" cy="52" r="5" fill="#333" opacity="1"/>
  <circle cx="112" cy="52" r="5" fill="#333" opacity="1"/>
  <circle cx="86" cy="50" r="2" fill="white" opacity="1"/>
  <circle cx="110" cy="50" r="2" fill="white" opacity="1"/>
  <ellipse cx="100" cy="68" rx="6" ry="4" fill="#FFB3B3" opacity="1"/>
  <path d="M50,46.8 C45.2,42.6 47.6,40.2 50,43.2 C52.4,40.2 54.8,42.6 50,46.8Z" fill="#FFB3B3"/>
  <path d="M155,51.5 C151,48 153,46 155,48.5 C157,46 159,48 155,51.5Z" fill="#FFD6D6"/>
</svg>