<svg xmlns="http://www.w3.org/2000/svg" viewBox="0 0 200 150" width="200" height="150">
  <defs>
    <linearGradient id="bg6476" gradientTransform="rotate(0)">
      <stop offset="0%" style="stop-color:#E0F4FF"/>
      <stop offset="100%" style="stop-color:#BAE6FD"/>
    </linearGradient>
  </defs>
  <rect width="200" height="150" fill="url(#bg6476)" rx="16"/>
  <circle cx="115.42908734445518" cy="55.09414459183972" r="4.298668647525119" fill="#E0F4FF" opacity="0.3"/><circle cx="45.97329248099413" cy="146.12274666355916" r="4.631642701747296" fill="#E0F4FF" opacity="0.3"/><circle cx="114.3165626690461" cy="121.20460475534287" r="4.04449765204572" fill="#E0F4FF" opacity="0.3"/><circle cx="30.48596762600937" cy="71.60261948633888" r="3.580915205175188" fill="#E0F4FF" opacity="0.3"/><circle cx="184.10831648870953" cy="5.620432442083256" r="2.8916648993667877" fill="#E0F4FF" opacity="0.3"/><circle cx="70.9832005590215" cy="148.28541541801314" r="3.2741205929173702" fill="#E0F4FF" opacity="0.3"/>
  <ellipse cx="100" cy="95" rx="32" ry="28" fill="#BAE6FD" opacity="1"/>
  <circle cx="100" cy="58" r="28" fill="#BAE6FD" opacity="1"/>
  <ellipse cx="82" cy="25" rx="10" ry="24" fill="#BAE6FD" opacity="1"/>
  <ellipse cx="118" cy="25" rx="10" ry="24" fill="#BAE6FD" opacity="1"/>
  <ellipse cx="82" cy="27" rx="5" ry="15" fill="#FFD6D6" opacity="1"/>
  <ellipse cx="118" cy="27" rx="5" ry="15" fill="#FFD6D6" opacity="1"/>
  <circle cx="88" cy="52" r="5" fill="#333" opacity="1"/>
  <circle cx="112" cy="52" r="5" fill="#333" opacity="1"/>
  <circle cx="86" cy="50" r="2" fill="white" opacity="1"/>
  <circle cx="110" cy="50" r="2" fill="white" opacity="1"/>
  <ellipse cx="100" cy="68" rx="6" ry="4" fill="#FFB3B3" opacity="1"/>
  <path d="M50,46.8 C45.2,42.6 47.6,40.2 50,43.2 C52.4,40.2 54.8,42.6 50,46.8Z" fill="#FFB3B3"/>
  <path d="M155,51.5 C151,48 153,46 155,48.5 C157,46 159,48 155,51.5Z" fill="#FFD6D6"/>
</svg>