<svg xmlns="http://www.w3.org/2000/svg" viewBox="0 0 200 150" width="200" height="150">
  <defs>
    <linearGradient id="bg655" gradientTransform="rotate(90)">
      <stop offset="0%" style="stop-color:#E0F4FF"/>
      <stop offset="100%" style="stop-color:#BAE6FD"/>
    </linearGradient>
  </defs>
  <rect width="200" height="150" fill="url(#bg655)" rx="16"/>
  <circle cx="158.64029375370592" cy="145.41469995970147" r="3.315040442244026" fill="#E0F4FF" opacity="0.3"/><circle cx="147.26882863105857" cy="54.942112198295945" r="2.1522058911468775" fill="#E0F4FF" opacity="0.3"/><circle cx="197.81043639522977" cy="41.611601334898296" r="4.899364583097849" fill="#E0F4FF" opacity="0.3"/><circle cx="191.24379380348273" cy="3.30554350643979" r="2.941174160287119" fill="#E0F4FF" opacity="0.3"/><circle cx="94.96134690780309" cy="27.531560279152245" r="3.722736853715105" fill="#E0F4FF" opacity="0.3"/><circle cx="164.16822537066764" cy="149.02143936883476" r="4.090692419531479" fill="#E0F4FF" opacity="0.3"/>
  <circle cx="100" cy="75" r="48" fill="#FFE5D9" opacity="1"/>
  <circle cx="80" cy="68" r="8" fill="#333" opacity="1"/>
  <circle cx="120" cy="68" r="8" fill="#333" opacity="1"/>
  <circle cx="78" cy="65" r="3" fill="white" opacity="1"/>
  <circle cx="118" cy="65" r="3" fill="white" opacity="1"/>
  <path d="M72 92 Q100 115 128 92" stroke="#333" stroke-width="4" fill="none" stroke-linecap="round"/>
  <ellipse cx="60" cy="82" rx="12" ry="7" fill="#FFB3B3" opacity="0.4"/>
  <ellipse cx="140" cy="82" rx="12" ry="7" fill="#FFB3B3" opacity="0.4"/>
  <path d="M45,42.25 C39,37 42,34 45,37.75 C48,34 51,37 45,42.25Z" fill="#FFB3B3"/>
  <path d="M160,46.8 C155.2,42.6 157.6,40.2 160,43.2 C162.4,40.2 164.8,42.6 160,46.8Z" fill="#FFD6D6"/>
</svg>