<svg xmlns="http://www.w3.org/2000/svg" viewBox="0 0 200 150" width="200" height="150">
  <defs>
    <linearGradient id="bg65610" gradientTransform="rotate(180)">
      <stop offset="0%" style="stop-color:#FFE4EC"/>
      <stop offset="100%" style="stop-color:#FFC8DD"/>
    </linearGradient>
  </defs>
  <rect width="200" height="150" fill="url(#bg65610)" rx="16"/>
  <circle cx="111.93766817177675" cy="103.31984175769549" r="3.922819367267948" fill="#FFE4EC" opacity="0.3"/><circle cx="41.84445269149819" cy="29.489676766718276" r="3.3775891748237648" fill="#FFE4EC" opacity="0.3"/><circle cx="69.20124028765713" cy="35.92790885677459" r="4.394383730009395" fill="#FFE4EC" opacity="0.3"/><circle cx="189.57218354407814" cy="127.13710013538275" r="4.310557230861377" fill="#FFE4EC" opacity="0.3"/><circle cx="85.2399037899886" cy="34.840833253565506" r="2.0488948173760946" fill="#FFE4EC" opacity="0.3"/><circle cx="67.47179026715457" cy="55.55718233194966" r="3.1738202914002613" fill="#FFE4EC" opacity="0.3"/>
  <circle cx="100" cy="75" r="48" fill="#FFE5D9" opacity="1"/>
  <circle cx="80" cy="68" r="8" fill="#333" opacity="1"/>
  <circle cx="120" cy="68" r="8" fill="#333" opacity="1"/>
  <circle cx="78" cy="65" r="3" fill="white" opacity="1"/>
  <circle cx="118" cy="65" r="3" fill="white" opacity="1"/>
  <path d="M72 92 Q100 115 128 92" stroke="#333" stroke-width="4" fill="none" stroke-linecap="round"/>
  <ellipse cx="60" cy="82" rx="12" ry="7" fill="#FFB3B3" opacity="0.4"/>
  <ellipse cx="140" cy="82" rx="12" ry="7" fill="#FFB3B3" opacity="0.4"/>
  <path d="M45,42.25 C39,37 42,34 45,37.75 C48,34 51,37 45,42.25Z" fill="#FFB3B3"/>
  <path d="M160,46.8 C155.2,42.6 157.6,40.2 160,43.2 C162.4,40.2 164.8,42.6 160,46.8Z" fill="#FFD6D6"/>
</svg>