<svg xmlns="http://www.w3.org/2000/svg" viewBox="0 0 200 150" width="200" height="150">
  <defs>
    <linearGradient id="bg65702" gradientTransform="rotate(90)">
      <stop offset="0%" style="stop-color:#FFD6D6"/>
      <stop offset="100%" style="stop-color:#FFB3B3"/>
    </linearGradient>
  </defs>
  <rect width="200" height="150" fill="url(#bg65702)" rx="16"/>
  <circle cx="18.190570414276408" cy="130.66781132092729" r="4.940801620045022" fill="#FFD6D6" opacity="0.3"/><circle cx="169.93230722728185" cy="118.99503391076678" r="2.087700948640304" fill="#FFD6D6" opacity="0.3"/><circle cx="179.78468241271912" cy="145.21207449984104" r="2.6842134306325534" fill="#FFD6D6" opacity="0.3"/><circle cx="147.11116963990207" cy="10.163684947656293" r="3.8719122431102733" fill="#FFD6D6" opacity="0.3"/><circle cx="137.95040567238175" cy="40.32256004622923" r="3.6953157108864616" fill="#FFD6D6" opacity="0.3"/><circle cx="108.3581900577883" cy="66.85664452916171" r="3.9094026309303445" fill="#FFD6D6" opacity="0.3"/>
  <circle cx="100" cy="75" r="48" fill="#FFE5D9" opacity="1"/>
  <circle cx="80" cy="68" r="8" fill="#333" opacity="1"/>
  <circle cx="120" cy="68" r="8" fill="#333" opacity="1"/>
  <circle cx="78" cy="65" r="3" fill="white" opacity="1"/>
  <circle cx="118" cy="65" r="3" fill="white" opacity="1"/>
  <path d="M72 92 Q100 115 128 92" stroke="#333" stroke-width="4" fill="none" stroke-linecap="round"/>
  <ellipse cx="60" cy="82" rx="12" ry="7" fill="#FFB3B3" opacity="0.4"/>
  <ellipse cx="140" cy="82" rx="12" ry="7" fill="#FFB3B3" opacity="0.4"/>
  <path d="M45,42.25 C39,37 42,34 45,37.75 C48,34 51,37 45,42.25Z" fill="#FFB3B3"/>
  <path d="M160,46.8 C155.2,42.6 157.6,40.2 160,43.2 C162.4,40.2 164.8,42.6 160,46.8Z" fill="#FFD6D6"/>
</svg>