<svg xmlns="http://www.w3.org/2000/svg" viewBox="0 0 200 150" width="200" height="150">
  <defs>
    <linearGradient id="bg65782" gradientTransform="rotate(0)">
      <stop offset="0%" style="stop-color:#FFE5D9"/>
      <stop offset="100%" style="stop-color:#FFCDB2"/>
    </linearGradient>
  </defs>
  <rect width="200" height="150" fill="url(#bg65782)" rx="16"/>
  <circle cx="18.580009481229354" cy="47.93019598155297" r="4.68485419346689" fill="#FFE5D9" opacity="0.3"/><circle cx="127.93054376888904" cy="24.185460934063485" r="2.502899452411384" fill="#FFE5D9" opacity="0.3"/><circle cx="109.80485485524696" cy="123.574997778951" r="2.181388403414985" fill="#FFE5D9" opacity="0.3"/><circle cx="95.97100491555466" cy="6.443972563147327" r="4.131289611628006" fill="#FFE5D9" opacity="0.3"/><circle cx="9.000117637197036" cy="29.460112818833295" r="2.3799254789671522" fill="#FFE5D9" opacity="0.3"/><circle cx="139.51788567064796" cy="54.714573517594545" r="2.591592079948896" fill="#FFE5D9" opacity="0.3"/>
  <circle cx="100" cy="75" r="48" fill="#FFE5D9" opacity="1"/>
  <circle cx="80" cy="68" r="8" fill="#333" opacity="1"/>
  <circle cx="120" cy="68" r="8" fill="#333" opacity="1"/>
  <circle cx="78" cy="65" r="3" fill="white" opacity="1"/>
  <circle cx="118" cy="65" r="3" fill="white" opacity="1"/>
  <path d="M72 92 Q100 115 128 92" stroke="#333" stroke-width="4" fill="none" stroke-linecap="round"/>
  <ellipse cx="60" cy="82" rx="12" ry="7" fill="#FFB3B3" opacity="0.4"/>
  <ellipse cx="140" cy="82" rx="12" ry="7" fill="#FFB3B3" opacity="0.4"/>
  <path d="M45,42.25 C39,37 42,34 45,37.75 C48,34 51,37 45,42.25Z" fill="#FFB3B3"/>
  <path d="M160,46.8 C155.2,42.6 157.6,40.2 160,43.2 C162.4,40.2 164.8,42.6 160,46.8Z" fill="#FFD6D6"/>
</svg>