<svg xmlns="http://www.w3.org/2000/svg" viewBox="0 0 200 150" width="200" height="150">
  <defs>
    <linearGradient id="bg65956" gradientTransform="rotate(180)">
      <stop offset="0%" style="stop-color:#FFE4EC"/>
      <stop offset="100%" style="stop-color:#FFC8DD"/>
    </linearGradient>
  </defs>
  <rect width="200" height="150" fill="url(#bg65956)" rx="16"/>
  <circle cx="100.53804449908057" cy="80.27546841385629" r="4.554339233189239" fill="#FFE4EC" opacity="0.3"/><circle cx="129.6085762380244" cy="60.4214338726365" r="4.509900062721044" fill="#FFE4EC" opacity="0.3"/><circle cx="13.28597049578093" cy="24.358106534782564" r="4.665227506523024" fill="#FFE4EC" opacity="0.3"/><circle cx="109.21178381304344" cy="133.11272416942757" r="2.680908952514983" fill="#FFE4EC" opacity="0.3"/><circle cx="33.68921865749144" cy="138.40650430790902" r="4.2137469808976675" fill="#FFE4EC" opacity="0.3"/><circle cx="182.5111746587936" cy="8.404474946746632" r="3.783381867652224" fill="#FFE4EC" opacity="0.3"/>
  <circle cx="100" cy="75" r="48" fill="#FFE5D9" opacity="1"/>
  <circle cx="80" cy="68" r="8" fill="#333" opacity="1"/>
  <circle cx="120" cy="68" r="8" fill="#333" opacity="1"/>
  <circle cx="78" cy="65" r="3" fill="white" opacity="1"/>
  <circle cx="118" cy="65" r="3" fill="white" opacity="1"/>
  <path d="M72 92 Q100 115 128 92" stroke="#333" stroke-width="4" fill="none" stroke-linecap="round"/>
  <ellipse cx="60" cy="82" rx="12" ry="7" fill="#FFB3B3" opacity="0.4"/>
  <ellipse cx="140" cy="82" rx="12" ry="7" fill="#FFB3B3" opacity="0.4"/>
  <path d="M45,42.25 C39,37 42,34 45,37.75 C48,34 51,37 45,42.25Z" fill="#FFB3B3"/>
  <path d="M160,46.8 C155.2,42.6 157.6,40.2 160,43.2 C162.4,40.2 164.8,42.6 160,46.8Z" fill="#FFD6D6"/>
</svg>