<svg xmlns="http://www.w3.org/2000/svg" viewBox="0 0 200 150" width="200" height="150">
  <defs>
    <linearGradient id="bg660" gradientTransform="rotate(180)">
      <stop offset="0%" style="stop-color:#D8F3DC"/>
      <stop offset="100%" style="stop-color:#B7E4C7"/>
    </linearGradient>
  </defs>
  <rect width="200" height="150" fill="url(#bg660)" rx="16"/>
  <rect x="0" y="100" width="200" height="50" rx="0" fill="#C5DBC5"/>
  <circle cx="165" cy="35" r="22" fill="#FFE566" opacity="1"/>
  <line x1="191" y1="35" x2="200" y2="35" stroke="#FFF3B0" stroke-width="3" stroke-linecap="round"/>
  <line x1="183.38477631085024" y1="53.384776310850235" x2="189.74873734152916" y2="59.748737341529164" stroke="#FFF3B0" stroke-width="3" stroke-linecap="round"/>
  <line x1="165" y1="61" x2="165" y2="70" stroke="#FFF3B0" stroke-width="3" stroke-linecap="round"/>
  <line x1="146.61522368914976" y1="53.38477631085024" x2="140.25126265847084" y2="59.748737341529164" stroke="#FFF3B0" stroke-width="3" stroke-linecap="round"/>
  <line x1="139" y1="35" x2="130" y2="35.00000000000001" stroke="#FFF3B0" stroke-width="3" stroke-linecap="round"/>
  <line x1="146.61522368914976" y1="16.615223689149765" x2="140.25126265847084" y2="10.25126265847084" stroke="#FFF3B0" stroke-width="3" stroke-linecap="round"/>
  <line x1="165" y1="9" x2="165" y2="0" stroke="#FFF3B0" stroke-width="3" stroke-linecap="round"/>
  <line x1="183.38477631085024" y1="16.61522368914976" x2="189.74873734152916" y2="10.251262658470832" stroke="#FFF3B0" stroke-width="3" stroke-linecap="round"/>
  <rect x="90" y="55" width="14" height="50" rx="2" fill="#8B6914"/>
  <path d="M78.8261912684975,24.837790959289123 Q88.8261912684975,36.83779095928912 78.8261912684975,48.83779095928912 Q68.8261912684975,36.83779095928912 78.8261912684975,24.837790959289123Z" fill="#B7E4C7"/>
  <path d="M91.36567114444915,42.977751610013 Q101.36567114444915,54.977751610013 91.36567114444915,66.977751610013 Q81.36567114444915,54.977751610013 91.36567114444915,42.977751610013Z" fill="#95D5B2"/>
  <path d="M106.98416444371105,29.1200918071836 Q116.98416444371105,41.1200918071836 106.98416444371105,53.1200918071836 Q96.98416444371105,41.1200918071836 106.98416444371105,29.1200918071836Z" fill="#B7E4C7"/>
  <path d="M111.28003044231446,29.985086476215088 Q121.28003044231446,41.98508647621509 111.28003044231446,53.98508647621509 Q101.28003044231446,41.98508647621509 111.28003044231446,29.985086476215088Z" fill="#95D5B2"/>
  <path d="M130.5591289205986,37.63701126903288 Q140.5591289205986,49.63701126903288 130.5591289205986,61.63701126903288 Q120.5591289205986,49.63701126903288 130.5591289205986,37.63701126903288Z" fill="#B7E4C7"/>
  <circle cx="45" cy="95" r="8" fill="#FFB3B3" opacity="1"/>
  <circle cx="155" cy="98" r="6" fill="#C9B8E8" opacity="1"/>
</svg>