<svg xmlns="http://www.w3.org/2000/svg" viewBox="0 0 200 150" width="200" height="150">
  <defs>
    <linearGradient id="bg66226" gradientTransform="rotate(45)">
      <stop offset="0%" style="stop-color:#F0F7FF"/>
      <stop offset="100%" style="stop-color:#DCE8F5"/>
    </linearGradient>
  </defs>
  <rect width="200" height="150" fill="url(#bg66226)" rx="16"/>
  <circle cx="24.71818294325203" cy="35.7249543182661" r="4.167762738721649" fill="#F0F7FF" opacity="0.3"/><circle cx="143.39844212008757" cy="127.74922847951302" r="3.0440364666415007" fill="#F0F7FF" opacity="0.3"/><circle cx="81.71265915171944" cy="35.59718221918047" r="3.09870622381095" fill="#F0F7FF" opacity="0.3"/><circle cx="157.09424319438767" cy="120.32635045088682" r="2.2966869244028203" fill="#F0F7FF" opacity="0.3"/><circle cx="159.65427193623327" cy="18.54876965689982" r="3.241005473799305" fill="#F0F7FF" opacity="0.3"/><circle cx="15.458202385889308" cy="31.30574327865361" r="3.0109074493886965" fill="#F0F7FF" opacity="0.3"/>
  <circle cx="100" cy="75" r="48" fill="#FFE5D9" opacity="1"/>
  <circle cx="80" cy="68" r="8" fill="#333" opacity="1"/>
  <circle cx="120" cy="68" r="8" fill="#333" opacity="1"/>
  <circle cx="78" cy="65" r="3" fill="white" opacity="1"/>
  <circle cx="118" cy="65" r="3" fill="white" opacity="1"/>
  <path d="M72 92 Q100 115 128 92" stroke="#333" stroke-width="4" fill="none" stroke-linecap="round"/>
  <ellipse cx="60" cy="82" rx="12" ry="7" fill="#FFB3B3" opacity="0.4"/>
  <ellipse cx="140" cy="82" rx="12" ry="7" fill="#FFB3B3" opacity="0.4"/>
  <path d="M45,42.25 C39,37 42,34 45,37.75 C48,34 51,37 45,42.25Z" fill="#FFB3B3"/>
  <path d="M160,46.8 C155.2,42.6 157.6,40.2 160,43.2 C162.4,40.2 164.8,42.6 160,46.8Z" fill="#FFD6D6"/>
</svg>