<svg xmlns="http://www.w3.org/2000/svg" viewBox="0 0 200 150" width="200" height="150">
  <defs>
    <linearGradient id="bg66930" gradientTransform="rotate(180)">
      <stop offset="0%" style="stop-color:#FFE4EC"/>
      <stop offset="100%" style="stop-color:#FFC8DD"/>
    </linearGradient>
  </defs>
  <rect width="200" height="150" fill="url(#bg66930)" rx="16"/>
  <circle cx="185.29596662956465" cy="54.88274795720827" r="3.4044782475202737" fill="#FFE4EC" opacity="0.3"/><circle cx="100.26371712665423" cy="1.0744700587565603" r="4.111933538481026" fill="#FFE4EC" opacity="0.3"/><circle cx="99.63039689937432" cy="19.920259384616656" r="3.046867820195075" fill="#FFE4EC" opacity="0.3"/><circle cx="73.56361408383236" cy="56.98324106606378" r="3.4321668369284453" fill="#FFE4EC" opacity="0.3"/><circle cx="94.61074768769322" cy="127.33888165907956" r="2.7802978844356403" fill="#FFE4EC" opacity="0.3"/><circle cx="99.91148305107345" cy="123.87267458755105" r="2.8093215377848537" fill="#FFE4EC" opacity="0.3"/>
  <circle cx="100" cy="75" r="48" fill="#FFE5D9" opacity="1"/>
  <circle cx="80" cy="68" r="8" fill="#333" opacity="1"/>
  <circle cx="120" cy="68" r="8" fill="#333" opacity="1"/>
  <circle cx="78" cy="65" r="3" fill="white" opacity="1"/>
  <circle cx="118" cy="65" r="3" fill="white" opacity="1"/>
  <path d="M72 92 Q100 115 128 92" stroke="#333" stroke-width="4" fill="none" stroke-linecap="round"/>
  <ellipse cx="60" cy="82" rx="12" ry="7" fill="#FFB3B3" opacity="0.4"/>
  <ellipse cx="140" cy="82" rx="12" ry="7" fill="#FFB3B3" opacity="0.4"/>
  <path d="M45,42.25 C39,37 42,34 45,37.75 C48,34 51,37 45,42.25Z" fill="#FFB3B3"/>
  <path d="M160,46.8 C155.2,42.6 157.6,40.2 160,43.2 C162.4,40.2 164.8,42.6 160,46.8Z" fill="#FFD6D6"/>
</svg>