<svg xmlns="http://www.w3.org/2000/svg" viewBox="0 0 200 150" width="200" height="150">
  <defs>
    <linearGradient id="bg67028" gradientTransform="rotate(0)">
      <stop offset="0%" style="stop-color:#FFF5EB"/>
      <stop offset="100%" style="stop-color:#FFE4CC"/>
    </linearGradient>
  </defs>
  <rect width="200" height="150" fill="url(#bg67028)" rx="16"/>
  <rect x="0" y="0" width="200" height="150" rx="0" fill="#1a1a3e"/>
  <polygon points="162.75722362290253,39.879964014397956 163.9645197348144,42.326213127379724 166.6641159100205,42.7184874133253 164.7106697664615,44.62262679604289 165.17181584672625,47.31131475065161 162.75722362290253,46.041888495506555 160.3426313990788,47.31131475065161 160.80377747934355,44.62262679604289 158.85033133578455,42.7184874133253 161.54992751099067,42.326213127379724" fill="#FFF3B0"/>
  <polygon points="103.18972597643551,21.158570452641015 104.40606199170828,23.623136410479542 107.1258720053394,24.018347939079113 105.15779899088746,25.936744997138835 105.62239800698104,28.645565112397698 103.18972597643551,27.366633740357884 100.75705394588998,28.645565112397698 101.22165296198357,25.936744997138835 99.25357994753162,24.018347939079113 101.97338996116274,23.623136410479542" fill="#FFF3B0"/>
  <polygon points="115.12499149131145,45.03172711204297 115.93286468655833,46.66865699840272 117.73932406833033,46.931150911597044 116.43215777982088,48.20532313176219 116.74073788180522,50.00448317831599 115.12499149131145,49.15503503153923 113.50924510081768,50.00448317831599 113.81782520280201,48.20532313176219 112.51065891429256,46.931150911597044 114.31711829606456,46.66865699840272" fill="#FFF3B0"/>
  <polygon points="45.65909855942664,40.99094557600074 47.06524488709209,43.84010923422455 50.20948366206373,44.29699387186862 47.934291110745185,46.514758489806006 48.47139121475754,49.646292383031536 45.65909855942664,48.16778263773995 42.84680590409574,49.646292383031536 43.38390600810809,46.514758489806006 41.108713456789545,44.29699387186862 44.252952231761185,43.84010923422455" fill="#FFF3B0"/>
  <polygon points="30.55776835841243,37.65936160716774 31.54716680210447,39.664101820763236 33.75952897903237,39.98557686254096 32.1586486687224,41.54604949493442 32.53656524579651,43.74947221088335 30.55776835841243,42.709157122621036 28.578971471028353,43.74947221088335 28.956888048102464,41.54604949493443 27.356007737792496,39.98557686254096 29.568369914720392,39.664101820763236" fill="#FFF3B0"/>
  <polygon points="145.72463639534362,16.19025067784355 146.6719423627734,18.109702218922138 148.79018290143756,18.417500586099038 147.2574096483906,19.911585245420866 147.61924833020316,22.021266639096496 145.72463639534362,21.02521019954861 143.83002446048408,22.021266639096496 144.19186314229665,19.911585245420866 142.65908988924969,18.417500586099035 144.77733042791385,18.109702218922138" fill="#FFF3B0"/>
  <polygon points="162.82228139651124,21.557929075774155 163.62358385318646,23.18154519159826 165.41535061684985,23.441904142411854 164.11881600668053,24.70571303748683 164.4248863098617,26.490239834189 162.82228139651124,25.647700570805682 161.21967648316078,26.490239834189 161.52574678634195,24.70571303748683 160.22921217617264,23.441904142411854 162.02097893983603,23.18154519159826" fill="#FFF3B0"/>
  <polygon points="101.24263906920532,14.476397690477825 102.5485022619048,17.122365523305447 105.46850113009575,17.546666195199098 103.35557009965054,19.606264920919116 103.85436545460428,22.514464990426433 101.24263906920532,21.14139917327975 98.63091268380637,22.514464990426433 99.12970803876011,19.606264920919116 97.0167770083149,17.546666195199094 99.93677587650585,17.122365523305447" fill="#FFF3B0"/>
  <polygon points="59.75048983240413,36.101027488424734 60.71970505110639,38.06487202138214 62.886936164951976,38.37978913582719 61.31871299867805,39.908428920260576 61.688920269808655,42.06690293358407 59.75048983240413,41.04780974396181 57.8120593949996,42.06690293358407 58.182266666130204,39.908428920260576 56.61404349985628,38.37978913582719 58.78127461370187,38.06487202138214" fill="#FFF3B0"/>
  <polygon points="169.52583740989212,36.81117531325299 170.7127632374807,39.2161497219883 173.3668100722189,39.60180530133937 171.44632374105552,41.47381680736254 171.89968906506925,44.11713947208784 169.52583740989212,42.86913180140573 167.15198575471499,44.11713947208784 167.60535107872872,41.47381680736254 165.68486474756534,39.60180530133937 168.33891158230355,39.2161497219883" fill="#FFF3B0"/>
  <path d="M155 25 A22 22 0 1 1 175 50 A18 18 0 1 0 155 25" fill="#FFE566"/>
  <rect x="35" y="75" width="130" height="50" rx="8" fill="#C9B8E8"/>
  <rect x="45" y="65" width="90" height="20" rx="8" fill="white"/>
  <rect x="40" y="90" width="120" height="30" rx="6" fill="#FFE4CC"/>
  <text x="170" y="75" fill="#E2D9F3" font-size="16" font-weight="bold">z</text>
  <text x="178" y="65" fill="#E2D9F3" font-size="13" font-weight="bold">z</text>
</svg>