<svg xmlns="http://www.w3.org/2000/svg" viewBox="0 0 200 150" width="200" height="150">
  <defs>
    <linearGradient id="bg67457" gradientTransform="rotate(180)">
      <stop offset="0%" style="stop-color:#E0F4FF"/>
      <stop offset="100%" style="stop-color:#BAE6FD"/>
    </linearGradient>
  </defs>
  <rect width="200" height="150" fill="url(#bg67457)" rx="16"/>
  <circle cx="121.85425898169342" cy="11.553527652426965" r="3.715215773314412" fill="#E0F4FF" opacity="0.3"/><circle cx="161.94944695998856" cy="28.81762515835362" r="4.7299589534595725" fill="#E0F4FF" opacity="0.3"/><circle cx="189.72888753669395" cy="4.15367890136622" r="4.004948216980665" fill="#E0F4FF" opacity="0.3"/><circle cx="164.20461310772225" cy="12.593519178062706" r="2.3752579413758212" fill="#E0F4FF" opacity="0.3"/><circle cx="40.835842834167124" cy="39.01874171288" r="4.425403528406605" fill="#E0F4FF" opacity="0.3"/><circle cx="191.16229218134322" cy="109.73755590703149" r="2.1430575783615495" fill="#E0F4FF" opacity="0.3"/>
  <circle cx="100" cy="75" r="48" fill="#FFE5D9" opacity="1"/>
  <circle cx="80" cy="68" r="8" fill="#333" opacity="1"/>
  <circle cx="120" cy="68" r="8" fill="#333" opacity="1"/>
  <circle cx="78" cy="65" r="3" fill="white" opacity="1"/>
  <circle cx="118" cy="65" r="3" fill="white" opacity="1"/>
  <path d="M72 92 Q100 115 128 92" stroke="#333" stroke-width="4" fill="none" stroke-linecap="round"/>
  <ellipse cx="60" cy="82" rx="12" ry="7" fill="#FFB3B3" opacity="0.4"/>
  <ellipse cx="140" cy="82" rx="12" ry="7" fill="#FFB3B3" opacity="0.4"/>
  <path d="M45,42.25 C39,37 42,34 45,37.75 C48,34 51,37 45,42.25Z" fill="#FFB3B3"/>
  <path d="M160,46.8 C155.2,42.6 157.6,40.2 160,43.2 C162.4,40.2 164.8,42.6 160,46.8Z" fill="#FFD6D6"/>
</svg>