<svg xmlns="http://www.w3.org/2000/svg" viewBox="0 0 200 150" width="200" height="150">
  <defs>
    <linearGradient id="bg67624" gradientTransform="rotate(135)">
      <stop offset="0%" style="stop-color:#D0F0F0"/>
      <stop offset="100%" style="stop-color:#A0E0E0"/>
    </linearGradient>
  </defs>
  <rect width="200" height="150" fill="url(#bg67624)" rx="16"/>
  <rect x="0" y="0" width="200" height="150" rx="0" fill="#1a1a3e"/>
  <polygon points="108.88320043413842,21.674339702319628 110.26665747578052,24.477529845627604 113.36016146484302,24.92704228734923 111.12168094949071,27.109021514563874 111.65011451742262,30.19002562522177 108.88320043413842,28.735372807078676 106.11628635085421,30.19002562522177 106.64471991878612,27.109021514563874 104.40623940343382,24.92704228734923 107.49974339249631,24.477529845627604" fill="#FFF3B0"/>
  <polygon points="171.00420575074168,27.386815160903097 172.42772460622595,30.271179405252994 175.61080953434148,30.733708719358756 173.30750764254157,32.97887317240766 173.85124346171023,36.14909625366809 171.00420575074168,34.65231995163549 168.15716803977313,36.14909625366809 168.70090385894179,32.97887317240766 166.39760196714187,30.733708719358756 169.5806868952574,30.271179405252994" fill="#FFF3B0"/>
  <polygon points="130.59017503133873,24.889956149192585 131.33887405220776,26.406986062252464 133.01301595755845,26.650253120683104 131.80159549444858,27.831096227335046 132.08757307307678,29.498473450848266 130.59017503133873,28.711244713080305 129.09277698960068,29.498473450848266 129.37875456822889,27.831096227335046 128.167334105119,26.650253120683104 129.8414760104697,26.406986062252464" fill="#FFF3B0"/>
  <polygon points="104.1937501622806,26.441940298803274 105.62655575543101,29.345121528939988 108.83040646025728,29.810668287027234 106.51207831126894,32.0704797208397 107.05936134858145,35.26138467082665 104.1937501622806,33.754843714951676 101.32813897597974,35.26138467082665 101.87542201329225,32.0704797208397 99.55709386430391,29.81066828702723 102.76094456913017,29.345121528939988" fill="#FFF3B0"/>
  <polygon points="67.43015374176139,32.638135544066245 68.42362783938397,34.65113393451997 70.64510345555334,34.973933236534755 69.03762859865736,36.54083396314878 69.41710193700656,38.75333329379239 67.43015374176139,37.70873280938304 65.44320554651621,38.75333329379239 65.82267888486541,36.54083396314878 64.21520402796943,34.973933236534755 66.4366796441388,34.65113393451997" fill="#FFF3B0"/>
  <polygon points="18.965710245065566,34.47569959959128 19.789590568500888,36.14506347024535 21.631842977026785,36.412758414668225 20.298776611046176,37.7121769707464 20.613470891936213,39.546985415670314 18.965710245065566,38.68070637828487 17.317949598194918,39.546985415670314 17.632643879084956,37.7121769707464 16.299577513104346,36.412758414668225 18.141829921630244,36.14506347024535" fill="#FFF3B0"/>
  <polygon points="150.49160962315,26.222734400857007 151.53599788661785,28.338896159276832 153.87132103863496,28.67823847659202 152.18146533089248,30.325440686303406 152.58038615008573,32.65132753064517 150.49160962315,31.553192724170913 148.40283309621427,32.65132753064517 148.80175391540752,30.325440686303406 147.11189820766504,28.67823847659202 149.44722135968215,28.338896159276832" fill="#FFF3B0"/>
  <polygon points="66.18800310761799,18.789241953490546 67.43539801099878,21.3167400923697 70.22465780974504,21.722043265458662 68.20633045868152,23.689426194877043 68.68279291437959,26.46741547047336 66.18800310761799,25.155826850861104 63.693213300856385,26.46741547047336 64.16967575655445,23.689426194877047 62.151348405490936,21.722043265458662 64.94060820423718,21.3167400923697" fill="#FFF3B0"/>
  <polygon points="49.216028982950775,10.48905854644454 50.31493036698284,12.715675951586267 52.772148562247146,13.072730655475887 50.994088772598964,14.805910595685187 51.41383175101491,17.253199943673728 49.216028982950775,16.09774665020086 47.01822621488664,17.253199943673728 47.437969193302585,14.805910595685187 45.6599094036544,13.072730655475885 48.11712759891871,12.715675951586267" fill="#FFF3B0"/>
  <polygon points="105.97400341911452,40.689472366081645 107.13863566631679,43.04927504709656 109.74283253984937,43.42768700308056 107.85841797948194,45.2645372226749 108.30326791351904,47.85821135423726 105.97400341911452,46.63364454117436 103.64473892471001,47.85821135423726 104.0895888587471,45.2645372226749 102.20517429837967,43.42768700308056 104.80937117191226,43.04927504709656" fill="#FFF3B0"/>
  <path d="M155 25 A22 22 0 1 1 175 50 A18 18 0 1 0 155 25" fill="#FFE566"/>
  <rect x="35" y="75" width="130" height="50" rx="8" fill="#C9B8E8"/>
  <rect x="45" y="65" width="90" height="20" rx="8" fill="white"/>
  <rect x="40" y="90" width="120" height="30" rx="6" fill="#A0E0E0"/>
  <text x="170" y="75" fill="#E2D9F3" font-size="16" font-weight="bold">z</text>
  <text x="178" y="65" fill="#E2D9F3" font-size="13" font-weight="bold">z</text>
</svg>