<svg xmlns="http://www.w3.org/2000/svg" viewBox="0 0 200 150" width="200" height="150">
  <defs>
    <linearGradient id="bg67837" gradientTransform="rotate(45)">
      <stop offset="0%" style="stop-color:#D4E9FF"/>
      <stop offset="100%" style="stop-color:#A8D0F0"/>
    </linearGradient>
  </defs>
  <rect width="200" height="150" fill="url(#bg67837)" rx="16"/>
  <circle cx="9.864141663638293" cy="88.64575159259402" r="2.98377714579874" fill="#D4E9FF" opacity="0.3"/><circle cx="103.20355995947921" cy="146.83567060703808" r="2.313934531342966" fill="#D4E9FF" opacity="0.3"/><circle cx="123.96970534246066" cy="113.98620835134352" r="4.22431585873619" fill="#D4E9FF" opacity="0.3"/><circle cx="189.36046978233207" cy="97.9837201151895" r="3.6447181214853117" fill="#D4E9FF" opacity="0.3"/><circle cx="90.67591869297758" cy="15.61340155749349" r="2.2379458223376787" fill="#D4E9FF" opacity="0.3"/><circle cx="111.98486574178332" cy="140.20732916328242" r="2.7835218516884197" fill="#D4E9FF" opacity="0.3"/>
  <circle cx="100" cy="75" r="48" fill="#FFE5D9" opacity="1"/>
  <circle cx="80" cy="68" r="8" fill="#333" opacity="1"/>
  <circle cx="120" cy="68" r="8" fill="#333" opacity="1"/>
  <circle cx="78" cy="65" r="3" fill="white" opacity="1"/>
  <circle cx="118" cy="65" r="3" fill="white" opacity="1"/>
  <path d="M72 92 Q100 115 128 92" stroke="#333" stroke-width="4" fill="none" stroke-linecap="round"/>
  <ellipse cx="60" cy="82" rx="12" ry="7" fill="#FFB3B3" opacity="0.4"/>
  <ellipse cx="140" cy="82" rx="12" ry="7" fill="#FFB3B3" opacity="0.4"/>
  <path d="M45,42.25 C39,37 42,34 45,37.75 C48,34 51,37 45,42.25Z" fill="#FFB3B3"/>
  <path d="M160,46.8 C155.2,42.6 157.6,40.2 160,43.2 C162.4,40.2 164.8,42.6 160,46.8Z" fill="#FFD6D6"/>
</svg>