<svg xmlns="http://www.w3.org/2000/svg" viewBox="0 0 200 150" width="200" height="150">
  <defs>
    <linearGradient id="bg67984" gradientTransform="rotate(45)">
      <stop offset="0%" style="stop-color:#FFD6D6"/>
      <stop offset="100%" style="stop-color:#FFB3B3"/>
    </linearGradient>
  </defs>
  <rect width="200" height="150" fill="url(#bg67984)" rx="16"/>
  <rect x="0" y="0" width="200" height="150" rx="0" fill="#1a1a3e"/>
  <polygon points="61.16446279829688,31.57144275466544 61.88883883266077,33.039188914074316 63.50859288677014,33.27455295511823 62.336527842533506,34.41703400953395 62.61321486702465,36.030243146037485 61.16446279829688,35.26858910976034 59.71571072956911,36.030243146037485 59.992397754060256,34.41703400953395 58.820332709823624,33.27455295511823 60.440086763932996,33.039188914074316" fill="#FFF3B0"/>
  <polygon points="15.135443551243952,18.78339498221817 15.734384419175674,19.9969817340104 17.07365691437373,20.191589418880252 16.10455023280884,21.13623496465428 16.333325287107396,22.470095880168007 15.135443551243952,21.84033218298532 13.937561815380509,22.470095880168007 14.166336869679064,21.13623496465428 13.197230188114176,20.19158941888025 14.53650268331223,19.9969817340104" fill="#FFF3B0"/>
  <polygon points="183.7817691032069,13.499313877884788 184.94953236831967,15.86546069412116 187.56073041073893,16.244889979493546 185.6712497569729,18.086678419672364 186.11729563343243,20.68732543059595 183.7817691032069,19.45946647047674 181.44624257298136,20.68732543059595 181.89228844944088,18.086678419672364 180.00280779567487,16.244889979493546 182.61400583809413,15.86546069412116" fill="#FFF3B0"/>
  <polygon points="107.54209621132759,31.655564601587685 108.8990992254677,34.405153030558104 111.93345021075709,34.84607003769965 109.73777321104234,36.98632614901833 110.25610223960781,40.0084162746201 107.54209621132759,38.58157886707431 104.82809018304738,40.0084162746201 105.34641921161284,36.98632614901833 103.15074221189809,34.84607003769965 106.18509319718748,34.405153030558104" fill="#FFF3B0"/>
  <polygon points="122.92132774084166,44.565874387709925 124.07671312378997,46.90694087529565 126.66023338027202,47.28234834295515 124.79078056055684,49.10461446986597 125.23209850673828,51.677695532095804 122.92132774084166,50.46285144748859 120.61055697494504,51.677695532095804 121.05187492112648,49.10461446986597 119.1824221014113,47.28234834295515 121.76594235789335,46.90694087529565" fill="#FFF3B0"/>
  <polygon points="38.98944142802975,38.80273432517788 40.1520384838976,41.15841325813511 42.75168453125924,41.536163940368965 40.8705629796445,43.36980426975248 41.314635539765455,45.958945963603696 38.98944142802975,44.73651907734802 36.664247316294045,45.958945963603696 37.108319876415,43.36980426975248 35.22719832480026,41.536163940368965 37.8268443721619,41.15841325813511" fill="#FFF3B0"/>
  <polygon points="168.1878903222605,8.932712606487257 169.3984117553729,11.385496934026612 172.10521996803266,11.778819190356915 170.14655514514658,13.688045528179593 170.60893318848528,16.383916378662875 168.1878903222605,15.111098820114421 165.76684745603572,16.383916378662875 166.22922549937442,13.688045528179593 164.27056067648834,11.778819190356913 166.9773688891481,11.385496934026612" fill="#FFF3B0"/>
  <polygon points="30.52458201560654,9.790260715887825 31.859501702823707,12.49510343718642 34.84447286794404,12.928845136452347 32.684527441775295,15.034271571703565 33.19442139004087,18.007181405486637 30.52458201560654,16.603563781985827 27.854742641172212,18.007181405486637 28.36463658943779,15.034271571703567 26.20469116326904,12.928845136452345 29.189662328389375,12.49510343718642" fill="#FFF3B0"/>
  <polygon points="117.41422983803204,39.00621293752738 118.88222193441703,41.9806898104457 122.16475205236631,42.45766935647543 119.78949094519918,44.77297670871918 120.35021403080204,48.04224315302236 117.41422983803204,46.4987049181932 114.47824564526205,48.04224315302236 115.03896873086491,44.77297670871918 112.66370762369777,42.45766935647543 115.94623774164704,41.9806898104457" fill="#FFF3B0"/>
  <polygon points="23.463127025861468,15.161488879256012 24.535606442067508,17.334569530058907 26.933743321173502,17.683039216188618 25.198435173517485,19.37454660480926 25.608085858273547,21.762993365689326 23.463127025861468,20.635321773275564 21.318168193449388,21.762993365689326 21.72781887820545,19.37454660480926 19.992510730549434,17.683039216188618 22.390647609655428,17.334569530058907" fill="#FFF3B0"/>
  <path d="M155 25 A22 22 0 1 1 175 50 A18 18 0 1 0 155 25" fill="#FFE566"/>
  <rect x="35" y="75" width="130" height="50" rx="8" fill="#C9B8E8"/>
  <rect x="45" y="65" width="90" height="20" rx="8" fill="white"/>
  <rect x="40" y="90" width="120" height="30" rx="6" fill="#FFB3B3"/>
  <text x="170" y="75" fill="#E2D9F3" font-size="16" font-weight="bold">z</text>
  <text x="178" y="65" fill="#E2D9F3" font-size="13" font-weight="bold">z</text>
</svg>