<svg xmlns="http://www.w3.org/2000/svg" viewBox="0 0 200 150" width="200" height="150">
  <defs>
    <linearGradient id="bg68723" gradientTransform="rotate(45)">
      <stop offset="0%" style="stop-color:#FFE5D9"/>
      <stop offset="100%" style="stop-color:#FFCDB2"/>
    </linearGradient>
  </defs>
  <rect width="200" height="150" fill="url(#bg68723)" rx="16"/>
  <circle cx="12.57747845738777" cy="64.93469151891986" r="4.6530585919443865" fill="#FFE5D9" opacity="0.3"/><circle cx="64.73193932379218" cy="143.36307619787476" r="4.588565698910315" fill="#FFE5D9" opacity="0.3"/><circle cx="74.34894115028783" cy="33.58230846877177" r="2.9418846854209733" fill="#FFE5D9" opacity="0.3"/><circle cx="170.69611169063137" cy="37.81490562100771" r="4.567118905612006" fill="#FFE5D9" opacity="0.3"/><circle cx="116.15926189879247" cy="1.0731996045251435" r="2.610859138498199" fill="#FFE5D9" opacity="0.3"/><circle cx="127.3841368023568" cy="73.64305911842166" r="3.4680108151860622" fill="#FFE5D9" opacity="0.3"/>
  <circle cx="100" cy="75" r="48" fill="#FFE5D9" opacity="1"/>
  <circle cx="80" cy="68" r="8" fill="#333" opacity="1"/>
  <circle cx="120" cy="68" r="8" fill="#333" opacity="1"/>
  <circle cx="78" cy="65" r="3" fill="white" opacity="1"/>
  <circle cx="118" cy="65" r="3" fill="white" opacity="1"/>
  <path d="M72 92 Q100 115 128 92" stroke="#333" stroke-width="4" fill="none" stroke-linecap="round"/>
  <ellipse cx="60" cy="82" rx="12" ry="7" fill="#FFB3B3" opacity="0.4"/>
  <ellipse cx="140" cy="82" rx="12" ry="7" fill="#FFB3B3" opacity="0.4"/>
  <path d="M45,42.25 C39,37 42,34 45,37.75 C48,34 51,37 45,42.25Z" fill="#FFB3B3"/>
  <path d="M160,46.8 C155.2,42.6 157.6,40.2 160,43.2 C162.4,40.2 164.8,42.6 160,46.8Z" fill="#FFD6D6"/>
</svg>