<svg xmlns="http://www.w3.org/2000/svg" viewBox="0 0 200 150" width="200" height="150">
  <defs>
    <linearGradient id="bg69017" gradientTransform="rotate(180)">
      <stop offset="0%" style="stop-color:#E0F4FF"/>
      <stop offset="100%" style="stop-color:#BAE6FD"/>
    </linearGradient>
  </defs>
  <rect width="200" height="150" fill="url(#bg69017)" rx="16"/>
  <rect x="0" y="0" width="200" height="150" rx="0" fill="#1a1a3e"/>
  <polygon points="22.06801008785078,50.41506017772031 22.786868023967326,51.87162544885355 24.394283235289127,52.10519655109115 23.23114666156995,53.2389744977218 23.505725960083872,54.83989464882766 22.06801008785078,54.08404268440722 20.63029421561769,54.83989464882766 20.90487351413161,53.2389744977218 19.741736940412434,52.10519655109115 21.349152151734234,51.87162544885355" fill="#FFF3B0"/>
  <polygon points="57.431977493306476,21.757881176728006 58.32814383778932,23.573712523855967 60.33203270320044,23.864894620279486 58.88200509825346,25.278322207065592 59.224310182272156,27.274113986698737 57.431977493306476,26.331828928841333 55.6396448043408,27.274113986698737 55.981949888359495,25.278322207065592 54.53192228341251,23.864894620279486 56.53581114882363,23.573712523855967" fill="#FFF3B0"/>
  <polygon points="101.37149673177191,48.6053070058947 102.66416107395453,51.22453104649878 105.5546464151649,51.64454315189187 103.46307157346841,53.68332473852911 103.95682541613714,56.56213053595252 101.37149673177191,55.20294281152769 98.78616804740669,56.56213053595252 99.27992189007541,53.68332473852911 97.18834704837893,51.64454315189187 100.0788323895893,51.22453104649878" fill="#FFF3B0"/>
  <polygon points="84.8450960228547,29.924422080234763 85.51570946583035,31.283233331134078 87.01524671094909,31.50112884731543 85.9301713669019,32.55881590084832 86.186322908806,34.05229398674392 84.8450960228547,33.347169284388656 83.5038691369034,34.05229398674392 83.7600206788075,32.55881590084832 82.67494533476032,31.50112884731543 84.17448257987905,31.283233331134078" fill="#FFF3B0"/>
  <polygon points="128.8477630334637,12.801041783843175 130.05657525342323,15.25036286726384 132.75956154928517,15.643129766575715 130.80366229137442,17.54966034480328 131.26538747338276,20.241724721654588 128.8477630334637,18.970704336169547 126.43013859354465,20.241724721654588 126.89186377555298,17.54966034480328 124.93596451764225,15.643129766575713 127.63895081350418,15.25036286726384" fill="#FFF3B0"/>
  <polygon points="156.6159311052479,14.75902517663053 157.67011188705192,16.895028744410375 160.02733177573953,17.237552843808697 158.32163144049372,18.900199748186004 158.72429266885592,21.247894851359963 156.6159311052479,20.13946358177509 154.5075695416399,21.247894851359963 154.9102307700021,18.900199748186004 153.2045304347563,17.237552843808697 155.5617503234439,16.895028744410375" fill="#FFF3B0"/>
  <polygon points="120.66436148654248,21.934128080403752 121.44497239789463,23.51581854609664 123.1904714596561,23.769454406289274 121.92741647309929,25.00062873396176 122.22558330924677,26.73907478201951 120.66436148654248,25.91829189690452 119.10313966383818,26.73907478201951 119.40130649998567,25.00062873396176 118.13825151342886,23.769454406289274 119.88375057519032,23.51581854609664" fill="#FFF3B0"/>
  <polygon points="171.0201155382356,37.94374612495449 172.45640186196326,40.85398008557142 175.66803571697162,41.3206578015805 173.34407562760362,43.58595902046507 173.89268818569096,46.78461567136778 171.0201155382356,45.27441485877807 168.14754289078022,46.78461567136778 168.69615544886756,43.58595902046507 166.37219535949956,41.320657801580495 169.58382921450792,40.85398008557142" fill="#FFF3B0"/>
  <polygon points="40.16154513818947,26.192747153828236 41.162298425448306,28.22049479346385 43.40005080446545,28.545659247564075 41.78079797132746,30.124040663566483 42.16305171270715,32.35275098776934 40.16154513818947,31.300496710434402 38.16003856367178,32.35275098776934 38.542292305051475,30.124040663566483 36.923039471913484,28.545659247564075 39.16079185093063,28.22049479346385" fill="#FFF3B0"/>
  <polygon points="38.543493756560565,28.129887467293884 39.855341930351216,30.787982196365963 42.788723623106065,31.214227506497714 40.666108689833315,33.28326570451296 41.167190104141866,36.204794522791694 38.543493756560565,34.82543572411487 35.919797408979264,36.204794522791694 36.420878823287815,33.28326570451296 34.298263890015065,31.214227506497714 37.231645582769914,30.787982196365963" fill="#FFF3B0"/>
  <path d="M155 25 A22 22 0 1 1 175 50 A18 18 0 1 0 155 25" fill="#FFE566"/>
  <rect x="35" y="75" width="130" height="50" rx="8" fill="#C9B8E8"/>
  <rect x="45" y="65" width="90" height="20" rx="8" fill="white"/>
  <rect x="40" y="90" width="120" height="30" rx="6" fill="#BAE6FD"/>
  <text x="170" y="75" fill="#E2D9F3" font-size="16" font-weight="bold">z</text>
  <text x="178" y="65" fill="#E2D9F3" font-size="13" font-weight="bold">z</text>
</svg>