<svg xmlns="http://www.w3.org/2000/svg" viewBox="0 0 200 150" width="200" height="150">
  <defs>
    <linearGradient id="bg69298" gradientTransform="rotate(135)">
      <stop offset="0%" style="stop-color:#E2D9F3"/>
      <stop offset="100%" style="stop-color:#C9B8E8"/>
    </linearGradient>
  </defs>
  <rect width="200" height="150" fill="url(#bg69298)" rx="16"/>
  <circle cx="25.34782215066116" cy="35.26673061875272" r="3.442357825223098" fill="#E2D9F3" opacity="0.3"/><circle cx="159.26923770066423" cy="109.7302495070835" r="2.751992611377318" fill="#E2D9F3" opacity="0.3"/><circle cx="62.18187189579112" cy="55.1242968126644" r="3.779973413424159" fill="#E2D9F3" opacity="0.3"/><circle cx="17.128569263331883" cy="17.49531014020249" r="2.180039366337951" fill="#E2D9F3" opacity="0.3"/><circle cx="38.896293647849234" cy="82.62924635882882" r="3.8943268851962785" fill="#E2D9F3" opacity="0.3"/><circle cx="116.93246235954575" cy="89.35987710419795" r="3.66925443495893" fill="#E2D9F3" opacity="0.3"/>
  <circle cx="100" cy="75" r="48" fill="#FFE5D9" opacity="1"/>
  <circle cx="80" cy="68" r="8" fill="#333" opacity="1"/>
  <circle cx="120" cy="68" r="8" fill="#333" opacity="1"/>
  <circle cx="78" cy="65" r="3" fill="white" opacity="1"/>
  <circle cx="118" cy="65" r="3" fill="white" opacity="1"/>
  <path d="M72 92 Q100 115 128 92" stroke="#333" stroke-width="4" fill="none" stroke-linecap="round"/>
  <ellipse cx="60" cy="82" rx="12" ry="7" fill="#FFB3B3" opacity="0.4"/>
  <ellipse cx="140" cy="82" rx="12" ry="7" fill="#FFB3B3" opacity="0.4"/>
  <path d="M45,42.25 C39,37 42,34 45,37.75 C48,34 51,37 45,42.25Z" fill="#FFB3B3"/>
  <path d="M160,46.8 C155.2,42.6 157.6,40.2 160,43.2 C162.4,40.2 164.8,42.6 160,46.8Z" fill="#FFD6D6"/>
</svg>