<svg xmlns="http://www.w3.org/2000/svg" viewBox="0 0 200 150" width="200" height="150">
  <defs>
    <linearGradient id="bg69447" gradientTransform="rotate(135)">
      <stop offset="0%" style="stop-color:#D0F0F0"/>
      <stop offset="100%" style="stop-color:#A0E0E0"/>
    </linearGradient>
  </defs>
  <rect width="200" height="150" fill="url(#bg69447)" rx="16"/>
  <circle cx="141.6801259110798" cy="93.414924136232" r="3.1224059390597176" fill="#D0F0F0" opacity="0.3"/><circle cx="108.4833354411785" cy="47.88172125778889" r="3.1071489341593406" fill="#D0F0F0" opacity="0.3"/><circle cx="92.09559454652663" cy="39.55443715499314" r="3.288658190938804" fill="#D0F0F0" opacity="0.3"/><circle cx="41.542325385853474" cy="38.50272877502903" r="2.98276370534586" fill="#D0F0F0" opacity="0.3"/><circle cx="22.921420062630204" cy="122.01835039013531" r="2.0143467863845217" fill="#D0F0F0" opacity="0.3"/><circle cx="154.59935868293542" cy="148.5813001068891" r="4.7682381937338505" fill="#D0F0F0" opacity="0.3"/>
  <circle cx="100" cy="75" r="48" fill="#FFE5D9" opacity="1"/>
  <circle cx="80" cy="68" r="8" fill="#333" opacity="1"/>
  <circle cx="120" cy="68" r="8" fill="#333" opacity="1"/>
  <circle cx="78" cy="65" r="3" fill="white" opacity="1"/>
  <circle cx="118" cy="65" r="3" fill="white" opacity="1"/>
  <path d="M72 92 Q100 115 128 92" stroke="#333" stroke-width="4" fill="none" stroke-linecap="round"/>
  <ellipse cx="60" cy="82" rx="12" ry="7" fill="#FFB3B3" opacity="0.4"/>
  <ellipse cx="140" cy="82" rx="12" ry="7" fill="#FFB3B3" opacity="0.4"/>
  <path d="M45,42.25 C39,37 42,34 45,37.75 C48,34 51,37 45,42.25Z" fill="#FFB3B3"/>
  <path d="M160,46.8 C155.2,42.6 157.6,40.2 160,43.2 C162.4,40.2 164.8,42.6 160,46.8Z" fill="#FFD6D6"/>
</svg>