<svg xmlns="http://www.w3.org/2000/svg" viewBox="0 0 200 150" width="200" height="150">
  <defs>
    <linearGradient id="bg69475" gradientTransform="rotate(180)">
      <stop offset="0%" style="stop-color:#F0F7FF"/>
      <stop offset="100%" style="stop-color:#DCE8F5"/>
    </linearGradient>
  </defs>
  <rect width="200" height="150" fill="url(#bg69475)" rx="16"/>
  <rect x="0" y="0" width="200" height="150" rx="0" fill="#1a1a3e"/>
  <polygon points="29.835638593322074,23.43942831104141 30.755300352642024,25.30286656846862 32.81172656278848,25.601682787943876 31.323682578055276,27.052167186446024 31.674962111961975,29.10028402389869 29.835638593322074,28.133294424897258 27.996315074682173,29.10028402389869 28.34759460858887,27.052167186446024 26.859550623855664,25.601682787943876 28.915976834002123,25.30286656846862" fill="#FFF3B0"/>
  <polygon points="47.3462213232051,14.032492118062692 48.479280984653876,16.328321752919365 51.01287941021623,16.69647515393106 49.179550366710664,18.483529301663438 49.61234064610265,21.006890251419208 47.3462213232051,19.815520819597623 45.080102000307555,21.006890251419208 45.512892279699535,18.483529301663438 43.67956323619397,16.696475153931058 46.213161661756324,16.328321752919365" fill="#FFF3B0"/>
  <polygon points="166.20520387814395,45.7529154434942 167.36000917446185,48.092806547186065 169.9422323178055,48.46802553327383 168.07371809797473,50.289376751416675 168.51481447077978,52.86116594173505 166.20520387814395,51.64693179630649 163.8955932855081,52.86116594173505 164.33668965831316,50.289376751416675 162.4681754384824,48.46802553327383 165.05039858182604,48.092806547186065" fill="#FFF3B0"/>
  <polygon points="26.45119847674323,33.615719233898744 27.6455884756395,36.03581770562115 30.316325704817455,36.423898541246146 28.383762090780344,38.307682488517266 28.83997847453577,40.96762810703838 26.45119847674323,39.711772142190966 24.06241847895069,40.96762810703838 24.518634862706115,38.307682488517266 22.586071248669004,36.423898541246146 25.25680847784696,36.03581770562115" fill="#FFF3B0"/>
  <polygon points="79.31233440600408,36.255989467570544 80.49566136482096,38.6536717716982 83.14166088434358,39.03815800770119 81.22699764517384,40.904493401879236 81.67898832363784,43.53980126806325 79.31233440600408,42.29557767194456 76.94568048837033,43.53980126806325 77.39767116683433,40.904493401879236 75.48300792766459,39.03815800770119 78.1290074471872,38.6536717716982" fill="#FFF3B0"/>
  <polygon points="55.980649630528205,33.7450279752411 56.792437451566016,35.389889759810586 58.607650202712996,35.65365561202777 57.2941499166206,36.9340019539047 57.60422527260383,38.74188000021598 55.980649630528205,37.88831577229803 54.35707398845258,38.74188000021598 54.66714934443581,36.9340019539047 53.353649058343414,35.65365561202776 55.168861809490394,35.389889759810586" fill="#FFF3B0"/>
  <polygon points="68.50019614583289,33.596409439946 69.30783382851338,35.232862125724246 71.11376658817736,35.49527951624704 69.80698136700512,36.76908028756184 70.11547151119386,38.56771583992223 68.50019614583289,37.71851532571236 66.88492078047192,38.56771583992223 67.19341092466065,36.76908028756184 65.88662570348842,35.49527951624704 67.6925584631524,35.232862125724246" fill="#FFF3B0"/>
  <polygon points="97.11275494899382,49.870130525655895 98.084232504003,51.83855905265539 100.2565223556188,52.154211244726056 98.6846386523063,53.68641917090731 99.05571005901217,55.84993148122989 97.11275494899382,54.82845953044239 95.16979983897548,55.84993148122989 95.54087124568134,53.68641917090731 93.96898754236885,52.154211244726056 96.14127739398465,51.83855905265539" fill="#FFF3B0"/>
  <polygon points="176.97321562921388,50.730436501767144 178.0462166922496,52.904574124494154 180.445520009127,53.25321330395331 178.70936781917044,54.94554343047765 179.11921775528532,57.335151915920285 176.97321562921388,56.20693183157073 174.82721350314245,57.335151915920285 175.23706343925733,54.94554343047765 173.50091124930077,53.2532133039533 175.90021456617816,52.904574124494154" fill="#FFF3B0"/>
  <polygon points="149.04230889036626,11.080592259455443 149.6332319518835,12.277933161007644 150.95457608690833,12.469935702652844 149.9984424886373,13.401935617577744 150.22415501340072,14.717940615793045 149.04230889036626,14.096607339176444 147.8604627673318,14.717940615793045 148.08617529209522,13.401935617577744 147.13004169382418,12.469935702652842 148.45138582884903,12.277933161007644" fill="#FFF3B0"/>
  <path d="M155 25 A22 22 0 1 1 175 50 A18 18 0 1 0 155 25" fill="#FFE566"/>
  <rect x="35" y="75" width="130" height="50" rx="8" fill="#C9B8E8"/>
  <rect x="45" y="65" width="90" height="20" rx="8" fill="white"/>
  <rect x="40" y="90" width="120" height="30" rx="6" fill="#DCE8F5"/>
  <text x="170" y="75" fill="#E2D9F3" font-size="16" font-weight="bold">z</text>
  <text x="178" y="65" fill="#E2D9F3" font-size="13" font-weight="bold">z</text>
</svg>