<svg xmlns="http://www.w3.org/2000/svg" viewBox="0 0 200 150" width="200" height="150">
  <defs>
    <linearGradient id="bg70947" gradientTransform="rotate(180)">
      <stop offset="0%" style="stop-color:#FFD6D6"/>
      <stop offset="100%" style="stop-color:#FFB3B3"/>
    </linearGradient>
  </defs>
  <rect width="200" height="150" fill="url(#bg70947)" rx="16"/>
  <circle cx="149.69664639793336" cy="18.426375769013248" r="2.5266942303042015" fill="#FFD6D6" opacity="0.3"/><circle cx="112.28640018343867" cy="107.87475216211533" r="3.6724860759054536" fill="#FFD6D6" opacity="0.3"/><circle cx="16.713658950538957" cy="44.38466777173744" r="2.2869315696839294" fill="#FFD6D6" opacity="0.3"/><circle cx="138.55757087585516" cy="37.224431614413334" r="4.403730558624375" fill="#FFD6D6" opacity="0.3"/><circle cx="67.713820944482" cy="88.14239697530013" r="2.091180935076409" fill="#FFD6D6" opacity="0.3"/><circle cx="128.87649571403017" cy="106.117982911519" r="2.4600636731502163" fill="#FFD6D6" opacity="0.3"/>
  <circle cx="100" cy="75" r="48" fill="#FFE5D9" opacity="1"/>
  <circle cx="80" cy="68" r="8" fill="#333" opacity="1"/>
  <circle cx="120" cy="68" r="8" fill="#333" opacity="1"/>
  <circle cx="78" cy="65" r="3" fill="white" opacity="1"/>
  <circle cx="118" cy="65" r="3" fill="white" opacity="1"/>
  <path d="M72 92 Q100 115 128 92" stroke="#333" stroke-width="4" fill="none" stroke-linecap="round"/>
  <ellipse cx="60" cy="82" rx="12" ry="7" fill="#FFB3B3" opacity="0.4"/>
  <ellipse cx="140" cy="82" rx="12" ry="7" fill="#FFB3B3" opacity="0.4"/>
  <path d="M45,42.25 C39,37 42,34 45,37.75 C48,34 51,37 45,42.25Z" fill="#FFB3B3"/>
  <path d="M160,46.8 C155.2,42.6 157.6,40.2 160,43.2 C162.4,40.2 164.8,42.6 160,46.8Z" fill="#FFD6D6"/>
</svg>