<svg xmlns="http://www.w3.org/2000/svg" viewBox="0 0 200 150" width="200" height="150">
  <defs>
    <linearGradient id="bg71278" gradientTransform="rotate(45)">
      <stop offset="0%" style="stop-color:#E2D9F3"/>
      <stop offset="100%" style="stop-color:#C9B8E8"/>
    </linearGradient>
  </defs>
  <rect width="200" height="150" fill="url(#bg71278)" rx="16"/>
  <rect x="0" y="100" width="200" height="50" rx="0" fill="#C5DBC5"/>
  <circle cx="165" cy="35" r="22" fill="#FFE566" opacity="1"/>
  <line x1="191" y1="35" x2="200" y2="35" stroke="#FFF3B0" stroke-width="3" stroke-linecap="round"/>
  <line x1="183.38477631085024" y1="53.384776310850235" x2="189.74873734152916" y2="59.748737341529164" stroke="#FFF3B0" stroke-width="3" stroke-linecap="round"/>
  <line x1="165" y1="61" x2="165" y2="70" stroke="#FFF3B0" stroke-width="3" stroke-linecap="round"/>
  <line x1="146.61522368914976" y1="53.38477631085024" x2="140.25126265847084" y2="59.748737341529164" stroke="#FFF3B0" stroke-width="3" stroke-linecap="round"/>
  <line x1="139" y1="35" x2="130" y2="35.00000000000001" stroke="#FFF3B0" stroke-width="3" stroke-linecap="round"/>
  <line x1="146.61522368914976" y1="16.615223689149765" x2="140.25126265847084" y2="10.25126265847084" stroke="#FFF3B0" stroke-width="3" stroke-linecap="round"/>
  <line x1="165" y1="9" x2="165" y2="0" stroke="#FFF3B0" stroke-width="3" stroke-linecap="round"/>
  <line x1="183.38477631085024" y1="16.61522368914976" x2="189.74873734152916" y2="10.251262658470832" stroke="#FFF3B0" stroke-width="3" stroke-linecap="round"/>
  <rect x="90" y="55" width="14" height="50" rx="2" fill="#8B6914"/>
  <path d="M75.0446329961269,34.118413468211656 Q85.0446329961269,46.118413468211656 75.0446329961269,58.118413468211656 Q65.0446329961269,46.118413468211656 75.0446329961269,34.118413468211656Z" fill="#B7E4C7"/>
  <path d="M93.75250477685768,33.4207142650921 Q103.75250477685768,45.4207142650921 93.75250477685768,57.4207142650921 Q83.75250477685768,45.4207142650921 93.75250477685768,33.4207142650921Z" fill="#95D5B2"/>
  <path d="M103.98680342725129,31.695679618685972 Q113.98680342725129,43.69567961868597 103.98680342725129,55.69567961868597 Q93.98680342725129,43.69567961868597 103.98680342725129,31.695679618685972Z" fill="#B7E4C7"/>
  <path d="M112.6364493864603,40.67622702875087 Q122.6364493864603,52.67622702875087 112.6364493864603,64.67622702875087 Q102.6364493864603,52.67622702875087 112.6364493864603,40.67622702875087Z" fill="#95D5B2"/>
  <path d="M127.97788733595962,31.48358807450495 Q137.97788733595962,43.48358807450495 127.97788733595962,55.48358807450495 Q117.97788733595962,43.48358807450495 127.97788733595962,31.48358807450495Z" fill="#B7E4C7"/>
  <circle cx="45" cy="95" r="8" fill="#FFB3B3" opacity="1"/>
  <circle cx="155" cy="98" r="6" fill="#C9B8E8" opacity="1"/>
</svg>