<svg xmlns="http://www.w3.org/2000/svg" viewBox="0 0 200 150" width="200" height="150">
  <defs>
    <linearGradient id="bg71514" gradientTransform="rotate(45)">
      <stop offset="0%" style="stop-color:#E0F4FF"/>
      <stop offset="100%" style="stop-color:#BAE6FD"/>
    </linearGradient>
  </defs>
  <rect width="200" height="150" fill="url(#bg71514)" rx="16"/>
  <circle cx="54.32318487910379" cy="44.54227305157019" r="4.165519610840192" fill="#E0F4FF" opacity="0.3"/><circle cx="176.85095281340182" cy="87.80690572575622" r="2.7559891024520766" fill="#E0F4FF" opacity="0.3"/><circle cx="8.403358447685605" cy="126.19030316127464" r="2.2422208344560204" fill="#E0F4FF" opacity="0.3"/><circle cx="20.744504985486856" cy="62.444367396165035" r="4.329396476276088" fill="#E0F4FF" opacity="0.3"/><circle cx="180.41558106433513" cy="58.67780503569975" r="3.5100694124848815" fill="#E0F4FF" opacity="0.3"/><circle cx="170.0802885932717" cy="71.21453685620054" r="4.7885038661315775" fill="#E0F4FF" opacity="0.3"/>
  <circle cx="100" cy="75" r="48" fill="#FFE5D9" opacity="1"/>
  <circle cx="80" cy="68" r="8" fill="#333" opacity="1"/>
  <circle cx="120" cy="68" r="8" fill="#333" opacity="1"/>
  <circle cx="78" cy="65" r="3" fill="white" opacity="1"/>
  <circle cx="118" cy="65" r="3" fill="white" opacity="1"/>
  <path d="M72 92 Q100 115 128 92" stroke="#333" stroke-width="4" fill="none" stroke-linecap="round"/>
  <ellipse cx="60" cy="82" rx="12" ry="7" fill="#FFB3B3" opacity="0.4"/>
  <ellipse cx="140" cy="82" rx="12" ry="7" fill="#FFB3B3" opacity="0.4"/>
  <path d="M45,42.25 C39,37 42,34 45,37.75 C48,34 51,37 45,42.25Z" fill="#FFB3B3"/>
  <path d="M160,46.8 C155.2,42.6 157.6,40.2 160,43.2 C162.4,40.2 164.8,42.6 160,46.8Z" fill="#FFD6D6"/>
</svg>