<svg xmlns="http://www.w3.org/2000/svg" viewBox="0 0 200 150" width="200" height="150">
  <defs>
    <linearGradient id="bg71800" gradientTransform="rotate(0)">
      <stop offset="0%" style="stop-color:#D0F0F0"/>
      <stop offset="100%" style="stop-color:#A0E0E0"/>
    </linearGradient>
  </defs>
  <rect width="200" height="150" fill="url(#bg71800)" rx="16"/>
  <circle cx="102.86349899361085" cy="39.97381184253754" r="4.7047506584594885" fill="#D0F0F0" opacity="0.3"/><circle cx="193.91042984989326" cy="81.20972354672631" r="4.78908458364981" fill="#D0F0F0" opacity="0.3"/><circle cx="115.16646812815452" cy="9.437451761914417" r="2.8888712559410124" fill="#D0F0F0" opacity="0.3"/><circle cx="124.20139131281758" cy="23.79656017765228" r="3.5756944106306037" fill="#D0F0F0" opacity="0.3"/><circle cx="195.92678398257704" cy="5.3644492439161695" r="3.19928657039236" fill="#D0F0F0" opacity="0.3"/><circle cx="197.74632170956465" cy="113.94862967399604" r="2.177542003477356" fill="#D0F0F0" opacity="0.3"/>
  <circle cx="100" cy="75" r="48" fill="#FFE5D9" opacity="1"/>
  <circle cx="80" cy="68" r="8" fill="#333" opacity="1"/>
  <circle cx="120" cy="68" r="8" fill="#333" opacity="1"/>
  <circle cx="78" cy="65" r="3" fill="white" opacity="1"/>
  <circle cx="118" cy="65" r="3" fill="white" opacity="1"/>
  <path d="M72 92 Q100 115 128 92" stroke="#333" stroke-width="4" fill="none" stroke-linecap="round"/>
  <ellipse cx="60" cy="82" rx="12" ry="7" fill="#FFB3B3" opacity="0.4"/>
  <ellipse cx="140" cy="82" rx="12" ry="7" fill="#FFB3B3" opacity="0.4"/>
  <path d="M45,42.25 C39,37 42,34 45,37.75 C48,34 51,37 45,42.25Z" fill="#FFB3B3"/>
  <path d="M160,46.8 C155.2,42.6 157.6,40.2 160,43.2 C162.4,40.2 164.8,42.6 160,46.8Z" fill="#FFD6D6"/>
</svg>