<svg xmlns="http://www.w3.org/2000/svg" viewBox="0 0 200 150" width="200" height="150">
  <defs>
    <linearGradient id="bg71879" gradientTransform="rotate(90)">
      <stop offset="0%" style="stop-color:#E2D9F3"/>
      <stop offset="100%" style="stop-color:#C9B8E8"/>
    </linearGradient>
  </defs>
  <rect width="200" height="150" fill="url(#bg71879)" rx="16"/>
  <circle cx="149.65407029376365" cy="56.736943670375695" r="4.244111163664911" fill="#E2D9F3" opacity="0.3"/><circle cx="155.28857170356787" cy="136.44708732899744" r="3.8606384080230782" fill="#E2D9F3" opacity="0.3"/><circle cx="197.93391844686994" cy="27.227851350835408" r="2.197808204342209" fill="#E2D9F3" opacity="0.3"/><circle cx="190.48533077839238" cy="19.029447650572706" r="3.619966195721645" fill="#E2D9F3" opacity="0.3"/><circle cx="85.28754554481566" cy="27.126843933911005" r="2.4609994438706053" fill="#E2D9F3" opacity="0.3"/><circle cx="70.66087770399463" cy="93.65305413753049" r="3.64447263492184" fill="#E2D9F3" opacity="0.3"/>
  <circle cx="100" cy="75" r="48" fill="#FFE5D9" opacity="1"/>
  <circle cx="80" cy="68" r="8" fill="#333" opacity="1"/>
  <circle cx="120" cy="68" r="8" fill="#333" opacity="1"/>
  <circle cx="78" cy="65" r="3" fill="white" opacity="1"/>
  <circle cx="118" cy="65" r="3" fill="white" opacity="1"/>
  <path d="M72 92 Q100 115 128 92" stroke="#333" stroke-width="4" fill="none" stroke-linecap="round"/>
  <ellipse cx="60" cy="82" rx="12" ry="7" fill="#FFB3B3" opacity="0.4"/>
  <ellipse cx="140" cy="82" rx="12" ry="7" fill="#FFB3B3" opacity="0.4"/>
  <path d="M45,42.25 C39,37 42,34 45,37.75 C48,34 51,37 45,42.25Z" fill="#FFB3B3"/>
  <path d="M160,46.8 C155.2,42.6 157.6,40.2 160,43.2 C162.4,40.2 164.8,42.6 160,46.8Z" fill="#FFD6D6"/>
</svg>