<svg xmlns="http://www.w3.org/2000/svg" viewBox="0 0 200 150" width="200" height="150">
  <defs>
    <linearGradient id="bg71889" gradientTransform="rotate(0)">
      <stop offset="0%" style="stop-color:#F0F7FF"/>
      <stop offset="100%" style="stop-color:#DCE8F5"/>
    </linearGradient>
  </defs>
  <rect width="200" height="150" fill="url(#bg71889)" rx="16"/>
  <circle cx="24.345240020920755" cy="80.20286821035825" r="3.3015595032211422" fill="#F0F7FF" opacity="0.3"/><circle cx="84.81356056149707" cy="63.74506992760871" r="3.102995207440472" fill="#F0F7FF" opacity="0.3"/><circle cx="181.22798700779867" cy="15.937247998954263" r="2.799258980114246" fill="#F0F7FF" opacity="0.3"/><circle cx="151.5911307431452" cy="37.234645417993306" r="4.6708612425954925" fill="#F0F7FF" opacity="0.3"/><circle cx="86.87844717829876" cy="73.26305185574711" r="4.4373938510761946" fill="#F0F7FF" opacity="0.3"/><circle cx="78.76326767991486" cy="116.30058092670765" r="3.3237043871067726" fill="#F0F7FF" opacity="0.3"/>
  <ellipse cx="100" cy="95" rx="32" ry="28" fill="#DCE8F5" opacity="1"/>
  <circle cx="100" cy="58" r="28" fill="#DCE8F5" opacity="1"/>
  <ellipse cx="82" cy="25" rx="10" ry="24" fill="#DCE8F5" opacity="1"/>
  <ellipse cx="118" cy="25" rx="10" ry="24" fill="#DCE8F5" opacity="1"/>
  <ellipse cx="82" cy="27" rx="5" ry="15" fill="#FFD6D6" opacity="1"/>
  <ellipse cx="118" cy="27" rx="5" ry="15" fill="#FFD6D6" opacity="1"/>
  <circle cx="88" cy="52" r="5" fill="#333" opacity="1"/>
  <circle cx="112" cy="52" r="5" fill="#333" opacity="1"/>
  <circle cx="86" cy="50" r="2" fill="white" opacity="1"/>
  <circle cx="110" cy="50" r="2" fill="white" opacity="1"/>
  <ellipse cx="100" cy="68" rx="6" ry="4" fill="#FFB3B3" opacity="1"/>
  <path d="M50,46.8 C45.2,42.6 47.6,40.2 50,43.2 C52.4,40.2 54.8,42.6 50,46.8Z" fill="#FFB3B3"/>
  <path d="M155,51.5 C151,48 153,46 155,48.5 C157,46 159,48 155,51.5Z" fill="#FFD6D6"/>
</svg>