<svg xmlns="http://www.w3.org/2000/svg" viewBox="0 0 200 150" width="200" height="150">
  <defs>
    <linearGradient id="bg71893" gradientTransform="rotate(45)">
      <stop offset="0%" style="stop-color:#D4E9FF"/>
      <stop offset="100%" style="stop-color:#A8D0F0"/>
    </linearGradient>
  </defs>
  <rect width="200" height="150" fill="url(#bg71893)" rx="16"/>
  <circle cx="29.2364805995021" cy="100.58613001547201" r="4.9530547278127415" fill="#D4E9FF" opacity="0.3"/><circle cx="95.08392332606945" cy="54.760925248683634" r="2.89746953408212" fill="#D4E9FF" opacity="0.3"/><circle cx="66.1290620233558" cy="106.5311914015183" r="3.1387514783855295" fill="#D4E9FF" opacity="0.3"/><circle cx="170.45343370482442" cy="121.14455491064291" r="3.046996396445138" fill="#D4E9FF" opacity="0.3"/><circle cx="98.77443570185278" cy="114.54755971817576" r="3.9013284976581417" fill="#D4E9FF" opacity="0.3"/><circle cx="198.59079568705056" cy="94.74508975663412" r="4.573900448832319" fill="#D4E9FF" opacity="0.3"/>
  <circle cx="100" cy="75" r="48" fill="#FFE5D9" opacity="1"/>
  <circle cx="80" cy="68" r="8" fill="#333" opacity="1"/>
  <circle cx="120" cy="68" r="8" fill="#333" opacity="1"/>
  <circle cx="78" cy="65" r="3" fill="white" opacity="1"/>
  <circle cx="118" cy="65" r="3" fill="white" opacity="1"/>
  <path d="M72 92 Q100 115 128 92" stroke="#333" stroke-width="4" fill="none" stroke-linecap="round"/>
  <ellipse cx="60" cy="82" rx="12" ry="7" fill="#FFB3B3" opacity="0.4"/>
  <ellipse cx="140" cy="82" rx="12" ry="7" fill="#FFB3B3" opacity="0.4"/>
  <path d="M45,42.25 C39,37 42,34 45,37.75 C48,34 51,37 45,42.25Z" fill="#FFB3B3"/>
  <path d="M160,46.8 C155.2,42.6 157.6,40.2 160,43.2 C162.4,40.2 164.8,42.6 160,46.8Z" fill="#FFD6D6"/>
</svg>