<svg xmlns="http://www.w3.org/2000/svg" viewBox="0 0 200 150" width="200" height="150">
  <defs>
    <linearGradient id="bg72531" gradientTransform="rotate(45)">
      <stop offset="0%" style="stop-color:#D0F0F0"/>
      <stop offset="100%" style="stop-color:#A0E0E0"/>
    </linearGradient>
  </defs>
  <rect width="200" height="150" fill="url(#bg72531)" rx="16"/>
  <circle cx="19.537373716048023" cy="86.99319842144178" r="4.395267578847779" fill="#D0F0F0" opacity="0.3"/><circle cx="100.27914993443119" cy="99.55387743357278" r="3.2166971096012276" fill="#D0F0F0" opacity="0.3"/><circle cx="129.9920190417197" cy="54.735945302354594" r="3.0821344806972775" fill="#D0F0F0" opacity="0.3"/><circle cx="37.7889451468036" cy="15.735272840913694" r="3.183994918245844" fill="#D0F0F0" opacity="0.3"/><circle cx="183.1900349503485" cy="77.62853585018092" r="4.69725169717276" fill="#D0F0F0" opacity="0.3"/><circle cx="160.45702458795859" cy="144.1710136022266" r="2.5436538981584818" fill="#D0F0F0" opacity="0.3"/>
  <circle cx="100" cy="75" r="48" fill="#FFE5D9" opacity="1"/>
  <circle cx="80" cy="68" r="8" fill="#333" opacity="1"/>
  <circle cx="120" cy="68" r="8" fill="#333" opacity="1"/>
  <circle cx="78" cy="65" r="3" fill="white" opacity="1"/>
  <circle cx="118" cy="65" r="3" fill="white" opacity="1"/>
  <path d="M72 92 Q100 115 128 92" stroke="#333" stroke-width="4" fill="none" stroke-linecap="round"/>
  <ellipse cx="60" cy="82" rx="12" ry="7" fill="#FFB3B3" opacity="0.4"/>
  <ellipse cx="140" cy="82" rx="12" ry="7" fill="#FFB3B3" opacity="0.4"/>
  <path d="M45,42.25 C39,37 42,34 45,37.75 C48,34 51,37 45,42.25Z" fill="#FFB3B3"/>
  <path d="M160,46.8 C155.2,42.6 157.6,40.2 160,43.2 C162.4,40.2 164.8,42.6 160,46.8Z" fill="#FFD6D6"/>
</svg>