<svg xmlns="http://www.w3.org/2000/svg" viewBox="0 0 200 150" width="200" height="150">
  <defs>
    <linearGradient id="bg72901" gradientTransform="rotate(45)">
      <stop offset="0%" style="stop-color:#FFD6D6"/>
      <stop offset="100%" style="stop-color:#FFB3B3"/>
    </linearGradient>
  </defs>
  <rect width="200" height="150" fill="url(#bg72901)" rx="16"/>
  <circle cx="27.2291310273431" cy="84.47040714750074" r="3.313076978220124" fill="#FFD6D6" opacity="0.3"/><circle cx="92.85725344275306" cy="85.26416867121043" r="3.6340878587816405" fill="#FFD6D6" opacity="0.3"/><circle cx="11.036397233874595" cy="32.657335021849576" r="2.9262053216393724" fill="#FFD6D6" opacity="0.3"/><circle cx="181.94213003989717" cy="19.63800099058517" r="3.333581436788336" fill="#FFD6D6" opacity="0.3"/><circle cx="197.87993950631062" cy="61.2210185386175" r="2.261380243322492" fill="#FFD6D6" opacity="0.3"/><circle cx="136.2193048210429" cy="58.857761579241696" r="2.9420996682702025" fill="#FFD6D6" opacity="0.3"/>
  <circle cx="100" cy="75" r="48" fill="#FFE5D9" opacity="1"/>
  <circle cx="80" cy="68" r="8" fill="#333" opacity="1"/>
  <circle cx="120" cy="68" r="8" fill="#333" opacity="1"/>
  <circle cx="78" cy="65" r="3" fill="white" opacity="1"/>
  <circle cx="118" cy="65" r="3" fill="white" opacity="1"/>
  <path d="M72 92 Q100 115 128 92" stroke="#333" stroke-width="4" fill="none" stroke-linecap="round"/>
  <ellipse cx="60" cy="82" rx="12" ry="7" fill="#FFB3B3" opacity="0.4"/>
  <ellipse cx="140" cy="82" rx="12" ry="7" fill="#FFB3B3" opacity="0.4"/>
  <path d="M45,42.25 C39,37 42,34 45,37.75 C48,34 51,37 45,42.25Z" fill="#FFB3B3"/>
  <path d="M160,46.8 C155.2,42.6 157.6,40.2 160,43.2 C162.4,40.2 164.8,42.6 160,46.8Z" fill="#FFD6D6"/>
</svg>