<svg xmlns="http://www.w3.org/2000/svg" viewBox="0 0 200 150" width="200" height="150">
  <defs>
    <linearGradient id="bg73018" gradientTransform="rotate(90)">
      <stop offset="0%" style="stop-color:#FFF5EB"/>
      <stop offset="100%" style="stop-color:#FFE4CC"/>
    </linearGradient>
  </defs>
  <rect width="200" height="150" fill="url(#bg73018)" rx="16"/>
  <rect x="0" y="0" width="200" height="150" rx="0" fill="#1a1a3e"/>
  <polygon points="48.40026875599506,9.570628056881105 49.66649696144161,12.136286633798864 52.49786930384767,12.547709117674097 50.44906902992137,14.54479580561219 50.93272516688816,17.364727461300753 48.40026875599506,16.033336336008688 45.86781234510195,17.364727461300753 46.351468482068746,14.544795805612193 44.30266820814244,12.547709117674096 47.134040550548505,12.136286633798866" fill="#FFF3B0"/>
  <polygon points="105.29281813275702,34.40877387021101 106.68323150179035,37.22605907233884 109.79229031177334,37.677831761843315 107.54255422226518,39.87078246226491 108.07364487082366,42.96727854169547 105.29281813275702,41.50531140808107 102.51199139469038,42.96727854169547 103.04308204324886,39.87078246226491 100.7933459537407,37.677831761843315 103.9024047637237,37.22605907233884" fill="#FFF3B0"/>
  <polygon points="150.63050775107513,11.577726214437462 151.7359246894242,13.817545574601876 154.20771210705237,14.176717310420962 152.41910992906375,15.920173539481699 152.84134162777326,18.381973240180606 150.63050775107513,17.21966908747345 148.419673874377,18.381973240180606 148.8419055730865,15.920173539481699 147.05330339509788,14.176717310420962 149.52509081272606,13.817545574601876" fill="#FFF3B0"/>
  <polygon points="124.81559284995285,43.53925963625409 125.89088778886303,45.718045159167154 128.29532036812765,46.067429664078624 126.55545660904025,47.763377676346586 126.96618272777319,50.1580946984375 124.81559284995285,49.02746269025886 122.66500297213251,50.1580946984375 123.07572909086545,47.763377676346586 121.33586533177805,46.067429664078624 123.74029791104267,45.718045159167154" fill="#FFF3B0"/>
  <polygon points="172.99013053583622,32.7405705991539 174.30953855887216,35.413983255889406 177.25982458843916,35.842684909941504 175.1249775621377,37.9236464518103 175.6289465819081,40.862011301783305 172.99013053583622,39.474703607204106 170.35131448976432,40.862011301783305 170.85528350953473,37.923646451810306 168.72043648323327,35.842684909941504 171.67072251280027,35.413983255889406" fill="#FFF3B0"/>
  <polygon points="171.85294182580037,25.324521573691527 172.95554303179944,27.558635636956847 175.42103428048657,27.916892485876097 173.63698805314348,29.65590776063745 174.0581442377985,32.111436733237305 171.85294182580037,30.952093216729736 169.64773941380224,32.111436733237305 170.06889559845726,29.65590776063745 168.28484937111418,27.916892485876097 170.7503406198013,27.558635636956847" fill="#FFF3B0"/>
  <polygon points="134.67685856026947,48.09173052653205 135.59073852678884,49.94345359215972 137.63423625520136,50.240391193274526 136.1555474077354,51.681756586699386 136.5046184933082,53.71699718235387 134.67685856026947,52.75608692007063 132.84909862723075,53.71699718235387 133.19816971280352,51.681756586699386 131.71948086533757,50.240391193274526 133.7629785937501,49.94345359215972" fill="#FFF3B0"/>
  <polygon points="46.63329231971147,38.0426985451395 47.43061350586956,39.65824772578921 49.213477878019795,39.917313083395754 47.92338509886564,41.174842745140865 48.22793469202764,42.950503122099065 46.63329231971147,42.11215001426899 45.03864994739531,42.950503122099065 45.34319954055731,41.174842745140865 44.05310676140315,39.917313083395754 45.835971133553386,39.65824772578921" fill="#FFF3B0"/>
  <polygon points="38.263189430726925,21.753994236898507 39.02327414648124,23.29409408759756 40.722875239566505,23.54106058255173 39.493032335146715,24.73986113130655 39.783358862235566,26.43259466996971 38.263189430726925,25.633394304133162 36.74301999921828,26.43259466996971 37.033346526307135,24.73986113130655 35.803503621887344,23.54106058255173 37.50310471497261,23.29409408759756" fill="#FFF3B0"/>
  <polygon points="56.85807155598013,6.872606024313427 57.92487787389862,9.034191722455711 60.31032931959063,9.380818107213134 58.584200437785384,11.063377923018157 58.99168419181712,13.439190508338026 56.85807155598013,12.31748396446801 54.72445892014314,13.439190508338026 55.13194267417488,11.063377923018157 53.405813792369635,9.380818107213132 55.79126523806164,9.034191722455711" fill="#FFF3B0"/>
  <path d="M155 25 A22 22 0 1 1 175 50 A18 18 0 1 0 155 25" fill="#FFE566"/>
  <rect x="35" y="75" width="130" height="50" rx="8" fill="#C9B8E8"/>
  <rect x="45" y="65" width="90" height="20" rx="8" fill="white"/>
  <rect x="40" y="90" width="120" height="30" rx="6" fill="#FFE4CC"/>
  <text x="170" y="75" fill="#E2D9F3" font-size="16" font-weight="bold">z</text>
  <text x="178" y="65" fill="#E2D9F3" font-size="13" font-weight="bold">z</text>
</svg>