<svg xmlns="http://www.w3.org/2000/svg" viewBox="0 0 200 150" width="200" height="150">
  <defs>
    <linearGradient id="bg7306" gradientTransform="rotate(90)">
      <stop offset="0%" style="stop-color:#E2D9F3"/>
      <stop offset="100%" style="stop-color:#C9B8E8"/>
    </linearGradient>
  </defs>
  <rect width="200" height="150" fill="url(#bg7306)" rx="16"/>
  <rect x="0" y="0" width="200" height="150" rx="0" fill="#1a1a3e"/>
  <polygon points="119.18921911522375,35.79182486204627 120.57526643996125,38.6002634921687 123.67456247810605,39.05061756788684 121.4318907966649,41.23668217233884 121.96131376469876,44.32345492822713 119.18921911522375,42.86607852525913 116.41712446574874,44.32345492822713 116.9465474337826,41.23668217233884 114.70387575234145,39.05061756788684 117.80317179048625,38.6002634921687" fill="#FFF3B0"/>
  <polygon points="165.2344923533019,11.929908857329508 166.08190048816255,13.646945280940345 167.9767626823973,13.922284874704562 166.6056275178496,15.258811338181841 166.92930862302322,17.146016989187554 165.2344923533019,16.25499934686937 163.5396760835806,17.146016989187554 163.8633571887542,15.258811338181841 162.4922220242065,13.922284874704562 164.38708421844126,13.646945280940345" fill="#FFF3B0"/>
  <polygon points="126.11102302313157,47.606876382743394 127.37044361962718,50.15874123731463 130.1865936856547,50.56795179495745 128.14880835439314,52.554301567421604 128.6298642161228,55.3590724551714 126.11102302313157,54.03483927352863 123.59218183014033,55.3590724551714 124.07323769186999,52.554301567421604 122.03545236060842,50.56795179495745 124.85160242663595,50.15874123731463" fill="#FFF3B0"/>
  <polygon points="183.27250064023247,49.31092602886565 184.60812904377127,52.01720476627997 187.59468494676355,52.451176741437834 185.433592793498,54.557720959348906 185.94375744731008,57.53220912757571 183.27250064023247,56.127846315635 180.60124383315485,57.53220912757571 181.11140848696692,54.557720959348906 178.95031633370138,52.451176741437834 181.93687223669366,52.01720476627997" fill="#FFF3B0"/>
  <polygon points="131.39705145119478,29.677267227915877 132.59323233964767,32.100994438227026 135.26797411961445,32.48965716914275 133.33251278540462,34.37626569548873 133.78941322810056,37.04019968366615 131.39705145119478,35.78246066610217 129.004689674289,37.04019968366615 129.46159011698495,34.37626569548873 127.52612878277513,32.48965716914275 130.2008705627419,32.100994438227026" fill="#FFF3B0"/>
  <polygon points="171.62950394356403,50.265202049015784 172.87235229325483,52.78348786390786 175.65144568888692,53.18731377215297 173.64047481622546,55.14752590738811 174.11520064294564,57.91538985911345 171.62950394356403,56.6085817689567 169.14380724418243,57.91538985911345 169.6185330709026,55.14752590738811 167.60756219824114,53.18731377215297 170.38665559387323,52.78348786390786" fill="#FFF3B0"/>
  <polygon points="127.3324382336341,36.870852767479846 128.06624157194372,38.35770073106712 129.70707571852031,38.59612788884538 128.51975697607722,39.75347762422414 128.80004491025335,41.387681675159406 127.3324382336341,40.6161151849069 125.86483155701484,41.387681675159406 126.14511949119098,39.75347762422414 124.95780074874787,38.59612788884538 126.59863489532447,38.35770073106712" fill="#FFF3B0"/>
  <polygon points="81.22475497803862,26.338281593655665 82.05914914512209,28.028948838390516 83.92491122275007,28.30005993769779 82.57483310039434,29.616060857917336 82.89354331220558,31.47428397675143 81.22475497803862,30.596950029938398 79.55596664387166,31.47428397675143 79.87467685568289,29.616060857917336 78.52459873332717,28.30005993769779 80.39036081095514,28.028948838390516" fill="#FFF3B0"/>
  <polygon points="77.93980483318592,12.284521828403285 78.9482908399301,14.32793766906706 81.2033341053674,14.655614636033517 79.57156946927665,16.246192045680125 79.95677684667429,18.49212338925965 77.93980483318592,17.431738449495242 75.92283281969755,18.49212338925965 76.30804019709518,16.246192045680125 74.67627556100443,14.655614636033516 76.93131882644174,14.327937669067062" fill="#FFF3B0"/>
  <polygon points="162.6970295521278,33.38780938187301 163.62752523647728,35.27319956909782 165.7081768394529,35.575535944202684 164.20260319579035,37.043107537068 164.55802092082675,39.11535188014305 162.6970295521278,38.13697081823284 160.83603818342883,39.11535188014305 161.19145590846523,37.043107537068 159.68588226480267,35.575535944202684 161.7665338677783,35.27319956909782" fill="#FFF3B0"/>
  <path d="M155 25 A22 22 0 1 1 175 50 A18 18 0 1 0 155 25" fill="#FFE566"/>
  <rect x="35" y="75" width="130" height="50" rx="8" fill="#C9B8E8"/>
  <rect x="45" y="65" width="90" height="20" rx="8" fill="white"/>
  <rect x="40" y="90" width="120" height="30" rx="6" fill="#C9B8E8"/>
  <text x="170" y="75" fill="#E2D9F3" font-size="16" font-weight="bold">z</text>
  <text x="178" y="65" fill="#E2D9F3" font-size="13" font-weight="bold">z</text>
</svg>