<svg xmlns="http://www.w3.org/2000/svg" viewBox="0 0 200 150" width="200" height="150">
  <defs>
    <linearGradient id="bg7309" gradientTransform="rotate(90)">
      <stop offset="0%" style="stop-color:#D8F3DC"/>
      <stop offset="100%" style="stop-color:#B7E4C7"/>
    </linearGradient>
  </defs>
  <rect width="200" height="150" fill="url(#bg7309)" rx="16"/>
  <rect x="0" y="0" width="200" height="150" rx="0" fill="#1a1a3e"/>
  <polygon points="87.13705184765786,35.528792673498 88.14152743623127,37.56408251939037 90.38760313402052,37.890456422503014 88.7623274908392,39.47470862733468 89.14600302480468,41.71170863839162 87.13705184765786,40.65554050183718 85.12810067051103,41.71170863839162 85.51177620447652,39.47470862733468 83.8865005612952,37.890456422503014 86.13257625908444,37.56408251939037" fill="#FFF3B0"/>
  <polygon points="77.81673893051448,7.597219231690133 78.93570375945292,9.864489616512094 81.4377851813907,10.228063328826078 79.62726205595258,11.99288720064609 80.05466858839137,14.48485849709407 77.81673893051448,13.308309249214062 75.57880927263759,14.48485849709407 76.00621580507637,11.99288720064609 74.19569267963826,10.228063328826078 76.69777410157603,9.864489616512094" fill="#FFF3B0"/>
  <polygon points="128.07032233666177,35.11718863572605 128.88822728333383,36.77444507062955 130.71711834322585,37.040198497449616 129.39372033994383,38.33019272911452 129.70613223000586,40.15169381441958 128.07032233666177,39.29169765997631 126.43451244331769,40.15169381441958 126.74692433337974,38.33019272911452 125.42352633009769,37.040198497449616 127.25241738998973,36.77444507062955" fill="#FFF3B0"/>
  <polygon points="163.9167837608329,44.94012196728363 164.64738816789924,46.4204881882071 166.28106928676047,46.65787595021751 165.09892652379668,47.81018035255586 165.37799257496556,49.43726027891504 163.9167837608329,48.669057344022804 162.45557494670027,49.43726027891504 162.73464099786915,47.81018035255586 161.55249823490536,46.65787595021751 163.1861793537666,46.4204881882071" fill="#FFF3B0"/>
  <polygon points="137.46367752415608,37.55129205583762 138.8087052475665,40.27661589550294 141.81627866873401,40.713641894818295 139.63997809644505,42.83501065739719 140.15373297097693,45.83043141860679 137.46367752415608,44.41618557688753 134.77362207733523,45.83043141860679 135.28737695186712,42.83501065739719 133.11107637957815,40.713641894818295 136.11864980074566,40.27661589550294" fill="#FFF3B0"/>
  <polygon points="40.281586239811986,34.57840113355451 41.1149585640019,36.26699789843994 42.97843573145754,36.53777698086464 41.63001098563476,37.85216625728165 41.94833088819181,39.708113698548054 40.281586239811986,38.831854180936716 38.61484159143216,39.708113698548054 38.93316149398921,37.85216625728165 37.584736748166435,36.537776980864635 39.44821391562207,36.26699789843994" fill="#FFF3B0"/>
  <polygon points="19.525035127517185,43.49783891354673 20.444327390241103,45.360528489096 22.499927380881378,45.65922465184951 21.012481254199283,47.1091262827826 21.36361965296502,49.15642023922271 19.525035127517185,48.18981915193399 17.68645060206935,49.15642023922271 18.037589000835087,47.1091262827826 16.550142874152993,45.65922465184951 18.605742864793267,45.360528489096" fill="#FFF3B0"/>
  <polygon points="177.35464664627216,50.66919727075401 178.0908418485982,52.16089168018898 179.7370243657084,52.40009600169688 178.54583550599028,53.56121816906379 178.82703705092422,55.2007489794465 177.35464664627216,54.42666753453523 175.8822562416201,55.2007489794465 176.16345778655403,53.56121816906379 174.9722689268359,52.40009600169688 176.61845144394613,52.16089168018898" fill="#FFF3B0"/>
  <polygon points="73.85817633121405,47.10733682081036 75.20284977757146,49.83194281676016 78.20963101116553,50.268853704483064 76.03390367118979,52.389663703654705 76.54752322392886,55.38429547827215 73.85817633121405,53.97042214549106 71.16882943849924,55.38429547827215 71.68244899123832,52.389663703654705 69.50672165126258,50.268853704483064 72.51350288485665,49.83194281676016" fill="#FFF3B0"/>
  <polygon points="105.6474108171551,26.79938866439352 106.50617851168916,28.539442069920167 108.42644145354807,28.818472608362804 107.03692613535158,30.17291529366091 107.3649462062232,32.08541905584429 105.6474108171551,31.182457265645553 103.92987542808702,32.08541905584429 104.25789549895863,30.17291529366091 102.86838018076214,28.8184726083628 104.78864312262105,28.539442069920167" fill="#FFF3B0"/>
  <path d="M155 25 A22 22 0 1 1 175 50 A18 18 0 1 0 155 25" fill="#FFE566"/>
  <rect x="35" y="75" width="130" height="50" rx="8" fill="#C9B8E8"/>
  <rect x="45" y="65" width="90" height="20" rx="8" fill="white"/>
  <rect x="40" y="90" width="120" height="30" rx="6" fill="#B7E4C7"/>
  <text x="170" y="75" fill="#E2D9F3" font-size="16" font-weight="bold">z</text>
  <text x="178" y="65" fill="#E2D9F3" font-size="13" font-weight="bold">z</text>
</svg>