<svg xmlns="http://www.w3.org/2000/svg" viewBox="0 0 200 150" width="200" height="150">
  <defs>
    <linearGradient id="bg73325" gradientTransform="rotate(135)">
      <stop offset="0%" style="stop-color:#FFD6D6"/>
      <stop offset="100%" style="stop-color:#FFB3B3"/>
    </linearGradient>
  </defs>
  <rect width="200" height="150" fill="url(#bg73325)" rx="16"/>
  <rect x="0" y="100" width="200" height="50" rx="0" fill="#C5DBC5"/>
  <circle cx="165" cy="35" r="22" fill="#FFE566" opacity="1"/>
  <line x1="191" y1="35" x2="200" y2="35" stroke="#FFF3B0" stroke-width="3" stroke-linecap="round"/>
  <line x1="183.38477631085024" y1="53.384776310850235" x2="189.74873734152916" y2="59.748737341529164" stroke="#FFF3B0" stroke-width="3" stroke-linecap="round"/>
  <line x1="165" y1="61" x2="165" y2="70" stroke="#FFF3B0" stroke-width="3" stroke-linecap="round"/>
  <line x1="146.61522368914976" y1="53.38477631085024" x2="140.25126265847084" y2="59.748737341529164" stroke="#FFF3B0" stroke-width="3" stroke-linecap="round"/>
  <line x1="139" y1="35" x2="130" y2="35.00000000000001" stroke="#FFF3B0" stroke-width="3" stroke-linecap="round"/>
  <line x1="146.61522368914976" y1="16.615223689149765" x2="140.25126265847084" y2="10.25126265847084" stroke="#FFF3B0" stroke-width="3" stroke-linecap="round"/>
  <line x1="165" y1="9" x2="165" y2="0" stroke="#FFF3B0" stroke-width="3" stroke-linecap="round"/>
  <line x1="183.38477631085024" y1="16.61522368914976" x2="189.74873734152916" y2="10.251262658470832" stroke="#FFF3B0" stroke-width="3" stroke-linecap="round"/>
  <rect x="90" y="55" width="14" height="50" rx="2" fill="#8B6914"/>
  <path d="M80.14282442393596,33.87722008935998 Q90.14282442393596,45.87722008935998 80.14282442393596,57.87722008935998 Q70.14282442393596,45.87722008935998 80.14282442393596,33.87722008935998Z" fill="#B7E4C7"/>
  <path d="M93.1466492523814,23.77256781001779 Q103.1466492523814,35.77256781001779 93.1466492523814,47.77256781001779 Q83.1466492523814,35.77256781001779 93.1466492523814,23.77256781001779Z" fill="#95D5B2"/>
  <path d="M106.03528790711698,42.886201496974536 Q116.03528790711698,54.886201496974536 106.03528790711698,66.88620149697454 Q96.03528790711698,54.886201496974536 106.03528790711698,42.886201496974536Z" fill="#B7E4C7"/>
  <path d="M117.5291564718791,42.05053521969421 Q127.5291564718791,54.05053521969421 117.5291564718791,66.05053521969421 Q107.5291564718791,54.05053521969421 117.5291564718791,42.05053521969421Z" fill="#95D5B2"/>
  <path d="M130.70391071971426,24.379227602556057 Q140.70391071971426,36.37922760255606 130.70391071971426,48.37922760255606 Q120.70391071971426,36.37922760255606 130.70391071971426,24.379227602556057Z" fill="#B7E4C7"/>
  <circle cx="45" cy="95" r="8" fill="#FFB3B3" opacity="1"/>
  <circle cx="155" cy="98" r="6" fill="#C9B8E8" opacity="1"/>
</svg>