<svg xmlns="http://www.w3.org/2000/svg" viewBox="0 0 200 150" width="200" height="150">
  <defs>
    <linearGradient id="bg73982" gradientTransform="rotate(45)">
      <stop offset="0%" style="stop-color:#D4E9FF"/>
      <stop offset="100%" style="stop-color:#A8D0F0"/>
    </linearGradient>
  </defs>
  <rect width="200" height="150" fill="url(#bg73982)" rx="16"/>
  <circle cx="57.82765635285614" cy="143.11788173677087" r="3.7207761963654775" fill="#D4E9FF" opacity="0.3"/><circle cx="157.29249773903575" cy="135.80920280783175" r="3.404301012906217" fill="#D4E9FF" opacity="0.3"/><circle cx="4.9672259205181035" cy="53.141078581779766" r="3.84882239570652" fill="#D4E9FF" opacity="0.3"/><circle cx="19.863226402230794" cy="74.67259329796434" r="3.3961230344593787" fill="#D4E9FF" opacity="0.3"/><circle cx="13.901282862207154" cy="85.83054774626362" r="2.3763090848106003" fill="#D4E9FF" opacity="0.3"/><circle cx="98.66193410298365" cy="27.847217326780083" r="4.018690272134336" fill="#D4E9FF" opacity="0.3"/>
  <circle cx="100" cy="75" r="48" fill="#FFE5D9" opacity="1"/>
  <circle cx="80" cy="68" r="8" fill="#333" opacity="1"/>
  <circle cx="120" cy="68" r="8" fill="#333" opacity="1"/>
  <circle cx="78" cy="65" r="3" fill="white" opacity="1"/>
  <circle cx="118" cy="65" r="3" fill="white" opacity="1"/>
  <path d="M72 92 Q100 115 128 92" stroke="#333" stroke-width="4" fill="none" stroke-linecap="round"/>
  <ellipse cx="60" cy="82" rx="12" ry="7" fill="#FFB3B3" opacity="0.4"/>
  <ellipse cx="140" cy="82" rx="12" ry="7" fill="#FFB3B3" opacity="0.4"/>
  <path d="M45,42.25 C39,37 42,34 45,37.75 C48,34 51,37 45,42.25Z" fill="#FFB3B3"/>
  <path d="M160,46.8 C155.2,42.6 157.6,40.2 160,43.2 C162.4,40.2 164.8,42.6 160,46.8Z" fill="#FFD6D6"/>
</svg>