<svg xmlns="http://www.w3.org/2000/svg" viewBox="0 0 200 150" width="200" height="150">
  <defs>
    <linearGradient id="bg7402" gradientTransform="rotate(90)">
      <stop offset="0%" style="stop-color:#FFF5EB"/>
      <stop offset="100%" style="stop-color:#FFE4CC"/>
    </linearGradient>
  </defs>
  <rect width="200" height="150" fill="url(#bg7402)" rx="16"/>
  <circle cx="111.44946916392655" cy="56.82302714396883" r="4.359803857158113" fill="#FFF5EB" opacity="0.3"/><circle cx="185.7391065423144" cy="119.86214287410348" r="2.9654880697171393" fill="#FFF5EB" opacity="0.3"/><circle cx="76.93366691519259" cy="98.35286876896134" r="2.1756282577161983" fill="#FFF5EB" opacity="0.3"/><circle cx="86.00940431679192" cy="19.231068527187745" r="3.3181848546628316" fill="#FFF5EB" opacity="0.3"/><circle cx="191.21613343486388" cy="51.455689513613834" r="2.598729455909506" fill="#FFF5EB" opacity="0.3"/><circle cx="66.10557088533824" cy="85.63716853250156" r="4.269285464002678" fill="#FFF5EB" opacity="0.3"/>
  <circle cx="100" cy="75" r="48" fill="#FFE5D9" opacity="1"/>
  <circle cx="80" cy="68" r="8" fill="#333" opacity="1"/>
  <circle cx="120" cy="68" r="8" fill="#333" opacity="1"/>
  <circle cx="78" cy="65" r="3" fill="white" opacity="1"/>
  <circle cx="118" cy="65" r="3" fill="white" opacity="1"/>
  <path d="M72 92 Q100 115 128 92" stroke="#333" stroke-width="4" fill="none" stroke-linecap="round"/>
  <ellipse cx="60" cy="82" rx="12" ry="7" fill="#FFB3B3" opacity="0.4"/>
  <ellipse cx="140" cy="82" rx="12" ry="7" fill="#FFB3B3" opacity="0.4"/>
  <path d="M45,42.25 C39,37 42,34 45,37.75 C48,34 51,37 45,42.25Z" fill="#FFB3B3"/>
  <path d="M160,46.8 C155.2,42.6 157.6,40.2 160,43.2 C162.4,40.2 164.8,42.6 160,46.8Z" fill="#FFD6D6"/>
</svg>