<svg xmlns="http://www.w3.org/2000/svg" viewBox="0 0 200 150" width="200" height="150">
  <defs>
    <linearGradient id="bg7404" gradientTransform="rotate(135)">
      <stop offset="0%" style="stop-color:#E2D9F3"/>
      <stop offset="100%" style="stop-color:#C9B8E8"/>
    </linearGradient>
  </defs>
  <rect width="200" height="150" fill="url(#bg7404)" rx="16"/>
  <circle cx="58.5348291479022" cy="1.8606334059313667" r="4.53439554664692" fill="#E2D9F3" opacity="0.3"/><circle cx="130.22397665617973" cy="48.47431523751311" r="3.380483374195137" fill="#E2D9F3" opacity="0.3"/><circle cx="185.20578216175636" cy="98.21543629291227" r="4.472838121304449" fill="#E2D9F3" opacity="0.3"/><circle cx="174.19335471786326" cy="134.5250396193478" r="2.8978891671640667" fill="#E2D9F3" opacity="0.3"/><circle cx="6.21221591864014" cy="88.82460128452294" r="3.1471309164207923" fill="#E2D9F3" opacity="0.3"/><circle cx="113.15729321468098" cy="87.71433722299662" r="4.423670976317226" fill="#E2D9F3" opacity="0.3"/>
  <circle cx="100" cy="75" r="48" fill="#FFE5D9" opacity="1"/>
  <circle cx="80" cy="68" r="8" fill="#333" opacity="1"/>
  <circle cx="120" cy="68" r="8" fill="#333" opacity="1"/>
  <circle cx="78" cy="65" r="3" fill="white" opacity="1"/>
  <circle cx="118" cy="65" r="3" fill="white" opacity="1"/>
  <path d="M72 92 Q100 115 128 92" stroke="#333" stroke-width="4" fill="none" stroke-linecap="round"/>
  <ellipse cx="60" cy="82" rx="12" ry="7" fill="#FFB3B3" opacity="0.4"/>
  <ellipse cx="140" cy="82" rx="12" ry="7" fill="#FFB3B3" opacity="0.4"/>
  <path d="M45,42.25 C39,37 42,34 45,37.75 C48,34 51,37 45,42.25Z" fill="#FFB3B3"/>
  <path d="M160,46.8 C155.2,42.6 157.6,40.2 160,43.2 C162.4,40.2 164.8,42.6 160,46.8Z" fill="#FFD6D6"/>
</svg>