<svg xmlns="http://www.w3.org/2000/svg" viewBox="0 0 200 150" width="200" height="150">
  <defs>
    <linearGradient id="bg7405" gradientTransform="rotate(180)">
      <stop offset="0%" style="stop-color:#D8F3DC"/>
      <stop offset="100%" style="stop-color:#B7E4C7"/>
    </linearGradient>
  </defs>
  <rect width="200" height="150" fill="url(#bg7405)" rx="16"/>
  <circle cx="108.27886315081514" cy="88.98251400278241" r="2.406899841581435" fill="#D8F3DC" opacity="0.3"/><circle cx="69.41883717736346" cy="30.03414427421376" r="4.33900365725367" fill="#D8F3DC" opacity="0.3"/><circle cx="130.76372381547117" cy="20.44687548809634" r="4.965452737671512" fill="#D8F3DC" opacity="0.3"/><circle cx="140.83959551080625" cy="54.75862314492588" r="4.452111788932598" fill="#D8F3DC" opacity="0.3"/><circle cx="63.66558815989265" cy="146.17086236030445" r="4.6475071171366835" fill="#D8F3DC" opacity="0.3"/><circle cx="183.7269710651526" cy="18.337729575796402" r="4.542644087256122" fill="#D8F3DC" opacity="0.3"/>
  <circle cx="100" cy="75" r="48" fill="#FFE5D9" opacity="1"/>
  <circle cx="80" cy="68" r="8" fill="#333" opacity="1"/>
  <circle cx="120" cy="68" r="8" fill="#333" opacity="1"/>
  <circle cx="78" cy="65" r="3" fill="white" opacity="1"/>
  <circle cx="118" cy="65" r="3" fill="white" opacity="1"/>
  <path d="M72 92 Q100 115 128 92" stroke="#333" stroke-width="4" fill="none" stroke-linecap="round"/>
  <ellipse cx="60" cy="82" rx="12" ry="7" fill="#FFB3B3" opacity="0.4"/>
  <ellipse cx="140" cy="82" rx="12" ry="7" fill="#FFB3B3" opacity="0.4"/>
  <path d="M45,42.25 C39,37 42,34 45,37.75 C48,34 51,37 45,42.25Z" fill="#FFB3B3"/>
  <path d="M160,46.8 C155.2,42.6 157.6,40.2 160,43.2 C162.4,40.2 164.8,42.6 160,46.8Z" fill="#FFD6D6"/>
</svg>