<svg xmlns="http://www.w3.org/2000/svg" viewBox="0 0 200 150" width="200" height="150">
  <defs>
    <linearGradient id="bg7409" gradientTransform="rotate(90)">
      <stop offset="0%" style="stop-color:#FFE4EC"/>
      <stop offset="100%" style="stop-color:#FFC8DD"/>
    </linearGradient>
  </defs>
  <rect width="200" height="150" fill="url(#bg7409)" rx="16"/>
  <circle cx="143.50328023215297" cy="11.44329495666625" r="3.5724232222537466" fill="#FFE4EC" opacity="0.3"/><circle cx="92.84010515782484" cy="33.084170723532225" r="2.6304843016641826" fill="#FFE4EC" opacity="0.3"/><circle cx="115.57751587370149" cy="128.7676603374166" r="3.5742611819364356" fill="#FFE4EC" opacity="0.3"/><circle cx="158.85231793872663" cy="7.589225941410405" r="4.558966501737814" fill="#FFE4EC" opacity="0.3"/><circle cx="90.33866201734781" cy="109.57806247567987" r="4.438811146204898" fill="#FFE4EC" opacity="0.3"/><circle cx="125.31831328269618" cy="15.228433164219268" r="2.773643623335829" fill="#FFE4EC" opacity="0.3"/>
  <circle cx="100" cy="75" r="48" fill="#FFE5D9" opacity="1"/>
  <circle cx="80" cy="68" r="8" fill="#333" opacity="1"/>
  <circle cx="120" cy="68" r="8" fill="#333" opacity="1"/>
  <circle cx="78" cy="65" r="3" fill="white" opacity="1"/>
  <circle cx="118" cy="65" r="3" fill="white" opacity="1"/>
  <path d="M72 92 Q100 115 128 92" stroke="#333" stroke-width="4" fill="none" stroke-linecap="round"/>
  <ellipse cx="60" cy="82" rx="12" ry="7" fill="#FFB3B3" opacity="0.4"/>
  <ellipse cx="140" cy="82" rx="12" ry="7" fill="#FFB3B3" opacity="0.4"/>
  <path d="M45,42.25 C39,37 42,34 45,37.75 C48,34 51,37 45,42.25Z" fill="#FFB3B3"/>
  <path d="M160,46.8 C155.2,42.6 157.6,40.2 160,43.2 C162.4,40.2 164.8,42.6 160,46.8Z" fill="#FFD6D6"/>
</svg>