<svg xmlns="http://www.w3.org/2000/svg" viewBox="0 0 200 150" width="200" height="150">
  <defs>
    <linearGradient id="bg7416" gradientTransform="rotate(180)">
      <stop offset="0%" style="stop-color:#D8F3DC"/>
      <stop offset="100%" style="stop-color:#B7E4C7"/>
    </linearGradient>
  </defs>
  <rect width="200" height="150" fill="url(#bg7416)" rx="16"/>
  <rect x="0" y="0" width="200" height="150" rx="0" fill="#1a1a3e"/>
  <polygon points="80.71456317713455,32.35411900553663 81.92529709371249,34.80733387160253 84.63258043384533,35.20072516799591 82.67357180548994,37.11028663332454 83.13603101029044,39.806630691439935 80.71456317713455,38.53358971455418 78.29309534397866,39.806630691439935 78.75555454877916,37.11028663332454 76.79654592042377,35.20072516799591 79.50382926055661,34.80733387160253" fill="#FFF3B0"/>
  <polygon points="170.46217698115015,30.34079573838153 171.3501684875826,32.140063054421994 173.335777859408,32.42858898494943 171.8989774202791,33.82912327163667 172.23815999401506,35.80670941937878 170.46217698115015,34.87301989492062 168.68619396828524,35.80670941937878 169.0253765420212,33.82912327163667 167.5885761028923,32.42858898494943 169.5741854747177,32.140063054421994" fill="#FFF3B0"/>
  <polygon points="99.45620141963445,33.38608312145243 100.48869586077147,35.47814536357322 102.7974236175445,35.81362314374962 101.12681251858947,37.44206649613699 101.52119030190849,39.74146540887716 99.45620141963445,38.655836507285585 97.39121253736042,39.74146540887716 97.78559032067943,37.44206649613699 96.11497922172441,35.81362314374962 98.42370697849744,35.47814536357322" fill="#FFF3B0"/>
  <polygon points="47.91597233957418,20.539701602381683 49.1613088366709,23.063028954577334 51.945965899040615,23.467663310921747 49.9309691193074,25.43179973566535 50.40664533376761,28.205204873097788 47.91597233957418,26.895780589935384 45.42529934538076,28.205204873097788 45.900975559840965,25.43179973566535 43.88597878010775,23.467663310921747 46.670635842477466,23.063028954577334" fill="#FFF3B0"/>
  <polygon points="88.85299254695383,45.70577006926726 89.60175113935969,47.222920687444706 91.27602625071624,47.466207101841 90.06450939883504,48.64714416432387 90.35050973176554,50.31465405559931 88.85299254695383,49.527362680610736 87.35547536214212,50.31465405559931 87.64147569507261,48.64714416432387 86.42995884319141,47.466207101841 88.10423395454796,47.222920687444706" fill="#FFF3B0"/>
  <polygon points="135.61129311165132,31.900823500880506 136.29660131608182,33.28940959062816 137.82899704672673,33.51207972423764 136.72014507918902,34.592943257616476 136.98190952051232,36.11914705821427 135.61129311165132,35.39857136929504 134.24067670279032,36.11914705821427 134.50244114411362,34.592943257616476 133.39358917657592,33.51207972423764 134.92598490722082,33.28940959062816" fill="#FFF3B0"/>
  <polygon points="132.46962585262708,30.698364755467992 133.28331174859775,32.347072459919985 135.10276872432098,32.611455034067774 133.78619728847403,33.89479500708072 134.0969976445684,35.706900128389236 132.46962585262708,34.85134014638061 130.84225406068575,35.706900128389236 131.15305441678012,33.89479500708072 129.83648298093317,32.611455034067774 131.6559399566564,32.347072459919985" fill="#FFF3B0"/>
  <polygon points="107.52305509171833,26.510394928879577 108.66065288488001,28.815419822933855 111.20439888144328,29.18504775232317 109.3637269865808,30.97925941115266 109.7982506780417,33.512726928760785 107.52305509171833,32.31658582287446 105.24785950539497,33.512726928760785 105.68238319685587,30.97925941115266 103.84171130199339,29.18504775232317 106.38545729855666,28.815419822933855" fill="#FFF3B0"/>
  <polygon points="78.99538138241041,33.89097066731483 80.21792818489406,36.36812105457017 82.95162594092251,36.765350590263665 80.97350366166647,38.69354326052593 81.44047498737771,41.416195002175186 78.99538138241041,40.130733222000345 76.55028777744312,41.416195002175186 77.01725910315436,38.69354326052593 75.03913682389832,36.765350590263665 77.77283457992677,36.36812105457017" fill="#FFF3B0"/>
  <polygon points="140.60425261387763,30.27719869625571 141.55619777174522,32.20605026387415 143.68481185558886,32.51535599539886 142.14453223473325,34.016757554965295 142.50814292961277,36.13677057758116 140.60425261387763,35.13583620453687 138.7003622981425,36.13677057758116 139.06397299302202,34.016757554965295 137.5236933721664,32.51535599539886 139.65230745601005,32.20605026387415" fill="#FFF3B0"/>
  <path d="M155 25 A22 22 0 1 1 175 50 A18 18 0 1 0 155 25" fill="#FFE566"/>
  <rect x="35" y="75" width="130" height="50" rx="8" fill="#C9B8E8"/>
  <rect x="45" y="65" width="90" height="20" rx="8" fill="white"/>
  <rect x="40" y="90" width="120" height="30" rx="6" fill="#B7E4C7"/>
  <text x="170" y="75" fill="#E2D9F3" font-size="16" font-weight="bold">z</text>
  <text x="178" y="65" fill="#E2D9F3" font-size="13" font-weight="bold">z</text>
</svg>