<svg xmlns="http://www.w3.org/2000/svg" viewBox="0 0 200 150" width="200" height="150">
  <defs>
    <linearGradient id="bg74181" gradientTransform="rotate(90)">
      <stop offset="0%" style="stop-color:#FFF5EB"/>
      <stop offset="100%" style="stop-color:#FFE4CC"/>
    </linearGradient>
  </defs>
  <rect width="200" height="150" fill="url(#bg74181)" rx="16"/>
  <circle cx="184.7208244709691" cy="10.972053194655018" r="2.9464678305067764" fill="#FFF5EB" opacity="0.3"/><circle cx="48.39319857856026" cy="10.841567285660858" r="3.3640534184632997" fill="#FFF5EB" opacity="0.3"/><circle cx="136.01269051650888" cy="7.633770004031248" r="4.335403162420789" fill="#FFF5EB" opacity="0.3"/><circle cx="61.69905166461831" cy="52.147824325584224" r="4.585869484493742" fill="#FFF5EB" opacity="0.3"/><circle cx="63.40712233954946" cy="82.97801247099414" r="3.266576027879637" fill="#FFF5EB" opacity="0.3"/><circle cx="53.524583450416685" cy="16.643393367854742" r="4.49682420928184" fill="#FFF5EB" opacity="0.3"/>
  <circle cx="100" cy="75" r="48" fill="#FFE5D9" opacity="1"/>
  <circle cx="80" cy="68" r="8" fill="#333" opacity="1"/>
  <circle cx="120" cy="68" r="8" fill="#333" opacity="1"/>
  <circle cx="78" cy="65" r="3" fill="white" opacity="1"/>
  <circle cx="118" cy="65" r="3" fill="white" opacity="1"/>
  <path d="M72 92 Q100 115 128 92" stroke="#333" stroke-width="4" fill="none" stroke-linecap="round"/>
  <ellipse cx="60" cy="82" rx="12" ry="7" fill="#FFB3B3" opacity="0.4"/>
  <ellipse cx="140" cy="82" rx="12" ry="7" fill="#FFB3B3" opacity="0.4"/>
  <path d="M45,42.25 C39,37 42,34 45,37.75 C48,34 51,37 45,42.25Z" fill="#FFB3B3"/>
  <path d="M160,46.8 C155.2,42.6 157.6,40.2 160,43.2 C162.4,40.2 164.8,42.6 160,46.8Z" fill="#FFD6D6"/>
</svg>