<svg xmlns="http://www.w3.org/2000/svg" viewBox="0 0 200 150" width="200" height="150">
  <defs>
    <linearGradient id="bg7452" gradientTransform="rotate(180)">
      <stop offset="0%" style="stop-color:#E2D9F3"/>
      <stop offset="100%" style="stop-color:#C9B8E8"/>
    </linearGradient>
  </defs>
  <rect width="200" height="150" fill="url(#bg7452)" rx="16"/>
  <circle cx="37.40008330241835" cy="110.77427958571207" r="3.4475172868569643" fill="#E2D9F3" opacity="0.3"/><circle cx="132.31317003012464" cy="85.0177822632304" r="3.197584176611599" fill="#E2D9F3" opacity="0.3"/><circle cx="103.83979226112388" cy="124.93188878479486" r="2.8674993974054814" fill="#E2D9F3" opacity="0.3"/><circle cx="55.17346770716358" cy="50.6053259354303" r="2.9558509739945293" fill="#E2D9F3" opacity="0.3"/><circle cx="91.64284776888962" cy="80.64171690812145" r="2.647660577462375" fill="#E2D9F3" opacity="0.3"/><circle cx="58.12484627276717" cy="58.25364147151504" r="2.3817175675435465" fill="#E2D9F3" opacity="0.3"/>
  <ellipse cx="100" cy="95" rx="32" ry="28" fill="#C9B8E8" opacity="1"/>
  <circle cx="100" cy="58" r="28" fill="#C9B8E8" opacity="1"/>
  <ellipse cx="82" cy="25" rx="10" ry="24" fill="#C9B8E8" opacity="1"/>
  <ellipse cx="118" cy="25" rx="10" ry="24" fill="#C9B8E8" opacity="1"/>
  <ellipse cx="82" cy="27" rx="5" ry="15" fill="#FFD6D6" opacity="1"/>
  <ellipse cx="118" cy="27" rx="5" ry="15" fill="#FFD6D6" opacity="1"/>
  <circle cx="88" cy="52" r="5" fill="#333" opacity="1"/>
  <circle cx="112" cy="52" r="5" fill="#333" opacity="1"/>
  <circle cx="86" cy="50" r="2" fill="white" opacity="1"/>
  <circle cx="110" cy="50" r="2" fill="white" opacity="1"/>
  <ellipse cx="100" cy="68" rx="6" ry="4" fill="#FFB3B3" opacity="1"/>
  <path d="M50,46.8 C45.2,42.6 47.6,40.2 50,43.2 C52.4,40.2 54.8,42.6 50,46.8Z" fill="#FFB3B3"/>
  <path d="M155,51.5 C151,48 153,46 155,48.5 C157,46 159,48 155,51.5Z" fill="#FFD6D6"/>
</svg>