<svg xmlns="http://www.w3.org/2000/svg" viewBox="0 0 200 150" width="200" height="150">
  <defs>
    <linearGradient id="bg75047" gradientTransform="rotate(180)">
      <stop offset="0%" style="stop-color:#FFE5D9"/>
      <stop offset="100%" style="stop-color:#FFCDB2"/>
    </linearGradient>
  </defs>
  <rect width="200" height="150" fill="url(#bg75047)" rx="16"/>
  <circle cx="117.26289112333461" cy="95.90223968766622" r="2.92284704002941" fill="#FFE5D9" opacity="0.3"/><circle cx="177.14814861019477" cy="95.42070010918451" r="4.556612095540004" fill="#FFE5D9" opacity="0.3"/><circle cx="124.8829018250035" cy="20.041777566757446" r="2.612114514062341" fill="#FFE5D9" opacity="0.3"/><circle cx="76.29750260421133" cy="129.946679305624" r="2.269180945961125" fill="#FFE5D9" opacity="0.3"/><circle cx="162.64170953209032" cy="38.95645245320338" r="3.685975282924119" fill="#FFE5D9" opacity="0.3"/><circle cx="56.70976033252373" cy="6.601912024370904" r="2.6556054982238493" fill="#FFE5D9" opacity="0.3"/>
  <circle cx="100" cy="75" r="45" fill="#FFE5D9" opacity="1"/>
  <circle cx="100" cy="75" r="40" fill="white" opacity="1"/>
  <line x1="100" y1="42" x2="100" y2="52" stroke="#FFB4A2" stroke-width="2"/>
  <line x1="116.5" y1="46.421161675113524" x2="114" y2="50.751288694035715" stroke="#FFB4A2" stroke-width="2"/>
  <line x1="128.57883832488648" y1="58.5" x2="124.24871130596428" y2="61" stroke="#FFB4A2" stroke-width="2"/>
  <line x1="133" y1="75" x2="123" y2="75" stroke="#FFB4A2" stroke-width="2"/>
  <line x1="128.57883832488648" y1="91.5" x2="124.24871130596429" y2="89" stroke="#FFB4A2" stroke-width="2"/>
  <line x1="116.5" y1="103.57883832488648" x2="114" y2="99.24871130596429" stroke="#FFB4A2" stroke-width="2"/>
  <line x1="100" y1="108" x2="100" y2="98" stroke="#FFB4A2" stroke-width="2"/>
  <line x1="83.5" y1="103.57883832488648" x2="86" y2="99.24871130596428" stroke="#FFB4A2" stroke-width="2"/>
  <line x1="71.42116167511352" y1="91.50000000000001" x2="75.75128869403572" y2="89.00000000000001" stroke="#FFB4A2" stroke-width="2"/>
  <line x1="67" y1="75" x2="77" y2="75" stroke="#FFB4A2" stroke-width="2"/>
  <line x1="71.42116167511352" y1="58.5" x2="75.75128869403572" y2="61" stroke="#FFB4A2" stroke-width="2"/>
  <line x1="83.49999999999999" y1="46.42116167511353" x2="85.99999999999999" y2="50.75128869403572" stroke="#FFB4A2" stroke-width="2"/>
  <line x1="100" y1="75" x2="100" y2="55" stroke="#FFB4A2" stroke-width="4" stroke-linecap="round"/>
  <line x1="100" y1="75" x2="118" y2="85" stroke="#FFB3B3" stroke-width="3" stroke-linecap="round"/>
  <circle cx="100" cy="75" r="5" fill="#FFB4A2" opacity="1"/>
  <polygon points="45,33 48.52671151375484,40.14589803375031 56.412678195541844,41.291796067500634 50.70633909777092,46.85410196624969 52.05342302750968,54.70820393249937 45,51 37.94657697249032,54.70820393249937 39.29366090222908,46.85410196624969 33.587321804458156,41.29179606750063 41.47328848624516,40.14589803375031" fill="#FFF3B0"/>
</svg>