<svg xmlns="http://www.w3.org/2000/svg" viewBox="0 0 200 150" width="200" height="150">
  <defs>
    <linearGradient id="bg7505" gradientTransform="rotate(0)">
      <stop offset="0%" style="stop-color:#FFE4EC"/>
      <stop offset="100%" style="stop-color:#FFC8DD"/>
    </linearGradient>
  </defs>
  <rect width="200" height="150" fill="url(#bg7505)" rx="16"/>
  <rect x="0" y="100" width="200" height="50" rx="0" fill="#C5DBC5"/>
  <circle cx="165" cy="35" r="22" fill="#FFE566" opacity="1"/>
  <line x1="191" y1="35" x2="200" y2="35" stroke="#FFF3B0" stroke-width="3" stroke-linecap="round"/>
  <line x1="183.38477631085024" y1="53.384776310850235" x2="189.74873734152916" y2="59.748737341529164" stroke="#FFF3B0" stroke-width="3" stroke-linecap="round"/>
  <line x1="165" y1="61" x2="165" y2="70" stroke="#FFF3B0" stroke-width="3" stroke-linecap="round"/>
  <line x1="146.61522368914976" y1="53.38477631085024" x2="140.25126265847084" y2="59.748737341529164" stroke="#FFF3B0" stroke-width="3" stroke-linecap="round"/>
  <line x1="139" y1="35" x2="130" y2="35.00000000000001" stroke="#FFF3B0" stroke-width="3" stroke-linecap="round"/>
  <line x1="146.61522368914976" y1="16.615223689149765" x2="140.25126265847084" y2="10.25126265847084" stroke="#FFF3B0" stroke-width="3" stroke-linecap="round"/>
  <line x1="165" y1="9" x2="165" y2="0" stroke="#FFF3B0" stroke-width="3" stroke-linecap="round"/>
  <line x1="183.38477631085024" y1="16.61522368914976" x2="189.74873734152916" y2="10.251262658470832" stroke="#FFF3B0" stroke-width="3" stroke-linecap="round"/>
  <rect x="90" y="55" width="14" height="50" rx="2" fill="#8B6914"/>
  <path d="M82.43981234327657,39.7598861297688 Q92.43981234327657,51.7598861297688 82.43981234327657,63.7598861297688 Q72.43981234327657,51.7598861297688 82.43981234327657,39.7598861297688Z" fill="#B7E4C7"/>
  <path d="M89.05277449272398,30.19461771353963 Q99.05277449272398,42.19461771353963 89.05277449272398,54.19461771353963 Q79.05277449272398,42.19461771353963 89.05277449272398,30.19461771353963Z" fill="#95D5B2"/>
  <path d="M104.08837133583438,31.80636324174702 Q114.08837133583438,43.80636324174702 104.08837133583438,55.80636324174702 Q94.08837133583438,43.80636324174702 104.08837133583438,31.80636324174702Z" fill="#B7E4C7"/>
  <path d="M115.04635108617367,38.554200661790674 Q125.04635108617367,50.554200661790674 115.04635108617367,62.554200661790674 Q105.04635108617367,50.554200661790674 115.04635108617367,38.554200661790674Z" fill="#95D5B2"/>
  <path d="M123.26947561349516,30.23402923467802 Q133.26947561349516,42.23402923467802 123.26947561349516,54.23402923467802 Q113.26947561349516,42.23402923467802 123.26947561349516,30.23402923467802Z" fill="#B7E4C7"/>
  <circle cx="45" cy="95" r="8" fill="#FFB3B3" opacity="1"/>
  <circle cx="155" cy="98" r="6" fill="#C9B8E8" opacity="1"/>
</svg>