<svg xmlns="http://www.w3.org/2000/svg" viewBox="0 0 200 150" width="200" height="150">
  <defs>
    <linearGradient id="bg7520" gradientTransform="rotate(45)">
      <stop offset="0%" style="stop-color:#E0F4FF"/>
      <stop offset="100%" style="stop-color:#BAE6FD"/>
    </linearGradient>
  </defs>
  <rect width="200" height="150" fill="url(#bg7520)" rx="16"/>
  <circle cx="21.517695292459393" cy="39.93226521370161" r="3.261029248520572" fill="#E0F4FF" opacity="0.3"/><circle cx="154.07651670411724" cy="66.7219765574373" r="4.3136742432916435" fill="#E0F4FF" opacity="0.3"/><circle cx="8.496600488797412" cy="12.002991366580318" r="3.602581952289256" fill="#E0F4FF" opacity="0.3"/><circle cx="69.75933159519627" cy="19.24124469221624" r="4.098913585476566" fill="#E0F4FF" opacity="0.3"/><circle cx="41.744122100499226" cy="46.07818448768057" r="3.4462933476888793" fill="#E0F4FF" opacity="0.3"/><circle cx="157.07915702587343" cy="57.292298801371544" r="2.542732095298561" fill="#E0F4FF" opacity="0.3"/>
  <circle cx="100" cy="75" r="48" fill="#FFE5D9" opacity="1"/>
  <circle cx="80" cy="68" r="8" fill="#333" opacity="1"/>
  <circle cx="120" cy="68" r="8" fill="#333" opacity="1"/>
  <circle cx="78" cy="65" r="3" fill="white" opacity="1"/>
  <circle cx="118" cy="65" r="3" fill="white" opacity="1"/>
  <path d="M72 92 Q100 115 128 92" stroke="#333" stroke-width="4" fill="none" stroke-linecap="round"/>
  <ellipse cx="60" cy="82" rx="12" ry="7" fill="#FFB3B3" opacity="0.4"/>
  <ellipse cx="140" cy="82" rx="12" ry="7" fill="#FFB3B3" opacity="0.4"/>
  <path d="M45,42.25 C39,37 42,34 45,37.75 C48,34 51,37 45,42.25Z" fill="#FFB3B3"/>
  <path d="M160,46.8 C155.2,42.6 157.6,40.2 160,43.2 C162.4,40.2 164.8,42.6 160,46.8Z" fill="#FFD6D6"/>
</svg>