<svg xmlns="http://www.w3.org/2000/svg" viewBox="0 0 200 150" width="200" height="150">
  <defs>
    <linearGradient id="bg7532" gradientTransform="rotate(90)">
      <stop offset="0%" style="stop-color:#FFE5D9"/>
      <stop offset="100%" style="stop-color:#FFCDB2"/>
    </linearGradient>
  </defs>
  <rect width="200" height="150" fill="url(#bg7532)" rx="16"/>
  <circle cx="50.93440903390274" cy="48.10704177762091" r="4.995601164719119" fill="#FFE5D9" opacity="0.3"/><circle cx="20.74357436831633" cy="69.3079155263149" r="3.323766048921243" fill="#FFE5D9" opacity="0.3"/><circle cx="110.09651655822381" cy="148.4928690475499" r="2.2679396125950007" fill="#FFE5D9" opacity="0.3"/><circle cx="129.88359415694504" cy="88.98298936351239" r="4.281451332712095" fill="#FFE5D9" opacity="0.3"/><circle cx="113.09799512855534" cy="11.265978150640876" r="3.9025173613144943" fill="#FFE5D9" opacity="0.3"/><circle cx="80.64980366980308" cy="87.29045966028934" r="2.839715337290727" fill="#FFE5D9" opacity="0.3"/>
  <circle cx="100" cy="75" r="48" fill="#FFE5D9" opacity="1"/>
  <circle cx="80" cy="68" r="8" fill="#333" opacity="1"/>
  <circle cx="120" cy="68" r="8" fill="#333" opacity="1"/>
  <circle cx="78" cy="65" r="3" fill="white" opacity="1"/>
  <circle cx="118" cy="65" r="3" fill="white" opacity="1"/>
  <path d="M72 92 Q100 115 128 92" stroke="#333" stroke-width="4" fill="none" stroke-linecap="round"/>
  <ellipse cx="60" cy="82" rx="12" ry="7" fill="#FFB3B3" opacity="0.4"/>
  <ellipse cx="140" cy="82" rx="12" ry="7" fill="#FFB3B3" opacity="0.4"/>
  <path d="M45,42.25 C39,37 42,34 45,37.75 C48,34 51,37 45,42.25Z" fill="#FFB3B3"/>
  <path d="M160,46.8 C155.2,42.6 157.6,40.2 160,43.2 C162.4,40.2 164.8,42.6 160,46.8Z" fill="#FFD6D6"/>
</svg>