<svg xmlns="http://www.w3.org/2000/svg" viewBox="0 0 200 150" width="200" height="150">
  <defs>
    <linearGradient id="bg7533" gradientTransform="rotate(90)">
      <stop offset="0%" style="stop-color:#FFE5D9"/>
      <stop offset="100%" style="stop-color:#FFCDB2"/>
    </linearGradient>
  </defs>
  <rect width="200" height="150" fill="url(#bg7533)" rx="16"/>
  <rect x="0" y="100" width="200" height="50" rx="0" fill="#C5DBC5"/>
  <circle cx="165" cy="35" r="22" fill="#FFE566" opacity="1"/>
  <line x1="191" y1="35" x2="200" y2="35" stroke="#FFF3B0" stroke-width="3" stroke-linecap="round"/>
  <line x1="183.38477631085024" y1="53.384776310850235" x2="189.74873734152916" y2="59.748737341529164" stroke="#FFF3B0" stroke-width="3" stroke-linecap="round"/>
  <line x1="165" y1="61" x2="165" y2="70" stroke="#FFF3B0" stroke-width="3" stroke-linecap="round"/>
  <line x1="146.61522368914976" y1="53.38477631085024" x2="140.25126265847084" y2="59.748737341529164" stroke="#FFF3B0" stroke-width="3" stroke-linecap="round"/>
  <line x1="139" y1="35" x2="130" y2="35.00000000000001" stroke="#FFF3B0" stroke-width="3" stroke-linecap="round"/>
  <line x1="146.61522368914976" y1="16.615223689149765" x2="140.25126265847084" y2="10.25126265847084" stroke="#FFF3B0" stroke-width="3" stroke-linecap="round"/>
  <line x1="165" y1="9" x2="165" y2="0" stroke="#FFF3B0" stroke-width="3" stroke-linecap="round"/>
  <line x1="183.38477631085024" y1="16.61522368914976" x2="189.74873734152916" y2="10.251262658470832" stroke="#FFF3B0" stroke-width="3" stroke-linecap="round"/>
  <rect x="90" y="55" width="14" height="50" rx="2" fill="#8B6914"/>
  <path d="M80.55497573520552,30.55508711307357 Q90.55497573520552,42.55508711307357 80.55497573520552,54.55508711307357 Q70.55497573520552,42.55508711307357 80.55497573520552,30.55508711307357Z" fill="#B7E4C7"/>
  <path d="M88.38843037906099,42.15030830476098 Q98.38843037906099,54.15030830476098 88.38843037906099,66.15030830476098 Q78.38843037906099,54.15030830476098 88.38843037906099,42.15030830476098Z" fill="#95D5B2"/>
  <path d="M99.47521716817573,34.40380591936264 Q109.47521716817573,46.40380591936264 99.47521716817573,58.40380591936264 Q89.47521716817573,46.40380591936264 99.47521716817573,34.40380591936264Z" fill="#B7E4C7"/>
  <path d="M117.45729664605824,28.880359683906136 Q127.45729664605824,40.880359683906136 117.45729664605824,52.880359683906136 Q107.45729664605824,40.880359683906136 117.45729664605824,28.880359683906136Z" fill="#95D5B2"/>
  <path d="M130.06779163957071,37.034671340541536 Q140.06779163957071,49.034671340541536 130.06779163957071,61.034671340541536 Q120.06779163957071,49.034671340541536 130.06779163957071,37.034671340541536Z" fill="#B7E4C7"/>
  <circle cx="45" cy="95" r="8" fill="#FFB3B3" opacity="1"/>
  <circle cx="155" cy="98" r="6" fill="#C9B8E8" opacity="1"/>
</svg>