<svg xmlns="http://www.w3.org/2000/svg" viewBox="0 0 200 150" width="200" height="150">
  <defs>
    <linearGradient id="bg7537" gradientTransform="rotate(135)">
      <stop offset="0%" style="stop-color:#D4E9FF"/>
      <stop offset="100%" style="stop-color:#A8D0F0"/>
    </linearGradient>
  </defs>
  <rect width="200" height="150" fill="url(#bg7537)" rx="16"/>
  <rect x="0" y="100" width="200" height="50" rx="0" fill="#C5DBC5"/>
  <circle cx="165" cy="35" r="22" fill="#FFE566" opacity="1"/>
  <line x1="191" y1="35" x2="200" y2="35" stroke="#FFF3B0" stroke-width="3" stroke-linecap="round"/>
  <line x1="183.38477631085024" y1="53.384776310850235" x2="189.74873734152916" y2="59.748737341529164" stroke="#FFF3B0" stroke-width="3" stroke-linecap="round"/>
  <line x1="165" y1="61" x2="165" y2="70" stroke="#FFF3B0" stroke-width="3" stroke-linecap="round"/>
  <line x1="146.61522368914976" y1="53.38477631085024" x2="140.25126265847084" y2="59.748737341529164" stroke="#FFF3B0" stroke-width="3" stroke-linecap="round"/>
  <line x1="139" y1="35" x2="130" y2="35.00000000000001" stroke="#FFF3B0" stroke-width="3" stroke-linecap="round"/>
  <line x1="146.61522368914976" y1="16.615223689149765" x2="140.25126265847084" y2="10.25126265847084" stroke="#FFF3B0" stroke-width="3" stroke-linecap="round"/>
  <line x1="165" y1="9" x2="165" y2="0" stroke="#FFF3B0" stroke-width="3" stroke-linecap="round"/>
  <line x1="183.38477631085024" y1="16.61522368914976" x2="189.74873734152916" y2="10.251262658470832" stroke="#FFF3B0" stroke-width="3" stroke-linecap="round"/>
  <rect x="90" y="55" width="14" height="50" rx="2" fill="#8B6914"/>
  <path d="M79.94088689953787,42.72619838139508 Q89.94088689953787,54.72619838139508 79.94088689953787,66.72619838139508 Q69.94088689953787,54.72619838139508 79.94088689953787,42.72619838139508Z" fill="#B7E4C7"/>
  <path d="M88.58194076965447,37.933145249851805 Q98.58194076965447,49.933145249851805 88.58194076965447,61.933145249851805 Q78.58194076965447,49.933145249851805 88.58194076965447,37.933145249851805Z" fill="#95D5B2"/>
  <path d="M105.93553412333495,25.6880727725802 Q115.93553412333495,37.6880727725802 105.93553412333495,49.6880727725802 Q95.93553412333495,37.6880727725802 105.93553412333495,25.6880727725802Z" fill="#B7E4C7"/>
  <path d="M111.91474344205017,36.140583671684 Q121.91474344205017,48.140583671684 111.91474344205017,60.140583671684 Q101.91474344205017,48.140583671684 111.91474344205017,36.140583671684Z" fill="#95D5B2"/>
  <path d="M126.81849428696296,30.383371876235287 Q136.81849428696296,42.38337187623529 126.81849428696296,54.38337187623529 Q116.81849428696296,42.38337187623529 126.81849428696296,30.383371876235287Z" fill="#B7E4C7"/>
  <circle cx="45" cy="95" r="8" fill="#FFB3B3" opacity="1"/>
  <circle cx="155" cy="98" r="6" fill="#C9B8E8" opacity="1"/>
</svg>