<svg xmlns="http://www.w3.org/2000/svg" viewBox="0 0 200 150" width="200" height="150">
  <defs>
    <linearGradient id="bg7544" gradientTransform="rotate(90)">
      <stop offset="0%" style="stop-color:#FFE4EC"/>
      <stop offset="100%" style="stop-color:#FFC8DD"/>
    </linearGradient>
  </defs>
  <rect width="200" height="150" fill="url(#bg7544)" rx="16"/>
  <circle cx="134.0256959028011" cy="82.3255137106571" r="2.575714187052654" fill="#FFE4EC" opacity="0.3"/><circle cx="151.50952988087738" cy="95.44500937781777" r="2.388094258768433" fill="#FFE4EC" opacity="0.3"/><circle cx="100.98985776894551" cy="12.731503319355397" r="3.1913687177948304" fill="#FFE4EC" opacity="0.3"/><circle cx="40.00551607350644" cy="148.75121672562273" r="2.199998891146606" fill="#FFE4EC" opacity="0.3"/><circle cx="7.34304617435555" cy="71.99395435432052" r="3.5375023753495043" fill="#FFE4EC" opacity="0.3"/><circle cx="87.39982964470983" cy="26.55883738234479" r="2.1961306574057744" fill="#FFE4EC" opacity="0.3"/>
  <ellipse cx="100" cy="95" rx="32" ry="28" fill="#FFC8DD" opacity="1"/>
  <circle cx="100" cy="58" r="28" fill="#FFC8DD" opacity="1"/>
  <ellipse cx="82" cy="25" rx="10" ry="24" fill="#FFC8DD" opacity="1"/>
  <ellipse cx="118" cy="25" rx="10" ry="24" fill="#FFC8DD" opacity="1"/>
  <ellipse cx="82" cy="27" rx="5" ry="15" fill="#FFD6D6" opacity="1"/>
  <ellipse cx="118" cy="27" rx="5" ry="15" fill="#FFD6D6" opacity="1"/>
  <circle cx="88" cy="52" r="5" fill="#333" opacity="1"/>
  <circle cx="112" cy="52" r="5" fill="#333" opacity="1"/>
  <circle cx="86" cy="50" r="2" fill="white" opacity="1"/>
  <circle cx="110" cy="50" r="2" fill="white" opacity="1"/>
  <ellipse cx="100" cy="68" rx="6" ry="4" fill="#FFB3B3" opacity="1"/>
  <path d="M50,46.8 C45.2,42.6 47.6,40.2 50,43.2 C52.4,40.2 54.8,42.6 50,46.8Z" fill="#FFB3B3"/>
  <path d="M155,51.5 C151,48 153,46 155,48.5 C157,46 159,48 155,51.5Z" fill="#FFD6D6"/>
</svg>