<svg xmlns="http://www.w3.org/2000/svg" viewBox="0 0 200 150" width="200" height="150">
  <defs>
    <linearGradient id="bg75502" gradientTransform="rotate(180)">
      <stop offset="0%" style="stop-color:#F0F7FF"/>
      <stop offset="100%" style="stop-color:#DCE8F5"/>
    </linearGradient>
  </defs>
  <rect width="200" height="150" fill="url(#bg75502)" rx="16"/>
  <circle cx="43.33587007549795" cy="73.2345057839666" r="3.871290905067326" fill="#F0F7FF" opacity="0.3"/><circle cx="145.65548679238418" cy="0.6551020310325839" r="2.3703211552438006" fill="#F0F7FF" opacity="0.3"/><circle cx="10.00074094372394" cy="61.40476820007734" r="3.689250272989284" fill="#F0F7FF" opacity="0.3"/><circle cx="4.780132160476569" cy="147.2610777495447" r="2.19165699676887" fill="#F0F7FF" opacity="0.3"/><circle cx="55.154691358802665" cy="122.12741529701816" r="3.89959147173613" fill="#F0F7FF" opacity="0.3"/><circle cx="94.14402006914315" cy="41.40492448454438" r="3.757331720625416" fill="#F0F7FF" opacity="0.3"/>
  <circle cx="100" cy="75" r="48" fill="#FFE5D9" opacity="1"/>
  <circle cx="80" cy="68" r="8" fill="#333" opacity="1"/>
  <circle cx="120" cy="68" r="8" fill="#333" opacity="1"/>
  <circle cx="78" cy="65" r="3" fill="white" opacity="1"/>
  <circle cx="118" cy="65" r="3" fill="white" opacity="1"/>
  <path d="M72 92 Q100 115 128 92" stroke="#333" stroke-width="4" fill="none" stroke-linecap="round"/>
  <ellipse cx="60" cy="82" rx="12" ry="7" fill="#FFB3B3" opacity="0.4"/>
  <ellipse cx="140" cy="82" rx="12" ry="7" fill="#FFB3B3" opacity="0.4"/>
  <path d="M45,42.25 C39,37 42,34 45,37.75 C48,34 51,37 45,42.25Z" fill="#FFB3B3"/>
  <path d="M160,46.8 C155.2,42.6 157.6,40.2 160,43.2 C162.4,40.2 164.8,42.6 160,46.8Z" fill="#FFD6D6"/>
</svg>