<svg xmlns="http://www.w3.org/2000/svg" viewBox="0 0 200 150" width="200" height="150">
  <defs>
    <linearGradient id="bg7612" gradientTransform="rotate(0)">
      <stop offset="0%" style="stop-color:#D4E9FF"/>
      <stop offset="100%" style="stop-color:#A8D0F0"/>
    </linearGradient>
  </defs>
  <rect width="200" height="150" fill="url(#bg7612)" rx="16"/>
  <rect x="0" y="0" width="200" height="150" rx="0" fill="#1a1a3e"/>
  <polygon points="82.8287774821456,38.32143316256361 83.43838691051312,39.55663677888922 84.8015150320677,39.75471088917511 83.81514625710665,40.71618281737701 84.04799633888065,42.0738029661507 82.8287774821456,41.432821680682764 81.60955862541054,42.0738029661507 81.84240870718455,40.71618281737701 80.8560399322235,39.75471088917511 82.21916805377808,39.55663677888922" fill="#FFF3B0"/>
  <polygon points="121.13646907724615,39.34641403864862 122.2518082257126,41.606337992424315 124.7457823796503,41.9687336497407 122.94112572844821,43.72783912248052 123.36714737417904,46.211735909853104 121.13646907724615,45.03899892802656 118.90579078031325,46.211735909853104 119.33181242604408,43.72783912248052 117.527155774842,41.9687336497407 120.0211299287797,41.606337992424315" fill="#FFF3B0"/>
  <polygon points="146.941285314997,23.489819658964734 147.6153230400467,24.855569263183952 149.12251721265707,25.074577396056615 148.03190126382705,26.13766520445847 148.28936076509635,27.638769278605647 146.941285314997,26.93004407300441 145.59320986489766,27.638769278605647 145.85066936616695,26.13766520445847 144.76005341733693,25.074577396056615 146.26724758994732,24.855569263183952" fill="#FFF3B0"/>
  <polygon points="131.76830614796927,39.80666173839563 132.63392839773235,41.56060398981802 134.56951859103884,41.84186170826348 133.16891236950406,43.20711535239249 133.4995506474954,45.134884433412424 131.76830614796927,44.224715337326415 130.03706164844314,45.134884433412424 130.36769992643448,43.20711535239249 128.9670937048997,41.84186170826348 130.9026838982062,41.56060398981802" fill="#FFF3B0"/>
  <polygon points="172.84726304327705,40.41436007163884 173.65982208655973,42.06078452315789 175.476759343072,42.3248009606726 174.16201119317452,43.60636366913498 174.4723811298424,45.415959252626784 172.84726304327705,44.56158411365186 171.2221449567117,45.415959252626784 171.53251489337958,43.606363669134986 170.21776674348212,42.3248009606726 172.03470399999438,42.06078452315789" fill="#FFF3B0"/>
  <polygon points="67.34987131832895,19.009008228696075 68.25046635448571,20.83381308528217 70.26425807553113,21.12643415085909 68.80706469693004,22.54684664064209 69.15106139064248,24.552501261578932 67.34987131832895,23.6055596017236 65.54868124601542,24.552501261578932 65.89267793972786,22.54684664064209 64.43548456112677,21.126434150859087 66.44927628217218,20.83381308528217" fill="#FFF3B0"/>
  <polygon points="161.94858839855442,21.997074857658845 162.8056372162661,23.733645438333657 164.72205663270518,24.0121174798413 163.3353225156298,25.36384916406912 163.66268603397774,27.272524931312226 161.94858839855442,26.371370475160347 160.2344907631311,27.272524931312226 160.56185428147904,25.36384916406912 159.17512016440367,24.0121174798413 161.09153958084275,23.733645438333657" fill="#FFF3B0"/>
  <polygon points="112.62434279035006,22.716777021962116 113.44003179258574,24.369543463020356 115.2639678500837,24.6345768858473 113.94415532021688,25.92107614471343 114.25572079482141,27.737642249233442 112.62434279035006,26.87997607665602 110.9929647858787,27.737642249233442 111.30453026048323,25.92107614471343 109.98471773061641,24.634576885847295 111.80865378811437,24.369543463020356" fill="#FFF3B0"/>
  <polygon points="67.58846886797983,22.37810454501698 68.19334933265,23.60372623431091 69.54590316991415,23.80026381114876 68.567186018947,24.75427724931932 68.79822979732016,26.10136584116558 67.58846886797983,25.46535688238521 66.3787079386395,26.10136584116558 66.60975171701266,24.75427724931932 65.6310345660455,23.80026381114876 66.98358840330965,23.60372623431091" fill="#FFF3B0"/>
  <polygon points="87.8103834478361,51.6350235036698 88.77013085052798,53.57968414603998 90.91619128417585,53.89152498058294 89.36328736600598,55.40523218869488 89.72987825321984,57.542621065892746 87.8103834478361,56.533482927151454 85.89088864245237,57.542621065892746 86.25747952966623,55.40523218869488 84.70457561149635,53.89152498058294 86.85063604514423,53.57968414603998" fill="#FFF3B0"/>
  <path d="M155 25 A22 22 0 1 1 175 50 A18 18 0 1 0 155 25" fill="#FFE566"/>
  <rect x="35" y="75" width="130" height="50" rx="8" fill="#C9B8E8"/>
  <rect x="45" y="65" width="90" height="20" rx="8" fill="white"/>
  <rect x="40" y="90" width="120" height="30" rx="6" fill="#A8D0F0"/>
  <text x="170" y="75" fill="#E2D9F3" font-size="16" font-weight="bold">z</text>
  <text x="178" y="65" fill="#E2D9F3" font-size="13" font-weight="bold">z</text>
</svg>