<svg xmlns="http://www.w3.org/2000/svg" viewBox="0 0 200 150" width="200" height="150">
  <defs>
    <linearGradient id="bg76259" gradientTransform="rotate(45)">
      <stop offset="0%" style="stop-color:#FFE5D9"/>
      <stop offset="100%" style="stop-color:#FFCDB2"/>
    </linearGradient>
  </defs>
  <rect width="200" height="150" fill="url(#bg76259)" rx="16"/>
  <circle cx="12.841385097635793" cy="14.482254959102647" r="4.47519237985307" fill="#FFE5D9" opacity="0.3"/><circle cx="34.93819011418964" cy="119.48746165135162" r="2.2835481876190897" fill="#FFE5D9" opacity="0.3"/><circle cx="48.9131638991239" cy="111.99075796823763" r="3.7467607349681202" fill="#FFE5D9" opacity="0.3"/><circle cx="134.28148491148022" cy="84.76808721305815" r="2.5765952843566993" fill="#FFE5D9" opacity="0.3"/><circle cx="121.77557348877599" cy="45.94478586122932" r="4.039847351909884" fill="#FFE5D9" opacity="0.3"/><circle cx="40.04535283565929" cy="20.08963375710664" r="2.104536006977469" fill="#FFE5D9" opacity="0.3"/>
  <circle cx="100" cy="75" r="48" fill="#FFE5D9" opacity="1"/>
  <circle cx="80" cy="68" r="8" fill="#333" opacity="1"/>
  <circle cx="120" cy="68" r="8" fill="#333" opacity="1"/>
  <circle cx="78" cy="65" r="3" fill="white" opacity="1"/>
  <circle cx="118" cy="65" r="3" fill="white" opacity="1"/>
  <path d="M72 92 Q100 115 128 92" stroke="#333" stroke-width="4" fill="none" stroke-linecap="round"/>
  <ellipse cx="60" cy="82" rx="12" ry="7" fill="#FFB3B3" opacity="0.4"/>
  <ellipse cx="140" cy="82" rx="12" ry="7" fill="#FFB3B3" opacity="0.4"/>
  <path d="M45,42.25 C39,37 42,34 45,37.75 C48,34 51,37 45,42.25Z" fill="#FFB3B3"/>
  <path d="M160,46.8 C155.2,42.6 157.6,40.2 160,43.2 C162.4,40.2 164.8,42.6 160,46.8Z" fill="#FFD6D6"/>
</svg>