<svg xmlns="http://www.w3.org/2000/svg" viewBox="0 0 200 150" width="200" height="150">
  <defs>
    <linearGradient id="bg76297" gradientTransform="rotate(135)">
      <stop offset="0%" style="stop-color:#E2D9F3"/>
      <stop offset="100%" style="stop-color:#C9B8E8"/>
    </linearGradient>
  </defs>
  <rect width="200" height="150" fill="url(#bg76297)" rx="16"/>
  <circle cx="115.66654196758464" cy="147.42070232719016" r="3.3695639235156705" fill="#E2D9F3" opacity="0.3"/><circle cx="58.70702435640851" cy="94.4345821736988" r="2.805920169766978" fill="#E2D9F3" opacity="0.3"/><circle cx="130.2828418869467" cy="124.9311759772155" r="4.3248319809081295" fill="#E2D9F3" opacity="0.3"/><circle cx="114.49815971427597" cy="26.660652920327266" r="2.5353245260657786" fill="#E2D9F3" opacity="0.3"/><circle cx="163.1679257567157" cy="110.80275803032578" r="4.1177615571509705" fill="#E2D9F3" opacity="0.3"/><circle cx="45.85185655942041" cy="68.02900600914654" r="2.1951157802395755" fill="#E2D9F3" opacity="0.3"/>
  <circle cx="100" cy="75" r="48" fill="#FFE5D9" opacity="1"/>
  <circle cx="80" cy="68" r="8" fill="#333" opacity="1"/>
  <circle cx="120" cy="68" r="8" fill="#333" opacity="1"/>
  <circle cx="78" cy="65" r="3" fill="white" opacity="1"/>
  <circle cx="118" cy="65" r="3" fill="white" opacity="1"/>
  <path d="M72 92 Q100 115 128 92" stroke="#333" stroke-width="4" fill="none" stroke-linecap="round"/>
  <ellipse cx="60" cy="82" rx="12" ry="7" fill="#FFB3B3" opacity="0.4"/>
  <ellipse cx="140" cy="82" rx="12" ry="7" fill="#FFB3B3" opacity="0.4"/>
  <path d="M45,42.25 C39,37 42,34 45,37.75 C48,34 51,37 45,42.25Z" fill="#FFB3B3"/>
  <path d="M160,46.8 C155.2,42.6 157.6,40.2 160,43.2 C162.4,40.2 164.8,42.6 160,46.8Z" fill="#FFD6D6"/>
</svg>