<svg xmlns="http://www.w3.org/2000/svg" viewBox="0 0 200 150" width="200" height="150">
  <defs>
    <linearGradient id="bg76301" gradientTransform="rotate(90)">
      <stop offset="0%" style="stop-color:#E0F4FF"/>
      <stop offset="100%" style="stop-color:#BAE6FD"/>
    </linearGradient>
  </defs>
  <rect width="200" height="150" fill="url(#bg76301)" rx="16"/>
  <circle cx="87.01619019993814" cy="64.12968371114403" r="3.9830228411174176" fill="#E0F4FF" opacity="0.3"/><circle cx="68.45929362243623" cy="127.93232416688625" r="4.63056558583412" fill="#E0F4FF" opacity="0.3"/><circle cx="76.27868944873626" cy="90.0501092106424" r="4.998838566854204" fill="#E0F4FF" opacity="0.3"/><circle cx="93.00607664499694" cy="109.85700224109678" r="3.282817006251207" fill="#E0F4FF" opacity="0.3"/><circle cx="28.06886637436037" cy="138.556754604474" r="2.623210151942658" fill="#E0F4FF" opacity="0.3"/><circle cx="55.698289434440085" cy="115.3790154530725" r="2.92774675300916" fill="#E0F4FF" opacity="0.3"/>
  <circle cx="100" cy="75" r="45" fill="#E0F4FF" opacity="1"/>
  <circle cx="100" cy="75" r="40" fill="white" opacity="1"/>
  <line x1="100" y1="42" x2="100" y2="52" stroke="#7DD3FC" stroke-width="2"/>
  <line x1="116.5" y1="46.421161675113524" x2="114" y2="50.751288694035715" stroke="#7DD3FC" stroke-width="2"/>
  <line x1="128.57883832488648" y1="58.5" x2="124.24871130596428" y2="61" stroke="#7DD3FC" stroke-width="2"/>
  <line x1="133" y1="75" x2="123" y2="75" stroke="#7DD3FC" stroke-width="2"/>
  <line x1="128.57883832488648" y1="91.5" x2="124.24871130596429" y2="89" stroke="#7DD3FC" stroke-width="2"/>
  <line x1="116.5" y1="103.57883832488648" x2="114" y2="99.24871130596429" stroke="#7DD3FC" stroke-width="2"/>
  <line x1="100" y1="108" x2="100" y2="98" stroke="#7DD3FC" stroke-width="2"/>
  <line x1="83.5" y1="103.57883832488648" x2="86" y2="99.24871130596428" stroke="#7DD3FC" stroke-width="2"/>
  <line x1="71.42116167511352" y1="91.50000000000001" x2="75.75128869403572" y2="89.00000000000001" stroke="#7DD3FC" stroke-width="2"/>
  <line x1="67" y1="75" x2="77" y2="75" stroke="#7DD3FC" stroke-width="2"/>
  <line x1="71.42116167511352" y1="58.5" x2="75.75128869403572" y2="61" stroke="#7DD3FC" stroke-width="2"/>
  <line x1="83.49999999999999" y1="46.42116167511353" x2="85.99999999999999" y2="50.75128869403572" stroke="#7DD3FC" stroke-width="2"/>
  <line x1="100" y1="75" x2="100" y2="55" stroke="#7DD3FC" stroke-width="4" stroke-linecap="round"/>
  <line x1="100" y1="75" x2="118" y2="85" stroke="#FFB3B3" stroke-width="3" stroke-linecap="round"/>
  <circle cx="100" cy="75" r="5" fill="#7DD3FC" opacity="1"/>
  <polygon points="45,33 48.52671151375484,40.14589803375031 56.412678195541844,41.291796067500634 50.70633909777092,46.85410196624969 52.05342302750968,54.70820393249937 45,51 37.94657697249032,54.70820393249937 39.29366090222908,46.85410196624969 33.587321804458156,41.29179606750063 41.47328848624516,40.14589803375031" fill="#FFF3B0"/>
</svg>