<svg xmlns="http://www.w3.org/2000/svg" viewBox="0 0 200 150" width="200" height="150">
  <defs>
    <linearGradient id="bg7643" gradientTransform="rotate(180)">
      <stop offset="0%" style="stop-color:#E2D9F3"/>
      <stop offset="100%" style="stop-color:#C9B8E8"/>
    </linearGradient>
  </defs>
  <rect width="200" height="150" fill="url(#bg7643)" rx="16"/>
  <circle cx="127.20172019198799" cy="55.80709618516266" r="4.622175920654627" fill="#C9B8E8" opacity="0.3"/><circle cx="151.47590698506974" cy="119.02141724484636" r="4.3894860919381244" fill="#C9B8E8" opacity="0.3"/><circle cx="53.24914381435519" cy="54.58674649889872" r="3.5252966468160594" fill="#C9B8E8" opacity="0.3"/><circle cx="156.75294864377065" cy="30.63695517666929" r="2.6392331481092697" fill="#C9B8E8" opacity="0.3"/><circle cx="47.51634456551983" cy="40.32342304208214" r="2.300625332274649" fill="#C9B8E8" opacity="0.3"/><circle cx="55.78971859631565" cy="138.4197038869388" r="4.357203615565595" fill="#C9B8E8" opacity="0.3"/>
  <ellipse cx="55.937836727971444" cy="95" rx="12" ry="8" fill="#B298DC" opacity="1"/>
  <rect x="65.27263081843557" y="60" width="4" height="35" rx="1" fill="#B298DC"/>
  <ellipse cx="103.39683597478142" cy="70" rx="12" ry="8" fill="#C9B8E8" opacity="1"/>
  <rect x="119.44090531959347" y="35" width="4" height="35" rx="1" fill="#C9B8E8"/>
  <ellipse cx="152.17319365940057" cy="90" rx="12" ry="8" fill="#B298DC" opacity="1"/>
  <rect x="157.4008255381341" y="55" width="4" height="35" rx="1" fill="#B298DC"/>
  <text x="40" y="40" fill="#B298DC" font-size="14" opacity="0.7">♪</text>
  <text x="155" y="50" fill="#FFB3B3" font-size="12" opacity="0.5">♫</text>
  <polygon points="147.5,34.5 149.85114100916988,39.263932022500214 155.10845213036123,40.02786404500042 151.30422606518061,43.736067977499786 152.2022820183398,48.97213595499958 147.5,46.5 142.7977179816602,48.97213595499958 143.69577393481939,43.73606797749979 139.89154786963877,40.02786404500042 145.14885899083012,39.263932022500214" fill="#FFF3B0"/><polygon points="162.4618036025989,2.5129727459008073 165.40072986406128,8.467887774026071 171.97236876555044,9.422802802151333 167.21708618407467,14.058057717775544 168.33965612552365,20.603142689650284 162.4618036025989,17.512972745900807 156.58395107967416,20.603142689650284 157.70652102112314,14.058057717775545 152.95123843964737,9.422802802151331 159.52287734113654,8.467887774026071" fill="#FFF3B0"/><polygon points="123.52689313342154,30.44813145534826 127.05360464717637,37.594029489098574 134.93957132896338,38.739927522848895 129.23323223119246,44.30223342159795 130.5803161609312,52.15633538784763 123.52689313342154,48.44813145534826 116.47347010591186,52.15633538784763 117.82055403565062,44.30223342159795 112.1142149378797,38.73992752284889 120.0001816196667,37.594029489098574" fill="#FFF3B0"/><polygon points="170.94999941936848,-1.3833798817890504 175.0644961854158,6.9535011575863175 184.26479064750063,8.290382196961687 177.60739503343456,14.779739078835581 179.1789929514631,23.942858039460212 170.94999941936848,19.61662011821095 162.72100588727386,23.942858039460212 164.2926038053024,14.779739078835583 157.63520819123633,8.290382196961682 166.83550265332116,6.953501157586318" fill="#FFF3B0"/>
</svg>