<svg xmlns="http://www.w3.org/2000/svg" viewBox="0 0 200 150" width="200" height="150">
  <defs>
    <linearGradient id="bg76599" gradientTransform="rotate(45)">
      <stop offset="0%" style="stop-color:#D4E9FF"/>
      <stop offset="100%" style="stop-color:#A8D0F0"/>
    </linearGradient>
  </defs>
  <rect width="200" height="150" fill="url(#bg76599)" rx="16"/>
  <circle cx="30.73020190495299" cy="98.41624037585461" r="4.055144051446405" fill="#D4E9FF" opacity="0.3"/><circle cx="152.78096235342673" cy="142.60373657834862" r="2.6261683307197927" fill="#D4E9FF" opacity="0.3"/><circle cx="64.42872859042836" cy="36.60329946683305" r="2.52256386771478" fill="#D4E9FF" opacity="0.3"/><circle cx="50.06103849627834" cy="46.97518567363659" r="4.978672141007337" fill="#D4E9FF" opacity="0.3"/><circle cx="104.35091471917985" cy="51.49878332854314" r="2.430713085566822" fill="#D4E9FF" opacity="0.3"/><circle cx="101.25458993425127" cy="139.08061957190512" r="3.0034588464841363" fill="#D4E9FF" opacity="0.3"/>
  <circle cx="100" cy="75" r="48" fill="#FFE5D9" opacity="1"/>
  <circle cx="80" cy="68" r="8" fill="#333" opacity="1"/>
  <circle cx="120" cy="68" r="8" fill="#333" opacity="1"/>
  <circle cx="78" cy="65" r="3" fill="white" opacity="1"/>
  <circle cx="118" cy="65" r="3" fill="white" opacity="1"/>
  <path d="M72 92 Q100 115 128 92" stroke="#333" stroke-width="4" fill="none" stroke-linecap="round"/>
  <ellipse cx="60" cy="82" rx="12" ry="7" fill="#FFB3B3" opacity="0.4"/>
  <ellipse cx="140" cy="82" rx="12" ry="7" fill="#FFB3B3" opacity="0.4"/>
  <path d="M45,42.25 C39,37 42,34 45,37.75 C48,34 51,37 45,42.25Z" fill="#FFB3B3"/>
  <path d="M160,46.8 C155.2,42.6 157.6,40.2 160,43.2 C162.4,40.2 164.8,42.6 160,46.8Z" fill="#FFD6D6"/>
</svg>