<svg xmlns="http://www.w3.org/2000/svg" viewBox="0 0 200 150" width="200" height="150">
  <defs>
    <linearGradient id="bg7672" gradientTransform="rotate(0)">
      <stop offset="0%" style="stop-color:#FFE4EC"/>
      <stop offset="100%" style="stop-color:#FFC8DD"/>
    </linearGradient>
  </defs>
  <rect width="200" height="150" fill="url(#bg7672)" rx="16"/>
  <circle cx="46.13354398243246" cy="92.17572727684455" r="4.967926855697442" fill="#FFE4EC" opacity="0.3"/><circle cx="99.56399730617704" cy="41.120896926992145" r="4.634820772186686" fill="#FFE4EC" opacity="0.3"/><circle cx="18.678275141792255" cy="110.85543910909337" r="3.4814916921413896" fill="#FFE4EC" opacity="0.3"/><circle cx="160.01362316383165" cy="148.10177781055245" r="2.981274263940577" fill="#FFE4EC" opacity="0.3"/><circle cx="29.62670782985697" cy="92.33020032779677" r="4.396720518188886" fill="#FFE4EC" opacity="0.3"/><circle cx="182.79036387866654" cy="88.98446691800928" r="3.022449350080933" fill="#FFE4EC" opacity="0.3"/>
  <circle cx="100" cy="75" r="48" fill="#FFE5D9" opacity="1"/>
  <circle cx="80" cy="68" r="8" fill="#333" opacity="1"/>
  <circle cx="120" cy="68" r="8" fill="#333" opacity="1"/>
  <circle cx="78" cy="65" r="3" fill="white" opacity="1"/>
  <circle cx="118" cy="65" r="3" fill="white" opacity="1"/>
  <path d="M72 92 Q100 115 128 92" stroke="#333" stroke-width="4" fill="none" stroke-linecap="round"/>
  <ellipse cx="60" cy="82" rx="12" ry="7" fill="#FFB3B3" opacity="0.4"/>
  <ellipse cx="140" cy="82" rx="12" ry="7" fill="#FFB3B3" opacity="0.4"/>
  <path d="M45,42.25 C39,37 42,34 45,37.75 C48,34 51,37 45,42.25Z" fill="#FFB3B3"/>
  <path d="M160,46.8 C155.2,42.6 157.6,40.2 160,43.2 C162.4,40.2 164.8,42.6 160,46.8Z" fill="#FFD6D6"/>
</svg>