<svg xmlns="http://www.w3.org/2000/svg" viewBox="0 0 200 150" width="200" height="150">
  <defs>
    <linearGradient id="bg7676" gradientTransform="rotate(135)">
      <stop offset="0%" style="stop-color:#F0F7FF"/>
      <stop offset="100%" style="stop-color:#DCE8F5"/>
    </linearGradient>
  </defs>
  <rect width="200" height="150" fill="url(#bg7676)" rx="16"/>
  <rect x="162.92340751941083" y="20.09197523287753" width="6" height="3" rx="1" fill="#FFF3B0"/>
  <rect x="177.3433716692307" y="28.057107133745376" width="6" height="3" rx="1" fill="#FFD6D6"/>
  <rect x="132.40440600420698" y="48.20785940961059" width="6" height="3" rx="1" fill="#D8F3DC"/>
  <rect x="96.39742037717951" y="26.342940400763837" width="6" height="3" rx="1" fill="#FFF3B0"/>
  <circle cx="132.89820197154768" cy="28.82650312012629" r="3" fill="#FFD6D6" opacity="1"/>
  <rect x="118.0034091314883" y="41.7003463612582" width="6" height="3" rx="1" fill="#D8F3DC"/>
  <circle cx="104.66597078164341" cy="33.81047952546396" r="3" fill="#FFF3B0" opacity="1"/>
  <circle cx="179.50005200771557" cy="19.74751003977417" r="3" fill="#FFD6D6" opacity="1"/>
  <rect x="55" y="55" width="90" height="60" rx="15" fill="#DCE8F5"/>
  <ellipse cx="100" cy="75" rx="28" ry="20" fill="#F0F7FF" opacity="1"/>
  <rect x="60" y="50" width="80" height="18" rx="10" fill="#C7D9EB"/>
  <polygon points="40,25 44.40838939219355,33.93237254218789 54.265847744427305,35.36474508437579 47.13292387221365,42.31762745781211 48.8167787843871,52.135254915624216 40,47.5 31.183221215612903,52.135254915624216 32.86707612778635,42.31762745781211 25.734152255572695,35.364745084375784 35.59161060780645,33.93237254218789" fill="#FFE566"/>
  <polygon points="165,32 168.82060413990106,39.74138953656284 177.363734711837,40.982779073125684 171.18186735591848,47.00861046343716 172.64120827980216,55.517220926874316 165,51.5 157.35879172019784,55.517220926874316 158.81813264408152,47.00861046343716 152.636265288163,40.98277907312568 161.17939586009894,39.74138953656284" fill="#FFF3B0"/>
  <polygon points="100,13 103.52671151375483,20.145898033750314 111.41267819554184,21.29179606750063 105.70633909777092,26.854101966249683 107.05342302750968,34.70820393249937 100,31 92.94657697249032,34.70820393249937 94.29366090222908,26.854101966249686 88.58732180445816,21.291796067500627 96.47328848624517,20.145898033750317" fill="#FFB3B3"/>
</svg>