<svg xmlns="http://www.w3.org/2000/svg" viewBox="0 0 200 150" width="200" height="150">
  <defs>
    <linearGradient id="bg76896" gradientTransform="rotate(0)">
      <stop offset="0%" style="stop-color:#FFF3B0"/>
      <stop offset="100%" style="stop-color:#FFE566"/>
    </linearGradient>
  </defs>
  <rect width="200" height="150" fill="url(#bg76896)" rx="16"/>
  <rect x="0" y="0" width="200" height="150" rx="0" fill="#1a1a3e"/>
  <polygon points="162.03236158547952,47.8941031959541 162.69116091144716,49.22897643117823 164.1642809878418,49.44303330805008 163.09832128666068,50.482087214962974 163.3499602374148,51.94925487561956 162.03236158547952,51.25655227101096 160.71476293354425,51.94925487561956 160.96640188429836,50.482087214962974 159.90044218311724,49.443033308050076 161.37356225951189,49.22897643117823" fill="#FFF3B0"/>
  <polygon points="50.09037132403677,50.60228494859621 50.76052614002071,51.96016691971024 52.25903786400967,52.17791341894876 51.17470459402322,53.23487712904646 51.43068095600466,54.7273338376212 50.09037132403677,54.02269136422274 48.750061692068876,54.7273338376212 49.006038054050315,53.23487712904646 47.92170478406386,52.17791341894876 49.420216508052825,51.96016691971024" fill="#FFF3B0"/>
  <polygon points="85.4269257294527,37.08636708882523 86.17630287290751,38.6047710283212 87.85196110645708,38.84825842213642 86.6394434179549,40.03017105921189 86.92568001636232,41.6990584839178 85.4269257294527,40.91111672586749 83.92817144254309,41.6990584839178 84.21440804095052,40.03017105921189 83.00189035244833,38.84825842213642 84.6775485859979,38.6047710283212" fill="#FFF3B0"/>
  <polygon points="47.15199222449883,48.938250370112655 48.04487934351034,50.74743728070069 50.04143563785403,51.03755389218018 48.596713931176424,52.445809506404494 48.93776646252185,54.434298343587805 47.15199222449883,53.49546126743826 45.3662179864758,54.434298343587805 45.70727051782123,52.445809506404494 44.262548811143624,51.03755389218018 46.259105105487315,50.74743728070069" fill="#FFF3B0"/>
  <polygon points="47.929148294524566,43.952299799054344 48.77322550927173,45.66258704133955 50.660639539705095,45.93684435355232 49.294893917114834,47.26811731202267 49.617302724018906,49.147904894918554 47.929148294524566,48.260389589271654 46.24099386503023,49.147904894918554 46.5634026719343,47.26811731202267 45.19765704934404,45.93684435355232 47.08507107977739,45.66258704133955" fill="#FFF3B0"/>
  <polygon points="58.18697939190315,47.15098941753695 59.231938903577316,49.26830865124736 61.56853940541572,49.60783657835621 59.877759398659435,51.25593975693199 60.27689841525147,53.58309878972547 58.18697939190315,52.48436333734162 56.09706036855483,53.58309878972547 56.496199385146866,51.25593975693199 54.80541937839058,49.60783657835621 57.142019880228986,49.26830865124736" fill="#FFF3B0"/>
  <polygon points="87.58551072885894,25.13360883212681 88.39778496104472,26.77945619333118 90.2140853605836,27.0433800901108 88.89979804472127,28.32449359640905 89.2100591932305,30.133454896266542 87.58551072885894,29.279379225401044 85.96096226448736,30.133454896266542 86.2712234129966,28.32449359640905 84.95693609713427,27.0433800901108 86.77323649667315,26.77945619333118" fill="#FFF3B0"/>
  <polygon points="66.54966663384585,17.40069966583428 67.72512337746079,19.78243517218239 70.35352456079434,20.164364220252676 68.4515955973201,22.018286763458534 68.90058012107573,24.636067402804972 66.54966663384585,23.400119040667732 64.19875314661596,24.636067402804972 64.6477376703716,22.018286763458534 62.74580870689734,20.164364220252676 65.3742098902309,19.78243517218239" fill="#FFF3B0"/>
  <polygon points="134.31071549173794,34.15808110517537 135.7253774894619,37.02449939556564 138.8886578815583,37.48415094213834 136.5996866866481,39.715346418146595 137.14003948718582,42.86584498730025 134.31071549173794,41.37838133662808 131.48139149629006,42.86584498730025 132.02174429682776,39.715346418146595 129.7327731019176,37.48415094213834 132.89605349401398,37.02449939556564" fill="#FFF3B0"/>
  <polygon points="97.24426897208104,15.167904015615932 98.31729907833743,17.34210048633565 100.71666733783051,17.690749102509233 98.98046815495577,19.38312503580767 99.39032918459381,21.77279820145328 97.24426897208104,20.644547579254322 95.09820875956828,21.77279820145328 95.50806978920632,19.38312503580767 93.77187060633158,17.690749102509233 96.17123886582466,17.34210048633565" fill="#FFF3B0"/>
  <path d="M155 25 A22 22 0 1 1 175 50 A18 18 0 1 0 155 25" fill="#FFE566"/>
  <rect x="35" y="75" width="130" height="50" rx="8" fill="#C9B8E8"/>
  <rect x="45" y="65" width="90" height="20" rx="8" fill="white"/>
  <rect x="40" y="90" width="120" height="30" rx="6" fill="#FFE566"/>
  <text x="170" y="75" fill="#E2D9F3" font-size="16" font-weight="bold">z</text>
  <text x="178" y="65" fill="#E2D9F3" font-size="13" font-weight="bold">z</text>
</svg>