<svg xmlns="http://www.w3.org/2000/svg" viewBox="0 0 200 150" width="200" height="150">
  <defs>
    <linearGradient id="bg7692" gradientTransform="rotate(45)">
      <stop offset="0%" style="stop-color:#FFF3B0"/>
      <stop offset="100%" style="stop-color:#FFE566"/>
    </linearGradient>
  </defs>
  <rect width="200" height="150" fill="url(#bg7692)" rx="16"/>
  <circle cx="121.42214453400811" cy="33.59905955647264" r="3" fill="#FFF3B0" opacity="1"/>
  <rect x="110.53986754239304" y="39.620437455755564" width="6" height="3" rx="1" fill="#FFD6D6"/>
  <rect x="31.43815847564838" y="44.630295246449236" width="6" height="3" rx="1" fill="#D8F3DC"/>
  <rect x="142.51993513695197" y="33.76772103956682" width="6" height="3" rx="1" fill="#FFF3B0"/>
  <rect x="47.96588227705797" y="41.528226091056695" width="6" height="3" rx="1" fill="#FFD6D6"/>
  <rect x="42.47516165924026" y="47.767303810796875" width="6" height="3" rx="1" fill="#D8F3DC"/>
  <rect x="148.64933003715123" y="25.492077980279646" width="6" height="3" rx="1" fill="#FFF3B0"/>
  <circle cx="148.00575757908518" cy="37.278313474498646" r="3" fill="#FFD6D6" opacity="1"/>
  <rect x="55" y="55" width="90" height="60" rx="15" fill="#FFE566"/>
  <ellipse cx="100" cy="75" rx="28" ry="20" fill="#FFF3B0" opacity="1"/>
  <rect x="60" y="50" width="80" height="18" rx="10" fill="#FFD93D"/>
  <polygon points="40,25 44.40838939219355,33.93237254218789 54.265847744427305,35.36474508437579 47.13292387221365,42.31762745781211 48.8167787843871,52.135254915624216 40,47.5 31.183221215612903,52.135254915624216 32.86707612778635,42.31762745781211 25.734152255572695,35.364745084375784 35.59161060780645,33.93237254218789" fill="#FFE566"/>
  <polygon points="165,32 168.82060413990106,39.74138953656284 177.363734711837,40.982779073125684 171.18186735591848,47.00861046343716 172.64120827980216,55.517220926874316 165,51.5 157.35879172019784,55.517220926874316 158.81813264408152,47.00861046343716 152.636265288163,40.98277907312568 161.17939586009894,39.74138953656284" fill="#FFF3B0"/>
  <polygon points="100,13 103.52671151375483,20.145898033750314 111.41267819554184,21.29179606750063 105.70633909777092,26.854101966249683 107.05342302750968,34.70820393249937 100,31 92.94657697249032,34.70820393249937 94.29366090222908,26.854101966249686 88.58732180445816,21.291796067500627 96.47328848624517,20.145898033750317" fill="#FFB3B3"/>
</svg>