<svg xmlns="http://www.w3.org/2000/svg" viewBox="0 0 200 150" width="200" height="150">
  <defs>
    <linearGradient id="bg7706" gradientTransform="rotate(90)">
      <stop offset="0%" style="stop-color:#D0F0F0"/>
      <stop offset="100%" style="stop-color:#A0E0E0"/>
    </linearGradient>
  </defs>
  <rect width="200" height="150" fill="url(#bg7706)" rx="16"/>
  <circle cx="86.41915963489737" cy="132.0439021375023" r="4.461398458168787" fill="#D0F0F0" opacity="0.3"/><circle cx="89.43513679041644" cy="9.137359468422801" r="3.272593793379201" fill="#D0F0F0" opacity="0.3"/><circle cx="113.15705726847227" cy="56.53696301433229" r="2.0376808753280784" fill="#D0F0F0" opacity="0.3"/><circle cx="140.4130632250599" cy="93.22696019498835" r="3.201359897169823" fill="#D0F0F0" opacity="0.3"/><circle cx="31.55660247466585" cy="71.9225454990692" r="4.45757973182117" fill="#D0F0F0" opacity="0.3"/><circle cx="171.85983214367297" cy="32.49092202158863" r="3.219670449432897" fill="#D0F0F0" opacity="0.3"/>
  <circle cx="100" cy="75" r="48" fill="#FFE5D9" opacity="1"/>
  <circle cx="80" cy="68" r="8" fill="#333" opacity="1"/>
  <circle cx="120" cy="68" r="8" fill="#333" opacity="1"/>
  <circle cx="78" cy="65" r="3" fill="white" opacity="1"/>
  <circle cx="118" cy="65" r="3" fill="white" opacity="1"/>
  <path d="M72 92 Q100 115 128 92" stroke="#333" stroke-width="4" fill="none" stroke-linecap="round"/>
  <ellipse cx="60" cy="82" rx="12" ry="7" fill="#FFB3B3" opacity="0.4"/>
  <ellipse cx="140" cy="82" rx="12" ry="7" fill="#FFB3B3" opacity="0.4"/>
  <path d="M45,42.25 C39,37 42,34 45,37.75 C48,34 51,37 45,42.25Z" fill="#FFB3B3"/>
  <path d="M160,46.8 C155.2,42.6 157.6,40.2 160,43.2 C162.4,40.2 164.8,42.6 160,46.8Z" fill="#FFD6D6"/>
</svg>