<svg xmlns="http://www.w3.org/2000/svg" viewBox="0 0 200 150" width="200" height="150">
  <defs>
    <linearGradient id="bg7707" gradientTransform="rotate(135)">
      <stop offset="0%" style="stop-color:#E8F0E8"/>
      <stop offset="100%" style="stop-color:#C5DBC5"/>
    </linearGradient>
  </defs>
  <rect width="200" height="150" fill="url(#bg7707)" rx="16"/>
  <circle cx="45.82113188716903" cy="47.376718743828405" r="2.6631876030405692" fill="#E8F0E8" opacity="0.3"/><circle cx="117.2205591621605" cy="98.24064166448352" r="4.879122292772081" fill="#E8F0E8" opacity="0.3"/><circle cx="193.22389178896628" cy="29.9728096666513" r="2.9037618724623826" fill="#E8F0E8" opacity="0.3"/><circle cx="52.21231759596776" cy="10.11674980384214" r="4.983845772940185" fill="#E8F0E8" opacity="0.3"/><circle cx="70.27750408342399" cy="42.87419912484438" r="4.3880138096651535" fill="#E8F0E8" opacity="0.3"/><circle cx="18.21716516114975" cy="143.81116743834355" r="4.305030299063219" fill="#E8F0E8" opacity="0.3"/>
  <circle cx="100" cy="75" r="45" fill="#E8F0E8" opacity="1"/>
  <circle cx="100" cy="75" r="40" fill="white" opacity="1"/>
  <line x1="100" y1="42" x2="100" y2="52" stroke="#A3C4A3" stroke-width="2"/>
  <line x1="116.5" y1="46.421161675113524" x2="114" y2="50.751288694035715" stroke="#A3C4A3" stroke-width="2"/>
  <line x1="128.57883832488648" y1="58.5" x2="124.24871130596428" y2="61" stroke="#A3C4A3" stroke-width="2"/>
  <line x1="133" y1="75" x2="123" y2="75" stroke="#A3C4A3" stroke-width="2"/>
  <line x1="128.57883832488648" y1="91.5" x2="124.24871130596429" y2="89" stroke="#A3C4A3" stroke-width="2"/>
  <line x1="116.5" y1="103.57883832488648" x2="114" y2="99.24871130596429" stroke="#A3C4A3" stroke-width="2"/>
  <line x1="100" y1="108" x2="100" y2="98" stroke="#A3C4A3" stroke-width="2"/>
  <line x1="83.5" y1="103.57883832488648" x2="86" y2="99.24871130596428" stroke="#A3C4A3" stroke-width="2"/>
  <line x1="71.42116167511352" y1="91.50000000000001" x2="75.75128869403572" y2="89.00000000000001" stroke="#A3C4A3" stroke-width="2"/>
  <line x1="67" y1="75" x2="77" y2="75" stroke="#A3C4A3" stroke-width="2"/>
  <line x1="71.42116167511352" y1="58.5" x2="75.75128869403572" y2="61" stroke="#A3C4A3" stroke-width="2"/>
  <line x1="83.49999999999999" y1="46.42116167511353" x2="85.99999999999999" y2="50.75128869403572" stroke="#A3C4A3" stroke-width="2"/>
  <line x1="100" y1="75" x2="100" y2="55" stroke="#A3C4A3" stroke-width="4" stroke-linecap="round"/>
  <line x1="100" y1="75" x2="118" y2="85" stroke="#FFB3B3" stroke-width="3" stroke-linecap="round"/>
  <circle cx="100" cy="75" r="5" fill="#A3C4A3" opacity="1"/>
  <polygon points="45,33 48.52671151375484,40.14589803375031 56.412678195541844,41.291796067500634 50.70633909777092,46.85410196624969 52.05342302750968,54.70820393249937 45,51 37.94657697249032,54.70820393249937 39.29366090222908,46.85410196624969 33.587321804458156,41.29179606750063 41.47328848624516,40.14589803375031" fill="#FFF3B0"/>
</svg>