<svg xmlns="http://www.w3.org/2000/svg" viewBox="0 0 200 150" width="200" height="150">
  <defs>
    <linearGradient id="bg7708" gradientTransform="rotate(180)">
      <stop offset="0%" style="stop-color:#D0F0F0"/>
      <stop offset="100%" style="stop-color:#A0E0E0"/>
    </linearGradient>
  </defs>
  <rect width="200" height="150" fill="url(#bg7708)" rx="16"/>
  <circle cx="139.06817773604416" cy="31.45622298861781" r="3.0433912499929647" fill="#D0F0F0" opacity="0.3"/><circle cx="38.33804309797415" cy="41.215410910899664" r="2.7022357517371347" fill="#D0F0F0" opacity="0.3"/><circle cx="108.36576140291072" cy="3.84303835380706" r="4.2467885684127396" fill="#D0F0F0" opacity="0.3"/><circle cx="78.54640846999246" cy="64.14525620293716" r="2.519189921409634" fill="#D0F0F0" opacity="0.3"/><circle cx="99.00329016018077" cy="142.87715008740633" r="4.4123842363569565" fill="#D0F0F0" opacity="0.3"/><circle cx="137.61958880495513" cy="64.44438946632545" r="3.6031503852518654" fill="#D0F0F0" opacity="0.3"/>
  <circle cx="100" cy="75" r="48" fill="#FFE5D9" opacity="1"/>
  <circle cx="80" cy="68" r="8" fill="#333" opacity="1"/>
  <circle cx="120" cy="68" r="8" fill="#333" opacity="1"/>
  <circle cx="78" cy="65" r="3" fill="white" opacity="1"/>
  <circle cx="118" cy="65" r="3" fill="white" opacity="1"/>
  <path d="M72 92 Q100 115 128 92" stroke="#333" stroke-width="4" fill="none" stroke-linecap="round"/>
  <ellipse cx="60" cy="82" rx="12" ry="7" fill="#FFB3B3" opacity="0.4"/>
  <ellipse cx="140" cy="82" rx="12" ry="7" fill="#FFB3B3" opacity="0.4"/>
  <path d="M45,42.25 C39,37 42,34 45,37.75 C48,34 51,37 45,42.25Z" fill="#FFB3B3"/>
  <path d="M160,46.8 C155.2,42.6 157.6,40.2 160,43.2 C162.4,40.2 164.8,42.6 160,46.8Z" fill="#FFD6D6"/>
</svg>