<svg xmlns="http://www.w3.org/2000/svg" viewBox="0 0 200 150" width="200" height="150">
  <defs>
    <linearGradient id="bg77142" gradientTransform="rotate(90)">
      <stop offset="0%" style="stop-color:#FFF5EB"/>
      <stop offset="100%" style="stop-color:#FFE4CC"/>
    </linearGradient>
  </defs>
  <rect width="200" height="150" fill="url(#bg77142)" rx="16"/>
  <circle cx="185.9455443398474" cy="129.3220757025665" r="3.3636684044395224" fill="#FFF5EB" opacity="0.3"/><circle cx="71.49189652300265" cy="11.836704902621875" r="3.335490229734205" fill="#FFF5EB" opacity="0.3"/><circle cx="57.671930883225286" cy="34.29296836893627" r="4.881186795743815" fill="#FFF5EB" opacity="0.3"/><circle cx="128.16554798118887" cy="139.3908226798203" r="4.213774953843313" fill="#FFF5EB" opacity="0.3"/><circle cx="66.51260932158038" cy="59.19758470015495" r="3.089209910097452" fill="#FFF5EB" opacity="0.3"/><circle cx="19.94055800417982" cy="59.85160645693668" r="4.927107648594983" fill="#FFF5EB" opacity="0.3"/>
  <circle cx="100" cy="75" r="48" fill="#FFE5D9" opacity="1"/>
  <circle cx="80" cy="68" r="8" fill="#333" opacity="1"/>
  <circle cx="120" cy="68" r="8" fill="#333" opacity="1"/>
  <circle cx="78" cy="65" r="3" fill="white" opacity="1"/>
  <circle cx="118" cy="65" r="3" fill="white" opacity="1"/>
  <path d="M72 92 Q100 115 128 92" stroke="#333" stroke-width="4" fill="none" stroke-linecap="round"/>
  <ellipse cx="60" cy="82" rx="12" ry="7" fill="#FFB3B3" opacity="0.4"/>
  <ellipse cx="140" cy="82" rx="12" ry="7" fill="#FFB3B3" opacity="0.4"/>
  <path d="M45,42.25 C39,37 42,34 45,37.75 C48,34 51,37 45,42.25Z" fill="#FFB3B3"/>
  <path d="M160,46.8 C155.2,42.6 157.6,40.2 160,43.2 C162.4,40.2 164.8,42.6 160,46.8Z" fill="#FFD6D6"/>
</svg>