<svg xmlns="http://www.w3.org/2000/svg" viewBox="0 0 200 150" width="200" height="150">
  <defs>
    <linearGradient id="bg7727" gradientTransform="rotate(0)">
      <stop offset="0%" style="stop-color:#F0F7FF"/>
      <stop offset="100%" style="stop-color:#DCE8F5"/>
    </linearGradient>
  </defs>
  <rect width="200" height="150" fill="url(#bg7727)" rx="16"/>
  <circle cx="112.33235845793388" cy="137.07433784502427" r="3.443684257809309" fill="#F0F7FF" opacity="0.3"/><circle cx="108.31076865924842" cy="128.72177335530068" r="3.872573211820054" fill="#F0F7FF" opacity="0.3"/><circle cx="60.87810227782029" cy="140.49941903722356" r="4.67140256479297" fill="#F0F7FF" opacity="0.3"/><circle cx="0.29634595121024176" cy="16.960728355070387" r="3.344697448450461" fill="#F0F7FF" opacity="0.3"/><circle cx="123.11415640324412" cy="99.32007305242223" r="2.5554743481989135" fill="#F0F7FF" opacity="0.3"/><circle cx="40.53530543214947" cy="98.63313510113016" r="3.1815668242311403" fill="#F0F7FF" opacity="0.3"/>
  <circle cx="100" cy="75" r="48" fill="#FFE5D9" opacity="1"/>
  <circle cx="80" cy="68" r="8" fill="#333" opacity="1"/>
  <circle cx="120" cy="68" r="8" fill="#333" opacity="1"/>
  <circle cx="78" cy="65" r="3" fill="white" opacity="1"/>
  <circle cx="118" cy="65" r="3" fill="white" opacity="1"/>
  <path d="M72 92 Q100 115 128 92" stroke="#333" stroke-width="4" fill="none" stroke-linecap="round"/>
  <ellipse cx="60" cy="82" rx="12" ry="7" fill="#FFB3B3" opacity="0.4"/>
  <ellipse cx="140" cy="82" rx="12" ry="7" fill="#FFB3B3" opacity="0.4"/>
  <path d="M45,42.25 C39,37 42,34 45,37.75 C48,34 51,37 45,42.25Z" fill="#FFB3B3"/>
  <path d="M160,46.8 C155.2,42.6 157.6,40.2 160,43.2 C162.4,40.2 164.8,42.6 160,46.8Z" fill="#FFD6D6"/>
</svg>