<svg xmlns="http://www.w3.org/2000/svg" viewBox="0 0 200 150" width="200" height="150">
  <defs>
    <linearGradient id="bg7731" gradientTransform="rotate(90)">
      <stop offset="0%" style="stop-color:#FFF3B0"/>
      <stop offset="100%" style="stop-color:#FFE566"/>
    </linearGradient>
  </defs>
  <rect width="200" height="150" fill="url(#bg7731)" rx="16"/>
  <circle cx="175.96580373862807" cy="71.8029519935044" r="2.9023822397430195" fill="#FFF3B0" opacity="0.3"/><circle cx="2.934339996863855" cy="7.37956428505413" r="3.172138190973783" fill="#FFF3B0" opacity="0.3"/><circle cx="162.77941190728598" cy="70.8522441623245" r="4.953776563559586" fill="#FFF3B0" opacity="0.3"/><circle cx="98.88101449469104" cy="36.82399045433158" r="2.688614710692491" fill="#FFF3B0" opacity="0.3"/><circle cx="6.629450818400073" cy="121.55375876618564" r="2.4277582545400946" fill="#FFF3B0" opacity="0.3"/><circle cx="52.82267802876959" cy="141.6367057253865" r="2.3524597025170806" fill="#FFF3B0" opacity="0.3"/>
  <circle cx="100" cy="75" r="48" fill="#FFE5D9" opacity="1"/>
  <circle cx="80" cy="68" r="8" fill="#333" opacity="1"/>
  <circle cx="120" cy="68" r="8" fill="#333" opacity="1"/>
  <circle cx="78" cy="65" r="3" fill="white" opacity="1"/>
  <circle cx="118" cy="65" r="3" fill="white" opacity="1"/>
  <path d="M72 92 Q100 115 128 92" stroke="#333" stroke-width="4" fill="none" stroke-linecap="round"/>
  <ellipse cx="60" cy="82" rx="12" ry="7" fill="#FFB3B3" opacity="0.4"/>
  <ellipse cx="140" cy="82" rx="12" ry="7" fill="#FFB3B3" opacity="0.4"/>
  <path d="M45,42.25 C39,37 42,34 45,37.75 C48,34 51,37 45,42.25Z" fill="#FFB3B3"/>
  <path d="M160,46.8 C155.2,42.6 157.6,40.2 160,43.2 C162.4,40.2 164.8,42.6 160,46.8Z" fill="#FFD6D6"/>
</svg>