<svg xmlns="http://www.w3.org/2000/svg" viewBox="0 0 200 150" width="200" height="150">
  <defs>
    <linearGradient id="bg7732" gradientTransform="rotate(180)">
      <stop offset="0%" style="stop-color:#D0F0F0"/>
      <stop offset="100%" style="stop-color:#A0E0E0"/>
    </linearGradient>
  </defs>
  <rect width="200" height="150" fill="url(#bg7732)" rx="16"/>
  <circle cx="45.99762021571223" cy="86.98004346479138" r="2.196424016355877" fill="#D0F0F0" opacity="0.3"/><circle cx="135.81130180427863" cy="148.86629028233074" r="3.1420073198769387" fill="#D0F0F0" opacity="0.3"/><circle cx="196.42608127905987" cy="17.63089506785036" r="3.1904016579397023" fill="#D0F0F0" opacity="0.3"/><circle cx="59.484239360972424" cy="49.525177980785884" r="4.969522904557834" fill="#D0F0F0" opacity="0.3"/><circle cx="187.13591269806784" cy="53.128039816056116" r="2.131438659829655" fill="#D0F0F0" opacity="0.3"/><circle cx="95.49715800385457" cy="111.89069987940456" r="4.9286856273661215" fill="#D0F0F0" opacity="0.3"/>
  <circle cx="100" cy="75" r="48" fill="#FFE5D9" opacity="1"/>
  <circle cx="80" cy="68" r="8" fill="#333" opacity="1"/>
  <circle cx="120" cy="68" r="8" fill="#333" opacity="1"/>
  <circle cx="78" cy="65" r="3" fill="white" opacity="1"/>
  <circle cx="118" cy="65" r="3" fill="white" opacity="1"/>
  <path d="M72 92 Q100 115 128 92" stroke="#333" stroke-width="4" fill="none" stroke-linecap="round"/>
  <ellipse cx="60" cy="82" rx="12" ry="7" fill="#FFB3B3" opacity="0.4"/>
  <ellipse cx="140" cy="82" rx="12" ry="7" fill="#FFB3B3" opacity="0.4"/>
  <path d="M45,42.25 C39,37 42,34 45,37.75 C48,34 51,37 45,42.25Z" fill="#FFB3B3"/>
  <path d="M160,46.8 C155.2,42.6 157.6,40.2 160,43.2 C162.4,40.2 164.8,42.6 160,46.8Z" fill="#FFD6D6"/>
</svg>