<svg xmlns="http://www.w3.org/2000/svg" viewBox="0 0 200 150" width="200" height="150">
  <defs>
    <linearGradient id="bg7733" gradientTransform="rotate(180)">
      <stop offset="0%" style="stop-color:#E8F0E8"/>
      <stop offset="100%" style="stop-color:#C5DBC5"/>
    </linearGradient>
  </defs>
  <rect width="200" height="150" fill="url(#bg7733)" rx="16"/>
  <circle cx="92.1449709467197" cy="50.71151244819703" r="4.068741931914701" fill="#E8F0E8" opacity="0.3"/><circle cx="17.463462800515117" cy="36.52081793652542" r="3.7625773445097366" fill="#E8F0E8" opacity="0.3"/><circle cx="193.5930574682061" cy="56.7557346934791" r="4.3640267334949385" fill="#E8F0E8" opacity="0.3"/><circle cx="166.77838206796878" cy="38.14717709301476" r="2.7789268027090657" fill="#E8F0E8" opacity="0.3"/><circle cx="6.820006318230298" cy="68.27848253738011" r="3.033522166892908" fill="#E8F0E8" opacity="0.3"/><circle cx="3.373804941202252" cy="35.23117120084862" r="3.88873461251751" fill="#E8F0E8" opacity="0.3"/>
  <circle cx="100" cy="75" r="48" fill="#FFE5D9" opacity="1"/>
  <circle cx="80" cy="68" r="8" fill="#333" opacity="1"/>
  <circle cx="120" cy="68" r="8" fill="#333" opacity="1"/>
  <circle cx="78" cy="65" r="3" fill="white" opacity="1"/>
  <circle cx="118" cy="65" r="3" fill="white" opacity="1"/>
  <path d="M72 92 Q100 115 128 92" stroke="#333" stroke-width="4" fill="none" stroke-linecap="round"/>
  <ellipse cx="60" cy="82" rx="12" ry="7" fill="#FFB3B3" opacity="0.4"/>
  <ellipse cx="140" cy="82" rx="12" ry="7" fill="#FFB3B3" opacity="0.4"/>
  <path d="M45,42.25 C39,37 42,34 45,37.75 C48,34 51,37 45,42.25Z" fill="#FFB3B3"/>
  <path d="M160,46.8 C155.2,42.6 157.6,40.2 160,43.2 C162.4,40.2 164.8,42.6 160,46.8Z" fill="#FFD6D6"/>
</svg>