<svg xmlns="http://www.w3.org/2000/svg" viewBox="0 0 200 150" width="200" height="150">
  <defs>
    <linearGradient id="bg7734" gradientTransform="rotate(90)">
      <stop offset="0%" style="stop-color:#E8F0E8"/>
      <stop offset="100%" style="stop-color:#C5DBC5"/>
    </linearGradient>
  </defs>
  <rect width="200" height="150" fill="url(#bg7734)" rx="16"/>
  <circle cx="186.84706045810344" cy="115.44796607118997" r="2.685166494937448" fill="#E8F0E8" opacity="0.3"/><circle cx="110.22062611523324" cy="5.075083217070642" r="3.813486874783848" fill="#E8F0E8" opacity="0.3"/><circle cx="47.32577957838657" cy="37.05113889277527" r="3.86687917458994" fill="#E8F0E8" opacity="0.3"/><circle cx="26.951916000325582" cy="110.55326654895907" r="3.8073318950027897" fill="#E8F0E8" opacity="0.3"/><circle cx="168.14297391101718" cy="146.72463012630033" r="2.019384879125937" fill="#E8F0E8" opacity="0.3"/><circle cx="111.15876607254904" cy="146.79861456215804" r="4.6000323147309246" fill="#E8F0E8" opacity="0.3"/>
  <circle cx="100" cy="75" r="48" fill="#FFE5D9" opacity="1"/>
  <circle cx="80" cy="68" r="8" fill="#333" opacity="1"/>
  <circle cx="120" cy="68" r="8" fill="#333" opacity="1"/>
  <circle cx="78" cy="65" r="3" fill="white" opacity="1"/>
  <circle cx="118" cy="65" r="3" fill="white" opacity="1"/>
  <path d="M72 92 Q100 115 128 92" stroke="#333" stroke-width="4" fill="none" stroke-linecap="round"/>
  <ellipse cx="60" cy="82" rx="12" ry="7" fill="#FFB3B3" opacity="0.4"/>
  <ellipse cx="140" cy="82" rx="12" ry="7" fill="#FFB3B3" opacity="0.4"/>
  <path d="M45,42.25 C39,37 42,34 45,37.75 C48,34 51,37 45,42.25Z" fill="#FFB3B3"/>
  <path d="M160,46.8 C155.2,42.6 157.6,40.2 160,43.2 C162.4,40.2 164.8,42.6 160,46.8Z" fill="#FFD6D6"/>
</svg>