<svg xmlns="http://www.w3.org/2000/svg" viewBox="0 0 200 150" width="200" height="150">
  <defs>
    <linearGradient id="bg77507" gradientTransform="rotate(45)">
      <stop offset="0%" style="stop-color:#D8F3DC"/>
      <stop offset="100%" style="stop-color:#B7E4C7"/>
    </linearGradient>
  </defs>
  <rect width="200" height="150" fill="url(#bg77507)" rx="16"/>
  <circle cx="126.0989737307682" cy="64.0024111299681" r="4.987586789125999" fill="#D8F3DC" opacity="0.3"/><circle cx="185.36509601162834" cy="96.27453741850331" r="3.7207096021666075" fill="#D8F3DC" opacity="0.3"/><circle cx="173.07319319661474" cy="18.66177308556871" r="3.5875769227732235" fill="#D8F3DC" opacity="0.3"/><circle cx="185.7134163590672" cy="72.17609670951788" r="2.847466486236499" fill="#D8F3DC" opacity="0.3"/><circle cx="120.72915810113045" cy="114.56830193155838" r="2.90707423724416" fill="#D8F3DC" opacity="0.3"/><circle cx="109.39278350324457" cy="25.17204163805218" r="4.388831042933816" fill="#D8F3DC" opacity="0.3"/>
  <circle cx="100" cy="75" r="45" fill="#D8F3DC" opacity="1"/>
  <circle cx="100" cy="75" r="40" fill="white" opacity="1"/>
  <line x1="100" y1="42" x2="100" y2="52" stroke="#95D5B2" stroke-width="2"/>
  <line x1="116.5" y1="46.421161675113524" x2="114" y2="50.751288694035715" stroke="#95D5B2" stroke-width="2"/>
  <line x1="128.57883832488648" y1="58.5" x2="124.24871130596428" y2="61" stroke="#95D5B2" stroke-width="2"/>
  <line x1="133" y1="75" x2="123" y2="75" stroke="#95D5B2" stroke-width="2"/>
  <line x1="128.57883832488648" y1="91.5" x2="124.24871130596429" y2="89" stroke="#95D5B2" stroke-width="2"/>
  <line x1="116.5" y1="103.57883832488648" x2="114" y2="99.24871130596429" stroke="#95D5B2" stroke-width="2"/>
  <line x1="100" y1="108" x2="100" y2="98" stroke="#95D5B2" stroke-width="2"/>
  <line x1="83.5" y1="103.57883832488648" x2="86" y2="99.24871130596428" stroke="#95D5B2" stroke-width="2"/>
  <line x1="71.42116167511352" y1="91.50000000000001" x2="75.75128869403572" y2="89.00000000000001" stroke="#95D5B2" stroke-width="2"/>
  <line x1="67" y1="75" x2="77" y2="75" stroke="#95D5B2" stroke-width="2"/>
  <line x1="71.42116167511352" y1="58.5" x2="75.75128869403572" y2="61" stroke="#95D5B2" stroke-width="2"/>
  <line x1="83.49999999999999" y1="46.42116167511353" x2="85.99999999999999" y2="50.75128869403572" stroke="#95D5B2" stroke-width="2"/>
  <line x1="100" y1="75" x2="100" y2="55" stroke="#95D5B2" stroke-width="4" stroke-linecap="round"/>
  <line x1="100" y1="75" x2="118" y2="85" stroke="#FFB3B3" stroke-width="3" stroke-linecap="round"/>
  <circle cx="100" cy="75" r="5" fill="#95D5B2" opacity="1"/>
  <polygon points="45,33 48.52671151375484,40.14589803375031 56.412678195541844,41.291796067500634 50.70633909777092,46.85410196624969 52.05342302750968,54.70820393249937 45,51 37.94657697249032,54.70820393249937 39.29366090222908,46.85410196624969 33.587321804458156,41.29179606750063 41.47328848624516,40.14589803375031" fill="#FFF3B0"/>
</svg>