<svg xmlns="http://www.w3.org/2000/svg" viewBox="0 0 200 150" width="200" height="150">
  <defs>
    <linearGradient id="bg7758" gradientTransform="rotate(180)">
      <stop offset="0%" style="stop-color:#E0F4FF"/>
      <stop offset="100%" style="stop-color:#BAE6FD"/>
    </linearGradient>
  </defs>
  <rect width="200" height="150" fill="url(#bg7758)" rx="16"/>
  <circle cx="199.1694188332076" cy="28.371031773859556" r="2.637672384227699" fill="#BAE6FD" opacity="0.3"/><circle cx="17.03174151298299" cy="30.821566261829503" r="2.3122127210499457" fill="#BAE6FD" opacity="0.3"/><circle cx="118.45470802581985" cy="136.36588492322517" r="3.944412109426594" fill="#BAE6FD" opacity="0.3"/><circle cx="59.199771673957" cy="20.82448159744672" r="3.4433633871194615" fill="#BAE6FD" opacity="0.3"/><circle cx="40.77328907114861" cy="24.524935062981967" r="4.9230525532487945" fill="#BAE6FD" opacity="0.3"/><circle cx="114.20937851580675" cy="126.77860781877826" r="4.469761741222101" fill="#BAE6FD" opacity="0.3"/>
  <ellipse cx="59.04235111835078" cy="95" rx="12" ry="8" fill="#7DD3FC" opacity="1"/>
  <rect x="65.30285663298855" y="60" width="4" height="35" rx="1" fill="#7DD3FC"/>
  <ellipse cx="105.6333646953226" cy="70" rx="12" ry="8" fill="#BAE6FD" opacity="1"/>
  <rect x="113.50617736317872" y="35" width="4" height="35" rx="1" fill="#BAE6FD"/>
  <ellipse cx="149.5692816003293" cy="90" rx="12" ry="8" fill="#7DD3FC" opacity="1"/>
  <rect x="158.59042953614335" y="55" width="4" height="35" rx="1" fill="#7DD3FC"/>
  <text x="40" y="40" fill="#7DD3FC" font-size="14" opacity="0.7">♪</text>
  <text x="155" y="50" fill="#FFB3B3" font-size="12" opacity="0.5">♫</text>
  <polygon points="147.5,34.5 149.85114100916988,39.263932022500214 155.10845213036123,40.02786404500042 151.30422606518061,43.736067977499786 152.2022820183398,48.97213595499958 147.5,46.5 142.7977179816602,48.97213595499958 143.69577393481939,43.73606797749979 139.89154786963877,40.02786404500042 145.14885899083012,39.263932022500214" fill="#FFF3B0"/><polygon points="162.4618036025989,2.5129727459008073 165.40072986406128,8.467887774026071 171.97236876555044,9.422802802151333 167.21708618407467,14.058057717775544 168.33965612552365,20.603142689650284 162.4618036025989,17.512972745900807 156.58395107967416,20.603142689650284 157.70652102112314,14.058057717775545 152.95123843964737,9.422802802151331 159.52287734113654,8.467887774026071" fill="#FFF3B0"/><polygon points="123.52689313342154,30.44813145534826 127.05360464717637,37.594029489098574 134.93957132896338,38.739927522848895 129.23323223119246,44.30223342159795 130.5803161609312,52.15633538784763 123.52689313342154,48.44813145534826 116.47347010591186,52.15633538784763 117.82055403565062,44.30223342159795 112.1142149378797,38.73992752284889 120.0001816196667,37.594029489098574" fill="#FFF3B0"/><polygon points="170.94999941936848,-1.3833798817890504 175.0644961854158,6.9535011575863175 184.26479064750063,8.290382196961687 177.60739503343456,14.779739078835581 179.1789929514631,23.942858039460212 170.94999941936848,19.61662011821095 162.72100588727386,23.942858039460212 164.2926038053024,14.779739078835583 157.63520819123633,8.290382196961682 166.83550265332116,6.953501157586318" fill="#FFF3B0"/>
</svg>