<svg xmlns="http://www.w3.org/2000/svg" viewBox="0 0 200 150" width="200" height="150">
  <defs>
    <linearGradient id="bg7782" gradientTransform="rotate(45)">
      <stop offset="0%" style="stop-color:#FFE4EC"/>
      <stop offset="100%" style="stop-color:#FFC8DD"/>
    </linearGradient>
  </defs>
  <rect width="200" height="150" fill="url(#bg7782)" rx="16"/>
  <rect x="0" y="0" width="200" height="150" rx="0" fill="#1a1a3e"/>
  <polygon points="40.09146110586528,30.736840080598995 41.19683720751764,32.97657669657821 43.66853331151604,33.335735163750215 41.87999720869066,35.079126985445036 42.30221330917,37.54083574148386 40.09146110586528,36.378574527020646 37.880708902560556,37.54083574148386 38.302925003039896,35.079126985445036 36.51438890021451,33.33573516375021 38.98608500421292,32.97657669657821" fill="#FFF3B0"/>
  <polygon points="127.69885304865966,20.35821360028058 128.41105723556652,21.80129690295424 130.00359421135025,22.03270607101982 128.85122363000497,23.15598976873518 129.1232614224734,24.742091802581708 127.69885304865966,23.9932360041048 126.27444467484591,24.742091802581708 126.54648246731436,23.15598976873518 125.39411188596905,22.03270607101982 126.98664886175278,21.80129690295424" fill="#FFF3B0"/>
  <polygon points="28.195313767082553,36.30492950760345 29.169014320916165,38.27786232219966 31.346274949017314,38.59423681037309 29.770794358049933,40.12995083548697 30.142714874749778,42.29841383694772 28.195313767082553,41.274604486871795 26.247912659415327,42.29841383694772 26.619833176115172,40.12995083548697 25.04435258514779,38.59423681037309 27.22161321324894,38.27786232219966" fill="#FFF3B0"/>
  <polygon points="26.125851488795888,38.59753805688979 27.49739873688361,41.37659632266521 30.56427161796053,41.822239037882945 28.34506155337821,43.98543421806623 28.868945984971333,47.039914828685006 26.125851488795888,45.59778470856281 23.382756992620443,47.039914828685006 23.906641424213568,43.98543421806623 21.687431359631248,41.822239037882945 24.754304240708166,41.37659632266521" fill="#FFF3B0"/>
  <polygon points="30.309297700100615,46.912939812212244 31.74973319104715,49.831580903878965 34.970644866006886,50.29960676604041 32.63997128305375,52.57145202381398 33.19016868199368,55.77934900591045 30.309297700100615,54.26478550072807 27.428426718207547,55.77934900591045 27.97862411714748,52.57145202381398 25.647950534194347,50.299606766040405 28.86886220915408,49.831580903878965" fill="#FFF3B0"/>
  <polygon points="184.8041427690623,27.535450192325243 185.75581880279225,29.46375645488017 187.88383110676975,29.77297474267184 186.34398693791604,31.27395184144173 186.7074948365222,33.393365515794954 184.8041427690623,32.392714116615025 182.90079070160243,33.393365515794954 183.26429860020858,31.27395184144173 181.72445443135487,29.772974742671835 183.85246673533237,29.46375645488017" fill="#FFF3B0"/>
  <polygon points="117.35865089731305,22.034762445813612 118.49288046350415,24.332962566593274 121.02909487559752,24.701496092698466 119.1938728864553,26.4903954063946 119.62711002969525,29.01636177230112 117.35865089731305,27.82376222983703 115.09019176493086,29.01636177230112 115.52342890817081,26.490395406394605 113.68820691902859,24.701496092698466 116.22442133112196,24.332962566593277" fill="#FFF3B0"/>
  <polygon points="104.91216357628332,32.23135645644106 105.82466782283733,34.08029200895429 107.8650893478893,34.376782611555846 106.38862646208631,35.81597822861865 106.73717206939132,37.84815505088458 104.91216357628332,36.88869130617604 103.08715508317532,37.84815505088458 103.43570069048033,35.81597822861865 101.95923780467734,34.376782611555846 103.99965932972931,34.08029200895429" fill="#FFF3B0"/>
  <polygon points="47.33980014065651,26.353029714512104 48.48602967784847,28.675544432288362 51.04907684082783,29.04797698532596 49.19443849074217,30.855802573321157 49.632259215040435,33.40849326739155 47.33980014065651,32.203276208728084 45.04734106627258,33.40849326739155 45.48516179057084,30.855802573321157 43.630523440485184,29.04797698532596 46.19357060346454,28.675544432288362" fill="#FFF3B0"/>
  <polygon points="69.3715385694486,10.698805637111192 70.0495161036732,12.07253816664952 71.56551995741707,12.29282642112251 70.46852926343283,13.362128070301553 70.72749363789778,14.872006228426574 69.3715385694486,14.159138462307212 68.01558350099943,14.872006228426574 68.27454787546438,13.362128070301553 67.17755718148014,12.29282642112251 68.69356103522401,12.07253816664952" fill="#FFF3B0"/>
  <path d="M155 25 A22 22 0 1 1 175 50 A18 18 0 1 0 155 25" fill="#FFE566"/>
  <rect x="35" y="75" width="130" height="50" rx="8" fill="#C9B8E8"/>
  <rect x="45" y="65" width="90" height="20" rx="8" fill="white"/>
  <rect x="40" y="90" width="120" height="30" rx="6" fill="#FFC8DD"/>
  <text x="170" y="75" fill="#E2D9F3" font-size="16" font-weight="bold">z</text>
  <text x="178" y="65" fill="#E2D9F3" font-size="13" font-weight="bold">z</text>
</svg>