<svg xmlns="http://www.w3.org/2000/svg" viewBox="0 0 200 150" width="200" height="150">
  <defs>
    <linearGradient id="bg77893" gradientTransform="rotate(135)">
      <stop offset="0%" style="stop-color:#E2D9F3"/>
      <stop offset="100%" style="stop-color:#C9B8E8"/>
    </linearGradient>
  </defs>
  <rect width="200" height="150" fill="url(#bg77893)" rx="16"/>
  <circle cx="152.94693096029732" cy="138.60363292924376" r="3.3315017426970712" fill="#E2D9F3" opacity="0.3"/><circle cx="142.61273368338152" cy="87.34664340199743" r="3.387965954350875" fill="#E2D9F3" opacity="0.3"/><circle cx="185.22137092913908" cy="20.632459140597348" r="4.087354263759153" fill="#E2D9F3" opacity="0.3"/><circle cx="87.58235060849984" cy="88.6521309408522" r="2.8488383651729237" fill="#E2D9F3" opacity="0.3"/><circle cx="161.11282711899548" cy="14.222593745125778" r="4.511811816148565" fill="#E2D9F3" opacity="0.3"/><circle cx="24.805120295422967" cy="123.6155644783139" r="4.97446299820399" fill="#E2D9F3" opacity="0.3"/>
  <circle cx="100" cy="75" r="48" fill="#FFE5D9" opacity="1"/>
  <circle cx="80" cy="68" r="8" fill="#333" opacity="1"/>
  <circle cx="120" cy="68" r="8" fill="#333" opacity="1"/>
  <circle cx="78" cy="65" r="3" fill="white" opacity="1"/>
  <circle cx="118" cy="65" r="3" fill="white" opacity="1"/>
  <path d="M72 92 Q100 115 128 92" stroke="#333" stroke-width="4" fill="none" stroke-linecap="round"/>
  <ellipse cx="60" cy="82" rx="12" ry="7" fill="#FFB3B3" opacity="0.4"/>
  <ellipse cx="140" cy="82" rx="12" ry="7" fill="#FFB3B3" opacity="0.4"/>
  <path d="M45,42.25 C39,37 42,34 45,37.75 C48,34 51,37 45,42.25Z" fill="#FFB3B3"/>
  <path d="M160,46.8 C155.2,42.6 157.6,40.2 160,43.2 C162.4,40.2 164.8,42.6 160,46.8Z" fill="#FFD6D6"/>
</svg>