<svg xmlns="http://www.w3.org/2000/svg" viewBox="0 0 200 150" width="200" height="150">
  <defs>
    <linearGradient id="bg7798" gradientTransform="rotate(180)">
      <stop offset="0%" style="stop-color:#F0F7FF"/>
      <stop offset="100%" style="stop-color:#DCE8F5"/>
    </linearGradient>
  </defs>
  <rect width="200" height="150" fill="url(#bg7798)" rx="16"/>
  <rect x="0" y="0" width="200" height="150" rx="0" fill="#1a1a3e"/>
  <polygon points="26.328626303584315,22.546046402614593 27.228049900711046,24.36847766447122 29.2392222044538,24.66071810643435 27.783924254019055,26.079283010385232 28.127473497837777,28.082328798262363 26.328626303584315,27.13661886229511 24.529779109330853,28.082328798262363 24.873328353149574,26.079283010385232 23.41803040271483,24.66071810643435 25.429202706457584,24.36847766447122" fill="#FFF3B0"/>
  <polygon points="18.17333421404328,48.201382341423596 19.252722809770034,50.38846251902627 21.666309083953095,50.73917713366707 19.919821648998187,52.44158163418748 20.33211140549679,54.84541536398949 18.17333421404328,53.710479030309216 16.01455702258977,54.84541536398949 16.426846779088372,52.44158163418748 14.680359344133464,50.73917713366707 17.093945618316525,50.38846251902627" fill="#FFF3B0"/>
  <polygon points="144.70814967187152,42.692755331350384 146.0722315357048,45.45668707644017 149.1224113101106,45.89990414127369 146.91528049099105,48.051324967157505 147.43631339953808,51.089179922708375 144.70814967187152,49.65489937211916 141.97998594420497,51.089179922708375 142.501018852752,48.051324967157505 140.29388803363244,45.89990414127369 143.34406780803826,45.45668707644017" fill="#FFF3B0"/>
  <polygon points="178.1892873628385,43.556716350974966 178.8258713621063,44.84657641776603 180.24931645785776,45.05341509743485 179.21930191034815,46.057431139111756 179.4624553613741,47.4751245401263 178.1892873628385,46.8057805123417 176.91611936430292,47.4751245401263 177.15927281532888,46.057431139111756 176.12925826781927,45.05341509743485 177.5527033635707,44.84657641776603" fill="#FFF3B0"/>
  <polygon points="15.016614138439763,32.94334910701582 15.665558991865371,34.25825499994755 17.116643797773666,34.46910996459451 16.066628968106716,35.49262146308081 16.31450384529098,36.93784289086102 15.016614138439763,36.25550189187015 13.718724431588548,36.93784289086102 13.966599308772812,35.49262146308081 12.916584479105861,34.46910996459451 14.367669285014156,34.25825499994755" fill="#FFF3B0"/>
  <polygon points="151.05884958726165,25.11430859327561 151.8290423212904,26.674889526033855 153.55124563035508,26.925140315215266 152.30504760880837,28.139883163036284 152.59923505531913,29.855127589220125 151.05884958726165,29.045299024006113 149.51846411920417,29.855127589220125 149.81265156571493,28.139883163036284 148.5664535441682,26.925140315215263 150.2886568532329,26.674889526033855" fill="#FFF3B0"/>
  <polygon points="91.2771279187109,41.38885065378656 91.91104710232995,42.67331121431509 93.32853348914331,42.879284042892806 92.3028307039271,43.87909715508589 92.544966285949,45.290855924434396 91.2771279187109,44.62431384963901 90.0092895514728,45.290855924434396 90.2514251334947,43.87909715508589 89.2257223482785,42.879284042892806 90.64320873509186,42.67331121431509" fill="#FFF3B0"/>
  <polygon points="169.26771260903024,47.36014912938299 170.2014008016167,49.252008044839265 172.28919107002892,49.55538172875071 170.77845183952957,51.027988524333644 171.13508899420313,53.107342687739454 169.26771260903024,52.1256048240175 167.40033622385735,53.107342687739454 167.75697337853092,51.027988524333644 166.24623414803156,49.5553817287507 168.33402441644378,49.252008044839265" fill="#FFF3B0"/>
  <polygon points="173.91613830061033,34.351776381711716 175.2059353348673,36.96519062188608 178.09000918064348,37.38427108245896 176.0030737406269,39.41853037014258 176.49573236912426,42.29095057897194 173.91613830061033,40.934777720516195 171.3365442320964,42.29095057897194 171.82920286059377,39.41853037014258 169.74226742057718,37.38427108245896 172.62634126635336,36.96519062188608" fill="#FFF3B0"/>
  <polygon points="163.81314803421446,33.634747814666525 164.62692774014613,35.28364559886083 166.44659448131907,35.548058653712644 165.12987125776678,36.83154658317093 165.44070744607777,38.64386062233285 163.81314803421446,37.78820200269399 162.18558862235116,38.64386062233285 162.49642481066215,36.83154658317093 161.17970158710986,35.548058653712644 162.9993683282828,35.28364559886083" fill="#FFF3B0"/>
  <path d="M155 25 A22 22 0 1 1 175 50 A18 18 0 1 0 155 25" fill="#FFE566"/>
  <rect x="35" y="75" width="130" height="50" rx="8" fill="#C9B8E8"/>
  <rect x="45" y="65" width="90" height="20" rx="8" fill="white"/>
  <rect x="40" y="90" width="120" height="30" rx="6" fill="#DCE8F5"/>
  <text x="170" y="75" fill="#E2D9F3" font-size="16" font-weight="bold">z</text>
  <text x="178" y="65" fill="#E2D9F3" font-size="13" font-weight="bold">z</text>
</svg>