<svg xmlns="http://www.w3.org/2000/svg" viewBox="0 0 200 150" width="200" height="150">
  <defs>
    <linearGradient id="bg7799" gradientTransform="rotate(180)">
      <stop offset="0%" style="stop-color:#FFF3B0"/>
      <stop offset="100%" style="stop-color:#FFE566"/>
    </linearGradient>
  </defs>
  <rect width="200" height="150" fill="url(#bg7799)" rx="16"/>
  <rect x="0" y="0" width="200" height="150" rx="0" fill="#1a1a3e"/>
  <polygon points="78.67155957605576,39.619062711906736 79.75539999688205,41.81516327240756 82.17894085461161,42.167324372707384 80.42525021533369,43.87675026210941 80.83924041770834,46.290498352111086 78.67155957605576,45.150881092509735 76.50387873440317,46.290498352111086 76.91786893677782,43.87675026210941 75.1641782974999,42.167324372707384 77.58771915522946,41.81516327240756" fill="#FFF3B0"/>
  <polygon points="165.96712037414363,39.904184138463734 167.2665361429705,42.53708806362713 170.17211813310252,42.959293840514604 168.06961925362307,45.00872373226607 168.56595191179736,47.90256517779248 165.96712037414363,46.536278583291505 163.3682888364899,47.90256517779248 163.8646214946642,45.00872373226607 161.76212261518475,42.959293840514604 164.66770460531677,42.53708806362713" fill="#FFF3B0"/>
  <polygon points="61.979039440083454,11.13113067216318 63.00394157475725,13.207809221113838 65.2956924181725,13.540820111380503 63.637365929127974,15.157288928606487 64.02884370943104,17.439779526365804 61.979039440083454,16.36213364821515 59.929235170735865,17.439779526365804 60.320712951038935,15.157288928606487 58.66238646199441,13.540820111380503 60.95413730540966,13.207809221113838" fill="#FFF3B0"/>
  <polygon points="84.5283607666488,22.943296314266718 85.83132727651257,25.583394826595786 88.74484896497357,26.006754309182366 86.6366048658112,28.061784406036345 87.13429378637632,30.963533468063492 84.5283607666488,29.59351340349417 81.92242774692129,30.963533468063492 82.42011666748641,28.061784406036345 80.31187256832403,26.006754309182366 83.22539425678504,25.583394826595786" fill="#FFF3B0"/>
  <polygon points="131.26405201013995,15.791593923868277 132.0046952594229,17.29230106084832 133.66082391189593,17.532950640422296 132.46243796101794,18.701088237809483 132.74533850870588,20.350524994344614 131.26405201013995,19.57176659608649 129.782765511574,20.350524994344614 130.06566605926196,18.701088237809483 128.86728010838397,17.532950640422296 130.523408760857,17.29230106084832" fill="#FFF3B0"/>
  <polygon points="165.1202839631287,21.81687424356778 166.0227980040852,23.645567428578698 168.04088075031194,23.938812016612214 166.58058235672033,25.362251147977776 166.9253120450417,27.372179455410365 165.1202839631287,26.42322003449999 163.31525588121573,27.372179455410365 163.6599855695371,25.362251147977776 162.19968717594548,23.938812016612214 164.21776992217224,23.645567428578698" fill="#FFF3B0"/>
  <polygon points="128.68833033071496,32.61815095448037 129.44553520205676,34.15241560305282 131.138696767271,34.39844637983527 129.91351354899297,35.59270485717291 130.20274007339856,37.27902488807546 128.68833033071496,36.482852569850365 127.17392058803138,37.27902488807546 127.46314711243694,35.59270485717291 126.23796389415894,34.39844637983527 127.93112545937316,34.15241560305282" fill="#FFF3B0"/>
  <polygon points="87.66723932568311,8.634903259067528 88.32818853831603,9.974132640473247 89.80611590743817,10.188888057867311 88.73667761656064,11.231332751702606 88.98913775094893,12.703288280326026 87.66723932568311,12.008325151102497 86.3453409004173,12.703288280326026 86.59780103480558,11.231332751702606 85.52836274392806,10.18888805786731 87.0062901130502,9.974132640473247" fill="#FFF3B0"/>
  <polygon points="156.58319100209383,7.2897365918306605 157.9260495158193,10.010665132600082 160.92877243667377,10.446986312963531 158.75598171938378,12.564933812482138 159.26890802954475,15.555523672727645 156.58319100209383,14.143558673048574 153.8974739746429,15.555523672727645 154.41040028480387,12.564933812482138 152.23760956751389,10.44698631296353 155.24033248836835,10.010665132600082" fill="#FFF3B0"/>
  <polygon points="32.12645568172775,50.19203108219199 32.86771091034403,51.69397822474027 34.52520799020718,51.934826648453324 33.32583183596746,53.103929455567005 33.608966138960305,54.754729110106794 32.12645568172775,53.97532723869767 30.64394522449519,54.754729110106794 30.927079527488033,53.103929455567005 29.72770337324832,51.934826648453324 31.38520045311147,51.69397822474027" fill="#FFF3B0"/>
  <path d="M155 25 A22 22 0 1 1 175 50 A18 18 0 1 0 155 25" fill="#FFE566"/>
  <rect x="35" y="75" width="130" height="50" rx="8" fill="#C9B8E8"/>
  <rect x="45" y="65" width="90" height="20" rx="8" fill="white"/>
  <rect x="40" y="90" width="120" height="30" rx="6" fill="#FFE566"/>
  <text x="170" y="75" fill="#E2D9F3" font-size="16" font-weight="bold">z</text>
  <text x="178" y="65" fill="#E2D9F3" font-size="13" font-weight="bold">z</text>
</svg>