<svg xmlns="http://www.w3.org/2000/svg" viewBox="0 0 200 150" width="200" height="150">
  <defs>
    <linearGradient id="bg7801" gradientTransform="rotate(0)">
      <stop offset="0%" style="stop-color:#D4E9FF"/>
      <stop offset="100%" style="stop-color:#A8D0F0"/>
    </linearGradient>
  </defs>
  <rect width="200" height="150" fill="url(#bg7801)" rx="16"/>
  <rect x="0" y="0" width="200" height="150" rx="0" fill="#1a1a3e"/>
  <polygon points="170.29144557873224,12.487088332607527 171.13599244362624,14.198327190029858 173.02445664371353,14.472737100825668 171.6579511112229,15.804750788378016 171.98053930852024,17.685584297521984 170.29144557873224,16.797575172487086 168.60235184894424,17.685584297521984 168.92494004624157,15.804750788378016 167.55843451375094,14.472737100825668 169.44689871383824,14.198327190029858" fill="#FFF3B0"/>
  <polygon points="86.96053848285374,42.79922520422318 87.98486116836884,44.87472966093871 90.27531632407572,45.20755227676075 88.61792740346473,46.82310719063488 89.00918385388393,49.104307336153084 86.96053848285374,48.027270726903666 84.91189311182355,49.104307336153084 85.30314956224274,46.82310719063488 83.64576064163175,45.20755227676075 85.93621579733863,44.87472966093871" fill="#FFF3B0"/>
  <polygon points="108.7236689261772,23.458531207311808 109.51611636487976,25.064205096993287 111.28808270641433,25.321686878057072 110.00587581629576,26.57152969779226 110.30856380358235,28.33633607965502 108.7236689261772,27.503107533164894 107.13877404877205,28.33633607965502 107.44146203605864,26.57152969779226 106.15925514594007,25.321686878057072 107.93122148747463,25.064205096993287" fill="#FFF3B0"/>
  <polygon points="133.9289354443281,11.49072591388267 134.7189886783755,13.091548615064308 136.48560141554904,13.348252471878816 135.20726842993855,14.59431916798599 135.5090419124229,16.35379357772218 133.9289354443281,15.523082446984063 132.34882897623328,16.35379357772218 132.65060245871763,14.59431916798599 131.37226947310714,13.348252471878814 133.13888221028068,13.091548615064308" fill="#FFF3B0"/>
  <polygon points="164.49030877602127,10.80517880190564 165.63916815626962,13.133022163732456 168.20809582709325,13.50630920457708 166.34920230155726,15.318282563516496 166.788027536518,17.876830004145162 164.49030877602127,16.668847764852217 162.19259001552453,17.876830004145162 162.63141525048528,15.318282563516497 160.77252172494929,13.506309204577079 163.3414493957729,13.133022163732457" fill="#FFF3B0"/>
  <polygon points="141.60924710914514,36.50620479321674 143.03411831017334,39.393309188930196 146.22022717485416,39.856277906739294 143.91473714199967,42.10357527016854 144.45898951120154,45.27681006921598 141.60924710914514,43.77861182692982 138.75950470708875,45.27681006921598 139.30375707629062,42.10357527016854 136.99826704343613,39.856277906739294 140.18437590811695,39.393309188930196" fill="#FFF3B0"/>
  <polygon points="52.476590219646084,48.97146162253193 53.09606050360655,50.226645514623755 54.48123816858325,50.427923611113506 53.478914194114665,51.40494801504738 53.71553078756702,52.784528611960745 52.476590219646084,52.133179009338164 51.23764965172515,52.784528611960745 51.4742662451775,51.40494801504738 50.471942270708915,50.427923611113506 51.85711993568562,50.226645514623755" fill="#FFF3B0"/>
  <polygon points="166.95364228484323,10.493324204428518 168.15808506959243,12.933791845100549 170.85130101130082,13.32513902885118 168.90247164807204,15.224778162981389 169.36252785434166,17.90711166461286 166.95364228484323,16.64068557519272 164.5447567153448,17.90711166461286 165.00481292161442,15.224778162981389 163.05598355838563,13.325139028851178 165.74919950009402,12.933791845100549" fill="#FFF3B0"/>
  <polygon points="85.80277195320377,45.295456219969765 86.68818538925392,47.08949979485533 88.66803002045368,47.377188059537275 87.23540098682874,48.77365623079686 87.57359882530405,50.74550093142034 85.80277195320377,49.814522150580615 84.0319450811035,50.74550093142034 84.37014291957881,48.77365623079686 82.93751388595386,47.37718805953727 84.91735851715363,47.08949979485533" fill="#FFF3B0"/>
  <polygon points="68.4877366137107,8.816430946489305 69.75038119249271,11.374828302681768 72.57374030207089,11.785086395669747 70.53073845789079,13.776521011512537 71.01302577127473,16.588471813331285 68.4877366137107,15.260848736102758 65.96244745614666,16.588471813331285 66.4447347695306,13.776521011512537 64.4017329253505,11.785086395669746 67.22509203492868,11.374828302681768" fill="#FFF3B0"/>
  <path d="M155 25 A22 22 0 1 1 175 50 A18 18 0 1 0 155 25" fill="#FFE566"/>
  <rect x="35" y="75" width="130" height="50" rx="8" fill="#C9B8E8"/>
  <rect x="45" y="65" width="90" height="20" rx="8" fill="white"/>
  <rect x="40" y="90" width="120" height="30" rx="6" fill="#A8D0F0"/>
  <text x="170" y="75" fill="#E2D9F3" font-size="16" font-weight="bold">z</text>
  <text x="178" y="65" fill="#E2D9F3" font-size="13" font-weight="bold">z</text>
</svg>