<svg xmlns="http://www.w3.org/2000/svg" viewBox="0 0 200 150" width="200" height="150">
  <defs>
    <linearGradient id="bg78045" gradientTransform="rotate(135)">
      <stop offset="0%" style="stop-color:#FFE5D9"/>
      <stop offset="100%" style="stop-color:#FFCDB2"/>
    </linearGradient>
  </defs>
  <rect width="200" height="150" fill="url(#bg78045)" rx="16"/>
  <circle cx="15.178102624304302" cy="135.0521700745503" r="3.8616570301619504" fill="#FFE5D9" opacity="0.3"/><circle cx="172.3313762951875" cy="107.60254622903176" r="4.384698824541374" fill="#FFE5D9" opacity="0.3"/><circle cx="118.24600717736757" cy="143.64380756617265" r="3.9705285921754694" fill="#FFE5D9" opacity="0.3"/><circle cx="191.71618452346593" cy="100.87720721371625" r="4.375244195402047" fill="#FFE5D9" opacity="0.3"/><circle cx="170.80888756613604" cy="112.05518042424956" r="4.976783474765398" fill="#FFE5D9" opacity="0.3"/><circle cx="115.11983923701337" cy="34.65662730955046" r="4.482504705488736" fill="#FFE5D9" opacity="0.3"/>
  <circle cx="100" cy="75" r="48" fill="#FFE5D9" opacity="1"/>
  <circle cx="80" cy="68" r="8" fill="#333" opacity="1"/>
  <circle cx="120" cy="68" r="8" fill="#333" opacity="1"/>
  <circle cx="78" cy="65" r="3" fill="white" opacity="1"/>
  <circle cx="118" cy="65" r="3" fill="white" opacity="1"/>
  <path d="M72 92 Q100 115 128 92" stroke="#333" stroke-width="4" fill="none" stroke-linecap="round"/>
  <ellipse cx="60" cy="82" rx="12" ry="7" fill="#FFB3B3" opacity="0.4"/>
  <ellipse cx="140" cy="82" rx="12" ry="7" fill="#FFB3B3" opacity="0.4"/>
  <path d="M45,42.25 C39,37 42,34 45,37.75 C48,34 51,37 45,42.25Z" fill="#FFB3B3"/>
  <path d="M160,46.8 C155.2,42.6 157.6,40.2 160,43.2 C162.4,40.2 164.8,42.6 160,46.8Z" fill="#FFD6D6"/>
</svg>