<svg xmlns="http://www.w3.org/2000/svg" viewBox="0 0 200 150" width="200" height="150">
  <defs>
    <linearGradient id="bg7805" gradientTransform="rotate(135)">
      <stop offset="0%" style="stop-color:#FFD6D6"/>
      <stop offset="100%" style="stop-color:#FFB3B3"/>
    </linearGradient>
  </defs>
  <rect width="200" height="150" fill="url(#bg7805)" rx="16"/>
  <rect x="0" y="0" width="200" height="150" rx="0" fill="#1a1a3e"/>
  <polygon points="40.676343664868,37.671673380238644 42.11394933799828,40.58458063473434 45.32853334795692,41.051687033350525 43.00243850641246,43.31906912132119 43.551555011128556,46.52066400652425 40.676343664868,45.009075947877136 37.80113231860744,46.52066400652425 38.35024882332354,43.31906912132119 36.02415398177908,41.051687033350525 39.23873799173772,40.58458063473434" fill="#FFF3B0"/>
  <polygon points="174.07448968453082,46.15689783927019 175.20002841444168,48.43748840235162 177.71680952583117,48.80319810457263 175.895649605181,50.57839028920023 176.32556714435256,53.08500187826985 174.07448968453082,51.90154042185145 171.82341222470907,53.08500187826985 172.25332976388063,50.57839028920023 170.43216984323047,48.80319810457263 172.94895095461996,48.43748840235162" fill="#FFF3B0"/>
  <polygon points="57.8824492125932,23.67663792033818 58.99080421969164,25.922410458021464 61.469161358766016,26.28253683024611 59.67580528567961,28.03062696176013 60.09915922679008,30.498969837723443 57.8824492125932,29.333576416714095 55.665739198396324,30.498969837723443 56.089093139506794,28.03062696176013 54.295737066420386,26.28253683024611 56.77409420549476,25.922410458021464" fill="#FFF3B0"/>
  <polygon points="127.68458894681316,23.09757045313222 128.6144542407875,24.98168332994341 130.6936962480319,25.28381487879907 129.18914259742255,26.75039222416539 129.54431953476183,28.82123266724303 127.68458894681316,27.843514436998817 125.82485835886452,28.82123266724303 126.1800352962038,26.75039222416539 124.67548164559443,25.28381487879907 126.75472365283883,24.98168332994341" fill="#FFF3B0"/>
  <polygon points="131.5535853181609,36.16244605202428 132.96956751581814,39.03153935965673 136.1357999647093,39.49161986519073 133.8446926414351,41.72489755173643 134.3855497134754,44.87833624935013 131.5535853181609,43.38948445831966 128.72162092284643,44.87833624935013 129.26247799488672,41.72489755173643 126.97137067161253,39.49161986519073 130.13760312050368,39.03153935965673" fill="#FFF3B0"/>
  <polygon points="128.69328061114402,51.39658138825598 129.46374546849964,52.957713703098904 131.1865572638215,53.20805291050902 129.93991893748276,54.42322494942786 130.23421032585526,56.13907540316695 128.69328061114402,55.328960710554384 127.15235089643276,56.13907540316695 127.44664228480528,54.42322494942786 126.20000395846654,53.20805291050902 127.9228157537884,52.957713703098904" fill="#FFF3B0"/>
  <polygon points="95.19859890435328,24.982726738022393 96.66226657012692,27.94844135746966 99.9351269672652,28.42401581081876 97.56686293580924,30.732502699918726 98.12593423590054,33.99213849571689 95.19859890435328,32.45314723631691 92.271263572806,33.99213849571689 92.83033487289731,30.732502699918726 90.46207084144135,28.424015810818755 93.73493123857963,27.94844135746966" fill="#FFF3B0"/>
  <polygon points="119.89376845338484,39.53031507861124 120.87620455677974,41.52094804990875 123.07299846752075,41.84016089019206 121.4833834604528,43.38965256586343 121.85864066017464,45.577569922101425 119.89376845338484,44.54457547165384 117.92889624659503,45.577569922101425 118.30415344631687,43.38965256586343 116.71453843924893,41.84016089019206 118.91133234998993,41.52094804990875" fill="#FFF3B0"/>
  <polygon points="46.61177936835884,23.814480286232538 47.66769367466013,25.95399635829529 50.028789841964354,26.297083713946684 48.320284605161596,27.962464721609532 48.723607980961425,30.31402044057517 46.61177936835884,29.203766435466605 44.49995075575625,30.31402044057517 44.90327413155608,27.962464721609532 43.194768894753324,26.297083713946684 45.55586506205755,25.95399635829529" fill="#FFF3B0"/>
  <polygon points="178.1771537808163,42.38546158083045 179.14869052940153,44.35401004711536 181.32111274187724,44.669681472344784 179.74913326134677,46.20198275823976 180.12022727798677,48.36562689459357 178.1771537808163,47.34409270399692 176.23408028364582,48.36562689459357 176.60517430028582,46.20198275823976 175.03319481975535,44.669681472344784 177.20561703223106,44.35401004711536" fill="#FFF3B0"/>
  <path d="M155 25 A22 22 0 1 1 175 50 A18 18 0 1 0 155 25" fill="#FFE566"/>
  <rect x="35" y="75" width="130" height="50" rx="8" fill="#C9B8E8"/>
  <rect x="45" y="65" width="90" height="20" rx="8" fill="white"/>
  <rect x="40" y="90" width="120" height="30" rx="6" fill="#FFB3B3"/>
  <text x="170" y="75" fill="#E2D9F3" font-size="16" font-weight="bold">z</text>
  <text x="178" y="65" fill="#E2D9F3" font-size="13" font-weight="bold">z</text>
</svg>