<svg xmlns="http://www.w3.org/2000/svg" viewBox="0 0 200 150" width="200" height="150">
  <defs>
    <linearGradient id="bg7808" gradientTransform="rotate(90)">
      <stop offset="0%" style="stop-color:#E0F4FF"/>
      <stop offset="100%" style="stop-color:#BAE6FD"/>
    </linearGradient>
  </defs>
  <rect width="200" height="150" fill="url(#bg7808)" rx="16"/>
  <rect x="0" y="0" width="200" height="150" rx="0" fill="#1a1a3e"/>
  <polygon points="162.21302569503678,45.84565351054175 163.37880737205467,48.20778519074681 165.98557444879035,48.586570619117346 164.09930007191358,50.42523371175751 164.54458904907256,53.02146766113875 162.21302569503678,51.79569226604531 159.881462341001,53.02146766113875 160.32675131815998,50.42523371175751 158.4404769412832,48.586570619117346 161.0472440180189,48.20778519074681" fill="#FFF3B0"/>
  <polygon points="75.87582494667004,25.24856024020096 77.0112063211116,27.549094179406133 79.54999625475006,27.918001950698184 77.71291060071005,29.708717888691716 78.14658769555315,32.23724936926935 75.87582494667004,31.043438743940328 73.60506219778692,32.23724936926935 74.03873929263003,29.708717888691716 72.20165363859002,27.918001950698184 74.74044357222847,27.549094179406133" fill="#FFF3B0"/>
  <polygon points="17.204588091681217,41.79879521842122 17.89060710020865,43.188821554579405 19.424592237132998,43.41172264244014 18.314590164407107,44.493707251304116 18.576626108736082,46.02149403588956 17.204588091681217,45.300170963313576 15.83255007462635,46.02149403588956 16.094586018955326,44.493707251304116 14.984583946229435,43.41172264244014 16.518569083153782,43.188821554579405" fill="#FFF3B0"/>
  <polygon points="114.12063805219077,10.728246926135398 115.33483527771646,13.188479222604517 118.04986281208356,13.582995816289165 116.08525043213717,15.498019589411935 116.54903250324216,18.202076549904 114.12063805219077,16.925394034488818 111.69224360113938,18.202076549904 112.15602567224437,15.498019589411935 110.19141329229798,13.582995816289163 112.90644082666508,13.188479222604517" fill="#FFF3B0"/>
  <polygon points="113.54790976407457,47.44772868772998 114.31280772084452,48.9975812299592 116.02317154803282,49.24611164172206 114.7855406560537,50.452503602133014 115.07770567761447,52.1559563860697 113.54790976407457,51.35169507912906 112.01811385053468,52.1559563860697 112.31027887209545,50.452503602133014 111.07264798011633,49.24611164172206 112.78301180730463,48.9975812299592" fill="#FFF3B0"/>
  <polygon points="130.16021434208596,25.394383460276572 131.51075878622382,28.130885397057327 134.53066796995074,28.56970388759564 132.34544115601835,30.699773585344374 132.86130323036167,33.70748026416973 130.16021434208596,32.28743379900391 127.45912545381026,33.70748026416973 127.97498752815358,30.699773585344374 125.7897607142212,28.569703887595637 128.8096698979481,28.130885397057327" fill="#FFF3B0"/>
  <polygon points="182.41544341385634,47.759461996687605 183.80220240855746,50.56934262765809 186.90308978911844,51.01992793896463 184.6592666014874,53.20711498454092 185.1889614032586,56.2954726527303 182.41544341385634,54.837347955679434 179.6419254244541,56.2954726527303 180.1716202262253,53.20711498454092 177.92779703859424,51.01992793896463 181.0286844191552,50.56934262765809" fill="#FFF3B0"/>
  <polygon points="38.94370808216081,45.82359273497332 40.241379555256316,48.452962330949774 43.143061181560164,48.87460135179807 41.04338463186049,50.921280151945396 41.53905102835183,53.81123699378933 38.94370808216081,52.446784460357776 36.34836513596979,53.81123699378933 36.84403153246113,50.921280151945396 34.74435498276146,48.87460135179807 37.646036609065305,48.452962330949774" fill="#FFF3B0"/>
  <polygon points="64.64235936019577,39.735155240485255 65.98642867794949,42.45853713818253 68.99185903891859,42.89525173262304 66.81710919955718,45.015108904186654 67.33049799570323,48.00839526463129 64.64235936019577,46.595157150255545 61.95422072468832,48.00839526463129 62.46760952083436,45.015108904186654 60.29285968147295,42.89525173262304 63.29829004244204,42.45853713818253" fill="#FFF3B0"/>
  <polygon points="43.05531690721182,8.43877148273259 43.83806930334047,10.024801070520953 45.58835687063497,10.279132741296653 44.32183688892339,11.513684604488544 44.62082169946911,13.256899809231836 43.05531690721182,12.433865233770575 41.489812114954525,13.256899809231836 41.78879692550024,11.513684604488544 40.52227694378867,10.279132741296651 42.27256451108317,10.024801070520953" fill="#FFF3B0"/>
  <path d="M155 25 A22 22 0 1 1 175 50 A18 18 0 1 0 155 25" fill="#FFE566"/>
  <rect x="35" y="75" width="130" height="50" rx="8" fill="#C9B8E8"/>
  <rect x="45" y="65" width="90" height="20" rx="8" fill="white"/>
  <rect x="40" y="90" width="120" height="30" rx="6" fill="#BAE6FD"/>
  <text x="170" y="75" fill="#E2D9F3" font-size="16" font-weight="bold">z</text>
  <text x="178" y="65" fill="#E2D9F3" font-size="13" font-weight="bold">z</text>
</svg>