<svg xmlns="http://www.w3.org/2000/svg" viewBox="0 0 200 150" width="200" height="150">
  <defs>
    <linearGradient id="bg7813" gradientTransform="rotate(180)">
      <stop offset="0%" style="stop-color:#D4E9FF"/>
      <stop offset="100%" style="stop-color:#A8D0F0"/>
    </linearGradient>
  </defs>
  <rect width="200" height="150" fill="url(#bg7813)" rx="16"/>
  <rect x="0" y="0" width="200" height="150" rx="0" fill="#1a1a3e"/>
  <polygon points="117.89065881534952,44.321756794648536 119.35142581455328,47.28159402167018 122.61780012406125,47.756225991318516 120.25422946970538,50.06013796843347 120.81219281375702,53.3133138848451 117.89065881534952,51.77737256676846 114.96912481694203,53.3133138848451 115.52708816099367,50.06013796843347 113.1635175066378,47.756225991318516 116.42989181614577,47.28159402167018" fill="#FFF3B0"/>
  <polygon points="173.21831268404452,32.43088501989314 173.8061251399921,33.62192314614396 175.12051374951199,33.81291499077237 174.16941321677825,34.740008879320776 174.3939375959397,36.049086457125995 173.21831268404452,35.43102386476039 172.04268777214935,36.049086457125995 172.2672121513108,34.740008879320776 171.31611161857705,33.81291499077237 172.63050022809693,33.62192314614396" fill="#FFF3B0"/>
  <polygon points="158.63335862091844,20.66415403447354 159.30830336045662,22.0317414507805 160.81752567911988,22.251044290525247 159.72544215001915,23.315562636134345 159.9832480999948,24.818686661232928 158.63335862091844,24.109007764160197 157.2834691418421,24.818686661232928 157.54127509181774,23.315562636134345 156.449191562717,22.251044290525243 157.95841388138027,22.0317414507805" fill="#FFF3B0"/>
  <polygon points="79.83344121228583,12.037903270593233 80.49739139576616,13.38321328308948 81.98202913970161,13.59894377501969 80.90773517599372,14.646121580078125 81.16134157924648,16.124760368996977 79.83344121228583,15.426641832291352 78.5055408453252,16.124760368996977 78.75914724857795,14.646121580078125 77.68485328487006,13.598943775019688 79.16949102880551,13.38321328308948" fill="#FFF3B0"/>
  <polygon points="119.2294324314571,12.149025662737586 120.16234376854445,14.039310497024507 122.24839693525198,14.342431765283163 120.73891468335454,15.813813309549596 121.0952551056318,17.89143739033334 119.2294324314571,16.910516360822385 117.3636097572824,17.89143739033334 117.71995017955966,15.813813309549596 116.21046792766222,14.34243176528316 118.29652109436975,14.039310497024507" fill="#FFF3B0"/>
  <polygon points="112.42329774615428,48.19978011041712 113.52251985283425,50.427047370623576 115.98045520574118,50.78420628361852 114.20187647594773,52.517892065450916 114.62174195951422,54.96589567327322 112.42329774615428,53.81010515205162 110.22485353279434,54.96589567327322 110.64471901636082,52.517892065450916 108.86614028656737,50.78420628361852 111.3240756394743,50.427047370623576" fill="#FFF3B0"/>
  <polygon points="98.34611778142062,48.381902554818225 99.15103367762597,50.012840298831286 100.9508803377113,50.27437332731937 99.64849905956596,51.54388131514259 99.95594957383132,53.33645535994198 98.34611778142062,52.49011670139316 96.73628598900991,53.33645535994198 97.04373650327527,51.54388131514259 95.74135522512994,50.27437332731937 97.54120188521526,50.012840298831286" fill="#FFF3B0"/>
  <polygon points="159.43875757379828,36.17894240699661 160.5015194933607,38.33233325899176 162.87792738940036,38.677645539063874 161.15834248159933,40.35382655673208 161.56428141292307,42.720632134544516 159.43875757379828,41.60317812276571 157.3132337346735,42.720632134544516 157.71917266599723,40.35382655673208 155.9995877581962,38.677645539063874 158.37599565423588,38.33233325899176" fill="#FFF3B0"/>
  <polygon points="43.90036297361803,51.33119507125184 44.50414233474437,52.55458568107751 45.85423402963427,52.75076548768639 44.87729850162615,53.70304227268498 45.107921695870715,55.04767867090131 43.90036297361803,54.41282748090225 42.692804251365345,55.04767867090131 42.92342744560991,53.70304227268498 41.94649191760179,52.75076548768638 43.29658361249169,52.55458568107751" fill="#FFF3B0"/>
  <polygon points="39.59611221043815,37.9982378123168 40.24903463562936,39.32120314593373 41.70901356239091,39.533350501990505 40.65256288641453,40.563135400160384 40.90195706082056,42.01721501044383 39.59611221043815,41.33069174499724 38.29026736005574,42.01721501044383 38.53966153446177,40.563135400160384 37.48321085848539,39.533350501990505 38.94318978524694,39.32120314593373" fill="#FFF3B0"/>
  <path d="M155 25 A22 22 0 1 1 175 50 A18 18 0 1 0 155 25" fill="#FFE566"/>
  <rect x="35" y="75" width="130" height="50" rx="8" fill="#C9B8E8"/>
  <rect x="45" y="65" width="90" height="20" rx="8" fill="white"/>
  <rect x="40" y="90" width="120" height="30" rx="6" fill="#A8D0F0"/>
  <text x="170" y="75" fill="#E2D9F3" font-size="16" font-weight="bold">z</text>
  <text x="178" y="65" fill="#E2D9F3" font-size="13" font-weight="bold">z</text>
</svg>