<svg xmlns="http://www.w3.org/2000/svg" viewBox="0 0 200 150" width="200" height="150">
  <defs>
    <linearGradient id="bg7818" gradientTransform="rotate(180)">
      <stop offset="0%" style="stop-color:#E0F4FF"/>
      <stop offset="100%" style="stop-color:#BAE6FD"/>
    </linearGradient>
  </defs>
  <rect width="200" height="150" fill="url(#bg7818)" rx="16"/>
  <rect x="0" y="0" width="200" height="150" rx="0" fill="#1a1a3e"/>
  <polygon points="127.73734716048295,45.34834187294564 128.74628986886,47.39268309219158 131.00235435019383,47.720508450513854 129.3698507553384,49.31180616693252 129.75523257723705,51.558754599995744 127.73734716048295,50.49788945571663 125.71946174372886,51.558754599995744 126.10484356562752,49.31180616693252 124.47233997077208,47.720508450513854 126.7284044521059,47.39268309219158" fill="#FFF3B0"/>
  <polygon points="121.7319707596107,20.783146181487723 123.19018547319747,23.73781191299554 126.45085269856789,24.21161459477651 124.09141172908929,26.51150112402388 124.64840018678424,29.758993016833188 121.7319707596107,28.22573533066827 118.81554133243716,29.758993016833188 119.37252979013212,26.51150112402388 117.01308882065352,24.211614594776506 120.27375604602393,23.73781191299554" fill="#FFF3B0"/>
  <polygon points="110.59891185541346,40.43920731038361 111.21256169692265,41.68259769792993 112.58472445691916,41.881984618026465 111.59181815616631,42.84982905891153 111.82621153843183,44.21644733998967 110.59891185541346,43.57121771273296 109.37161217239509,44.21644733998967 109.60600555466061,42.84982905891153 108.61309925390776,41.881984618026465 109.98526201390428,41.68259769792993" fill="#FFF3B0"/>
  <polygon points="115.77427616954765,20.148301459412323 116.72067093212716,22.065906697802884 118.83687395480474,22.373408996576632 117.30557506217619,23.866056509680593 117.66706569470668,25.973708620332058 115.77427616954765,24.97861027826275 113.88148664438862,25.973708620332058 114.2429772769191,23.866056509680593 112.71167838429055,22.373408996576632 114.82788140696813,22.065906697802884" fill="#FFF3B0"/>
  <polygon points="30.92294584488627,29.454942083166316 32.37354137451514,32.39416966175145 35.617171586622604,32.86549672059527 33.27005871575444,35.153366323675755 33.82413690414401,38.383890044443895 30.92294584488627,36.858643642390234 28.021754785628534,38.383890044443895 28.575832974018105,35.153366323675755 26.22872010314994,32.86549672059527 29.4723503152574,32.39416966175145" fill="#FFF3B0"/>
  <polygon points="112.40159082090031,25.021132990151273 113.41113134365672,27.066685513633857 115.66853257858072,27.39470511362268 114.03506169974052,28.98694569889686 114.42067186641313,31.235225484148682 112.40159082090031,30.173731760632563 110.38250977538749,31.235225484148682 110.7681199420601,28.98694569889686 109.1346490632199,27.39470511362268 111.3920502981439,27.06668551363386" fill="#FFF3B0"/>
  <polygon points="149.00976926576732,30.300134174785853 150.21415722480748,32.74049072643769 152.9072505725035,33.13182009623559 150.9585099191354,35.03137275962282 151.41854518384764,37.713584162605834 149.00976926576732,36.447215720347685 146.600993347687,37.713584162605834 147.06102861239924,35.03137275962282 145.11228795903114,33.13182009623559 147.80538130672716,32.74049072643769" fill="#FFF3B0"/>
  <polygon points="118.82610160975673,51.3186278213534 119.76977042248427,53.230709682055895 121.87987803598959,53.5373262660318 120.35298982287316,55.02567442919398 120.71343923521182,57.12725576030796 118.82610160975673,56.135023651533174 116.93876398430164,57.12725576030796 117.29921339664031,55.02567442919398 115.77232518352388,53.5373262660318 117.8824327970292,53.230709682055895" fill="#FFF3B0"/>
  <polygon points="21.351471924972998,39.16889303735297 22.585195092249975,41.66868921315371 25.343883959697642,42.06955016990084 23.34767794233532,44.01537012823984 23.818918259526953,46.76291200007311 21.351471924972998,45.465698694513776 18.884025590419043,46.76291200007311 19.355265907610676,44.01537012823984 17.359059890248353,42.06955016990084 20.11774875769602,41.66868921315371" fill="#FFF3B0"/>
  <polygon points="135.83224911155412,24.91240435495638 136.61007893966857,26.488459730519995 138.34935931025947,26.741191961991834 137.09080421090678,27.96797998371397 137.38790876778302,29.70023246837979 135.83224911155412,28.8823737872317 134.27658945532522,29.70023246837979 134.57369401220146,27.96797998371397 133.31513891284877,26.741191961991834 135.05441928343967,26.488459730519995" fill="#FFF3B0"/>
  <path d="M155 25 A22 22 0 1 1 175 50 A18 18 0 1 0 155 25" fill="#FFE566"/>
  <rect x="35" y="75" width="130" height="50" rx="8" fill="#C9B8E8"/>
  <rect x="45" y="65" width="90" height="20" rx="8" fill="white"/>
  <rect x="40" y="90" width="120" height="30" rx="6" fill="#BAE6FD"/>
  <text x="170" y="75" fill="#E2D9F3" font-size="16" font-weight="bold">z</text>
  <text x="178" y="65" fill="#E2D9F3" font-size="13" font-weight="bold">z</text>
</svg>