<svg xmlns="http://www.w3.org/2000/svg" viewBox="0 0 200 150" width="200" height="150">
  <defs>
    <linearGradient id="bg7820" gradientTransform="rotate(135)">
      <stop offset="0%" style="stop-color:#E0F4FF"/>
      <stop offset="100%" style="stop-color:#BAE6FD"/>
    </linearGradient>
  </defs>
  <rect width="200" height="150" fill="url(#bg7820)" rx="16"/>
  <rect x="0" y="0" width="200" height="150" rx="0" fill="#1a1a3e"/>
  <polygon points="22.75990688609454,11.549625125541752 23.819286402764664,13.696162480707638 26.18813101600993,14.04037575145946 24.474018951052237,15.711222065825101 24.878665919434788,18.070494921694383 22.75990688609454,16.956597378783954 20.641147852754294,18.070494921694383 21.045794821136845,15.711222065825101 19.331682756179152,14.040375751459457 21.700527369424417,13.696162480707638" fill="#FFF3B0"/>
  <polygon points="167.70159007085567,19.295207741809463 169.04956264534164,22.026498501487488 172.0637209536977,22.46448134091976 169.88265551227667,24.59049470299157 170.39753521982763,27.592473743927926 167.70159007085567,26.17513150254672 165.00564492188371,27.592473743927926 165.52052462943468,24.59049470299157 163.33945918801365,22.464481340919757 166.3536174963697,22.026498501487488" fill="#FFF3B0"/>
  <polygon points="84.3541461989389,11.805619344694605 85.08457821367115,13.285636260596569 86.71787385155456,13.522968008942156 85.53601002524672,14.675000515239951 85.81501022840338,16.301696518228923 84.3541461989389,15.533674847363727 82.89328216947443,16.301696518228923 83.17228237263109,14.675000515239953 81.99041854632326,13.522968008942156 83.62371418420666,13.285636260596569" fill="#FFF3B0"/>
  <polygon points="35.92001648912628,45.92159654590796 37.28138700855556,48.680034507179656 40.32550403256362,49.12237060281305 38.122760260844956,51.26951511437032 38.642757527984834,54.30133181719438 35.92001648912628,52.869902142822866 33.19727545026773,54.30133181719438 33.71727271740761,51.26951511437032 31.514528945688944,49.12237060281305 34.558645969697004,48.680034507179656" fill="#FFF3B0"/>
  <polygon points="145.87120333157145,11.306602326153552 147.1594329812086,13.916840698205704 150.04000204842802,14.335411884644031 147.95560268999975,16.367199103749783 148.44766263084577,19.23612869573219 145.87120333157145,17.881603882995023 143.29474403229713,19.23612869573219 143.78680397314315,16.367199103749783 141.70240461471488,14.33541188464403 144.5829736819343,13.916840698205704" fill="#FFF3B0"/>
  <polygon points="171.20953502082557,20.87714945888456 172.62063764494945,23.736355670625702 175.7759590357188,24.194850706609497 173.4927470282722,26.420432362294147 174.03174026907337,29.56300408994638 171.20953502082557,28.079282986156613 168.38732977257777,29.56300408994638 168.92632301337895,26.420432362294147 166.64311100593233,24.194850706609493 169.79843239670168,23.736355670625706" fill="#FFF3B0"/>
  <polygon points="155.64131401890336,49.54692309236941 156.30228975444442,50.88620621505691 157.78027643059215,51.100970250266236 156.71079522474776,52.14345677585553 156.96326548998547,53.61547137186347 155.64131401890336,52.92048035480394 154.31936254782124,53.61547137186347 154.57183281305896,52.14345677585553 153.50235160721456,51.100970250266236 154.9803382833623,50.88620621505691" fill="#FFF3B0"/>
  <polygon points="25.29688508833715,49.24546309619291 26.442079433117158,51.56588028504107 29.002811835493585,51.93797648367463 27.14984846191537,53.744169373095836 27.587273777897167,56.29455465978417 25.29688508833715,55.0904260668367 23.006496398777134,56.29455465978417 23.44392171475893,53.744169373095836 21.590958341180713,51.937976483674625 24.15169074355714,51.56588028504107" fill="#FFF3B0"/>
  <polygon points="94.35656718650307,48.901656499880346 95.81177178251765,51.850223067008955 99.06570818037638,52.32304770230274 96.71113768343973,54.6181866941736 97.26697637853223,57.858974956632046 94.35656718650307,56.3288822953848 91.44615799447391,57.858974956632046 92.00199668956641,54.6181866941736 89.64742619262977,52.32304770230274 92.90136259048849,51.850223067008955" fill="#FFF3B0"/>
  <polygon points="39.76565361732355,25.90308148715667 40.919657828471955,28.241349415004603 43.50008969092081,28.616308112742438 41.632871654122184,30.43639586469408 42.07366203962036,33.006401012121394 39.76565361732355,31.793009177486965 37.45764519502674,33.006401012121394 37.89843558052492,30.43639586469408 36.03121754372629,28.616308112742438 38.61164940617515,28.241349415004603" fill="#FFF3B0"/>
  <path d="M155 25 A22 22 0 1 1 175 50 A18 18 0 1 0 155 25" fill="#FFE566"/>
  <rect x="35" y="75" width="130" height="50" rx="8" fill="#C9B8E8"/>
  <rect x="45" y="65" width="90" height="20" rx="8" fill="white"/>
  <rect x="40" y="90" width="120" height="30" rx="6" fill="#BAE6FD"/>
  <text x="170" y="75" fill="#E2D9F3" font-size="16" font-weight="bold">z</text>
  <text x="178" y="65" fill="#E2D9F3" font-size="13" font-weight="bold">z</text>
</svg>