<svg xmlns="http://www.w3.org/2000/svg" viewBox="0 0 200 150" width="200" height="150">
  <defs>
    <linearGradient id="bg7822" gradientTransform="rotate(0)">
      <stop offset="0%" style="stop-color:#E2D9F3"/>
      <stop offset="100%" style="stop-color:#C9B8E8"/>
    </linearGradient>
  </defs>
  <rect width="200" height="150" fill="url(#bg7822)" rx="16"/>
  <rect x="0" y="0" width="200" height="150" rx="0" fill="#1a1a3e"/>
  <polygon points="111.51227095660033,12.36293230218871 112.32952070580428,14.018861162018162 114.15694669961897,14.284401702275927 112.83460882810965,15.573362560860154 113.14677045500824,17.393404499959914 111.51227095660033,16.534097260903764 109.87777145819243,17.393404499959914 110.18993308509101,15.573362560860154 108.8675952135817,14.284401702275927 110.69502120739638,14.018861162018162" fill="#FFF3B0"/>
  <polygon points="95.92900801442283,50.55648176401428 96.5754162000481,51.8662478065851 98.02082884431847,52.07627855790093 96.97491842937065,53.09578924083596 97.22182438567334,54.53536142640264 95.92900801442283,53.85568763777928 94.63619164317232,54.53536142640264 94.88309759947502,53.09578924083596 93.8371871845272,52.07627855790093 95.28259982879757,51.8662478065851" fill="#FFF3B0"/>
  <polygon points="114.85730418172352,37.09988478755622 116.00020051351626,39.41564569351216 118.55579440263998,39.786995222463965 116.70654929218175,41.589563701114784 117.14309684530899,44.1348312376692 114.85730418172352,42.93311891856865 112.57151151813805,44.1348312376692 113.0080590712653,41.589563701114784 111.15881396080707,39.78699522246396 113.71440784993078,39.41564569351216" fill="#FFF3B0"/>
  <polygon points="74.60432599792512,30.11002633098724 75.30005679129327,31.519730892576348 76.85575813930431,31.74578753061741 75.73004206861472,32.84308950181631 75.99578758466143,34.39250474909733 74.60432599792512,33.66097010163139 73.2128644111888,34.39250474909733 73.47860992723551,32.84308950181631 72.35289385654592,31.745787530617406 73.90859520455696,31.519730892576348" fill="#FFF3B0"/>
  <polygon points="152.52160574979825,11.088891468025395 153.75265380514384,13.583267275016253 156.5053609404655,13.98325903520725 154.51348334513187,15.924859824834046 154.98370186048942,18.666444134842838 152.52160574979825,17.372043608424974 150.0595096391071,18.666444134842838 150.52972815446464,15.924859824834046 148.53785055913102,13.983259035207249 151.29055769445267,13.583267275016253" fill="#FFF3B0"/>
  <polygon points="113.44813212230292,37.99532397098994 114.31581415997883,39.753439808581454 116.25601017907769,40.035366792689864 114.8520711506903,41.40386912058931 115.18349619765473,43.33622541670557 113.44813212230292,42.42389053143927 111.71276804695111,43.33622541670557 112.04419309391554,41.40386912058931 110.64025406552815,40.03536679268986 112.58045008462702,39.753439808581454" fill="#FFF3B0"/>
  <polygon points="176.41884995859073,43.827971608445296 177.7582073941077,46.54180618993042 180.75310166609344,46.97698980102588 178.5859758123421,49.08941542332399 179.09756482962467,52.072208267813025 176.41884995859073,50.663924519614284 173.74013508755678,52.072208267813025 174.25172410483935,49.08941542332399 172.084598251088,46.97698980102588 175.07949252307375,46.54180618993042" fill="#FFF3B0"/>
  <polygon points="124.47363677576504,40.70031391533939 125.9181375675992,43.62719220630813 129.14813953169266,44.09653896479908 126.81088815372885,46.37479598804291 127.36263835943338,49.591746528268644 124.47363677576504,48.072908512772756 121.58463519209671,49.591746528268644 122.13638539780123,46.37479598804291 119.79913401983741,44.09653896479908 123.02913598393089,43.62719220630813" fill="#FFF3B0"/>
  <polygon points="120.22380310379958,20.26144517628927 121.43636772016326,22.71836944527863 124.14774462946342,23.11235557209029 122.18577386663151,25.024804404921863 122.64893233652695,27.72522549137675 120.22380310379958,26.45025960282237 117.79867387107221,27.72522549137675 118.26183234096766,25.024804404921863 116.29986157813575,23.112355572090287 119.0112384874359,22.71836944527863" fill="#FFF3B0"/>
  <polygon points="147.59856822376605,41.095629380170976 148.36783839824216,42.65434100310121 150.08797880143385,42.90429203451302 148.84327351259995,44.11757982755522 149.13710857271826,45.83076968342104 147.59856822376605,45.02191115472624 146.06002787481384,45.83076968342104 146.35386293493215,44.11757982755522 145.10915764609825,42.90429203451302 146.82929804928995,42.65434100310121" fill="#FFF3B0"/>
  <path d="M155 25 A22 22 0 1 1 175 50 A18 18 0 1 0 155 25" fill="#FFE566"/>
  <rect x="35" y="75" width="130" height="50" rx="8" fill="#C9B8E8"/>
  <rect x="45" y="65" width="90" height="20" rx="8" fill="white"/>
  <rect x="40" y="90" width="120" height="30" rx="6" fill="#C9B8E8"/>
  <text x="170" y="75" fill="#E2D9F3" font-size="16" font-weight="bold">z</text>
  <text x="178" y="65" fill="#E2D9F3" font-size="13" font-weight="bold">z</text>
</svg>