<svg xmlns="http://www.w3.org/2000/svg" viewBox="0 0 200 150" width="200" height="150">
  <defs>
    <linearGradient id="bg7823" gradientTransform="rotate(90)">
      <stop offset="0%" style="stop-color:#E2D9F3"/>
      <stop offset="100%" style="stop-color:#C9B8E8"/>
    </linearGradient>
  </defs>
  <rect width="200" height="150" fill="url(#bg7823)" rx="16"/>
  <rect x="0" y="0" width="200" height="150" rx="0" fill="#1a1a3e"/>
  <polygon points="66.0162984667295,32.714127148648004 67.15114476162279,35.013576898268354 69.68873822101794,35.38231081167612 67.85251834387373,37.1721828257717 68.28599105651607,39.69952266668281 66.0162984667295,38.50627465728576 63.74660587694292,39.69952266668281 64.18007858958526,37.1721828257717 62.34385871244105,35.38231081167612 64.8814521718362,35.013576898268354" fill="#FFF3B0"/>
  <polygon points="52.68484570717192,13.025253320339289 54.07270462827668,15.837362645631494 57.17605151904645,16.288305344690983 54.930448613109185,18.47722718686159 55.46056354938145,21.568034427151176 52.68484570717192,20.108753199037437 49.909127864962386,21.568034427151176 50.43924280123465,18.47722718686159 48.19363989529738,16.288305344690983 51.29698678606715,15.837362645631494" fill="#FFF3B0"/>
  <polygon points="158.22585899089972,14.392627334176723 159.09480637002017,16.153307033571288 161.03783177860373,16.43564515203748 159.63184538475173,17.80614316803146 159.9637537491406,19.741317420957827 158.22585899089972,18.82765207696184 156.48796423265884,19.741317420957827 156.81987259704772,17.80614316803146 155.41388620319572,16.43564515203748 157.35691161177928,16.153307033571288" fill="#FFF3B0"/>
  <polygon points="173.0685882662874,45.87522887034629 174.4798807299533,48.73481973901347 177.63562661484337,49.193376457603584 175.3521074405654,51.41925752694885 175.89117319361918,54.56225203347434 173.0685882662874,53.07833132057749 170.24600333895563,54.56225203347434 170.78506909200942,51.41925752694885 168.50154991773144,49.19337645760358 171.65729580262152,48.73481973901347" fill="#FFF3B0"/>
  <polygon points="58.433894079244055,12.29036104664101 59.16164034810455,13.76493604701651 60.78893047564845,14.001395143629294 59.61141227744625,15.149191709435025 59.88938661696504,16.76990646846632 58.433894079244055,16.004708757929166 56.97840154152307,16.76990646846632 57.25637588104186,15.149191709435025 56.07885768283966,14.001395143629292 57.70614781038356,13.76493604701651" fill="#FFF3B0"/>
  <polygon points="130.21872943361814,13.636768183643653 130.98557721103376,15.190571494021567 132.70030096972977,15.439735440916335 131.45951520167395,16.649202645456754 131.7524249884494,18.35699774378671 130.21872943361814,17.550686274093096 128.68503387878687,18.35699774378671 128.97794366556232,16.649202645456754 127.73715789750652,15.439735440916333 129.45188165620252,15.190571494021567" fill="#FFF3B0"/>
  <polygon points="157.52531129716317,15.890674050566304 158.46971911586638,17.80425330092706 160.581479196969,18.111110002500084 159.0533952470661,19.600623720962602 159.41412693456957,21.70385084257117 157.52531129716317,20.710841696929492 155.63649565975678,21.70385084257117 155.99722734726024,19.600623720962602 154.46914339735733,18.111110002500084 156.58090347845996,17.80425330092706" fill="#FFF3B0"/>
  <polygon points="145.704176996137,34.34702076036177 146.89689948081767,36.76374047924091 149.5639080348561,37.15127950665351 147.63404251549656,39.03243346161551 148.08962196549834,41.688665471402715 145.704176996137,40.43456283476138 143.31873202677565,41.688665471402715 143.77431147677743,39.03243346161551 141.8444459574179,37.15127950665351 144.51145451145632,36.76374047924091" fill="#FFF3B0"/>
  <polygon points="19.375694968484822,21.300682635381236 20.705518578199662,23.99519957583224 23.679094567606192,24.42728545914413 21.527394768045507,26.52467439491712 22.0353421879145,29.486235097313894 19.375694968484822,28.087975806798568 16.716047749055146,29.486235097313894 17.223995168924137,26.52467439491712 15.072295369363454,24.42728545914413 18.045871358769983,23.99519957583224" fill="#FFF3B0"/>
  <polygon points="174.4979080092071,19.556494457108784 175.47038991302674,21.526958017073685 177.64492555685587,21.842936541854765 176.07141678303148,23.37672852028727 176.44287181684638,25.542477548281926 174.4979080092071,24.51994956266026 172.5529442015678,25.542477548281926 172.9243992353827,23.37672852028727 171.35089046155832,21.842936541854762 173.52542610538745,21.526958017073685" fill="#FFF3B0"/>
  <path d="M155 25 A22 22 0 1 1 175 50 A18 18 0 1 0 155 25" fill="#FFE566"/>
  <rect x="35" y="75" width="130" height="50" rx="8" fill="#C9B8E8"/>
  <rect x="45" y="65" width="90" height="20" rx="8" fill="white"/>
  <rect x="40" y="90" width="120" height="30" rx="6" fill="#C9B8E8"/>
  <text x="170" y="75" fill="#E2D9F3" font-size="16" font-weight="bold">z</text>
  <text x="178" y="65" fill="#E2D9F3" font-size="13" font-weight="bold">z</text>
</svg>