<svg xmlns="http://www.w3.org/2000/svg" viewBox="0 0 200 150" width="200" height="150">
  <defs>
    <linearGradient id="bg7825" gradientTransform="rotate(135)">
      <stop offset="0%" style="stop-color:#FFD6D6"/>
      <stop offset="100%" style="stop-color:#FFB3B3"/>
    </linearGradient>
  </defs>
  <rect width="200" height="150" fill="url(#bg7825)" rx="16"/>
  <rect x="0" y="0" width="200" height="150" rx="0" fill="#1a1a3e"/>
  <polygon points="106.85668901072859,13.609688874171297 108.10991675968224,16.14900564906523 110.91221919763164,16.5562040285659 108.88445410418012,18.532786483153785 109.3631445086359,21.32376569674301 106.85668901072859,20.006044060351087 104.35023351282128,21.32376569674301 104.82892391727705,18.532786483153785 102.80115882382553,16.556204028565897 105.60346126177494,16.14900564906523" fill="#FFF3B0"/>
  <polygon points="36.09759466793548,11.22562699714149 36.85376672296207,12.757798931283727 38.54461884068724,13.003494125702778 37.32110675431136,14.196123652030398 37.60993877798866,15.880143567196123 36.09759466793548,15.085057216311043 34.585250557882304,15.880143567196123 34.874082581559605,14.196123652030398 33.65057049518372,13.003494125702778 35.34142261290889,12.757798931283727" fill="#FFF3B0"/>
  <polygon points="70.54608203829957,36.70359484954315 71.66155054675762,38.963780915290876 74.15581395843012,39.32621860421644 72.35094799836484,41.085528102673 72.77701905521567,43.56971297898069 70.54608203829957,42.396839980009645 68.31514502138347,43.56971297898069 68.7412160782343,41.085528102673 66.93635011816903,39.326218604216436 69.43061352984152,38.963780915290876" fill="#FFF3B0"/>
  <polygon points="31.158098569212598,23.462191526846254 31.942339325081548,25.051236860861735 33.69595496593034,25.30605212903214 32.42702676757147,26.542951423288542 32.7265800809505,28.289481253885754 31.158098569212598,27.464881724381485 29.589617057474694,28.289481253885754 29.889170370853726,26.542951423288542 28.620242172494855,25.30605212903214 30.373857813343648,25.051236860861735" fill="#FFF3B0"/>
  <polygon points="171.74284702753994,16.80718757239447 173.15990470313227,19.678460036340617 176.3285419937946,20.13888998583859 174.03569451066727,22.37386390901694 174.57696237872463,25.529697731191234 171.74284702753994,24.039715115739 168.90873167635525,25.529697731191234 169.4499995444126,22.37386390901694 167.15715206128527,20.13888998583859 170.3257893519476,19.678460036340617" fill="#FFF3B0"/>
  <polygon points="174.62520628761922,39.27633870421414 175.56950193660631,41.18969067390547 177.68101119859875,41.496510929328416 176.153108743109,42.98584773446216 176.51379758559344,45.08882505044179 174.62520628761922,44.095933847019296 172.736614989645,45.08882505044179 173.09730383212946,42.98584773446216 171.5694013766397,41.496510929328416 173.68091063863213,41.18969067390547" fill="#FFF3B0"/>
  <polygon points="79.680320592106,12.960507195161526 80.76244856929773,15.153137965872796 83.18216028665277,15.50474265950706 81.4312404393794,17.21146769421977 81.84457654648946,19.621402116201008 79.680320592106,18.483585426392537 77.51606463772254,19.621402116201008 77.9294007448326,17.21146769421977 76.17848089755923,15.50474265950706 78.59819261491427,15.153137965872796" fill="#FFF3B0"/>
  <polygon points="31.424968812707448,20.655032345110612 32.8013936742867,23.44397373529884 35.879173230698655,23.89120128321059 33.65207102170305,26.062089402890052 34.17781853586596,29.127432618393016 31.424968812707448,27.680173871940042 28.672119089548936,29.127432618393016 29.197866603711844,26.062089402890052 26.97076439471624,23.89120128321059 30.04854395112819,23.44397373529884" fill="#FFF3B0"/>
  <polygon points="68.01737764979407,15.538508696679855 69.19154092698778,17.9176233537977 71.81704983147687,18.299132129151317 69.91721374063546,20.151014625736813 70.3657042041815,22.765914673029542 68.01737764979407,21.531326341972544 65.66905109540664,22.765914673029542 66.11754155895268,20.151014625736813 64.21770546811128,18.299132129151317 66.84321437260036,17.9176233537977" fill="#FFF3B0"/>
  <polygon points="176.39160821254336,37.42276019283787 177.83328492337125,40.343916270682264 181.05697205036077,40.81234542963052 178.72429013145205,43.08614833112994 179.27496163419917,46.296809550525886 176.39160821254336,44.78094094952627 173.50825479088755,46.296809550525886 174.05892629363467,43.08614833112994 171.72624437472595,40.81234542963052 174.94993150171547,40.343916270682264" fill="#FFF3B0"/>
  <path d="M155 25 A22 22 0 1 1 175 50 A18 18 0 1 0 155 25" fill="#FFE566"/>
  <rect x="35" y="75" width="130" height="50" rx="8" fill="#C9B8E8"/>
  <rect x="45" y="65" width="90" height="20" rx="8" fill="white"/>
  <rect x="40" y="90" width="120" height="30" rx="6" fill="#FFB3B3"/>
  <text x="170" y="75" fill="#E2D9F3" font-size="16" font-weight="bold">z</text>
  <text x="178" y="65" fill="#E2D9F3" font-size="13" font-weight="bold">z</text>
</svg>