<svg xmlns="http://www.w3.org/2000/svg" viewBox="0 0 200 150" width="200" height="150">
  <defs>
    <linearGradient id="bg78261" gradientTransform="rotate(0)">
      <stop offset="0%" style="stop-color:#D8F3DC"/>
      <stop offset="100%" style="stop-color:#B7E4C7"/>
    </linearGradient>
  </defs>
  <rect width="200" height="150" fill="url(#bg78261)" rx="16"/>
  <circle cx="175.28273978623474" cy="24.893346005114836" r="2.522295124199445" fill="#D8F3DC" opacity="0.3"/><circle cx="1.0509276782613597" cy="10.34858238886045" r="2.4709720696641853" fill="#D8F3DC" opacity="0.3"/><circle cx="103.71407475904562" cy="77.29730118535372" r="3.396305481105628" fill="#D8F3DC" opacity="0.3"/><circle cx="94.32048257040151" cy="143.63379526728295" r="4.314015705904239" fill="#D8F3DC" opacity="0.3"/><circle cx="192.00424582659252" cy="21.725890210564103" r="3.7264234980830224" fill="#D8F3DC" opacity="0.3"/><circle cx="114.25389403339068" cy="41.73969404246236" r="4.289095541446386" fill="#D8F3DC" opacity="0.3"/>
  <circle cx="100" cy="75" r="48" fill="#FFE5D9" opacity="1"/>
  <circle cx="80" cy="68" r="8" fill="#333" opacity="1"/>
  <circle cx="120" cy="68" r="8" fill="#333" opacity="1"/>
  <circle cx="78" cy="65" r="3" fill="white" opacity="1"/>
  <circle cx="118" cy="65" r="3" fill="white" opacity="1"/>
  <path d="M72 92 Q100 115 128 92" stroke="#333" stroke-width="4" fill="none" stroke-linecap="round"/>
  <ellipse cx="60" cy="82" rx="12" ry="7" fill="#FFB3B3" opacity="0.4"/>
  <ellipse cx="140" cy="82" rx="12" ry="7" fill="#FFB3B3" opacity="0.4"/>
  <path d="M45,42.25 C39,37 42,34 45,37.75 C48,34 51,37 45,42.25Z" fill="#FFB3B3"/>
  <path d="M160,46.8 C155.2,42.6 157.6,40.2 160,43.2 C162.4,40.2 164.8,42.6 160,46.8Z" fill="#FFD6D6"/>
</svg>