<svg xmlns="http://www.w3.org/2000/svg" viewBox="0 0 200 150" width="200" height="150">
  <defs>
    <linearGradient id="bg78294" gradientTransform="rotate(0)">
      <stop offset="0%" style="stop-color:#FFE4EC"/>
      <stop offset="100%" style="stop-color:#FFC8DD"/>
    </linearGradient>
  </defs>
  <rect width="200" height="150" fill="url(#bg78294)" rx="16"/>
  <circle cx="91.74209649572731" cy="51.2380553898673" r="3.3683485522078627" fill="#FFE4EC" opacity="0.3"/><circle cx="85.4546557166941" cy="52.949267010762924" r="3.9078746172726824" fill="#FFE4EC" opacity="0.3"/><circle cx="19.080439591743925" cy="73.72785728165638" r="4.73339768104961" fill="#FFE4EC" opacity="0.3"/><circle cx="49.095902733984076" cy="53.28009151007791" r="4.92973905416693" fill="#FFE4EC" opacity="0.3"/><circle cx="167.85733418219024" cy="91.19883349189877" r="3.079297688626866" fill="#FFE4EC" opacity="0.3"/><circle cx="116.19269123902995" cy="32.25366131887313" r="4.21455798608622" fill="#FFE4EC" opacity="0.3"/>
  <circle cx="100" cy="75" r="48" fill="#FFE5D9" opacity="1"/>
  <circle cx="80" cy="68" r="8" fill="#333" opacity="1"/>
  <circle cx="120" cy="68" r="8" fill="#333" opacity="1"/>
  <circle cx="78" cy="65" r="3" fill="white" opacity="1"/>
  <circle cx="118" cy="65" r="3" fill="white" opacity="1"/>
  <path d="M72 92 Q100 115 128 92" stroke="#333" stroke-width="4" fill="none" stroke-linecap="round"/>
  <ellipse cx="60" cy="82" rx="12" ry="7" fill="#FFB3B3" opacity="0.4"/>
  <ellipse cx="140" cy="82" rx="12" ry="7" fill="#FFB3B3" opacity="0.4"/>
  <path d="M45,42.25 C39,37 42,34 45,37.75 C48,34 51,37 45,42.25Z" fill="#FFB3B3"/>
  <path d="M160,46.8 C155.2,42.6 157.6,40.2 160,43.2 C162.4,40.2 164.8,42.6 160,46.8Z" fill="#FFD6D6"/>
</svg>