<svg xmlns="http://www.w3.org/2000/svg" viewBox="0 0 200 150" width="200" height="150">
  <defs>
    <linearGradient id="bg7838" gradientTransform="rotate(0)">
      <stop offset="0%" style="stop-color:#FFD6D6"/>
      <stop offset="100%" style="stop-color:#FFB3B3"/>
    </linearGradient>
  </defs>
  <rect width="200" height="150" fill="url(#bg7838)" rx="16"/>
  <rect x="0" y="100" width="200" height="50" rx="0" fill="#C5DBC5"/>
  <circle cx="165" cy="35" r="22" fill="#FFE566" opacity="1"/>
  <line x1="191" y1="35" x2="200" y2="35" stroke="#FFF3B0" stroke-width="3" stroke-linecap="round"/>
  <line x1="183.38477631085024" y1="53.384776310850235" x2="189.74873734152916" y2="59.748737341529164" stroke="#FFF3B0" stroke-width="3" stroke-linecap="round"/>
  <line x1="165" y1="61" x2="165" y2="70" stroke="#FFF3B0" stroke-width="3" stroke-linecap="round"/>
  <line x1="146.61522368914976" y1="53.38477631085024" x2="140.25126265847084" y2="59.748737341529164" stroke="#FFF3B0" stroke-width="3" stroke-linecap="round"/>
  <line x1="139" y1="35" x2="130" y2="35.00000000000001" stroke="#FFF3B0" stroke-width="3" stroke-linecap="round"/>
  <line x1="146.61522368914976" y1="16.615223689149765" x2="140.25126265847084" y2="10.25126265847084" stroke="#FFF3B0" stroke-width="3" stroke-linecap="round"/>
  <line x1="165" y1="9" x2="165" y2="0" stroke="#FFF3B0" stroke-width="3" stroke-linecap="round"/>
  <line x1="183.38477631085024" y1="16.61522368914976" x2="189.74873734152916" y2="10.251262658470832" stroke="#FFF3B0" stroke-width="3" stroke-linecap="round"/>
  <rect x="90" y="55" width="14" height="50" rx="2" fill="#8B6914"/>
  <path d="M82.09622651647987,38.706820151499414 Q92.09622651647987,50.706820151499414 82.09622651647987,62.706820151499414 Q72.09622651647987,50.706820151499414 82.09622651647987,38.706820151499414Z" fill="#B7E4C7"/>
  <path d="M88.33621721308737,38.7550784981504 Q98.33621721308737,50.7550784981504 88.33621721308737,62.7550784981504 Q78.33621721308737,50.7550784981504 88.33621721308737,38.7550784981504Z" fill="#95D5B2"/>
  <path d="M100.89298452044022,24.231051788345212 Q110.89298452044022,36.23105178834521 100.89298452044022,48.23105178834521 Q90.89298452044022,36.23105178834521 100.89298452044022,24.231051788345212Z" fill="#B7E4C7"/>
  <path d="M114.58071475592442,23.276476627477678 Q124.58071475592442,35.27647662747768 114.58071475592442,47.27647662747768 Q104.58071475592442,35.27647662747768 114.58071475592442,23.276476627477678Z" fill="#95D5B2"/>
  <path d="M129.25555358614656,30.933573800310114 Q139.25555358614656,42.933573800310114 129.25555358614656,54.933573800310114 Q119.25555358614656,42.933573800310114 129.25555358614656,30.933573800310114Z" fill="#B7E4C7"/>
  <circle cx="45" cy="95" r="8" fill="#FFB3B3" opacity="1"/>
  <circle cx="155" cy="98" r="6" fill="#C9B8E8" opacity="1"/>
</svg>