<svg xmlns="http://www.w3.org/2000/svg" viewBox="0 0 200 150" width="200" height="150">
  <defs>
    <linearGradient id="bg78631" gradientTransform="rotate(0)">
      <stop offset="0%" style="stop-color:#E8F0E8"/>
      <stop offset="100%" style="stop-color:#C5DBC5"/>
    </linearGradient>
  </defs>
  <rect width="200" height="150" fill="url(#bg78631)" rx="16"/>
  <circle cx="99.86616279087457" cy="149.4968760138363" r="3.4024298648841977" fill="#E8F0E8" opacity="0.3"/><circle cx="137.44043105743913" cy="8.578377998492215" r="3.8873993696697653" fill="#E8F0E8" opacity="0.3"/><circle cx="154.98123535799095" cy="70.5520477616119" r="3.0421081662167353" fill="#E8F0E8" opacity="0.3"/><circle cx="123.97045509060263" cy="85.01890310581075" r="3.190032141849315" fill="#E8F0E8" opacity="0.3"/><circle cx="78.15748556458857" cy="31.445120318585396" r="2.9646537537901168" fill="#E8F0E8" opacity="0.3"/><circle cx="159.66338016696682" cy="67.22555028891293" r="3.4547246589600036" fill="#E8F0E8" opacity="0.3"/>
  <circle cx="100" cy="75" r="48" fill="#FFE5D9" opacity="1"/>
  <circle cx="80" cy="68" r="8" fill="#333" opacity="1"/>
  <circle cx="120" cy="68" r="8" fill="#333" opacity="1"/>
  <circle cx="78" cy="65" r="3" fill="white" opacity="1"/>
  <circle cx="118" cy="65" r="3" fill="white" opacity="1"/>
  <path d="M72 92 Q100 115 128 92" stroke="#333" stroke-width="4" fill="none" stroke-linecap="round"/>
  <ellipse cx="60" cy="82" rx="12" ry="7" fill="#FFB3B3" opacity="0.4"/>
  <ellipse cx="140" cy="82" rx="12" ry="7" fill="#FFB3B3" opacity="0.4"/>
  <path d="M45,42.25 C39,37 42,34 45,37.75 C48,34 51,37 45,42.25Z" fill="#FFB3B3"/>
  <path d="M160,46.8 C155.2,42.6 157.6,40.2 160,43.2 C162.4,40.2 164.8,42.6 160,46.8Z" fill="#FFD6D6"/>
</svg>