<svg xmlns="http://www.w3.org/2000/svg" viewBox="0 0 200 150" width="200" height="150">
  <defs>
    <linearGradient id="bg78969" gradientTransform="rotate(0)">
      <stop offset="0%" style="stop-color:#E0F4FF"/>
      <stop offset="100%" style="stop-color:#BAE6FD"/>
    </linearGradient>
  </defs>
  <rect width="200" height="150" fill="url(#bg78969)" rx="16"/>
  <circle cx="62.14802003305522" cy="119.82980029588362" r="3.6548442128919305" fill="#E0F4FF" opacity="0.3"/><circle cx="102.57368904111672" cy="97.29274829132919" r="3.1747530351485693" fill="#E0F4FF" opacity="0.3"/><circle cx="95.45767093932227" cy="146.38999435364894" r="2.3392503697227767" fill="#E0F4FF" opacity="0.3"/><circle cx="1.1803180444985628" cy="149.3265739319213" r="2.9475399654074863" fill="#E0F4FF" opacity="0.3"/><circle cx="97.06493136112613" cy="45.95003048871149" r="4.2098407145454075" fill="#E0F4FF" opacity="0.3"/><circle cx="159.61711013478634" cy="95.57103419606392" r="2.5055829228222137" fill="#E0F4FF" opacity="0.3"/>
  <circle cx="100" cy="75" r="48" fill="#FFE5D9" opacity="1"/>
  <circle cx="80" cy="68" r="8" fill="#333" opacity="1"/>
  <circle cx="120" cy="68" r="8" fill="#333" opacity="1"/>
  <circle cx="78" cy="65" r="3" fill="white" opacity="1"/>
  <circle cx="118" cy="65" r="3" fill="white" opacity="1"/>
  <path d="M72 92 Q100 115 128 92" stroke="#333" stroke-width="4" fill="none" stroke-linecap="round"/>
  <ellipse cx="60" cy="82" rx="12" ry="7" fill="#FFB3B3" opacity="0.4"/>
  <ellipse cx="140" cy="82" rx="12" ry="7" fill="#FFB3B3" opacity="0.4"/>
  <path d="M45,42.25 C39,37 42,34 45,37.75 C48,34 51,37 45,42.25Z" fill="#FFB3B3"/>
  <path d="M160,46.8 C155.2,42.6 157.6,40.2 160,43.2 C162.4,40.2 164.8,42.6 160,46.8Z" fill="#FFD6D6"/>
</svg>