<svg xmlns="http://www.w3.org/2000/svg" viewBox="0 0 200 150" width="200" height="150">
  <defs>
    <linearGradient id="bg7907" gradientTransform="rotate(180)">
      <stop offset="0%" style="stop-color:#FFF3B0"/>
      <stop offset="100%" style="stop-color:#FFE566"/>
    </linearGradient>
  </defs>
  <rect width="200" height="150" fill="url(#bg7907)" rx="16"/>
  <rect x="0" y="100" width="200" height="50" rx="0" fill="#C5DBC5"/>
  <circle cx="165" cy="35" r="22" fill="#FFE566" opacity="1"/>
  <line x1="191" y1="35" x2="200" y2="35" stroke="#FFF3B0" stroke-width="3" stroke-linecap="round"/>
  <line x1="183.38477631085024" y1="53.384776310850235" x2="189.74873734152916" y2="59.748737341529164" stroke="#FFF3B0" stroke-width="3" stroke-linecap="round"/>
  <line x1="165" y1="61" x2="165" y2="70" stroke="#FFF3B0" stroke-width="3" stroke-linecap="round"/>
  <line x1="146.61522368914976" y1="53.38477631085024" x2="140.25126265847084" y2="59.748737341529164" stroke="#FFF3B0" stroke-width="3" stroke-linecap="round"/>
  <line x1="139" y1="35" x2="130" y2="35.00000000000001" stroke="#FFF3B0" stroke-width="3" stroke-linecap="round"/>
  <line x1="146.61522368914976" y1="16.615223689149765" x2="140.25126265847084" y2="10.25126265847084" stroke="#FFF3B0" stroke-width="3" stroke-linecap="round"/>
  <line x1="165" y1="9" x2="165" y2="0" stroke="#FFF3B0" stroke-width="3" stroke-linecap="round"/>
  <line x1="183.38477631085024" y1="16.61522368914976" x2="189.74873734152916" y2="10.251262658470832" stroke="#FFF3B0" stroke-width="3" stroke-linecap="round"/>
  <rect x="90" y="55" width="14" height="50" rx="2" fill="#8B6914"/>
  <path d="M78.63425130490214,41.59948410057768 Q88.63425130490214,53.59948410057768 78.63425130490214,65.59948410057768 Q68.63425130490214,53.59948410057768 78.63425130490214,41.59948410057768Z" fill="#B7E4C7"/>
  <path d="M87.57270161129054,28.5739336343413 Q97.57270161129054,40.5739336343413 87.57270161129054,52.5739336343413 Q77.57270161129054,40.5739336343413 87.57270161129054,28.5739336343413Z" fill="#95D5B2"/>
  <path d="M103.21487581758993,36.58304772013071 Q113.21487581758993,48.58304772013071 103.21487581758993,60.58304772013071 Q93.21487581758993,48.58304772013071 103.21487581758993,36.58304772013071Z" fill="#B7E4C7"/>
  <path d="M113.21751233209943,32.75859640020644 Q123.21751233209943,44.75859640020644 113.21751233209943,56.75859640020644 Q103.21751233209943,44.75859640020644 113.21751233209943,32.75859640020644Z" fill="#95D5B2"/>
  <path d="M124.94819536293653,30.608691136210837 Q134.94819536293653,42.60869113621084 124.94819536293653,54.60869113621084 Q114.94819536293653,42.60869113621084 124.94819536293653,30.608691136210837Z" fill="#B7E4C7"/>
  <circle cx="45" cy="95" r="8" fill="#FFB3B3" opacity="1"/>
  <circle cx="155" cy="98" r="6" fill="#C9B8E8" opacity="1"/>
</svg>