<svg xmlns="http://www.w3.org/2000/svg" viewBox="0 0 200 150" width="200" height="150">
  <defs>
    <linearGradient id="bg7909" gradientTransform="rotate(90)">
      <stop offset="0%" style="stop-color:#D8F3DC"/>
      <stop offset="100%" style="stop-color:#B7E4C7"/>
    </linearGradient>
  </defs>
  <rect width="200" height="150" fill="url(#bg7909)" rx="16"/>
  <circle cx="100.53992271932657" cy="93.37401916759518" r="2.0407464624665863" fill="#D8F3DC" opacity="0.3"/><circle cx="50.708269698225195" cy="141.14588908710175" r="3.497887154628188" fill="#D8F3DC" opacity="0.3"/><circle cx="22.35526148324425" cy="149.83528024704356" r="2.831143546509338" fill="#D8F3DC" opacity="0.3"/><circle cx="123.76656950254983" cy="7.19271698517332" r="4.506201304951219" fill="#D8F3DC" opacity="0.3"/><circle cx="133.51030164958502" cy="5.583370984504654" r="2.009130115557582" fill="#D8F3DC" opacity="0.3"/><circle cx="84.71044271464052" cy="44.16175816540999" r="2.2627774747807052" fill="#D8F3DC" opacity="0.3"/>
  <path d="M55 45 L55 115 L100 125 L145 115 L145 45 L125 40 L100 48 L75 40 Z" fill="#B7E4C7"/>
  <rect x="80" y="70" width="40" height="40" rx="5" fill="#D8F3DC"/>
  <rect x="85" y="75" width="30" height="30" rx="3" fill="#95D5B2"/>
  <rect x="90" y="62" width="5" height="20" rx="1" fill="#8B4513"/>
  <circle cx="92.5" cy="58" r="7" fill="#B7E4C7" opacity="1"/>
  <polygon points="45,25 49.40838939219355,33.93237254218789 59.265847744427305,35.36474508437579 52.13292387221365,42.31762745781211 53.8167787843871,52.135254915624216 45,47.5 36.1832212156129,52.135254915624216 37.86707612778635,42.31762745781211 30.734152255572695,35.364745084375784 40.59161060780645,33.93237254218789" fill="#FFE566"/>
  <polygon points="160,32 163.82060413990106,39.74138953656284 172.363734711837,40.982779073125684 166.18186735591848,47.00861046343716 167.64120827980216,55.517220926874316 160,51.5 152.35879172019784,55.517220926874316 153.81813264408152,47.00861046343716 147.636265288163,40.98277907312568 156.17939586009894,39.74138953656284" fill="#FFF3B0"/>
  <polygon points="100,15 102.93892626146237,20.954915028125264 109.51056516295154,21.909830056250527 104.75528258147577,26.545084971874736 105.87785252292473,33.09016994374947 100,30 94.12214747707527,33.09016994374947 95.24471741852423,26.545084971874736 90.48943483704846,21.909830056250524 97.06107373853763,20.954915028125264" fill="#FFB3B3"/>
</svg>