<svg xmlns="http://www.w3.org/2000/svg" viewBox="0 0 200 150" width="200" height="150">
  <defs>
    <linearGradient id="bg79102" gradientTransform="rotate(90)">
      <stop offset="0%" style="stop-color:#F0F7FF"/>
      <stop offset="100%" style="stop-color:#DCE8F5"/>
    </linearGradient>
  </defs>
  <rect width="200" height="150" fill="url(#bg79102)" rx="16"/>
  <circle cx="149.85484459830332" cy="24.234046713081625" r="4.2746664543919906" fill="#F0F7FF" opacity="0.3"/><circle cx="40.391453005577205" cy="43.46890300294035" r="3.7747809052148114" fill="#F0F7FF" opacity="0.3"/><circle cx="65.85039213396158" cy="101.70654093722078" r="3.5860509238609666" fill="#F0F7FF" opacity="0.3"/><circle cx="25.94428210359183" cy="27.657737215486122" r="3.937204145650412" fill="#F0F7FF" opacity="0.3"/><circle cx="21.572098020192243" cy="19.364106653426916" r="3.0225600460644273" fill="#F0F7FF" opacity="0.3"/><circle cx="113.79650252638385" cy="41.74688817156493" r="3.2653632476030907" fill="#F0F7FF" opacity="0.3"/>
  <circle cx="100" cy="75" r="48" fill="#FFE5D9" opacity="1"/>
  <circle cx="80" cy="68" r="8" fill="#333" opacity="1"/>
  <circle cx="120" cy="68" r="8" fill="#333" opacity="1"/>
  <circle cx="78" cy="65" r="3" fill="white" opacity="1"/>
  <circle cx="118" cy="65" r="3" fill="white" opacity="1"/>
  <path d="M72 92 Q100 115 128 92" stroke="#333" stroke-width="4" fill="none" stroke-linecap="round"/>
  <ellipse cx="60" cy="82" rx="12" ry="7" fill="#FFB3B3" opacity="0.4"/>
  <ellipse cx="140" cy="82" rx="12" ry="7" fill="#FFB3B3" opacity="0.4"/>
  <path d="M45,42.25 C39,37 42,34 45,37.75 C48,34 51,37 45,42.25Z" fill="#FFB3B3"/>
  <path d="M160,46.8 C155.2,42.6 157.6,40.2 160,43.2 C162.4,40.2 164.8,42.6 160,46.8Z" fill="#FFD6D6"/>
</svg>