<svg xmlns="http://www.w3.org/2000/svg" viewBox="0 0 200 150" width="200" height="150">
  <defs>
    <linearGradient id="bg7922" gradientTransform="rotate(90)">
      <stop offset="0%" style="stop-color:#E2D9F3"/>
      <stop offset="100%" style="stop-color:#C9B8E8"/>
    </linearGradient>
  </defs>
  <rect width="200" height="150" fill="url(#bg7922)" rx="16"/>
  <circle cx="83.61301696058945" cy="134.82485161089244" r="2.0828316871557035" fill="#E2D9F3" opacity="0.3"/><circle cx="156.50146849375233" cy="70.65936214894464" r="2.2332640960399885" fill="#E2D9F3" opacity="0.3"/><circle cx="56.56602906456101" cy="121.58098085674283" r="3.0009055697237272" fill="#E2D9F3" opacity="0.3"/><circle cx="158.3453486219696" cy="82.01840865722261" r="3.654742928665655" fill="#E2D9F3" opacity="0.3"/><circle cx="27.62010680307867" cy="132.17385775578805" r="4.183402605458468" fill="#E2D9F3" opacity="0.3"/><circle cx="194.21580192138208" cy="20.008747087285883" r="4.910494960048368" fill="#E2D9F3" opacity="0.3"/>
  <circle cx="100" cy="75" r="48" fill="#FFE5D9" opacity="1"/>
  <circle cx="80" cy="68" r="8" fill="#333" opacity="1"/>
  <circle cx="120" cy="68" r="8" fill="#333" opacity="1"/>
  <circle cx="78" cy="65" r="3" fill="white" opacity="1"/>
  <circle cx="118" cy="65" r="3" fill="white" opacity="1"/>
  <path d="M72 92 Q100 115 128 92" stroke="#333" stroke-width="4" fill="none" stroke-linecap="round"/>
  <ellipse cx="60" cy="82" rx="12" ry="7" fill="#FFB3B3" opacity="0.4"/>
  <ellipse cx="140" cy="82" rx="12" ry="7" fill="#FFB3B3" opacity="0.4"/>
  <path d="M45,42.25 C39,37 42,34 45,37.75 C48,34 51,37 45,42.25Z" fill="#FFB3B3"/>
  <path d="M160,46.8 C155.2,42.6 157.6,40.2 160,43.2 C162.4,40.2 164.8,42.6 160,46.8Z" fill="#FFD6D6"/>
</svg>