<svg xmlns="http://www.w3.org/2000/svg" viewBox="0 0 200 150" width="200" height="150">
  <defs>
    <linearGradient id="bg7942" gradientTransform="rotate(90)">
      <stop offset="0%" style="stop-color:#FFE5D9"/>
      <stop offset="100%" style="stop-color:#FFCDB2"/>
    </linearGradient>
  </defs>
  <rect width="200" height="150" fill="url(#bg7942)" rx="16"/>
  <circle cx="52.17114505103382" cy="8.188322351907118" r="2.112722722818944" fill="#FFE5D9" opacity="0.3"/><circle cx="155.7884781886969" cy="65.31579633533511" r="4.631619263695029" fill="#FFE5D9" opacity="0.3"/><circle cx="149.1375218043686" cy="141.9569423917892" r="3.6691495590694103" fill="#FFE5D9" opacity="0.3"/><circle cx="56.61706290911752" cy="47.898463017281756" r="4.6372473867559165" fill="#FFE5D9" opacity="0.3"/><circle cx="7.420876501782914" cy="22.13067935208528" r="4.3475057078612735" fill="#FFE5D9" opacity="0.3"/><circle cx="96.31320452645014" cy="40.4426632765535" r="3.114196558955882" fill="#FFE5D9" opacity="0.3"/>
  <circle cx="100" cy="75" r="48" fill="#FFE5D9" opacity="1"/>
  <circle cx="80" cy="68" r="8" fill="#333" opacity="1"/>
  <circle cx="120" cy="68" r="8" fill="#333" opacity="1"/>
  <circle cx="78" cy="65" r="3" fill="white" opacity="1"/>
  <circle cx="118" cy="65" r="3" fill="white" opacity="1"/>
  <path d="M72 92 Q100 115 128 92" stroke="#333" stroke-width="4" fill="none" stroke-linecap="round"/>
  <ellipse cx="60" cy="82" rx="12" ry="7" fill="#FFB3B3" opacity="0.4"/>
  <ellipse cx="140" cy="82" rx="12" ry="7" fill="#FFB3B3" opacity="0.4"/>
  <path d="M45,42.25 C39,37 42,34 45,37.75 C48,34 51,37 45,42.25Z" fill="#FFB3B3"/>
  <path d="M160,46.8 C155.2,42.6 157.6,40.2 160,43.2 C162.4,40.2 164.8,42.6 160,46.8Z" fill="#FFD6D6"/>
</svg>