<svg xmlns="http://www.w3.org/2000/svg" viewBox="0 0 200 150" width="200" height="150">
  <defs>
    <linearGradient id="bg79708" gradientTransform="rotate(135)">
      <stop offset="0%" style="stop-color:#FFD6D6"/>
      <stop offset="100%" style="stop-color:#FFB3B3"/>
    </linearGradient>
  </defs>
  <rect width="200" height="150" fill="url(#bg79708)" rx="16"/>
  <circle cx="137.03687333236303" cy="30.3709608851932" r="3.97905843305125" fill="#FFD6D6" opacity="0.3"/><circle cx="140.43716818159737" cy="56.16801338915138" r="2.7280806759117695" fill="#FFD6D6" opacity="0.3"/><circle cx="102.53410994519072" cy="95.36886033468477" r="3.1703863060411095" fill="#FFD6D6" opacity="0.3"/><circle cx="194.91041646633676" cy="41.022195161076525" r="3.980469772035576" fill="#FFD6D6" opacity="0.3"/><circle cx="127.48421365940885" cy="55.886552297943126" r="3.8855669450523465" fill="#FFD6D6" opacity="0.3"/><circle cx="90.62656259156938" cy="59.10077631733657" r="4.268247986060487" fill="#FFD6D6" opacity="0.3"/>
  <circle cx="100" cy="75" r="48" fill="#FFE5D9" opacity="1"/>
  <circle cx="80" cy="68" r="8" fill="#333" opacity="1"/>
  <circle cx="120" cy="68" r="8" fill="#333" opacity="1"/>
  <circle cx="78" cy="65" r="3" fill="white" opacity="1"/>
  <circle cx="118" cy="65" r="3" fill="white" opacity="1"/>
  <path d="M72 92 Q100 115 128 92" stroke="#333" stroke-width="4" fill="none" stroke-linecap="round"/>
  <ellipse cx="60" cy="82" rx="12" ry="7" fill="#FFB3B3" opacity="0.4"/>
  <ellipse cx="140" cy="82" rx="12" ry="7" fill="#FFB3B3" opacity="0.4"/>
  <path d="M45,42.25 C39,37 42,34 45,37.75 C48,34 51,37 45,42.25Z" fill="#FFB3B3"/>
  <path d="M160,46.8 C155.2,42.6 157.6,40.2 160,43.2 C162.4,40.2 164.8,42.6 160,46.8Z" fill="#FFD6D6"/>
</svg>