<svg xmlns="http://www.w3.org/2000/svg" viewBox="0 0 200 150" width="200" height="150">
  <defs>
    <linearGradient id="bg7989" gradientTransform="rotate(0)">
      <stop offset="0%" style="stop-color:#FFE5D9"/>
      <stop offset="100%" style="stop-color:#FFCDB2"/>
    </linearGradient>
  </defs>
  <rect width="200" height="150" fill="url(#bg7989)" rx="16"/>
  <circle cx="115.54993154095428" cy="81.56762016124048" r="4.295220763666293" fill="#FFE5D9" opacity="0.3"/><circle cx="150.2044748645858" cy="85.27124966037718" r="2.231845276540298" fill="#FFE5D9" opacity="0.3"/><circle cx="70.04986370830011" cy="25.952637484624574" r="4.787387385526927" fill="#FFE5D9" opacity="0.3"/><circle cx="138.91558816867473" cy="48.30438481599231" r="2.418328903427213" fill="#FFE5D9" opacity="0.3"/><circle cx="162.01784918994235" cy="14.977191454227068" r="3.946567921932342" fill="#FFE5D9" opacity="0.3"/><circle cx="76.42253277481359" cy="114.54924267718525" r="3.2004226986337017" fill="#FFE5D9" opacity="0.3"/>
  <circle cx="100" cy="75" r="45" fill="#FFE5D9" opacity="1"/>
  <circle cx="100" cy="75" r="40" fill="white" opacity="1"/>
  <line x1="100" y1="42" x2="100" y2="52" stroke="#FFB4A2" stroke-width="2"/>
  <line x1="116.5" y1="46.421161675113524" x2="114" y2="50.751288694035715" stroke="#FFB4A2" stroke-width="2"/>
  <line x1="128.57883832488648" y1="58.5" x2="124.24871130596428" y2="61" stroke="#FFB4A2" stroke-width="2"/>
  <line x1="133" y1="75" x2="123" y2="75" stroke="#FFB4A2" stroke-width="2"/>
  <line x1="128.57883832488648" y1="91.5" x2="124.24871130596429" y2="89" stroke="#FFB4A2" stroke-width="2"/>
  <line x1="116.5" y1="103.57883832488648" x2="114" y2="99.24871130596429" stroke="#FFB4A2" stroke-width="2"/>
  <line x1="100" y1="108" x2="100" y2="98" stroke="#FFB4A2" stroke-width="2"/>
  <line x1="83.5" y1="103.57883832488648" x2="86" y2="99.24871130596428" stroke="#FFB4A2" stroke-width="2"/>
  <line x1="71.42116167511352" y1="91.50000000000001" x2="75.75128869403572" y2="89.00000000000001" stroke="#FFB4A2" stroke-width="2"/>
  <line x1="67" y1="75" x2="77" y2="75" stroke="#FFB4A2" stroke-width="2"/>
  <line x1="71.42116167511352" y1="58.5" x2="75.75128869403572" y2="61" stroke="#FFB4A2" stroke-width="2"/>
  <line x1="83.49999999999999" y1="46.42116167511353" x2="85.99999999999999" y2="50.75128869403572" stroke="#FFB4A2" stroke-width="2"/>
  <line x1="100" y1="75" x2="100" y2="55" stroke="#FFB4A2" stroke-width="4" stroke-linecap="round"/>
  <line x1="100" y1="75" x2="118" y2="85" stroke="#FFB3B3" stroke-width="3" stroke-linecap="round"/>
  <circle cx="100" cy="75" r="5" fill="#FFB4A2" opacity="1"/>
  <polygon points="45,33 48.52671151375484,40.14589803375031 56.412678195541844,41.291796067500634 50.70633909777092,46.85410196624969 52.05342302750968,54.70820393249937 45,51 37.94657697249032,54.70820393249937 39.29366090222908,46.85410196624969 33.587321804458156,41.29179606750063 41.47328848624516,40.14589803375031" fill="#FFF3B0"/>
</svg>