<svg xmlns="http://www.w3.org/2000/svg" viewBox="0 0 200 150" width="200" height="150">
  <defs>
    <linearGradient id="bg7999" gradientTransform="rotate(45)">
      <stop offset="0%" style="stop-color:#F0F7FF"/>
      <stop offset="100%" style="stop-color:#DCE8F5"/>
    </linearGradient>
  </defs>
  <rect width="200" height="150" fill="url(#bg7999)" rx="16"/>
  <circle cx="181.93221335241105" cy="10.206011166337703" r="2.8935055241181544" fill="#F0F7FF" opacity="0.3"/><circle cx="118.68119162809307" cy="86.99815416193815" r="2.8221667189609434" fill="#F0F7FF" opacity="0.3"/><circle cx="43.16807220930059" cy="85.16378727890697" r="4.143587885179841" fill="#F0F7FF" opacity="0.3"/><circle cx="70.77789843247047" cy="83.77813362867528" r="4.8406288900150685" fill="#F0F7FF" opacity="0.3"/><circle cx="140.43481367380082" cy="145.37230943924442" r="2.4073500951431015" fill="#F0F7FF" opacity="0.3"/><circle cx="108.64415281830588" cy="94.44293567021305" r="2.7975493098183506" fill="#F0F7FF" opacity="0.3"/>
  <circle cx="100" cy="75" r="45" fill="#F0F7FF" opacity="1"/>
  <circle cx="100" cy="75" r="40" fill="white" opacity="1"/>
  <line x1="100" y1="42" x2="100" y2="52" stroke="#C7D9EB" stroke-width="2"/>
  <line x1="116.5" y1="46.421161675113524" x2="114" y2="50.751288694035715" stroke="#C7D9EB" stroke-width="2"/>
  <line x1="128.57883832488648" y1="58.5" x2="124.24871130596428" y2="61" stroke="#C7D9EB" stroke-width="2"/>
  <line x1="133" y1="75" x2="123" y2="75" stroke="#C7D9EB" stroke-width="2"/>
  <line x1="128.57883832488648" y1="91.5" x2="124.24871130596429" y2="89" stroke="#C7D9EB" stroke-width="2"/>
  <line x1="116.5" y1="103.57883832488648" x2="114" y2="99.24871130596429" stroke="#C7D9EB" stroke-width="2"/>
  <line x1="100" y1="108" x2="100" y2="98" stroke="#C7D9EB" stroke-width="2"/>
  <line x1="83.5" y1="103.57883832488648" x2="86" y2="99.24871130596428" stroke="#C7D9EB" stroke-width="2"/>
  <line x1="71.42116167511352" y1="91.50000000000001" x2="75.75128869403572" y2="89.00000000000001" stroke="#C7D9EB" stroke-width="2"/>
  <line x1="67" y1="75" x2="77" y2="75" stroke="#C7D9EB" stroke-width="2"/>
  <line x1="71.42116167511352" y1="58.5" x2="75.75128869403572" y2="61" stroke="#C7D9EB" stroke-width="2"/>
  <line x1="83.49999999999999" y1="46.42116167511353" x2="85.99999999999999" y2="50.75128869403572" stroke="#C7D9EB" stroke-width="2"/>
  <line x1="100" y1="75" x2="100" y2="55" stroke="#C7D9EB" stroke-width="4" stroke-linecap="round"/>
  <line x1="100" y1="75" x2="118" y2="85" stroke="#FFB3B3" stroke-width="3" stroke-linecap="round"/>
  <circle cx="100" cy="75" r="5" fill="#C7D9EB" opacity="1"/>
  <polygon points="45,33 48.52671151375484,40.14589803375031 56.412678195541844,41.291796067500634 50.70633909777092,46.85410196624969 52.05342302750968,54.70820393249937 45,51 37.94657697249032,54.70820393249937 39.29366090222908,46.85410196624969 33.587321804458156,41.29179606750063 41.47328848624516,40.14589803375031" fill="#FFF3B0"/>
</svg>