<svg xmlns="http://www.w3.org/2000/svg" viewBox="0 0 200 150" width="200" height="150">
  
    <defs>
      <linearGradient id="bg1236" gradientTransform="rotate(0)">
        <stop offset="0%" style="stop-color:#FFE4EC"/>
        <stop offset="100%" style="stop-color:#FFC8DD"/>
      </linearGradient>
    </defs>
    <rect width="200" height="150" fill="url(#bg1236)" rx="16"/>
  
  <g>
      <ellipse cx="67.86628155310609" cy="94.20688934431018" rx="9.471259562873456" ry="5.91953722679591" fill="#FFAFCC"/>
      <rect x="73.785818779902" y="65.79311065568982" width="2.8413778688620366" height="28.41377868862037" fill="#FFAFCC"/>
      <path d="M76.62719664876404 65.79311065568982 Q86.808800678853 72.89655532784491 76.62719664876404 77.63218510928164" stroke="#FFAFCC" stroke-width="2.367814890718364" fill="none"/>
    </g>
  <g>
      <ellipse cx="107.20642657493954" cy="73.86926196809873" rx="9.246174645399151" ry="5.778859153374469" fill="#FFC8DD"/>
      <rect x="112.98528572831401" y="46.130738031901274" width="2.773852393619745" height="27.738523936197453" fill="#FFC8DD"/>
      <path d="M115.75913812193376 46.130738031901274 Q125.69877586573784 53.06536901595064 115.75913812193376 57.68845633865021" stroke="#FFC8DD" stroke-width="2.3115436613497877" fill="none"/>
    </g>
  <g>
      <ellipse cx="145.91057338022438" cy="90.48284842898647" rx="10.321898952657648" ry="6.45118684541103" fill="#FFAFCC"/>
      <rect x="152.3617602256354" y="59.51715157101353" width="3.096569685797294" height="30.965696857972944" fill="#FFAFCC"/>
      <path d="M155.4583299114327 59.51715157101353 Q166.55437128553967 67.25857578550676 155.4583299114327 72.41952526183559" stroke="#FFAFCC" stroke-width="2.580474738164412" fill="none"/>
    </g>
  <path d="M34.47371575070065 60 Q44.47371575070065 55 34.47371575070065 50" stroke="#FFE566" stroke-width="2" fill="none" opacity="0.8"/>
  <path d="M36.155821085249045 75 Q46.155821085249045 70 36.155821085249045 65" stroke="#FFE566" stroke-width="2" fill="none" opacity="0.6000000000000001"/>
  <path d="M38.8608712790483 90 Q48.8608712790483 85 38.8608712790483 80" stroke="#FFE566" stroke-width="2" fill="none" opacity="0.4"/>
  <g>
      <polygon points="140.88062502123648,32 142.08062502123647,38.8 148.88062502123648,40 142.08062502123647,41.2 140.88062502123648,48 139.6806250212365,41.2 132.88062502123648,40 139.6806250212365,38.8" fill="#FFF3B0"/>
    </g>
</svg>