<svg xmlns="http://www.w3.org/2000/svg" viewBox="0 0 200 150" width="200" height="150">
  
    <defs>
      <linearGradient id="bg314" gradientTransform="rotate(90)">
        <stop offset="0%" style="stop-color:#FFE5D9"/>
        <stop offset="100%" style="stop-color:#FFCDB2"/>
      </linearGradient>
    </defs>
    <rect width="200" height="150" fill="url(#bg314)" rx="16"/>
  
  <g>
      <rect x="77.10280968527854" y="86.7711802507547" width="51.42768865257722" height="51.42768865257722" rx="4" fill="#FFB3B3" stroke="#B7E4C7" stroke-width="2"/>
      <rect x="84.81696298316513" y="94.48533354864128" width="15.428306595773165" height="15.428306595773165" rx="2" fill="#B7E4C7" opacity="0.3"/>
    </g>
  <g>
      <rect x="78.15852132656937" y="63.529023384457105" width="46.671905811828765" height="46.671905811828765" rx="4" fill="#B7E4C7" stroke="#C9B8E8" stroke-width="2"/>
      <rect x="85.15930719834368" y="70.52980925623142" width="14.001571743548629" height="14.001571743548629" rx="2" fill="#C9B8E8" opacity="0.3"/>
    </g>
  <g>
      <rect x="84.13879477503815" y="38.04049058072633" width="34.27077209396339" height="34.27077209396339" rx="4" fill="#C9B8E8" stroke="#FFE566" stroke-width="2"/>
      <rect x="89.27941058913265" y="43.18110639482084" width="10.281231628189015" height="10.281231628189015" rx="2" fill="#FFE566" opacity="0.3"/>
    </g>
  <g>
      <rect x="87.55161484416203" y="15.98954382948068" width="28.249176266941504" height="28.249176266941504" rx="4" fill="#FFE566" stroke="#A8D0F0" stroke-width="2"/>
      <rect x="91.78899128420326" y="20.226920269521905" width="8.47475288008245" height="8.47475288008245" rx="2" fill="#A8D0F0" opacity="0.3"/>
    </g>
  <polygon points="52.48949650209397,35 55.428422763556334,40.954915028125264 62.00006166504551,41.90983005625053 57.24477908356974,46.545084971874736 58.367349025018704,53.09016994374947 52.48949650209397,50 46.611643979169244,53.09016994374947 47.7342139206182,46.545084971874736 42.978931339142434,41.90983005625052 49.55057024063161,40.954915028125264" fill="#FFF3B0"/>
  <polygon points="142.39559946148802,47 144.7467404706579,51.763932022500214 150.00405159184925,52.52786404500042 146.19982552666863,56.236067977499786 147.0978814798278,61.47213595499958 142.39559946148802,59 137.69331744314823,61.47213595499958 138.5913733963074,56.23606797749979 134.7871473311268,52.52786404500042 140.04445845231814,51.763932022500214" fill="#FFE566"/>
</svg>