<svg xmlns="http://www.w3.org/2000/svg" viewBox="0 0 200 150" width="200" height="150">
  
    <defs>
      <linearGradient id="bg3140" gradientTransform="rotate(0)">
        <stop offset="0%" style="stop-color:#FFF3B0"/>
        <stop offset="100%" style="stop-color:#FFE566"/>
      </linearGradient>
    </defs>
    <rect width="200" height="150" fill="url(#bg3140)" rx="16"/>
  
  <rect x="0" y="105" width="200" height="50" rx="0" fill="#C5DBC5" opacity="1"/>
  <rect x="109.24738135261578" y="60" width="12" height="50" rx="2" fill="#8B6914" opacity="1"/>
  <path d="M131.15173782546628,63.50323116125372 Q143.8337598194674,79.35575865375512 131.15173782546628,95.20828614625651 Q118.46971583146517,79.35575865375512 131.15173782546628,63.50323116125372Z" fill="#B7E4C7" transform="rotate(-62.41736521704297 131.15173782546628 79.35575865375512)"/>
  <path d="M137.88977570925607,43.946973845161295 Q154.61038539894625,64.84773595727401 137.88977570925607,85.74849806938673 Q121.16916601956589,64.84773595727401 137.88977570925607,43.946973845161295Z" fill="#A3C4A3" transform="rotate(-28.530972613843915 137.88977570925607 64.84773595727401)"/>
  <path d="M148.02643416619873,33.67523826466512 Q164.44190154728028,54.19457249101705 148.02643416619873,74.71390671736899 Q131.61096678511717,54.19457249101705 148.02643416619873,33.67523826466512Z" fill="#95D5B2" transform="rotate(1.7592444664114737 148.02643416619873 54.19457249101705)"/>
  <path d="M144.68105730716022,23.03342524787454 Q160.155531654364,42.376518181879284 144.68105730716022,61.71961111588403 Q129.20658295995642,42.376518181879284 144.68105730716022,23.03342524787454Z" fill="#B7E4C7" transform="rotate(28.195696442844564 144.68105730716022 42.376518181879284)"/>
  <path d="M127.52827233515856,6.619651564833333 Q145.53092066144748,29.12296197269447 127.52827233515856,51.626272380555605 Q109.52562400886966,29.12296197269447 127.52827233515856,6.619651564833333Z" fill="#A3C4A3" transform="rotate(69.20977569156094 127.52827233515856 29.12296197269447)"/>
  <circle cx="160" cy="35" r="18" fill="#FFE566" opacity="1"/>
  <line x1="182" y1="35" x2="190" y2="35" stroke="#FFF3B0" stroke-width="3" stroke-linecap="round"/>
  <line x1="175.55634918610406" y1="50.55634918610404" x2="181.21320343559643" y2="56.21320343559643" stroke="#FFF3B0" stroke-width="3" stroke-linecap="round"/>
  <line x1="160" y1="57" x2="160" y2="65" stroke="#FFF3B0" stroke-width="3" stroke-linecap="round"/>
  <line x1="144.44365081389594" y1="50.55634918610404" x2="138.78679656440357" y2="56.21320343559643" stroke="#FFF3B0" stroke-width="3" stroke-linecap="round"/>
  <line x1="138" y1="35" x2="130" y2="35.00000000000001" stroke="#FFF3B0" stroke-width="3" stroke-linecap="round"/>
  <line x1="144.44365081389594" y1="19.443650813895957" x2="138.78679656440357" y2="13.786796564403577" stroke="#FFF3B0" stroke-width="3" stroke-linecap="round"/>
  <line x1="160" y1="13" x2="160" y2="5" stroke="#FFF3B0" stroke-width="3" stroke-linecap="round"/>
  <line x1="175.55634918610403" y1="19.44365081389595" x2="181.21320343559643" y2="13.78679656440357" stroke="#FFF3B0" stroke-width="3" stroke-linecap="round"/>
  <g>
      <ellipse cx="49.8" cy="95" rx="3" ry="4.199999999999999" fill="#FFB3B3" transform="rotate(0 49.8 95)"/><ellipse cx="47.4" cy="99.15692193816531" rx="3" ry="4.199999999999999" fill="#FFB3B3" transform="rotate(60 47.4 99.15692193816531)"/><ellipse cx="42.6" cy="99.15692193816531" rx="3" ry="4.199999999999999" fill="#FFB3B3" transform="rotate(120 42.6 99.15692193816531)"/><ellipse cx="40.2" cy="95" rx="3" ry="4.199999999999999" fill="#FFB3B3" transform="rotate(180 40.2 95)"/><ellipse cx="42.599999999999994" cy="90.84307806183469" rx="3" ry="4.199999999999999" fill="#FFB3B3" transform="rotate(240 42.599999999999994 90.84307806183469)"/><ellipse cx="47.4" cy="90.84307806183469" rx="3" ry="4.199999999999999" fill="#FFB3B3" transform="rotate(300 47.4 90.84307806183469)"/>
      <circle cx="45" cy="95" r="2.4000000000000004" fill="#FFE566"/>
    </g>
  <g>
      <ellipse cx="159" cy="100" rx="2.5" ry="3.5" fill="#C9B8E8" transform="rotate(0 159 100)"/><ellipse cx="157" cy="103.46410161513775" rx="2.5" ry="3.5" fill="#C9B8E8" transform="rotate(60 157 103.46410161513775)"/><ellipse cx="153" cy="103.46410161513775" rx="2.5" ry="3.5" fill="#C9B8E8" transform="rotate(120 153 103.46410161513775)"/><ellipse cx="151" cy="100" rx="2.5" ry="3.5" fill="#C9B8E8" transform="rotate(180 151 100)"/><ellipse cx="153" cy="96.53589838486225" rx="2.5" ry="3.5" fill="#C9B8E8" transform="rotate(240 153 96.53589838486225)"/><ellipse cx="157" cy="96.53589838486225" rx="2.5" ry="3.5" fill="#C9B8E8" transform="rotate(300 157 96.53589838486225)"/>
      <circle cx="155" cy="100" r="2" fill="#FFF3B0"/>
    </g>
</svg>