<svg xmlns="http://www.w3.org/2000/svg" viewBox="0 0 200 150" width="200" height="150">
  
    <defs>
      <linearGradient id="bg3150" gradientTransform="rotate(0)">
        <stop offset="0%" style="stop-color:#D0F0F0"/>
        <stop offset="100%" style="stop-color:#A0E0E0"/>
      </linearGradient>
    </defs>
    <rect width="200" height="150" fill="url(#bg3150)" rx="16"/>
  
  <rect x="0" y="105" width="200" height="50" rx="0" fill="#C5DBC5" opacity="1"/>
  <rect x="93.67952216922731" y="60" width="12" height="50" rx="2" fill="#8B6914" opacity="1"/>
  <path d="M114.05865675014995,51.30285969773428 Q131.0424410245809,72.53259004077296 114.05865675014995,93.76232038381164 Q97.074872475719,72.53259004077296 114.05865675014995,51.30285969773428Z" fill="#B7E4C7" transform="rotate(-56.73071911867737 114.05865675014995 72.53259004077296)"/>
  <path d="M124.23521052102558,41.95666702378949 Q142.26474478481802,64.49358485353005 124.23521052102558,87.03050268327061 Q106.20567625723314,64.49358485353005 124.23521052102558,41.95666702378949Z" fill="#A3C4A3" transform="rotate(-25.792997020071198 124.23521052102558 64.49358485353005)"/>
  <path d="M132.13634222281053,39.892161332123166 Q146.65787566331218,58.04407813275024 132.13634222281053,76.19599493337732 Q117.61480878230887,58.04407813275024 132.13634222281053,39.892161332123166Z" fill="#95D5B2" transform="rotate(-6.68658772323397 132.13634222281053 58.04407813275024)"/>
  <path d="M129.71020509472834,26.236759087727513 Q144.33149503064593,44.513371507624505 129.71020509472834,62.7899839275215 Q115.08891515881075,44.513371507624505 129.71020509472834,26.236759087727513Z" fill="#B7E4C7" transform="rotate(23.58109694550876 129.71020509472834 44.513371507624505)"/>
  <path d="M113.27612215423858,15.222170906021702 Q129.14125763996407,35.05359026317855 113.27612215423858,54.885009620335396 Q97.4109866685131,35.05359026317855 113.27612215423858,15.222170906021702Z" fill="#A3C4A3" transform="rotate(61.395252026118214 113.27612215423858 35.05359026317855)"/>
  <circle cx="160" cy="35" r="18" fill="#FFE566" opacity="1"/>
  <line x1="182" y1="35" x2="190" y2="35" stroke="#FFF3B0" stroke-width="3" stroke-linecap="round"/>
  <line x1="175.55634918610406" y1="50.55634918610404" x2="181.21320343559643" y2="56.21320343559643" stroke="#FFF3B0" stroke-width="3" stroke-linecap="round"/>
  <line x1="160" y1="57" x2="160" y2="65" stroke="#FFF3B0" stroke-width="3" stroke-linecap="round"/>
  <line x1="144.44365081389594" y1="50.55634918610404" x2="138.78679656440357" y2="56.21320343559643" stroke="#FFF3B0" stroke-width="3" stroke-linecap="round"/>
  <line x1="138" y1="35" x2="130" y2="35.00000000000001" stroke="#FFF3B0" stroke-width="3" stroke-linecap="round"/>
  <line x1="144.44365081389594" y1="19.443650813895957" x2="138.78679656440357" y2="13.786796564403577" stroke="#FFF3B0" stroke-width="3" stroke-linecap="round"/>
  <line x1="160" y1="13" x2="160" y2="5" stroke="#FFF3B0" stroke-width="3" stroke-linecap="round"/>
  <line x1="175.55634918610403" y1="19.44365081389595" x2="181.21320343559643" y2="13.78679656440357" stroke="#FFF3B0" stroke-width="3" stroke-linecap="round"/>
  <g>
      <ellipse cx="49.8" cy="95" rx="3" ry="4.199999999999999" fill="#FFB3B3" transform="rotate(0 49.8 95)"/><ellipse cx="47.4" cy="99.15692193816531" rx="3" ry="4.199999999999999" fill="#FFB3B3" transform="rotate(60 47.4 99.15692193816531)"/><ellipse cx="42.6" cy="99.15692193816531" rx="3" ry="4.199999999999999" fill="#FFB3B3" transform="rotate(120 42.6 99.15692193816531)"/><ellipse cx="40.2" cy="95" rx="3" ry="4.199999999999999" fill="#FFB3B3" transform="rotate(180 40.2 95)"/><ellipse cx="42.599999999999994" cy="90.84307806183469" rx="3" ry="4.199999999999999" fill="#FFB3B3" transform="rotate(240 42.599999999999994 90.84307806183469)"/><ellipse cx="47.4" cy="90.84307806183469" rx="3" ry="4.199999999999999" fill="#FFB3B3" transform="rotate(300 47.4 90.84307806183469)"/>
      <circle cx="45" cy="95" r="2.4000000000000004" fill="#FFE566"/>
    </g>
  <g>
      <ellipse cx="159" cy="100" rx="2.5" ry="3.5" fill="#C9B8E8" transform="rotate(0 159 100)"/><ellipse cx="157" cy="103.46410161513775" rx="2.5" ry="3.5" fill="#C9B8E8" transform="rotate(60 157 103.46410161513775)"/><ellipse cx="153" cy="103.46410161513775" rx="2.5" ry="3.5" fill="#C9B8E8" transform="rotate(120 153 103.46410161513775)"/><ellipse cx="151" cy="100" rx="2.5" ry="3.5" fill="#C9B8E8" transform="rotate(180 151 100)"/><ellipse cx="153" cy="96.53589838486225" rx="2.5" ry="3.5" fill="#C9B8E8" transform="rotate(240 153 96.53589838486225)"/><ellipse cx="157" cy="96.53589838486225" rx="2.5" ry="3.5" fill="#C9B8E8" transform="rotate(300 157 96.53589838486225)"/>
      <circle cx="155" cy="100" r="2" fill="#FFF3B0"/>
    </g>
</svg>