<svg xmlns="http://www.w3.org/2000/svg" viewBox="0 0 200 150" width="200" height="150">
  
    <defs>
      <linearGradient id="bg4" gradientTransform="rotate(0)">
        <stop offset="0%" style="stop-color:#E0F4FF"/>
        <stop offset="100%" style="stop-color:#BAE6FD"/>
      </linearGradient>
    </defs>
    <rect width="200" height="150" fill="url(#bg4)" rx="16"/>
  
  <rect x="40.26238091543746" y="76.84996641676662" width="30" height="38.15003358323338" rx="4" fill="#B7E4C7" opacity="1"/>
  <ellipse cx="55.26238091543746" cy="76.84996641676662" rx="15" ry="5" fill="#B7E4C7" opacity="1"/>
  <path d="M55.26238091543746,54.84996641676662 Q62.26238091543746,67.84996641676662 55.26238091543746,71.84996641676662 Q48.26238091543746,67.84996641676662 55.26238091543746,54.84996641676662Z" fill="#B7E4C7"/>
  <rect x="96.3994091940367" y="68.0392489028327" width="30" height="46.960751097167304" rx="4" fill="#FFB3B3" opacity="1"/>
  <ellipse cx="111.3994091940367" cy="68.0392489028327" rx="15" ry="5" fill="#FFB3B3" opacity="1"/>
  <path d="M111.3994091940367,46.039248902832696 Q118.3994091940367,59.039248902832696 111.3994091940367,63.039248902832696 Q104.3994091940367,59.039248902832696 111.3994091940367,46.039248902832696Z" fill="#FFB3B3"/>
  <rect x="147.18503469449843" y="72.83509412781768" width="30" height="42.16490587218232" rx="4" fill="#A8D0F0" opacity="1"/>
  <ellipse cx="162.18503469449843" cy="72.83509412781768" rx="15" ry="5" fill="#A8D0F0" opacity="1"/>
  <path d="M162.18503469449843,50.83509412781768 Q169.18503469449843,63.83509412781768 162.18503469449843,67.83509412781768 Q155.18503469449843,63.83509412781768 162.18503469449843,50.83509412781768Z" fill="#A8D0F0"/>
  <circle cx="130.77719933095068" cy="52.688812524820605" r="11.418696580092728" fill="#A8D0F0" opacity="0.6"/>
  <circle cx="165.45154539071518" cy="45.95135466761349" r="7.363349313280196" fill="#A8D0F0" opacity="0.6"/>
  <circle cx="87.99394988323911" cy="46.48541052155451" r="6.104084384704038" fill="#A8D0F0" opacity="0.6"/>
  <circle cx="159.73800436312558" cy="35.56887201969403" r="4.19631243337426" fill="#B7E4C7" opacity="0.6"/>
  <circle cx="47.40090715276892" cy="45.5418268464382" r="8.012085489306628" fill="#FFB3B3" opacity="0.6"/>
  <rect x="155" y="50" width="8" height="40" rx="2" fill="#8B4513" opacity="1"/>
  <rect x="153" y="85" width="12" height="20" rx="3" fill="#B7E4C7" opacity="1"/>
</svg>