<svg xmlns="http://www.w3.org/2000/svg" viewBox="0 0 200 150" width="200" height="150">
  
    <defs>
      <linearGradient id="bg42496" gradientTransform="rotate(90)">
        <stop offset="0%" style="stop-color:#E0F4FF"/>
        <stop offset="100%" style="stop-color:#BAE6FD"/>
      </linearGradient>
    </defs>
    <rect width="200" height="150" fill="url(#bg42496)" rx="16"/>
  
  <path d="M60 50 L60 110 L100 120 L140 110 L140 50 L120 45 L100 50 L80 45 Z" fill="#BAE6FD"/>
  <rect x="85" y="70" width="30" height="35" rx="4" fill="#E0F4FF" opacity="1"/>
  <rect x="90" y="75" width="20" height="25" rx="3" fill="#7DD3FC"/>
  <rect x="95" y="65" width="4" height="15" rx="1" fill="#8B4513" opacity="1"/>
  <circle cx="97" cy="62" r="6" fill="#B7E4C7" opacity="1"/>
  <polygon points="50,33 53.52671151375484,40.14589803375031 61.412678195541844,41.291796067500634 55.70633909777092,46.85410196624969 57.05342302750968,54.70820393249937 50,51 42.94657697249032,54.70820393249937 44.29366090222908,46.85410196624969 38.587321804458156,41.29179606750063 46.47328848624516,40.14589803375031" fill="#FFE566"/>
  <polygon points="155,40 157.93892626146237,45.954915028125264 164.51056516295154,46.90983005625053 159.75528258147577,51.545084971874736 160.87785252292474,58.09016994374947 155,55 149.12214747707526,58.09016994374947 150.24471741852423,51.545084971874736 145.48943483704846,46.90983005625052 152.06107373853763,45.954915028125264" fill="#FFF3B0"/>
  <polygon points="100,22 102.3511410091699,26.76393202250021 107.60845213036123,27.52786404500042 103.80422606518061,31.23606797749979 104.70228201833979,36.47213595499958 100,34 95.29771798166021,36.47213595499958 96.19577393481939,31.23606797749979 92.39154786963877,27.527864045000417 97.6488589908301,26.76393202250021" fill="#FFE566"/>
</svg>