<svg xmlns="http://www.w3.org/2000/svg" viewBox="0 0 200 150" width="200" height="150">
  
    <defs>
      <linearGradient id="bg4433" gradientTransform="rotate(45)">
        <stop offset="0%" style="stop-color:#FFF3B0"/>
        <stop offset="100%" style="stop-color:#FFE566"/>
      </linearGradient>
    </defs>
    <rect width="200" height="150" fill="url(#bg4433)" rx="16"/>
  
  <g>
      <ellipse cx="100" cy="98.5" rx="36" ry="11.25" fill="#FFD93D"/>
      <path d="M68.5 85 Q68.5 112 100 112 Q131.5 112 131.5 85" fill="#FFD93D"/>
      <ellipse cx="100" cy="85" rx="27" ry="6.75" fill="#A8D0F0"/>
    </g>
  <polygon points="100,57 102.3511410091699,61.763932022500214 107.60845213036123,62.52786404500042 103.80422606518061,66.23606797749979 104.70228201833979,71.47213595499957 100,69 95.29771798166021,71.47213595499957 96.19577393481939,66.23606797749979 92.39154786963877,62.52786404500042 97.6488589908301,61.763932022500214" fill="#FFB3B3"/>
  <circle cx="126.0692774011477" cy="75" r="8.025343113382405" fill="#FFE566" opacity="1"/>
  <path d="M69.32279167733213,37 Q74.92279167733213,47.4 69.32279167733213,50.6 Q63.72279167733213,47.4 69.32279167733213,37Z" fill="#A8D0F0"/>
  <path d="M127.03019720582233,44 Q131.23019720582232,51.8 127.03019720582233,54.2 Q122.83019720582233,51.8 127.03019720582233,44Z" fill="#D4E9FF"/>
</svg>