<svg xmlns="http://www.w3.org/2000/svg" viewBox="0 0 200 150" width="200" height="150">
  
    <defs>
      <linearGradient id="bg5011" gradientTransform="rotate(45)">
        <stop offset="0%" style="stop-color:#D0F0F0"/>
        <stop offset="100%" style="stop-color:#A0E0E0"/>
      </linearGradient>
    </defs>
    <rect width="200" height="150" fill="url(#bg5011)" rx="16"/>
  
  <rect x="40" y="70" width="120" height="50" rx="8" fill="#C9B8E8"/>
  <rect x="50" y="60" width="80" height="20" rx="8" fill="white"/>
  <rect x="45" y="85" width="110" height="30" rx="6" fill="#A0E0E0"/>
  <path d="M150 25 A20 20 0 1 1 170 45 A15 15 0 1 0 150 25" fill="#FFE566"/>
  <polygon points="55.88437463620721,23.158367538153016 57.823573516410185,27.08761363924382 62.15975403443551,27.717697550334563 59.02206433532136,30.776189102062425 59.76277239661316,35.09484847597177 55.88437463620721,33.0558541081532 52.00597687580127,35.09484847597177 52.746684937093065,30.776189102062425 49.60899523797892,27.71769755033456 53.94517575600424,27.08761363924382" fill="#FFF3B0"/>
  <polygon points="87.58182161771401,22.631602327210025 89.90615745179922,27.34122113265662 95.10353037935239,28.096443625810842 91.3426759985332,31.76237061478674 92.2304932858844,36.93874259007108 87.58182161771401,34.49479126408715 82.93314994954362,36.93874259007108 83.82096723689483,31.76237061478674 80.06011285607563,28.096443625810842 85.25748578362881,27.34122113265662" fill="#FFF3B0"/>
  <polygon points="70.69891488605208,29.751308602708377 73.15963393280816,34.73726998039553 78.66196899488324,35.53680606558205 74.68044194046766,39.41783574877348 75.62035297956425,44.897937602337926 70.69891488605208,42.31058448021031 65.77747679253991,44.897937602337926 66.7173878316365,39.41783574877348 62.735860777220914,35.53680606558204 68.238195839296,34.73726998039553" fill="#FFF3B0"/>
  <polygon points="91.98345501667063,32.83924611213024 93.55408591405978,36.02169191117749 97.06612336818343,36.53202082525119 94.52478919242704,39.009209410490406 95.12471681144893,42.50705582387703 91.98345501667063,40.85559676705088 88.84219322189233,42.50705582387703 89.44212084091423,39.009209410490406 86.90078666515784,36.53202082525119 90.41282411928148,36.02169191117749" fill="#FFF3B0"/>
  <text x="165" y="70" fill="#70D0D0" font-size="14" font-weight="bold">z</text>
  <text x="172" y="60" fill="#70D0D0" font-size="12" font-weight="bold">z</text>
  <text x="178" y="52" fill="#70D0D0" font-size="10" font-weight="bold">z</text>
</svg>