<svg xmlns="http://www.w3.org/2000/svg" viewBox="0 0 200 150" width="200" height="150">
  
    <defs>
      <linearGradient id="bg5020" gradientTransform="rotate(45)">
        <stop offset="0%" style="stop-color:#FFF3B0"/>
        <stop offset="100%" style="stop-color:#FFE566"/>
      </linearGradient>
    </defs>
    <rect width="200" height="150" fill="url(#bg5020)" rx="16"/>
  
  <g>
      <rect x="70.02918759376371" y="84.79673499405908" width="58.883269523958006" height="58.883269523958006" rx="4" fill="#B7E4C7" stroke="#FFE566" stroke-width="2"/>
      <rect x="78.86167802235741" y="93.62922542265278" width="17.664980857187402" height="17.664980857187402" rx="2" fill="#FFE566" opacity="0.3"/>
    </g>
  <g>
      <rect x="78.76408191078008" y="62.18671965458634" width="46.64770397233224" height="46.64770397233224" rx="4" fill="#FFE566" stroke="#FFB3B3" stroke-width="2"/>
      <rect x="85.76123750662991" y="69.18387525043617" width="13.994311191699671" height="13.994311191699671" rx="2" fill="#FFB3B3" opacity="0.3"/>
    </g>
  <g>
      <rect x="81.82326395725613" y="37.27173970471631" width="42.76133566665885" height="42.76133566665885" rx="4" fill="#FFB3B3" stroke="#C9B8E8" stroke-width="2"/>
      <rect x="88.23746430725495" y="43.68594005471514" width="12.828400699997655" height="12.828400699997655" rx="2" fill="#C9B8E8" opacity="0.3"/>
    </g>
  <g>
      <rect x="83.56615471945315" y="11.882580797435367" width="28.287713945706855" height="28.287713945706855" rx="4" fill="#C9B8E8" stroke="#A8D0F0" stroke-width="2"/>
      <rect x="87.80931181130919" y="16.125737889291393" width="8.486314183712055" height="8.486314183712055" rx="2" fill="#A8D0F0" opacity="0.3"/>
    </g>
  <polygon points="64.58763438191454,35 67.52656064337691,40.954915028125264 74.09819954486608,41.90983005625053 69.34291696339031,46.545084971874736 70.46548690483927,53.09016994374947 64.58763438191454,50 58.709781858989814,53.09016994374947 59.83235180043877,46.545084971874736 55.077069218963004,41.90983005625052 61.64870812045218,40.954915028125264" fill="#FFF3B0"/>
  <polygon points="148.02510182154947,47 150.37624283071935,51.763932022500214 155.6335539519107,52.52786404500042 151.82932788673008,56.236067977499786 152.72738383988926,61.47213595499958 148.02510182154947,59 143.32281980320968,61.47213595499958 144.22087575636886,56.23606797749979 140.41664969118824,52.52786404500042 145.6739608123796,51.763932022500214" fill="#FFE566"/>
</svg>