<svg xmlns="http://www.w3.org/2000/svg" viewBox="0 0 200 150" width="200" height="150">
  
    <defs>
      <linearGradient id="bg5122" gradientTransform="rotate(45)">
        <stop offset="0%" style="stop-color:#E8F0E8"/>
        <stop offset="100%" style="stop-color:#C5DBC5"/>
      </linearGradient>
    </defs>
    <rect width="200" height="150" fill="url(#bg5122)" rx="16"/>
  
  <rect x="0" y="105" width="200" height="50" rx="0" fill="#C5DBC5" opacity="1"/>
  <rect x="90.574580053908" y="60" width="12" height="50" rx="2" fill="#8B6914" opacity="1"/>
  <path d="M111.70968807384979,55.52188167371796 Q127.69135011616655,75.49895922661389 111.70968807384979,95.47603677950983 Q95.72802603153303,75.49895922661389 111.70968807384979,55.52188167371796Z" fill="#B7E4C7" transform="rotate(-59.43099784053629 111.70968807384979 75.49895922661389)"/>
  <path d="M119.55864177253144,50.783235538243076 Q131.62928510170943,65.87153969971556 119.55864177253144,80.95984386118803 Q107.48799844335346,65.87153969971556 119.55864177253144,50.783235538243076Z" fill="#A3C4A3" transform="rotate(-30.59388347028289 119.55864177253144 65.87153969971556)"/>
  <path d="M130.19795109053544,32.972961204606314 Q148.55600639097563,55.92053033015653 130.19795109053544,78.86809945570675 Q111.83989579009527,55.92053033015653 130.19795109053544,32.972961204606314Z" fill="#95D5B2" transform="rotate(-1.96001790612776 130.19795109053544 55.92053033015653)"/>
  <path d="M128.3767794790741,22.380477813177734 Q145.57749123964072,43.88136751388602 128.3767794790741,65.3822572145943 Q111.17606771850745,43.88136751388602 128.3767794790741,22.380477813177734Z" fill="#B7E4C7" transform="rotate(23.606431348598562 128.3767794790741 43.88136751388602)"/>
  <path d="M115.907582886957,10.263284611817383 Q133.3507215328636,32.06720791920061 115.907582886957,53.87113122658384 Q98.46444424105042,32.06720791920061 115.907582886957,10.263284611817383Z" fill="#A3C4A3" transform="rotate(56.00336803760001 115.907582886957 32.06720791920061)"/>
  <circle cx="160" cy="35" r="18" fill="#FFE566" opacity="1"/>
  <line x1="182" y1="35" x2="190" y2="35" stroke="#FFF3B0" stroke-width="3" stroke-linecap="round"/>
  <line x1="175.55634918610406" y1="50.55634918610404" x2="181.21320343559643" y2="56.21320343559643" stroke="#FFF3B0" stroke-width="3" stroke-linecap="round"/>
  <line x1="160" y1="57" x2="160" y2="65" stroke="#FFF3B0" stroke-width="3" stroke-linecap="round"/>
  <line x1="144.44365081389594" y1="50.55634918610404" x2="138.78679656440357" y2="56.21320343559643" stroke="#FFF3B0" stroke-width="3" stroke-linecap="round"/>
  <line x1="138" y1="35" x2="130" y2="35.00000000000001" stroke="#FFF3B0" stroke-width="3" stroke-linecap="round"/>
  <line x1="144.44365081389594" y1="19.443650813895957" x2="138.78679656440357" y2="13.786796564403577" stroke="#FFF3B0" stroke-width="3" stroke-linecap="round"/>
  <line x1="160" y1="13" x2="160" y2="5" stroke="#FFF3B0" stroke-width="3" stroke-linecap="round"/>
  <line x1="175.55634918610403" y1="19.44365081389595" x2="181.21320343559643" y2="13.78679656440357" stroke="#FFF3B0" stroke-width="3" stroke-linecap="round"/>
  <g>
      <ellipse cx="49.8" cy="95" rx="3" ry="4.199999999999999" fill="#FFB3B3" transform="rotate(0 49.8 95)"/><ellipse cx="47.4" cy="99.15692193816531" rx="3" ry="4.199999999999999" fill="#FFB3B3" transform="rotate(60 47.4 99.15692193816531)"/><ellipse cx="42.6" cy="99.15692193816531" rx="3" ry="4.199999999999999" fill="#FFB3B3" transform="rotate(120 42.6 99.15692193816531)"/><ellipse cx="40.2" cy="95" rx="3" ry="4.199999999999999" fill="#FFB3B3" transform="rotate(180 40.2 95)"/><ellipse cx="42.599999999999994" cy="90.84307806183469" rx="3" ry="4.199999999999999" fill="#FFB3B3" transform="rotate(240 42.599999999999994 90.84307806183469)"/><ellipse cx="47.4" cy="90.84307806183469" rx="3" ry="4.199999999999999" fill="#FFB3B3" transform="rotate(300 47.4 90.84307806183469)"/>
      <circle cx="45" cy="95" r="2.4000000000000004" fill="#FFE566"/>
    </g>
  <g>
      <ellipse cx="159" cy="100" rx="2.5" ry="3.5" fill="#C9B8E8" transform="rotate(0 159 100)"/><ellipse cx="157" cy="103.46410161513775" rx="2.5" ry="3.5" fill="#C9B8E8" transform="rotate(60 157 103.46410161513775)"/><ellipse cx="153" cy="103.46410161513775" rx="2.5" ry="3.5" fill="#C9B8E8" transform="rotate(120 153 103.46410161513775)"/><ellipse cx="151" cy="100" rx="2.5" ry="3.5" fill="#C9B8E8" transform="rotate(180 151 100)"/><ellipse cx="153" cy="96.53589838486225" rx="2.5" ry="3.5" fill="#C9B8E8" transform="rotate(240 153 96.53589838486225)"/><ellipse cx="157" cy="96.53589838486225" rx="2.5" ry="3.5" fill="#C9B8E8" transform="rotate(300 157 96.53589838486225)"/>
      <circle cx="155" cy="100" r="2" fill="#FFF3B0"/>
    </g>
</svg>