<svg xmlns="http://www.w3.org/2000/svg" viewBox="0 0 200 150" width="200" height="150">
  
    <defs>
      <linearGradient id="bg5610" gradientTransform="rotate(45)">
        <stop offset="0%" style="stop-color:#D8F3DC"/>
        <stop offset="100%" style="stop-color:#B7E4C7"/>
      </linearGradient>
    </defs>
    <rect width="200" height="150" fill="url(#bg5610)" rx="16"/>
  
  <g>
      <ellipse cx="100" cy="98.5" rx="36" ry="11.25" fill="#95D5B2"/>
      <path d="M68.5 85 Q68.5 112 100 112 Q131.5 112 131.5 85" fill="#95D5B2"/>
      <ellipse cx="100" cy="85" rx="27" ry="6.75" fill="#D4E9FF"/>
    </g>
  <polygon points="100,57 102.3511410091699,61.763932022500214 107.60845213036123,62.52786404500042 103.80422606518061,66.23606797749979 104.70228201833979,71.47213595499957 100,69 95.29771798166021,71.47213595499957 96.19577393481939,66.23606797749979 92.39154786963877,62.52786404500042 97.6488589908301,61.763932022500214" fill="#FFB3B3"/>
  <circle cx="118.91154344066308" cy="75" r="8.677720037805557" fill="#FFE566" opacity="1"/>
  <path d="M65.25217944596079,37 Q70.85217944596079,47.4 65.25217944596079,50.6 Q59.65217944596079,47.4 65.25217944596079,37Z" fill="#A8D0F0"/>
  <path d="M134.90115191685618,44 Q139.10115191685617,51.8 134.90115191685618,54.2 Q130.7011519168562,51.8 134.90115191685618,44Z" fill="#D4E9FF"/>
</svg>