<svg xmlns="http://www.w3.org/2000/svg" viewBox="0 0 200 150" width="200" height="150">
  
    <defs>
      <linearGradient id="bg5809" gradientTransform="rotate(90)">
        <stop offset="0%" style="stop-color:#FFD6D6"/>
        <stop offset="100%" style="stop-color:#FFB3B3"/>
      </linearGradient>
    </defs>
    <rect width="200" height="150" fill="url(#bg5809)" rx="16"/>
  
  <g>
      <ellipse cx="60.318048205126615" cy="96.24930410866727" rx="10.832869405778183" ry="6.7705433786113645" fill="#FF9999"/>
      <rect x="67.08859158373798" y="63.750695891332725" width="3.249860821733455" height="32.49860821733455" fill="#FF9999"/>
      <path d="M70.33845240547143 63.750695891332725 Q81.98378701668298 71.87534794566636 70.33845240547143 77.29178264855545" stroke="#FF9999" stroke-width="2.708217351444546" fill="none"/>
    </g>
  <g>
      <ellipse cx="107.27276924655598" cy="75.0590223224608" rx="10.03934821497387" ry="6.274592634358669" fill="#FFB3B3"/>
      <rect x="113.54736188091465" y="44.940977677539195" width="3.011804464492161" height="30.11804464492161" fill="#FFB3B3"/>
      <path d="M116.55916634540681 44.940977677539195 Q127.35146567650372 52.4704888387696 116.55916634540681 57.49016294625653" stroke="#FFB3B3" stroke-width="2.5098370537434675" fill="none"/>
    </g>
  <g>
      <ellipse cx="131.2631740112647" cy="90.98187753740785" rx="10.65458502493857" ry="6.659115640586606" fill="#FF9999"/>
      <rect x="137.92228965185132" y="59.018122462592146" width="3.1963755074815707" height="31.963755074815708" fill="#FF9999"/>
      <path d="M141.1186651593329 59.018122462592146 Q152.57234406114185 67.00906123129607 141.1186651593329 72.33635374376536" stroke="#FF9999" stroke-width="2.6636462562346424" fill="none"/>
    </g>
  <path d="M31.762628654732907 60 Q41.76262865473291 55 31.762628654732907 50" stroke="#FFE566" stroke-width="2" fill="none" opacity="0.8"/>
  <path d="M30.022348067668645 75 Q40.022348067668645 70 30.022348067668645 65" stroke="#FFE566" stroke-width="2" fill="none" opacity="0.6000000000000001"/>
  <path d="M34.777948589453445 90 Q44.777948589453445 85 34.777948589453445 80" stroke="#FFE566" stroke-width="2" fill="none" opacity="0.4"/>
  <g>
      <polygon points="154.13142752973727,32 155.33142752973725,38.8 162.13142752973727,40 155.33142752973725,41.2 154.13142752973727,48 152.93142752973728,41.2 146.13142752973727,40 152.93142752973728,38.8" fill="#FFF3B0"/>
    </g>
</svg>