<svg xmlns="http://www.w3.org/2000/svg" viewBox="0 0 200 150" width="200" height="150">
  
    <defs>
      <linearGradient id="bg5899" gradientTransform="rotate(90)">
        <stop offset="0%" style="stop-color:#FFE4EC"/>
        <stop offset="100%" style="stop-color:#FFC8DD"/>
      </linearGradient>
    </defs>
    <rect width="200" height="150" fill="url(#bg5899)" rx="16"/>
  
  <g>
      <ellipse cx="59.27655477198641" cy="95.13638992854248" rx="10.090926619028323" ry="6.306829136892702" fill="#FFAFCC"/>
      <rect x="65.58338390887911" y="64.86361007145752" width="3.027277985708497" height="30.27277985708497" fill="#FFAFCC"/>
      <path d="M68.61066189458761 64.86361007145752 Q79.45840801004306 72.43180503572876 68.61066189458761 77.47726834524292" stroke="#FFAFCC" stroke-width="2.522731654757081" fill="none"/>
    </g>
  <g>
      <ellipse cx="100.00852227665746" cy="74.52092878771145" rx="9.680619191807637" ry="6.050386994879773" fill="#FFC8DD"/>
      <rect x="106.05890927153723" y="45.479071212288545" width="2.9041857575422907" height="29.04185757542291" fill="#FFC8DD"/>
      <path d="M108.96309502907953 45.479071212288545 Q119.36976066027273 52.73953560614427 108.96309502907953 57.57984520204809" stroke="#FFC8DD" stroke-width="2.420154797951909" fill="none"/>
    </g>
  <g>
      <ellipse cx="145.25293973718362" cy="92.00674530094693" rx="11.337830200631288" ry="7.086143875394555" fill="#FFAFCC"/>
      <rect x="152.33908361257818" y="57.99325469905307" width="3.401349060189386" height="34.013490601893864" fill="#FFAFCC"/>
      <path d="M155.74043267276755 57.99325469905307 Q167.9286001384462 66.49662734952653 155.74043267276755 72.16554244984218" stroke="#FFAFCC" stroke-width="2.834457550157822" fill="none"/>
    </g>
  <path d="M37.444208619717756 60 Q47.444208619717756 55 37.444208619717756 50" stroke="#FFE566" stroke-width="2" fill="none" opacity="0.8"/>
  <path d="M38.77793633419515 75 Q48.77793633419515 70 38.77793633419515 65" stroke="#FFE566" stroke-width="2" fill="none" opacity="0.6000000000000001"/>
  <path d="M38.32304183510132 90 Q48.32304183510132 85 38.32304183510132 80" stroke="#FFE566" stroke-width="2" fill="none" opacity="0.4"/>
  <g>
      <polygon points="148.28086408269883,32 149.48086408269882,38.8 156.28086408269883,40 149.48086408269882,41.2 148.28086408269883,48 147.08086408269884,41.2 140.28086408269883,40 147.08086408269884,38.8" fill="#FFF3B0"/>
    </g>
</svg>