<svg xmlns="http://www.w3.org/2000/svg" viewBox="0 0 200 150" width="200" height="150">
  
    <defs>
      <linearGradient id="bg6054" gradientTransform="rotate(0)">
        <stop offset="0%" style="stop-color:#D8F3DC"/>
        <stop offset="100%" style="stop-color:#B7E4C7"/>
      </linearGradient>
    </defs>
    <rect width="200" height="150" fill="url(#bg6054)" rx="16"/>
  
  <rect x="43.39323255697309" y="69.07333991975065" width="30" height="45.92666008024935" rx="4" fill="#B7E4C7" opacity="1"/>
  <ellipse cx="58.39323255697309" cy="69.07333991975065" rx="15" ry="5" fill="#B7E4C7" opacity="1"/>
  <path d="M58.39323255697309,47.07333991975065 Q65.39323255697309,60.07333991975065 58.39323255697309,64.07333991975065 Q51.39323255697309,60.07333991975065 58.39323255697309,47.07333991975065Z" fill="#B7E4C7"/>
  <rect x="89.57103616264249" y="75.3860769761286" width="30" height="39.61392302387139" rx="4" fill="#FFE566" opacity="1"/>
  <ellipse cx="104.57103616264249" cy="75.3860769761286" rx="15" ry="5" fill="#FFE566" opacity="1"/>
  <path d="M104.57103616264249,53.38607697612861 Q111.57103616264249,66.3860769761286 104.57103616264249,70.3860769761286 Q97.57103616264249,66.3860769761286 104.57103616264249,53.38607697612861Z" fill="#FFE566"/>
  <rect x="144.8793566116774" y="77.13908776587232" width="30" height="37.86091223412768" rx="4" fill="#A8D0F0" opacity="1"/>
  <ellipse cx="159.8793566116774" cy="77.13908776587232" rx="15" ry="5" fill="#A8D0F0" opacity="1"/>
  <path d="M159.8793566116774,55.13908776587232 Q166.8793566116774,68.13908776587232 159.8793566116774,72.13908776587232 Q152.8793566116774,68.13908776587232 159.8793566116774,55.13908776587232Z" fill="#A8D0F0"/>
  <circle cx="85.70006478841606" cy="48.91172933304006" r="6.350725230659009" fill="#B7E4C7" opacity="0.6"/>
  <circle cx="74.376058906264" cy="59.46562170893003" r="11.53468416511896" fill="#B7E4C7" opacity="0.6"/>
  <circle cx="152.37426531559322" cy="40.92739081685977" r="10.865380398943671" fill="#A8D0F0" opacity="0.6"/>
  <circle cx="112.45163222482006" cy="50.99503650241786" r="6.088305406556174" fill="#B7E4C7" opacity="0.6"/>
  <circle cx="81.4980708051371" cy="56.3785645365715" r="11.860376526383334" fill="#B7E4C7" opacity="0.6"/>
  <rect x="155" y="50" width="8" height="40" rx="2" fill="#8B4513" opacity="1"/>
  <rect x="153" y="85" width="12" height="20" rx="3" fill="#B7E4C7" opacity="1"/>
</svg>