<svg xmlns="http://www.w3.org/2000/svg" viewBox="0 0 200 150" width="200" height="150">
  
    <defs>
      <linearGradient id="bg6106" gradientTransform="rotate(135)">
        <stop offset="0%" style="stop-color:#FFE5D9"/>
        <stop offset="100%" style="stop-color:#FFCDB2"/>
      </linearGradient>
    </defs>
    <rect width="200" height="150" fill="url(#bg6106)" rx="16"/>
  
  <rect x="35" y="58.52576733883325" width="60" height="70" rx="4" fill="white" opacity="1"/>
  <rect x="105" y="58.52576733883325" width="60" height="70" rx="4" fill="#FFF8F0" opacity="1"/>
  <line x1="100" y1="58.52576733883325" x2="100" y2="128.52576733883325" stroke="#FFB4A2" stroke-width="3"/>
  <line x1="45" y1="73.52576733883325" x2="78.88126975643445" y2="73.52576733883325" stroke="#DDD" stroke-width="2"/>
  <line x1="115" y1="73.52576733883325" x2="148.88126975643445" y2="73.52576733883325" stroke="#DDD" stroke-width="2"/>
  <line x1="45" y1="85.52576733883325" x2="88.0786848561911" y2="85.52576733883325" stroke="#DDD" stroke-width="2"/>
  <line x1="115" y1="85.52576733883325" x2="158.0786848561911" y2="85.52576733883325" stroke="#DDD" stroke-width="2"/>
  <line x1="45" y1="97.52576733883325" x2="89.25823418224809" y2="97.52576733883325" stroke="#DDD" stroke-width="2"/>
  <line x1="115" y1="97.52576733883325" x2="159.2582341822481" y2="97.52576733883325" stroke="#DDD" stroke-width="2"/>
  <line x1="45" y1="109.52576733883325" x2="83.02174902373736" y2="109.52576733883325" stroke="#DDD" stroke-width="2"/>
  <line x1="115" y1="109.52576733883325" x2="153.02174902373736" y2="109.52576733883325" stroke="#DDD" stroke-width="2"/>
  <line x1="45" y1="121.52576733883325" x2="89.09775355849888" y2="121.52576733883325" stroke="#DDD" stroke-width="2"/>
  <line x1="115" y1="121.52576733883325" x2="159.09775355849888" y2="121.52576733883325" stroke="#DDD" stroke-width="2"/>
  <polygon points="70,58.52576733883325 72.3511410091699,63.28969936133346 77.60845213036123,64.05363138383368 73.80422606518061,67.76183531633303 74.70228201833979,72.99790329383282 70,70.52576733883325 65.29771798166021,72.99790329383282 66.19577393481939,67.76183531633303 62.39154786963877,64.05363138383366 67.6488589908301,63.28969936133346" fill="#FFE566"/>
  <polygon points="140,58.52576733883325 142.35114100916988,63.28969936133346 147.60845213036123,64.05363138383368 143.80422606518061,67.76183531633303 144.7022820183398,72.99790329383282 140,70.52576733883325 135.2977179816602,72.99790329383282 136.19577393481939,67.76183531633303 132.39154786963877,64.05363138383366 137.64885899083012,63.28969936133346" fill="#FFE566"/>
  <g>
      <polygon points="25,32 26.2,38.8 33,40 26.2,41.2 25,48 23.8,41.2 17,40 23.8,38.8" fill="#FFF3B0"/>
    </g>
  <g>
      <polygon points="175,39 175.9,44.1 181,45 175.9,45.9 175,51 174.1,45.9 169,45 174.1,44.1" fill="#FFCDB2"/>
    </g>
</svg>