<svg xmlns="http://www.w3.org/2000/svg" viewBox="0 0 200 150" width="200" height="150">
  
    <defs>
      <linearGradient id="bg6142" gradientTransform="rotate(135)">
        <stop offset="0%" style="stop-color:#D8F3DC"/>
        <stop offset="100%" style="stop-color:#B7E4C7"/>
      </linearGradient>
    </defs>
    <rect width="200" height="150" fill="url(#bg6142)" rx="16"/>
  
  <rect x="40" y="70" width="120" height="50" rx="8" fill="#C9B8E8"/>
  <rect x="50" y="60" width="80" height="20" rx="8" fill="white"/>
  <rect x="45" y="85" width="110" height="30" rx="6" fill="#B7E4C7"/>
  <path d="M150 25 A20 20 0 1 1 170 45 A15 15 0 1 0 150 25" fill="#FFE566"/>
  <polygon points="87.66276027126878,24.74719539596026 89.93317001653993,29.3475480109285 95.0099605437442,30.08524885568623 91.33636040750649,33.66612397672879 92.20357976181108,38.722400787286816 87.66276027126878,36.335150706591776 83.12194078072648,38.722400787286816 83.98916013503107,33.66612397672879 80.31555999879336,30.085248855686228 85.39235052599763,29.3475480109285" fill="#FFF3B0"/>
  <polygon points="53.581524759738386,38.14089974347189 55.42196047244676,41.870029809651975 59.537299834280965,42.46802362236137 56.55941229700967,45.37074656443921 57.26239618515514,49.46945713193584 53.581524759738386,47.53430850388395 49.90065333432163,49.46945713193584 50.6036372224671,45.37074656443921 47.62574968519581,42.46802362236137 51.74108904703001,41.870029809651975" fill="#FFF3B0"/>
  <polygon points="89.35717711578093,35.797109522040046 91.75047891723193,40.64646864043055 97.10206443594907,41.424099534751676 93.229620775865,45.198799187892355 94.14378071868293,50.52876062967529 89.35717711578093,48.01229419424817 84.57057351287892,50.52876062967529 85.48473345569685,45.198799187892355 81.61228979561278,41.42409953475167 86.96387531432993,40.64646864043055" fill="#FFF3B0"/>
  <polygon points="48.68817761907849,35.46621260926986 50.59789809634925,39.33572894206806 54.86816290155,39.95623473943264 51.77817026031424,42.968233150489354 52.50761857362,47.221243156275214 48.68817761907849,45.21324421557074 44.868736664536975,47.221243156275214 45.598184977842735,42.968233150489354 42.508192336606974,39.95623473943264 46.77845714180773,39.33572894206806" fill="#FFF3B0"/>
  <text x="165" y="70" fill="#95D5B2" font-size="14" font-weight="bold">z</text>
  <text x="172" y="60" fill="#95D5B2" font-size="12" font-weight="bold">z</text>
  <text x="178" y="52" fill="#95D5B2" font-size="10" font-weight="bold">z</text>
</svg>