<svg xmlns="http://www.w3.org/2000/svg" viewBox="0 0 200 150" width="200" height="150">
  
    <defs>
      <linearGradient id="bg6169" gradientTransform="rotate(135)">
        <stop offset="0%" style="stop-color:#D8F3DC"/>
        <stop offset="100%" style="stop-color:#B7E4C7"/>
      </linearGradient>
    </defs>
    <rect width="200" height="150" fill="url(#bg6169)" rx="16"/>
  
  <rect x="0" y="105" width="200" height="50" rx="0" fill="#C5DBC5" opacity="1"/>
  <rect x="93.87150535561886" y="60" width="12" height="50" rx="2" fill="#8B6914" opacity="1"/>
  <path d="M110.07520518485936,55.80215044839514 Q127.01260116402074,76.97389542234686 110.07520518485936,98.14564039629857 Q93.13780920569798,76.97389542234686 110.07520518485936,55.80215044839514Z" fill="#B7E4C7" transform="rotate(-69.62075273053415 110.07520518485936 76.97389542234686)"/>
  <path d="M124.44241351097828,48.58591681366242 Q137.16717928810198,64.49187403506703 124.44241351097828,80.39783125647163 Q111.71764773385459,64.49187403506703 124.44241351097828,48.58591681366242Z" fill="#A3C4A3" transform="rotate(-25.77504762864919 124.44241351097828 64.49187403506703)"/>
  <path d="M130.29293493969783,32.0052559951617 Q145.49127513363675,51.00318123758536 130.29293493969783,70.00110648000901 Q115.0945947457589,51.00318123758536 130.29293493969783,32.0052559951617Z" fill="#95D5B2" transform="rotate(9.326270060191746 130.29293493969783 51.00318123758536)"/>
  <path d="M124.91080354597932,23.127445197296623 Q141.3820362729514,43.71648610601173 124.91080354597932,64.30552701472683 Q108.43957081900723,43.71648610601173 124.91080354597932,23.127445197296623Z" fill="#B7E4C7" transform="rotate(29.39213678246233 124.91080354597932 43.71648610601173)"/>
  <path d="M112.86463463073265,14.883455009049236 Q129.6755272915321,35.89707083504853 112.86463463073265,56.910686661047826 Q96.05374196993321,35.89707083504853 112.86463463073265,14.883455009049236Z" fill="#A3C4A3" transform="rotate(61.448000541731744 112.86463463073265 35.89707083504853)"/>
  <circle cx="160" cy="35" r="18" fill="#FFE566" opacity="1"/>
  <line x1="182" y1="35" x2="190" y2="35" stroke="#FFF3B0" stroke-width="3" stroke-linecap="round"/>
  <line x1="175.55634918610406" y1="50.55634918610404" x2="181.21320343559643" y2="56.21320343559643" stroke="#FFF3B0" stroke-width="3" stroke-linecap="round"/>
  <line x1="160" y1="57" x2="160" y2="65" stroke="#FFF3B0" stroke-width="3" stroke-linecap="round"/>
  <line x1="144.44365081389594" y1="50.55634918610404" x2="138.78679656440357" y2="56.21320343559643" stroke="#FFF3B0" stroke-width="3" stroke-linecap="round"/>
  <line x1="138" y1="35" x2="130" y2="35.00000000000001" stroke="#FFF3B0" stroke-width="3" stroke-linecap="round"/>
  <line x1="144.44365081389594" y1="19.443650813895957" x2="138.78679656440357" y2="13.786796564403577" stroke="#FFF3B0" stroke-width="3" stroke-linecap="round"/>
  <line x1="160" y1="13" x2="160" y2="5" stroke="#FFF3B0" stroke-width="3" stroke-linecap="round"/>
  <line x1="175.55634918610403" y1="19.44365081389595" x2="181.21320343559643" y2="13.78679656440357" stroke="#FFF3B0" stroke-width="3" stroke-linecap="round"/>
  <g>
      <ellipse cx="49.8" cy="95" rx="3" ry="4.199999999999999" fill="#FFB3B3" transform="rotate(0 49.8 95)"/><ellipse cx="47.4" cy="99.15692193816531" rx="3" ry="4.199999999999999" fill="#FFB3B3" transform="rotate(60 47.4 99.15692193816531)"/><ellipse cx="42.6" cy="99.15692193816531" rx="3" ry="4.199999999999999" fill="#FFB3B3" transform="rotate(120 42.6 99.15692193816531)"/><ellipse cx="40.2" cy="95" rx="3" ry="4.199999999999999" fill="#FFB3B3" transform="rotate(180 40.2 95)"/><ellipse cx="42.599999999999994" cy="90.84307806183469" rx="3" ry="4.199999999999999" fill="#FFB3B3" transform="rotate(240 42.599999999999994 90.84307806183469)"/><ellipse cx="47.4" cy="90.84307806183469" rx="3" ry="4.199999999999999" fill="#FFB3B3" transform="rotate(300 47.4 90.84307806183469)"/>
      <circle cx="45" cy="95" r="2.4000000000000004" fill="#FFE566"/>
    </g>
  <g>
      <ellipse cx="159" cy="100" rx="2.5" ry="3.5" fill="#C9B8E8" transform="rotate(0 159 100)"/><ellipse cx="157" cy="103.46410161513775" rx="2.5" ry="3.5" fill="#C9B8E8" transform="rotate(60 157 103.46410161513775)"/><ellipse cx="153" cy="103.46410161513775" rx="2.5" ry="3.5" fill="#C9B8E8" transform="rotate(120 153 103.46410161513775)"/><ellipse cx="151" cy="100" rx="2.5" ry="3.5" fill="#C9B8E8" transform="rotate(180 151 100)"/><ellipse cx="153" cy="96.53589838486225" rx="2.5" ry="3.5" fill="#C9B8E8" transform="rotate(240 153 96.53589838486225)"/><ellipse cx="157" cy="96.53589838486225" rx="2.5" ry="3.5" fill="#C9B8E8" transform="rotate(300 157 96.53589838486225)"/>
      <circle cx="155" cy="100" r="2" fill="#FFF3B0"/>
    </g>
</svg>