<svg xmlns="http://www.w3.org/2000/svg" viewBox="0 0 200 150" width="200" height="150">
  
    <defs>
      <linearGradient id="bg6401" gradientTransform="rotate(90)">
        <stop offset="0%" style="stop-color:#D8F3DC"/>
        <stop offset="100%" style="stop-color:#B7E4C7"/>
      </linearGradient>
    </defs>
    <rect width="200" height="150" fill="url(#bg6401)" rx="16"/>
  
  <rect x="35" y="63.496923894381325" width="60" height="70" rx="4" fill="white" opacity="1"/>
  <rect x="105" y="63.496923894381325" width="60" height="70" rx="4" fill="#FFF8F0" opacity="1"/>
  <line x1="100" y1="63.496923894381325" x2="100" y2="133.49692389438133" stroke="#95D5B2" stroke-width="3"/>
  <line x1="45" y1="78.49692389438133" x2="81.1517028156868" y2="78.49692389438133" stroke="#DDD" stroke-width="2"/>
  <line x1="115" y1="78.49692389438133" x2="151.1517028156868" y2="78.49692389438133" stroke="#DDD" stroke-width="2"/>
  <line x1="45" y1="90.49692389438133" x2="79.74167814705197" y2="90.49692389438133" stroke="#DDD" stroke-width="2"/>
  <line x1="115" y1="90.49692389438133" x2="149.74167814705197" y2="90.49692389438133" stroke="#DDD" stroke-width="2"/>
  <line x1="45" y1="102.49692389438133" x2="85.60671568682494" y2="102.49692389438133" stroke="#DDD" stroke-width="2"/>
  <line x1="115" y1="102.49692389438133" x2="155.60671568682494" y2="102.49692389438133" stroke="#DDD" stroke-width="2"/>
  <line x1="45" y1="114.49692389438133" x2="81.69838187793175" y2="114.49692389438133" stroke="#DDD" stroke-width="2"/>
  <line x1="115" y1="114.49692389438133" x2="151.69838187793175" y2="114.49692389438133" stroke="#DDD" stroke-width="2"/>
  <line x1="45" y1="126.49692389438133" x2="81.07837339079424" y2="126.49692389438133" stroke="#DDD" stroke-width="2"/>
  <line x1="115" y1="126.49692389438133" x2="151.07837339079424" y2="126.49692389438133" stroke="#DDD" stroke-width="2"/>
  <polygon points="70,63.496923894381325 72.3511410091699,68.26085591688154 77.60845213036123,69.02478793938175 73.80422606518061,72.73299187188111 74.70228201833979,77.9690598493809 70,75.49692389438133 65.29771798166021,77.9690598493809 66.19577393481939,72.73299187188111 62.39154786963877,69.02478793938174 67.6488589908301,68.26085591688154" fill="#FFE566"/>
  <polygon points="140,63.496923894381325 142.35114100916988,68.26085591688154 147.60845213036123,69.02478793938175 143.80422606518061,72.73299187188111 144.7022820183398,77.9690598493809 140,75.49692389438133 135.2977179816602,77.9690598493809 136.19577393481939,72.73299187188111 132.39154786963877,69.02478793938174 137.64885899083012,68.26085591688154" fill="#FFE566"/>
  <g>
      <polygon points="25,32 26.2,38.8 33,40 26.2,41.2 25,48 23.8,41.2 17,40 23.8,38.8" fill="#FFF3B0"/>
    </g>
  <g>
      <polygon points="175,39 175.9,44.1 181,45 175.9,45.9 175,51 174.1,45.9 169,45 174.1,44.1" fill="#B7E4C7"/>
    </g>
</svg>