<svg xmlns="http://www.w3.org/2000/svg" viewBox="0 0 200 150" width="200" height="150">
  
    <defs>
      <linearGradient id="bg6484" gradientTransform="rotate(90)">
        <stop offset="0%" style="stop-color:#E8F0E8"/>
        <stop offset="100%" style="stop-color:#C5DBC5"/>
      </linearGradient>
    </defs>
    <rect width="200" height="150" fill="url(#bg6484)" rx="16"/>
  
  <rect x="35" y="63.34983564331651" width="60" height="70" rx="4" fill="white" opacity="1"/>
  <rect x="105" y="63.34983564331651" width="60" height="70" rx="4" fill="#FFF8F0" opacity="1"/>
  <line x1="100" y1="63.34983564331651" x2="100" y2="133.3498356433165" stroke="#A3C4A3" stroke-width="3"/>
  <line x1="45" y1="78.34983564331651" x2="87.8894671002945" y2="78.34983564331651" stroke="#DDD" stroke-width="2"/>
  <line x1="115" y1="78.34983564331651" x2="157.8894671002945" y2="78.34983564331651" stroke="#DDD" stroke-width="2"/>
  <line x1="45" y1="90.34983564331651" x2="85.21483111510861" y2="90.34983564331651" stroke="#DDD" stroke-width="2"/>
  <line x1="115" y1="90.34983564331651" x2="155.2148311151086" y2="90.34983564331651" stroke="#DDD" stroke-width="2"/>
  <line x1="45" y1="102.34983564331651" x2="84.84903073774149" y2="102.34983564331651" stroke="#DDD" stroke-width="2"/>
  <line x1="115" y1="102.34983564331651" x2="154.8490307377415" y2="102.34983564331651" stroke="#DDD" stroke-width="2"/>
  <line x1="45" y1="114.34983564331651" x2="84.67918064121022" y2="114.34983564331651" stroke="#DDD" stroke-width="2"/>
  <line x1="115" y1="114.34983564331651" x2="154.67918064121022" y2="114.34983564331651" stroke="#DDD" stroke-width="2"/>
  <line x1="45" y1="126.34983564331651" x2="75.53315011811719" y2="126.34983564331651" stroke="#DDD" stroke-width="2"/>
  <line x1="115" y1="126.34983564331651" x2="145.5331501181172" y2="126.34983564331651" stroke="#DDD" stroke-width="2"/>
  <polygon points="70,63.34983564331651 72.3511410091699,68.11376766581672 77.60845213036123,68.87769968831694 73.80422606518061,72.5859036208163 74.70228201833979,77.82197159831608 70,75.34983564331651 65.29771798166021,77.82197159831608 66.19577393481939,72.5859036208163 62.39154786963877,68.87769968831692 67.6488589908301,68.11376766581672" fill="#FFE566"/>
  <polygon points="140,63.34983564331651 142.35114100916988,68.11376766581672 147.60845213036123,68.87769968831694 143.80422606518061,72.5859036208163 144.7022820183398,77.82197159831608 140,75.34983564331651 135.2977179816602,77.82197159831608 136.19577393481939,72.5859036208163 132.39154786963877,68.87769968831692 137.64885899083012,68.11376766581672" fill="#FFE566"/>
  <g>
      <polygon points="25,32 26.2,38.8 33,40 26.2,41.2 25,48 23.8,41.2 17,40 23.8,38.8" fill="#FFF3B0"/>
    </g>
  <g>
      <polygon points="175,39 175.9,44.1 181,45 175.9,45.9 175,51 174.1,45.9 169,45 174.1,44.1" fill="#C5DBC5"/>
    </g>
</svg>