<svg xmlns="http://www.w3.org/2000/svg" viewBox="0 0 200 150" width="200" height="150">
  
    <defs>
      <linearGradient id="bg7451" gradientTransform="rotate(45)">
        <stop offset="0%" style="stop-color:#D8F3DC"/>
        <stop offset="100%" style="stop-color:#B7E4C7"/>
      </linearGradient>
    </defs>
    <rect width="200" height="150" fill="url(#bg7451)" rx="16"/>
  
  <g>
      <ellipse cx="65.5676399092772" cy="96.3578155855339" rx="10.905210390355933" ry="6.815756493972458" fill="#95D5B2"/>
      <rect x="72.38339640324966" y="63.6421844144661" width="3.27156311710678" height="32.7156311710678" fill="#95D5B2"/>
      <path d="M75.65495952035644 63.6421844144661 Q87.37806068998907 71.82109220723305 75.65495952035644 77.27369740241102" stroke="#95D5B2" stroke-width="2.726302597588983" fill="none"/>
    </g>
  <g>
      <ellipse cx="96.00758143017174" cy="76.41300851712549" rx="10.94200567808366" ry="6.838753548802288" fill="#B7E4C7"/>
      <rect x="102.84633497897403" y="43.58699148287451" width="3.282601703425098" height="32.82601703425098" fill="#B7E4C7"/>
      <path d="M106.12893668239913 43.58699148287451 Q117.89159278633906 51.793495741437255 106.12893668239913 57.264498580479085" stroke="#B7E4C7" stroke-width="2.735501419520915" fill="none"/>
    </g>
  <g>
      <ellipse cx="144.2628863380014" cy="91.96549307148598" rx="11.310328714323987" ry="7.068955446452492" fill="#95D5B2"/>
      <rect x="151.3318417844539" y="58.03450692851402" width="3.393098614297196" height="33.93098614297196" fill="#95D5B2"/>
      <path d="M154.7249403987511 58.03450692851402 Q166.88354376664938 66.51725346425701 154.7249403987511 72.172417821419" stroke="#95D5B2" stroke-width="2.8275821785809967" fill="none"/>
    </g>
  <path d="M39.85177463257969 60 Q49.85177463257969 55 39.85177463257969 50" stroke="#FFE566" stroke-width="2" fill="none" opacity="0.8"/>
  <path d="M30.56031452658317 75 Q40.56031452658317 70 30.56031452658317 65" stroke="#FFE566" stroke-width="2" fill="none" opacity="0.6000000000000001"/>
  <path d="M33.28211007072241 90 Q43.28211007072241 85 33.28211007072241 80" stroke="#FFE566" stroke-width="2" fill="none" opacity="0.4"/>
  <g>
      <polygon points="148.67796331934983,32 149.87796331934982,38.8 156.67796331934983,40 149.87796331934982,41.2 148.67796331934983,48 147.47796331934984,41.2 140.67796331934983,40 147.47796331934984,38.8" fill="#FFF3B0"/>
    </g>
</svg>