<svg xmlns="http://www.w3.org/2000/svg" viewBox="0 0 200 150" width="200" height="150">
  
    <defs>
      <linearGradient id="bg7454" gradientTransform="rotate(0)">
        <stop offset="0%" style="stop-color:#E2D9F3"/>
        <stop offset="100%" style="stop-color:#C9B8E8"/>
      </linearGradient>
    </defs>
    <rect width="200" height="150" fill="url(#bg7454)" rx="16"/>
  
  <rect x="35" y="56.74098616194897" width="60" height="70" rx="4" fill="white" opacity="1"/>
  <rect x="105" y="56.74098616194897" width="60" height="70" rx="4" fill="#FFF8F0" opacity="1"/>
  <line x1="100" y1="56.74098616194897" x2="100" y2="126.74098616194897" stroke="#B298DC" stroke-width="3"/>
  <line x1="45" y1="71.74098616194897" x2="81.3874083574683" y2="71.74098616194897" stroke="#DDD" stroke-width="2"/>
  <line x1="115" y1="71.74098616194897" x2="151.3874083574683" y2="71.74098616194897" stroke="#DDD" stroke-width="2"/>
  <line x1="45" y1="83.74098616194897" x2="77.94914681644514" y2="83.74098616194897" stroke="#DDD" stroke-width="2"/>
  <line x1="115" y1="83.74098616194897" x2="147.94914681644514" y2="83.74098616194897" stroke="#DDD" stroke-width="2"/>
  <line x1="45" y1="95.74098616194897" x2="75.14479270538686" y2="95.74098616194897" stroke="#DDD" stroke-width="2"/>
  <line x1="115" y1="95.74098616194897" x2="145.14479270538686" y2="95.74098616194897" stroke="#DDD" stroke-width="2"/>
  <line x1="45" y1="107.74098616194897" x2="89.62293254618089" y2="107.74098616194897" stroke="#DDD" stroke-width="2"/>
  <line x1="115" y1="107.74098616194897" x2="159.6229325461809" y2="107.74098616194897" stroke="#DDD" stroke-width="2"/>
  <line x1="45" y1="119.74098616194897" x2="75.93488488768344" y2="119.74098616194897" stroke="#DDD" stroke-width="2"/>
  <line x1="115" y1="119.74098616194897" x2="145.93488488768344" y2="119.74098616194897" stroke="#DDD" stroke-width="2"/>
  <polygon points="70,56.74098616194897 72.3511410091699,61.50491818444918 77.60845213036123,62.26885020694939 73.80422606518061,65.97705413944875 74.70228201833979,71.21312211694854 70,68.74098616194897 65.29771798166021,71.21312211694854 66.19577393481939,65.97705413944875 62.39154786963877,62.26885020694939 67.6488589908301,61.50491818444918" fill="#FFE566"/>
  <polygon points="140,56.74098616194897 142.35114100916988,61.50491818444918 147.60845213036123,62.26885020694939 143.80422606518061,65.97705413944875 144.7022820183398,71.21312211694854 140,68.74098616194897 135.2977179816602,71.21312211694854 136.19577393481939,65.97705413944875 132.39154786963877,62.26885020694939 137.64885899083012,61.50491818444918" fill="#FFE566"/>
  <g>
      <polygon points="25,32 26.2,38.8 33,40 26.2,41.2 25,48 23.8,41.2 17,40 23.8,38.8" fill="#FFF3B0"/>
    </g>
  <g>
      <polygon points="175,39 175.9,44.1 181,45 175.9,45.9 175,51 174.1,45.9 169,45 174.1,44.1" fill="#C9B8E8"/>
    </g>
</svg>