<svg xmlns="http://www.w3.org/2000/svg" viewBox="0 0 200 150" width="200" height="150">
  
    <defs>
      <linearGradient id="bg7522" gradientTransform="rotate(135)">
        <stop offset="0%" style="stop-color:#D4E9FF"/>
        <stop offset="100%" style="stop-color:#A8D0F0"/>
      </linearGradient>
    </defs>
    <rect width="200" height="150" fill="url(#bg7522)" rx="16"/>
  
  <rect x="40" y="70" width="120" height="50" rx="8" fill="#C9B8E8"/>
  <rect x="50" y="60" width="80" height="20" rx="8" fill="white"/>
  <rect x="45" y="85" width="110" height="30" rx="6" fill="#A8D0F0"/>
  <path d="M150 25 A20 20 0 1 1 170 45 A15 15 0 1 0 150 25" fill="#FFE566"/>
  <polygon points="67.83730877596099,32.07662741869353 70.4445175285067,37.35940936037748 76.2744135307313,38.206542836270394 72.05586115334614,42.318615107278156 73.05172628105238,48.124954330071766 67.83730877596099,45.38357281606659 62.6228912708696,48.124954330071766 63.61875639857584,42.318615107278156 59.400204021190696,38.206542836270394 65.23010002341529,37.35940936037748" fill="#FFF3B0"/>
  <polygon points="48.39585712767985,24.375727162992916 49.90428563258863,27.432137148680763 53.27723430876304,27.922255280284784 50.836545718221444,30.301338666598472 51.41271413749741,33.6606583161202 48.39585712767985,32.074602725244404 45.37900011786228,33.6606583161202 45.95516853713825,30.301338666598472 43.51447994659665,27.92225528028478 46.88742862277106,27.432137148680763" fill="#FFF3B0"/>
  <polygon points="44.28601327026627,17.220881590518502 46.60257971611515,21.914757895932194 51.78257976342834,22.667455961820757 48.034296516847306,26.321129123442763 48.919146161964036,31.480198416841894 44.28601327026627,29.04441630909389 39.6528803785685,31.480198416841894 40.53773002368523,26.321129123442763 36.789446777104196,22.667455961820753 41.96944682441738,21.914757895932194" fill="#FFF3B0"/>
  <polygon points="94.79198001944496,34.53342999257893 96.41687491687533,37.825826665034896 100.05025036382217,38.353787021518364 97.42111519163356,40.91656042602668 98.0417698143057,44.53525454350194 94.79198001944496,42.8267389404964 91.54219022458423,44.53525454350194 92.16284484725637,40.91656042602668 89.53370967506775,38.353787021518364 93.1670851220146,37.825826665034896" fill="#FFF3B0"/>
  <text x="165" y="70" fill="#7BB8E0" font-size="14" font-weight="bold">z</text>
  <text x="172" y="60" fill="#7BB8E0" font-size="12" font-weight="bold">z</text>
  <text x="178" y="52" fill="#7BB8E0" font-size="10" font-weight="bold">z</text>
</svg>