<svg xmlns="http://www.w3.org/2000/svg" viewBox="0 0 200 150" width="200" height="150">
  
    <defs>
      <linearGradient id="bg7523" gradientTransform="rotate(45)">
        <stop offset="0%" style="stop-color:#D4E9FF"/>
        <stop offset="100%" style="stop-color:#A8D0F0"/>
      </linearGradient>
    </defs>
    <rect width="200" height="150" fill="url(#bg7523)" rx="16"/>
  
  <rect x="49.1257626226934" y="74.63571318320646" width="30" height="40.36428681679354" rx="4" fill="#FFE566" opacity="1"/>
  <ellipse cx="64.1257626226934" cy="74.63571318320646" rx="15" ry="5" fill="#FFE566" opacity="1"/>
  <path d="M64.1257626226934,52.63571318320646 Q71.1257626226934,65.63571318320646 64.1257626226934,69.63571318320646 Q57.1257626226934,65.63571318320646 64.1257626226934,52.63571318320646Z" fill="#FFE566"/>
  <rect x="90.25776632612178" y="70.54354859874366" width="30" height="44.456451401256345" rx="4" fill="#A8D0F0" opacity="1"/>
  <ellipse cx="105.25776632612178" cy="70.54354859874366" rx="15" ry="5" fill="#A8D0F0" opacity="1"/>
  <path d="M105.25776632612178,48.543548598743655 Q112.25776632612178,61.543548598743655 105.25776632612178,65.54354859874366 Q98.25776632612178,61.543548598743655 105.25776632612178,48.543548598743655Z" fill="#A8D0F0"/>
  <rect x="151.158001541653" y="72.15522289730643" width="30" height="42.84477710269357" rx="4" fill="#FFB3B3" opacity="1"/>
  <ellipse cx="166.158001541653" cy="72.15522289730643" rx="15" ry="5" fill="#FFB3B3" opacity="1"/>
  <path d="M166.158001541653,50.15522289730643 Q173.158001541653,63.15522289730643 166.158001541653,67.15522289730643 Q159.158001541653,63.15522289730643 166.158001541653,50.15522289730643Z" fill="#FFB3B3"/>
  <circle cx="130.274195380116" cy="45.275394361779036" r="10.259870908776065" fill="#FFE566" opacity="0.6"/>
  <circle cx="157.25532469024984" cy="36.27744061666817" r="7.283505216728372" fill="#FFB3B3" opacity="0.6"/>
  <circle cx="122.77976907242049" cy="30.725480499349942" r="6.691388641236699" fill="#FFE566" opacity="0.6"/>
  <circle cx="69.10852645774867" cy="47.37874665032905" r="8.67322551003599" fill="#A8D0F0" opacity="0.6"/>
  <circle cx="88.56712783359399" cy="49.30651548577089" r="5.587111987973913" fill="#A8D0F0" opacity="0.6"/>
  <rect x="155" y="50" width="8" height="40" rx="2" fill="#8B4513" opacity="1"/>
  <rect x="153" y="85" width="12" height="20" rx="3" fill="#FFE566" opacity="1"/>
</svg>