<svg xmlns="http://www.w3.org/2000/svg" viewBox="0 0 200 150" width="200" height="150">
  
    <defs>
      <linearGradient id="bg7638" gradientTransform="rotate(0)">
        <stop offset="0%" style="stop-color:#E8F0E8"/>
        <stop offset="100%" style="stop-color:#C5DBC5"/>
      </linearGradient>
    </defs>
    <rect width="200" height="150" fill="url(#bg7638)" rx="16"/>
  
  <g>
      <ellipse cx="55.53253152371326" cy="95.92397881880242" rx="10.615985879201617" ry="6.63499117450101" fill="#A3C4A3"/>
      <rect x="62.16752269821427" y="64.07602118119758" width="3.184795763760485" height="31.84795763760485" fill="#A3C4A3"/>
      <path d="M65.35231846197476 64.07602118119758 Q76.7645032821165 72.03801059059879 65.35231846197476 77.3460035301996" stroke="#A3C4A3" stroke-width="2.653996469800404" fill="none"/>
    </g>
  <g>
      <ellipse cx="90.3006214101697" cy="77.02924752065792" rx="11.352831680438612" ry="7.095519800274133" fill="#C5DBC5"/>
      <rect x="97.39614121044383" y="42.97075247934208" width="3.4058495041315835" height="34.05849504131584" fill="#C5DBC5"/>
      <path d="M100.80199071457541 42.97075247934208 Q113.00628477104692 51.48537623967104 100.80199071457541 57.16179207989035" stroke="#C5DBC5" stroke-width="2.838207920109653" fill="none"/>
    </g>
  <g>
      <ellipse cx="131.8119068667056" cy="87.15857289247288" rx="8.105715261648584" ry="5.066072038530365" fill="#A3C4A3"/>
      <rect x="136.87797890523598" y="62.841427107527124" width="2.431714578494575" height="24.31714578494575" fill="#A3C4A3"/>
      <path d="M139.30969348373054 62.841427107527124 Q148.02333739000278 68.92071355376356 139.30969348373054 72.97357118458785" stroke="#A3C4A3" stroke-width="2.026428815412146" fill="none"/>
    </g>
  <path d="M33.75825588920634 60 Q43.75825588920634 55 33.75825588920634 50" stroke="#FFE566" stroke-width="2" fill="none" opacity="0.8"/>
  <path d="M37.75848853296338 75 Q47.75848853296338 70 37.75848853296338 65" stroke="#FFE566" stroke-width="2" fill="none" opacity="0.6000000000000001"/>
  <path d="M30.046691364495928 90 Q40.04669136449593 85 30.046691364495928 80" stroke="#FFE566" stroke-width="2" fill="none" opacity="0.4"/>
  <g>
      <polygon points="150.53329756214225,32 151.73329756214224,38.8 158.53329756214225,40 151.73329756214224,41.2 150.53329756214225,48 149.33329756214226,41.2 142.53329756214225,40 149.33329756214226,38.8" fill="#FFF3B0"/>
    </g>
</svg>