<svg xmlns="http://www.w3.org/2000/svg" viewBox="0 0 200 150" width="200" height="150">
  
    <defs>
      <linearGradient id="bg7680" gradientTransform="rotate(135)">
        <stop offset="0%" style="stop-color:#D0F0F0"/>
        <stop offset="100%" style="stop-color:#A0E0E0"/>
      </linearGradient>
    </defs>
    <rect width="200" height="150" fill="url(#bg7680)" rx="16"/>
  
  <rect x="60" y="60" width="80" height="55" rx="12" fill="#A0E0E0"/>
  <ellipse cx="100" cy="75" rx="25" ry="18" fill="#D0F0F0" opacity="1"/>
  <rect x="65" y="55" width="70" height="15" rx="8" fill="#70D0D0"/>
  <polygon points="45,33 48.52671151375484,40.14589803375031 56.412678195541844,41.291796067500634 50.70633909777092,46.85410196624969 52.05342302750968,54.70820393249937 45,51 37.94657697249032,54.70820393249937 39.29366090222908,46.85410196624969 33.587321804458156,41.29179606750063 41.47328848624516,40.14589803375031" fill="#FFE566"/>
  <polygon points="160,40 162.93892626146237,45.954915028125264 169.51056516295154,46.90983005625053 164.75528258147577,51.545084971874736 165.87785252292474,58.09016994374947 160,55 154.12214747707526,58.09016994374947 155.24471741852423,51.545084971874736 150.48943483704846,46.90983005625052 157.06107373853763,45.954915028125264" fill="#FFF3B0"/>
  <polygon points="100,22 102.3511410091699,26.76393202250021 107.60845213036123,27.52786404500042 103.80422606518061,31.23606797749979 104.70228201833979,36.47213595499958 100,34 95.29771798166021,36.47213595499958 96.19577393481939,31.23606797749979 92.39154786963877,27.527864045000417 97.6488589908301,26.76393202250021" fill="#FFB3B3"/>
  <circle cx="42.33833408958162" cy="33.170713454801444" r="3" fill="#FFB3B3" opacity="1"/>
  <circle cx="132.99442775438365" cy="33.089581222138804" r="3" fill="#B7E4C7" opacity="1"/>
  <circle cx="57.43845059412706" cy="32.34825763155641" r="3" fill="#C9B8E8" opacity="1"/>
  <circle cx="46.80388332615621" cy="27.24092586072402" r="3" fill="#FFE566" opacity="1"/>
  <circle cx="147.25956616295434" cy="43.621824476065285" r="3" fill="#FFB3B3" opacity="1"/>
  <circle cx="114.12583736280794" cy="32.169718133227434" r="3" fill="#B7E4C7" opacity="1"/>
</svg>