<svg xmlns="http://www.w3.org/2000/svg" viewBox="0 0 200 150" width="200" height="150">
  
    <defs>
      <linearGradient id="bg7689" gradientTransform="rotate(90)">
        <stop offset="0%" style="stop-color:#FFD6D6"/>
        <stop offset="100%" style="stop-color:#FFB3B3"/>
      </linearGradient>
    </defs>
    <rect width="200" height="150" fill="url(#bg7689)" rx="16"/>
  
  <rect x="60" y="60" width="80" height="55" rx="12" fill="#FFB3B3"/>
  <ellipse cx="100" cy="75" rx="25" ry="18" fill="#FFD6D6" opacity="1"/>
  <rect x="65" y="55" width="70" height="15" rx="8" fill="#FF9999"/>
  <polygon points="45,33 48.52671151375484,40.14589803375031 56.412678195541844,41.291796067500634 50.70633909777092,46.85410196624969 52.05342302750968,54.70820393249937 45,51 37.94657697249032,54.70820393249937 39.29366090222908,46.85410196624969 33.587321804458156,41.29179606750063 41.47328848624516,40.14589803375031" fill="#FFE566"/>
  <polygon points="160,40 162.93892626146237,45.954915028125264 169.51056516295154,46.90983005625053 164.75528258147577,51.545084971874736 165.87785252292474,58.09016994374947 160,55 154.12214747707526,58.09016994374947 155.24471741852423,51.545084971874736 150.48943483704846,46.90983005625052 157.06107373853763,45.954915028125264" fill="#FFF3B0"/>
  <polygon points="100,22 102.3511410091699,26.76393202250021 107.60845213036123,27.52786404500042 103.80422606518061,31.23606797749979 104.70228201833979,36.47213595499958 100,34 95.29771798166021,36.47213595499958 96.19577393481939,31.23606797749979 92.39154786963877,27.527864045000417 97.6488589908301,26.76393202250021" fill="#FFB3B3"/>
  <circle cx="68.09072751180793" cy="43.9646820422422" r="3" fill="#FFB3B3" opacity="1"/>
  <circle cx="65.49379115866031" cy="33.020269927583286" r="3" fill="#B7E4C7" opacity="1"/>
  <circle cx="150.06148804903205" cy="29.748547905537635" r="3" fill="#C9B8E8" opacity="1"/>
  <circle cx="120.70013279102568" cy="32.93489821510775" r="3" fill="#FFE566" opacity="1"/>
  <circle cx="67.48962580513762" cy="29.05765657522352" r="3" fill="#FFB3B3" opacity="1"/>
  <circle cx="145.49888372006535" cy="36.7337516864427" r="3" fill="#B7E4C7" opacity="1"/>
</svg>