<svg xmlns="http://www.w3.org/2000/svg" viewBox="0 0 200 150" width="200" height="150">
  
    <defs>
      <linearGradient id="bg7705" gradientTransform="rotate(0)">
        <stop offset="0%" style="stop-color:#E8F0E8"/>
        <stop offset="100%" style="stop-color:#C5DBC5"/>
      </linearGradient>
    </defs>
    <rect width="200" height="150" fill="url(#bg7705)" rx="16"/>
  
  <g>
      <ellipse cx="51.912564132435364" cy="96.77010500221877" rx="11.18007000147918" ry="6.9875437509244875" fill="#A3C4A3"/>
      <rect x="58.90010788335985" y="63.22989499778123" width="3.354021000443754" height="33.54021000443754" fill="#A3C4A3"/>
      <path d="M62.2541288838036 63.22989499778123 Q74.27270413539372 71.61494749889061 62.2541288838036 77.2049824996302" stroke="#A3C4A3" stroke-width="2.795017500369795" fill="none"/>
    </g>
  <g>
      <ellipse cx="108.68846503002715" cy="75.20746653302922" rx="10.13831102201948" ry="6.336444388762175" fill="#C5DBC5"/>
      <rect x="115.02490941878932" y="44.79253346697078" width="3.041493306605844" height="30.41493306605844" fill="#C5DBC5"/>
      <path d="M118.06640272539516 44.79253346697078 Q128.9650870740661 52.39626673348539 118.06640272539516 57.46542224449513" stroke="#C5DBC5" stroke-width="2.53457775550487" fill="none"/>
    </g>
  <g>
      <ellipse cx="139.1282593743017" cy="91.81149437637941" rx="11.207662917586276" ry="7.004789323491423" fill="#A3C4A3"/>
      <rect x="146.13304869779313" y="58.188505623620586" width="3.362298875275883" height="33.62298875275883" fill="#A3C4A3"/>
      <path d="M149.495347573069 58.188505623620586 Q161.54358520947426 66.59425281181029 149.495347573069 72.19808427060343" stroke="#A3C4A3" stroke-width="2.801915729396569" fill="none"/>
    </g>
  <path d="M32.39119129259052 60 Q42.39119129259052 55 32.39119129259052 50" stroke="#FFE566" stroke-width="2" fill="none" opacity="0.8"/>
  <path d="M32.70799157287456 75 Q42.70799157287456 70 32.70799157287456 65" stroke="#FFE566" stroke-width="2" fill="none" opacity="0.6000000000000001"/>
  <path d="M37.395111042606004 90 Q47.395111042606004 85 37.395111042606004 80" stroke="#FFE566" stroke-width="2" fill="none" opacity="0.4"/>
  <g>
      <polygon points="145.24214199513153,32 146.44214199513152,38.8 153.24214199513153,40 146.44214199513152,41.2 145.24214199513153,48 144.04214199513154,41.2 137.24214199513153,40 144.04214199513154,38.8" fill="#FFF3B0"/>
    </g>
</svg>