<svg xmlns="http://www.w3.org/2000/svg" viewBox="0 0 200 150" width="200" height="150">
  
    <defs>
      <linearGradient id="bg7715" gradientTransform="rotate(90)">
        <stop offset="0%" style="stop-color:#E2D9F3"/>
        <stop offset="100%" style="stop-color:#C9B8E8"/>
      </linearGradient>
    </defs>
    <rect width="200" height="150" fill="url(#bg7715)" rx="16"/>
  
  <g>
      <ellipse cx="69.46698861016557" cy="97.49071591549" rx="11.660477276993333" ry="7.287798298120833" fill="#B298DC"/>
      <rect x="76.7547869082864" y="62.50928408451" width="3.498143183098" height="34.98143183098" fill="#B298DC"/>
      <path d="M80.2529300913844 62.50928408451 Q92.78794316415224 71.254642042255 80.2529300913844 77.08488068075167" stroke="#B298DC" stroke-width="2.9151193192483333" fill="none"/>
    </g>
  <g>
      <ellipse cx="90.54953903961177" cy="73.15164129275672" rx="8.767760861837814" ry="5.479850538648634" fill="#C9B8E8"/>
      <rect x="96.0293895782604" y="46.84835870724328" width="2.6303282585513443" height="26.303282585513443" fill="#C9B8E8"/>
      <path d="M98.65971783681175 46.84835870724328 Q108.0850607632874 53.42417935362164 98.65971783681175 57.808059784540546" stroke="#C9B8E8" stroke-width="2.1919402154594536" fill="none"/>
    </g>
  <g>
      <ellipse cx="143.16931342345924" cy="90.11042111797406" rx="10.07361407864937" ry="6.296008799155857" fill="#B298DC"/>
      <rect x="149.4653222226151" y="59.889578882025944" width="3.022084223594811" height="30.220842235948112" fill="#B298DC"/>
      <path d="M152.48740644620992 59.889578882025944 Q163.31654158075798 67.44478944101297 152.48740644620992 72.48159648033766" stroke="#B298DC" stroke-width="2.5184035196623427" fill="none"/>
    </g>
  <path d="M36.37374839861877 60 Q46.37374839861877 55 36.37374839861877 50" stroke="#FFE566" stroke-width="2" fill="none" opacity="0.8"/>
  <path d="M30.355019548042037 75 Q40.35501954804204 70 30.355019548042037 65" stroke="#FFE566" stroke-width="2" fill="none" opacity="0.6000000000000001"/>
  <path d="M37.64995204052866 90 Q47.64995204052866 85 37.64995204052866 80" stroke="#FFE566" stroke-width="2" fill="none" opacity="0.4"/>
  <g>
      <polygon points="148.62348027934786,32 149.82348027934785,38.8 156.62348027934786,40 149.82348027934785,41.2 148.62348027934786,48 147.42348027934787,41.2 140.62348027934786,40 147.42348027934787,38.8" fill="#FFF3B0"/>
    </g>
</svg>