<svg xmlns="http://www.w3.org/2000/svg" viewBox="0 0 200 150" width="200" height="150">
  
    <defs>
      <linearGradient id="bg7736" gradientTransform="rotate(45)">
        <stop offset="0%" style="stop-color:#FFD6D6"/>
        <stop offset="100%" style="stop-color:#FFB3B3"/>
      </linearGradient>
    </defs>
    <rect width="200" height="150" fill="url(#bg7736)" rx="16"/>
  
  <circle cx="100" cy="75" r="40" fill="#FFD6D6" opacity="1"/>
  <circle cx="100" cy="75" r="35" fill="white" opacity="1"/>
  <line x1="100" y1="47" x2="100" y2="55" stroke="#FF9999" stroke-width="2"/>
  <line x1="114" y1="50.751288694035715" x2="112" y2="54.21539030917347" stroke="#FF9999" stroke-width="2"/>
  <line x1="124.24871130596428" y1="61" x2="120.78460969082653" y2="63" stroke="#FF9999" stroke-width="2"/>
  <line x1="128" y1="75" x2="120" y2="75" stroke="#FF9999" stroke-width="2"/>
  <line x1="124.24871130596429" y1="89" x2="120.78460969082653" y2="87" stroke="#FF9999" stroke-width="2"/>
  <line x1="114" y1="99.24871130596429" x2="112" y2="95.78460969082653" stroke="#FF9999" stroke-width="2"/>
  <line x1="100" y1="103" x2="100" y2="95" stroke="#FF9999" stroke-width="2"/>
  <line x1="86" y1="99.24871130596428" x2="88" y2="95.78460969082653" stroke="#FF9999" stroke-width="2"/>
  <line x1="75.75128869403572" y1="89.00000000000001" x2="79.21539030917347" y2="87" stroke="#FF9999" stroke-width="2"/>
  <line x1="72" y1="75" x2="80" y2="75" stroke="#FF9999" stroke-width="2"/>
  <line x1="75.75128869403572" y1="61" x2="79.21539030917347" y2="63" stroke="#FF9999" stroke-width="2"/>
  <line x1="85.99999999999999" y1="50.75128869403572" x2="87.99999999999999" y2="54.21539030917347" stroke="#FF9999" stroke-width="2"/>
  <line x1="100" y1="75" x2="100" y2="55" stroke="#FF9999" stroke-width="3" stroke-linecap="round"/>
  <line x1="100" y1="75" x2="115" y2="85" stroke="#FFB3B3" stroke-width="2" stroke-linecap="round"/>
  <circle cx="100" cy="75" r="4" fill="#FF9999" opacity="1"/>
  <g>
      <polygon points="50,42 51.2,48.8 58,50 51.2,51.2 50,58 48.8,51.2 42,50 48.8,48.8" fill="#FFF3B0"/>
    </g>
  <g>
      <polygon points="155,39 155.9,44.1 161,45 155.9,45.9 155,51 154.1,45.9 149,45 154.1,44.1" fill="#FFE566"/>
    </g>
</svg>