<svg xmlns="http://www.w3.org/2000/svg" viewBox="0 0 200 150" width="200" height="150">
  
    <defs>
      <linearGradient id="bg7764" gradientTransform="rotate(135)">
        <stop offset="0%" style="stop-color:#E2D9F3"/>
        <stop offset="100%" style="stop-color:#C9B8E8"/>
      </linearGradient>
    </defs>
    <rect width="200" height="150" fill="url(#bg7764)" rx="16"/>
  
  <g>
      <ellipse cx="60.08693735289853" cy="97.67048689561852" rx="11.780324597079016" ry="7.362702873174385" fill="#B298DC"/>
      <rect x="67.44964022607292" y="62.329513104381476" width="3.5340973791237045" height="35.34097379123705" fill="#B298DC"/>
      <path d="M70.98373760519662 62.329513104381476 Q83.64758654705656 71.16475655219074 70.98373760519662 77.05491885073025" stroke="#B298DC" stroke-width="2.945081149269754" fill="none"/>
    </g>
  <g>
      <ellipse cx="97.60645965452568" cy="74.48501287348336" rx="9.656675248988904" ry="6.035422030618065" fill="#C9B8E8"/>
      <rect x="103.64188168514374" y="45.514987126516644" width="2.897002574696671" height="28.970025746966712" fill="#C9B8E8"/>
      <path d="M106.53888425984042 45.514987126516644 Q116.91981015250349 52.75749356325832 106.53888425984042 57.585831187752774" stroke="#C9B8E8" stroke-width="2.414168812247226" fill="none"/>
    </g>
  <g>
      <ellipse cx="136.4769055545912" cy="89.54237539730639" rx="9.694916931537591" ry="6.0593230822109945" fill="#B298DC"/>
      <rect x="142.5362286368022" y="60.45762460269361" width="2.9084750794612773" height="29.084750794612773" fill="#B298DC"/>
      <path d="M145.4447037162635 60.45762460269361 Q155.8667394176664 67.7288123013468 145.4447037162635 72.5762707671156" stroke="#B298DC" stroke-width="2.423729232884398" fill="none"/>
    </g>
  <path d="M31.36397398335248 60 Q41.36397398335248 55 31.36397398335248 50" stroke="#FFE566" stroke-width="2" fill="none" opacity="0.8"/>
  <path d="M31.427219179877284 75 Q41.427219179877284 70 31.427219179877284 65" stroke="#FFE566" stroke-width="2" fill="none" opacity="0.6000000000000001"/>
  <path d="M38.76726958367726 90 Q48.76726958367726 85 38.76726958367726 80" stroke="#FFE566" stroke-width="2" fill="none" opacity="0.4"/>
  <g>
      <polygon points="157.78075869449822,32 158.9807586944982,38.8 165.78075869449822,40 158.9807586944982,41.2 157.78075869449822,48 156.58075869449823,41.2 149.78075869449822,40 156.58075869449823,38.8" fill="#FFF3B0"/>
    </g>
</svg>