<svg xmlns="http://www.w3.org/2000/svg" viewBox="0 0 200 150" width="200" height="150">
  
    <defs>
      <linearGradient id="bg7773" gradientTransform="rotate(90)">
        <stop offset="0%" style="stop-color:#D4E9FF"/>
        <stop offset="100%" style="stop-color:#A8D0F0"/>
      </linearGradient>
    </defs>
    <rect width="200" height="150" fill="url(#bg7773)" rx="16"/>
  
  <rect x="42.47003088677047" y="66.19550045767937" width="30" height="48.80449954232063" rx="4" fill="#B7E4C7" opacity="1"/>
  <ellipse cx="57.47003088677047" cy="66.19550045767937" rx="15" ry="5" fill="#B7E4C7" opacity="1"/>
  <path d="M57.47003088677047,44.19550045767937 Q64.47003088677047,57.19550045767937 57.47003088677047,61.19550045767937 Q50.47003088677047,57.19550045767937 57.47003088677047,44.19550045767937Z" fill="#B7E4C7"/>
  <rect x="94.14147578017946" y="74.91639695072536" width="30" height="40.08360304927464" rx="4" fill="#FFE566" opacity="1"/>
  <ellipse cx="109.14147578017946" cy="74.91639695072536" rx="15" ry="5" fill="#FFE566" opacity="1"/>
  <path d="M109.14147578017946,52.91639695072536 Q116.14147578017946,65.91639695072536 109.14147578017946,69.91639695072536 Q102.14147578017946,65.91639695072536 109.14147578017946,52.91639695072536Z" fill="#FFE566"/>
  <rect x="147.36174526007972" y="77.06136770600779" width="30" height="37.938632293992214" rx="4" fill="#A8D0F0" opacity="1"/>
  <ellipse cx="162.36174526007972" cy="77.06136770600779" rx="15" ry="5" fill="#A8D0F0" opacity="1"/>
  <path d="M162.36174526007972,55.061367706007786 Q169.36174526007972,68.06136770600779 162.36174526007972,72.06136770600779 Q155.36174526007972,68.06136770600779 162.36174526007972,55.061367706007786Z" fill="#A8D0F0"/>
  <circle cx="106.30443280999316" cy="52.37957573566291" r="10.18080959598592" fill="#FFE566" opacity="0.6"/>
  <circle cx="85.06727840272106" cy="46.73384105475179" r="9.658851323736599" fill="#FFE566" opacity="0.6"/>
  <circle cx="65.8055134476308" cy="34.55669864135416" r="10.580519690207439" fill="#FFE566" opacity="0.6"/>
  <circle cx="155.93212772035258" cy="33.26971344637059" r="5.177753076502995" fill="#B7E4C7" opacity="0.6"/>
  <circle cx="154.44255707885532" cy="57.78216050046467" r="7.287855912247323" fill="#B7E4C7" opacity="0.6"/>
  <rect x="155" y="50" width="8" height="40" rx="2" fill="#8B4513" opacity="1"/>
  <rect x="153" y="85" width="12" height="20" rx="3" fill="#B7E4C7" opacity="1"/>
</svg>