<svg xmlns="http://www.w3.org/2000/svg" viewBox="0 0 200 150" width="200" height="150">
  
    <defs>
      <linearGradient id="bg7790" gradientTransform="rotate(0)">
        <stop offset="0%" style="stop-color:#E2D9F3"/>
        <stop offset="100%" style="stop-color:#C9B8E8"/>
      </linearGradient>
    </defs>
    <rect width="200" height="150" fill="url(#bg7790)" rx="16"/>
  
  <rect x="40" y="70" width="120" height="50" rx="8" fill="#C9B8E8"/>
  <rect x="50" y="60" width="80" height="20" rx="8" fill="white"/>
  <rect x="45" y="85" width="110" height="30" rx="6" fill="#C9B8E8"/>
  <path d="M150 25 A20 20 0 1 1 170 45 A15 15 0 1 0 150 25" fill="#FFE566"/>
  <polygon points="69.4870968475152,29.99487049606887 71.78082706466715,34.642475548189736 76.90976375226428,35.38775367358699 73.19843029988974,39.005409687480665 74.07455728181911,44.11362195216884 69.4870968475152,41.70185127623972 64.8996364132113,44.11362195216884 65.77576339514067,39.005409687480665 62.06442994276613,35.387753673586985 67.19336663036324,34.642475548189736" fill="#FFF3B0"/>
  <polygon points="56.54411947264521,29.459964232370112 58.79345480543482,34.01761542361063 63.823121513744496,34.74846877666658 60.18362049319485,38.29610547477561 61.04279013822443,43.30544887899652 56.54411947264521,40.94035774692384 52.04544880706599,43.30544887899652 52.90461845209556,38.29610547477561 49.26511743154592,34.74846877666657 54.294784139855594,34.01761542361063" fill="#FFF3B0"/>
  <polygon points="77.23884537346748,19.986277597715343 79.4061272610278,24.377670349432368 84.25231688801674,25.081862921989547 80.74558113074211,28.500085473057776 81.57340914858813,33.326693169240365 77.23884537346748,31.04787813519488 72.90428159834684,33.326693169240365 73.73210961619286,28.500085473057776 70.22537385891823,25.081862921989547 75.07156348590716,24.377670349432368" fill="#FFF3B0"/>
  <polygon points="66.19374294343288,15.1170854912707 68.2614225122175,19.30666190186645 72.88489458370735,19.978491719262934 69.53931876357012,23.23962215687237 70.32910208100212,27.844412229274784 66.19374294343288,25.67032527086849 62.05838380586365,27.844412229274784 62.848167123295646,23.23962215687237 59.50259130315841,19.97849171926293 64.12606337464827,19.30666190186645" fill="#FFF3B0"/>
  <text x="165" y="70" fill="#B298DC" font-size="14" font-weight="bold">z</text>
  <text x="172" y="60" fill="#B298DC" font-size="12" font-weight="bold">z</text>
  <text x="178" y="52" fill="#B298DC" font-size="10" font-weight="bold">z</text>
</svg>