<svg xmlns="http://www.w3.org/2000/svg" viewBox="0 0 200 150" width="200" height="150">
  
    <defs>
      <linearGradient id="bg7797" gradientTransform="rotate(0)">
        <stop offset="0%" style="stop-color:#FFF3B0"/>
        <stop offset="100%" style="stop-color:#FFE566"/>
      </linearGradient>
    </defs>
    <rect width="200" height="150" fill="url(#bg7797)" rx="16"/>
  
  <rect x="40" y="70" width="120" height="50" rx="8" fill="#C9B8E8"/>
  <rect x="50" y="60" width="80" height="20" rx="8" fill="white"/>
  <rect x="45" y="85" width="110" height="30" rx="6" fill="#FFE566"/>
  <path d="M150 25 A20 20 0 1 1 170 45 A15 15 0 1 0 150 25" fill="#FFE566"/>
  <polygon points="48.51201904810296,22.284589060888266 51.029351341316435,27.38526140514196 56.65827747089721,28.20319224917017 52.58514825950009,32.173511967423764 53.54668363452992,37.77969337373378 48.51201904810296,35.13281356156472 43.47735446167599,37.77969337373378 44.438889836705826,32.173511967423764 40.3657606253087,28.203192249170165 45.99468675488948,27.38526140514196" fill="#FFF3B0"/>
  <polygon points="54.277401828530856,14.596302384309865 55.90849923886201,17.901266720599164 59.555743926286326,18.43124239569024 56.91657287740859,21.003798362214344 57.53959664919316,24.6363056789206 54.277401828530856,22.92126836790453 51.01520700786856,24.6363056789206 51.63823077965312,21.003798362214344 48.999059730775386,18.43124239569024 52.646304418199705,17.901266720599164" fill="#FFF3B0"/>
  <polygon points="84.8286041240317,32.51762950590273 87.31916348281959,37.56405395981342 92.8882235110676,38.37328575012081 88.85841381754965,42.30137937460363 89.80972284160748,47.847936579701205 84.8286041240317,45.22920749671266 79.84748540645593,47.847936579701205 80.79879443051375,42.30137937460363 76.7689847369958,38.37328575012081 82.33804476524381,37.56405395981342" fill="#FFF3B0"/>
  <polygon points="86.99254682828723,20.47124912447316 89.59112497226906,25.736543543141362 95.40172234705764,26.580872764321406 91.19713458767244,30.679332897013513 92.18970311625087,36.46645147206571 86.99254682828723,33.734144716937635 81.7953905403236,36.46645147206571 82.78795906890203,30.679332897013513 78.58337130951682,26.580872764321402 84.3939686843054,25.736543543141362" fill="#FFF3B0"/>
  <text x="165" y="70" fill="#FFD93D" font-size="14" font-weight="bold">z</text>
  <text x="172" y="60" fill="#FFD93D" font-size="12" font-weight="bold">z</text>
  <text x="178" y="52" fill="#FFD93D" font-size="10" font-weight="bold">z</text>
</svg>