<svg xmlns="http://www.w3.org/2000/svg" viewBox="0 0 200 150" width="200" height="150">
  
    <defs>
      <linearGradient id="bg7821" gradientTransform="rotate(0)">
        <stop offset="0%" style="stop-color:#D8F3DC"/>
        <stop offset="100%" style="stop-color:#B7E4C7"/>
      </linearGradient>
    </defs>
    <rect width="200" height="150" fill="url(#bg7821)" rx="16"/>
  
  <rect x="35" y="61.39115339203272" width="60" height="70" rx="4" fill="white" opacity="1"/>
  <rect x="105" y="61.39115339203272" width="60" height="70" rx="4" fill="#FFF8F0" opacity="1"/>
  <line x1="100" y1="61.39115339203272" x2="100" y2="131.39115339203272" stroke="#95D5B2" stroke-width="3"/>
  <line x1="45" y1="76.39115339203272" x2="83.99918589418195" y2="76.39115339203272" stroke="#DDD" stroke-width="2"/>
  <line x1="115" y1="76.39115339203272" x2="153.99918589418195" y2="76.39115339203272" stroke="#DDD" stroke-width="2"/>
  <line x1="45" y1="88.39115339203272" x2="82.59763175471448" y2="88.39115339203272" stroke="#DDD" stroke-width="2"/>
  <line x1="115" y1="88.39115339203272" x2="152.59763175471448" y2="88.39115339203272" stroke="#DDD" stroke-width="2"/>
  <line x1="45" y1="100.39115339203272" x2="87.0715747082238" y2="100.39115339203272" stroke="#DDD" stroke-width="2"/>
  <line x1="115" y1="100.39115339203272" x2="157.0715747082238" y2="100.39115339203272" stroke="#DDD" stroke-width="2"/>
  <line x1="45" y1="112.39115339203272" x2="80.30657536032777" y2="112.39115339203272" stroke="#DDD" stroke-width="2"/>
  <line x1="115" y1="112.39115339203272" x2="150.30657536032777" y2="112.39115339203272" stroke="#DDD" stroke-width="2"/>
  <line x1="45" y1="124.39115339203272" x2="86.26762891959515" y2="124.39115339203272" stroke="#DDD" stroke-width="2"/>
  <line x1="115" y1="124.39115339203272" x2="156.26762891959515" y2="124.39115339203272" stroke="#DDD" stroke-width="2"/>
  <polygon points="70,61.39115339203272 72.3511410091699,66.15508541453293 77.60845213036123,66.91901743703315 73.80422606518061,70.6272213695325 74.70228201833979,75.86328934703229 70,73.39115339203272 65.29771798166021,75.86328934703229 66.19577393481939,70.6272213695325 62.39154786963877,66.91901743703313 67.6488589908301,66.15508541453293" fill="#FFE566"/>
  <polygon points="140,61.39115339203272 142.35114100916988,66.15508541453293 147.60845213036123,66.91901743703315 143.80422606518061,70.6272213695325 144.7022820183398,75.86328934703229 140,73.39115339203272 135.2977179816602,75.86328934703229 136.19577393481939,70.6272213695325 132.39154786963877,66.91901743703313 137.64885899083012,66.15508541453293" fill="#FFE566"/>
  <g>
      <polygon points="25,32 26.2,38.8 33,40 26.2,41.2 25,48 23.8,41.2 17,40 23.8,38.8" fill="#FFF3B0"/>
    </g>
  <g>
      <polygon points="175,39 175.9,44.1 181,45 175.9,45.9 175,51 174.1,45.9 169,45 174.1,44.1" fill="#B7E4C7"/>
    </g>
</svg>