<svg xmlns="http://www.w3.org/2000/svg" viewBox="0 0 200 150" width="200" height="150">
  
    <defs>
      <linearGradient id="bg7841" gradientTransform="rotate(90)">
        <stop offset="0%" style="stop-color:#D0F0F0"/>
        <stop offset="100%" style="stop-color:#A0E0E0"/>
      </linearGradient>
    </defs>
    <rect width="200" height="150" fill="url(#bg7841)" rx="16"/>
  
  <ellipse cx="100" cy="95" rx="55" ry="20" fill="#F5F5F5" opacity="1"/>
  <ellipse cx="100" cy="90" rx="50" ry="18" fill="white" opacity="1"/>
  <circle cx="120" cy="75" r="8" fill="#C9B8E8" opacity="1"/>
  <circle cx="130" cy="80" r="8" fill="#C9B8E8" opacity="1"/>
  <circle cx="115" cy="85" r="8" fill="#C9B8E8" opacity="1"/>
  <circle cx="125" cy="90" r="8" fill="#C9B8E8" opacity="1"/>
  <circle cx="135" cy="85" r="8" fill="#C9B8E8" opacity="1"/>
  <polygon points="70,95 85,95 90,70" fill="#FF9999"/>
  <path d="M82,57 Q88.4,65 82,73 Q75.6,65 82,57Z" fill="#B7E4C7" transform="rotate(-20 82 65)"/>
  <path d="M88,61 Q93.6,68 88,75 Q82.4,68 88,61Z" fill="#95D5B2" transform="rotate(10 88 68)"/>
  <path d="M110 90 Q130 60 150 80" stroke="#FFE566" stroke-width="16" fill="none" stroke-linecap="round"/>
</svg>