<svg xmlns="http://www.w3.org/2000/svg" viewBox="0 0 200 150" width="200" height="150">
  
    <defs>
      <linearGradient id="bg7877" gradientTransform="rotate(45)">
        <stop offset="0%" style="stop-color:#FFF3B0"/>
        <stop offset="100%" style="stop-color:#FFE566"/>
      </linearGradient>
    </defs>
    <rect width="200" height="150" fill="url(#bg7877)" rx="16"/>
  
  <g>
      <ellipse cx="65.1510212051835" cy="93.31935411004633" rx="8.879569406697556" ry="5.549730879185972" fill="#FFD93D"/>
      <rect x="70.70075208436947" y="66.68064588995367" width="2.6638708220092666" height="26.638708220092667" fill="#FFD93D"/>
      <path d="M73.36462290637874 66.68064588995367 Q82.91016001857861 73.34032294497683 73.36462290637874 77.78010764832561" stroke="#FFD93D" stroke-width="2.219892351674389" fill="none"/>
    </g>
  <g>
      <ellipse cx="104.90153820038358" cy="72.36232725582158" rx="8.241551503881055" ry="5.15096968992566" fill="#FFE566"/>
      <rect x="110.05250789030924" y="47.63767274417842" width="2.4724654511643167" height="24.724654511643166" fill="#FFE566"/>
      <path d="M112.52497334147355 47.63767274417842 Q121.3846412081457 53.81883637208921 112.52497334147355 57.939612124029736" stroke="#FFE566" stroke-width="2.060387875970264" fill="none"/>
    </g>
  <g>
      <ellipse cx="130.17421345859475" cy="88.40740005345833" rx="8.938266702305555" ry="5.586416688940972" fill="#FFD93D"/>
      <rect x="135.76063014753572" y="61.59259994654167" width="2.6814800106916663" height="26.814800106916664" fill="#FFD93D"/>
      <path d="M138.4421101582274 61.59259994654167 Q148.05074686320586 68.29629997327083 138.4421101582274 72.76543332442361" stroke="#FFD93D" stroke-width="2.2345666755763887" fill="none"/>
    </g>
  <path d="M37.88052977230336 60 Q47.88052977230336 55 37.88052977230336 50" stroke="#FFE566" stroke-width="2" fill="none" opacity="0.8"/>
  <path d="M34.35595925491725 75 Q44.35595925491725 70 34.35595925491725 65" stroke="#FFE566" stroke-width="2" fill="none" opacity="0.6000000000000001"/>
  <path d="M32.98345979897931 90 Q42.98345979897931 85 32.98345979897931 80" stroke="#FFE566" stroke-width="2" fill="none" opacity="0.4"/>
  <g>
      <polygon points="141.62444792743372,32 142.8244479274337,38.8 149.62444792743372,40 142.8244479274337,41.2 141.62444792743372,48 140.42444792743373,41.2 133.62444792743372,40 140.42444792743373,38.8" fill="#FFF3B0"/>
    </g>
</svg>