<svg xmlns="http://www.w3.org/2000/svg" viewBox="0 0 200 150" width="200" height="150">
  
    <defs>
      <linearGradient id="bg7888" gradientTransform="rotate(135)">
        <stop offset="0%" style="stop-color:#FFE5D9"/>
        <stop offset="100%" style="stop-color:#FFCDB2"/>
      </linearGradient>
    </defs>
    <rect width="200" height="150" fill="url(#bg7888)" rx="16"/>
  
  <ellipse cx="100" cy="95" rx="55" ry="20" fill="#F5F5F5" opacity="1"/>
  <ellipse cx="100" cy="90" rx="50" ry="18" fill="white" opacity="1"/>
  <polygon points="70,95 85,95 90,70" fill="#FF9999"/>
  <path d="M82,57 Q88.4,65 82,73 Q75.6,65 82,57Z" fill="#B7E4C7" transform="rotate(-20 82 65)"/>
  <path d="M88,61 Q93.6,68 88,75 Q82.4,68 88,61Z" fill="#95D5B2" transform="rotate(10 88 68)"/>
  <path d="M110 90 Q130 60 150 80" stroke="#FFE566" stroke-width="16" fill="none" stroke-linecap="round"/>
  <circle cx="80" cy="75" r="18" fill="#FFB3B3" opacity="1"/>
  <rect x="78" y="55" width="4" height="10" rx="1" fill="#8B4513" opacity="1"/>
  <path d="M88,50 Q94.4,58 88,66 Q81.6,58 88,50Z" fill="#B7E4C7" transform="rotate(30 88 58)"/>
</svg>