<svg xmlns="http://www.w3.org/2000/svg" viewBox="0 0 200 150" width="200" height="150">
  
    <defs>
      <linearGradient id="bg1236" gradientTransform="rotate(0)">
        <stop offset="0%" style="stop-color:#D4E9FF"/>
        <stop offset="100%" style="stop-color:#A8D0F0"/>
      </linearGradient>
    </defs>
    <rect width="200" height="150" fill="url(#bg1236)" rx="16"/>
  
  <circle cx="178.66281553106091" cy="55.172233607754606" r="4.580963986240931" fill="#A8D0F0" opacity="0.29346309840493634"/><circle cx="159.10573380224378" cy="87.0712107246618" r="3.3421147252101946" fill="#A8D0F0" opacity="0.38467463255747136"/><circle cx="177.21742558096594" cy="143.39531234072638" r="2.042408419181811" fill="#A8D0F0" opacity="0.24820658267212822"/><circle cx="53.67211081129426" cy="85.09423229518234" r="4.06462087545674" fill="#A8D0F0" opacity="0.3748270228102001"/><circle cx="186.72002066596178" cy="110.78821912205967" r="3.8073638382284116" fill="#A8D0F0" opacity="0.24975530536794396"/><circle cx="145.0060367513288" cy="143.82175220880526" r="4.5471326145734565" fill="#A8D0F0" opacity="0.3723599667408962"/><circle cx="103.67118144786218" cy="114.82673861223702" r="3.359874313879118" fill="#A8D0F0" opacity="0.3647233226536173"/><circle cx="61.05931727543066" cy="79.41340233801384" r="4.125935554358875" fill="#A8D0F0" opacity="0.4974793403036529"/>
  
          <ellipse cx="47.95014432649168" cy="95" rx="12" ry="8" fill="#7BB8E0"/>
          <rect x="57.95014432649168" y="60" width="4" height="35" fill="#7BB8E0"/>
        
  
          <ellipse cx="93.96193258991048" cy="70" rx="12" ry="8" fill="#A8D0F0"/>
          <rect x="103.96193258991048" y="35" width="4" height="35" fill="#A8D0F0"/>
        
  
          <ellipse cx="146.5227412432705" cy="90" rx="12" ry="8" fill="#7BB8E0"/>
          <rect x="156.5227412432705" y="55" width="4" height="35" fill="#7BB8E0"/>
        
  
      <text x="40" y="40" fill="#7BB8E0" font-size="14" opacity="0.7">♪</text>
      <text x="55" y="30" fill="#7BB8E0" font-size="12" opacity="0.5">♫</text>
      <text x="30" y="52" fill="#7BB8E0" font-size="10" opacity="0.4">♪</text>
    
  
      <text x="150" y="50" fill="#FFB3B3" font-size="14" opacity="0.7">♪</text>
      <text x="165" y="40" fill="#FFB3B3" font-size="12" opacity="0.5">♫</text>
      <text x="140" y="62" fill="#FFB3B3" font-size="10" opacity="0.4">♪</text>
    
  <path d="M82 30 Q100 26 118 30" stroke="#7BB8E0" stroke-width="2" fill="none" opacity="0.6"/><path d="M76 36 Q100 32 124 36" stroke="#7BB8E0" stroke-width="2" fill="none" opacity="0.44999999999999996"/><path d="M70 42 Q100 38 130 42" stroke="#7BB8E0" stroke-width="2" fill="none" opacity="0.3"/>
</svg>