<svg xmlns="http://www.w3.org/2000/svg" viewBox="0 0 200 150" width="200" height="150">
  
    <defs>
      <linearGradient id="bg4220" gradientTransform="rotate(0)">
        <stop offset="0%" style="stop-color:#FFF5EB"/>
        <stop offset="100%" style="stop-color:#FFE4CC"/>
      </linearGradient>
    </defs>
    <rect width="200" height="150" fill="url(#bg4220)" rx="16"/>
  
  <rect x="0" y="105" width="200" height="45" fill="#FFE4CC"/>
  <rect x="50" y="50" width="100" height="60" rx="6" fill="#FFE4CC"/>
  <rect x="50" y="50" width="100" height="15" rx="6" fill="#FFD3A8"/>
  <rect x="70" y="30" width="8" height="35" rx="2" fill="#FFB3B3"/>
  
      <rect x="89.5" y="22.75" width="21" height="24.5" rx="2" fill="#FFF3B0" transform="rotate(-0.04394133258074362 100 35)"/>
      <line x1="93" y1="29.75" x2="107" y2="29.75" stroke="#DDD" stroke-width="2" transform="rotate(-0.04394133258074362 100 35)"/>
      <line x1="93" y1="36.75" x2="105.25" y2="36.75" stroke="#DDD" stroke-width="2" transform="rotate(-0.04394133258074362 100 35)"/>
    
  <circle cx="130" cy="45" r="15" fill="#B7E4C7"/>
  <path d="M160 75 L175 55 M160 75 L175 95" stroke="#888" stroke-width="4" stroke-linecap="round"/>
  <ellipse cx="177" cy="50" rx="8" ry="12" fill="#FFD3A8" stroke="#FFD3A8" stroke-width="1"/>
  <ellipse cx="177" cy="100" rx="8" ry="12" fill="#FFD3A8" stroke="#FFD3A8" stroke-width="1"/>
  <polygon points="20,46.6 20.705342302750967,48.02917960675006 22.282535639108367,48.25835921350013 21.141267819554184,49.370820393249936 21.410684605501935,50.941640786499875 20,50.2 18.589315394498065,50.941640786499875 18.858732180445816,49.370820393249936 17.717464360891633,48.25835921350013 19.294657697249033,48.02917960675006" fill="#FFF3B0"/><polygon points="37.95416432311869,10.01556729508097 38.8358422015574,11.802041803518549 40.80733387200415,12.088516311956129 39.38074909756142,13.479092786643392 39.717520079996106,15.442618278205813 37.95416432311869,14.51556729508097 36.19080856624127,15.442618278205813 36.52757954867596,13.479092786643392 35.10099477423323,12.088516311956127 37.07248644467998,11.802041803518549" fill="#FFF3B0"/><polygon points="-8.767728239894154,45.337757746417914 -7.709714785767702,47.48152715654301 -5.3439247812316015,47.82529656666811 -7.055826510562878,49.49398833629282 -6.6517013316412505,51.85021892616773 -8.767728239894154,50.73775774641791 -10.883755148147056,51.85021892616773 -10.47962996922543,49.49398833629282 -12.191531698556707,47.8252965666681 -9.825741694020605,47.48152715654301" fill="#FFF3B0"/><polygon points="48.13999930324216,8.93994414185314 49.37434833305636,11.441008453665749 52.13443667168181,11.84207276547836 50.13721798746199,13.788879830040528 50.60869736287055,16.53781551822792 48.13999930324216,15.239944141853139 45.671301243613776,16.53781551822792 46.14278061902234,13.788879830040528 44.145561934802515,11.842072765478358 46.905650273427966,11.441008453665749" fill="#FFF3B0"/>
  <polygon points="175,27 175.88167787843872,28.78647450843758 177.85316954888546,29.072949016875157 176.42658477444272,30.46352549156242 176.76335575687742,32.42705098312484 175,31.5 173.23664424312258,32.42705098312484 173.57341522555728,30.46352549156242 172.14683045111454,29.072949016875157 174.11832212156128,28.78647450843758" fill="#FFE566"/>
</svg>