<svg xmlns="http://www.w3.org/2000/svg" viewBox="0 0 200 150" width="200" height="150">
  
    <defs>
      <linearGradient id="bg5122" gradientTransform="rotate(45)">
        <stop offset="0%" style="stop-color:#D8F3DC"/>
        <stop offset="100%" style="stop-color:#B7E4C7"/>
      </linearGradient>
    </defs>
    <rect width="200" height="150" fill="url(#bg5122)" rx="16"/>
  
  <rect x="0" y="100" width="200" height="50" rx="0" fill="#C5DBC5"/>
  <circle cx="165" cy="35" r="22" fill="#FFE566"/>
  <line x1="191" y1="35" x2="200" y2="35" stroke="#FFF3B0" stroke-width="3" stroke-linecap="round"/>
  <line x1="183.38477631085024" y1="53.384776310850235" x2="189.74873734152916" y2="59.748737341529164" stroke="#FFF3B0" stroke-width="3" stroke-linecap="round"/>
  <line x1="165" y1="61" x2="165" y2="70" stroke="#FFF3B0" stroke-width="3" stroke-linecap="round"/>
  <line x1="146.61522368914976" y1="53.38477631085024" x2="140.25126265847084" y2="59.748737341529164" stroke="#FFF3B0" stroke-width="3" stroke-linecap="round"/>
  <line x1="139" y1="35" x2="130" y2="35.00000000000001" stroke="#FFF3B0" stroke-width="3" stroke-linecap="round"/>
  <line x1="146.61522368914976" y1="16.615223689149765" x2="140.25126265847084" y2="10.25126265847084" stroke="#FFF3B0" stroke-width="3" stroke-linecap="round"/>
  <line x1="165" y1="9" x2="165" y2="0" stroke="#FFF3B0" stroke-width="3" stroke-linecap="round"/>
  <line x1="183.38477631085024" y1="16.61522368914976" x2="189.74873734152916" y2="10.251262658470832" stroke="#FFF3B0" stroke-width="3" stroke-linecap="round"/>
  <rect x="90" y="55" width="14" height="50" rx="2" fill="#8B6914"/>
  <path d="M75,39 Q80,45 75,51 Q70,45 75,39Z" fill="#B7E4C7" transform="rotate(-28.27625983827602 75 45)"/>
  <path d="M97,28.4 Q102.5,35 97,41.6 Q91.5,35 97,28.4Z" fill="#A3C4A3" transform="rotate(1.707006478391122 97 35)"/>
  <path d="M120,44.6 Q124.5,50 120,55.4 Q115.5,50 120,44.6Z" fill="#B7E4C7" transform="rotate(-1.4412251127942 120 50)"/>
  <path d="M85,50.5 Q88.75,55 85,59.5 Q81.25,55 85,50.5Z" fill="#95D5B2" transform="rotate(7.328081646719511 85 55)"/>
  <path d="M110,40.2 Q114,45 110,49.8 Q106,45 110,40.2Z" fill="#B7E4C7" transform="rotate(-1.7816504108486697 110 45)"/>
  <ellipse cx="52.4" cy="95" rx="1.7999999999999998" ry="2.64" fill="#FFB3B3" transform="rotate(0 52.4 95)"/><ellipse cx="50.74164078649987" cy="97.28253563910837" rx="1.7999999999999998" ry="2.64" fill="#FFB3B3" transform="rotate(72 50.74164078649987 97.28253563910837)"/><ellipse cx="48.058359213500125" cy="96.41068460550194" rx="1.7999999999999998" ry="2.64" fill="#FFB3B3" transform="rotate(144 48.058359213500125 96.41068460550194)"/><ellipse cx="48.058359213500125" cy="93.58931539449806" rx="1.7999999999999998" ry="2.64" fill="#FFB3B3" transform="rotate(216 48.058359213500125 93.58931539449806)"/><ellipse cx="50.74164078649987" cy="92.71746436089163" rx="1.7999999999999998" ry="2.64" fill="#FFB3B3" transform="rotate(288 50.74164078649987 92.71746436089163)"/><circle cx="50" cy="95" r="1.44" fill="#FFD93D"/>
  
      <ellipse cx="55" cy="50" rx="3" ry="6" fill="#333"/>
      <ellipse cx="48" cy="45" rx="8" ry="6" fill="#C9B8E8"/>
      <ellipse cx="62" cy="45" rx="8" ry="6" fill="#C9B8E8"/>
      <ellipse cx="50" cy="52" rx="6" ry="4" fill="#FFB3B3"/>
      <ellipse cx="60" cy="52" rx="6" ry="4" fill="#FFB3B3"/>
    
</svg>