<svg xmlns="http://www.w3.org/2000/svg" viewBox="0 0 200 150" width="200" height="150">
  
    <defs>
      <linearGradient id="bg5211" gradientTransform="rotate(135)">
        <stop offset="0%" style="stop-color:#FFF3B0"/>
        <stop offset="100%" style="stop-color:#FFE566"/>
      </linearGradient>
    </defs>
    <rect width="200" height="150" fill="url(#bg5211)" rx="16"/>
  
  <circle cx="103.29424041192397" cy="59.33138581505773" r="3" fill="#D8F3DC" opacity="0.7"/><circle cx="139.52311478751653" cy="55.323066381351964" r="3" fill="#FFD6D6" opacity="0.7"/><circle cx="48.79805714426766" cy="0.07217507780296728" r="3" fill="#FFD6D6" opacity="0.7"/><circle cx="67.63403872091658" cy="17.634686435012554" r="3" fill="#D8F3DC" opacity="0.7"/><rect x="110.97134860101505" y="48.68969539993486" width="6" height="3" rx="1" fill="#D8F3DC" transform="rotate(334.2614648069866 110.97134860101505 48.68969539993486)" opacity="0.7"/><rect x="13.611799161117233" y="53.48437997035944" width="6" height="3" rx="1" fill="#D8F3DC" transform="rotate(357.2800233156522 13.611799161117233 53.48437997035944)" opacity="0.7"/><circle cx="116.86223724755109" cy="57.03997306221936" r="3" fill="#FFF3B0" opacity="0.7"/><circle cx="159.8769812801038" cy="32.14513611075745" r="3" fill="#FFF3B0" opacity="0.7"/><rect x="57.56686824133794" y="39.09911843349619" width="6" height="3" rx="1" fill="#D8F3DC" transform="rotate(86.69725856234436 57.56686824133794 39.09911843349619)" opacity="0.7"/><rect x="61.280626040570496" y="18.980241636454593" width="6" height="3" rx="1" fill="#D8F3DC" transform="rotate(354.2617481549678 61.280626040570496 18.980241636454593)" opacity="0.7"/>
  
        <rect x="72.56250831620127" y="89.77982529668952" width="51.09730054374086" height="25.220174703310477" rx="4" fill="#FFB3B3"/>
        <rect x="77.56250831620127" y="93.77982529668952" width="12.774325135935214" height="10.088069881324191" rx="2" fill="white" opacity="0.3"/>
      
  
        <rect x="75.86989395021192" y="66.99061516483562" width="45.44402834392167" height="22.789210131853906" rx="4" fill="#B7E4C7"/>
        <rect x="80.86989395021192" y="70.99061516483562" width="11.361007085980418" height="9.115684052741562" rx="2" fill="white" opacity="0.3"/>
      
  
        <rect x="80.48198446357128" y="42.95089641237064" width="35.595770058367634" height="24.039718752464978" rx="4" fill="#C9B8E8"/>
        <rect x="85.48198446357128" y="46.95089641237064" width="8.898942514591909" height="9.615887500985991" rx="2" fill="white" opacity="0.3"/>
      
  <polygon points="45,45.8 46.2343490298142,48.30106431181261 48.99443736843965,48.70212862362522 46.997218684219824,50.64893568818739 47.46869805962839,53.39787137637478 45,52.1 42.53130194037161,53.39787137637478 43.002781315780176,50.64893568818739 41.00556263156035,48.70212862362522 43.7656509701858,48.30106431181261" fill="#FFE566"/>
  <polygon points="160,41.4 161.05801345412644,43.543769410125094 163.42380345866255,43.88753882025019 161.7119017293313,45.55623058987491 162.1160269082529,47.91246117974981 160,46.8 157.8839730917471,47.91246117974981 158.2880982706687,45.55623058987491 156.57619654133745,43.887538820250185 158.94198654587356,43.543769410125094" fill="#FFF3B0"/>
  <polygon points="100,22 100.88167787843871,23.78647450843758 102.85316954888546,24.072949016875157 101.42658477444273,25.46352549156242 101.76335575687742,27.427050983124843 100,26.5 98.23664424312258,27.427050983124843 98.57341522555727,25.46352549156242 97.14683045111454,24.072949016875157 99.11832212156129,23.78647450843758" fill="#FFB3B3"/>
  
      <path d="M55 90 L45 80" stroke="#FFD93D" stroke-width="2" stroke-dasharray="4,3" opacity="0.4"/>
      <path d="M145 85 L155 75" stroke="#FFD93D" stroke-width="2" stroke-dasharray="4,3" opacity="0.4"/>
    
</svg>