<svg xmlns="http://www.w3.org/2000/svg" viewBox="0 0 200 150" width="200" height="150">
  
    <defs>
      <linearGradient id="bg5406" gradientTransform="rotate(0)">
        <stop offset="0%" style="stop-color:#E8F0E8"/>
        <stop offset="100%" style="stop-color:#C5DBC5"/>
      </linearGradient>
    </defs>
    <rect width="200" height="150" fill="url(#bg5406)" rx="16"/>
  
  <path d="M10 40 Q25 30 40 40" stroke="#C5DBC5" stroke-width="3" fill="none" opacity="0.3"/>
  <path d="M25 48 Q40 38 55 48" stroke="#C5DBC5" stroke-width="3" fill="none" opacity="0.3"/>
  <path d="M40 56 Q55 46 70 56" stroke="#C5DBC5" stroke-width="3" fill="none" opacity="0.3"/>
  <path d="M55 64 Q70 54 85 64" stroke="#C5DBC5" stroke-width="3" fill="none" opacity="0.3"/>
  <path d="M70 72 Q85 62 100 72" stroke="#C5DBC5" stroke-width="3" fill="none" opacity="0.3"/>
  <rect x="25" y="90" width="55" height="28" rx="14" fill="#FFB3B3"/>
  <rect x="70" y="65" width="50" height="26" rx="13" fill="#B7E4C7"/>
  <rect x="110" y="45" width="45" height="24" rx="12" fill="#C9B8E8"/>
  
      <circle cx="160" cy="85" r="10.5" fill="#FFE566"/>
      <circle cx="156.4" cy="81.4" r="3" fill="white" opacity="0.6"/>
      <ellipse cx="160" cy="89.5" rx="7.5" ry="2.4" fill="white" opacity="0.2"/>
    
  
    <path d="M160 115 L160 130" stroke="#A3C4A3" stroke-width="2" stroke-dasharray="4,3" opacity="0.5"/>
    <ellipse cx="160" cy="133" rx="9" ry="3" fill="#A3C4A3" opacity="0.3"/>
  
  
      <path d="M165 50 Q175 45 170 35" stroke="#FFE566" stroke-width="3" fill="none"/>
      <path d="M175 55 Q185 48 178 40" stroke="#FFF3B0" stroke-width="2" fill="none"/>
    
  <polygon points="22.5,53.1 23.205342302750967,54.52917960675006 24.782535639108367,54.75835921350013 23.641267819554184,55.870820393249936 23.910684605501935,57.441640786499875 22.5,56.7 21.089315394498065,57.441640786499875 21.358732180445816,55.870820393249936 20.217464360891633,54.75835921350013 21.794657697249033,54.52917960675006" fill="#FFF3B0"/><polygon points="43.446525043638474,10.51816184426113 44.32820292207718,12.304636352698708 46.299694592523934,12.591110861136288 44.873109818081204,13.981687335823551 45.20988080051589,15.945212827385973 43.446525043638474,15.01816184426113 41.68316928676106,15.945212827385973 42.01994026919574,13.981687335823551 40.59335549475301,12.591110861136286 42.564847165199765,12.304636352698708" fill="#FFF3B0"/><polygon points="-11.062349613209847,51.82738403748757 -10.004336159083396,53.971153447612664 -7.638546154547294,54.31492285773776 -9.350447883878571,55.98361462736248 -8.946322704956943,58.33984521723738 -11.062349613209847,57.22738403748757 -13.178376521462749,58.33984521723738 -12.774251342541122,55.98361462736248 -14.4861530718724,54.314922857737756 -12.120363067336298,53.971153447612664" fill="#FFF3B0"/><polygon points="55.32999918711586,9.463268165495329 56.56434821693006,11.964332477307938 59.32443655555551,12.365396789120549 57.327217871335684,14.312203853682718 57.79869724674425,17.06113954187011 55.32999918711586,15.763268165495328 52.86130112748747,17.06113954187011 53.332780502896036,14.312203853682718 51.33556181867621,12.365396789120547 54.09565015730166,11.964332477307938" fill="#FFF3B0"/>
</svg>