<svg xmlns="http://www.w3.org/2000/svg" viewBox="0 0 200 150" width="200" height="150">
  
    <defs>
      <linearGradient id="bg5809" gradientTransform="rotate(135)">
        <stop offset="0%" style="stop-color:#FFF3B0"/>
        <stop offset="100%" style="stop-color:#FFE566"/>
      </linearGradient>
    </defs>
    <rect width="200" height="150" fill="url(#bg5809)" rx="16"/>
  
  <circle cx="103.18048205126615" cy="106.23260271668187" r="4.590915386983397" fill="#FFE566" opacity="0.3529511161230403"/><circle cx="12.631740112647094" cy="99.54693843519635" r="2.528788596419872" fill="#FFE566" opacity="0.20067044203005935"/><circle cx="95.55897178906889" cy="44.014293526970505" r="4.610125129926018" fill="#FFE566" opacity="0.44309446327642943"/><circle cx="142.63331842666958" cy="109.82218745130012" r="4.329349905420713" fill="#FFE566" opacity="0.20234856656024933"/><circle cx="138.45241296030508" cy="128.07705521950083" r="4.050124236934607" fill="#FFE566" opacity="0.4971026181397974"/><circle cx="18.17239844767755" cy="98.77146507933503" r="3.367575610676795" fill="#FFE566" opacity="0.3594041297039439"/><circle cx="70.09763731512066" cy="18.07113136717362" r="2.320930072619376" fill="#FFE566" opacity="0.3940022760973079"/><circle cx="197.88613028722466" cy="9.008826274111925" r="3.6861492914740666" fill="#FFE566" opacity="0.33807685227293405"/>
  
    <path d="M91 76.75 Q88.75 65.5 100 56.5 Q111.25 65.5 109 76.75 Z" fill="#FFE566"/>
    <circle cx="100" cy="79" r="3.6" fill="#FFE566"/>
    <ellipse cx="100" cy="55.6" rx="2.6999999999999997" ry="1.8" fill="#FFE566"/>
  
  
    <path d="M58 90.25 Q56.25 81.5 65 74.5 Q73.75 81.5 72 90.25 Z" fill="#FFE566"/>
    <circle cx="65" cy="92" r="2.8000000000000003" fill="#FFE566"/>
    <ellipse cx="65" cy="73.8" rx="2.1" ry="1.4000000000000001" fill="#FFE566"/>
  
  
    <path d="M129 94.5 Q127.5 87 135 81 Q142.5 87 141 94.5 Z" fill="#FFB3B3"/>
    <circle cx="135" cy="96" r="2.4" fill="#FFB3B3"/>
    <ellipse cx="135" cy="80.4" rx="1.7999999999999998" ry="1.2" fill="#FFB3B3"/>
  
  
      <text x="40" y="40" fill="#FFD93D" font-size="14" opacity="0.7">♪</text>
      <text x="55" y="30" fill="#FFD93D" font-size="12" opacity="0.5">♫</text>
      <text x="30" y="52" fill="#FFD93D" font-size="10" opacity="0.4">♪</text>
    
  
      <text x="150" y="50" fill="#FFB3B3" font-size="14" opacity="0.7">♪</text>
      <text x="165" y="40" fill="#FFB3B3" font-size="12" opacity="0.5">♫</text>
      <text x="140" y="62" fill="#FFB3B3" font-size="10" opacity="0.4">♪</text>
    
  <path d="M82 30 Q100 26 118 30" stroke="#FFD93D" stroke-width="2" fill="none" opacity="0.6"/><path d="M76 36 Q100 32 124 36" stroke="#FFD93D" stroke-width="2" fill="none" opacity="0.44999999999999996"/><path d="M70 42 Q100 38 130 42" stroke="#FFD93D" stroke-width="2" fill="none" opacity="0.3"/>
</svg>