<svg xmlns="http://www.w3.org/2000/svg" viewBox="0 0 200 150" width="200" height="150">
  
    <defs>
      <linearGradient id="bg6021" gradientTransform="rotate(45)">
        <stop offset="0%" style="stop-color:#FFF5EB"/>
        <stop offset="100%" style="stop-color:#FFE4CC"/>
      </linearGradient>
    </defs>
    <rect width="200" height="150" fill="url(#bg6021)" rx="16"/>
  
  <circle cx="62.2354652890408" cy="18.9848786647417" r="4.906947228196714" fill="#FFF5EB" opacity="0.3910070796297987"/><circle cx="59.65971745499701" cy="79.76960378982767" r="3.516649989549478" fill="#FFF5EB" opacity="0.29526543787224"/><circle cx="99.31317530554225" cy="115.25514713057419" r="4.717251467493043" fill="#FFF5EB" opacity="0.3843659797458486"/><circle cx="135.2901921607554" cy="85.70893884734687" r="3.0539319952183632" fill="#FFF5EB" opacity="0.4367695357510456"/><circle cx="165.96673370040662" cy="81.45780777501841" r="2.4815475895784402" fill="#FFF5EB" opacity="0.420075463007197"/><circle cx="32.94873318354803" cy="77.97532661925288" r="4.6964555612751155" fill="#FFF5EB" opacity="0.4794527850501254"/><circle cx="76.22879991718037" cy="23.444590956114553" r="2.132914111478385" fill="#FFF5EB" opacity="0.23207178482171004"/><circle cx="92.59064086145372" cy="142.36881765646103" r="3.922178783139316" fill="#FFF5EB" opacity="0.45587630985519356"/>
  <circle cx="100" cy="75" r="48" fill="#FFE5D9"/>
  <circle cx="80" cy="68" r="8" fill="#333"/>
  <circle cx="120" cy="68" r="8" fill="#333"/>
  <circle cx="78" cy="65" r="3" fill="white"/>
  <circle cx="118" cy="65" r="3" fill="white"/>
  <path d="M72 92 Q100 115 128 92" stroke="#333" stroke-width="4" fill="none" stroke-linecap="round"/>
  <ellipse cx="60" cy="82" rx="12" ry="7" fill="#FFB3B3" opacity="0.4"/>
  <ellipse cx="140" cy="82" rx="12" ry="7" fill="#FFB3B3" opacity="0.4"/>
  
      <path d="M45,42.25 C39,37 42,34 45,37.75 C48,34 51,37 45,42.25Z" fill="#FFB3B3"/>
      <path d="M65,26.5 C61,23 63,21 65,23.5 C67,21 69,23 65,26.5Z" fill="#FFB3B3"/>
      <path d="M30,51.2 C26.8,48.4 28.4,46.8 30,48.8 C31.6,46.8 33.2,48.4 30,51.2Z" fill="#FFB3B3"/>
    
</svg>