<svg xmlns="http://www.w3.org/2000/svg" viewBox="0 0 200 150" width="200" height="150">
  
    <defs>
      <linearGradient id="bg6118" gradientTransform="rotate(90)">
        <stop offset="0%" style="stop-color:#FFF5EB"/>
        <stop offset="100%" style="stop-color:#FFE4CC"/>
      </linearGradient>
    </defs>
    <rect width="200" height="150" fill="url(#bg6118)" rx="16"/>
  
  <circle cx="19.623147141828667" cy="95.36407116556802" r="4.96007090331841" fill="#FFF5EB" opacity="0.4134191797043514"/><circle cx="133.74625790129357" cy="88.27893325421883" r="2.4626340795193755" fill="#FFF5EB" opacity="0.3746356148376435"/><circle cx="90.90283627556346" cy="96.710171500672" r="3.6720063194115937" fill="#FFF5EB" opacity="0.2132027214205664"/><circle cx="110.4337010812742" cy="58.20527392088479" r="3.025249726637412" fill="#FFF5EB" opacity="0.3414739151947288"/><circle cx="102.12281985004665" cy="82.306591289489" r="2.482608734361065" fill="#FFF5EB" opacity="0.3366292474489455"/><circle cx="96.58404406527552" cy="23.933059209412022" r="3.3671402491281697" fill="#FFF5EB" opacity="0.23721484347843216"/><circle cx="112.39022305949788" cy="98.39188627775002" r="4.84651422490424" fill="#FFF5EB" opacity="0.3053592017600636"/><circle cx="36.82435924492893" cy="86.20763451867788" r="2.1028226932521648" fill="#FFF5EB" opacity="0.27931155846308686"/>
  <circle cx="100" cy="75" r="48" fill="#FFE5D9"/>
  <circle cx="80" cy="68" r="8" fill="#333"/>
  <circle cx="120" cy="68" r="8" fill="#333"/>
  <circle cx="78" cy="65" r="3" fill="white"/>
  <circle cx="118" cy="65" r="3" fill="white"/>
  <path d="M72 92 Q100 115 128 92" stroke="#333" stroke-width="4" fill="none" stroke-linecap="round"/>
  <ellipse cx="60" cy="82" rx="12" ry="7" fill="#FFB3B3" opacity="0.4"/>
  <ellipse cx="140" cy="82" rx="12" ry="7" fill="#FFB3B3" opacity="0.4"/>
  
      <path d="M45,42.25 C39,37 42,34 45,37.75 C48,34 51,37 45,42.25Z" fill="#FFB3B3"/>
      <path d="M65,26.5 C61,23 63,21 65,23.5 C67,21 69,23 65,26.5Z" fill="#FFB3B3"/>
      <path d="M30,51.2 C26.8,48.4 28.4,46.8 30,48.8 C31.6,46.8 33.2,48.4 30,51.2Z" fill="#FFB3B3"/>
    
</svg>