<svg xmlns="http://www.w3.org/2000/svg" viewBox="0 0 200 150" width="200" height="150">
  
    <defs>
      <linearGradient id="bg6142" gradientTransform="rotate(135)">
        <stop offset="0%" style="stop-color:#FFF5EB"/>
        <stop offset="100%" style="stop-color:#FFE4CC"/>
      </linearGradient>
    </defs>
    <rect width="200" height="150" fill="url(#bg6142)" rx="16"/>
  
  <rect x="0" y="0" width="200" height="150" fill="#1a1a3e"/>
  <polygon points="150.04448743526154,33.73180457616782 150.40103599922077,34.45425087555909 151.19830282551357,34.57010052665301 150.62139513038755,35.13244654581731 150.75758456318002,35.926491867169446 150.04448743526154,35.551594521059904 149.33139030734307,35.926491867169446 149.46757974013553,35.13244654581731 148.89067204500952,34.57010052665301 149.68793887130232,34.45425087555909" fill="#FFF3B0"/>
  <polygon points="53.48098681925876,57.92233318676472 53.74079122589137,58.44875441267866 54.321731539975886,58.5331699815617 53.90135917961732,58.94293176045894 54.00059563252398,59.52152467712226 53.48098681925876,59.24835015785743 52.96137800599354,59.52152467712226 53.0606144589002,58.94293176045894 52.640242098541634,58.5331699815617 53.22118241262615,58.44875441267866" fill="#FFF3B0"/>
  <polygon points="154.8453351613793,56.57385423952637 155.229534437979,57.35232700218766 156.08863013736217,57.477160914433334 155.46698264937072,58.083117453319716 155.6137337145787,58.93874181669746 154.8453351613793,58.5347707907732 154.0769366081799,58.93874181669746 154.22368767338787,58.083117453319716 153.60204018539642,57.477160914433334 154.4611358847796,57.35232700218766" fill="#FFF3B0"/>
  <polygon points="39.616503254055715,52.9914126193291 39.89189673271486,53.54942075523211 40.50769527155685,53.638901520662564 40.062099262806285,54.07325028008005 40.16729021137401,54.68656057035845 39.616503254055715,54.39699473074679 39.06571629673742,54.68656057035845 39.170907245305145,54.07325028008005 38.72531123655458,53.638901520662564 39.34110977539657,53.54942075523211" fill="#FFF3B0"/>
  <polygon points="72.88225405456615,52.717777885074426 73.18558508028494,53.33239367426087 73.86385387347687,53.43095189899543 73.37305396402151,53.909363571469555 73.48891610600371,54.58489169341281 72.88225405456615,54.26595057843006 72.27559200312858,54.58489169341281 72.39145414511079,53.909363571469555 71.90065423565542,53.43095189899543 72.57892302884736,53.33239367426087" fill="#FFF3B0"/>
  <polygon points="91.7217830599111,56.69263783440624 92.09168114535996,57.44213321875729 92.9187984091706,57.56232039231846 92.32029073454086,58.145721187819746 92.46157923080881,58.969496330443384 91.7217830599111,58.58056246677586 90.9819868890134,58.969496330443384 91.12327538528135,58.145721187819746 90.5247677106516,57.56232039231846 91.35188497446225,57.44213321875729" fill="#FFF3B0"/>
  <polygon points="92.11747798230135,51.335042664553065 92.4813290062926,52.072285364098065 93.29492462961991,52.19050772828733 92.70620130596063,52.76437113875313 92.84518003028383,53.57467927759746 92.11747798230135,53.192103670620256 91.38977593431888,53.57467927759746 91.52875465864207,52.76437113875313 90.94003133498279,52.19050772828733 91.75362695831011,52.072285364098065" fill="#FFF3B0"/>
  <polygon points="99.66397101043185,36.19511467086686 100.01933854687576,36.91516794713543 100.813964515361,37.030633859127825 100.23896776289642,37.59111716956491 100.37470608331968,38.38253230398678 99.66397101043185,38.00887676369539 98.95323593754402,38.38253230398678 99.08897425796728,37.59111716956491 98.51397750550271,37.030633859127825 99.30860347398794,36.91516794713543" fill="#FFF3B0"/>
  <polygon points="35.155212941645004,38.46593075705387 35.35318752979069,38.86707108697457 35.79587216670196,38.9313969300167 35.47554255417348,39.24364113120817 35.55116211793637,39.68453701848391 35.155212941645004,39.47637421768959 34.75926376535364,39.68453701848391 34.83488332911653,39.24364113120817 34.51455371658805,38.9313969300167 34.95723835349932,38.86707108697457" fill="#FFF3B0"/>
  <polygon points="121.0938681981861,29.946870489549163 121.44066145527682,30.64955037824923 122.21611475227026,30.762230337998773 121.65499147522819,31.309190352175946 121.78745471236756,32.081510285852204 121.0938681981861,31.71687027640075 120.40028168400464,32.081510285852204 120.53274492114402,31.309190352175946 119.97162164410194,30.76223033799877 120.74707494109538,30.64955037824923" fill="#FFF3B0"/>
  <polygon points="66.58118828014267,31.63285418126561 66.84970406779367,32.17692659306412 67.45012362201318,32.264172661221416 67.01565595107793,32.68767397221132 67.11821985544465,33.28566741951583 66.58118828014267,33.003333212189226 66.04415670484069,33.28566741951583 66.1467206092074,32.68767397221132 65.71225293827216,32.264172661221416 66.31267249249167,32.17692659306412" fill="#FFF3B0"/>
  <polygon points="114.4091543911145,11.038777100358312 114.6614020927712,11.549886769594472 115.22544510084364,11.631847016192214 114.81729974597907,12.02969041035662 114.91364979442788,12.59145429771651 114.4091543911145,12.326225368273573 113.90465898780111,12.59145429771651 114.00100903624993,12.02969041035662 113.59286368138535,11.631847016192214 114.1569066894578,11.549886769594472" fill="#FFF3B0"/>
  <path d="M155 25 A22 22 0 1 1 175 50 A18 18 0 1 0 155 25" fill="#FFE566"/>
  <rect x="35" y="75" width="130" height="50" rx="8" fill="#C9B8E8"/>
  <rect x="45" y="65" width="90" height="20" rx="8" fill="white"/>
  <rect x="40" y="90" width="120" height="30" rx="6" fill="#FFE4CC"/>
  <text x="170" y="75" fill="#E2D9F3" font-size="16" font-weight="bold">z</text>
  <text x="178" y="65" fill="#E2D9F3" font-size="13" font-weight="bold">z</text>
  <text x="185" y="57" fill="#E2D9F3" font-size="10" font-weight="bold">z</text>
  <circle cx="165" cy="38" r="35" fill="#FFF3B0" opacity="0.15"/>
</svg>