<svg xmlns="http://www.w3.org/2000/svg" viewBox="0 0 200 150" width="200" height="150">
  
    <defs>
      <linearGradient id="bg6243" gradientTransform="rotate(0)">
        <stop offset="0%" style="stop-color:#D4E9FF"/>
        <stop offset="100%" style="stop-color:#A8D0F0"/>
      </linearGradient>
    </defs>
    <rect width="200" height="150" fill="url(#bg6243)" rx="16"/>
  
  <circle cx="188.7685655759924" cy="59.13886652324436" r="4.836650446615749" fill="#D4E9FF" opacity="0.35704026414068724"/><circle cx="100.25534263040754" cy="62.12981311700787" r="4.5001895741866065" fill="#D4E9FF" opacity="0.3295455315994332"/><circle cx="38.694519179625786" cy="53.29543907655534" r="2.9531901430550533" fill="#D4E9FF" opacity="0.4768912159285719"/><circle cx="119.30420257051537" cy="81.56955199810909" r="3.7005495766297827" fill="#D4E9FF" opacity="0.38454019630594305"/><circle cx="159.24471633879875" cy="30.649904770962166" r="3.8895517667679087" fill="#D4E9FF" opacity="0.2768953998132929"/><circle cx="87.8028498878848" cy="96.98886361372843" r="3.590798380203978" fill="#D4E9FF" opacity="0.26900348121448586"/><circle cx="72.9061530898905" cy="6.040661755241672" r="2.3312562024739236" fill="#D4E9FF" opacity="0.2557572464351324"/><circle cx="94.54715334723005" cy="149.91087915982462" r="4.545523803044489" fill="#D4E9FF" opacity="0.3810481276047085"/>
  <ellipse cx="100" cy="70" rx="50" ry="58" fill="#7BB8E0"/>
  <ellipse cx="100" cy="70" rx="44" ry="52" fill="#D4E9FF"/>
  <ellipse cx="80" cy="50" rx="15" ry="20" fill="white" opacity="0.5"/>
  <rect x="88" y="123" width="24" height="22" rx="4" fill="#7BB8E0"/>
  <polygon points="22.5,53.1 23.205342302750967,54.52917960675006 24.782535639108367,54.75835921350013 23.641267819554184,55.870820393249936 23.910684605501935,57.441640786499875 22.5,56.7 21.089315394498065,57.441640786499875 21.358732180445816,55.870820393249936 20.217464360891633,54.75835921350013 21.794657697249033,54.52917960675006" fill="#FFF3B0"/><polygon points="43.446525043638474,10.51816184426113 44.32820292207718,12.304636352698708 46.299694592523934,12.591110861136288 44.873109818081204,13.981687335823551 45.20988080051589,15.945212827385973 43.446525043638474,15.01816184426113 41.68316928676106,15.945212827385973 42.01994026919574,13.981687335823551 40.59335549475301,12.591110861136286 42.564847165199765,12.304636352698708" fill="#FFF3B0"/><polygon points="-11.062349613209847,51.82738403748757 -10.004336159083396,53.971153447612664 -7.638546154547294,54.31492285773776 -9.350447883878571,55.98361462736248 -8.946322704956943,58.33984521723738 -11.062349613209847,57.22738403748757 -13.178376521462749,58.33984521723738 -12.774251342541122,55.98361462736248 -14.4861530718724,54.314922857737756 -12.120363067336298,53.971153447612664" fill="#FFF3B0"/><polygon points="55.32999918711586,9.463268165495329 56.56434821693006,11.964332477307938 59.32443655555551,12.365396789120549 57.327217871335684,14.312203853682718 57.79869724674425,17.06113954187011 55.32999918711586,15.763268165495328 52.86130112748747,17.06113954187011 53.332780502896036,14.312203853682718 51.33556181867621,12.365396789120547 54.09565015730166,11.964332477307938" fill="#FFF3B0"/>
  <polygon points="145,56.6 145.70534230275098,58.02917960675006 147.28253563910837,58.25835921350013 146.14126781955417,59.370820393249936 146.41068460550193,60.941640786499875 145,60.2 143.58931539449807,60.941640786499875 143.85873218044583,59.370820393249936 142.71746436089163,58.25835921350013 144.29465769724902,58.02917960675006" fill="#A8D0F0"/><polygon points="162.9541643231187,20.01556729508097 163.83584220155743,21.80204180351855 165.80733387200416,22.088516311956127 164.38074909756142,23.479092786643392 164.71752007999612,25.442618278205813 162.9541643231187,24.51556729508097 161.1908085662413,25.442618278205813 161.527579548676,23.479092786643392 160.10099477423324,22.088516311956127 162.07248644467998,21.80204180351855" fill="#A8D0F0"/><polygon points="116.23227176010585,55.337757746417914 117.2902852142323,57.48152715654301 119.6560752187684,57.82529656666811 117.94417348943712,59.49398833629282 118.34829866835875,61.85021892616773 116.23227176010585,60.73775774641791 114.11624485185294,61.85021892616773 114.52037003077457,59.49398833629282 112.8084683014433,57.8252965666681 115.1742583059794,57.48152715654301" fill="#A8D0F0"/><polygon points="173.13999930324218,18.93994414185314 174.37434833305636,21.44100845366575 177.1344366716818,21.84207276547836 175.137217987462,23.78887983004053 175.60869736287057,26.53781551822792 173.13999930324218,25.23994414185314 170.67130124361378,26.53781551822792 171.14278061902235,23.78887983004053 169.14556193480254,21.84207276547836 171.905650273428,21.44100845366575" fill="#A8D0F0"/>
  <path d="M55,101.5 C51,98 53,96 55,98.5 C57,96 59,98 55,101.5Z" fill="#FFB3B3"/>
  <path d="M150,96.2 C146.8,93.4 148.4,91.8 150,93.8 C151.6,91.8 153.2,93.4 150,96.2Z" fill="#FFD6D6"/>
</svg>