<svg xmlns="http://www.w3.org/2000/svg" viewBox="0 0 200 150" width="200" height="150">
  
    <defs>
      <linearGradient id="bg7009" gradientTransform="rotate(180)">
        <stop offset="0%" style="stop-color:#D8F3DC"/>
        <stop offset="100%" style="stop-color:#B7E4C7"/>
      </linearGradient>
    </defs>
    <rect width="200" height="150" fill="url(#bg7009)" rx="16"/>
  
  <circle cx="92.96755429386394" cy="149.83592548455817" r="4.13783875127865" fill="#D8F3DC" opacity="0.3190739964395107"/><circle cx="65.7806217093821" cy="9.145754257679073" r="3.2351745716823643" fill="#D8F3DC" opacity="0.27745848129197836"/><circle cx="183.52281528968888" cy="131.40870510742388" r="4.895016811999994" fill="#D8F3DC" opacity="0.334877320598298"/><circle cx="107.40466930037655" cy="111.57332281400159" r="4.3367596968128055" fill="#D8F3DC" opacity="0.21712598264371083"/><circle cx="9.596563929517288" cy="11.32756732249618" r="3.103898489527637" fill="#D8F3DC" opacity="0.48675174671143395"/><circle cx="197.43554987762764" cy="33.91927039710936" r="3.734710918733981" fill="#D8F3DC" opacity="0.31833036211255605"/><circle cx="101.36724515559763" cy="32.01208549999137" r="2.4828991470421897" fill="#D8F3DC" opacity="0.37191408869380216"/><circle cx="163.4859574798611" cy="38.19826187280455" r="3.402431244870968" fill="#D8F3DC" opacity="0.24735908219681735"/>
  <circle cx="60" cy="80" r="28" fill="#B7E4C7"/>
  <circle cx="140" cy="80" r="28" fill="#B7E4C7"/>
  <path d="M88 80 L112 80" stroke="#95D5B2" stroke-width="10" stroke-linecap="round"/>
  <path d="M92 74 L108 74" stroke="#95D5B2" stroke-width="5" stroke-linecap="round"/>
  <path d="M92 86 L108 86" stroke="#95D5B2" stroke-width="5" stroke-linecap="round"/>
  <path d="M100,43 C92,36 96,32 100,37 C104,32 108,36 100,43Z" fill="#FFB3B3"/>
  <polygon points="20,51.6 20.705342302750967,53.02917960675006 22.282535639108367,53.25835921350013 21.141267819554184,54.370820393249936 21.410684605501935,55.941640786499875 20,55.2 18.589315394498065,55.941640786499875 18.858732180445816,54.370820393249936 17.717464360891633,53.25835921350013 19.294657697249033,53.02917960675006" fill="#FFF3B0"/><polygon points="37.95416432311869,15.01556729508097 38.8358422015574,16.80204180351855 40.80733387200415,17.088516311956127 39.38074909756142,18.479092786643392 39.717520079996106,20.442618278205813 37.95416432311869,19.51556729508097 36.19080856624127,20.442618278205813 36.52757954867596,18.479092786643392 35.10099477423323,17.088516311956127 37.07248644467998,16.80204180351855" fill="#FFF3B0"/><polygon points="-8.767728239894154,50.337757746417914 -7.709714785767702,52.48152715654301 -5.3439247812316015,52.82529656666811 -7.055826510562878,54.49398833629282 -6.6517013316412505,56.85021892616773 -8.767728239894154,55.73775774641791 -10.883755148147056,56.85021892616773 -10.47962996922543,54.49398833629282 -12.191531698556707,52.8252965666681 -9.825741694020605,52.48152715654301" fill="#FFF3B0"/><polygon points="48.13999930324216,13.93994414185314 49.37434833305636,16.44100845366575 52.13443667168181,16.84207276547836 50.13721798746199,18.78887983004053 50.60869736287055,21.53781551822792 48.13999930324216,20.23994414185314 45.671301243613776,21.53781551822792 46.14278061902234,18.78887983004053 44.145561934802515,16.84207276547836 46.905650273427966,16.44100845366575" fill="#FFF3B0"/>
  <polygon points="151,56 151.70534230275098,57.42917960675006 153.28253563910837,57.65835921350013 152.14126781955417,58.770820393249934 152.41068460550193,60.34164078649987 151,59.6 149.58931539449807,60.34164078649987 149.85873218044583,58.770820393249934 148.71746436089163,57.65835921350013 150.29465769724902,57.42917960675006" fill="#FFE566"/><polygon points="167.75722003491077,21.814529475408904 168.6388979133495,23.601003983846482 170.61038958379623,23.88747849228406 169.1838048093535,25.278054966971325 169.5205757917882,27.241580458533747 167.75722003491077,26.314529475408904 165.99386427803336,27.241580458533747 166.33063526046806,25.278054966971325 164.9040504860253,23.88747849228406 166.87554215647205,23.601003983846482" fill="#FFE566"/><polygon points="124.15012030943211,54.741907229990055 125.20813376355856,56.88567664011515 127.57392376809466,57.22944605024025 125.86202203876339,58.898137819864964 126.26614721768502,61.25436840973987 124.15012030943211,60.14190722999005 122.0340934011792,61.25436840973987 122.43821858010084,58.898137819864964 120.72631685076956,57.22944605024024 123.09210685530566,56.88567664011515" fill="#FFE566"/><polygon points="177.26399934969268,20.730614532396263 178.49834837950687,23.231678844208872 181.25843671813232,23.632743156021483 179.2612180339125,25.579550220583652 179.73269740932108,28.328485908771043 177.26399934969268,27.030614532396264 174.7953012900643,28.328485908771043 175.26678066547285,25.579550220583652 173.26956198125305,23.632743156021483 176.0296503198785,23.231678844208872" fill="#FFE566"/>
  <polygon points="100,116.4 101.05801345412645,118.5437694101251 103.42380345866255,118.88753882025019 101.71190172933127,120.5562305898749 102.1160269082529,122.91246117974981 100,121.8 97.8839730917471,122.91246117974981 98.28809827066873,120.5562305898749 96.57619654133745,118.88753882025019 98.94198654587355,118.5437694101251" fill="#FFE566"/>
</svg>