<svg xmlns="http://www.w3.org/2000/svg" viewBox="0 0 200 150" width="200" height="150">
  
    <defs>
      <linearGradient id="bg7307" gradientTransform="rotate(45)">
        <stop offset="0%" style="stop-color:#E2D9F3"/>
        <stop offset="100%" style="stop-color:#C9B8E8"/>
      </linearGradient>
    </defs>
    <rect width="200" height="150" fill="url(#bg7307)" rx="16"/>
  
  <circle cx="90.6297291521696" cy="123.85179204898122" r="3.432795144589363" fill="#E2D9F3" opacity="0.2468791835080083"/><circle cx="18.442532413610024" cy="128.3169539656683" r="4.869419154942989" fill="#E2D9F3" opacity="0.3399027343864873"/><circle cx="50.547340443517896" cy="101.6820976591589" r="3.424233459302741" fill="#E2D9F3" opacity="0.27961664284634935"/><circle cx="119.02785400834546" cy="22.577960859916857" r="3.4766264897134533" fill="#E2D9F3" opacity="0.3798265679503402"/><circle cx="178.02026443878276" cy="63.775515687484585" r="3.814201952566691" fill="#E2D9F3" opacity="0.24610989539614822"/><circle cx="160.21826458490978" cy="48.68895632354224" r="3.7896946933328763" fill="#E2D9F3" opacity="0.4263237940905128"/><circle cx="1.2990240997169167" cy="111.22879821093647" r="4.576316297297126" fill="#E2D9F3" opacity="0.44496145143302784"/><circle cx="116.491659633175" cy="27.101661163669633" r="4.182964016164988" fill="#E2D9F3" opacity="0.3688609480883315"/>
  <path d="M55 45 L55 115 L100 125 L145 115 L145 45 L125 40 L100 48 L75 40 Z" fill="#C9B8E8"/>
  <rect x="80" y="70" width="40" height="40" rx="5" fill="#E2D9F3"/>
  <rect x="85" y="75" width="30" height="30" rx="3" fill="#B298DC" opacity="0.3"/>
  <rect x="90" y="62" width="5" height="20" rx="1" fill="#8B4513"/>
  <circle cx="92.5" cy="58" r="7" fill="#B7E4C7"/>
  <rect x="105" y="65" width="6" height="15" rx="1" fill="#FFB3B3"/>
  <polygon points="45,35.5 46.32251681765806,38.17971176265637 49.27975432332819,38.609423525312735 47.139877161664096,40.69528823734363 47.64503363531613,43.640576474687265 45,42.25 42.35496636468387,43.640576474687265 42.860122838335904,40.69528823734363 40.72024567667181,38.609423525312735 43.67748318234194,38.17971176265637" fill="#FFE566"/>
  <polygon points="160,41.1 161.1461812419703,43.42241686096885 163.7091204135511,43.79483372193771 161.85456020677555,45.60258313903115 162.29236248394065,48.155166278062296 160,46.95 157.70763751605935,48.155166278062296 158.14543979322445,45.60258313903115 156.2908795864489,43.79483372193771 158.8538187580297,43.42241686096885" fill="#FFF3B0"/>
  <polygon points="100,22 100.88167787843871,23.78647450843758 102.85316954888546,24.072949016875157 101.42658477444273,25.46352549156242 101.76335575687742,27.427050983124843 100,26.5 98.23664424312258,27.427050983124843 98.57341522555727,25.46352549156242 97.14683045111454,24.072949016875157 99.11832212156129,23.78647450843758" fill="#FFB3B3"/>
  <polygon points="22.5,95.1 23.205342302750967,96.52917960675006 24.782535639108367,96.75835921350013 23.641267819554184,97.87082039324994 23.910684605501935,99.44164078649987 22.5,98.7 21.089315394498065,99.44164078649987 21.358732180445816,97.87082039324994 20.217464360891633,96.75835921350013 21.794657697249033,96.52917960675006" fill="#C9B8E8"/><polygon points="37.46180360259891,64.51297274590081 38.34348148103762,66.29944725433839 40.314973151484374,66.58592176277597 38.88838837704164,67.97649823746323 39.22515935947633,69.94002372902565 37.46180360259891,69.01297274590081 35.698447845721496,69.94002372902565 36.03521882815618,67.97649823746323 34.60863405371345,66.58592176277597 36.580125724160204,66.29944725433839" fill="#C9B8E8"/><polygon points="-1.4731068665784617,93.84813145534827 -0.41509341245201026,95.99190086547335 1.9506965920840904,96.33567027559845 0.23879486275281425,98.00436204522316 0.6429200416744414,100.36059263509807 -1.473106866578462,99.24813145534826 -3.5891337748313648,100.36059263509807 -3.1850085959097383,98.00436204522316 -4.896910325241015,96.33567027559845 -2.5311203207049138,95.99190086547335" fill="#C9B8E8"/><polygon points="45.949999419368474,63.41662011821094 47.184348449182664,65.91768443002356 49.94443678780812,66.31874874183617 47.9472181035883,68.26555580639834 48.41869747899686,71.01449149458573 45.949999419368474,69.71662011821094 43.48130135974009,71.01449149458573 43.95278073514865,68.26555580639834 41.955562050928826,66.31874874183616 44.71565038955428,65.91768443002356" fill="#C9B8E8"/>
</svg>