<svg xmlns="http://www.w3.org/2000/svg" viewBox="0 0 200 150" width="200" height="150">
  
    <defs>
      <linearGradient id="bg7598" gradientTransform="rotate(0)">
        <stop offset="0%" style="stop-color:#E2D9F3"/>
        <stop offset="100%" style="stop-color:#C9B8E8"/>
      </linearGradient>
    </defs>
    <rect width="200" height="150" fill="url(#bg7598)" rx="16"/>
  
  <circle cx="27.923956038102915" cy="69.09004022595582" r="2.182069936541666" fill="#E2D9F3" opacity="0.2350743451114795"/><circle cx="102.64810173248406" cy="36.842637606241624" r="3.7155427355401116" fill="#E2D9F3" opacity="0.39202521969382365"/><circle cx="64.02843416617543" cy="73.77100620242345" r="2.2531600119309587" fill="#E2D9F3" opacity="0.3044272514965087"/><circle cx="85.09876866883133" cy="114.59951646666013" r="3.9937324562833965" fill="#E2D9F3" opacity="0.4322135930301556"/><circle cx="13.28023341629887" cy="47.83807569083365" r="3.651961992825818" fill="#E2D9F3" opacity="0.26848130491043776"/><circle cx="64.70473626286548" cy="120.37822131917437" r="4.384872384312985" fill="#E2D9F3" opacity="0.39216314699806387"/><circle cx="99.17044531503052" cy="96.86316139896007" r="3.100713391841964" fill="#E2D9F3" opacity="0.22773817204506486"/><circle cx="75.03575426635507" cy="138.35480155830737" r="2.525459268668783" fill="#E2D9F3" opacity="0.286291559325656"/>
  <circle cx="100" cy="75" r="45" fill="#E2D9F3"/>
  <circle cx="100" cy="75" r="40" fill="white"/>
  <line x1="100" y1="42" x2="100" y2="52" stroke="#B298DC" stroke-width="2"/>
  <line x1="116.5" y1="46.421161675113524" x2="114" y2="50.751288694035715" stroke="#B298DC" stroke-width="2"/>
  <line x1="128.57883832488648" y1="58.5" x2="124.24871130596428" y2="61" stroke="#B298DC" stroke-width="2"/>
  <line x1="133" y1="75" x2="123" y2="75" stroke="#B298DC" stroke-width="2"/>
  <line x1="128.57883832488648" y1="91.5" x2="124.24871130596429" y2="89" stroke="#B298DC" stroke-width="2"/>
  <line x1="116.5" y1="103.57883832488648" x2="114" y2="99.24871130596429" stroke="#B298DC" stroke-width="2"/>
  <line x1="100" y1="108" x2="100" y2="98" stroke="#B298DC" stroke-width="2"/>
  <line x1="83.5" y1="103.57883832488648" x2="86" y2="99.24871130596428" stroke="#B298DC" stroke-width="2"/>
  <line x1="71.42116167511352" y1="91.50000000000001" x2="75.75128869403572" y2="89.00000000000001" stroke="#B298DC" stroke-width="2"/>
  <line x1="67" y1="75" x2="77" y2="75" stroke="#B298DC" stroke-width="2"/>
  <line x1="71.42116167511352" y1="58.5" x2="75.75128869403572" y2="61" stroke="#B298DC" stroke-width="2"/>
  <line x1="83.49999999999999" y1="46.42116167511353" x2="85.99999999999999" y2="50.75128869403572" stroke="#B298DC" stroke-width="2"/>
  <line x1="100" y1="75" x2="82.84749308754205" y2="80.4581596365517" stroke="#B298DC" stroke-width="4" stroke-linecap="round"/>
  <line x1="100" y1="75" x2="73.35114265789889" y2="66.40707253839855" stroke="#FFB3B3" stroke-width="3" stroke-linecap="round"/>
  <circle cx="100" cy="75" r="5" fill="#B298DC"/>
  <path d="M150 60 Q158 55 155 45" stroke="#FFE566" stroke-width="2" fill="none"/>
  <path d="M155 65 Q165 58 160 48" stroke="#FFF3B0" stroke-width="2" fill="none"/>
  <polygon points="45,41.4 46.05801345412645,43.543769410125094 48.423803458662555,43.88753882025019 46.711901729331274,45.55623058987491 47.116026908252906,47.91246117974981 45,46.8 42.883973091747094,47.91246117974981 43.288098270668726,45.55623058987491 41.576196541337445,43.887538820250185 43.94198654587355,43.543769410125094" fill="#FFF3B0"/>
  <polygon points="160,107 160.88167787843872,108.78647450843758 162.85316954888546,109.07294901687516 161.42658477444272,110.46352549156242 161.76335575687742,112.42705098312484 160,111.5 158.23664424312258,112.42705098312484 158.57341522555728,110.46352549156242 157.14683045111454,109.07294901687516 159.11832212156128,108.78647450843758" fill="#C9B8E8"/>
</svg>