<svg xmlns="http://www.w3.org/2000/svg" viewBox="0 0 200 150" width="200" height="150">
  
    <defs>
      <linearGradient id="bg7666" gradientTransform="rotate(135)">
        <stop offset="0%" style="stop-color:#E2D9F3"/>
        <stop offset="100%" style="stop-color:#C9B8E8"/>
      </linearGradient>
    </defs>
    <rect width="200" height="150" fill="url(#bg7666)" rx="16"/>
  
  <line x1="0" y1="100" x2="5" y2="150" stroke="#7BB8E0" stroke-width="1" opacity="0.1"/><line x1="12" y1="100" x2="17" y2="150" stroke="#7BB8E0" stroke-width="1" opacity="0.1"/><line x1="24" y1="100" x2="29" y2="150" stroke="#7BB8E0" stroke-width="1" opacity="0.1"/><line x1="36" y1="100" x2="41" y2="150" stroke="#7BB8E0" stroke-width="1" opacity="0.1"/><line x1="48" y1="100" x2="53" y2="150" stroke="#7BB8E0" stroke-width="1" opacity="0.1"/><line x1="60" y1="100" x2="65" y2="150" stroke="#7BB8E0" stroke-width="1" opacity="0.1"/><line x1="72" y1="100" x2="77" y2="150" stroke="#7BB8E0" stroke-width="1" opacity="0.1"/><line x1="84" y1="100" x2="89" y2="150" stroke="#7BB8E0" stroke-width="1" opacity="0.1"/><line x1="96" y1="100" x2="101" y2="150" stroke="#7BB8E0" stroke-width="1" opacity="0.1"/><line x1="108" y1="100" x2="113" y2="150" stroke="#7BB8E0" stroke-width="1" opacity="0.1"/><line x1="120" y1="100" x2="125" y2="150" stroke="#7BB8E0" stroke-width="1" opacity="0.1"/><line x1="132" y1="100" x2="137" y2="150" stroke="#7BB8E0" stroke-width="1" opacity="0.1"/><line x1="144" y1="100" x2="149" y2="150" stroke="#7BB8E0" stroke-width="1" opacity="0.1"/><line x1="156" y1="100" x2="161" y2="150" stroke="#7BB8E0" stroke-width="1" opacity="0.1"/><line x1="168" y1="100" x2="173" y2="150" stroke="#7BB8E0" stroke-width="1" opacity="0.1"/><line x1="180" y1="100" x2="185" y2="150" stroke="#7BB8E0" stroke-width="1" opacity="0.1"/><line x1="192" y1="100" x2="197" y2="150" stroke="#7BB8E0" stroke-width="1" opacity="0.1"/>
  
      <ellipse cx="100" cy="105" rx="55" ry="18" fill="#B298DC"/>
      <path d="M45 80 Q45 115 100 120 Q155 115 155 80" fill="#C9B8E8" stroke="#B298DC" stroke-width="2"/>
      <ellipse cx="100" cy="80" rx="50" ry="12" fill="#A8D0F0"/>
    
  
      <circle cx="70" cy="68" r="9.799999999999999" fill="#FFE566"/>
      <circle cx="66.64" cy="64.64" r="2.8000000000000003" fill="white" opacity="0.6"/>
      <ellipse cx="70" cy="72.2" rx="7" ry="2.24" fill="white" opacity="0.2"/>
    
  
    <rect x="122.5" y="77.5" width="15" height="15" rx="4" fill="#FFB3B3" stroke="#FFB3B3" stroke-width="2"/>
    <rect x="125.5" y="80.5" width="4.5" height="4.5" rx="2" fill="white" opacity="0.3"/>
  
  <circle cx="102.39042846159293" cy="58.221603262335655" r="3" fill="#A8D0F0" opacity="0.6"/><circle cx="111.20167891644783" cy="60.300337676321156" r="3" fill="#A8D0F0" opacity="0.6"/><circle cx="116.98723502518033" cy="65" r="3" fill="#A8D0F0" opacity="0.6"/><circle cx="113.49391562207603" cy="70.66136981081067" r="3" fill="#A8D0F0" opacity="0.6"/><circle cx="103.23859672243951" cy="74.18349735652235" r="3" fill="#A8D0F0" opacity="0.6"/>
  <polygon points="30,49.6 30.705342302750967,51.02917960675006 32.28253563910837,51.25835921350013 31.141267819554184,52.370820393249936 31.410684605501935,53.941640786499875 30,53.2 28.589315394498065,53.941640786499875 28.858732180445816,52.370820393249936 27.717464360891633,51.25835921350013 29.294657697249033,51.02917960675006" fill="#FFF3B0"/><polygon points="53.93888576415826,1.020756393441296 54.820563642596966,2.807230901878875 56.79205531304372,3.0937054103164536 55.36547053860099,4.484281885003717 55.702241521035674,6.447807376566138 53.93888576415826,5.520756393441296 52.17553000728084,6.447807376566138 52.51230098971553,4.484281885003718 51.0857162152728,3.0937054103164527 53.05720788571955,2.8072309018788753" fill="#FFF3B0"/><polygon points="-8.356970986525539,48.31701032855722 -7.298957532399087,50.46077973868231 -4.933167527862986,50.80454914880741 -6.645069257194263,52.473240918432126 -6.240944078272635,54.82947150830703 -8.356970986525539,53.717010328557215 -10.472997894778441,54.82947150830703 -10.068872715856815,52.473240918432126 -11.780774445188092,50.8045491488074 -9.41498444065199,50.46077973868231" fill="#FFF3B0"/><polygon points="67.51999907098956,-0.01340781086247933 68.75434810080375,2.487656500950131 71.5144364394292,2.8887208127627417 69.51721775520937,4.83552787732491 69.98869713061794,7.5844635655123005 67.51999907098956,6.2865921891375205 65.05130101136118,7.5844635655123005 65.52278038676974,4.83552787732491 63.52556170254991,2.8887208127627404 66.28565004117536,2.4876565009501315" fill="#FFF3B0"/>
</svg>