<svg xmlns="http://www.w3.org/2000/svg" viewBox="0 0 200 150" width="200" height="150">
  
    <defs>
      <linearGradient id="bg7705" gradientTransform="rotate(0)">
        <stop offset="0%" style="stop-color:#D4E9FF"/>
        <stop offset="100%" style="stop-color:#A8D0F0"/>
      </linearGradient>
    </defs>
    <rect width="200" height="150" fill="url(#bg7705)" rx="16"/>
  
  <circle cx="19.125641324353637" cy="63.6014000295836" r="3" fill="#E2D9F3" opacity="0.7"/><rect x="160.38314587931382" y="19.12953034072416" width="6" height="3" rx="1" fill="#FFD6D6" transform="rotate(266.22399753381615 160.38314587931382 19.12953034072416)" opacity="0.7"/><rect x="39.918946145689915" y="36.72129377700912" width="6" height="3" rx="1" fill="#FFD6D6" transform="rotate(310.3647813228963 39.918946145689915 36.72129377700912)" opacity="0.7"/><rect x="64.86383748306253" y="7.196131691234768" width="6" height="3" rx="1" fill="#D8F3DC" transform="rotate(234.62454045244158 64.86383748306253 7.196131691234768)" opacity="0.7"/><rect x="85.14531236323819" y="47.026816797297215" width="6" height="3" rx="1" fill="#FFF3B0" transform="rotate(249.44855785433901 85.14531236323819 47.026816797297215)" opacity="0.7"/><rect x="98.48298578435788" y="74.34036610291514" width="6" height="3" rx="1" fill="#D8F3DC" transform="rotate(136.33285238169492 98.48298578435788 74.34036610291514)" opacity="0.7"/><circle cx="79.09572646713059" cy="49.49037890663021" r="3" fill="#FFF3B0" opacity="0.7"/><circle cx="68.0382526383255" cy="39.766756344761234" r="3" fill="#FFF3B0" opacity="0.7"/><circle cx="20.959646434403112" cy="69.10577042712248" r="3" fill="#D8F3DC" opacity="0.7"/><circle cx="38.86904454266187" cy="24.20534538841366" r="3" fill="#FFD6D6" opacity="0.7"/>
  <rect x="55" y="55" width="90" height="60" rx="15" fill="#A8D0F0"/>
  <ellipse cx="100" cy="75" rx="28" ry="20" fill="#D4E9FF"/>
  <rect x="60" y="50" width="80" height="18" rx="10" fill="#7BB8E0"/>
  <polygon points="40,35.5 41.32251681765806,38.17971176265637 44.27975432332819,38.609423525312735 42.139877161664096,40.69528823734363 42.64503363531613,43.640576474687265 40,42.25 37.35496636468387,43.640576474687265 37.860122838335904,40.69528823734363 35.72024567667181,38.609423525312735 38.67748318234194,38.17971176265637" fill="#FFE566"/>
  <polygon points="165,41.1 166.1461812419703,43.42241686096885 168.7091204135511,43.79483372193771 166.85456020677555,45.60258313903115 167.29236248394065,48.155166278062296 165,46.95 162.70763751605935,48.155166278062296 163.14543979322445,45.60258313903115 161.2908795864489,43.79483372193771 163.8538187580297,43.42241686096885" fill="#FFF3B0"/>
  <polygon points="100,21.4 101.05801345412645,23.543769410125094 103.42380345866255,23.88753882025019 101.71190172933127,25.556230589874904 102.1160269082529,27.912461179749812 100,26.8 97.8839730917471,27.912461179749812 98.28809827066873,25.556230589874904 96.57619654133745,23.88753882025019 98.94198654587355,23.543769410125094" fill="#FFB3B3"/>
  <polygon points="55,87.6 55.70534230275097,89.02917960675006 57.28253563910837,89.25835921350013 56.14126781955419,90.37082039324994 56.410684605501935,91.94164078649987 55,91.2 53.589315394498065,91.94164078649987 53.85873218044581,90.37082039324994 52.71746436089163,89.25835921350013 54.29465769724903,89.02917960675006" fill="#B7E4C7"/>
  <polygon points="150,92.3 150.79351009059485,93.90782705759382 152.56785259399692,94.16565411518764 151.28392629699846,95.41717294240618 151.58702018118967,97.18434588481236 150,96.35 148.41297981881033,97.18434588481236 148.71607370300154,95.41717294240618 147.43214740600308,94.16565411518764 149.20648990940515,93.90782705759382" fill="#C9B8E8"/>
  <polygon points="75,47.6 75.70534230275096,49.02917960675006 77.28253563910837,49.25835921350013 76.14126781955419,50.370820393249936 76.41068460550194,51.941640786499875 75,51.2 73.58931539449806,51.941640786499875 73.85873218044581,50.370820393249936 72.71746436089163,49.25835921350013 74.29465769724904,49.02917960675006" fill="#FFF3B0"/><polygon points="104.92360720519783,-12.974054508198385 105.80528508363653,-11.187579999760807 107.77677675408329,-10.901105491323227 106.35019197964056,-9.510529016635964 106.68696296207524,-7.547003525073543 104.92360720519783,-8.474054508198385 103.16025144832041,-7.547003525073543 103.4970224307551,-9.510529016635964 102.07043765631236,-10.901105491323229 104.04192932675912,-11.187579999760807" fill="#FFF3B0"/><polygon points="27.053786266843076,46.29626291069652 28.11179972096953,48.440032320821615 30.477589725505627,48.78380173094671 28.765687996174353,50.45249350057143 29.169813175095978,52.80872409044633 27.053786266843076,51.69626291069652 24.937759358590174,52.80872409044633 25.3418845375118,50.45249350057143 23.629982808180525,48.783801730946706 25.995772812716623,48.440032320821615" fill="#FFF3B0"/><polygon points="121.89999883873695,-13.9667597635781 123.13434786855115,-11.465695451765491 125.8944362071766,-11.06463113995288 123.89721752295677,-9.117824075390711 124.36869689836533,-6.368888387203321 121.89999883873695,-7.666759763578101 119.43130077910857,-6.368888387203321 119.90278015451713,-9.117824075390711 117.9055614702973,-11.064631139952882 120.66564980892275,-11.465695451765491" fill="#FFF3B0"/>
</svg>