<svg xmlns="http://www.w3.org/2000/svg" viewBox="0 0 200 150" width="200" height="150">
  
    <defs>
      <linearGradient id="bg7736" gradientTransform="rotate(45)">
        <stop offset="0%" style="stop-color:#FFF5EB"/>
        <stop offset="100%" style="stop-color:#FFE4CC"/>
      </linearGradient>
    </defs>
    <rect width="200" height="150" fill="url(#bg7736)" rx="16"/>
  
  <circle cx="190.09064315941941" cy="133.15875072148629" r="4.53607196165467" fill="#FFF5EB" opacity="0.33874106711755303"/><circle cx="10.13790067845548" cy="52.05147912756729" r="4.413478014077555" fill="#FFF5EB" opacity="0.3848362121520268"/><circle cx="178.12963644664705" cy="18.940123614993354" r="3.945376541614678" fill="#FFF5EB" opacity="0.26049550991574505"/><circle cx="119.97098934589303" cy="145.8758792674871" r="2.0265544030180536" fill="#FFF5EB" opacity="0.4403014849674946"/><circle cx="135.51475733984262" cy="90.45829006226995" r="3.339950119481614" fill="#FFF5EB" opacity="0.4527075658519607"/><circle cx="82.99539188592462" cy="90.2095185529106" r="2.9794810734310886" fill="#FFF5EB" opacity="0.4586274009165209"/><circle cx="15.961946098104818" cy="51.366447969940054" r="3.949774367525606" fill="#FFF5EB" opacity="0.28927262707547924"/><circle cx="184.14455905494833" cy="136.25450472691227" r="4.5371023576567495" fill="#FFF5EB" opacity="0.3632367050284302"/>
  <circle cx="100" cy="75" r="45" fill="#FFF5EB"/>
  <circle cx="100" cy="75" r="40" fill="white"/>
  <line x1="100" y1="42" x2="100" y2="52" stroke="#FFD3A8" stroke-width="2"/>
  <line x1="116.5" y1="46.421161675113524" x2="114" y2="50.751288694035715" stroke="#FFD3A8" stroke-width="2"/>
  <line x1="128.57883832488648" y1="58.5" x2="124.24871130596428" y2="61" stroke="#FFD3A8" stroke-width="2"/>
  <line x1="133" y1="75" x2="123" y2="75" stroke="#FFD3A8" stroke-width="2"/>
  <line x1="128.57883832488648" y1="91.5" x2="124.24871130596429" y2="89" stroke="#FFD3A8" stroke-width="2"/>
  <line x1="116.5" y1="103.57883832488648" x2="114" y2="99.24871130596429" stroke="#FFD3A8" stroke-width="2"/>
  <line x1="100" y1="108" x2="100" y2="98" stroke="#FFD3A8" stroke-width="2"/>
  <line x1="83.5" y1="103.57883832488648" x2="86" y2="99.24871130596428" stroke="#FFD3A8" stroke-width="2"/>
  <line x1="71.42116167511352" y1="91.50000000000001" x2="75.75128869403572" y2="89.00000000000001" stroke="#FFD3A8" stroke-width="2"/>
  <line x1="67" y1="75" x2="77" y2="75" stroke="#FFD3A8" stroke-width="2"/>
  <line x1="71.42116167511352" y1="58.5" x2="75.75128869403572" y2="61" stroke="#FFD3A8" stroke-width="2"/>
  <line x1="83.49999999999999" y1="46.42116167511353" x2="85.99999999999999" y2="50.75128869403572" stroke="#FFD3A8" stroke-width="2"/>
  <line x1="100" y1="75" x2="117.92296040335222" y2="73.33642241543463" stroke="#FFD3A8" stroke-width="4" stroke-linecap="round"/>
  <line x1="100" y1="75" x2="116.04414595510664" y2="52.052551763404395" stroke="#FFB3B3" stroke-width="3" stroke-linecap="round"/>
  <circle cx="100" cy="75" r="5" fill="#FFD3A8"/>
  <path d="M150 60 Q158 55 155 45" stroke="#FFE566" stroke-width="2" fill="none"/>
  <path d="M155 65 Q165 58 160 48" stroke="#FFF3B0" stroke-width="2" fill="none"/>
  <polygon points="45,41.4 46.05801345412645,43.543769410125094 48.423803458662555,43.88753882025019 46.711901729331274,45.55623058987491 47.116026908252906,47.91246117974981 45,46.8 42.883973091747094,47.91246117974981 43.288098270668726,45.55623058987491 41.576196541337445,43.887538820250185 43.94198654587355,43.543769410125094" fill="#FFF3B0"/>
  <polygon points="160,107 160.88167787843872,108.78647450843758 162.85316954888546,109.07294901687516 161.42658477444272,110.46352549156242 161.76335575687742,112.42705098312484 160,111.5 158.23664424312258,112.42705098312484 158.57341522555728,110.46352549156242 157.14683045111454,109.07294901687516 159.11832212156128,108.78647450843758" fill="#FFE4CC"/>
</svg>