<svg xmlns="http://www.w3.org/2000/svg" viewBox="0 0 200 150" width="200" height="150">
  
    <defs>
      <linearGradient id="bg7764" gradientTransform="rotate(135)">
        <stop offset="0%" style="stop-color:#D8F3DC"/>
        <stop offset="100%" style="stop-color:#B7E4C7"/>
      </linearGradient>
    </defs>
    <rect width="200" height="150" fill="url(#bg7764)" rx="16"/>
  
  <circle cx="100.8693735289853" cy="141.7621723904631" r="3.140968948178852" fill="#D8F3DC" opacity="0.3242506436741678"/><circle cx="64.76905554591212" cy="63.55938493265967" r="2.409192195005744" fill="#D8F3DC" opacity="0.2428165753963185"/><circle cx="175.34539167354524" cy="16.644309791263368" r="4.952558790420426" fill="#D8F3DC" opacity="0.2866746436784524"/><circle cx="4.942084815593262" cy="148.24829357110048" r="2.4643003942655923" fill="#D8F3DC" opacity="0.3417859809411311"/><circle cx="177.53420339115564" cy="45.34282343636278" r="2.9465084692901655" fill="#D8F3DC" opacity="0.23753814795850303"/><circle cx="169.28218808752717" cy="97.87938667859635" r="3.119163297502382" fill="#D8F3DC" opacity="0.4826871910023328"/><circle cx="0.9555732712669851" cy="91.03805624520191" r="4.524850783565853" fill="#D8F3DC" opacity="0.2964213419598309"/><circle cx="180.3450987681572" cy="83.44842298402" r="3.5550065840043317" fill="#D8F3DC" opacity="0.2990557566945654"/>
  <circle cx="100" cy="75" r="45" fill="#D8F3DC"/>
  <circle cx="100" cy="75" r="40" fill="white"/>
  <line x1="100" y1="42" x2="100" y2="52" stroke="#95D5B2" stroke-width="2"/>
  <line x1="116.5" y1="46.421161675113524" x2="114" y2="50.751288694035715" stroke="#95D5B2" stroke-width="2"/>
  <line x1="128.57883832488648" y1="58.5" x2="124.24871130596428" y2="61" stroke="#95D5B2" stroke-width="2"/>
  <line x1="133" y1="75" x2="123" y2="75" stroke="#95D5B2" stroke-width="2"/>
  <line x1="128.57883832488648" y1="91.5" x2="124.24871130596429" y2="89" stroke="#95D5B2" stroke-width="2"/>
  <line x1="116.5" y1="103.57883832488648" x2="114" y2="99.24871130596429" stroke="#95D5B2" stroke-width="2"/>
  <line x1="100" y1="108" x2="100" y2="98" stroke="#95D5B2" stroke-width="2"/>
  <line x1="83.5" y1="103.57883832488648" x2="86" y2="99.24871130596428" stroke="#95D5B2" stroke-width="2"/>
  <line x1="71.42116167511352" y1="91.50000000000001" x2="75.75128869403572" y2="89.00000000000001" stroke="#95D5B2" stroke-width="2"/>
  <line x1="67" y1="75" x2="77" y2="75" stroke="#95D5B2" stroke-width="2"/>
  <line x1="71.42116167511352" y1="58.5" x2="75.75128869403572" y2="61" stroke="#95D5B2" stroke-width="2"/>
  <line x1="83.49999999999999" y1="46.42116167511353" x2="85.99999999999999" y2="50.75128869403572" stroke="#95D5B2" stroke-width="2"/>
  <line x1="100" y1="75" x2="86.5844427475273" y2="62.99904905411128" stroke="#95D5B2" stroke-width="4" stroke-linecap="round"/>
  <line x1="100" y1="75" x2="84.63609606443127" y2="98.40834158710557" stroke="#FFB3B3" stroke-width="3" stroke-linecap="round"/>
  <circle cx="100" cy="75" r="5" fill="#95D5B2"/>
  <path d="M150 60 Q158 55 155 45" stroke="#FFE566" stroke-width="2" fill="none"/>
  <path d="M155 65 Q165 58 160 48" stroke="#FFF3B0" stroke-width="2" fill="none"/>
  <polygon points="45,41.4 46.05801345412645,43.543769410125094 48.423803458662555,43.88753882025019 46.711901729331274,45.55623058987491 47.116026908252906,47.91246117974981 45,46.8 42.883973091747094,47.91246117974981 43.288098270668726,45.55623058987491 41.576196541337445,43.887538820250185 43.94198654587355,43.543769410125094" fill="#FFF3B0"/>
  <polygon points="160,107 160.88167787843872,108.78647450843758 162.85316954888546,109.07294901687516 161.42658477444272,110.46352549156242 161.76335575687742,112.42705098312484 160,111.5 158.23664424312258,112.42705098312484 158.57341522555728,110.46352549156242 157.14683045111454,109.07294901687516 159.11832212156128,108.78647450843758" fill="#B7E4C7"/>
</svg>