<svg xmlns="http://www.w3.org/2000/svg" viewBox="0 0 200 150" width="200" height="150">
  
    <defs>
      <linearGradient id="bg7773" gradientTransform="rotate(90)">
        <stop offset="0%" style="stop-color:#F0F7FF"/>
        <stop offset="100%" style="stop-color:#DCE8F5"/>
      </linearGradient>
    </defs>
    <rect width="200" height="150" fill="url(#bg7773)" rx="16"/>
  
  <circle cx="32.592536314041354" cy="29.947421588076395" r="8.404667731786049" fill="#FFB3B3" opacity="0.39940061773540947"/>
  <circle cx="167.2479951180867" cy="37.710602080478566" r="8.389068699516429" fill="#A8D0F0" opacity="0.4972349052015943"/>
  <circle cx="51.34541113591695" cy="41.8012665171409" r="12.459858578554304" fill="#FFE566" opacity="0.5317803598494719"/>
  <circle cx="123.418805586698" cy="35.73350811506316" r="10.577947018250597" fill="#B7E4C7" opacity="0.5122069246401224"/>
  <circle cx="99.21416719938861" cy="30.230146699323086" r="6.518899547118053" fill="#FFB3B3" opacity="0.546769488382779"/>
  <circle cx="101.40504626542679" cy="55.98060792010074" r="6.089904482123529" fill="#A8D0F0" opacity="0.3441657403688623"/>
  <circle cx="49.03335863909888" cy="55.555016308244376" r="14.260720166821557" fill="#FFE566" opacity="0.4232945967092746"/>
  <circle cx="35.38270877903415" cy="22.618809952546144" r="8.491546927343734" fill="#B7E4C7" opacity="0.3116864919146792"/>
  
        <rect x="43.98015778057015" y="72.30963635502121" width="35" height="42.69036364497879" rx="4" fill="#FFB3B3"/>
        <ellipse cx="61.48015778057015" cy="72.30963635502121" rx="17.5" ry="5" fill="#FFB3B3"/>
      
  <ellipse cx="61.48015778057015" cy="64.30963635502121" rx="10" ry="8" fill="#FFB3B3"/>
  
        <rect x="98.91741902571084" y="68.22893472791293" width="35" height="46.77106527208707" rx="4" fill="#A8D0F0"/>
        <ellipse cx="116.41741902571084" cy="68.22893472791293" rx="17.5" ry="5" fill="#A8D0F0"/>
      
  <ellipse cx="116.41741902571084" cy="60.22893472791293" rx="10" ry="8" fill="#A8D0F0"/>
  
        <rect x="147.81612746061" y="71.59666057121399" width="35" height="43.40333942878601" rx="4" fill="#FFE566"/>
        <ellipse cx="165.31612746061" cy="71.59666057121399" rx="17.5" ry="5" fill="#FFE566"/>
      
  <ellipse cx="165.31612746061" cy="63.59666057121399" rx="10" ry="8" fill="#FFE566"/>
  
    <rect x="165.2" y="56" width="5.6000000000000005" height="17.5" rx="2" fill="#8B6914"/>
    <rect x="163.8" y="73.5" width="8.4" height="8.75" rx="3" fill="#DCE8F5"/>
  
</svg>