<svg xmlns="http://www.w3.org/2000/svg" viewBox="0 0 200 150" width="200" height="150">
  
    <defs>
      <linearGradient id="bg7790" gradientTransform="rotate(0)">
        <stop offset="0%" style="stop-color:#FFF3B0"/>
        <stop offset="100%" style="stop-color:#FFE566"/>
      </linearGradient>
    </defs>
    <rect width="200" height="150" fill="url(#bg7790)" rx="16"/>
  
  <ellipse cx="50" cy="55" rx="40" ry="25" fill="#FFF3B0" opacity="0.7"/>
  <ellipse cx="100" cy="45" rx="50" ry="30" fill="#E2D9F3" opacity="0.6"/>
  <ellipse cx="155" cy="60" rx="45" ry="28" fill="#FFE566" opacity="0.5"/>
  <ellipse cx="70" cy="85" rx="35" ry="22" fill="#D4E9FF" opacity="0.4"/>
  <ellipse cx="140" cy="90" rx="40" ry="25" fill="#FFF3B0" opacity="0.5"/>
  <path d="M100,104.2 C88.8,94.4 94.4,88.8 100,95.8 C105.6,88.8 111.2,94.4 100,104.2Z" fill="#FFB3B3"/>
  <polygon points="45,32 45.88167787843871,33.78647450843758 47.85316954888546,34.07294901687516 46.42658477444273,35.46352549156242 46.76335575687742,37.42705098312484 45,36.5 43.23664424312258,37.42705098312484 43.57341522555727,35.46352549156242 42.14683045111454,34.07294901687516 44.11832212156129,33.78647450843758" fill="#FFF3B0"/>
  <polygon points="160,37.6 160.70534230275098,39.02917960675006 162.28253563910837,39.25835921350013 161.14126781955417,40.370820393249936 161.41068460550193,41.941640786499875 160,41.2 158.58931539449807,41.941640786499875 158.85873218044583,40.370820393249936 157.71746436089163,39.25835921350013 159.29465769724902,39.02917960675006" fill="#FFF3B0"/>
  <polygon points="90,23.2 90.52900672706322,24.271884705062547 91.71190172933127,24.443769410125096 90.85595086466564,25.278115294937454 91.05801345412645,26.456230589874906 90,25.9 88.94198654587355,26.456230589874906 89.14404913533436,25.278115294937454 88.28809827066873,24.443769410125093 89.47099327293678,24.271884705062547" fill="#FFF3B0"/>
  <polygon points="120,27.9 120.61717451490709,29.150532155906305 121.99721868421982,29.35106431181261 120.99860934210992,30.324467844093697 121.2343490298142,31.69893568818739 120,31.05 118.7656509701858,31.69893568818739 119.00139065789008,30.324467844093697 118.00278131578018,29.35106431181261 119.38282548509291,29.150532155906305" fill="#E2D9F3"/>
  
    <path d="M100 70 Q112 62 108 54 Q100 50 92 58" stroke="#FFD93D" stroke-width="2" fill="none" opacity="0.5"/>
  
</svg>