<svg xmlns="http://www.w3.org/2000/svg" viewBox="0 0 200 150" width="200" height="150">
  
    <defs>
      <linearGradient id="bg7797" gradientTransform="rotate(0)">
        <stop offset="0%" style="stop-color:#FFF5EB"/>
        <stop offset="100%" style="stop-color:#FFE4CC"/>
      </linearGradient>
    </defs>
    <rect width="200" height="150" fill="url(#bg7797)" rx="16"/>
  
  <rect x="0" y="0" width="200" height="150" fill="#1a1a3e"/>
  <polygon points="39.11738730295838,30.297910447577 39.52949344020464,31.132928686057504 40.45099077703213,31.266830086987273 39.784189039995255,31.91680114052406 39.941599577450894,32.83457499592039 39.11738730295838,32.4012609602292 38.29317502846586,32.83457499592039 38.4505855659215,31.91680114052406 37.78378382888462,31.266830086987273 38.705281165712115,31.132928686057504" fill="#FFF3B0"/>
  <polygon points="55.45263851417076,9.568814515873418 55.665341802768495,9.999798452561935 56.14096081511078,10.06890994048085 55.79679966464077,10.404384149878503 55.878045091366225,10.878081335113986 55.45263851417076,10.654431862182218 55.02723193697529,10.878081335113986 55.10847736370074,10.404384149878503 54.764316213230735,10.06890994048085 55.23993522557302,9.999798452561935" fill="#FFF3B0"/>
  <polygon points="142.01437835142315,50.602292967597215 142.42046057842364,51.42510543075054 143.32848804245126,51.55704954459313 142.67143319693722,52.19751972703149 142.82654280542414,53.101878137155026 142.01437835142315,52.67489801552945 141.20221389742215,53.101878137155026 141.35732350590908,52.19751972703149 140.70026866039504,51.55704954459313 141.60829612442265,51.42510543075054" fill="#FFF3B0"/>
  <polygon points="148.14554934681382,27.16192470002928 148.57593580048297,28.03398290525305 149.5383091674822,28.173823941041984 148.84192925714802,28.852626587827437 149.00632225415208,29.81111130619076 148.14554934681382,29.35857620833379 147.28477643947556,29.81111130619076 147.44916943647962,28.852626587827437 146.75278952614545,28.173823941041984 147.71516289314468,28.03398290525305" fill="#FFF3B0"/>
  <polygon points="98.31226666483417,29.110624565574835 98.69422496374511,29.884556611481347 99.54830968468016,30.00866238593713 98.93028817475717,30.611084469745876 99.07618326265606,31.46171810246619 98.31226666483417,31.06010337992702 97.54835006701228,31.46171810246619 97.69424515491117,30.611084469745876 97.07622364498818,30.00866238593713 97.93030836592322,29.884556611481347" fill="#FFF3B0"/>
  <polygon points="152.6008213028581,13.311174031508973 152.7957487291362,13.706140137109612 153.2316197049731,13.769475897243353 152.9162205039156,14.076914135042472 152.9906761554143,14.511023893109074 152.6008213028581,14.306065067909662 152.2109664503019,14.511023893109074 152.28542210180058,14.076914135042472 151.9700229007431,13.769475897243353 152.40589387658,13.706140137109612" fill="#FFF3B0"/>
  <polygon points="29.455175823346735,25.593559118427585 29.710271051988286,26.11043850752963 30.28068132396665,26.193323971730308 29.86792857365669,26.59565846648033 29.96536628062984,27.16376388963171 29.455175823346735,26.89554089313169 28.94498536606363,27.16376388963171 29.04242307303678,26.59565846648033 28.62967032272682,26.193323971730308 29.200080594705184,26.11043850752963" fill="#FFF3B0"/>
  <polygon points="18.893861630967876,17.975686285442134 19.213685819632957,18.6237208729081 19.92883444633679,18.727638051137088 19.41134803865233,19.232062630305563 19.533510008298034,19.944321565932025 18.893861630967876,19.60803851315304 18.25421325363772,19.944321565932025 18.37637522328342,19.232062630305563 17.858888815598963,18.727638051137088 18.574037442302796,18.6237208729081" fill="#FFF3B0"/>
  <polygon points="94.73517173370965,20.26183668936619 95.15704034329211,21.116635857361278 96.10036723189182,21.25370927783701 95.41776948280074,21.91907763768884 95.57890895287458,22.858592838492136 94.73517173370965,22.41501393192425 93.89143451454471,22.858592838492136 94.05257398461856,21.91907763768884 93.36997623552747,21.25370927783701 94.31330312412719,21.116635857361278" fill="#FFF3B0"/>
  <polygon points="32.59653562648964,33.17894592484263 33.009823149831625,34.0163579130091 33.93396214627683,34.15064316955023 33.26524888638323,34.80247749736486 33.42311067317361,35.72288233826175 32.59653562648964,35.28832611971866 31.76996057980567,35.72288233826175 31.927822366596043,34.80247749736486 31.259109106702446,34.15064316955023 32.183248103147655,34.0163579130091" fill="#FFF3B0"/>
  <polygon points="71.14957572175626,12.433807097815953 71.396855920697,12.93485150717697 71.94979125501816,13.015197714301207 71.54968348838722,13.405206396283669 71.64413611963774,13.955907492514603 71.14957572175626,13.695901704526296 70.65501532387479,13.955907492514603 70.74946795512531,13.405206396283669 70.34936018849437,13.015197714301205 70.90229552281552,12.93485150717697" fill="#FFF3B0"/>
  <polygon points="139.31501334600398,27.46764640782203 139.74509330931605,28.33908359575208 140.70678134304242,28.478825046787293 140.0108973445232,29.157144299023905 140.1751732726281,30.114946453330944 139.31501334600398,29.662733618506536 138.45485341937987,30.114946453330944 138.61912934748477,29.157144299023905 137.92324534896554,28.478825046787293 138.8849333826919,28.33908359575208" fill="#FFF3B0"/>
  <path d="M155 25 A22 22 0 1 1 175 50 A18 18 0 1 0 155 25" fill="#FFE566"/>
  <rect x="35" y="75" width="130" height="50" rx="8" fill="#C9B8E8"/>
  <rect x="45" y="65" width="90" height="20" rx="8" fill="white"/>
  <rect x="40" y="90" width="120" height="30" rx="6" fill="#FFE4CC"/>
  <text x="170" y="75" fill="#E2D9F3" font-size="16" font-weight="bold">z</text>
  <text x="178" y="65" fill="#E2D9F3" font-size="13" font-weight="bold">z</text>
  <text x="185" y="57" fill="#E2D9F3" font-size="10" font-weight="bold">z</text>
  <circle cx="165" cy="38" r="35" fill="#FFF3B0" opacity="0.15"/>
</svg>