<svg xmlns="http://www.w3.org/2000/svg" viewBox="0 0 200 150" width="200" height="150">
  
    <defs>
      <linearGradient id="bg7821" gradientTransform="rotate(0)">
        <stop offset="0%" style="stop-color:#E0F4FF"/>
        <stop offset="100%" style="stop-color:#BAE6FD"/>
      </linearGradient>
    </defs>
    <rect width="200" height="150" fill="url(#bg7821)" rx="16"/>
  
  <polygon points="30,27.6 30.705342302750967,29.029179606750063 32.28253563910837,29.258359213500125 31.141267819554184,30.370820393249936 31.410684605501935,31.941640786499875 30,31.2 28.589315394498065,31.941640786499875 28.858732180445816,30.370820393249936 27.717464360891633,29.258359213500125 29.294657697249033,29.029179606750063" fill="#FFF3B0"/>
  <polygon points="170,33.2 170.52900672706323,34.27188470506255 171.7119017293313,34.44376941012509 170.85595086466563,35.27811529493745 171.05801345412644,36.456230589874906 170,35.9 168.94198654587356,36.456230589874906 169.14404913533437,35.27811529493745 168.2880982706687,34.44376941012509 169.47099327293677,34.27188470506255" fill="#E0F4FF"/>
  <polygon points="25,108.5 25.440838939219354,109.39323725421879 26.42658477444273,109.53647450843758 25.713292387221365,110.23176274578121 25.88167787843871,111.21352549156242 25,110.75 24.11832212156129,111.21352549156242 24.286707612778635,110.23176274578121 23.57341522555727,109.53647450843758 24.559161060780646,109.39323725421879" fill="#BAE6FD"/>
  
      <rect x="30" y="50" width="65" height="75" rx="3" fill="white" stroke="#7DD3FC" stroke-width="2"/>
      <rect x="105" y="50" width="65" height="75" rx="3" fill="#FFFBF5" stroke="#7DD3FC" stroke-width="2"/>
      <line x1="100" y1="50" x2="100" y2="125" stroke="#7DD3FC" stroke-width="3"/>
    
  <line x1="40" y1="68" x2="77.78230678406544" y2="68" stroke="#DDD" stroke-width="2"/>
  <line x1="115" y1="68" x2="152.78230678406544" y2="68" stroke="#DDD" stroke-width="2"/>
  <line x1="40" y1="81" x2="76.99891452557594" y2="81" stroke="#DDD" stroke-width="2"/>
  <line x1="115" y1="81" x2="151.99891452557594" y2="81" stroke="#DDD" stroke-width="2"/>
  <line x1="40" y1="94" x2="75.13017567295265" y2="94" stroke="#DDD" stroke-width="2"/>
  <line x1="115" y1="94" x2="150.13017567295265" y2="94" stroke="#DDD" stroke-width="2"/>
  <line x1="40" y1="107" x2="81.09543294429841" y2="107" stroke="#DDD" stroke-width="2"/>
  <line x1="115" y1="107" x2="156.0954329442984" y2="107" stroke="#DDD" stroke-width="2"/>
  <line x1="40" y1="120" x2="72.07543381377036" y2="120" stroke="#DDD" stroke-width="2"/>
  <line x1="115" y1="120" x2="147.07543381377036" y2="120" stroke="#DDD" stroke-width="2"/>
  <polygon points="155,50 165,50 165,80 160,75 155,80" fill="#FFB3B3"/>
  <path d="M95 55 Q92 70 95 85" stroke="#BAE6FD" stroke-width="1" fill="none" opacity="0.5"/>
  <polygon points="75,37.6 75.70534230275096,39.02917960675006 77.28253563910837,39.25835921350013 76.14126781955419,40.370820393249936 76.41068460550194,41.941640786499875 75,41.2 73.58931539449806,41.941640786499875 73.85873218044581,40.370820393249936 72.71746436089163,39.25835921350013 74.29465769724904,39.02917960675006" fill="#FFE566"/><polygon points="104.92360720519783,-22.974054508198385 105.80528508363653,-21.187579999760807 107.77677675408329,-20.90110549132323 106.35019197964056,-19.510529016635964 106.68696296207524,-17.547003525073542 104.92360720519783,-18.474054508198385 103.16025144832041,-17.547003525073542 103.4970224307551,-19.510529016635964 102.07043765631236,-20.90110549132323 104.04192932675912,-21.187579999760807" fill="#FFE566"/><polygon points="27.053786266843076,36.29626291069652 28.11179972096953,38.440032320821615 30.477589725505627,38.78380173094671 28.765687996174353,40.45249350057143 29.169813175095978,42.80872409044633 27.053786266843076,41.69626291069652 24.937759358590174,42.80872409044633 25.3418845375118,40.45249350057143 23.629982808180525,38.783801730946706 25.995772812716623,38.440032320821615" fill="#FFE566"/><polygon points="121.89999883873695,-23.9667597635781 123.13434786855115,-21.46569545176549 125.8944362071766,-21.06463113995288 123.89721752295677,-19.11782407539071 124.36869689836533,-16.36888838720332 121.89999883873695,-17.6667597635781 119.43130077910857,-16.36888838720332 119.90278015451713,-19.11782407539071 117.9055614702973,-21.06463113995288 120.66564980892275,-21.46569545176549" fill="#FFE566"/>
</svg>