<svg xmlns="http://www.w3.org/2000/svg" viewBox="0 0 200 150" width="200" height="150">
  
    <defs>
      <linearGradient id="bg7828" gradientTransform="rotate(135)">
        <stop offset="0%" style="stop-color:#D0F0F0"/>
        <stop offset="100%" style="stop-color:#A0E0E0"/>
      </linearGradient>
    </defs>
    <rect width="200" height="150" fill="url(#bg7828)" rx="16"/>
  
  <circle cx="176.05361097404966" cy="50.25349137842568" r="12.042830933023652" fill="#FFB3B3" opacity="0.46426535966720617"/>
  <circle cx="28.811875253304606" cy="30.647289131629805" r="11.154399342831312" fill="#A8D0F0" opacity="0.4878716956085555"/>
  <circle cx="90.95191184344003" cy="59.01586239779135" r="14.218284949947702" fill="#FFE566" opacity="0.33096854281047855"/>
  <circle cx="93.04539572185604" cy="58.640117074901354" r="10.322240897548909" fill="#B7E4C7" opacity="0.30749331970491767"/>
  <circle cx="131.86486743274145" cy="49.61501011114706" r="8.707021166644608" fill="#FFB3B3" opacity="0.5539007199158732"/>
  <circle cx="58.14343049125455" cy="24.261463132497738" r="11.452465448264775" fill="#A8D0F0" opacity="0.4080258557829438"/>
  <circle cx="27.45629016244493" cy="37.85445380901365" r="11.047224263202224" fill="#FFE566" opacity="0.40796847386154694"/>
  <circle cx="22.670727465301752" cy="39.36322159075644" r="11.735845569364756" fill="#B7E4C7" opacity="0.3888040795186043"/>
  
        <rect x="41.6933340156902" y="65.33652005703516" width="35" height="49.66347994296484" rx="4" fill="#FFB3B3"/>
        <ellipse cx="59.1933340156902" cy="65.33652005703516" rx="17.5" ry="5" fill="#FFB3B3"/>
      
  <ellipse cx="59.1933340156902" cy="57.33652005703516" rx="10" ry="8" fill="#FFB3B3"/>
  
        <rect x="96.2420847967951" y="71.96136080347969" width="35" height="43.03863919652031" rx="4" fill="#A8D0F0"/>
        <ellipse cx="113.7420847967951" cy="71.96136080347969" rx="17.5" ry="5" fill="#A8D0F0"/>
      
  <ellipse cx="113.7420847967951" cy="63.96136080347969" rx="10" ry="8" fill="#A8D0F0"/>
  
        <rect x="153.2307053860677" y="69.7355183441664" width="35" height="45.264481655833606" rx="4" fill="#FFE566"/>
        <ellipse cx="170.7307053860677" cy="69.7355183441664" rx="17.5" ry="5" fill="#FFE566"/>
      
  <ellipse cx="170.7307053860677" cy="61.735518344166394" rx="10" ry="8" fill="#FFE566"/>
  
    <rect x="165.2" y="56" width="5.6000000000000005" height="17.5" rx="2" fill="#8B6914"/>
    <rect x="163.8" y="73.5" width="8.4" height="8.75" rx="3" fill="#A0E0E0"/>
  
</svg>