<svg xmlns="http://www.w3.org/2000/svg" viewBox="0 0 200 150" width="200" height="150">
  
    <defs>
      <linearGradient id="bg7841" gradientTransform="rotate(90)">
        <stop offset="0%" style="stop-color:#FFE4EC"/>
        <stop offset="100%" style="stop-color:#FFC8DD"/>
      </linearGradient>
    </defs>
    <rect width="200" height="150" fill="url(#bg7841)" rx="16"/>
  
  <rect x="0" y="95" width="200" height="55" fill="#FFE4CC"/>
  <ellipse cx="100" cy="90" rx="60" ry="22" fill="#F8F8F8"/>
  <ellipse cx="100" cy="88" rx="52" ry="18" fill="white"/>
  <circle cx="75" cy="75" r="16" fill="#FFB3B3"/>
  <rect x="73" y="57" width="4" height="8" rx="1" fill="#8B4513"/>
  <path d="M105 82 Q125 55 145 75" stroke="#FFE566" stroke-width="14" fill="none" stroke-linecap="round"/>
  <polygon points="145,51.6 145.70534230275098,53.02917960675006 147.28253563910837,53.25835921350013 146.14126781955417,54.370820393249936 146.41068460550193,55.941640786499875 145,55.2 143.58931539449807,55.941640786499875 143.85873218044583,54.370820393249936 142.71746436089163,53.25835921350013 144.29465769724902,53.02917960675006" fill="#FFF3B0"/><polygon points="162.9541643231187,15.01556729508097 163.83584220155743,16.80204180351855 165.80733387200416,17.088516311956127 164.38074909756142,18.479092786643392 164.71752007999612,20.442618278205813 162.9541643231187,19.51556729508097 161.1908085662413,20.442618278205813 161.527579548676,18.479092786643392 160.10099477423324,17.088516311956127 162.07248644467998,16.80204180351855" fill="#FFF3B0"/><polygon points="116.23227176010585,50.337757746417914 117.2902852142323,52.48152715654301 119.6560752187684,52.82529656666811 117.94417348943712,54.49398833629282 118.34829866835875,56.85021892616773 116.23227176010585,55.73775774641791 114.11624485185294,56.85021892616773 114.52037003077457,54.49398833629282 112.8084683014433,52.8252965666681 115.1742583059794,52.48152715654301" fill="#FFF3B0"/><polygon points="173.13999930324218,13.93994414185314 174.37434833305636,16.44100845366575 177.1344366716818,16.84207276547836 175.137217987462,18.78887983004053 175.60869736287057,21.53781551822792 173.13999930324218,20.23994414185314 170.67130124361378,21.53781551822792 171.14278061902235,18.78887983004053 169.14556193480254,16.84207276547836 171.905650273428,16.44100845366575" fill="#FFF3B0"/>
</svg>