<svg xmlns="http://www.w3.org/2000/svg" viewBox="0 0 200 150" width="200" height="150">
  
    <defs>
      <linearGradient id="bg42496" gradientTransform="rotate(135)">
        <stop offset="0%" style="stop-color:#FFE4EC"/>
        <stop offset="100%" style="stop-color:#FFC8DD"/>
      </linearGradient>
    </defs>
    <rect width="200" height="150" fill="url(#bg42496)" rx="16"/>
  
  <rect x="0" y="110" width="200" height="40" fill="#DCE8F5"/>
  <path d="M55 35 L55 80 L40 108 L90 108 L75 80 L75 35" fill="none" stroke="#FFAFCC" stroke-width="3"/>
  <rect x="50" y="30" width="30" height="10" rx="2" fill="#FFAFCC"/>
  <path d="M57 82 L43 105 L87 105 L73 82" fill="#B7E4C7"/>
  <circle cx="60" cy="92" r="4" fill="#D8F3DC"/>
  <circle cx="72" cy="88" r="3" fill="#D8F3DC"/>
  <circle cx="65" cy="95" r="5" fill="#D8F3DC"/>
  <circle cx="145" cy="55" r="28" fill="#FFE4EC" opacity="0.3"/>
  <circle cx="145" cy="55" r="24" fill="#D4E9FF" opacity="0.5"/>
  <circle cx="145" cy="55" r="24" fill="none" stroke="#FFAFCC" stroke-width="4"/>
  <rect x="162" y="72" width="10" height="35" rx="3" fill="#FFAFCC"/>
  <polygon points="92.5,48.1 93.20534230275096,49.52917960675006 94.78253563910837,49.75835921350013 93.64126781955419,50.870820393249936 93.91068460550194,52.441640786499875 92.5,51.7 91.08931539449806,52.441640786499875 91.35873218044581,50.870820393249936 90.21746436089163,49.75835921350013 91.79465769724904,49.52917960675006" fill="#FFE566"/><polygon points="113.44652504363847,5.5181618442611295 114.32820292207718,7.304636352698708 116.29969459252393,7.591110861136287 114.8731098180812,8.981687335823551 115.20988080051589,10.945212827385973 113.44652504363847,10.01816184426113 111.68316928676106,10.945212827385973 112.01994026919574,8.981687335823551 110.59335549475301,7.591110861136286 112.56484716519977,7.304636352698709" fill="#FFE566"/><polygon points="58.93765038679015,46.82738403748757 59.995663840916606,48.971153447612664 62.36145384545271,49.31492285773776 60.64955211612143,50.98361462736248 61.05367729504306,53.33984521723738 58.93765038679015,52.22738403748757 56.82162347853725,53.33984521723738 57.22574865745888,50.98361462736248 55.5138469281276,49.314922857737756 57.8796369326637,48.971153447612664" fill="#FFE566"/><polygon points="125.32999918711586,4.463268165495328 126.56434821693006,6.964332477307938 129.3244365555555,7.365396789120549 127.32721787133568,9.312203853682718 127.79869724674424,12.061139541870109 125.32999918711586,10.763268165495328 122.86130112748748,12.061139541870109 123.33278050289604,9.312203853682718 121.33556181867621,7.365396789120547 124.09565015730166,6.964332477307939" fill="#FFE566"/>
  <polygon points="35,47 35.88167787843871,48.78647450843758 37.85316954888546,49.07294901687516 36.42658477444273,50.46352549156242 36.76335575687742,52.42705098312484 35,51.5 33.23664424312258,52.42705098312484 33.57341522555727,50.46352549156242 32.14683045111454,49.07294901687516 34.11832212156129,48.78647450843758" fill="#FFF3B0"/>
  <text x="95" y="85" fill="#FFAFCC" font-size="24" font-weight="bold" opacity="0.6">?</text>
</svg>