<svg xmlns="http://www.w3.org/2000/svg" viewBox="0 0 200 150" width="200" height="150">
  
    <defs>
      <linearGradient id="bg7522" gradientTransform="rotate(180)">
        <stop offset="0%" style="stop-color:#FFE5D9"/>
        <stop offset="100%" style="stop-color:#FFCDB2"/>
      </linearGradient>
    </defs>
    <rect width="200" height="150" fill="url(#bg7522)" rx="16"/>
  
  <rect x="0" y="0" width="200" height="150" fill="#1a1a3e"/>
  <polygon points="93.87237486522281,50.424806890945185 94.30470320581881,51.30079978884749 95.27141876399116,51.441271781946824 94.57189681460699,52.1231371598533 94.73703154641483,53.08594652395844 93.87237486522281,52.631369605354124 93.0077181840308,53.08594652395844 93.17285291583863,52.1231371598533 92.47333096645445,51.441271781946824 93.44004652462681,51.30079978884749" fill="#FFF3B0"/>
  <polygon points="38.788261861759565,28.386790407983426 38.973364646637265,28.761849615786616 39.38726705644833,28.821993156420945 39.087764459103944,29.11393603527125 39.15846743151497,29.526165995390215 38.788261861759565,29.33153740949001 38.41805629200416,29.526165995390215 38.48875926441519,29.11393603527125 38.1892566670708,28.821993156420945 38.603159076881866,28.761849615786616" fill="#FFF3B0"/>
  <polygon points="27.143704265754423,18.95794593135121 27.510638087343647,19.701435061092717 28.331127055660932,19.820659086941067 27.73741566070768,20.399384665235747 27.87757190893287,21.21655829522713 27.143704265754423,20.830741243030676 26.409836622575973,21.21655829522713 26.549992870801166,20.399384665235747 25.956281475847913,19.820659086941067 26.776770444165198,19.701435061092717" fill="#FFF3B0"/>
  <polygon points="170.2439433884274,49.405608906860195 170.45525111162246,49.83376511918621 170.9277495448573,49.902423160418415 170.58584646664235,50.235696293362516 170.66655883481752,50.706285508771025 170.2439433884274,50.48410342014163 169.82132794203727,50.706285508771025 169.90204031021244,50.235696293362516 169.5601372319975,49.902423160418415 170.03263566523233,49.83376511918621" fill="#FFF3B0"/>
  <polygon points="124.56379326855313,14.125635462579249 124.93269923222229,14.873120588635274 125.75759804429163,14.992985402289168 125.16069565642238,15.574821429930685 125.30160519589147,16.39638708487999 124.56379326855313,16.008496399785646 123.82598134121478,16.39638708487999 123.96689088068388,15.574821429930685 123.36998849281463,14.992985402289168 124.19488730488396,14.873120588635274" fill="#FFF3B0"/>
  <polygon points="41.67126042516429,54.39078623359073 42.0284941787032,55.11462087871174 42.827293135473596,55.23069316139574 42.249276780318944,55.794119856999245 42.385727932242105,56.58969111797075 41.67126042516429,56.214073320901754 40.95679291808648,56.58969111797075 41.09324407000964,55.794119856999245 40.51522771485499,55.23069316139574 41.314026671625385,55.11462087871174" fill="#FFF3B0"/>
  <polygon points="92.19512550472245,10.538826191183308 92.58810166362595,11.335082859829692 93.46682306847094,11.462768554007392 92.8309742865967,12.08256793317732 92.98107782252946,12.957738700702645 92.19512550472245,12.54453911458936 91.40917318691545,12.957738700702645 91.55927672284821,12.08256793317732 90.92342794097397,11.46276855400739 91.80214934581896,11.335082859829692" fill="#FFF3B0"/>
  <polygon points="34.368817609101825,48.629360976792306 34.63590477121675,49.170538677081424 35.23312982162324,49.25732055666352 34.80097371536253,49.678568648977794 34.902991933331684,50.27338050045625 34.368817609101825,49.9925484389134 33.834643284871966,50.27338050045625 33.93666150284112,49.678568648977794 33.50450539658041,49.25732055666352 34.1017304469869,49.170538677081424" fill="#FFF3B0"/>
  <polygon points="31.026175612551015,34.8656720230977 31.20620441078848,35.23045021102889 31.608761041555045,35.28894511346538 31.31746832705303,35.572885334397945 31.386233209025946,35.97381536020349 31.026175612551015,35.78452187958178 30.666118016076084,35.97381536020349 30.734882898048998,35.572885334397945 30.443590183546984,35.28894511346538 30.84614681431355,35.23045021102889" fill="#FFF3B0"/>
  <polygon points="151.46611380293507,54.12537673592415 151.8368439238014,54.87655800817121 152.66582167536524,54.99701552642749 152.06596773915015,55.58172860264484 152.20757404466772,56.40735671537474 151.46611380293507,56.01754799789651 150.72465356120242,56.40735671537474 150.86625986672,55.58172860264484 150.2664059305049,54.99701552642749 151.09538368206873,54.87655800817121" fill="#FFF3B0"/>
  <polygon points="39.88562493472273,12.16402195233968 40.268896039594885,12.94061403366456 41.12591628390049,13.065146364634472 40.50577060931161,13.66963899725718 40.65216714446705,14.523196291819715 39.88562493472273,14.120201203404577 39.119082724978405,14.523196291819715 39.265479260133844,13.66963899725718 38.64533358554497,13.06514636463447 39.50235382985057,12.94061403366456" fill="#FFF3B0"/>
  <polygon points="101.23847720955382,50.69816574475517 101.45995136332512,51.14692139539125 101.95518262641697,51.21888271015806 101.5968299179854,51.56819026966154 101.68142551709641,52.06142045869864 101.23847720955382,51.828548752362984 100.79552890201123,52.06142045869864 100.88012450112224,51.56819026966154 100.52177179269067,51.21888271015806 101.01700305578252,51.14692139539125" fill="#FFF3B0"/>
  <path d="M155 25 A22 22 0 1 1 175 50 A18 18 0 1 0 155 25" fill="#FFE566"/>
  <rect x="35" y="75" width="130" height="50" rx="8" fill="#C9B8E8"/>
  <rect x="45" y="65" width="90" height="20" rx="8" fill="white"/>
  <rect x="40" y="90" width="120" height="30" rx="6" fill="#FFCDB2"/>
  <text x="170" y="75" fill="#E2D9F3" font-size="16" font-weight="bold">z</text>
  <text x="178" y="65" fill="#E2D9F3" font-size="13" font-weight="bold">z</text>
  <text x="185" y="57" fill="#E2D9F3" font-size="10" font-weight="bold">z</text>
  <circle cx="165" cy="38" r="35" fill="#FFF3B0" opacity="0.15"/>
</svg>