<svg xmlns="http://www.w3.org/2000/svg" viewBox="0 0 200 150" width="200" height="150">
  
    <defs>
      <linearGradient id="bg7620" gradientTransform="rotate(135)">
        <stop offset="0%" style="stop-color:#E2D9F3"/>
        <stop offset="100%" style="stop-color:#C9B8E8"/>
      </linearGradient>
    </defs>
    <rect width="200" height="150" fill="url(#bg7620)" rx="16"/>
  
  <circle cx="195.1427761312516" cy="76.66473741310256" r="4.125579711480896" fill="#E2D9F3" opacity="0.45551301331879585"/><circle cx="198.874119813172" cy="107.91356493896274" r="4.699214808692716" fill="#E2D9F3" opacity="0.4356438603503193"/><circle cx="125.93976660609769" cy="5.193452165940471" r="3.290684141087354" fill="#E2D9F3" opacity="0.3653545418765134"/><circle cx="134.3388428336766" cy="52.90432524689095" r="4.654801807698277" fill="#E2D9F3" opacity="0.45267704422221866"/><circle cx="160.1829803939836" cy="16.949766425022972" r="3.9523542720207843" fill="#E2D9F3" opacity="0.4399303100819452"/><circle cx="67.24753970274833" cy="31.093551803587616" r="4.338260314217223" fill="#E2D9F3" opacity="0.32828549815037605"/><circle cx="173.5724059120912" cy="74.79048198861165" r="3.4797393828421264" fill="#E2D9F3" opacity="0.2461156657018364"/><circle cx="131.1081630003173" cy="84.22805512454943" r="3.2536306520905782" fill="#E2D9F3" opacity="0.3310281193887932"/>
  <circle cx="60" cy="80" r="28" fill="#C9B8E8"/>
  <circle cx="140" cy="80" r="28" fill="#B7E4C7"/>
  <path d="M88 80 L112 80" stroke="#B298DC" stroke-width="10" stroke-linecap="round"/>
  <path d="M92 74 L108 74" stroke="#B298DC" stroke-width="5" stroke-linecap="round"/>
  <path d="M92 86 L108 86" stroke="#B298DC" stroke-width="5" stroke-linecap="round"/>
  <path d="M100,43 C92,36 96,32 100,37 C104,32 108,36 100,43Z" fill="#FFB3B3"/>
  <polygon points="20,51.6 20.705342302750967,53.02917960675006 22.282535639108367,53.25835921350013 21.141267819554184,54.370820393249936 21.410684605501935,55.941640786499875 20,55.2 18.589315394498065,55.941640786499875 18.858732180445816,54.370820393249936 17.717464360891633,53.25835921350013 19.294657697249033,53.02917960675006" fill="#FFF3B0"/><polygon points="37.95416432311869,15.01556729508097 38.8358422015574,16.80204180351855 40.80733387200415,17.088516311956127 39.38074909756142,18.479092786643392 39.717520079996106,20.442618278205813 37.95416432311869,19.51556729508097 36.19080856624127,20.442618278205813 36.52757954867596,18.479092786643392 35.10099477423323,17.088516311956127 37.07248644467998,16.80204180351855" fill="#FFF3B0"/><polygon points="-8.767728239894154,50.337757746417914 -7.709714785767702,52.48152715654301 -5.3439247812316015,52.82529656666811 -7.055826510562878,54.49398833629282 -6.6517013316412505,56.85021892616773 -8.767728239894154,55.73775774641791 -10.883755148147056,56.85021892616773 -10.47962996922543,54.49398833629282 -12.191531698556707,52.8252965666681 -9.825741694020605,52.48152715654301" fill="#FFF3B0"/><polygon points="48.13999930324216,13.93994414185314 49.37434833305636,16.44100845366575 52.13443667168181,16.84207276547836 50.13721798746199,18.78887983004053 50.60869736287055,21.53781551822792 48.13999930324216,20.23994414185314 45.671301243613776,21.53781551822792 46.14278061902234,18.78887983004053 44.145561934802515,16.84207276547836 46.905650273427966,16.44100845366575" fill="#FFF3B0"/>
  <polygon points="151,56 151.70534230275098,57.42917960675006 153.28253563910837,57.65835921350013 152.14126781955417,58.770820393249934 152.41068460550193,60.34164078649987 151,59.6 149.58931539449807,60.34164078649987 149.85873218044583,58.770820393249934 148.71746436089163,57.65835921350013 150.29465769724902,57.42917960675006" fill="#FFE566"/><polygon points="167.75722003491077,21.814529475408904 168.6388979133495,23.601003983846482 170.61038958379623,23.88747849228406 169.1838048093535,25.278054966971325 169.5205757917882,27.241580458533747 167.75722003491077,26.314529475408904 165.99386427803336,27.241580458533747 166.33063526046806,25.278054966971325 164.9040504860253,23.88747849228406 166.87554215647205,23.601003983846482" fill="#FFE566"/><polygon points="124.15012030943211,54.741907229990055 125.20813376355856,56.88567664011515 127.57392376809466,57.22944605024025 125.86202203876339,58.898137819864964 126.26614721768502,61.25436840973987 124.15012030943211,60.14190722999005 122.0340934011792,61.25436840973987 122.43821858010084,58.898137819864964 120.72631685076956,57.22944605024024 123.09210685530566,56.88567664011515" fill="#FFE566"/><polygon points="177.26399934969268,20.730614532396263 178.49834837950687,23.231678844208872 181.25843671813232,23.632743156021483 179.2612180339125,25.579550220583652 179.73269740932108,28.328485908771043 177.26399934969268,27.030614532396264 174.7953012900643,28.328485908771043 175.26678066547285,25.579550220583652 173.26956198125305,23.632743156021483 176.0296503198785,23.231678844208872" fill="#FFE566"/>
  <polygon points="100,116.4 101.05801345412645,118.5437694101251 103.42380345866255,118.88753882025019 101.71190172933127,120.5562305898749 102.1160269082529,122.91246117974981 100,121.8 97.8839730917471,122.91246117974981 98.28809827066873,120.5562305898749 96.57619654133745,118.88753882025019 98.94198654587355,118.5437694101251" fill="#FFE566"/>
</svg>