<svg xmlns="http://www.w3.org/2000/svg" viewBox="0 0 200 150" width="200" height="150">
  
    <defs>
      <linearGradient id="bg4232" gradientTransform="rotate(135)">
        <stop offset="0%" style="stop-color:#D4E9FF"/>
        <stop offset="100%" style="stop-color:#A8D0F0"/>
      </linearGradient>
    </defs>
    <rect width="200" height="150" fill="url(#bg4232)" rx="16"/>
  
  <circle cx="100" cy="75" r="45" fill="#FFE5D9" opacity="1"/>
  <circle cx="82" cy="65" r="8" fill="#333" opacity="1"/>
  <circle cx="118" cy="65" r="8" fill="#333" opacity="1"/>
  <circle cx="80" cy="62" r="3" fill="white" opacity="1"/>
  <circle cx="116" cy="62" r="3" fill="white" opacity="1"/>
  <path d="M75 90 Q100 110 125 90" stroke="#333" stroke-width="4" fill="none" stroke-linecap="round"/>
  <ellipse cx="65" cy="80" rx="10" ry="6" fill="#FFB3B3" opacity="0.4"/>
  <ellipse cx="135" cy="80" rx="10" ry="6" fill="#FFB3B3" opacity="0.4"/>
  <path d="M45,48.6 C33,39 39,33 45,41.4 C51,33 57,39 45,48.6Z" fill="#FFB3B3"/>
  <path d="M155,53 C145,45 150,40 155,47 C160,40 165,45 155,53Z" fill="#FFD6D6"/>
</svg>