<svg xmlns="http://www.w3.org/2000/svg" viewBox="0 0 200 150" width="200" height="150">
  
    <defs>
      <linearGradient id="bg5211" gradientTransform="rotate(90)">
        <stop offset="0%" style="stop-color:#FFE5D9"/>
        <stop offset="100%" style="stop-color:#FFCDB2"/>
      </linearGradient>
    </defs>
    <rect width="200" height="150" fill="url(#bg5211)" rx="16"/>
  
  <g>
      <rect x="75.73243319387075" y="82.90283209749032" width="56.97615573937583" height="56.97615573937583" rx="4" fill="#FFB3B3" stroke="#B7E4C7" stroke-width="2"/>
      <rect x="84.27885655477712" y="91.44925545839669" width="17.092846721812748" height="17.092846721812748" rx="2" fill="#B7E4C7" opacity="0.3"/>
    </g>
  <g>
      <rect x="76.15231399232835" y="58.95090981171961" width="46.78900139926736" height="46.78900139926736" rx="4" fill="#B7E4C7" stroke="#C9B8E8" stroke-width="2"/>
      <rect x="83.17066420221845" y="65.96926002160971" width="14.036700419780209" height="14.036700419780209" rx="2" fill="#C9B8E8" opacity="0.3"/>
    </g>
  <g>
      <rect x="81.72973017401932" y="31.056076304601447" width="34.01202917963383" height="34.01202917963383" rx="4" fill="#C9B8E8" stroke="#FFE566" stroke-width="2"/>
      <rect x="86.83153455096439" y="36.15788068154652" width="10.203608753890148" height="10.203608753890148" rx="2" fill="#FFE566" opacity="0.3"/>
    </g>
  <polygon points="51.184996932879585,35 54.12392319434195,40.954915028125264 60.69556209583112,41.90983005625053 55.94027951435535,46.545084971874736 57.06284945580432,53.09016994374947 51.184996932879585,50 45.30714440995486,53.09016994374947 46.42971435140382,46.545084971874736 41.67443176992805,41.90983005625052 48.24607067141722,40.954915028125264" fill="#FFF3B0"/>
  <polygon points="143.23659612790834,47 145.58773713707822,51.763932022500214 150.84504825826957,52.52786404500042 147.04082219308896,56.236067977499786 147.93887814624813,61.47213595499958 143.23659612790834,59 138.53431410956856,61.47213595499958 139.43237006272773,56.23606797749979 135.6281439975471,52.52786404500042 140.88545511873846,51.763932022500214" fill="#FFE566"/>
</svg>