<svg xmlns="http://www.w3.org/2000/svg" viewBox="0 0 200 150" width="200" height="150">
  
    <defs>
      <linearGradient id="bg6032" gradientTransform="rotate(0)">
        <stop offset="0%" style="stop-color:#E2D9F3"/>
        <stop offset="100%" style="stop-color:#C9B8E8"/>
      </linearGradient>
    </defs>
    <rect width="200" height="150" fill="url(#bg6032)" rx="16"/>
  
  <rect x="49.62433976455486" y="69.12188807425537" width="30" height="45.87811192574463" rx="4" fill="#B7E4C7" opacity="1"/>
  <ellipse cx="64.62433976455486" cy="69.12188807425537" rx="15" ry="5" fill="#B7E4C7" opacity="1"/>
  <path d="M64.62433976455486,47.12188807425537 Q71.62433976455486,60.12188807425537 64.62433976455486,64.12188807425537 Q57.62433976455486,60.12188807425537 64.62433976455486,47.12188807425537Z" fill="#B7E4C7"/>
  <rect x="102.2629075279201" y="70.81580460247096" width="30" height="44.18419539752904" rx="4" fill="#FFE566" opacity="1"/>
  <ellipse cx="117.2629075279201" cy="70.81580460247096" rx="15" ry="5" fill="#FFE566" opacity="1"/>
  <path d="M117.2629075279201,48.81580460247096 Q124.2629075279201,61.81580460247096 117.2629075279201,65.81580460247096 Q110.2629075279201,61.81580460247096 117.2629075279201,48.81580460247096Z" fill="#FFE566"/>
  <rect x="149.55840762655498" y="65.35535651660211" width="30" height="49.644643483397886" rx="4" fill="#A8D0F0" opacity="1"/>
  <ellipse cx="164.55840762655498" cy="65.35535651660211" rx="15" ry="5" fill="#A8D0F0" opacity="1"/>
  <path d="M164.55840762655498,43.355356516602114 Q171.55840762655498,56.355356516602114 164.55840762655498,60.355356516602114 Q157.55840762655498,56.355356516602114 164.55840762655498,43.355356516602114Z" fill="#A8D0F0"/>
  <circle cx="66.72553467114085" cy="47.290942031240775" r="8.484553599264473" fill="#FFE566" opacity="0.6"/>
  <circle cx="113.96151887354335" cy="36.581326521991286" r="7.9435836048505735" fill="#A8D0F0" opacity="0.6"/>
  <circle cx="94.67779477687145" cy="41.89973361282682" r="4.530420290266193" fill="#FFE566" opacity="0.6"/>
  <circle cx="37.6613436358457" cy="42.58550237615964" r="7.781209663509799" fill="#A8D0F0" opacity="0.6"/>
  <circle cx="140.97534070513575" cy="56.8432316454664" r="8.134983728217776" fill="#FFE566" opacity="0.6"/>
  <rect x="155" y="50" width="8" height="40" rx="2" fill="#8B4513" opacity="1"/>
  <rect x="153" y="85" width="12" height="20" rx="3" fill="#B7E4C7" opacity="1"/>
</svg>