<svg xmlns="http://www.w3.org/2000/svg" viewBox="0 0 200 150" width="200" height="150">
  
    <defs>
      <linearGradient id="bg7750" gradientTransform="rotate(45)">
        <stop offset="0%" style="stop-color:#E8F0E8"/>
        <stop offset="100%" style="stop-color:#C5DBC5"/>
      </linearGradient>
    </defs>
    <rect width="200" height="150" fill="url(#bg7750)" rx="16"/>
  
  <rect x="35" y="63.880230150562056" width="60" height="70" rx="4" fill="white" opacity="1"/>
  <rect x="105" y="63.880230150562056" width="60" height="70" rx="4" fill="#FFF8F0" opacity="1"/>
  <line x1="100" y1="63.880230150562056" x2="100" y2="133.88023015056206" stroke="#A3C4A3" stroke-width="3"/>
  <line x1="45" y1="78.88023015056206" x2="77.31085710701336" y2="78.88023015056206" stroke="#DDD" stroke-width="2"/>
  <line x1="115" y1="78.88023015056206" x2="147.31085710701336" y2="78.88023015056206" stroke="#DDD" stroke-width="2"/>
  <line x1="45" y1="90.88023015056206" x2="89.4812219913365" y2="90.88023015056206" stroke="#DDD" stroke-width="2"/>
  <line x1="115" y1="90.88023015056206" x2="159.4812219913365" y2="90.88023015056206" stroke="#DDD" stroke-width="2"/>
  <line x1="45" y1="102.88023015056206" x2="77.7074297373315" y2="102.88023015056206" stroke="#DDD" stroke-width="2"/>
  <line x1="115" y1="102.88023015056206" x2="147.7074297373315" y2="102.88023015056206" stroke="#DDD" stroke-width="2"/>
  <line x1="45" y1="114.88023015056206" x2="79.34612541711431" y2="114.88023015056206" stroke="#DDD" stroke-width="2"/>
  <line x1="115" y1="114.88023015056206" x2="149.3461254171143" y2="114.88023015056206" stroke="#DDD" stroke-width="2"/>
  <line x1="45" y1="126.88023015056206" x2="82.21084877827707" y2="126.88023015056206" stroke="#DDD" stroke-width="2"/>
  <line x1="115" y1="126.88023015056206" x2="152.21084877827707" y2="126.88023015056206" stroke="#DDD" stroke-width="2"/>
  <polygon points="70,63.880230150562056 72.3511410091699,68.64416217306227 77.60845213036123,69.40809419556248 73.80422606518061,73.11629812806184 74.70228201833979,78.35236610556163 70,75.88023015056206 65.29771798166021,78.35236610556163 66.19577393481939,73.11629812806184 62.39154786963877,69.40809419556247 67.6488589908301,68.64416217306227" fill="#FFE566"/>
  <polygon points="140,63.880230150562056 142.35114100916988,68.64416217306227 147.60845213036123,69.40809419556248 143.80422606518061,73.11629812806184 144.7022820183398,78.35236610556163 140,75.88023015056206 135.2977179816602,78.35236610556163 136.19577393481939,73.11629812806184 132.39154786963877,69.40809419556247 137.64885899083012,68.64416217306227" fill="#FFE566"/>
  <g>
      <polygon points="25,32 26.2,38.8 33,40 26.2,41.2 25,48 23.8,41.2 17,40 23.8,38.8" fill="#FFF3B0"/>
    </g>
  <g>
      <polygon points="175,39 175.9,44.1 181,45 175.9,45.9 175,51 174.1,45.9 169,45 174.1,44.1" fill="#C5DBC5"/>
    </g>
</svg>