<svg xmlns="http://www.w3.org/2000/svg" viewBox="0 0 200 150" width="200" height="150">
  
    <defs>
      <linearGradient id="bg7905" gradientTransform="rotate(45)">
        <stop offset="0%" style="stop-color:#D4E9FF"/>
        <stop offset="100%" style="stop-color:#A8D0F0"/>
      </linearGradient>
    </defs>
    <rect width="200" height="150" fill="url(#bg7905)" rx="16"/>
  
  <rect x="37.59352542519082" y="70.70887094513637" width="30" height="44.29112905486363" rx="4" fill="#B7E4C7" opacity="1"/>
  <ellipse cx="52.59352542519082" cy="70.70887094513637" rx="15" ry="5" fill="#B7E4C7" opacity="1"/>
  <path d="M52.59352542519082,48.70887094513637 Q59.59352542519082,61.70887094513637 52.59352542519082,65.70887094513637 Q45.59352542519082,61.70887094513637 52.59352542519082,48.70887094513637Z" fill="#B7E4C7"/>
  <rect x="88.13541317575982" y="76.29000441691915" width="30" height="38.709995583080854" rx="4" fill="#FFB3B3" opacity="1"/>
  <ellipse cx="103.13541317575982" cy="76.29000441691915" rx="15" ry="5" fill="#FFB3B3" opacity="1"/>
  <path d="M103.13541317575982,54.290004416919146 Q110.13541317575982,67.29000441691915 103.13541317575982,71.29000441691915 Q96.13541317575982,67.29000441691915 103.13541317575982,54.290004416919146Z" fill="#FFB3B3"/>
  <rect x="140.0769181150281" y="78.91436664497633" width="30" height="36.085633355023674" rx="4" fill="#A8D0F0" opacity="1"/>
  <ellipse cx="155.0769181150281" cy="78.91436664497633" rx="15" ry="5" fill="#A8D0F0" opacity="1"/>
  <path d="M155.0769181150281,56.914366644976326 Q162.0769181150281,69.91436664497633 155.0769181150281,73.91436664497633 Q148.0769181150281,69.91436664497633 155.0769181150281,56.914366644976326Z" fill="#A8D0F0"/>
  <circle cx="31.742053060224862" cy="50.291810063463345" r="10.713062165203155" fill="#A8D0F0" opacity="0.6"/>
  <circle cx="93.1778056019175" cy="59.90645115511143" r="10.656728875328554" fill="#B7E4C7" opacity="0.6"/>
  <circle cx="128.58507339355128" cy="38.536947544716895" r="10.807991965173642" fill="#A8D0F0" opacity="0.6"/>
  <circle cx="130.03077074068642" cy="40.88146376261648" r="5.752331366755243" fill="#B7E4C7" opacity="0.6"/>
  <circle cx="112.44940135649813" cy="42.16855769560425" r="9.894488715399348" fill="#B7E4C7" opacity="0.6"/>
  <rect x="155" y="50" width="8" height="40" rx="2" fill="#8B4513" opacity="1"/>
  <rect x="153" y="85" width="12" height="20" rx="3" fill="#B7E4C7" opacity="1"/>
</svg>